<svg width="26" height="26" viewBox="0 0 26 26" fill="none" xmlns="http://www.w3.org/2000/svg">
<g clip-path="url(#clip0_135_19272)">
<path d="M5.68804 4.875H19.8506V6.56834H5.68804V4.875Z" fill="#F5F5F5"/>
<path opacity="0.3" d="M5.68795 4.875H9.64002V6.56834H5.68795V4.875Z" fill="black"/>
<path d="M5.68843 5.16955C5.68843 5.1784 8.85893 5.18598 12.7692 5.18598C16.6809 5.18598 19.8509 5.1784 19.8509 5.16955C19.8509 5.1607 16.6809 5.15311 12.7692 5.15311C8.85893 5.15311 5.68843 5.1607 5.68843 5.16955Z" fill="#263238"/>
<path d="M5.68843 5.45841C5.68843 5.46726 8.85893 5.47485 12.7692 5.47485C16.6809 5.47485 19.8509 5.46726 19.8509 5.45841C19.8509 5.44956 16.6809 5.44198 12.7692 5.44198C8.85893 5.44198 5.68843 5.44893 5.68843 5.45841Z" fill="#263238"/>
<path d="M5.68843 5.74664C5.68843 5.75549 8.85893 5.76307 12.7692 5.76307C16.6809 5.76307 19.8509 5.75549 19.8509 5.74664C19.8509 5.73779 16.6809 5.73021 12.7692 5.73021C8.85893 5.73021 5.68843 5.73716 5.68843 5.74664Z" fill="#263238"/>
<path d="M5.68843 6.03487C5.68843 6.04372 8.85893 6.0513 12.7692 6.0513C16.6809 6.0513 19.8509 6.04372 19.8509 6.03487C19.8509 6.02602 16.6809 6.01843 12.7692 6.01843C8.85893 6.01843 5.68843 6.02602 5.68843 6.03487Z" fill="#263238"/>
<path d="M5.68843 6.31678C5.68843 6.32563 8.85893 6.33321 12.7692 6.33321C16.6809 6.33321 19.8509 6.32563 19.8509 6.31678C19.8509 6.30793 16.6809 6.30034 12.7692 6.30034C8.85893 6.30034 5.68843 6.30793 5.68843 6.31678Z" fill="#263238"/>
<path d="M3.87211 9.25279H22.2322V12.2697H3.87211V9.25279Z" fill="#A71315"/>
<path d="M7.92602 11.6749C7.9265 11.6743 7.92699 11.6623 7.92795 11.6402C7.92843 11.6142 7.92891 11.5826 7.92987 11.5441C7.93083 11.4562 7.93227 11.3361 7.93419 11.187C7.93611 10.8791 7.93851 10.4518 7.94188 9.94998L7.92651 9.9702C8.19263 9.97083 8.48663 9.97147 8.79551 9.9721C8.79935 9.97652 8.7638 9.93101 8.77918 9.95061V9.95124V9.95187V9.95377V9.95756V9.96515V9.98032V10.0107V10.0713C8.77918 10.1118 8.77918 10.1516 8.77918 10.1914C8.77918 10.2711 8.77918 10.3495 8.77918 10.4272C8.77918 10.5821 8.77966 10.7331 8.77966 10.8785C8.78062 11.1686 8.78158 11.4373 8.78206 11.6749L8.79551 11.6572C8.53514 11.661 8.31993 11.6642 8.16621 11.6667C8.09272 11.6686 8.03411 11.6699 7.99039 11.6711C7.94908 11.6724 7.92698 11.6737 7.92602 11.6749C7.92506 11.6762 7.94524 11.6775 7.98463 11.6787C8.02786 11.68 8.08551 11.6812 8.15757 11.6831C8.31369 11.6857 8.5313 11.6888 8.79503 11.6926H8.80848V11.6749C8.80944 11.4366 8.80992 11.1686 8.81088 10.8785C8.81088 10.7331 8.81136 10.5821 8.81136 10.4272C8.81136 10.3495 8.81136 10.2711 8.81136 10.1914C8.81136 10.1516 8.81136 10.1118 8.81136 10.0713V10.0107V9.98032V9.96515V9.95756V9.95377V9.95187V9.95124V9.95061C8.82625 9.9702 8.79119 9.92343 8.79455 9.92849C8.48518 9.92912 8.19119 9.92975 7.92554 9.93038H7.91017V9.95061C7.91305 10.4575 7.91594 10.8899 7.91786 11.2009C7.91978 11.3481 7.92074 11.467 7.92218 11.5536C7.92314 11.5909 7.92362 11.6212 7.9241 11.6458C7.92458 11.6654 7.92554 11.6756 7.92602 11.6749Z" fill="#263238"/>
<path d="M3.8726 9.72496H6.70443V11.7653H3.8726V9.72496Z" fill="white"/>
<path opacity="0.3" d="M3.8726 9.25279H7.0772V12.2697H3.8726V9.25279Z" fill="black"/>
<path d="M7.09113 12.252C7.10025 12.252 7.10794 11.5864 7.10794 10.7647C7.10794 9.94302 7.10025 9.27744 7.09113 9.27744C7.082 9.27744 7.07431 9.94302 7.07431 10.7647C7.07431 11.5864 7.082 12.252 7.09113 12.252Z" fill="#263238"/>
<path d="M3.85098 10.2079C3.85098 10.2199 4.49469 10.23 5.28827 10.23C6.08234 10.23 6.72556 10.2199 6.72556 10.2079C6.72556 10.1959 6.08234 10.1857 5.28827 10.1857C4.49469 10.1857 3.85098 10.1959 3.85098 10.2079Z" fill="#263238"/>
<path d="M3.85098 10.7451C3.85098 10.7571 4.49469 10.7673 5.28827 10.7673C6.08234 10.7673 6.72556 10.7571 6.72556 10.7451C6.72556 10.7331 6.08234 10.723 5.28827 10.723C4.49469 10.723 3.85098 10.7331 3.85098 10.7451Z" fill="#263238"/>
<path d="M3.85098 11.29C3.85098 11.302 4.49469 11.3121 5.28827 11.3121C6.08234 11.3121 6.72556 11.302 6.72556 11.29C6.72556 11.278 6.08234 11.2679 5.28827 11.2679C4.49469 11.2679 3.85098 11.2773 3.85098 11.29Z" fill="#263238"/>
<path d="M3.66987 12.2944H22.0299V13.7829H3.66987V12.2944Z" fill="#FF9A6C"/>
<path d="M3.66988 12.4802H7.77423V13.6072H3.66988V12.4802Z" fill="#E0E0E0"/>
<path opacity="0.3" d="M3.66987 12.2944H8.00625V13.7829H3.66987V12.2944Z" fill="black"/>
<path d="M8.00625 13.7823C8.01538 13.7823 8.0221 13.4612 8.02162 13.0661C8.02066 12.6705 8.01249 12.35 8.00337 12.35C7.99424 12.35 7.98751 12.6705 7.98799 13.0661C7.98896 13.4618 7.99712 13.7823 8.00625 13.7823Z" fill="#263238"/>
<path d="M9.65251 12.8677H20.7099V13.2235H9.65251V12.8677Z" fill="#E0E0E0"/>
<path d="M8.45252 13.7709C8.45252 13.7829 11.4952 13.793 15.2475 13.793C19.0012 13.793 22.0429 13.7829 22.0429 13.7709C22.0429 13.7589 19.0012 13.7488 15.2475 13.7488C11.4952 13.7488 8.45252 13.7589 8.45252 13.7709Z" fill="#263238"/>
<path d="M7.9611 13.7779C7.9611 13.7899 11.0038 13.8 14.7561 13.8C18.5097 13.8 21.5515 13.7899 21.5515 13.7779C21.5515 13.7658 18.5097 13.7557 14.7561 13.7557C11.0038 13.7557 7.9611 13.7658 7.9611 13.7779Z" fill="#263238"/>
<path d="M3.66988 12.283C3.66988 12.295 7.67335 12.3051 12.6102 12.3051C17.549 12.3051 21.5515 12.295 21.5515 12.283C21.5515 12.271 17.549 12.2609 12.6102 12.2609C7.67335 12.2609 3.66988 12.271 3.66988 12.283Z" fill="#263238"/>
<path d="M5.09372 21.7408H23.4538V23.2294H5.09372V21.7408Z" fill="#FFBE3B"/>
<path d="M5.09372 21.9273H9.19807V23.0543H5.09372V21.9273Z" fill="#E0E0E0"/>
<path opacity="0.3" d="M5.09372 21.7408H9.43009V23.2294H5.09372V21.7408Z" fill="black"/>
<path d="M9.43009 23.2294C9.43922 23.2294 9.44594 22.9083 9.44546 22.5132C9.4445 22.1175 9.43634 21.7971 9.42721 21.7971C9.41808 21.7971 9.41136 22.1175 9.41184 22.5132C9.4128 22.9089 9.42096 23.2294 9.43009 23.2294Z" fill="#263238"/>
<path d="M11.0764 22.3147H22.1337V22.6706H11.0764V22.3147Z" fill="white"/>
<path d="M9.87685 23.218C9.87685 23.23 12.9196 23.2401 16.6718 23.2401C20.4255 23.2401 23.4672 23.23 23.4672 23.218C23.4672 23.206 20.4255 23.1959 16.6718 23.1959C12.9191 23.1959 9.87685 23.206 9.87685 23.218Z" fill="#263238"/>
<path d="M9.38494 23.2249C9.38494 23.2369 12.4277 23.2471 16.1799 23.2471C19.9336 23.2471 22.9753 23.2369 22.9753 23.2249C22.9753 23.2129 19.9336 23.2028 16.1799 23.2028C12.4277 23.2028 9.38494 23.2129 9.38494 23.2249Z" fill="#263238"/>
<path d="M5.09372 21.7301C5.09372 21.7421 9.09719 21.7522 14.034 21.7522C18.9728 21.7522 22.9753 21.7421 22.9753 21.7301C22.9753 21.7181 18.9728 21.7079 14.034 21.7079C9.09719 21.7079 5.09372 21.7181 5.09372 21.7301Z" fill="#263238"/>
<path d="M-0.721741 23.2357H25.2783V24.7242H-0.721741V23.2357Z" fill="#E84126"/>
<path d="M-0.721738 23.4221H4.8324V24.5491H-0.721738V23.4221Z" fill="#E0E0E0"/>
<path opacity="0.3" d="M-0.722222 23.2357H5.14608V24.7242H-0.722222V23.2357Z" fill="black"/>
<path d="M5.14608 24.7242C5.15857 24.7242 5.16769 24.4031 5.16673 24.0081C5.16577 23.6124 5.15472 23.2919 5.14223 23.2919C5.12974 23.2919 5.12062 23.6124 5.12158 24.0081C5.12254 24.4038 5.13359 24.7242 5.14608 24.7242Z" fill="#263238"/>
<path d="M7.37359 23.8096H22.3369V24.1655H7.37359V23.8096Z" fill="#E0E0E0"/>
<path d="M5.08507 24.7198C5.08507 24.7318 9.20239 24.7419 14.28 24.7419C19.3595 24.7419 23.4759 24.7318 23.4759 24.7198C23.4759 24.7078 19.3595 24.6977 14.28 24.6977C9.20239 24.6977 5.08507 24.7078 5.08507 24.7198Z" fill="#263238"/>
<path d="M-0.721748 23.2249C-0.721748 23.2369 4.69548 23.2471 11.3766 23.2471C18.0601 23.2471 23.4764 23.2369 23.4764 23.2249C23.4764 23.2129 18.0601 23.2028 11.3766 23.2028C4.69548 23.2028 -0.721748 23.2129 -0.721748 23.2249Z" fill="#263238"/>
<path d="M10.3629 17.1307H4.29958V14.2048H10.3629V17.1307Z" fill="#EBEBEB"/>
<path d="M23.6269 14.3152L4.29988 14.3152V13.7021L23.6269 13.7021V14.3152Z" fill="#C7261B"/>
<path d="M23.6269 17.6133L4.29988 17.6133V17.0002L23.6269 17.0002V17.6133Z" fill="#C7261B"/>
<path d="M10.1111 13.8125L10.1414 17.4602H23.5689V13.8125H10.1111Z" fill="#C7261B"/>
<path d="M13.5075 16.7417C13.1547 16.7417 12.8686 16.3353 12.8686 15.834C12.8686 15.3327 13.1547 14.9263 13.5075 14.9263C13.8604 14.9263 14.1464 15.3327 14.1464 15.834C14.1464 16.3353 13.8604 16.7417 13.5075 16.7417Z" fill="#263238"/>
<path d="M14.2454 15.834C14.2454 15.2613 13.9144 14.7955 13.5071 14.7955C13.1002 14.7955 12.7692 15.2613 12.7692 15.834C12.7692 16.4067 13.1002 16.8719 13.5071 16.8719C13.9144 16.8725 14.2454 16.4067 14.2454 15.834ZM14.0475 15.834C14.0475 16.2626 13.8054 16.6115 13.5075 16.6115C13.2102 16.6115 12.9676 16.2626 12.9676 15.834C12.9676 15.4055 13.2097 15.0566 13.5075 15.0566C13.8049 15.0572 14.0475 15.4055 14.0475 15.834Z" fill="#E0E0E0"/>
<path d="M21.557 16.7393H16.2306V14.7868H21.557V16.7393Z" fill="white"/>
<path d="M17.0599 16.5407C17.0316 16.5407 17.0085 16.1924 17.0085 15.7632C17.0085 15.3334 17.0316 14.9851 17.0599 14.9851C17.0883 14.9851 17.1113 15.3334 17.1113 15.7632C17.1118 16.1924 17.0888 16.5407 17.0599 16.5407Z" fill="#E0E0E0"/>
<path d="M17.7642 16.5407C17.7358 16.5407 17.7128 16.1924 17.7128 15.7632C17.7128 15.3334 17.7358 14.9851 17.7642 14.9851C17.7925 14.9851 17.8156 15.3334 17.8156 15.7632C17.8161 16.1924 17.793 16.5407 17.7642 16.5407Z" fill="#E0E0E0"/>
<path d="M18.4689 16.5407C18.4406 16.5407 18.4175 16.1924 18.4175 15.7632C18.4175 15.3334 18.4406 14.9851 18.4689 14.9851C18.4972 14.9851 18.5203 15.3334 18.5203 15.7632C18.5203 16.1924 18.4972 16.5407 18.4689 16.5407Z" fill="#E0E0E0"/>
<path d="M19.1731 16.5407C19.1448 16.5407 19.1217 16.1924 19.1217 15.7632C19.1217 15.3334 19.1448 14.9851 19.1731 14.9851C19.2015 14.9851 19.2245 15.3334 19.2245 15.7632C19.2245 16.1924 19.2015 16.5407 19.1731 16.5407Z" fill="#E0E0E0"/>
<path d="M19.8774 16.5407C19.849 16.5407 19.826 16.1924 19.826 15.7632C19.826 15.3334 19.849 14.9851 19.8774 14.9851C19.9057 14.9851 19.9288 15.3334 19.9288 15.7632C19.9288 16.1924 19.9057 16.5407 19.8774 16.5407Z" fill="#E0E0E0"/>
<path d="M20.5816 16.5407C20.5533 16.5407 20.5302 16.1924 20.5302 15.7632C20.5302 15.3334 20.5533 14.9851 20.5816 14.9851C20.6099 14.9851 20.633 15.3334 20.633 15.7632C20.633 16.1924 20.6099 16.5407 20.5816 16.5407Z" fill="#E0E0E0"/>
<path d="M10.2021 17.0609C10.2088 17.0609 10.2146 16.4465 10.2146 15.688C10.2146 14.9295 10.2088 14.3151 10.2021 14.3151C10.1953 14.3151 10.1896 14.9295 10.1896 15.688C10.1896 16.4459 10.1949 17.0609 10.2021 17.0609Z" fill="#263238"/>
<path d="M4.4135 14.7778C4.4135 14.7867 5.70284 14.7942 7.29289 14.7942C8.88343 14.7942 10.1728 14.7867 10.1728 14.7778C10.1728 14.769 8.88391 14.7614 7.29289 14.7614C5.70284 14.7614 4.4135 14.7683 4.4135 14.7778Z" fill="#263238"/>
<path d="M4.4135 15.2209C4.4135 15.2297 5.70284 15.2373 7.29289 15.2373C8.88343 15.2373 10.1728 15.2297 10.1728 15.2209C10.1728 15.212 8.88391 15.2045 7.29289 15.2045C5.70284 15.2045 4.4135 15.212 4.4135 15.2209Z" fill="#263238"/>
<path d="M4.4135 15.664C4.4135 15.6728 5.70284 15.6804 7.29289 15.6804C8.88343 15.6804 10.1728 15.6728 10.1728 15.664C10.1728 15.6551 8.88391 15.6475 7.29289 15.6475C5.70284 15.6475 4.4135 15.6551 4.4135 15.664Z" fill="#263238"/>
<path d="M4.4135 16.1071C4.4135 16.1159 5.70284 16.1235 7.29289 16.1235C8.88343 16.1235 10.1728 16.1159 10.1728 16.1071C10.1728 16.0982 8.88391 16.0906 7.29289 16.0906C5.70284 16.0906 4.4135 16.0982 4.4135 16.1071Z" fill="#263238"/>
<path d="M4.4135 16.5508C4.4135 16.5596 5.70284 16.5672 7.29289 16.5672C8.88343 16.5672 10.1728 16.5596 10.1728 16.5508C10.1728 16.5419 8.88391 16.5344 7.29289 16.5344C5.70284 16.5344 4.4135 16.5413 4.4135 16.5508Z" fill="#263238"/>
<path opacity="0.3" d="M4.29965 13.6925H10.5566V17.6133H4.29965V13.6925Z" fill="#ACACAC"/>
<path d="M4.71902 6.56518H20.3664V9.26227H4.71902V6.56518Z" fill="#FFBE3B"/>
<path d="M4.71902 6.9457H8.17534V8.8609H4.71902V6.9457Z" fill="#F5F5F5"/>
<path opacity="0.3" d="M4.71854 6.56518H8.55484V9.26227H4.71854V6.56518Z" fill="black"/>
<path d="M9.60784 8.67065C9.60784 8.67065 9.60832 8.64536 9.6088 8.59606C9.60928 8.54676 9.60928 8.47407 9.61024 8.37926C9.61072 8.18837 9.61216 7.90772 9.61312 7.54238L9.60784 7.5487C11.2887 7.54997 15.0755 7.55376 19.4753 7.55755H19.4758L19.4628 7.54238C19.4628 7.92858 19.4628 8.31099 19.4628 8.67001L19.4758 8.65484C16.7078 8.65737 14.243 8.6599 12.469 8.66116C11.5812 8.66306 10.8669 8.66496 10.3736 8.66559C10.1271 8.66622 9.93594 8.66748 9.80623 8.66748C9.74186 8.66812 9.69238 8.66812 9.65876 8.66875C9.62561 8.67001 9.60784 8.67065 9.60784 8.67065C9.60784 8.67065 9.62417 8.67128 9.65683 8.67191C9.69046 8.67191 9.73898 8.67254 9.80287 8.67317C9.93209 8.67381 10.1223 8.67444 10.3673 8.67507C10.8597 8.67633 11.5731 8.6776 12.4594 8.67949C14.2358 8.68139 16.704 8.68329 19.4758 8.68582H19.4887V8.67065C19.4887 8.31162 19.4887 7.92922 19.4887 7.54301V7.52784H19.4758H19.4753C15.0755 7.53164 11.2882 7.53543 9.60784 7.53669H9.60255V7.54301C9.60399 7.90962 9.60495 8.19153 9.60543 8.38305C9.60591 8.47723 9.60639 8.54929 9.60688 8.59859C9.60736 8.64663 9.60784 8.67065 9.60784 8.67065Z" fill="#263238"/>
<path d="M8.54187 9.24457C8.54908 9.24457 8.55484 8.6403 8.55484 7.89508C8.55484 7.14923 8.54908 6.54559 8.54187 6.54559C8.53466 6.54559 8.5289 7.14986 8.5289 7.89508C8.5289 8.6403 8.53466 9.24457 8.54187 9.24457Z" fill="#263238"/>
<path d="M1.50817 17.5514H24.2046V21.718H1.50817V17.5514Z" fill="#FF725E"/>
<path d="M1.87855 18.0716H24.2046V21.1808H1.87855V18.0716Z" fill="#F5F5F5"/>
<path d="M1.87855 18.7517C1.87855 18.7517 1.89824 18.753 1.93619 18.7542C1.9751 18.7549 2.03179 18.7555 2.10577 18.7561C2.25516 18.7568 2.4747 18.7586 2.75716 18.7605C3.32353 18.7624 4.14113 18.7643 5.15233 18.7675C7.1752 18.7694 9.9686 18.7713 13.0536 18.7738C16.14 18.7713 18.9334 18.7688 20.9563 18.7675C21.967 18.7643 22.7851 18.7624 23.351 18.7605C23.6334 18.7586 23.8525 18.7574 24.0019 18.7561C24.0759 18.7549 24.1326 18.7542 24.171 18.7542C24.2089 18.7536 24.2286 18.7517 24.2286 18.7517C24.2286 18.7517 24.2089 18.7504 24.171 18.7492C24.1321 18.7485 24.0759 18.7479 24.0019 18.7473C23.8525 18.7466 23.633 18.7447 23.351 18.7428C22.7851 18.741 21.967 18.7391 20.9563 18.7359C18.9334 18.734 16.14 18.7321 13.0536 18.7296C9.9686 18.7321 7.1752 18.7346 5.15233 18.7359C4.14161 18.7391 3.32353 18.741 2.75716 18.7428C2.4747 18.7447 2.25564 18.746 2.10577 18.7473C2.03179 18.7485 1.9751 18.7492 1.93619 18.7492C1.89824 18.7498 1.87855 18.7517 1.87855 18.7517Z" fill="#263238"/>
<path d="M1.87855 19.5829C1.87855 19.5829 1.89824 19.5841 1.93619 19.5854C1.9751 19.586 2.03179 19.5867 2.10577 19.5873C2.25516 19.5879 2.4747 19.5898 2.75716 19.5917C3.32353 19.5936 4.14113 19.5955 5.15233 19.5987C7.1752 19.6006 9.9686 19.6025 13.0536 19.605C16.14 19.6025 18.9334 19.5999 20.9563 19.5987C21.967 19.5955 22.7851 19.5936 23.351 19.5917C23.6334 19.5898 23.8525 19.5886 24.0019 19.5873C24.0759 19.586 24.1326 19.5854 24.171 19.5854C24.2089 19.5848 24.2286 19.5829 24.2286 19.5829C24.2286 19.5829 24.2089 19.5816 24.171 19.5804C24.1321 19.5797 24.0759 19.5791 24.0019 19.5785C23.8525 19.5772 23.633 19.5759 23.351 19.574C22.7851 19.5721 21.967 19.5702 20.9563 19.5671C18.9334 19.5652 16.14 19.5633 13.0536 19.5608C9.9686 19.5633 7.1752 19.5658 5.15233 19.5671C4.14161 19.5702 3.32353 19.5721 2.75716 19.574C2.4747 19.5759 2.25564 19.5772 2.10577 19.5785C2.03179 19.5791 1.9751 19.5804 1.93619 19.5804C1.89824 19.581 1.87855 19.5829 1.87855 19.5829Z" fill="#263238"/>
<path d="M1.87855 20.4141C1.87855 20.4141 1.89824 20.4153 1.93619 20.4166C1.9751 20.4172 2.03179 20.4179 2.10577 20.4185C2.25516 20.4191 2.4747 20.421 2.75716 20.4229C3.32353 20.4248 4.14113 20.4267 5.15233 20.4299C7.1752 20.4318 9.9686 20.4337 13.0536 20.4362C16.14 20.4337 18.9334 20.4311 20.9563 20.4299C21.967 20.4267 22.7851 20.4248 23.351 20.4229C23.6334 20.421 23.8525 20.4198 24.0019 20.4185C24.0759 20.4172 24.1326 20.4166 24.171 20.4166C24.2089 20.416 24.2286 20.4141 24.2286 20.4141C24.2286 20.4141 24.2089 20.4128 24.171 20.4115C24.1321 20.4109 24.0759 20.4103 24.0019 20.4096C23.8525 20.4084 23.633 20.4071 23.351 20.4052C22.7851 20.4033 21.967 20.4014 20.9563 20.3983C18.9334 20.3964 16.14 20.3945 13.0536 20.3919C9.9686 20.3945 7.1752 20.397 5.15233 20.3983C4.14161 20.4014 3.32353 20.4033 2.75716 20.4052C2.4747 20.4071 2.25564 20.4084 2.10577 20.4096C2.03179 20.4103 1.9751 20.4115 1.93619 20.4115C1.89824 20.4128 1.87855 20.4141 1.87855 20.4141Z" fill="#263238"/>
<path opacity="0.3" d="M1.50817 17.5514H7.76942V21.718H1.50817V17.5514Z" fill="black"/>
<path d="M3.87884 10.2938C3.87884 10.2913 3.84426 10.3071 3.81255 10.3709C3.78085 10.4316 3.76163 10.5549 3.81543 10.6655L3.8212 10.6427C3.76115 10.6724 3.72993 10.7641 3.73233 10.8507C3.73425 10.9487 3.78325 11.027 3.83465 11.0688C3.88701 11.1124 3.9437 11.1231 3.98837 11.1237C4.03353 11.1244 4.06956 11.1174 4.09405 11.1124C4.11855 11.1067 4.132 11.1023 4.132 11.1004C4.13152 11.094 4.07628 11.1054 3.98933 11.1004C3.9461 11.0966 3.89422 11.0839 3.84714 11.0428C3.80102 11.0036 3.75875 10.9329 3.75731 10.8488C3.75491 10.7723 3.78325 10.6933 3.82937 10.6705L3.8433 10.6636L3.83513 10.6478C3.81063 10.601 3.8015 10.5467 3.80198 10.4993C3.80246 10.4518 3.81255 10.4108 3.82552 10.3798C3.8505 10.3191 3.88077 10.2976 3.87884 10.2938Z" fill="#455A64"/>
</g>
<defs>
<clipPath id="clip0_135_19272">
<rect width="26" height="26" fill="white" transform="matrix(-1 0 0 1 26 0)"/>
</clipPath>
</defs>
</svg>
