<svg width="21" height="22" viewBox="0 0 21 22" fill="none" xmlns="http://www.w3.org/2000/svg">
<path d="M4.375 7.325C4.375 5.85486 4.375 5.11979 4.66111 4.55827C4.91278 4.06435 5.31435 3.66278 5.80827 3.41111C6.36979 3.125 7.10486 3.125 8.575 3.125H12.425C13.8951 3.125 14.6302 3.125 15.1917 3.41111C15.6857 3.66278 16.0872 4.06435 16.3389 4.55827C16.625 5.11979 16.625 5.85486 16.625 7.325V18.875L10.5 15.375L4.375 18.875V7.325Z" fill="#FAFAFA"/>
<path d="M7.875 9.6875L9.625 11.4375L13.5625 7.5M16.625 18.875V7.325C16.625 5.85486 16.625 5.11979 16.3389 4.55827C16.0872 4.06435 15.6857 3.66278 15.1917 3.41111C14.6302 3.125 13.8951 3.125 12.425 3.125H8.575C7.10486 3.125 6.36979 3.125 5.80827 3.41111C5.31435 3.66278 4.91278 4.06435 4.66111 4.55827C4.375 5.11979 4.375 5.85486 4.375 7.325V18.875L10.5 15.375L16.625 18.875Z" stroke="#FAFAFA" stroke-linecap="round" stroke-linejoin="round"/>
<path d="M7.875 9.6875L9.625 11.4375L13.5625 7.5" stroke="#006A7E" stroke-width="2" stroke-linecap="round" stroke-linejoin="round"/>
</svg>
