<svg width="36" height="32" viewBox="0 0 36 32" fill="none" xmlns="http://www.w3.org/2000/svg">
<path d="M8.46911 15.1184H29.8888V18.5936H8.46911V15.1184Z" fill="#FFBE3B"/>
<path d="M13.1981 17.9085C13.1987 17.9078 13.1992 17.8939 13.2003 17.8685C13.2009 17.8386 13.2015 17.8022 13.2026 17.7578C13.2037 17.6566 13.2054 17.5182 13.2076 17.3464C13.2099 16.9918 13.2127 16.4996 13.2166 15.9215L13.1987 15.9448C13.5093 15.9455 13.8524 15.9463 14.213 15.947C14.2175 15.9521 14.176 15.8997 14.1939 15.9223V15.923V15.9237V15.9259V15.9303V15.939V15.9565V15.9914V16.0613C14.1939 16.1079 14.1939 16.1538 14.1939 16.1997C14.1939 16.2914 14.1939 16.3817 14.1939 16.4712C14.1939 16.6496 14.1945 16.8236 14.1945 16.9911C14.1956 17.3253 14.1967 17.6347 14.1973 17.9085L14.213 17.8881C13.9091 17.8925 13.6579 17.8961 13.4784 17.899C13.3927 17.9012 13.3243 17.9027 13.2732 17.9041C13.225 17.9056 13.1992 17.907 13.1981 17.9085C13.197 17.91 13.2205 17.9114 13.2665 17.9129C13.317 17.9143 13.3843 17.9158 13.4684 17.918C13.6506 17.9209 13.9046 17.9245 14.2124 17.9289H14.2281V17.9085C14.2292 17.634 14.2298 17.3253 14.2309 16.9911C14.2309 16.8236 14.2315 16.6496 14.2315 16.4712C14.2315 16.3817 14.2315 16.2914 14.2315 16.1997C14.2315 16.1538 14.2315 16.1079 14.2315 16.0613V15.9914V15.9565V15.939V15.9303V15.9259V15.9237V15.923V15.9223C14.2489 15.9448 14.2079 15.8909 14.2118 15.8968C13.8508 15.8975 13.5076 15.8982 13.1975 15.899H13.1796V15.9223C13.183 16.5062 13.1863 17.0042 13.1886 17.3624C13.1908 17.5321 13.1919 17.669 13.1936 17.7687C13.1947 17.8117 13.1953 17.8466 13.1959 17.875C13.1964 17.8976 13.1975 17.9092 13.1981 17.9085Z" fill="#263238"/>
<path d="M8.46969 15.6623H11.7734V18.0126H8.46969V15.6623Z" fill="white"/>
<path opacity="0.3" d="M8.46968 15.1184H12.2083V18.5936H8.46968V15.1184Z" fill="black"/>
<path d="M12.2246 18.5733C12.2352 18.5733 12.2442 17.8066 12.2442 16.86C12.2442 15.9135 12.2352 15.1468 12.2246 15.1468C12.2139 15.1468 12.2049 15.9135 12.2049 16.86C12.2049 17.8066 12.2139 18.5733 12.2246 18.5733Z" fill="#263238"/>
<path d="M8.44446 16.2186C8.44446 16.2324 9.19544 16.2441 10.1213 16.2441C11.0477 16.2441 11.7981 16.2324 11.7981 16.2186C11.7981 16.2048 11.0477 16.1931 10.1213 16.1931C9.19544 16.1931 8.44446 16.2048 8.44446 16.2186Z" fill="#263238"/>
<path d="M8.44446 16.8375C8.44446 16.8513 9.19544 16.863 10.1213 16.863C11.0477 16.863 11.7981 16.8513 11.7981 16.8375C11.7981 16.8236 11.0477 16.812 10.1213 16.812C9.19544 16.812 8.44446 16.8236 8.44446 16.8375Z" fill="#263238"/>
<path d="M8.44446 17.4651C8.44446 17.4789 9.19544 17.4906 10.1213 17.4906C11.0477 17.4906 11.7981 17.4789 11.7981 17.4651C11.7981 17.4513 11.0477 17.4396 10.1213 17.4396C9.19544 17.4396 8.44446 17.4505 8.44446 17.4651Z" fill="#263238"/>
<path d="M9.78514 22.543H31.2048V24.2577H9.78514V22.543Z" fill="#FFD36C"/>
<path d="M9.78515 22.7578H14.5735V24.056H9.78515V22.7578Z" fill="#E0E0E0"/>
<path opacity="0.3" d="M9.78516 22.543H14.8442V24.2577H9.78516V22.543Z" fill="black"/>
<path d="M14.8442 24.2577C14.8548 24.2577 14.8627 23.8878 14.8621 23.4327C14.861 22.9769 14.8514 22.6078 14.8408 22.6078C14.8301 22.6078 14.8223 22.9769 14.8229 23.4327C14.824 23.8885 14.8335 24.2577 14.8442 24.2577Z" fill="#263238"/>
<path d="M16.7648 23.2041H29.6648V23.614H16.7648V23.2041Z" fill="white"/>
<path d="M15.3654 24.2446C15.3654 24.2584 18.9151 24.27 23.2927 24.27C27.6719 24.27 31.2205 24.2584 31.2205 24.2446C31.2205 24.2307 27.6719 24.2191 23.2927 24.2191C18.9146 24.2191 15.3654 24.2307 15.3654 24.2446Z" fill="#263238"/>
<path d="M14.7915 24.2526C14.7915 24.2664 18.3412 24.2781 22.7188 24.2781C27.098 24.2781 30.6466 24.2664 30.6466 24.2526C30.6466 24.2387 27.098 24.2271 22.7188 24.2271C18.3412 24.2271 14.7915 24.2387 14.7915 24.2526Z" fill="#263238"/>
<path d="M9.78514 22.5306C9.78514 22.5445 14.4558 22.5561 20.2153 22.5561C25.9771 22.5561 30.6466 22.5445 30.6466 22.5306C30.6466 22.5168 25.9771 22.5051 20.2153 22.5051C14.4558 22.5051 9.78514 22.5168 9.78514 22.5306Z" fill="#263238"/>
<path d="M3.00056 24.2649H33.3333V25.9796H3.00056V24.2649Z" fill="#A71315"/>
<path d="M3.00055 24.4797H9.48026V25.7779H3.00055V24.4797Z" fill="#E0E0E0"/>
<path opacity="0.3" d="M2.99999 24.2649H9.84622V25.9796H2.99999V24.2649Z" fill="black"/>
<path d="M9.8462 25.9796C9.86078 25.9796 9.87143 25.6097 9.87031 25.1547C9.86919 24.6989 9.85629 24.3298 9.84171 24.3298C9.82714 24.3298 9.81648 24.6989 9.8176 25.1547C9.81873 25.6105 9.83162 25.9796 9.8462 25.9796Z" fill="#263238"/>
<path d="M12.4449 24.9261H29.9018V25.336H12.4449V24.9261Z" fill="#E0E0E0"/>
<path d="M9.77504 25.9745C9.77504 25.9884 14.5785 26 20.5023 26C26.4283 26 31.2306 25.9884 31.2306 25.9745C31.2306 25.9607 26.4283 25.949 20.5023 25.949C14.5785 25.949 9.77504 25.9607 9.77504 25.9745Z" fill="#263238"/>
<path d="M3.00055 24.2526C3.00055 24.2664 9.32053 24.2781 17.115 24.2781C24.9123 24.2781 31.2312 24.2664 31.2312 24.2526C31.2312 24.2387 24.9123 24.2271 17.115 24.2271C9.32053 24.2271 3.00055 24.2387 3.00055 24.2526Z" fill="#263238"/>
<path d="M9.45716 12.0226H27.7121V15.1294H9.45716V12.0226Z" fill="#E84126"/>
<path d="M9.45717 12.4609H13.4895V14.667H9.45717V12.4609Z" fill="#F5F5F5"/>
<path opacity="0.3" d="M9.4566 12.0226H13.9322V15.1294H9.4566V12.0226Z" fill="black"/>
<path d="M15.1607 14.4479C15.1607 14.4479 15.1612 14.4187 15.1618 14.3619C15.1624 14.3051 15.1624 14.2214 15.1635 14.1122C15.164 13.8923 15.1657 13.569 15.1668 13.1482L15.1607 13.1555C17.1216 13.1569 21.5395 13.1613 26.6725 13.1657H26.6731L26.6579 13.1482C26.6579 13.5931 26.6579 14.0336 26.6579 14.4471L26.6731 14.4296C23.4439 14.4326 20.5683 14.4355 18.4986 14.4369C17.4629 14.4391 16.6296 14.4413 16.054 14.442C15.7665 14.4428 15.5435 14.4442 15.3921 14.4442C15.317 14.4449 15.2593 14.4449 15.2201 14.4457C15.1814 14.4471 15.1607 14.4479 15.1607 14.4479C15.1607 14.4479 15.1797 14.4486 15.2178 14.4493C15.2571 14.4493 15.3137 14.45 15.3882 14.4508C15.539 14.4515 15.7609 14.4522 16.0467 14.4529C16.6212 14.4544 17.4534 14.4559 18.4874 14.458C20.5599 14.4602 23.4394 14.4624 26.6731 14.4653H26.6882V14.4479C26.6882 14.0343 26.6882 13.5938 26.6882 13.1489V13.1315H26.6731H26.6725C21.5395 13.1358 17.1211 13.1402 15.1607 13.1416H15.1545V13.1489C15.1562 13.5712 15.1573 13.896 15.1579 14.1166C15.1584 14.2251 15.159 14.3081 15.1596 14.3648C15.1601 14.4202 15.1607 14.4479 15.1607 14.4479Z" fill="#263238"/>
<path d="M13.9171 15.109C13.9255 15.109 13.9322 14.4129 13.9322 13.5545C13.9322 12.6953 13.9255 12 13.9171 12C13.9087 12 13.9019 12.6961 13.9019 13.5545C13.9019 14.4129 13.9087 15.109 13.9171 15.109Z" fill="#263238"/>
<path d="M5.60207 17.7172H32.0808V22.5168H5.60207V17.7172Z" fill="#FF725E"/>
<path d="M6.03416 18.3164H32.0808V21.8979H6.03416V18.3164Z" fill="#F5F5F5"/>
<path d="M6.03418 19.0998C6.03418 19.0998 6.05715 19.1013 6.10143 19.1028C6.14682 19.1035 6.21295 19.1042 6.29926 19.1049C6.47355 19.1057 6.72967 19.1078 7.0592 19.11C7.71995 19.1122 8.67381 19.1144 9.85351 19.118C12.2135 19.1202 15.4724 19.1224 19.0715 19.1253C22.6723 19.1224 25.9312 19.1195 28.2911 19.118C29.4703 19.1144 30.4247 19.1122 31.0849 19.11C31.4144 19.1078 31.67 19.1064 31.8443 19.1049C31.9306 19.1035 31.9967 19.1028 32.0415 19.1028C32.0858 19.102 32.1088 19.0998 32.1088 19.0998C32.1088 19.0998 32.0858 19.0984 32.0415 19.0969C31.9961 19.0962 31.9306 19.0955 31.8443 19.0947C31.67 19.094 31.4139 19.0918 31.0849 19.0896C30.4247 19.0875 29.4703 19.0853 28.2911 19.0816C25.9312 19.0795 22.6723 19.0773 19.0715 19.0744C15.4724 19.0773 12.2135 19.0802 9.85351 19.0816C8.67437 19.0853 7.71995 19.0875 7.0592 19.0896C6.72967 19.0918 6.47411 19.0933 6.29926 19.0947C6.21295 19.0962 6.14682 19.0969 6.10143 19.0969C6.05715 19.0977 6.03418 19.0998 6.03418 19.0998Z" fill="#263238"/>
<path d="M6.03418 20.0573C6.03418 20.0573 6.05715 20.0587 6.10143 20.0602C6.14682 20.0609 6.21295 20.0617 6.29926 20.0624C6.47355 20.0631 6.72967 20.0653 7.0592 20.0675C7.71995 20.0697 8.67381 20.0718 9.85351 20.0755C12.2135 20.0777 15.4724 20.0799 19.0715 20.0828C22.6723 20.0799 25.9312 20.0769 28.2911 20.0755C29.4703 20.0718 30.4247 20.0697 31.0849 20.0675C31.4144 20.0653 31.67 20.0638 31.8443 20.0624C31.9306 20.0609 31.9967 20.0602 32.0415 20.0602C32.0858 20.0595 32.1088 20.0573 32.1088 20.0573C32.1088 20.0573 32.0858 20.0558 32.0415 20.0544C31.9961 20.0536 31.9306 20.0529 31.8443 20.0522C31.67 20.0507 31.4139 20.0493 31.0849 20.0471C30.4247 20.0449 29.4703 20.0427 28.2911 20.0391C25.9312 20.0369 22.6723 20.0347 19.0715 20.0318C15.4724 20.0347 12.2135 20.0376 9.85351 20.0391C8.67437 20.0427 7.71995 20.0449 7.0592 20.0471C6.72967 20.0493 6.47411 20.0507 6.29926 20.0522C6.21295 20.0529 6.14682 20.0544 6.10143 20.0544C6.05715 20.0551 6.03418 20.0573 6.03418 20.0573Z" fill="#263238"/>
<path d="M6.03418 21.0147C6.03418 21.0147 6.05715 21.0162 6.10143 21.0176C6.14682 21.0184 6.21295 21.0191 6.29926 21.0198C6.47355 21.0206 6.72967 21.0227 7.0592 21.0249C7.71995 21.0271 8.67381 21.0293 9.85351 21.0329C12.2135 21.0351 15.4724 21.0373 19.0715 21.0402C22.6723 21.0373 25.9312 21.0344 28.2911 21.0329C29.4703 21.0293 30.4247 21.0271 31.0849 21.0249C31.4144 21.0227 31.67 21.0213 31.8443 21.0198C31.9306 21.0184 31.9967 21.0176 32.0415 21.0176C32.0858 21.0169 32.1088 21.0147 32.1088 21.0147C32.1088 21.0147 32.0858 21.0133 32.0415 21.0118C31.9961 21.0111 31.9306 21.0104 31.8443 21.0096C31.67 21.0082 31.4139 21.0067 31.0849 21.0045C30.4247 21.0023 29.4703 21.0002 28.2911 20.9965C25.9312 20.9943 22.6723 20.9922 19.0715 20.9892C15.4724 20.9922 12.2135 20.9951 9.85351 20.9965C8.67437 21.0002 7.71995 21.0023 7.0592 21.0045C6.72967 21.0067 6.47411 21.0082 6.29926 21.0096C6.21295 21.0104 6.14682 21.0118 6.10143 21.0118C6.05715 21.0133 6.03418 21.0147 6.03418 21.0147Z" fill="#263238"/>
<path opacity="0.3" d="M5.60208 17.7172H12.9067V22.5168H5.60208V17.7172Z" fill="black"/>
<path d="M8.73277 14.8539C8.73277 14.8515 8.69552 14.8666 8.66138 14.9277C8.62723 14.9858 8.60654 15.1038 8.66448 15.2097L8.67069 15.1879C8.60602 15.2164 8.5724 15.3041 8.57498 15.387C8.57705 15.4808 8.62982 15.5558 8.68517 15.5957C8.74156 15.6375 8.80261 15.6478 8.85072 15.6484C8.89935 15.649 8.93815 15.6423 8.96453 15.6375C8.99092 15.632 9.0054 15.6278 9.0054 15.626C9.00488 15.6199 8.94539 15.6308 8.85175 15.626C8.80519 15.6224 8.74932 15.6103 8.69862 15.5709C8.64896 15.5334 8.60344 15.4656 8.60188 15.3852C8.5993 15.312 8.62982 15.2363 8.67948 15.2145L8.69449 15.2079L8.68569 15.1928C8.65931 15.148 8.64948 15.0959 8.65 15.0506C8.65051 15.0052 8.66138 14.9659 8.67535 14.9362C8.70225 14.8781 8.73484 14.8575 8.73277 14.8539Z" fill="#455A64"/>
</svg>
