<svg width="46" height="56" viewBox="0 0 46 56" fill="none" xmlns="http://www.w3.org/2000/svg">
<path d="M12.828 22.06C13.528 22.06 14.116 21.976 14.592 21.808C15.068 21.64 15.446 21.416 15.726 21.136C16.0153 20.856 16.2207 20.5293 16.342 20.156C16.4727 19.7827 16.538 19.386 16.538 18.966C16.538 18.5273 16.468 18.1353 16.328 17.79C16.188 17.4353 15.9687 17.1367 15.67 16.894C15.3713 16.642 14.984 16.4507 14.508 16.32C14.0413 16.1893 13.4767 16.124 12.814 16.124H9.02V22.06H12.828ZM9.02 7.668V13.52H12.016C13.304 13.52 14.2747 13.2867 14.928 12.82C15.5907 12.3533 15.922 11.6113 15.922 10.594C15.922 9.53933 15.6233 8.788 15.026 8.34C14.4287 7.892 13.4953 7.668 12.226 7.668H9.02ZM12.226 4.756C13.5513 4.756 14.6853 4.882 15.628 5.134C16.5707 5.386 17.3407 5.74533 17.938 6.212C18.5447 6.67867 18.988 7.24333 19.268 7.906C19.548 8.56867 19.688 9.31533 19.688 10.146C19.688 10.622 19.618 11.0793 19.478 11.518C19.338 11.9473 19.1187 12.3533 18.82 12.736C18.5307 13.1093 18.1573 13.45 17.7 13.758C17.252 14.066 16.7153 14.3273 16.09 14.542C18.8713 15.1673 20.262 16.67 20.262 19.05C20.262 19.9087 20.0987 20.702 19.772 21.43C19.4453 22.158 18.9693 22.788 18.344 23.32C17.7187 23.8427 16.9487 24.2533 16.034 24.552C15.1193 24.8507 14.074 25 12.898 25H5.254V4.756H12.226ZM34.6317 21.962C35.3597 21.962 36.0084 21.8407 36.5777 21.598C37.1564 21.3553 37.6417 21.0147 38.0337 20.576C38.4257 20.1373 38.7244 19.6053 38.9297 18.98C39.1444 18.3547 39.2517 17.6547 39.2517 16.88V4.756H43.0177V16.88C43.0177 18.084 42.8217 19.1993 42.4297 20.226C42.047 21.2433 41.4917 22.1253 40.7637 22.872C40.045 23.6093 39.1677 24.188 38.1317 24.608C37.0957 25.0187 35.929 25.224 34.6317 25.224C33.325 25.224 32.1537 25.0187 31.1177 24.608C30.0817 24.188 29.1997 23.6093 28.4717 22.872C27.753 22.1253 27.1977 21.2433 26.8057 20.226C26.423 19.1993 26.2317 18.084 26.2317 16.88V4.756H29.9977V16.866C29.9977 17.6407 30.1004 18.3407 30.3057 18.966C30.5204 19.5913 30.8237 20.128 31.2157 20.576C31.617 21.0147 32.1024 21.3553 32.6717 21.598C33.2504 21.8407 33.9037 21.962 34.6317 21.962Z" fill="#FAFAFA"/>
<path d="M6.02 41.24H6.902C7.25667 41.24 7.55067 41.1933 7.784 41.1C8.01733 40.9973 8.218 40.8387 8.386 40.624L13.972 33.554C14.2053 33.2553 14.448 33.05 14.7 32.938C14.9613 32.8167 15.288 32.756 15.68 32.756H18.928L12.11 41.17C11.7087 41.6833 11.2933 42.0473 10.864 42.262C11.172 42.374 11.4473 42.5327 11.69 42.738C11.942 42.934 12.18 43.1953 12.404 43.522L19.432 53H16.114C15.666 53 15.33 52.9393 15.106 52.818C14.8913 52.6873 14.7093 52.5007 14.56 52.258L8.834 44.782C8.65667 44.53 8.45133 44.3527 8.218 44.25C7.98467 44.1473 7.64867 44.096 7.21 44.096H6.02V53H2.254V32.756H6.02V41.24ZM32.3973 49.962C33.1253 49.962 33.774 49.8407 34.3433 49.598C34.922 49.3553 35.4073 49.0147 35.7993 48.576C36.1913 48.1373 36.49 47.6053 36.6953 46.98C36.91 46.3547 37.0173 45.6547 37.0173 44.88V32.756H40.7833V44.88C40.7833 46.084 40.5873 47.1993 40.1953 48.226C39.8126 49.2433 39.2573 50.1253 38.5293 50.872C37.8106 51.6093 36.9333 52.188 35.8973 52.608C34.8613 53.0187 33.6946 53.224 32.3973 53.224C31.0906 53.224 29.9193 53.0187 28.8833 52.608C27.8473 52.188 26.9653 51.6093 26.2373 50.872C25.5186 50.1253 24.9633 49.2433 24.5713 48.226C24.1886 47.1993 23.9973 46.084 23.9973 44.88V32.756H27.7633V44.866C27.7633 45.6407 27.866 46.3407 28.0713 46.966C28.286 47.5913 28.5893 48.128 28.9813 48.576C29.3826 49.0147 29.868 49.3553 30.4373 49.598C31.016 49.8407 31.6693 49.962 32.3973 49.962Z" fill="#FAFAFA"/>
</svg>
