<svg width="27" height="22" viewBox="0 0 27 22" fill="none" xmlns="http://www.w3.org/2000/svg">
<g clip-path="url(#clip0_136_20528)">
<path d="M26.2067 0H0.793276C0.35504 0 0 0.347962 0 0.77746V18.3693C0 18.7988 0.35504 19.1467 0.793276 19.1467H10.5468C10.5468 19.1467 11.1673 21.0267 9.24376 22H18.364C18.364 22 16.1925 21.2703 16.751 19.1467H26.2067C26.645 19.1467 27 18.7988 27 18.3693V0.77746C27 0.347962 26.6444 0 26.2067 0Z" fill="#263238"/>
<path d="M13.8391 17.2968C14.1846 17.7808 13.6436 18.3111 13.1497 17.9725C13.1333 17.961 13.1185 17.9465 13.1073 17.9309C12.7624 17.4469 13.3029 16.9172 13.7968 17.2553C13.8132 17.2662 13.828 17.2807 13.8391 17.2968Z" fill="#455A64"/>
<path d="M26.5623 15.9288H0.437714V0.82576C0.437714 0.547391 0.667695 0.321995 0.951727 0.321995H26.0488C26.3329 0.321995 26.5628 0.547391 26.5628 0.82576V15.9288H26.5623Z" fill="white"/>
<path d="M26.5623 1.61932H0.437714V0.797715C0.437714 0.534926 0.654977 0.322514 0.922582 0.322514H26.1638C26.3837 0.322514 26.5623 0.497533 26.5623 0.713061V1.61932Z" fill="#EBEBEB"/>
<path d="M1.45302 0.997664C1.45302 1.09686 1.37088 1.17736 1.26967 1.17736C1.16846 1.17736 1.08632 1.09686 1.08632 0.997664C1.08632 0.898469 1.16846 0.81797 1.26967 0.81797C1.37088 0.81797 1.45302 0.898469 1.45302 0.997664Z" fill="#263238"/>
<path d="M1.99989 0.997664C1.99989 1.09686 1.91776 1.17736 1.81654 1.17736C1.71533 1.17736 1.63319 1.09686 1.63319 0.997664C1.63319 0.898469 1.71533 0.81797 1.81654 0.81797C1.91776 0.81797 1.99989 0.898469 1.99989 0.997664Z" fill="#263238"/>
<path d="M2.52026 0.997664C2.52026 1.09686 2.43813 1.17736 2.33691 1.17736C2.2357 1.17736 2.15356 1.09686 2.15356 0.997664C2.15356 0.898469 2.2357 0.81797 2.33691 0.81797C2.43813 0.81797 2.52026 0.898469 2.52026 0.997664Z" fill="#263238"/>
<path d="M21.6633 19.1493C21.6633 19.1576 18.0472 19.1644 13.5869 19.1644C9.12559 19.1644 5.51001 19.1576 5.51001 19.1493C5.51001 19.141 9.12559 19.1343 13.5869 19.1343C18.0466 19.1348 21.6633 19.141 21.6633 19.1493Z" fill="#455A64"/>
<path d="M12.2261 4.51H10.5012V4.95715H12.2261V4.51Z" fill="#F5F5F5"/>
<path d="M11.4969 5.4282C11.4969 5.4282 11.4964 5.42509 11.4964 5.41989C11.4964 5.41366 11.4959 5.40639 11.4959 5.39704C11.4953 5.37575 11.4953 5.34667 11.4948 5.30927C11.4943 5.23189 11.4932 5.12127 11.4916 4.98105L11.4969 4.98624C11.1032 4.98676 10.4769 4.98832 9.77207 4.98936C9.77578 4.98572 9.76307 4.99819 9.78055 4.98053V4.98105V4.98209V4.98364V4.98728V4.99455V5.00909V5.03766C9.78055 5.05687 9.78055 5.07557 9.78055 5.09478C9.78055 5.1327 9.78055 5.17009 9.78055 5.20748C9.78055 5.28227 9.78055 5.35549 9.78055 5.42768L9.77207 5.41937C10.2633 5.42093 10.6931 5.42249 11.0015 5.42301C11.1551 5.42405 11.2781 5.42509 11.3645 5.42561C11.4063 5.42613 11.4392 5.42665 11.4625 5.42665C11.4731 5.42665 11.4816 5.42716 11.4879 5.42716C11.4938 5.4282 11.4969 5.4282 11.4969 5.4282C11.4969 5.4282 11.4943 5.42872 11.489 5.42872C11.4826 5.42872 11.4747 5.42924 11.4646 5.42924C11.4418 5.42976 11.4095 5.42976 11.3682 5.43028C11.2823 5.4308 11.1599 5.43184 11.0073 5.43288C10.6973 5.43392 10.2654 5.43495 9.77207 5.43651H9.7636V5.4282C9.7636 5.35653 9.7636 5.28279 9.7636 5.208C9.7636 5.17061 9.7636 5.13321 9.7636 5.0953C9.7636 5.07661 9.7636 5.05739 9.7636 5.03817V5.00961V4.99507V4.9878V4.98416V4.9826V4.98157V4.98105C9.78108 4.96391 9.76836 4.97637 9.7726 4.97222C10.4774 4.97378 11.1037 4.97481 11.4975 4.97585H11.5028V4.98105C11.5017 5.12231 11.5006 5.23449 11.4996 5.31239C11.4991 5.34926 11.4985 5.37835 11.4985 5.39912C11.4985 5.40795 11.498 5.41522 11.498 5.42093C11.4975 5.42613 11.4975 5.42872 11.4969 5.4282Z" fill="#E0E0E0"/>
<path d="M3.34267 7.13529H1.61781V7.58244H3.34267V7.13529Z" fill="#EBEBEB"/>
<path d="M12.968 3.19865C12.968 3.19865 12.9674 3.19553 12.9674 3.19034C12.9674 3.18411 12.9669 3.17632 12.9669 3.16645C12.9664 3.14412 12.9664 3.11348 12.9653 3.07401C12.9648 2.99299 12.9637 2.87614 12.9621 2.72916L12.968 2.73487C12.5541 2.73591 11.8965 2.73695 11.1562 2.73851C11.1604 2.73436 11.1467 2.74734 11.1652 2.72968V2.7302V2.73124V2.73332V2.73695V2.74474V2.7598V2.78993C11.1652 2.81018 11.1652 2.82991 11.1652 2.84965C11.1652 2.88964 11.1652 2.92911 11.1652 2.96806C11.1652 3.04648 11.1652 3.12335 11.1652 3.19917L11.1562 3.19034C11.6723 3.1919 12.1238 3.19346 12.4476 3.1945C12.6087 3.19553 12.7385 3.19657 12.8286 3.19709C12.8726 3.19761 12.907 3.19813 12.9314 3.19813C12.9425 3.19813 12.9515 3.19865 12.9584 3.19865C12.9643 3.19813 12.9674 3.19865 12.968 3.19865C12.968 3.19865 12.9653 3.19917 12.9595 3.19917C12.9526 3.19917 12.9441 3.19969 12.9335 3.19969C12.9091 3.20021 12.8758 3.20021 12.8323 3.20073C12.7422 3.20125 12.6135 3.20229 12.4534 3.20332C12.1281 3.20436 11.6745 3.20592 11.1557 3.20748H11.1467V3.19865C11.1467 3.12335 11.1467 3.04596 11.1467 2.96754C11.1467 2.92859 11.1467 2.8886 11.1467 2.84913C11.1467 2.8294 11.1467 2.80914 11.1467 2.78941V2.75928V2.74422V2.73643V2.7328V2.73072V2.72968V2.72916C11.1652 2.71098 11.152 2.72397 11.1562 2.72033C11.8965 2.72189 12.5541 2.72293 12.968 2.72397H12.9738V2.72968C12.9722 2.87821 12.9717 2.99559 12.9706 3.07764C12.9701 3.11659 12.9696 3.14724 12.969 3.16905C12.969 3.1784 12.9685 3.18619 12.9685 3.19242C12.968 3.19657 12.968 3.19865 12.968 3.19865Z" fill="#E0E0E0"/>
<path d="M13.2133 2.72916C13.2133 2.72916 13.2128 2.72604 13.2128 2.72033C13.2128 2.71358 13.2123 2.70527 13.2123 2.6954C13.2117 2.67203 13.2112 2.64087 13.2107 2.6014C13.2096 2.51883 13.2086 2.40249 13.207 2.25967L13.2139 2.26642C12.9319 2.26694 12.5483 2.26798 12.1254 2.26902C12.1169 2.27733 12.1365 2.25811 12.1344 2.26019V2.26071V2.26175V2.26383V2.26746V2.27525V2.29083V2.32147C12.1344 2.34173 12.1344 2.36198 12.1344 2.38224C12.1344 2.42275 12.1344 2.46274 12.1344 2.50169C12.1344 2.58011 12.1344 2.65645 12.1339 2.72968L12.1249 2.72085C12.4391 2.72241 12.7099 2.72397 12.9039 2.72501C12.9992 2.72604 13.0761 2.72656 13.1307 2.7276C13.1561 2.72812 13.1762 2.72864 13.1916 2.72864C13.2054 2.72812 13.2133 2.72864 13.2133 2.72916C13.2139 2.72968 13.207 2.72968 13.1937 2.7302C13.1789 2.73072 13.1593 2.73072 13.1344 2.73124C13.0803 2.73176 13.0045 2.7328 12.9097 2.73383C12.7141 2.73487 12.4418 2.73643 12.1249 2.73799H12.1159V2.72916C12.1159 2.65593 12.1159 2.58011 12.1153 2.50117C12.1153 2.4617 12.1153 2.42223 12.1153 2.38172C12.1153 2.36146 12.1153 2.34121 12.1153 2.32095V2.29031V2.27473V2.26694V2.26331V2.26123V2.26019V2.25967C12.1132 2.26175 12.1328 2.24253 12.1249 2.25032C12.5478 2.25136 12.9314 2.2524 13.2133 2.25292H13.2202V2.25915C13.2186 2.40405 13.2176 2.52142 13.2165 2.60504C13.216 2.64399 13.2154 2.67515 13.2149 2.698C13.2144 2.71877 13.2139 2.72916 13.2133 2.72916Z" fill="#E0E0E0"/>
<path d="M12.968 8.06492C12.968 8.06492 12.9674 8.0618 12.9674 8.05661C12.9674 8.05038 12.9669 8.04259 12.9669 8.03272C12.9664 8.01039 12.9664 7.97975 12.9653 7.94028C12.9648 7.85926 12.9637 7.7424 12.9621 7.59543L12.968 7.60114C12.5541 7.60218 11.8965 7.60322 11.1562 7.60478C11.1604 7.60062 11.1467 7.61361 11.1652 7.59595V7.59647V7.59751V7.59958V7.60322V7.61101V7.62607V7.65619C11.1652 7.67645 11.1652 7.69618 11.1652 7.71592C11.1652 7.75591 11.1652 7.79538 11.1652 7.83433C11.1652 7.91275 11.1652 7.98961 11.1652 8.06544L11.1562 8.05661C11.6723 8.05817 12.1238 8.05973 12.4476 8.06076C12.6087 8.0618 12.7385 8.06284 12.8286 8.06336C12.8726 8.06388 12.907 8.0644 12.9314 8.0644C12.9425 8.0644 12.9515 8.06492 12.9584 8.06492C12.9643 8.0644 12.9674 8.0644 12.968 8.06492C12.968 8.06492 12.9653 8.06544 12.9595 8.06544C12.9526 8.06544 12.9441 8.06596 12.9335 8.06596C12.9091 8.06648 12.8758 8.06648 12.8323 8.067C12.7422 8.06752 12.6135 8.06855 12.4534 8.06959C12.1281 8.07063 11.6745 8.07219 11.1557 8.07375H11.1467V8.06492C11.1467 7.98961 11.1467 7.91223 11.1467 7.83381C11.1467 7.79434 11.1467 7.75487 11.1467 7.7154C11.1467 7.69566 11.1467 7.67541 11.1467 7.65567V7.62555V7.61049V7.6027V7.59907V7.59699V7.59595V7.59543C11.1652 7.57725 11.152 7.59024 11.1562 7.5866C11.8965 7.58816 12.5541 7.5892 12.968 7.59024H12.9738V7.59595C12.9722 7.74448 12.9717 7.86185 12.9706 7.94391C12.9701 7.98286 12.9696 8.0135 12.969 8.03532C12.969 8.04466 12.9685 8.05245 12.9685 8.05869C12.968 8.06232 12.968 8.06492 12.968 8.06492Z" fill="#E0E0E0"/>
<path d="M13.2133 7.59491C13.2133 7.59491 13.2128 7.59179 13.2128 7.58608C13.2128 7.57933 13.2123 7.57102 13.2123 7.56115C13.2117 7.53778 13.2112 7.50662 13.2107 7.46715C13.2096 7.38457 13.2086 7.26824 13.207 7.12542L13.2139 7.13217C12.9319 7.13269 12.5483 7.13373 12.1254 7.13477C12.1169 7.14308 12.1365 7.12386 12.1344 7.12594V7.12646V7.1275V7.12958V7.13321V7.141V7.15658V7.18722C12.1344 7.20748 12.1344 7.22773 12.1344 7.24799C12.1344 7.2885 12.1344 7.32849 12.1344 7.36744C12.1344 7.44586 12.1344 7.5222 12.1339 7.59543L12.1249 7.5866C12.4391 7.58816 12.7099 7.58972 12.9039 7.59076C12.9992 7.59179 13.0761 7.59231 13.1307 7.59335C13.1561 7.59387 13.1762 7.59439 13.1916 7.59439C13.2054 7.59439 13.2133 7.59491 13.2133 7.59491C13.2139 7.59543 13.207 7.59543 13.1937 7.59595C13.1789 7.59647 13.1593 7.59647 13.1344 7.59699C13.0803 7.59751 13.0045 7.59855 12.9097 7.59958C12.7141 7.60062 12.4418 7.60218 12.1249 7.60374H12.1159V7.59491C12.1159 7.52168 12.1159 7.44586 12.1153 7.36692C12.1153 7.32745 12.1153 7.28798 12.1153 7.24747C12.1153 7.22721 12.1153 7.20696 12.1153 7.1867V7.15606V7.14048V7.13269V7.12906V7.12698V7.12594V7.12542C12.1132 7.1275 12.1328 7.10828 12.1249 7.11607C12.5478 7.11711 12.9314 7.11815 13.2133 7.11867H13.2202V7.1249C13.2186 7.2698 13.2176 7.38717 13.2165 7.47079C13.216 7.50974 13.2154 7.5409 13.2149 7.56375C13.2144 7.58452 13.2139 7.59543 13.2133 7.59491Z" fill="#E0E0E0"/>
<path d="M16.8167 2.54427H13.9759V5.32848H16.8167V2.54427Z" fill="#EBEBEB"/>
<path d="M16.733 2.62633H14.0596V5.24643H16.733V2.62633Z" fill="white"/>
<path d="M15.7802 3.56011H15.0124V4.31264H15.7802V3.56011Z" fill="#E0E0E0"/>
<path d="M16.9365 2.54558H16.8167V5.32875H16.9365V2.54558Z" fill="#E0E0E0"/>
<path d="M13.4311 15.9195C13.4237 15.9195 13.4173 12.7229 13.4173 8.78058C13.4173 4.83667 13.4237 1.64113 13.4311 1.64113C13.4385 1.64113 13.4449 4.83719 13.4449 8.78058C13.4449 12.7229 13.4391 15.9195 13.4311 15.9195Z" fill="#263238"/>
<path d="M26.592 8.81641C26.592 8.82368 20.7301 8.82992 13.5005 8.82992C6.26885 8.82992 0.408035 8.82368 0.408035 8.81641C0.408035 8.80914 6.26885 8.80291 13.5005 8.80291C20.7301 8.80291 26.592 8.80862 26.592 8.81641Z" fill="#263238"/>
<path d="M26.5623 15.9288C26.5623 15.8541 26.5586 11.3347 26.5527 3.91275C26.5522 2.9852 26.5522 2.0135 26.5517 1.0013C26.5517 0.937938 26.5517 0.874578 26.5517 0.811218C26.5506 0.747339 26.5565 0.683459 26.54 0.623215C26.5109 0.502208 26.4155 0.3973 26.2936 0.356271C26.2634 0.344846 26.2316 0.339133 26.1998 0.335498C26.168 0.33342 26.1346 0.33342 26.1018 0.33342C26.0356 0.33342 25.9693 0.33342 25.9025 0.33342C25.7695 0.33342 25.636 0.33342 25.5014 0.33342C24.9641 0.33342 24.4172 0.33342 23.8603 0.33394C21.6336 0.334459 19.2548 0.334978 16.751 0.334978C14.2477 0.334978 11.6193 0.335498 8.89507 0.336017C7.53267 0.336017 6.14695 0.336017 4.74004 0.336017C4.03685 0.336017 3.32783 0.336017 2.61457 0.336017C2.25794 0.336017 1.90025 0.336017 1.54097 0.336017C1.36133 0.336017 1.18169 0.336017 1.00152 0.336017C0.910909 0.33342 0.824003 0.34121 0.742927 0.377565C0.662911 0.412361 0.592433 0.46845 0.541561 0.538562C0.49122 0.605557 0.462075 0.686575 0.452536 0.768632C0.447237 0.851208 0.450946 0.938458 0.449887 1.02259C0.449887 1.19294 0.449887 1.36276 0.449887 1.53259C0.449887 1.87172 0.449887 2.21034 0.449887 2.54739C0.449887 3.22202 0.449887 3.89198 0.449887 4.55778C0.449887 5.88886 0.449887 7.20021 0.449887 8.48974C0.449887 11.0683 0.449357 13.5575 0.449357 15.9288L0.436639 15.9164C15.7685 15.9237 26.4468 15.9283 26.5623 15.9288C26.4468 15.9288 15.7685 15.934 0.437699 15.9413H0.424981V15.9288C0.424981 13.557 0.424451 11.0683 0.424451 8.48974C0.424451 7.20021 0.424451 5.88834 0.424451 4.55778C0.424451 3.8925 0.424451 3.22202 0.424451 2.54739C0.424451 2.21034 0.424451 1.87172 0.424451 1.53259C0.424451 1.36276 0.424451 1.19294 0.424451 1.02259C0.425511 0.9369 0.421801 0.853804 0.427101 0.766035C0.437699 0.679304 0.468434 0.594132 0.521425 0.522981C0.574946 0.448715 0.649663 0.38951 0.733919 0.352636C0.818174 0.314204 0.914618 0.305895 1.00364 0.309011C1.18381 0.309011 1.36345 0.309011 1.54309 0.309011C1.90184 0.309011 2.26006 0.309011 2.61669 0.309011C3.32995 0.309011 4.03844 0.309011 4.74216 0.309011C6.14907 0.309011 7.53532 0.309011 8.89719 0.309011C11.6215 0.30953 14.2493 0.30953 16.7531 0.31005C19.2564 0.310569 21.6357 0.311088 23.8624 0.311088C24.4188 0.311088 24.9662 0.311088 25.5035 0.311608C25.6376 0.311608 25.7717 0.311608 25.9047 0.311608C25.9714 0.311608 26.0377 0.311608 26.1039 0.311608C26.1368 0.311608 26.1702 0.311088 26.2041 0.313685C26.2375 0.31784 26.2714 0.324072 26.3026 0.336017C26.4309 0.379642 26.5316 0.490263 26.5623 0.618022C26.5798 0.68242 26.5734 0.747858 26.5745 0.810699C26.5745 0.874578 26.5745 0.937938 26.5745 1.0013C26.5739 2.01454 26.5739 2.98728 26.5734 3.91535C26.566 11.3358 26.5623 15.8541 26.5623 15.9288Z" fill="#263238"/>
<path d="M1.50442 2.39159C1.50442 2.51779 1.40003 2.6201 1.27126 2.6201C1.14249 2.6201 1.0381 2.51779 1.0381 2.39159C1.0381 2.26539 1.14249 2.16307 1.27126 2.16307C1.40056 2.16359 1.50442 2.26539 1.50442 2.39159Z" fill="#455A64"/>
<path d="M2.91452 2.43261C2.91452 2.43885 2.62412 2.44404 2.2659 2.44404C1.90769 2.44404 1.61729 2.43885 1.61729 2.43261C1.61729 2.42638 1.90769 2.42119 2.2659 2.42119C2.62412 2.42119 2.91452 2.42638 2.91452 2.43261Z" fill="#455A64"/>
<path d="M14.7543 2.39159C14.7543 2.51779 14.6499 2.6201 14.5217 2.6201C14.3929 2.6201 14.2885 2.51779 14.2885 2.39159C14.2885 2.26539 14.3929 2.16307 14.5217 2.16307C14.6499 2.16359 14.7543 2.26539 14.7543 2.39159Z" fill="#455A64"/>
<path d="M16.1639 2.43261C16.1639 2.43885 15.8735 2.44404 15.5152 2.44404C15.157 2.44404 14.8666 2.43885 14.8666 2.43261C14.8666 2.42638 15.157 2.42119 15.5152 2.42119C15.8735 2.42119 16.1639 2.42638 16.1639 2.43261Z" fill="#455A64"/>
<path d="M14.7585 9.87536C14.7585 10.0016 14.6542 10.1039 14.5259 10.1039C14.3977 10.1039 14.2928 10.0016 14.2928 9.87536C14.2928 9.74916 14.3971 9.64685 14.5259 9.64685C14.6547 9.64685 14.7585 9.74916 14.7585 9.87536Z" fill="#455A64"/>
<path d="M16.1686 9.91639C16.1686 9.92262 15.8782 9.92781 15.52 9.92781C15.1618 9.92781 14.8714 9.92262 14.8714 9.91639C14.8714 9.91015 15.1618 9.90496 15.52 9.90496C15.8777 9.90496 16.1686 9.91015 16.1686 9.91639Z" fill="#455A64"/>
<path d="M1.52296 9.87536C1.52296 10.0016 1.41857 10.1039 1.2898 10.1039C1.16103 10.1039 1.05664 10.0016 1.05664 9.87536C1.05664 9.74916 1.16103 9.64685 1.2898 9.64685C1.41857 9.64685 1.52296 9.74916 1.52296 9.87536Z" fill="#455A64"/>
<path d="M2.93305 9.91639C2.93305 9.92262 2.64266 9.92781 2.28444 9.92781C1.92622 9.92781 1.63583 9.92262 1.63583 9.91639C1.63583 9.91015 1.92622 9.90496 2.28444 9.90496C2.64266 9.90496 2.93305 9.91015 2.93305 9.91639Z" fill="#455A64"/>
<path d="M25.6307 2.86679C25.3631 2.86679 25.1458 2.65386 25.1458 2.39159C25.1458 2.12932 25.3631 1.91639 25.6307 1.91639C25.8983 1.91639 26.1156 2.12932 26.1156 2.39159C26.115 2.65386 25.8983 2.86679 25.6307 2.86679Z" fill="#FF725E"/>
<path d="M25.6138 2.39522C25.6455 2.38587 25.6683 2.35679 25.6683 2.32303C25.6683 2.28097 25.6339 2.24721 25.591 2.24721C25.548 2.24721 25.5136 2.28097 25.5136 2.32303C25.5136 2.35679 25.5359 2.38483 25.5666 2.3947C25.5025 2.40509 25.4537 2.4591 25.4537 2.52506H25.7234C25.7234 2.46014 25.6763 2.40665 25.6138 2.39522Z" fill="white"/>
<path d="M25.7652 2.41756C25.7586 2.41756 25.7536 2.41288 25.7536 2.40665V2.28512C25.7536 2.27889 25.7586 2.27422 25.7652 2.27422C25.7719 2.27422 25.7768 2.27889 25.7768 2.28512V2.40665C25.7768 2.41288 25.7719 2.41756 25.7652 2.41756Z" fill="white"/>
<path d="M25.8268 2.35701H25.7028C25.6964 2.35701 25.6917 2.35229 25.6917 2.34599C25.6917 2.3397 25.6964 2.33498 25.7028 2.33498H25.8268C25.8331 2.33498 25.8379 2.3397 25.8379 2.34599C25.8379 2.35229 25.8331 2.35701 25.8268 2.35701Z" fill="white"/>
<path d="M0.437714 14.7884V15.933H1.79958H5.22917H26.5623V14.7884H0.437714Z" fill="#455A64"/>
<path d="M14.3998 15.6941C14.6003 15.6941 14.7628 15.5348 14.7628 15.3384C14.7628 15.1419 14.6003 14.9826 14.3998 14.9826C14.1993 14.9826 14.0368 15.1419 14.0368 15.3384C14.0368 15.5348 14.1993 15.6941 14.3998 15.6941Z" fill="white"/>
<path d="M14.3823 15.435H14.3373C14.2996 15.435 14.2694 15.4054 14.2694 15.3685V15.3243C14.2694 15.2875 14.3002 15.2579 14.3373 15.2579H14.3823C14.4199 15.2579 14.4501 15.2875 14.4501 15.3243V15.3685C14.4507 15.4054 14.4199 15.435 14.3823 15.435Z" fill="#FF725E"/>
<path d="M14.4671 15.3778V15.3176L14.5127 15.2693C14.519 15.2631 14.5296 15.2672 14.5296 15.276V15.4126C14.5296 15.4209 14.5195 15.4256 14.5132 15.4199L14.4671 15.3778Z" fill="#FF725E"/>
<path d="M12.6405 15.3139C12.6405 15.4978 12.4884 15.6468 12.3008 15.6468C12.1132 15.6468 11.9612 15.4978 11.9612 15.3139C11.9612 15.1301 12.1132 14.981 12.3008 14.981C12.4879 14.981 12.6405 15.1301 12.6405 15.3139Z" fill="white"/>
<path d="M12.1927 15.3467C12.1742 15.3467 12.1593 15.3321 12.1593 15.3139C12.1593 15.2958 12.1742 15.2812 12.1927 15.2812C12.2113 15.2812 12.2261 15.2958 12.2261 15.3139C12.2261 15.3321 12.2113 15.3467 12.1927 15.3467Z" fill="#FF725E"/>
<path d="M12.2971 15.3467C12.2786 15.3467 12.2637 15.3321 12.2637 15.3139C12.2637 15.2958 12.2786 15.2812 12.2971 15.2812C12.3157 15.2812 12.3305 15.2958 12.3305 15.3139C12.3305 15.3321 12.3151 15.3467 12.2971 15.3467Z" fill="#FF725E"/>
<path d="M12.4084 15.3467C12.3899 15.3467 12.375 15.3321 12.375 15.3139C12.375 15.2958 12.3899 15.2812 12.4084 15.2812C12.4269 15.2812 12.4418 15.2958 12.4418 15.3139C12.4418 15.3321 12.4269 15.3467 12.4084 15.3467Z" fill="#FF725E"/>
<path d="M13.3818 15.8665C13.6669 15.8665 13.898 15.6401 13.898 15.3607C13.898 15.0813 13.6669 14.8548 13.3818 14.8548C13.0968 14.8548 12.8657 15.0813 12.8657 15.3607C12.8657 15.6401 13.0968 15.8665 13.3818 15.8665Z" fill="white"/>
<path d="M13.1799 15.4479L13.2721 15.4266C13.2833 15.424 13.2918 15.4142 13.2918 15.4028V15.3841C13.2918 15.3841 13.288 15.3524 13.3182 15.3503C13.34 15.3487 13.4783 15.3503 13.4783 15.3503C13.4783 15.3503 13.5148 15.3498 13.5143 15.3778V15.4048C13.5143 15.4142 13.5207 15.4225 13.5297 15.4251L13.6293 15.4547C13.6399 15.4578 13.651 15.4526 13.6553 15.4427L13.668 15.4126C13.6701 15.4069 13.6717 15.4012 13.6712 15.395C13.6706 15.383 13.6659 15.3648 13.6542 15.3498C13.6346 15.3249 13.5413 15.2662 13.3633 15.2745C13.1937 15.2828 13.1566 15.3524 13.1471 15.3695C13.1413 15.3799 13.1391 15.4054 13.1439 15.4163C13.1455 15.4204 13.1487 15.4272 13.1513 15.4334C13.1556 15.4448 13.1678 15.4505 13.1799 15.4479Z" fill="#FF725E"/>
<path d="M22.0957 11.5092C21.9802 11.3934 21.7746 11.3628 21.6468 11.4651L21.0926 12.189C21.1185 12.308 21.1705 12.4238 21.2574 12.511C21.3443 12.5983 21.4683 12.6533 21.5923 12.6414C21.7512 12.6263 21.9208 12.5328 22.022 12.4108C22.1259 12.2851 22.2223 12.1657 22.2568 11.9387C22.2811 11.7788 22.2112 11.625 22.0957 11.5092Z" fill="#263238"/>
<path d="M22.049 12.2145C22.0438 12.214 22.0485 12.175 22.0385 12.1153C22.0289 12.0561 22.0003 11.974 21.9372 11.906C21.8742 11.8385 21.7936 11.8026 21.7343 11.7876C21.6744 11.772 21.6347 11.7736 21.6341 11.7679C21.6336 11.7642 21.6739 11.7543 21.7391 11.7647C21.8032 11.7746 21.8927 11.8094 21.9621 11.8837C22.031 11.9579 22.0586 12.0488 22.0623 12.1122C22.0665 12.1771 22.0528 12.2155 22.049 12.2145Z" fill="#455A64"/>
<path d="M22.1338 11.6427C22.1307 11.6526 22.0289 11.6167 21.8996 11.6193C21.7708 11.6214 21.6702 11.6603 21.6665 11.6505C21.6622 11.6442 21.7613 11.5892 21.8991 11.5866C22.0369 11.5845 22.1375 11.6365 22.1338 11.6427Z" fill="#455A64"/>
<path d="M21.7221 10.8424C21.6495 10.5032 21.3024 10.1537 20.9707 10.0343C20.639 9.91483 20.3369 9.91846 19.9872 9.96624C19.5993 10.0275 19.2649 10.2721 19.1133 10.6279C18.9618 10.9831 18.9978 11.3217 19.028 11.706C19.0508 11.9979 19.1356 12.3454 19.2458 12.4518C19.356 12.5583 19.3449 12.5022 19.4864 12.5635C19.7667 12.685 20.0757 12.6481 20.382 12.6372C20.6882 12.6263 21.0507 12.5645 21.2674 12.3516C21.4508 12.1719 21.5064 12.0452 21.5965 11.8115C21.6972 11.5502 21.7809 11.1161 21.7221 10.8424Z" fill="#263238"/>
<path d="M21.1954 11.2205C21.2081 10.6751 20.7518 10.2249 20.1785 10.2306C19.638 10.2363 19.2034 10.6679 19.1775 11.1877C19.1547 11.6432 19.1425 12.1023 19.1621 12.2664C19.2214 12.7614 19.5431 12.9239 19.6713 12.9691C19.7005 12.9795 19.7789 12.9868 19.8102 12.9878C19.8123 12.9878 19.8139 12.9894 19.8134 12.9914L19.7593 13.5721C19.7471 13.9501 19.9988 14.2607 20.391 14.2753C20.7847 14.2903 21.0576 13.973 21.0772 13.5939L21.1954 11.2205Z" fill="#FFD6BD"/>
<path d="M19.2628 11.4344C19.2707 11.4433 19.337 11.4391 19.4207 11.4677C19.5044 11.4957 19.5585 11.5404 19.5691 11.5378C19.5744 11.5367 19.5675 11.5232 19.5442 11.503C19.5214 11.4832 19.4795 11.4573 19.4276 11.4396C19.3757 11.422 19.3285 11.4178 19.2999 11.4204C19.2707 11.423 19.2591 11.4303 19.2628 11.4344Z" fill="#263238"/>
<path d="M20.1981 11.5736C20.2108 11.5747 20.2638 11.53 20.3533 11.4968C20.4424 11.463 20.5176 11.4599 20.525 11.4511C20.5287 11.4469 20.5144 11.4417 20.481 11.4427C20.4487 11.4438 20.3963 11.4521 20.3406 11.4729C20.285 11.4936 20.2426 11.5206 20.2203 11.5404C20.1975 11.5606 20.1922 11.5731 20.1981 11.5736Z" fill="#263238"/>
<path d="M19.8303 11.9782C19.8308 11.9735 19.7763 11.9621 19.6878 11.9475C19.6655 11.9444 19.6443 11.9392 19.6411 11.9242C19.6364 11.9081 19.647 11.8852 19.6591 11.8603C19.6825 11.8084 19.7074 11.7543 19.7333 11.6972C19.8367 11.4651 19.9124 11.2734 19.9029 11.2693C19.8934 11.2656 19.8017 11.4505 19.6984 11.6832C19.6735 11.7403 19.6496 11.7954 19.6268 11.8473C19.6173 11.8717 19.6014 11.8992 19.6115 11.9325C19.6168 11.9491 19.6326 11.9616 19.647 11.9657C19.6613 11.9704 19.674 11.9714 19.6851 11.9725C19.7741 11.9808 19.8298 11.9834 19.8303 11.9782Z" fill="#263238"/>
<path d="M19.8139 12.9873C19.8139 12.9873 20.1541 13.0273 20.5929 12.7962C20.5929 12.7962 20.4386 13.2262 19.7996 13.1441L19.8139 12.9873Z" fill="#FFB394"/>
<path d="M19.8584 12.1849C19.8918 12.1454 19.949 12.1257 20.0041 12.1335C20.0423 12.1387 20.0804 12.1584 20.1022 12.189C20.1239 12.2202 20.1271 12.2628 20.1048 12.2908C20.0794 12.3225 20.029 12.3277 19.9877 12.3147C19.9458 12.3017 19.9109 12.2732 19.8775 12.2457C19.8685 12.2379 19.8589 12.2301 19.8531 12.2197C19.8478 12.2093 19.8467 12.1963 19.8547 12.188" fill="#FF725E"/>
<path d="M20.0878 12.0473C20.0735 12.0457 20.0693 12.1381 19.984 12.201C19.8992 12.2638 19.7969 12.2493 19.7959 12.2623C19.7943 12.268 19.8176 12.281 19.861 12.2841C19.9034 12.2872 19.966 12.2763 20.0179 12.2379C20.0698 12.1994 20.0937 12.1465 20.099 12.1085C20.1043 12.0701 20.0942 12.0467 20.0878 12.0473Z" fill="#263238"/>
<path d="M20.1965 11.0953C20.206 11.1176 20.2807 11.1005 20.3713 11.1052C20.4614 11.1078 20.5362 11.1311 20.5462 11.1093C20.5505 11.0989 20.5367 11.0782 20.5054 11.0584C20.4747 11.0387 20.427 11.021 20.3729 11.0184C20.3189 11.0164 20.2707 11.0299 20.2394 11.047C20.2076 11.0652 20.1922 11.0844 20.1965 11.0953Z" fill="#263238"/>
<path d="M19.2644 11.0553C19.2813 11.0782 19.3518 11.0579 19.4355 11.06C19.5193 11.0595 19.5892 11.0808 19.6067 11.0584C19.6141 11.0475 19.604 11.0247 19.5744 11.0029C19.5447 10.981 19.4943 10.9618 19.4371 10.9613C19.3794 10.9608 19.329 10.979 19.2988 11.0008C19.2675 11.0221 19.2569 11.0444 19.2644 11.0553Z" fill="#263238"/>
<path d="M19.9538 10.0327C19.8335 10.2836 19.9723 10.5354 20.2219 10.6653C20.33 10.7214 20.4673 10.752 20.5208 10.8595C20.5627 10.9426 20.5393 11.0496 20.5923 11.1265C20.6427 11.1992 20.7423 11.2179 20.8144 11.2698C20.9129 11.3404 20.9527 11.4672 20.9633 11.5866C20.9739 11.7061 20.9622 11.8276 20.9861 11.945C21.0104 12.0623 21.082 12.1818 21.1985 12.2166C21.2722 11.8774 21.3395 11.5326 21.3204 11.1862C21.3013 10.8398 21.4412 10.4498 21.1954 10.2005C20.9495 9.95118 20.2844 9.91015 19.9538 10.0327Z" fill="#263238"/>
<path d="M21.7285 11.3737C21.7247 11.3737 21.7338 11.3404 21.7094 11.2895C21.6861 11.2397 21.6241 11.1774 21.5239 11.1545C21.4746 11.1415 21.4185 11.1363 21.3575 11.1296C21.2966 11.1228 21.2293 11.115 21.163 11.088C21.0952 11.0621 21.038 11.0049 21.0014 10.939C20.9633 10.8735 20.9373 10.8013 20.8949 10.7385C20.8536 10.6751 20.791 10.6326 20.7211 10.6123C20.6517 10.591 20.5801 10.5837 20.5118 10.5754C20.4434 10.5671 20.3772 10.5578 20.3178 10.5375C20.2585 10.5178 20.2066 10.4908 20.1631 10.4612C20.0762 10.4015 20.0216 10.3339 19.9914 10.2851C19.976 10.2607 19.966 10.2405 19.9601 10.2264C19.9543 10.2124 19.9517 10.2051 19.9527 10.2046C19.9554 10.2036 19.9692 10.2321 20.0025 10.2784C20.0354 10.3246 20.091 10.3874 20.1769 10.4425C20.2193 10.47 20.2701 10.4944 20.3268 10.5126C20.3835 10.5308 20.4477 10.5391 20.516 10.5464C20.5844 10.5541 20.6575 10.5604 20.7317 10.5827C20.8059 10.6035 20.879 10.6523 20.923 10.7214C20.9686 10.7889 20.994 10.8621 21.03 10.9244C21.0645 10.9878 21.1138 11.0371 21.1752 11.0615C21.2982 11.1114 21.428 11.1015 21.5303 11.1332C21.6352 11.1597 21.7009 11.2303 21.721 11.2854C21.7322 11.3129 21.7338 11.3363 21.7327 11.3519C21.7322 11.3659 21.729 11.3737 21.7285 11.3737Z" fill="#455A64"/>
<path d="M21.7316 11.2277C21.7338 11.2277 21.7343 11.248 21.7306 11.2843C21.7274 11.3207 21.7195 11.3726 21.7073 11.4365C21.6813 11.5643 21.6373 11.7388 21.5647 11.9247C21.4926 12.1122 21.384 12.2633 21.2886 12.3552C21.2415 12.402 21.1991 12.4347 21.1683 12.4549C21.1376 12.4757 21.1191 12.4851 21.118 12.483C21.1143 12.4783 21.1832 12.4337 21.2717 12.3386C21.3607 12.2446 21.463 12.0961 21.5335 11.9122C21.605 11.7289 21.6527 11.556 21.6839 11.4308C21.7157 11.3062 21.7263 11.2272 21.7316 11.2277Z" fill="#455A64"/>
<path d="M23.1391 14.7884C22.9245 14.1008 23.0384 14.4025 22.9324 14.1163C22.7904 13.7325 22.1105 13.5336 22.0718 13.5336L21.9865 13.8743L22.111 14.7863" fill="#FF725E"/>
<path d="M21.1424 13.222C20.8689 13.7627 20.0221 13.7627 19.7498 13.3622L18.7641 13.9237C18.5999 14.0114 18.4658 14.1459 18.3826 14.31C18.3185 14.4363 18.2639 14.5599 18.2199 14.7889L22.3569 14.7863L22.1821 13.5679L21.1424 13.222Z" fill="#FF725E"/>
<path d="M6.1671 11.2199C6.09503 11.1857 6.03939 11.1207 6.01713 11.0454C6.14166 11.0205 6.24075 10.9037 6.24287 10.779C6.24393 10.699 6.21002 10.6232 6.18617 10.5464C6.16233 10.4695 6.14961 10.3822 6.18988 10.3126C6.25771 10.1953 6.40661 10.161 6.49246 10.0561C6.5587 9.97559 6.58202 9.88782 6.60586 9.78759C6.65991 9.55908 6.89625 9.38665 7.13524 9.40119C7.24069 9.40743 7.34509 9.44586 7.45001 9.43443C7.59467 9.41833 7.71178 9.31187 7.85168 9.27292C7.98787 9.235 8.1426 9.26772 8.2507 9.35757C8.32807 9.42145 8.38106 9.51129 8.4632 9.56946C8.55222 9.63334 8.66456 9.6536 8.7679 9.69203C8.8707 9.73046 8.97562 9.80109 8.9947 9.90704C9.01589 10.0218 8.93058 10.1444 8.97827 10.2514C9.00053 10.3012 9.0869 10.3864 9.10439 10.4378C9.186 10.6736 9.00159 10.8315 9.03232 10.9244C9.19341 11.4152 8.99682 11.6276 8.83149 11.6458L6.76801 11.6027C6.62123 11.6624 6.44901 11.6598 6.30434 11.5965C6.15915 11.5326 6.0431 11.4085 5.99117 11.261C6.05157 11.2636 6.11357 11.249 6.1671 11.2199Z" fill="#E0E0E0"/>
<path d="M6.6986 11.2537C6.688 11.249 6.26619 11.1202 6.27255 11.5445C6.27891 11.9688 6.71184 11.8748 6.71237 11.8629C6.7129 11.8504 6.6986 11.2537 6.6986 11.2537Z" fill="#FFBE9D"/>
<path d="M6.57778 11.704C6.57566 11.7024 6.57036 11.7092 6.55764 11.7154C6.54546 11.7211 6.52426 11.7253 6.50147 11.7175C6.45537 11.7019 6.41616 11.6313 6.41298 11.5549C6.41139 11.5165 6.41881 11.4796 6.43258 11.449C6.4453 11.4178 6.46544 11.396 6.48822 11.3913C6.51101 11.3856 6.52744 11.3991 6.53327 11.4111C6.5391 11.423 6.53645 11.4313 6.5391 11.4318C6.54016 11.4329 6.5481 11.4246 6.5444 11.4069C6.54228 11.3986 6.53751 11.3887 6.52691 11.3804C6.51631 11.3721 6.50094 11.3685 6.48505 11.37C6.45166 11.3726 6.42199 11.4033 6.40715 11.437C6.39072 11.4708 6.38065 11.5123 6.38277 11.5554C6.38701 11.6411 6.43258 11.7201 6.49564 11.7372C6.52638 11.7445 6.55128 11.7351 6.56453 11.7253C6.57725 11.7144 6.57937 11.7045 6.57778 11.704Z" fill="#EB996E"/>
<path d="M8.8903 12.1195C8.89931 11.8203 8.86698 11.2023 8.83095 10.6435C8.79227 10.0426 8.28938 9.57102 7.67468 9.56064L7.61374 9.5596C6.95507 9.58608 6.60956 10.1491 6.65461 10.7941L6.71184 12.9234L7.84002 13.6089L8.23745 13.3041L8.23692 12.8252C8.23692 12.8247 8.87175 12.7396 8.8903 12.1195Z" fill="#FFBE9D"/>
<path d="M8.23799 12.8247C8.23799 12.8247 7.83738 12.8497 7.41716 12.5806C7.41716 12.5806 7.59945 13.0371 8.23216 12.992L8.23799 12.8247Z" fill="#EB996E"/>
<path d="M8.55328 11.1446C8.55434 11.1914 8.5146 11.2308 8.46479 11.2324C8.41498 11.234 8.37417 11.1976 8.37311 11.1509C8.37205 11.1041 8.4118 11.0647 8.46161 11.0631C8.51142 11.0615 8.55222 11.0979 8.55328 11.1446Z" fill="#263238"/>
<path d="M7.59785 11.1156C7.59891 11.1623 7.55917 11.2018 7.50936 11.2033C7.45955 11.2049 7.41874 11.1685 7.41768 11.1218C7.41662 11.075 7.45637 11.0356 7.50618 11.034C7.55599 11.0325 7.59679 11.0688 7.59785 11.1156Z" fill="#263238"/>
<path d="M8.66722 10.9224C8.65556 10.9338 8.58826 10.8829 8.49076 10.8813C8.39379 10.8787 8.32119 10.9265 8.31112 10.9146C8.30582 10.9094 8.31801 10.8886 8.34927 10.8668C8.38001 10.8455 8.433 10.8247 8.49341 10.8258C8.55382 10.8273 8.60469 10.8497 8.63331 10.8725C8.66298 10.8959 8.67252 10.9172 8.66722 10.9224Z" fill="#263238"/>
<path d="M7.67099 10.9166C7.6588 10.927 7.59468 10.8725 7.49771 10.8647C7.40074 10.8559 7.32602 10.899 7.31648 10.8865C7.31171 10.8808 7.32496 10.8611 7.35781 10.8413C7.39014 10.8216 7.44366 10.8045 7.50407 10.8097C7.56448 10.8149 7.61323 10.8408 7.64078 10.8652C7.66834 10.8902 7.67682 10.912 7.67099 10.9166Z" fill="#263238"/>
<path d="M8.07425 11.6583C8.07372 11.6531 8.13466 11.6437 8.23269 11.6328C8.25759 11.6307 8.28091 11.6261 8.28568 11.61C8.29204 11.5923 8.28197 11.5658 8.27031 11.5378C8.24806 11.4786 8.22474 11.4163 8.20036 11.3513C8.10286 11.086 8.03291 10.8678 8.04404 10.8637C8.05517 10.86 8.1426 11.0719 8.24011 11.3378C8.26342 11.4033 8.28568 11.4656 8.30688 11.5253C8.31588 11.5534 8.33125 11.585 8.318 11.6209C8.31112 11.6391 8.29257 11.652 8.27667 11.6557C8.26077 11.6604 8.24647 11.6604 8.23428 11.6609C8.13519 11.664 8.07425 11.6635 8.07425 11.6583Z" fill="#263238"/>
<path d="M7.6874 10.5837C7.67521 10.6087 7.57983 10.5869 7.46484 10.5889C7.34985 10.5889 7.25499 10.6123 7.24228 10.5879C7.23645 10.576 7.255 10.5536 7.29474 10.5323C7.33395 10.511 7.39489 10.4934 7.46378 10.4923C7.53267 10.4918 7.59414 10.5084 7.63335 10.5292C7.67362 10.5495 7.6927 10.5718 7.6874 10.5837Z" fill="#E0E0E0"/>
<path d="M8.67994 10.6123C8.66245 10.6336 8.59568 10.6102 8.51513 10.6076C8.43459 10.6024 8.36623 10.6196 8.35086 10.5967C8.34397 10.5858 8.3551 10.564 8.3853 10.5443C8.41498 10.5245 8.46426 10.5084 8.5199 10.511C8.57501 10.5136 8.6227 10.5344 8.65026 10.5567C8.67888 10.5796 8.68735 10.6019 8.67994 10.6123Z" fill="#E0E0E0"/>
<path d="M8.16433 9.48014C7.9264 9.37834 7.68052 9.41885 7.42245 9.4469C7.21791 9.46871 7.03879 9.52688 6.86869 9.64061C6.60268 9.81927 6.46278 10.1137 6.43735 10.429C6.41191 10.7442 6.46066 11.02 6.53061 11.329C6.51206 11.4054 6.49405 11.4869 6.51842 11.5617C6.54333 11.6365 6.62864 11.6977 6.70283 11.6692C6.78974 11.6354 6.79716 11.5196 6.79292 11.4277C6.77755 11.1145 6.79398 10.8112 6.82312 10.4991C6.84485 10.2685 6.98951 9.99065 7.17763 9.8873C7.59997 9.65775 7.91156 9.88834 8.0541 9.94339C8.28779 9.7611 8.53738 9.87848 8.66986 10.0488C8.62853 9.79798 8.40226 9.58193 8.16433 9.48014Z" fill="#E0E0E0"/>
<path d="M6.29269 10.2166C6.29163 10.2306 6.31972 10.2482 6.37589 10.2571C6.43153 10.2649 6.51525 10.2607 6.61011 10.2311C6.70496 10.2025 6.80936 10.1501 6.91375 10.0831C7.01761 10.0171 7.12094 9.94079 7.23116 9.87899C7.34139 9.81719 7.44737 9.78188 7.54699 9.77824C7.64767 9.77408 7.742 9.79382 7.81671 9.82342C7.96827 9.88107 8.04617 9.96313 8.07319 9.94391C8.07955 9.93976 8.08114 9.92989 8.07849 9.91483C8.07637 9.89925 8.06842 9.87951 8.05517 9.8551C8.02815 9.80784 7.97622 9.74292 7.8909 9.68787C7.80665 9.63178 7.68848 9.58504 7.54858 9.57777C7.47863 9.57414 7.40285 9.58245 7.33079 9.6027C7.25766 9.62244 7.18824 9.6536 7.122 9.68943C6.99111 9.76318 6.88672 9.84887 6.79505 9.9195C6.7039 9.99065 6.62177 10.0483 6.54917 10.0888C6.47657 10.1304 6.41404 10.1548 6.36847 10.1719C6.32237 10.189 6.29375 10.2005 6.29269 10.2166Z" fill="#F5F5F5"/>
<path d="M6.27625 10.5895C6.27572 10.5915 6.30858 10.603 6.36475 10.6082C6.42092 10.6133 6.49987 10.6087 6.58254 10.5827C6.66468 10.5562 6.73197 10.5147 6.77437 10.4783C6.81676 10.442 6.8369 10.4139 6.83531 10.4124C6.83266 10.4098 6.80881 10.4342 6.76483 10.4664C6.72138 10.4986 6.65567 10.537 6.57618 10.5625C6.49669 10.5874 6.42092 10.5947 6.36634 10.5936C6.31123 10.5915 6.27678 10.5858 6.27625 10.5895Z" fill="white"/>
<path d="M6.07065 11.0475C6.07118 11.0491 6.0839 11.046 6.10615 11.0392C6.12894 11.033 6.16073 11.0216 6.19942 11.006C6.27731 10.9748 6.38118 10.9234 6.4861 10.8507C6.59102 10.778 6.67528 10.6985 6.73092 10.6372C6.759 10.6066 6.7802 10.5806 6.79398 10.5619C6.80776 10.5432 6.81464 10.5328 6.81358 10.5318C6.81094 10.5297 6.77755 10.5687 6.71979 10.6269C6.66203 10.685 6.57724 10.7614 6.47391 10.8336C6.37058 10.9052 6.26884 10.9582 6.19359 10.9925C6.11834 11.0267 6.06959 11.0444 6.07065 11.0475Z" fill="white"/>
<path d="M7.698 9.38821C7.69694 9.39133 7.73722 9.40483 7.79922 9.4334C7.86069 9.46196 7.94494 9.50766 8.01224 9.58453C8.07848 9.66191 8.10391 9.75487 8.10232 9.82031C8.10179 9.88679 8.0806 9.9247 8.08431 9.92626C8.08537 9.92678 8.09173 9.91795 8.09968 9.90029C8.10762 9.88263 8.11557 9.85563 8.11822 9.82083C8.12405 9.75228 8.09968 9.65204 8.0292 9.5705C7.95872 9.48949 7.86969 9.44482 7.80557 9.41937C7.74093 9.39393 7.69906 9.38562 7.698 9.38821Z" fill="white"/>
<path d="M7.95077 9.2428C7.94865 9.24591 7.98627 9.26773 8.03397 9.31654C8.08166 9.36484 8.13677 9.4443 8.15955 9.54454C8.18234 9.64477 8.16697 9.74033 8.14472 9.80369C8.12246 9.86809 8.09755 9.9034 8.10126 9.90548C8.10232 9.906 8.10974 9.89821 8.12087 9.88211C8.132 9.86601 8.14631 9.8416 8.15955 9.80888C8.18605 9.745 8.20566 9.64529 8.18128 9.53986C8.15743 9.43444 8.09702 9.35238 8.04509 9.30564C8.01913 9.28175 7.99581 9.26565 7.97832 9.25578C7.9619 9.24539 7.95183 9.24176 7.95077 9.2428Z" fill="white"/>
<path d="M6.52955 11.4272C6.52955 11.4329 6.60692 11.4272 6.68429 11.3768C6.76218 11.3274 6.79822 11.2599 6.79292 11.2579C6.78762 11.2542 6.74523 11.3124 6.6721 11.3586C6.5995 11.4064 6.52849 11.4209 6.52955 11.4272Z" fill="white"/>
<path d="M6.50147 11.5144C6.50041 11.5196 6.5852 11.5253 6.67529 11.4781C6.76537 11.4324 6.80882 11.3602 6.80405 11.3581C6.79875 11.3539 6.75 11.4157 6.66522 11.4588C6.58096 11.5035 6.50094 11.5082 6.50147 11.5144Z" fill="white"/>
<path d="M8.72338 10.1501C8.72391 10.1522 8.74934 10.1485 8.78485 10.1288C8.82035 10.1096 8.86487 10.0722 8.89613 10.0192C8.92739 9.96573 8.93905 9.90964 8.93799 9.86965C8.93746 9.82966 8.92845 9.80629 8.92633 9.80681C8.92262 9.80732 8.9258 9.83121 8.92263 9.86913C8.91945 9.90704 8.90673 9.95845 8.87705 10.0083C8.84738 10.0582 8.80816 10.0945 8.77637 10.1158C8.7451 10.1376 8.72232 10.1465 8.72338 10.1501Z" fill="white"/>
<path d="M8.65396 10.0171C8.6582 10.0208 8.71384 9.96625 8.76153 9.88367C8.80976 9.80161 8.82989 9.72683 8.82406 9.72527C8.81771 9.72319 8.78909 9.79278 8.74246 9.87276C8.69583 9.95326 8.64919 10.013 8.65396 10.0171Z" fill="white"/>
<path d="M7.13365 10.9514C7.131 10.9551 7.16015 10.9774 7.20201 10.9935C7.24387 11.0096 7.28044 11.0122 7.28097 11.0075C7.28203 11.0029 7.24811 10.993 7.20784 10.9774C7.1681 10.9623 7.1363 10.9473 7.13365 10.9514Z" fill="#EB996E"/>
<path d="M7.0653 11.0457C7.06583 11.0506 7.10769 11.0517 7.15962 11.0484C7.21155 11.0451 7.25342 11.0386 7.25289 11.0337C7.25236 11.0288 7.21049 11.0277 7.15856 11.031C7.10663 11.0343 7.06477 11.0408 7.0653 11.0457Z" fill="#EB996E"/>
<path d="M8.7112 11.1102C8.7112 11.1151 8.73451 11.1195 8.76313 11.1195C8.79174 11.12 8.81506 11.1162 8.81506 11.1113C8.81506 11.1064 8.79174 11.1021 8.76313 11.1021C8.73451 11.1015 8.7112 11.1053 8.7112 11.1102Z" fill="#EB996E"/>
<path d="M8.73558 11.0621C8.73823 11.0662 8.75784 11.0589 8.78009 11.046C8.80235 11.033 8.81824 11.019 8.8156 11.0153C8.81295 11.0112 8.79334 11.0184 8.77108 11.0314C8.74883 11.0444 8.73293 11.0579 8.73558 11.0621Z" fill="#EB996E"/>
<path d="M7.73669 10.2176C7.73616 10.2202 7.76689 10.227 7.81458 10.2451C7.86227 10.2628 7.9248 10.2945 7.99687 10.3251C8.06947 10.3558 8.14101 10.3719 8.19347 10.3703C8.21943 10.3698 8.24063 10.3667 8.25441 10.363C8.26872 10.3594 8.2756 10.3558 8.2756 10.3547C8.27507 10.3516 8.24381 10.3609 8.19347 10.3584C8.14313 10.3568 8.07477 10.3397 8.00376 10.3095C7.93275 10.2794 7.8681 10.2488 7.81882 10.2337C7.76901 10.2181 7.73669 10.2155 7.73669 10.2176Z" fill="#EB996E"/>
<path d="M7.86492 10.2031C7.8628 10.2067 7.94441 10.2508 8.05728 10.2664C8.17015 10.283 8.2613 10.2633 8.26024 10.2597C8.25971 10.2545 8.16962 10.2659 8.05993 10.2498C7.94971 10.2347 7.86704 10.1984 7.86492 10.2031Z" fill="#EB996E"/>
<path d="M7.66463 11.7429C7.66886 11.745 7.6837 11.7087 7.72504 11.6926C7.76584 11.6765 7.8024 11.6931 7.80399 11.6884C7.80505 11.6863 7.79763 11.6796 7.78174 11.6744C7.76637 11.6692 7.74252 11.6676 7.71815 11.677C7.6943 11.6863 7.67787 11.704 7.67045 11.718C7.66304 11.732 7.66251 11.7424 7.66463 11.7429Z" fill="#EB996E"/>
<path d="M7.58249 11.7237C7.58726 11.7247 7.5968 11.6848 7.63813 11.6593C7.67841 11.6328 7.72027 11.6406 7.7208 11.6359C7.72133 11.6339 7.71179 11.6287 7.6943 11.6271C7.67682 11.6256 7.65191 11.6302 7.62912 11.6448C7.60634 11.6593 7.5915 11.6796 7.58567 11.6962C7.57931 11.7123 7.5809 11.7232 7.58249 11.7237Z" fill="#EB996E"/>
<path d="M7.441 13.2958C7.441 13.2968 7.44842 13.2958 7.45954 13.289C7.47014 13.2823 7.48286 13.2672 7.49081 13.2464C7.49929 13.2257 7.50194 13.1992 7.50618 13.1722C7.51041 13.1452 7.51942 13.115 7.54539 13.0995C7.57083 13.0839 7.6058 13.0808 7.6307 13.061C7.65561 13.0428 7.66939 13.0179 7.67575 12.9966C7.68847 12.9525 7.6731 12.9255 7.67204 12.9265C7.66886 12.927 7.67893 12.9535 7.66409 12.993C7.65667 13.0117 7.64342 13.0335 7.62117 13.0486C7.59997 13.0647 7.56765 13.0667 7.53585 13.0854C7.51995 13.0948 7.50883 13.1098 7.50194 13.1249C7.49505 13.14 7.4924 13.1555 7.49028 13.1696C7.48657 13.1981 7.48551 13.2231 7.47915 13.2428C7.46802 13.2833 7.43941 13.2937 7.441 13.2958Z" fill="#EB996E"/>
<path d="M7.29474 13.2501C7.29474 13.2516 7.32495 13.2454 7.35674 13.2106C7.37211 13.1935 7.38695 13.169 7.39331 13.1389C7.39649 13.1239 7.39755 13.1078 7.39596 13.0906C7.39437 13.074 7.39066 13.0579 7.39013 13.0423C7.38748 13.0106 7.40974 12.9873 7.43146 12.9681C7.44259 12.9582 7.45319 12.9488 7.4622 12.9385C7.47173 12.9276 7.47756 12.9156 7.48074 12.9047C7.48763 12.8824 7.48392 12.8611 7.47438 12.8502C7.46485 12.8398 7.45637 12.8393 7.45637 12.8403C7.45584 12.8419 7.46273 12.8445 7.46856 12.8543C7.47438 12.8642 7.47597 12.8813 7.46856 12.9011C7.46485 12.9109 7.45902 12.9208 7.45107 12.9296C7.44259 12.9385 7.43146 12.9473 7.42033 12.9566C7.40921 12.9665 7.39649 12.9769 7.38695 12.9914C7.37688 13.0055 7.37158 13.0252 7.37264 13.0428C7.37317 13.061 7.37741 13.0771 7.379 13.0922C7.38059 13.1072 7.38006 13.1218 7.37741 13.1353C7.37211 13.1628 7.35992 13.1857 7.34668 13.2028C7.32018 13.2371 7.29315 13.247 7.29474 13.2501Z" fill="#EB996E"/>
<path d="M8.15427 11.8909C8.03451 12.2732 7.6853 11.9314 7.89885 11.7793C7.99211 11.7938 8.07849 11.8478 8.16857 11.8774" fill="#EB996E"/>
<path d="M8.06683 12.0675C7.93965 12.0961 7.76849 11.9512 7.87765 11.8021C7.93064 11.7871 8.03662 11.8619 8.09068 11.8707C8.24276 11.9273 8.24859 11.9148 8.1018 11.8458C8.03503 11.8239 7.95025 11.7559 7.87182 11.7595C7.69748 11.8831 7.89726 12.1719 8.06683 12.0675Z" fill="#263238"/>
<path d="M2.90497 14.7884L2.89544 14.5796C2.89491 14.5651 2.89173 14.5505 2.8859 14.5375L2.77303 14.2727C2.77303 14.2727 3.2314 13.7606 3.25578 13.6977C3.28015 13.6349 3.26531 13.5679 3.15191 13.6141C3.03851 13.6604 2.66916 13.9943 2.66916 13.9943L2.52715 13.7476C2.52715 13.7476 2.85887 13.4007 2.89173 13.3638C2.92458 13.3269 2.9055 13.1322 2.78256 13.1971C2.65963 13.262 2.34751 13.5404 2.34751 13.5404L2.26219 13.4568L2.50807 13.086C2.50807 13.086 2.59339 12.9561 2.48899 12.9192C2.38513 12.8824 2.33744 12.9561 2.26166 13.0397C2.18589 13.1233 2.06931 13.3041 2.06931 13.3041L1.99618 13.2984L1.88331 13.2719L1.89232 13.1431C1.89232 13.1431 2.04387 12.9286 2.06931 12.8808C2.0905 12.8413 2.15462 12.7494 2.06931 12.712C1.98399 12.6752 1.92835 12.6679 1.88331 12.7432C1.85522 12.7899 1.79004 12.8413 1.79004 12.8413C1.79004 12.8413 1.6936 12.7567 1.63849 12.7401C1.57119 12.7193 1.4917 12.7956 1.57013 13.007C1.58285 13.0418 1.66021 13.4313 1.66021 13.4313L1.67929 13.6354L1.76991 13.8177L2.17688 14.5152L2.17635 14.7899" fill="#FFBE9D"/>
<path d="M2.18112 13.9424C2.18642 13.9424 2.19119 13.9013 2.20921 13.8364L2.24153 13.7222C2.24736 13.7003 2.25372 13.6775 2.25955 13.6531C2.26008 13.65 2.26114 13.6479 2.26167 13.6417C2.26167 13.6427 2.2622 13.6354 2.26061 13.6323C2.26008 13.6313 2.26114 13.6328 2.25902 13.6292C2.25796 13.6266 2.25107 13.6193 2.24153 13.6193C2.23252 13.6198 2.22881 13.6245 2.22775 13.625L2.22722 13.6261L2.22457 13.6297L2.22245 13.6344L2.22034 13.6401C2.21981 13.6437 2.21875 13.6401 2.21822 13.652L2.21875 13.6541C2.21928 13.6567 2.22245 13.665 2.23199 13.6687C2.241 13.6713 2.24683 13.6681 2.24842 13.6671L2.24948 13.6661C2.25107 13.665 2.25266 13.6635 2.25425 13.6619C2.2569 13.6583 2.25584 13.6598 2.25637 13.6588L2.25796 13.6557L2.26273 13.6479C2.26803 13.638 2.27545 13.6287 2.28286 13.6188C2.34751 13.543 2.42488 13.4848 2.47575 13.4401C2.52821 13.396 2.55948 13.3669 2.55577 13.3622C2.55259 13.3581 2.5155 13.3794 2.45827 13.4183C2.40209 13.4583 2.32261 13.5113 2.25107 13.5944C2.24259 13.6053 2.23411 13.6162 2.22722 13.6292L2.22245 13.638L2.22193 13.6391C2.21875 13.6365 2.2304 13.6448 2.23252 13.6458C2.23676 13.6474 2.23676 13.6515 2.23941 13.6505C2.26432 13.6541 2.25478 13.6531 2.25743 13.652L2.25849 13.6489V13.6484C2.26114 13.65 2.25001 13.6443 2.24789 13.6432C2.24418 13.6422 2.24153 13.638 2.24047 13.6391C2.23623 13.6411 2.23517 13.6385 2.22669 13.6385C2.21716 13.638 2.22404 13.638 2.22193 13.6385L2.2214 13.6401L2.22034 13.6442C2.21504 13.6671 2.21027 13.6894 2.20497 13.7123C2.1949 13.7559 2.18642 13.7959 2.18112 13.8297C2.17052 13.8987 2.17582 13.9429 2.18112 13.9424Z" fill="#EB996E"/>
<path d="M1.9575 13.6972C1.96916 13.6946 1.94213 13.5861 1.99035 13.4625C2.03699 13.3399 2.11541 13.2589 2.10534 13.2501C2.10057 13.2433 2.00466 13.315 1.95326 13.449C1.92888 13.5155 1.92464 13.5814 1.93206 13.6271C1.93895 13.6733 1.95379 13.6983 1.9575 13.6972Z" fill="#EB996E"/>
<path d="M2.62042 14.4451C2.6289 14.4524 2.71368 14.3698 2.81013 14.2607C2.90657 14.1517 2.97811 14.0577 2.97016 14.0504C2.96168 14.0431 2.87689 14.1257 2.78045 14.2347C2.68348 14.3438 2.61194 14.4378 2.62042 14.4451Z" fill="#EB996E"/>
<path d="M2.45296 14.2119C2.46091 14.2192 2.54622 14.1501 2.6432 14.0571C2.74017 13.9642 2.81277 13.8826 2.80588 13.8743C2.79846 13.866 2.71314 13.9356 2.61564 14.0291C2.51761 14.1231 2.44501 14.2046 2.45296 14.2119Z" fill="#EB996E"/>
<path d="M2.91876 14.5947C2.91664 14.5432 2.90127 14.4949 2.8806 14.4565C2.85994 14.4181 2.83768 14.3874 2.82231 14.3604C2.78999 14.3075 2.78681 14.2685 2.78045 14.2685C2.77515 14.2675 2.76826 14.3121 2.79688 14.3724C2.82337 14.4331 2.87742 14.5032 2.87901 14.5962C2.88272 14.6881 2.86683 14.739 2.83079 14.7884H2.87372C2.91876 14.7396 2.923 14.698 2.91876 14.5947Z" fill="#EB996E"/>
<path d="M1.89232 13.3622C1.9008 13.3622 1.90822 13.2781 1.91087 13.1597L1.90769 13.1701C1.9273 13.1441 1.9469 13.114 1.96598 13.0823C2.00943 13.0081 2.04229 12.9395 2.06825 12.8907C2.09369 12.8419 2.11012 12.8117 2.10535 12.8081C2.10111 12.805 2.0762 12.8299 2.04388 12.8761C2.01102 12.9218 1.97393 12.9899 1.93154 13.0621C1.91299 13.0932 1.89497 13.1223 1.87695 13.1483L1.87325 13.1535V13.1587C1.87642 13.2781 1.88384 13.3622 1.89232 13.3622Z" fill="#EB996E"/>
<path d="M1.69148 13.6567C1.69519 13.6546 1.68512 13.6266 1.68194 13.5752C1.6777 13.5238 1.67611 13.4495 1.67876 13.3628V13.3612L1.67823 13.3591C1.66658 13.2958 1.65439 13.2288 1.64167 13.1581C1.64061 13.1529 1.63955 13.1478 1.63849 13.1431L1.63902 13.1452C1.63584 13.087 1.68035 13.0356 1.71427 12.9888C1.74606 12.9447 1.77627 12.9026 1.80541 12.8626C1.85628 12.7904 1.88543 12.7442 1.88119 12.7411C1.87695 12.738 1.83986 12.7785 1.78316 12.8465C1.75189 12.885 1.71957 12.9255 1.68512 12.9675C1.66711 12.9904 1.64697 13.0148 1.62948 13.0434C1.612 13.0719 1.59716 13.1078 1.59928 13.1472V13.1483V13.1493C1.60034 13.154 1.6014 13.1592 1.60193 13.1644C1.61623 13.2345 1.62948 13.301 1.6422 13.3643L1.64167 13.3607C1.6422 13.4495 1.64856 13.5243 1.65916 13.5767C1.66976 13.6307 1.68777 13.6588 1.69148 13.6567Z" fill="#EB996E"/>
<path d="M2.49377 14.0592C2.5049 14.0561 2.49006 13.9855 2.50013 13.8998C2.50914 13.8141 2.53881 13.7481 2.52874 13.7429C2.52026 13.7367 2.47098 13.8006 2.46091 13.8956C2.44979 13.9907 2.48423 14.0628 2.49377 14.0592Z" fill="#EB996E"/>
<path d="M2.19013 13.786C2.20179 13.7855 2.20338 13.7092 2.22934 13.6204C2.25372 13.5316 2.2924 13.4651 2.28287 13.4583C2.27492 13.4516 2.21769 13.5134 2.19119 13.6095C2.16311 13.7061 2.18006 13.7876 2.19013 13.786Z" fill="#EB996E"/>
<path d="M3.84344 14.7884C3.84344 14.7884 4.51007 13.8016 4.64467 13.7299C4.77927 13.6583 6.14326 13.1898 6.14326 13.1898L6.72457 12.7972L6.6313 13.6074L6.81677 14.7884" fill="#FFBE3B"/>
<path d="M8.23746 12.9073L7.68847 13.4511L6.71026 12.8481L6.43047 13.3877L6.65727 14.7884L8.76313 14.7764L8.7732 13.8406L8.23746 12.9073Z" fill="#F5F5F5"/>
<path d="M8.17175 14.7884C8.11717 14.5926 7.8909 14.0592 7.8909 14.0592L8.02709 13.8458C8.01808 13.5523 7.75471 13.5253 7.61853 13.5435C7.48234 13.5612 7.45107 13.8458 7.45107 13.8458L7.62753 14.095L7.41504 14.7842L8.17175 14.7884Z" fill="#FF725E"/>
<path d="M10.7 14.7884L10.461 14.1158C10.4233 13.9881 10.3253 13.8857 10.1976 13.8406L8.83732 13.3622L8.22687 12.8834L8.55541 13.6214L8.55435 14.7962L10.7 14.7884Z" fill="#FFBE3B"/>
<path d="M5.07389 14.7764C5.06966 14.7769 5.06277 14.7255 5.04687 14.644C5.03097 14.5625 5.00395 14.4503 4.95996 14.3313C4.91598 14.2124 4.86405 14.1091 4.82272 14.0369C4.78138 13.9642 4.75224 13.9211 4.75595 13.9185C4.7586 13.9164 4.79304 13.9559 4.83967 14.027C4.88578 14.0976 4.94142 14.201 4.98646 14.322C5.03097 14.443 5.05535 14.5573 5.06648 14.6409C5.0776 14.724 5.0776 14.7759 5.07389 14.7764Z" fill="#455A64"/>
<path d="M9.94537 14.725C9.94166 14.724 9.94961 14.6777 9.96709 14.603C9.98511 14.5287 10.0121 14.4264 10.0513 14.3163C10.0906 14.2062 10.1356 14.1091 10.1753 14.0431C10.2146 13.9766 10.2458 13.9403 10.2485 13.9418C10.2522 13.9444 10.2267 13.9844 10.1923 14.0519C10.1579 14.1195 10.116 14.216 10.0773 14.3251C10.0005 14.5443 9.95385 14.7271 9.94537 14.725Z" fill="#455A64"/>
<path d="M9.11446 14.7645C9.11234 14.764 9.12082 14.7338 9.13778 14.6809C9.15685 14.6227 9.18176 14.5479 9.21144 14.4581L9.21302 14.4679C9.18229 14.4305 9.14891 14.39 9.1134 14.3464C9.09538 14.3246 9.07631 14.3023 9.05723 14.2794C9.04716 14.268 9.03762 14.2566 9.02756 14.2451L9.01219 14.2285L8.99894 14.2161L8.98675 14.2041L8.99364 14.1958C9.0461 14.1345 9.12188 14.094 9.2019 14.0618C9.22892 14.0509 9.25595 14.0421 9.28191 14.0343L9.27396 14.054C9.15685 13.8577 9.03603 13.692 8.95708 13.5679C8.91733 13.5061 8.88607 13.4552 8.86646 13.4199C8.84633 13.3841 8.83679 13.3643 8.83785 13.3633C8.83944 13.3622 8.85216 13.3809 8.87494 13.4147C8.90091 13.4526 8.93376 13.5004 8.97245 13.558C9.05511 13.6796 9.17911 13.8432 9.29781 14.041L9.30682 14.0556L9.28986 14.0602C9.26496 14.0675 9.23846 14.0763 9.2125 14.0867C9.13566 14.1179 9.062 14.1579 9.01484 14.2124L9.00954 14.1922C9.02226 14.1999 9.02491 14.2051 9.03127 14.2114L9.04716 14.229C9.05723 14.241 9.0673 14.2524 9.07684 14.2638C9.09591 14.2872 9.11446 14.3101 9.13248 14.3319C9.16692 14.376 9.19978 14.4176 9.22945 14.4555L9.23316 14.4601L9.23104 14.4653C9.19819 14.5536 9.17063 14.6279 9.14891 14.685C9.12877 14.7364 9.11658 14.765 9.11446 14.7645Z" fill="#455A64"/>
<path d="M5.96573 14.7884C5.96414 14.7889 5.95831 14.7671 5.94612 14.7276C5.9334 14.6835 5.91645 14.6269 5.89684 14.5588C5.87723 14.4866 5.8518 14.4009 5.83802 14.3002C5.83484 14.2758 5.83325 14.2462 5.8412 14.2192C5.84862 14.1927 5.85975 14.1667 5.87511 14.1423C5.90479 14.094 5.95566 14.0488 6.02137 14.0395L6.0219 14.066C5.97845 14.0613 5.93287 14.0561 5.88624 14.0509C5.8518 14.0473 5.81841 14.0431 5.78609 14.04C5.77867 14.039 5.77337 14.0327 5.7739 14.0249C5.7739 14.0234 5.77443 14.0223 5.77496 14.0208C5.87511 13.798 5.96573 13.6006 6.03197 13.4588C6.06376 13.3918 6.09026 13.3363 6.11092 13.2927C6.13 13.2537 6.14113 13.2329 6.14272 13.2334C6.14431 13.234 6.13636 13.2563 6.11993 13.2968C6.10139 13.3415 6.07754 13.3981 6.04839 13.4666C5.98693 13.61 5.89949 13.8089 5.79987 14.0322L5.78874 14.0135C5.82053 14.0171 5.85445 14.0208 5.88889 14.0244C5.93552 14.0296 5.9811 14.0348 6.02455 14.0395C6.03197 14.0405 6.03727 14.0467 6.03674 14.0545C6.03621 14.0608 6.03091 14.0654 6.02508 14.0665C5.9705 14.0737 5.92493 14.1122 5.89737 14.1563C5.88306 14.1787 5.87246 14.202 5.86558 14.2264C5.85816 14.2503 5.85922 14.2732 5.86187 14.2981C5.87352 14.3957 5.89737 14.4825 5.91433 14.5547C5.95142 14.6985 5.97103 14.7873 5.96573 14.7884Z" fill="#455A64"/>
<path d="M21.924 5.6323C21.9245 5.64113 21.6378 5.66035 21.2844 5.67541C20.9309 5.69047 20.6437 5.69566 20.6437 5.68735C20.6432 5.67853 20.9293 5.65931 21.2833 5.64425C21.6368 5.62867 21.9235 5.62347 21.924 5.6323Z" fill="white"/>
<path d="M18.7986 3.3986C18.8548 3.09738 18.9284 2.78785 19.1176 2.54428C19.3068 2.3007 19.6422 2.14074 19.9379 2.2389L20.303 2.44612C20.2277 3.27811 20.0545 4.10179 19.7885 4.89483C19.7625 4.97274 19.7333 5.05323 19.6745 5.1114C19.5564 5.22877 19.3624 5.87484 19.195 5.85562C18.9931 5.83277 18.6868 6.11114 18.6004 5.93041C18.5585 5.84368 18.6338 4.76292 18.6401 4.66684C18.6677 4.2415 18.7207 3.81771 18.7986 3.3986Z" fill="#263238"/>
<path d="M20.8525 2.86264L19.728 2.49702C19.364 2.43262 19.0874 2.85796 19.037 3.21735C18.9814 3.61621 18.9295 4.10595 18.956 4.40821C19.0084 5.01688 19.4732 5.12698 19.4732 5.12698C19.4732 5.1249 19.418 5.31602 19.4366 5.58505C19.4657 5.99948 19.7381 6.10647 19.9617 6.12153C20.3141 6.15788 20.6814 6.0483 20.7222 5.70346L21.0295 3.09115C21.0401 2.98157 20.9627 2.88237 20.8525 2.86264Z" fill="#FFBE9D"/>
<path d="M19.2532 3.68891C19.249 3.72942 19.2803 3.76681 19.3232 3.77201C19.3661 3.7772 19.4048 3.74916 19.4096 3.70813C19.4138 3.66762 19.3825 3.63023 19.3396 3.62503C19.2967 3.61984 19.258 3.6484 19.2532 3.68891Z" fill="#263238"/>
<path d="M19.1584 3.53103C19.1674 3.54194 19.2305 3.50299 19.3147 3.50922C19.3995 3.51441 19.4583 3.56167 19.4684 3.55181C19.4732 3.54765 19.4647 3.52896 19.4392 3.50766C19.4138 3.48637 19.3698 3.46456 19.3174 3.46092C19.2644 3.45729 19.2188 3.47339 19.1918 3.49104C19.1637 3.5087 19.1536 3.52584 19.1584 3.53103Z" fill="#263238"/>
<path d="M20.0423 3.76318C20.0375 3.80369 20.0693 3.84108 20.1122 3.84628C20.1552 3.85147 20.1938 3.82342 20.1986 3.7824C20.2028 3.74189 20.1716 3.70449 20.1287 3.6993C20.0857 3.69359 20.0471 3.72215 20.0423 3.76318Z" fill="#263238"/>
<path d="M20.0047 3.61465C20.0137 3.62555 20.0767 3.5866 20.161 3.59283C20.2458 3.59803 20.3046 3.64529 20.3147 3.63542C20.3194 3.63127 20.3109 3.61257 20.2855 3.59128C20.2601 3.56998 20.2161 3.54817 20.1636 3.54454C20.1106 3.5409 20.0651 3.557 20.038 3.57466C20.0105 3.59232 20.0004 3.60997 20.0047 3.61465Z" fill="#263238"/>
<path d="M19.6401 4.15113C19.6406 4.14646 19.5887 4.13399 19.5044 4.11685C19.4832 4.11322 19.4626 4.1075 19.4604 4.09296C19.4567 4.07738 19.4673 4.05505 19.4795 4.03116C19.5039 3.9813 19.5288 3.92885 19.5553 3.87432C19.6613 3.651 19.7397 3.46663 19.7302 3.46248C19.7212 3.45832 19.6274 3.63594 19.5219 3.85978C19.4965 3.91483 19.4721 3.96728 19.4488 4.01766C19.4387 4.04103 19.4228 4.06752 19.4313 4.10023C19.4361 4.11633 19.4509 4.12932 19.4647 4.13399C19.4785 4.13918 19.4906 4.14022 19.5012 4.14178C19.586 4.15165 19.639 4.1558 19.6401 4.15113Z" fill="#263238"/>
<path d="M19.4732 5.12698C19.4732 5.12698 19.9193 5.18515 20.3464 4.97326C20.3464 4.97326 20.0725 5.37886 19.4626 5.27863L19.4732 5.12698Z" fill="#EB996E"/>
<path d="M19.9639 3.35913C19.9707 3.3825 20.0561 3.37783 20.1546 3.39652C20.2537 3.41366 20.3316 3.44742 20.3465 3.4282C20.3528 3.41885 20.3406 3.39652 20.3099 3.37263C20.2792 3.34874 20.2299 3.32433 20.1705 3.31343C20.1112 3.30252 20.0561 3.30823 20.019 3.32018C19.9808 3.3316 19.9612 3.34822 19.9639 3.35913Z" fill="#263238"/>
<path d="M19.1536 3.2833C19.1706 3.30356 19.2448 3.28902 19.3317 3.29421C19.4191 3.29733 19.4912 3.31862 19.5097 3.29992C19.5177 3.29109 19.5076 3.27136 19.4769 3.2511C19.4467 3.23085 19.3947 3.21267 19.3343 3.21008C19.2744 3.20748 19.2215 3.22046 19.1897 3.2376C19.1573 3.25474 19.1457 3.27344 19.1536 3.2833Z" fill="#263238"/>
<path d="M19.6141 2.64555C19.6586 2.72293 19.7238 2.78681 19.7885 2.84913C19.8918 2.94885 19.9946 3.04856 20.0979 3.14827C20.171 3.21942 20.2447 3.29006 20.3268 3.35186C20.3994 3.40639 20.4779 3.45313 20.5563 3.49935C20.6379 3.54765 20.6798 3.67229 20.7614 3.72059C20.7799 3.7315 20.8393 3.72475 20.8589 3.73877C20.8552 3.87328 20.853 4.30226 20.8515 4.47313C20.8493 4.74215 20.7508 5.45936 20.7508 5.45936H20.9845C21.1678 5.43184 21.4259 5.82342 21.5239 5.66918C21.6325 5.49883 21.5006 4.76811 21.4948 4.63153C21.4783 4.22436 21.3967 3.80992 21.3734 3.45988C21.3639 3.31862 21.3543 3.17476 21.3035 3.04233C21.2314 2.85484 21.0836 2.70475 20.924 2.57907C20.7407 2.43469 20.5335 2.31369 20.3041 2.26279C20.0751 2.21189 19.8218 2.23734 19.6268 2.36562C19.5966 2.38536 19.5659 2.4108 19.5579 2.4456C19.5293 2.52921 19.5696 2.56765 19.6141 2.64555ZM20.8642 3.74293C20.8726 3.75903 20.8658 3.80109 20.8642 3.74293Z" fill="#263238"/>
<path d="M20.8234 3.90496C20.8393 3.7772 20.9876 3.7019 21.0963 3.77409C21.1561 3.81356 21.1985 3.88782 21.1826 4.02337C21.1413 4.38484 20.7799 4.26954 20.7804 4.25916C20.7804 4.25189 20.8048 4.05453 20.8234 3.90496Z" fill="#FFBE9D"/>
<path d="M20.9087 4.13399C20.9103 4.13295 20.9145 4.13919 20.9251 4.14542C20.9352 4.15113 20.9532 4.15684 20.9728 4.15165C21.0136 4.14178 21.0534 4.08518 21.0624 4.01974C21.0671 3.98702 21.0634 3.95482 21.0549 3.92781C21.0465 3.90029 21.0316 3.87951 21.012 3.87432C20.9929 3.86757 20.9776 3.87796 20.9723 3.8873C20.9664 3.89665 20.9675 3.90444 20.9659 3.90496C20.9649 3.906 20.9585 3.89821 20.9633 3.88367C20.9654 3.87692 20.9707 3.86861 20.9802 3.86289C20.9898 3.85666 21.0035 3.85459 21.0168 3.8577C21.0449 3.86289 21.0677 3.89146 21.0777 3.92106C21.0889 3.95118 21.0936 3.98754 21.0883 4.02441C21.0777 4.09712 21.0316 4.161 20.9765 4.17035C20.95 4.17398 20.9288 4.16412 20.9188 4.15425C20.9082 4.14282 20.9071 4.13451 20.9087 4.13399Z" fill="#EB996E"/>
<path d="M21.0226 4.29966C21.02 4.33913 20.985 4.36874 20.9447 4.36562C20.9045 4.36302 20.8742 4.32875 20.8774 4.28928C20.8801 4.24981 20.9151 4.2202 20.9553 4.22332C20.9951 4.22644 21.0253 4.26071 21.0226 4.29966Z" fill="#E0E0E0"/>
<path d="M19.8595 4.3194C19.8891 4.36354 19.8955 4.42223 19.8754 4.47157C19.8552 4.5209 19.8096 4.55934 19.7567 4.57128C19.7355 4.57596 19.7127 4.57647 19.6931 4.56765C19.6586 4.55207 19.6433 4.5126 19.6316 4.47676C19.6221 4.44716 19.6125 4.41755 19.6025 4.38795C19.5993 4.37808 19.5961 4.36666 19.6014 4.35783C19.6072 4.34796 19.6199 4.34537 19.6311 4.34329C19.7053 4.33134 19.7789 4.31888 19.8531 4.30693" fill="#EB996E"/>
<path d="M19.6989 4.55778C19.6989 4.55985 19.7371 4.56713 19.7991 4.55258C19.8293 4.54479 19.8669 4.52662 19.8907 4.48922C19.9029 4.47157 19.9098 4.44612 19.9088 4.42379C19.9088 4.40093 19.905 4.37704 19.8966 4.35419C19.8881 4.33186 19.8748 4.31213 19.8595 4.29551L19.8542 4.28979L19.8468 4.29187C19.6984 4.33186 19.5839 4.34952 19.5844 4.35523C19.585 4.36146 19.7026 4.35419 19.8536 4.31628L19.8409 4.31265C19.8542 4.32667 19.8648 4.34381 19.8722 4.36302C19.886 4.40249 19.8891 4.44716 19.8706 4.47624C19.8515 4.5074 19.8208 4.52506 19.7938 4.53441C19.7376 4.5531 19.6984 4.5531 19.6989 4.55778Z" fill="#263238"/>
<path d="M20.4943 2.86523C20.7253 3.02675 20.9235 3.23397 21.0735 3.47079L20.8742 3.80213C20.5356 3.77097 20.4954 3.73721 20.2569 3.49935C20.0184 3.26201 19.5442 2.78889 19.5177 2.4565C19.8383 2.54479 20.223 2.67567 20.4943 2.86523Z" fill="#263238"/>
<path d="M21.0295 5.44586C21.0284 5.44534 21.0343 5.43339 21.0459 5.41106C21.0576 5.38925 21.0745 5.35601 21.0952 5.31342C21.1365 5.22825 21.1917 5.10205 21.2404 4.94053C21.2881 4.7785 21.3289 4.58063 21.3374 4.35783C21.3411 4.24669 21.3411 4.1288 21.3188 4.01091C21.2966 3.89353 21.2478 3.77408 21.1556 3.68476C21.0639 3.59543 20.9479 3.5383 20.8371 3.48429C20.7253 3.43132 20.6188 3.37367 20.524 3.30979C20.3343 3.18255 20.1843 3.03973 20.0725 2.90989C19.9591 2.78109 19.8822 2.66528 19.8314 2.58478C19.8059 2.54427 19.7874 2.51207 19.7757 2.49026C19.7635 2.46845 19.7577 2.4565 19.7588 2.45598C19.7598 2.45547 19.7673 2.46637 19.781 2.48715C19.7943 2.50844 19.8144 2.5396 19.8409 2.57855C19.8944 2.65697 19.9734 2.77019 20.0878 2.89639C20.2007 3.02311 20.3507 3.16281 20.5388 3.28746C20.6331 3.34978 20.7375 3.40587 20.8493 3.45832C20.9601 3.51233 21.0793 3.56998 21.1758 3.66346C21.2733 3.75746 21.3241 3.88367 21.3464 4.00415C21.3692 4.1262 21.3681 4.24513 21.3639 4.35731C21.3538 4.58271 21.3104 4.78213 21.2595 4.94469C21.2075 5.10724 21.1493 5.23293 21.1047 5.31706C21.082 5.35913 21.0639 5.39133 21.0502 5.41262C21.0374 5.43547 21.0306 5.44638 21.0295 5.44586Z" fill="#455A64"/>
<path d="M21.2918 3.55804C21.2854 3.56063 21.2844 3.44378 21.1742 3.30615C21.1206 3.23812 21.0422 3.16749 20.9431 3.10776C20.8446 3.047 20.7264 2.99558 20.6029 2.9395C20.3533 2.82939 20.1493 2.68605 20.0168 2.56868C19.9501 2.51052 19.8997 2.4591 19.8663 2.42275C19.833 2.38639 19.816 2.36458 19.8176 2.36354C19.8192 2.36198 19.8388 2.3812 19.8748 2.41496C19.9103 2.44871 19.9628 2.49753 20.0306 2.5531C20.1657 2.6658 20.3682 2.80447 20.6156 2.91353C20.7386 2.96962 20.8578 3.02207 20.958 3.08543C21.0592 3.14775 21.1381 3.22202 21.1911 3.29369C21.2452 3.36536 21.2717 3.43391 21.2833 3.48169C21.2892 3.50558 21.2918 3.5248 21.2923 3.53778C21.2929 3.55128 21.2929 3.55804 21.2918 3.55804Z" fill="#455A64"/>
<path d="M18.6952 5.82342C18.6942 5.82342 18.6942 5.80992 18.6947 5.78447C18.6958 5.75487 18.6968 5.718 18.6984 5.67281C18.7027 5.5757 18.709 5.43547 18.7191 5.26201C18.7392 4.91561 18.77 4.43573 18.8362 3.90964C18.8691 3.64685 18.9077 3.39496 18.975 3.17632C19.0407 2.95716 19.1377 2.7759 19.2411 2.6523C19.3444 2.52766 19.4488 2.45858 19.524 2.42638C19.5611 2.40977 19.5913 2.40094 19.612 2.39678C19.6327 2.39263 19.6433 2.39107 19.6433 2.39211C19.6438 2.39574 19.6003 2.40405 19.5277 2.43989C19.4551 2.4752 19.3545 2.54635 19.2554 2.67048C19.1557 2.79356 19.063 2.97118 18.9999 3.18723C18.9348 3.40275 18.8971 3.65204 18.8643 3.91431C18.7986 4.43885 18.7641 4.91717 18.7387 5.26357C18.7265 5.43288 18.7164 5.57154 18.709 5.67385C18.7053 5.71904 18.7021 5.75591 18.6995 5.78551C18.6979 5.80992 18.6958 5.82342 18.6952 5.82342Z" fill="#455A64"/>
<path d="M17.7827 6.92599C17.7827 6.92599 17.849 6.40509 18.1055 6.14438C18.3619 5.88367 19.4345 5.55752 19.4345 5.55752C19.4345 5.55752 19.479 5.92937 19.7355 6.0187C20.0078 6.11374 20.3157 6.0779 20.515 5.85147C20.7078 5.6323 20.764 5.3503 20.764 5.3503C20.764 5.3503 22.0448 5.46559 22.2536 5.80992C22.4624 6.15425 22.7326 7.48793 22.7326 7.48793L21.535 7.73721L21.6119 8.81901L18.6687 8.83563L18.5776 7.87847L17.7112 7.99948L17.7827 6.92599Z" fill="#971719"/>
<path d="M21.2976 7.81304C21.2955 7.81304 21.2944 7.79434 21.2934 7.7611C21.2923 7.72786 21.2918 7.67956 21.2918 7.61984C21.2918 7.50091 21.2939 7.33628 21.2976 7.15451C21.3013 6.97273 21.3066 6.8081 21.3114 6.68917C21.3141 6.62945 21.3162 6.58167 21.3188 6.54843C21.3209 6.51519 21.3236 6.49649 21.3252 6.49649C21.3273 6.49649 21.3284 6.51467 21.3294 6.54843C21.3305 6.58167 21.331 6.62997 21.331 6.68969C21.331 6.80862 21.3289 6.97325 21.3252 7.15503C21.3215 7.3368 21.3162 7.50143 21.3114 7.62036C21.3088 7.68008 21.3066 7.72786 21.304 7.7611C21.3019 7.79434 21.2992 7.81304 21.2976 7.81304Z" fill="#263238"/>
<path d="M18.283 6.86679C18.2904 6.86471 18.3651 7.0979 18.4499 7.38717C18.5347 7.67645 18.5977 7.91275 18.5903 7.91483C18.5829 7.91691 18.5082 7.68372 18.4234 7.39444C18.3386 7.10517 18.2756 6.86887 18.283 6.86679Z" fill="#263238"/>
<path d="M22.1201 5.72735C22.1211 5.73202 22.0634 5.74241 21.9759 5.77513C21.8885 5.80732 21.773 5.86653 21.6649 5.95794C21.5573 6.04986 21.4815 6.15373 21.437 6.23423C21.392 6.31473 21.3734 6.36926 21.3686 6.3677C21.3671 6.36718 21.3702 6.35316 21.3776 6.32823C21.3845 6.3033 21.3988 6.26798 21.4195 6.22592C21.4608 6.14178 21.5361 6.03272 21.6468 5.9382C21.7576 5.8442 21.8784 5.78603 21.969 5.75747C22.0146 5.74293 22.0522 5.7341 22.0787 5.73098C22.1052 5.72683 22.1195 5.72579 22.1201 5.72735Z" fill="#263238"/>
<path d="M18.0858 6.24981C18.0933 6.24773 18.1182 6.32044 18.142 6.41184C18.1659 6.50325 18.1791 6.57855 18.1717 6.58011C18.1643 6.58219 18.1394 6.50948 18.1155 6.41808C18.0917 6.32719 18.0784 6.25136 18.0858 6.24981Z" fill="#263238"/>
<path d="M21.3252 6.4965C21.3263 6.50532 20.6458 6.59517 19.8059 6.69696C18.9655 6.79927 18.284 6.8751 18.283 6.86679C18.2819 6.85796 18.9618 6.76811 19.8022 6.66632C20.6421 6.56401 21.3241 6.48819 21.3252 6.4965Z" fill="white"/>
<path d="M22.4698 6.45754C22.4719 6.46585 22.2218 6.53389 21.9107 6.60919C21.5997 6.6845 21.3459 6.73903 21.3437 6.73072C21.3416 6.72241 21.5917 6.65438 21.9028 6.57907C22.2138 6.50377 22.4677 6.44923 22.4698 6.45754Z" fill="white"/>
<path d="M22.6637 7.18359C22.6653 7.1919 22.3728 7.26045 22.0093 7.3368C21.6458 7.41262 21.3501 7.46767 21.3485 7.45936C21.3469 7.45105 21.6394 7.3825 22.0029 7.30616C22.3659 7.22981 22.6616 7.17528 22.6637 7.18359Z" fill="white"/>
<path d="M19.426 5.80992C19.4281 5.81823 19.1462 5.89613 18.7965 5.9839C18.4467 6.07167 18.1616 6.13607 18.159 6.12776C18.1569 6.11945 18.4382 6.04155 18.7885 5.95378C19.1383 5.86601 19.4233 5.80161 19.426 5.80992Z" fill="white"/>
<path d="M21.2775 7.59491C21.278 7.60374 20.6686 7.64581 19.9167 7.68943C19.1642 7.73306 18.5543 7.76162 18.5538 7.75279C18.5532 7.74397 19.1626 7.7019 19.9151 7.65827C20.667 7.61465 21.277 7.58608 21.2775 7.59491Z" fill="white"/>
<path d="M17.8771 7.22254C17.8765 7.21371 17.9836 7.19917 18.1155 7.18255C18.2475 7.16593 18.355 7.15399 18.3566 7.1623C18.3582 7.17061 18.2528 7.19657 18.1198 7.21319C17.9868 7.23033 17.8776 7.23085 17.8771 7.22254Z" fill="white"/>
<path d="M21.2335 8.47936C21.2335 8.48144 21.2007 8.48507 21.1408 8.48923C21.0751 8.49338 20.9903 8.49909 20.8875 8.50584C20.6681 8.52039 20.3756 8.53908 20.0529 8.56038C19.7302 8.5853 19.4376 8.60764 19.2188 8.62425C19.1165 8.63205 19.0312 8.6388 18.966 8.64399C18.9061 8.64815 18.8733 8.64918 18.8728 8.64711C18.8728 8.64503 18.9051 8.63984 18.9644 8.63153C19.0238 8.62374 19.1102 8.61335 19.2167 8.60192C19.4297 8.57907 19.7243 8.55207 20.0507 8.5287C20.3766 8.50584 20.6723 8.49078 20.8864 8.48351C20.9935 8.47988 21.0804 8.4778 21.1402 8.47728C21.2007 8.47676 21.2335 8.47728 21.2335 8.47936Z" fill="white"/>
<path d="M18.5781 7.87847L18.169 7.93041L17.7827 6.953L17.1574 7.20073C17.1574 7.20073 17.5024 8.34537 17.637 8.8081H18.9067L18.5781 7.87847Z" fill="#FFBE9D"/>
<path d="M18.6221 8.64139C18.5421 8.55518 18.4684 8.47157 18.4117 8.38847C18.354 8.3059 18.3095 8.22592 18.2756 8.15788C18.2416 8.08933 18.2189 8.0322 18.203 7.99221C18.1871 7.95222 18.1791 7.93041 18.177 7.93093C18.1754 7.93145 18.1802 7.95482 18.1929 7.99585C18.2056 8.03688 18.2263 8.09556 18.2581 8.16619C18.2899 8.2363 18.3328 8.31784 18.3905 8.40301C18.4472 8.48819 18.5214 8.5744 18.602 8.66061C18.6815 8.74682 18.6746 8.73955 18.7302 8.82368L18.7625 8.82265C18.7064 8.73436 18.7016 8.7276 18.6221 8.64139Z" fill="#EB996E"/>
<path d="M17.7827 6.95248C17.7827 6.95248 17.7849 6.52506 17.7467 6.40405L17.4558 5.73825C17.4558 5.73825 17.3715 5.69618 17.3556 5.8229C17.3387 5.95949 17.4033 6.08881 17.4033 6.08881L17.4129 6.26539L17.2878 6.16619L17.0477 5.72527C17.0477 5.72527 16.8824 5.40431 16.8395 5.45521C16.7966 5.5061 16.8109 5.60945 16.8819 5.74812C16.9534 5.88678 17.044 6.06232 17.044 6.06232C17.044 6.06232 17.0684 6.11789 16.9836 6.03739C16.8988 5.95637 16.7139 5.56427 16.6758 5.51545C16.6376 5.46663 16.5851 5.32277 16.5025 5.35497C16.4198 5.38769 16.5258 5.55959 16.5258 5.55959L16.7907 6.14126C16.7907 6.14126 16.6371 5.92106 16.6095 5.88367C16.582 5.84627 16.5178 5.72059 16.4675 5.65619C16.4172 5.59179 16.362 5.56687 16.326 5.58245C16.2603 5.61049 16.2799 5.67125 16.2799 5.67125L16.5629 6.15217C16.5629 6.15217 16.7044 6.3677 16.7038 6.38432C16.7038 6.40042 16.5804 6.31316 16.5804 6.31316L16.4617 6.16515C16.4617 6.16515 16.3334 5.94339 16.2661 5.95534C16.1988 5.96728 16.211 6.01662 16.211 6.01662L16.4495 6.42067L16.795 6.8564L17.1643 7.21631L17.3779 7.14879L17.7827 6.95248Z" fill="#FFBE9D"/>
<path d="M17.1029 6.88029C17.1087 6.88081 17.1119 6.82784 17.1251 6.74578C17.1389 6.6658 17.167 6.54635 17.2671 6.46897C17.3111 6.43469 17.3625 6.41496 17.4107 6.41548H17.4282L17.4272 6.39678C17.4219 6.31368 17.4245 6.23474 17.4219 6.18229C17.4203 6.1288 17.4144 6.09712 17.4102 6.09764C17.407 6.09816 17.406 6.1288 17.4017 6.18229C17.3991 6.2363 17.3911 6.30849 17.3948 6.40197L17.4113 6.38328C17.3551 6.38172 17.2942 6.40353 17.2454 6.44196C17.1908 6.48403 17.1543 6.54064 17.1336 6.59465C17.1124 6.64866 17.1044 6.70008 17.1002 6.74266C17.0928 6.82784 17.0986 6.88029 17.1029 6.88029Z" fill="#EB996E"/>
<path d="M21.4137 7.76214L21.3114 8.8081H22.3273C22.3681 8.65541 22.5196 7.53259 22.5196 7.53259L21.4137 7.76214Z" fill="#FFBE9D"/>
<path d="M6.55236 4.03739L6.52321 6.35212C6.51844 6.74578 6.59316 7.32485 7.22852 7.30408C7.77857 7.24539 7.9243 6.73539 7.92854 6.36822C7.93066 6.19424 7.93278 6.04882 7.93384 6.03064C7.93384 6.03064 8.53581 5.98234 8.58668 5.39964C8.61106 5.11815 8.61371 4.53389 8.60947 4.00571C8.60523 3.43807 8.15587 2.96962 7.5788 2.92807L7.52157 2.92392C6.89945 2.91561 6.54441 3.4282 6.55236 4.03739Z" fill="#936760"/>
<path d="M7.93383 6.03064C7.93383 6.03064 7.55706 6.02545 7.17606 5.75071C7.17606 5.75071 7.33344 6.19008 7.93118 6.18021L7.93383 6.03064Z" fill="#6F4C47"/>
<path d="M7.5931 4.24513C7.58144 4.25708 7.51255 4.20255 7.41293 4.19995C7.3133 4.19579 7.23912 4.24513 7.22852 4.23267C7.22322 4.22696 7.23541 4.20566 7.26826 4.18333C7.30006 4.161 7.35411 4.14022 7.41611 4.1423C7.47811 4.14438 7.52951 4.16879 7.55918 4.1932C7.58886 4.21761 7.59893 4.23942 7.5931 4.24513Z" fill="#263238"/>
<path d="M7.49135 4.4456C7.48976 4.48715 7.45214 4.52039 7.40815 4.51935C7.36364 4.51831 7.3292 4.48403 7.33079 4.44248C7.33238 4.40094 7.37 4.3677 7.41398 4.36874C7.45797 4.36926 7.49294 4.40405 7.49135 4.4456Z" fill="#263238"/>
<path d="M7.84269 4.92392C7.84269 4.91872 7.90045 4.91301 7.99318 4.90834C8.0165 4.90782 8.03928 4.9047 8.04405 4.88912C8.05094 4.87302 8.04299 4.84757 8.03345 4.82005C8.01544 4.76292 7.99689 4.70319 7.97728 4.64087C7.89992 4.38587 7.84586 4.1771 7.85593 4.17398C7.86653 4.17087 7.93754 4.37549 8.01491 4.63049C8.03345 4.69333 8.05094 4.75305 8.0679 4.8107C8.07479 4.83719 8.08803 4.86783 8.0732 4.90158C8.06578 4.9182 8.04776 4.92963 8.03239 4.93223C8.01703 4.93586 8.00378 4.93482 7.99212 4.93482C7.89992 4.93275 7.84216 4.92911 7.84269 4.92392Z" fill="#263238"/>
<path d="M7.5507 3.87795C7.54116 3.89977 7.46114 3.88315 7.36576 3.88834C7.27038 3.89094 7.19195 3.91379 7.18082 3.89302C7.17605 3.88315 7.19089 3.86289 7.22321 3.84368C7.25554 3.82446 7.30588 3.80732 7.36311 3.80525C7.42034 3.80317 7.47174 3.81563 7.50513 3.83277C7.53851 3.84887 7.55494 3.86757 7.5507 3.87795Z" fill="#263238"/>
<path d="M8.49659 4.05869C8.48599 4.07634 8.40862 4.05661 8.3143 4.05401C8.21997 4.04934 8.14208 4.06284 8.13201 4.04466C8.12777 4.03584 8.14313 4.02026 8.17599 4.00623C8.20831 3.99221 8.25866 3.9813 8.31536 3.9839C8.37206 3.98598 8.42187 4.00104 8.45366 4.01714C8.48599 4.03324 8.50135 4.05038 8.49659 4.05869Z" fill="#263238"/>
<path d="M6.56878 4.47313C6.55871 4.46793 6.1687 4.32511 6.15227 4.72501C6.13532 5.12439 6.54812 5.05843 6.54971 5.047C6.5513 5.03558 6.56878 4.47313 6.56878 4.47313Z" fill="#936760"/>
<path d="M6.43154 4.89068C6.42995 4.88912 6.42412 4.89535 6.41193 4.90003C6.39975 4.9047 6.37961 4.90782 6.35894 4.89899C6.31655 4.88185 6.28316 4.8133 6.28422 4.74111C6.28475 4.70475 6.29376 4.67048 6.30807 4.64243C6.32185 4.61387 6.34198 4.59413 6.36371 4.59102C6.38544 4.58686 6.40028 4.60037 6.40504 4.61179C6.40981 4.62322 6.40716 4.63101 6.40928 4.63205C6.41034 4.63309 6.41829 4.62581 6.41564 4.6092C6.41405 4.60141 6.40981 4.59154 6.40081 4.58375C6.39127 4.57544 6.37696 4.57076 6.36212 4.5718C6.33033 4.57284 6.30118 4.59985 6.28528 4.63101C6.2678 4.66217 6.25667 4.7006 6.25614 4.74163C6.25561 4.82213 6.29429 4.89951 6.35258 4.91821C6.3812 4.92652 6.40504 4.91924 6.41776 4.91042C6.42995 4.90003 6.4326 4.8912 6.43154 4.89068Z" fill="#6F4C47"/>
<path d="M7.74624 5.20073C7.75048 5.19086 7.67099 5.16697 7.61482 5.09374C7.58673 5.05739 7.57031 5.01792 7.55865 4.98935C7.54699 4.96027 7.53798 4.94209 7.53321 4.94365C7.52897 4.94469 7.53003 4.96442 7.53639 4.9961C7.54328 5.02726 7.55706 5.07193 7.58885 5.11296C7.62012 5.1545 7.66198 5.17943 7.69325 5.19086C7.72398 5.20332 7.74518 5.20384 7.74624 5.20073Z" fill="#263238"/>
<path d="M9.39903 3.48325C9.39267 3.45988 9.37519 3.44067 9.35399 3.4282C9.30736 3.4012 9.25384 3.40483 9.2019 3.40379C9.04399 3.4012 8.88767 3.35394 8.75466 3.27084C8.69266 3.18307 8.62271 3.10049 8.54641 3.02363C8.36624 2.84134 8.21786 2.71774 8.06472 2.65697C7.86653 2.57855 7.53428 2.54687 7.32761 2.60036C7.12095 2.65334 6.93495 2.81797 6.90633 3.02571C6.79028 2.92963 6.61594 2.93015 6.47499 2.98624L6.47128 2.98468C6.31389 3.03973 6.22434 3.20281 6.17824 3.35965C6.1316 3.51701 6.112 3.68528 6.02721 3.82602C6.00919 3.85562 5.98853 3.89094 6.0039 3.92158C6.01608 3.94547 6.04682 3.95482 6.07331 3.95118C6.09981 3.94755 6.12365 3.93301 6.14644 3.91846C6.12895 3.95949 6.11147 4.00104 6.09398 4.04207C6.15068 4.05194 6.21003 4.04726 6.26514 4.03064C6.29853 4.17762 6.33827 4.34589 6.37695 4.4456C6.44266 4.4456 6.50307 4.45027 6.54334 4.48559C6.59845 4.53441 6.62336 4.62529 6.7145 4.59102C6.76114 4.57336 6.80353 4.47728 6.81943 4.43106C6.92276 4.12205 6.9572 3.79122 6.92011 3.46871C6.98529 3.40068 7.06372 3.34511 7.15062 3.30564L7.14373 3.31187C7.31012 3.25526 7.49771 3.19969 7.65563 3.27603C7.77804 3.33524 7.84957 3.45988 7.94125 3.55908C8.11453 3.74708 8.33762 3.84887 8.59569 3.85978C8.6047 4.02389 8.60099 4.25604 8.60999 4.42015L8.75095 4.15736V4.15892C8.76261 4.13971 8.77215 4.12049 8.78116 4.10075L8.78434 4.09504V4.09452C8.79917 4.06336 8.81295 4.0322 8.8315 4.00104C8.83203 4.00156 8.83256 4.00208 8.83309 4.0026C8.9237 4.08102 9.05724 3.96105 8.9857 3.86549C8.97139 3.84628 8.95444 3.82966 8.93536 3.81563C8.97669 3.85355 9.03869 3.87224 9.09274 3.85562C9.14679 3.839 9.18919 3.78551 9.18442 3.72994C9.18124 3.69203 9.15368 3.65827 9.11871 3.64321C9.19184 3.64892 9.26708 3.63334 9.33067 3.59751C9.37201 3.5731 9.41281 3.53467 9.39903 3.48325Z" fill="#263238"/>
<path d="M7.09339 3.09219C7.09445 3.09374 7.06848 3.10777 7.03351 3.14568C6.99907 3.18359 6.96038 3.24955 6.94236 3.33939C6.93283 3.38406 6.927 3.43392 6.927 3.48741C6.927 3.5409 6.93124 3.59855 6.93548 3.65931C6.93972 3.72007 6.94396 3.78395 6.93972 3.85043C6.9376 3.88367 6.93389 3.91743 6.92647 3.95118C6.91905 3.98442 6.91004 4.02026 6.8846 4.04882C6.86447 4.07219 6.83002 4.08258 6.80088 4.07635C6.7712 4.07115 6.74471 4.05557 6.72563 4.03428C6.68748 3.99065 6.67794 3.93508 6.6684 3.88627L6.68112 3.88782C6.66098 3.93197 6.63979 3.97507 6.60852 4.00987C6.57779 4.04467 6.53592 4.06804 6.493 4.07167C6.4718 4.07375 6.45008 4.07011 6.43153 4.06128C6.41298 4.05246 6.39921 4.03688 6.38967 4.0213C6.38066 4.00468 6.37589 3.98702 6.37695 3.96988C6.37801 3.95274 6.3849 3.93612 6.39603 3.9247L6.40239 3.93041C6.35628 3.98182 6.30806 4.00935 6.27468 4.02441C6.25772 4.0322 6.24447 4.03636 6.23493 4.03947C6.22593 4.04207 6.22063 4.04311 6.22063 4.04311C6.22063 4.04259 6.22487 4.04103 6.23387 4.03739C6.24288 4.03376 6.25613 4.02857 6.27203 4.02026C6.30435 4.00416 6.35151 3.97559 6.3955 3.9247L6.40186 3.93041C6.38172 3.95118 6.38066 3.98754 6.39815 4.01714C6.40663 4.03168 6.41934 4.04519 6.43577 4.05298C6.4522 4.06077 6.4718 4.06388 6.49141 4.0618C6.53062 4.05817 6.57037 4.03636 6.59898 4.00312C6.62813 3.96988 6.64826 3.92781 6.6684 3.88367L6.67688 3.86393L6.68059 3.88419C6.69013 3.93301 6.7002 3.9865 6.73517 4.02597C6.75266 4.04467 6.7765 4.05869 6.803 4.06336C6.82896 4.06804 6.85652 4.05973 6.87454 4.03999C6.89679 4.01506 6.9058 3.98131 6.91322 3.94859C6.92064 3.91587 6.92435 3.88263 6.92647 3.84991C6.93071 3.78447 6.92647 3.72111 6.92276 3.66035C6.91905 3.59959 6.91481 3.54194 6.91587 3.48793C6.9164 3.4334 6.92276 3.38302 6.93283 3.33784C6.95243 3.24695 6.99324 3.18047 7.0298 3.14256C7.06636 3.10465 7.09339 3.09219 7.09339 3.09219Z" fill="#455A64"/>
<path d="M8.93324 3.65931C8.93324 3.65931 8.93165 3.66087 8.92847 3.66347C8.92423 3.66658 8.91946 3.6697 8.91364 3.67385C8.90728 3.67853 8.8988 3.68424 8.8882 3.68943C8.87813 3.69515 8.86647 3.70242 8.85217 3.70813C8.79706 3.7341 8.70856 3.75954 8.59781 3.75279C8.48812 3.74656 8.3567 3.70865 8.23906 3.62296C8.12036 3.53934 8.01597 3.41574 7.93065 3.27448C7.8872 3.20384 7.85222 3.13166 7.81354 3.06466C7.77486 2.99766 7.73247 2.93586 7.68053 2.88704C7.62966 2.83823 7.57031 2.80187 7.50937 2.78525C7.47917 2.77642 7.44843 2.77435 7.41876 2.77486C7.38961 2.77642 7.36153 2.78214 7.33609 2.79045C7.28469 2.80706 7.24336 2.83511 7.21209 2.86367C7.18083 2.89224 7.15963 2.92288 7.14479 2.94885C7.11777 3.00234 7.11618 3.03662 7.11406 3.0361C7.11406 3.0361 7.11406 3.03402 7.11459 3.02986C7.11512 3.02519 7.11618 3.01896 7.11724 3.01221C7.11989 2.99663 7.12678 2.97377 7.14003 2.94625C7.1538 2.91924 7.175 2.88756 7.20679 2.85796C7.23859 2.82836 7.28045 2.79927 7.33291 2.7811C7.35941 2.77227 7.38802 2.76604 7.41823 2.76396C7.44843 2.76292 7.48076 2.765 7.51202 2.77383C7.57561 2.79045 7.63655 2.82784 7.68901 2.8777C7.742 2.92755 7.78599 2.99039 7.82467 3.05739C7.86388 3.1249 7.89939 3.19709 7.94231 3.26669C8.0271 3.40691 8.1299 3.52895 8.24648 3.61205C8.362 3.69722 8.49024 3.73513 8.59834 3.74241C8.7075 3.74968 8.79494 3.72631 8.85005 3.70242C8.90569 3.67957 8.93218 3.65775 8.93324 3.65931Z" fill="#455A64"/>
<path d="M8.9873 3.40327C8.98783 3.40431 8.98041 3.40899 8.9661 3.41781C8.95179 3.42664 8.9306 3.43755 8.90304 3.44949C8.87549 3.46144 8.84157 3.47235 8.80289 3.48169C8.7642 3.49052 8.72075 3.49675 8.67518 3.49831C8.62908 3.49935 8.58562 3.49572 8.54641 3.49C8.5072 3.48325 8.47275 3.47442 8.44467 3.46404C8.41658 3.45417 8.39433 3.44482 8.37949 3.43651C8.36465 3.42872 8.3567 3.42405 8.35723 3.42353C8.35829 3.42145 8.39115 3.43755 8.44785 3.45521C8.47593 3.46404 8.51038 3.47183 8.54853 3.47806C8.58721 3.48325 8.62961 3.48637 8.67465 3.48533C8.71969 3.48377 8.76208 3.47806 8.80024 3.47027C8.83839 3.46196 8.87178 3.45209 8.89933 3.44118C8.95444 3.41989 8.98571 3.4012 8.9873 3.40327Z" fill="#455A64"/>
<path d="M8.50083 4.28149C8.48917 4.29343 8.42028 4.2389 8.32066 4.2363C8.22104 4.23215 8.14685 4.28149 8.13625 4.26902C8.13095 4.26331 8.14314 4.24202 8.17599 4.21968C8.20779 4.19735 8.26184 4.17658 8.32384 4.17866C8.38584 4.18073 8.43724 4.20514 8.46691 4.22955C8.49712 4.25396 8.50666 4.27629 8.50083 4.28149Z" fill="#263238"/>
<path d="M8.36041 4.46689C8.35882 4.50844 8.3212 4.54168 8.27722 4.54064C8.23271 4.5396 8.19826 4.50533 8.19985 4.46378C8.20144 4.42223 8.23906 4.38899 8.28305 4.39003C8.32756 4.39055 8.362 4.42535 8.36041 4.46689Z" fill="#263238"/>
<path d="M6.53539 6.16048L5.82319 6.45183C5.38178 6.63257 4.99706 6.92963 4.72946 7.3181C4.66587 7.41055 4.46397 8.12153 4.44913 8.18022C4.39031 8.41392 4.29387 8.81589 4.29387 8.81589H9.95225C9.95225 8.81589 9.78533 7.23137 9.38207 6.92548C9.12029 6.72657 7.9227 6.18489 7.9227 6.18489C7.9227 6.18489 7.80718 6.47468 7.43783 6.48403C6.87718 6.49754 6.53539 6.16048 6.53539 6.16048Z" fill="#FFBE3B"/>
</g>
<defs>
<clipPath id="clip0_136_20528">
<rect width="27" height="22" fill="white"/>
</clipPath>
</defs>
</svg>
