<svg width="14" height="24" viewBox="0 0 14 24" fill="none" xmlns="http://www.w3.org/2000/svg">
<path d="M9.41584 5.46379C9.36835 5.52041 9.299 5.54131 9.23214 5.54872C9.16529 5.55614 9.09781 5.55209 9.0322 5.5676C8.9666 5.58377 8.90099 5.62422 8.87038 5.69567C8.83976 5.76779 8.8535 5.86148 8.89662 5.92349C8.93973 5.98618 9.00846 6.01853 9.07594 6.01921L9.41521 5.86687V5.46379" fill="#EB996E"/>
<path d="M9.07594 4.48441C9.08719 4.52081 9.07594 5.99157 9.07594 5.99157L8.29555 8.193C8.25119 8.3177 8.33679 8.45116 8.4605 8.45116H10.6417C10.7711 8.45116 10.8567 8.30624 10.8017 8.17952L9.83634 5.96798V4.48508H9.07594V4.48441Z" fill="#EBEBEB"/>
<path d="M9.07595 4.48441C9.07595 4.48441 9.0797 4.48374 9.08782 4.48374C9.09719 4.48374 9.10907 4.48306 9.12469 4.48306C9.15905 4.48239 9.20779 4.48171 9.27089 4.48104C9.40211 4.47969 9.59267 4.47767 9.83635 4.47565H9.84447V4.48441C9.84572 4.86187 9.84697 5.36875 9.84885 5.96731L9.8476 5.96124C10.0407 6.40139 10.2594 6.90153 10.4968 7.44279C10.5561 7.57827 10.6167 7.71645 10.678 7.85665C10.7086 7.92675 10.7398 7.99753 10.7711 8.06897C10.7867 8.1047 10.8023 8.1411 10.8179 8.17682C10.8342 8.21659 10.8392 8.26175 10.8304 8.30422C10.8136 8.38982 10.7423 8.46127 10.6592 8.46666C10.5811 8.46868 10.5074 8.46733 10.4305 8.46801C10.2781 8.46801 10.1238 8.46801 9.96819 8.46801C9.56581 8.46801 9.17405 8.46801 8.79666 8.46733C8.70231 8.46733 8.60922 8.46733 8.51674 8.46733C8.493 8.46666 8.47176 8.46801 8.44676 8.46666C8.42177 8.46464 8.3974 8.4579 8.37491 8.44576C8.32992 8.42217 8.29556 8.37903 8.27994 8.32848C8.26307 8.27928 8.26682 8.22131 8.28556 8.17547C8.30181 8.13031 8.31743 8.08583 8.33305 8.04134C8.36429 7.95304 8.39553 7.86541 8.42614 7.77914C8.67232 7.09026 8.88976 6.48025 9.06596 5.98618L9.06533 5.99022C9.0697 5.51974 9.07283 5.14295 9.07533 4.88277C9.0772 4.62528 9.07595 4.48441 9.07595 4.48441C9.07595 4.48441 9.07783 4.49385 9.0797 4.51002C9.08033 4.5289 9.08158 4.55451 9.08282 4.58686C9.0847 4.65427 9.08595 4.7547 9.0872 4.88412C9.08907 5.14295 9.08907 5.51974 9.0872 5.99157V5.99359L9.08657 5.99562C8.91225 6.48969 8.69731 7.10105 8.45426 7.79127C8.42365 7.87755 8.39303 7.96517 8.36179 8.05414C8.34617 8.09863 8.33055 8.14312 8.3143 8.18828C8.29743 8.23074 8.29493 8.27591 8.3093 8.31837C8.32305 8.36016 8.35179 8.39656 8.38928 8.41678C8.42615 8.43902 8.46988 8.43498 8.51737 8.43498C8.60984 8.43498 8.70294 8.43498 8.79728 8.43498C9.17467 8.43498 9.56643 8.43498 9.96881 8.43431C10.1244 8.43431 10.2787 8.43431 10.4312 8.43431C10.5068 8.43363 10.5843 8.43565 10.6567 8.43363C10.7261 8.42891 10.7854 8.3696 10.7998 8.29815C10.8073 8.26242 10.8029 8.22535 10.7898 8.19165C10.7742 8.15593 10.7586 8.1202 10.7436 8.08448C10.7123 8.01303 10.6817 7.94225 10.6511 7.87215C10.5899 7.73128 10.5299 7.5931 10.4705 7.45762C10.235 6.91501 10.0175 6.41487 9.82573 5.97405L9.82448 5.97135V5.96798C9.82635 5.36943 9.82823 4.86255 9.82885 4.48508L9.83698 4.49385C9.59642 4.49182 9.40773 4.4898 9.27714 4.48845C9.21341 4.48778 9.16405 4.48711 9.12906 4.48643C9.11282 4.48643 9.10032 4.48576 9.09032 4.48576C9.08095 4.48508 9.07658 4.48508 9.07595 4.48441Z" fill="#263238"/>
<path d="M11.066 5.08296C11.0854 5.11464 11.101 5.14497 11.1085 5.17261C11.1085 5.17261 11.539 5.70443 11.574 5.84396C11.609 5.98416 12.2606 7.13138 12.2606 7.13138L11.3534 7.57895C11.3534 7.57895 11.0279 7.17317 11.016 7.01949C11.016 7.01949 10.5505 7.03769 10.4812 6.92378C10.4112 6.80986 10.3418 6.65618 10.3418 6.65618C10.3418 6.65618 10.2369 6.64202 10.1675 6.58608C10.0975 6.53013 9.98132 6.32051 9.98132 6.32051C9.98132 6.32051 9.79513 6.27871 9.76014 6.21535C9.72515 6.15267 9.63205 5.92889 9.63205 5.92889C9.63205 5.92889 9.34151 6.25041 9.23654 6.21535C9.13157 6.1803 8.92226 6.01247 9.13157 5.80284C9.2909 5.64309 9.60456 5.33034 9.74577 5.18946C9.79325 5.14228 9.84949 5.10992 9.90947 5.09442L10.668 4.90367C10.8179 4.86525 10.9741 4.93467 11.066 5.08296Z" fill="#FFBE9D"/>
<path d="M9.63079 5.92821C9.62766 5.92417 9.67702 5.87766 9.74825 5.79273C9.78637 5.74757 9.82823 5.69701 9.87321 5.64309C9.89696 5.61478 9.92195 5.58512 9.94882 5.55614C9.96256 5.54131 9.97693 5.52648 9.99255 5.51233C10.0001 5.50491 10.0094 5.49817 10.0188 5.4921C10.0307 5.48536 10.0407 5.48199 10.05 5.4793C10.205 5.42672 10.3456 5.38156 10.448 5.35055C10.5505 5.31955 10.6142 5.30202 10.6155 5.30674C10.6167 5.31146 10.5555 5.33707 10.4549 5.37415C10.3543 5.41122 10.215 5.46042 10.06 5.513C10.0244 5.52109 9.99943 5.55412 9.97131 5.58108C9.94444 5.60939 9.91945 5.63837 9.89508 5.66601C9.84697 5.72128 9.80323 5.77048 9.76512 5.81093C9.68889 5.89114 9.63329 5.93158 9.63079 5.92821Z" fill="#EB996E"/>
<path d="M10.0257 6.37106C10.0238 6.37173 10.0157 6.35623 10.0082 6.32522C10.0007 6.29422 9.99568 6.24703 10.0051 6.18907C10.0144 6.13245 10.0407 6.06369 10.0956 6.01179C10.1494 5.95854 10.2237 5.92686 10.2987 5.89923C10.4493 5.84261 10.5899 5.80553 10.6923 5.78329C10.7948 5.76105 10.8592 5.75296 10.8598 5.75768C10.8604 5.7624 10.7979 5.77925 10.6973 5.80756C10.5967 5.83587 10.4587 5.87631 10.3093 5.93293C10.2344 5.96056 10.165 5.99022 10.115 6.03673C10.065 6.08257 10.0388 6.14256 10.0269 6.19513C10.0051 6.30163 10.0325 6.37038 10.0257 6.37106Z" fill="#EB996E"/>
<path d="M10.3587 6.68449C10.3562 6.68786 10.3325 6.63056 10.3674 6.549C10.3843 6.50991 10.4162 6.46745 10.4605 6.43577C10.5049 6.40341 10.5593 6.38184 10.6161 6.36432C10.8417 6.29354 11.026 6.24366 11.0285 6.2531C11.031 6.26254 10.8504 6.32724 10.6255 6.39802C10.5699 6.41554 10.518 6.43509 10.4768 6.4634C10.4349 6.49036 10.4056 6.52609 10.3874 6.56046C10.3512 6.62989 10.3643 6.68449 10.3587 6.68449Z" fill="#EB996E"/>
<path d="M10.8842 7.01342C10.886 7.00331 10.9816 7.0141 11.0991 7.02421C11.2172 7.03499 11.3128 7.04106 11.3128 7.05117C11.3128 7.0606 11.2159 7.07004 11.096 7.05926C10.9773 7.04915 10.8829 7.02286 10.8842 7.01342Z" fill="#EB996E"/>
<path d="M8.95287 6.65752L8.42866 8.15862C8.40241 8.23344 8.45427 8.31365 8.52863 8.3123L10.5462 8.28871C10.6224 8.28804 10.6724 8.20311 10.6411 8.12829L10.0257 6.65752H8.95287Z" fill="#FF725E"/>
<path d="M7.63765 18.032L7.38522 16.5491L7.41959 16.2215L7.32649 16.2047L6.49424 11.3199L4.5317 8.59203L2.86657 6.38656L2.53666 7.26417C2.53666 7.26417 0.861537 8.82593 0.703459 9.06589C0.704709 9.06521 0.70221 9.06656 0.703459 9.06589C0.703459 9.06589 0.250469 9.78711 0.18049 10.5481C0.152998 10.8467 0.840293 16.4312 0.91777 16.6826C0.975878 16.872 1.50697 17.2744 1.88248 17.515C1.83312 19.1685 1.69441 23.9825 1.76752 23.9825L8.24434 23.9649L7.63765 18.032Z" fill="#D5D5D5"/>
<path d="M6.72227 10.1963C6.72227 10.1963 6.47235 8.89333 6.49234 8.85289C6.51233 8.81245 5.92813 7.2736 5.92813 7.2736C5.92813 7.2736 5.73257 6.56923 5.73257 6.57192C5.73257 6.57462 3.06461 6.08459 3.06461 6.08459L2.93527 6.51935L6.49296 11.3691L6.85723 13.4505L7.23399 12.883L6.72227 10.1963Z" fill="#DB9A2B"/>
<path d="M9.10283 19.9996L8.52363 12.4873L8.04877 9.55592C7.98504 8.97152 7.15154 7.81688 7.15154 7.81688L6.23306 7.51626C6.23306 7.51626 5.85692 7.01747 5.8363 6.94467L6.49236 8.75178L6.72229 10.1956L6.86537 13.5085L7.62265 17.9545L8.24559 23.9811L9.90447 23.969L9.10283 19.9996Z" fill="#D5D5D5"/>
<path d="M6.92223 11.2478L7.23339 8.78346L6.23306 7.51694L5.8363 6.94535L6.45174 8.85357L6.92223 11.2478Z" fill="#D5D5D5"/>
<path d="M7.08343 9.75139C7.07656 9.75341 7.12904 9.99337 7.20027 10.2879C7.2715 10.5825 7.33461 10.8191 7.34148 10.8177C7.34835 10.8157 7.29587 10.5757 7.22464 10.2812C7.15341 9.98663 7.0903 9.74937 7.08343 9.75139Z" fill="#263238"/>
<path d="M7.8863 11.417C7.90379 11.5282 7.88442 11.6387 7.84881 11.7297C7.81319 11.8207 7.72072 11.9259 7.63137 11.9454C7.63137 11.9454 7.41519 12.0276 7.24711 11.8571C7.09466 11.7021 6.97532 11.3253 7.00656 11.0732C7.02843 10.9 7.12652 10.7173 7.2821 10.6688C7.48641 10.6054 7.65449 10.7301 7.73759 10.8797" fill="#E0E0E0"/>
<path d="M7.73697 10.8797C7.73697 10.8797 7.72198 10.8386 7.67262 10.7813C7.64762 10.753 7.61451 10.7213 7.5689 10.6937C7.52391 10.6661 7.46643 10.6452 7.40082 10.6425C7.36833 10.6411 7.33334 10.6438 7.29898 10.6533C7.26399 10.6613 7.22837 10.6755 7.19588 10.6984C7.13028 10.7436 7.07654 10.8157 7.04031 10.9C7.00344 10.9842 6.98532 11.0833 6.98907 11.1837C6.99219 11.2848 7.01031 11.3873 7.04031 11.4884C7.08779 11.6434 7.15465 11.7931 7.26461 11.8901C7.3196 11.9373 7.38645 11.9643 7.45018 11.973C7.51454 11.9818 7.57702 11.9744 7.63388 11.9555L7.63263 11.9562C7.68012 11.9447 7.71823 11.9164 7.75072 11.8868C7.78258 11.8564 7.8082 11.8227 7.8282 11.789C7.86818 11.7196 7.88255 11.6502 7.8913 11.5942C7.89942 11.5376 7.89755 11.4924 7.89443 11.4628C7.89255 11.448 7.8913 11.4365 7.88943 11.4284C7.88755 11.421 7.88693 11.417 7.8863 11.417C7.88256 11.417 7.89818 11.481 7.88006 11.5922C7.87006 11.6461 7.85381 11.7149 7.81445 11.7796C7.79446 11.8119 7.76946 11.8436 7.73885 11.8719C7.70823 11.8996 7.67137 11.9252 7.6295 11.9346H7.62888L7.62763 11.9353C7.52329 11.969 7.38458 11.9609 7.28023 11.8706C7.17776 11.7796 7.11091 11.6326 7.06467 11.481C7.00657 11.2842 6.98907 11.0745 7.06155 10.9107C7.09529 10.8299 7.1459 10.7611 7.20713 10.718C7.23775 10.6964 7.27024 10.6822 7.30335 10.6742C7.33647 10.6647 7.36896 10.662 7.4002 10.662C7.46268 10.6634 7.51829 10.6822 7.56203 10.7072C7.60639 10.7321 7.64013 10.7618 7.66512 10.7887C7.71635 10.8427 7.7351 10.8811 7.73697 10.8797Z" fill="#263238"/>
<path d="M7.99814 11.3961C8.01564 11.5073 7.99627 11.6178 7.96065 11.7088C7.92504 11.7998 7.83257 11.905 7.74322 11.9245C7.74322 11.9245 7.52703 12.0067 7.35896 11.8362C7.2065 11.6812 7.08716 11.3044 7.1184 11.0523C7.14027 10.8791 7.23837 10.6964 7.39395 10.6479C7.59826 10.5845 7.76634 10.7092 7.84944 10.8588" fill="#E0E0E0"/>
<path d="M7.84943 10.8588C7.84943 10.8588 7.83443 10.8177 7.78507 10.7604C7.76008 10.7321 7.72697 10.7004 7.68136 10.6728C7.63637 10.6452 7.57889 10.6243 7.51328 10.6216C7.48079 10.6202 7.4458 10.6229 7.41143 10.6324C7.37645 10.6405 7.34083 10.6546 7.30834 10.6775C7.24274 10.7227 7.189 10.7948 7.15276 10.8791C7.1159 10.9633 7.09778 11.0624 7.10153 11.1628C7.10465 11.2639 7.12277 11.3664 7.15276 11.4675C7.20025 11.6225 7.2671 11.7722 7.37707 11.8692C7.43205 11.9164 7.49891 11.9434 7.56264 11.9521C7.62699 11.9609 7.68948 11.9535 7.74633 11.9346L7.74509 11.9353C7.79257 11.9238 7.83069 11.8955 7.86318 11.8659C7.89504 11.8355 7.92066 11.8018 7.94065 11.7681C7.98064 11.6987 7.99501 11.6293 8.00376 11.5733C8.01188 11.5167 8.01001 11.4715 8.00688 11.4419C8.00501 11.4271 8.00376 11.4156 8.00188 11.4075C8.00001 11.4001 7.99938 11.3961 7.99876 11.3961C7.99501 11.3961 8.01063 11.4601 7.99251 11.5713C7.98251 11.6252 7.96627 11.694 7.92691 11.7587C7.90691 11.791 7.88192 11.8227 7.8513 11.851C7.82069 11.8787 7.78382 11.9043 7.74196 11.9137H7.74134L7.74009 11.9144C7.63574 11.9481 7.49704 11.94 7.39269 11.8497C7.29022 11.7587 7.22337 11.6117 7.17713 11.4601C7.11902 11.2633 7.10153 11.0536 7.17401 10.8905C7.20775 10.8096 7.25836 10.7409 7.31959 10.6977C7.3502 10.6762 7.38269 10.662 7.41581 10.6539C7.44892 10.6445 7.48141 10.6418 7.51265 10.6418C7.57514 10.6431 7.63074 10.662 7.67448 10.687C7.71884 10.7119 7.75258 10.7416 7.77758 10.7685C7.82818 10.8218 7.84693 10.8609 7.84943 10.8588Z" fill="#263238"/>
<path d="M7.65511 10.8528C7.75196 10.8022 7.87567 10.8481 7.94377 10.9384C8.01188 11.0287 8.03125 11.152 8.0225 11.268C8.01813 11.3266 8.00688 11.3866 7.98064 11.4378C7.9544 11.4897 7.91128 11.5336 7.8588 11.5504C7.78132 11.5747 7.6976 11.5369 7.63574 11.4817C7.5364 11.392 7.47579 11.2532 7.47641 11.113C7.47641 11.0193 7.51453 10.9128 7.59763 10.8872" fill="#E0E0E0"/>
<path d="M7.59827 10.8872C7.59827 10.8865 7.59139 10.8872 7.57952 10.8919C7.56765 10.8966 7.55078 10.906 7.53329 10.9249C7.4983 10.9606 7.46581 11.0348 7.46831 11.1285C7.46956 11.2208 7.49892 11.3334 7.57202 11.4291C7.60826 11.4763 7.6545 11.5208 7.71261 11.5477C7.76947 11.5753 7.84382 11.5828 7.90442 11.5437C7.96441 11.5059 8.00065 11.4405 8.01814 11.3758C8.03564 11.3105 8.03876 11.2457 8.03626 11.1844C8.03064 11.0617 7.9844 10.9519 7.91567 10.8925C7.84757 10.8326 7.77259 10.8204 7.72573 10.8265C7.70136 10.8292 7.68387 10.8366 7.67262 10.8413C7.66137 10.8474 7.65575 10.8508 7.65637 10.8521C7.65762 10.8548 7.68074 10.84 7.72698 10.8373C7.77196 10.8346 7.84257 10.8494 7.90505 10.9074C7.96753 10.9647 8.00939 11.0685 8.01377 11.1858C8.01564 11.2444 8.01189 11.3071 7.99565 11.3677C7.9794 11.4277 7.94566 11.4864 7.89318 11.5194C7.84132 11.5531 7.77634 11.5477 7.72385 11.5228C7.67012 11.4978 7.62638 11.4567 7.59139 11.4122C7.52141 11.3219 7.49142 11.2154 7.48767 11.1271C7.4833 11.0381 7.51142 10.9674 7.54203 10.9316C7.5714 10.8952 7.59952 10.8898 7.59827 10.8872Z" fill="#263238"/>
<path d="M7.61951 11.7479C7.62325 11.7479 7.6245 11.7297 7.63575 11.7048C7.64637 11.6798 7.66887 11.6495 7.70198 11.6273C7.7351 11.605 7.77071 11.5929 7.79633 11.5834C7.82195 11.574 7.83819 11.5673 7.83694 11.5632C7.83632 11.5598 7.81882 11.5598 7.79195 11.5646C7.76509 11.5693 7.72635 11.5794 7.68886 11.6043C7.65075 11.6299 7.627 11.6677 7.61888 11.698C7.61076 11.729 7.61638 11.7486 7.61951 11.7479Z" fill="#263238"/>
<path d="M7.36584 10.8609C7.36396 10.8636 7.37709 10.877 7.40395 10.8892C7.43019 10.902 7.46956 10.9114 7.51392 10.908C7.55766 10.9047 7.59577 10.8878 7.61951 10.8716C7.64388 10.8548 7.65513 10.84 7.65263 10.8373C7.64825 10.8305 7.59265 10.875 7.51142 10.8811C7.43019 10.8885 7.36896 10.8534 7.36584 10.8609Z" fill="#263238"/>
<path d="M5.42141 12.6922C5.29395 12.7313 5.15211 12.6309 5.0284 12.6821C4.93655 12.7206 4.88657 12.8473 4.92468 12.945C4.9628 13.0427 5.08214 13.0933 5.17148 13.0488C5.29895 12.9861 5.32644 12.7913 5.4464 12.7138" fill="#263238"/>
<path d="M4.3861 13.1816C4.42358 13.1681 4.46232 13.1513 4.50106 13.1297L4.48044 13.0859C4.33236 13.1674 4.19303 13.1856 4.06619 13.1398C3.90686 13.0825 3.76878 12.9288 3.65631 12.6828L3.65194 12.6734C3.60695 12.5763 2.98401 10.5737 2.86967 10.1922C2.69098 9.59636 3.15146 9.34561 3.17083 9.3355C3.18958 9.32472 3.60633 9.0915 4.03558 9.66039C4.48482 10.2562 5.27021 11.4331 5.34269 11.578C5.35143 11.5956 5.36331 11.6171 5.37705 11.6428C5.47702 11.8254 5.68446 12.2063 5.50201 12.5311C5.29832 12.8931 5.04465 12.8688 5.03403 12.8682L5.02903 12.9174C5.0409 12.9187 5.32144 12.9477 5.54075 12.5568C5.73757 12.2069 5.52013 11.8092 5.41579 11.6178C5.40267 11.5936 5.3908 11.572 5.38205 11.5551C5.30957 11.4089 4.52043 10.2273 4.06994 9.63006C3.6157 9.02814 3.15334 9.28967 3.14896 9.29237C3.14459 9.29439 2.63412 9.57142 2.82531 10.2084C2.91966 10.5225 3.56259 12.5932 3.61008 12.6963L3.61445 12.7057C3.73254 12.9639 3.87937 13.1263 4.0512 13.1877C4.15679 13.2247 4.26863 13.2227 4.3861 13.1816Z" fill="#263238"/>
<path d="M2.9634 10.5845C2.96965 10.5845 2.9459 10.48 2.98402 10.3189C3.00276 10.2394 3.039 10.1477 3.09586 10.0581C3.15334 9.96911 3.23269 9.88215 3.33266 9.81812C3.53385 9.68803 3.75816 9.67455 3.90687 9.70286C4.0587 9.73049 4.14055 9.78981 4.14305 9.78374C4.14367 9.78307 4.13867 9.77903 4.12868 9.77296C4.11868 9.76689 4.10493 9.75611 4.08494 9.74667C4.0462 9.7251 3.98684 9.70084 3.90999 9.68466C3.83376 9.66781 3.73942 9.66174 3.63632 9.67725C3.53385 9.69207 3.42264 9.72915 3.32017 9.79588C3.21707 9.86261 3.13585 9.95225 3.07774 10.0446C3.02026 10.1376 2.98527 10.2327 2.96777 10.3149C2.9509 10.3971 2.94903 10.4666 2.9534 10.5131C2.95403 10.5367 2.9584 10.5542 2.95965 10.567C2.9609 10.5784 2.96215 10.5845 2.9634 10.5845Z" fill="#263238"/>
<path d="M2.5354 7.26417L4.62228 10.054L6.49235 11.3199L2.86468 6.38656L2.5354 7.26417Z" fill="#D5D5D5"/>
<path d="M2.63599 10.9114C2.62725 10.9155 2.56914 10.7847 2.47479 10.5757C2.37919 10.3681 2.24736 10.0776 2.03867 9.80801C1.82998 9.53907 1.57318 9.36584 1.37262 9.29439C1.1708 9.21957 1.03459 9.22833 1.03522 9.21485C1.03522 9.21081 1.06833 9.20407 1.13019 9.20407C1.19142 9.20339 1.28077 9.21418 1.38699 9.24653C1.60005 9.30854 1.87309 9.48312 2.08928 9.76217C2.30484 10.0412 2.4323 10.3405 2.51728 10.5548C2.601 10.7705 2.64412 10.9074 2.63599 10.9114Z" fill="#263238"/>
<path d="M2.07741 15.6048C2.06367 15.596 2.26548 15.3304 2.62287 15.1855C2.97839 15.0359 3.2933 15.0878 3.2883 15.104C3.28893 15.1262 2.98527 15.108 2.64599 15.2516C2.30547 15.3898 2.09116 15.6216 2.07741 15.6048Z" fill="#263238"/>
<path d="M2.47353 16.0422C2.45729 16.0402 2.53914 15.7254 2.79469 15.4464C3.04774 15.1646 3.33765 15.0703 3.34015 15.0878C3.3489 15.108 3.08273 15.2273 2.84155 15.4963C2.59787 15.7618 2.49228 16.0517 2.47353 16.0422Z" fill="#263238"/>
<path d="M6.49233 11.3199C6.49046 11.3233 6.43985 11.2936 6.34737 11.235C6.24803 11.1703 6.11619 11.0853 5.95499 10.9808C5.61384 10.7537 5.14711 10.443 4.60602 10.0823L4.60164 10.0796L4.59852 10.0749C4.40358 9.81542 4.19177 9.533 3.97121 9.23912C3.39388 8.46734 2.87653 7.76903 2.51789 7.279L2.50977 7.26754L2.51477 7.25473C2.61848 6.99051 2.70346 6.77481 2.76594 6.61506C2.79406 6.54631 2.8178 6.49037 2.83654 6.44386C2.85341 6.40544 2.86279 6.38521 2.86528 6.38589C2.86716 6.38656 2.86154 6.40813 2.84842 6.44857C2.83217 6.49643 2.8128 6.5544 2.78843 6.6245C2.73033 6.78627 2.65222 7.00466 2.556 7.27226L2.55288 7.24799C2.92089 7.72926 3.44449 8.42217 4.02244 9.19395C4.24175 9.48851 4.45294 9.77094 4.64726 10.0318L4.63976 10.0244C5.17585 10.3931 5.63821 10.7119 5.97623 10.9444C6.13369 11.0557 6.2624 11.1467 6.35925 11.2154C6.44734 11.2808 6.49421 11.3165 6.49233 11.3199Z" fill="#263238"/>
<path d="M6.79724 11.8443C6.79287 11.8436 6.79787 11.7796 6.81037 11.663C6.82536 11.5342 6.84473 11.3684 6.86847 11.1682C6.92033 10.749 6.99656 10.1666 7.08591 9.51143L7.08966 9.533C7.05029 9.45346 7.00781 9.36921 6.96532 9.28428C6.64541 8.64326 6.35987 8.06089 6.15556 7.63759C6.05871 7.43403 5.97874 7.26484 5.91688 7.13475C5.8619 7.01545 5.83316 6.94804 5.8369 6.94602C5.84065 6.944 5.87689 7.00668 5.93875 7.12195C6.0056 7.24934 6.09183 7.41515 6.19617 7.614C6.41048 8.03123 6.70352 8.60956 7.0228 9.25125C7.06529 9.33618 7.10715 9.42043 7.14652 9.49997L7.15151 9.51008L7.14964 9.52154C7.05842 10.1767 6.97469 10.7577 6.91096 11.175C6.87972 11.3738 6.85348 11.5383 6.83286 11.6663C6.81411 11.7816 6.80099 11.845 6.79724 11.8443Z" fill="#263238"/>
<path d="M2.9684 9.42582C2.7997 9.1252 2.62537 8.81447 2.49791 8.48014L2.47542 8.4215C2.34796 8.0892 2.203 7.71173 2.26423 7.34775L2.26611 7.33831C2.29485 7.18193 2.37607 7.03836 2.49541 6.93119L2.5304 6.89951L2.63412 6.90018L2.6335 7.11048L2.65599 7.14014C2.64787 7.14756 2.64037 7.15497 2.63287 7.16239V7.17182H2.6235C2.56477 7.23586 2.5254 7.31337 2.51166 7.39426L2.51041 7.40235C2.4648 7.68679 2.59351 8.02179 2.70723 8.3177L2.72972 8.37634C2.84968 8.69112 3.01901 8.99241 3.18208 9.2836L2.9684 9.42582Z" fill="#263238"/>
<path d="M5.9575 20.8886C5.95999 20.8927 5.93 20.9237 5.87252 20.9769C5.81504 21.0302 5.73006 21.105 5.62384 21.1953C5.41078 21.3753 5.10962 21.6186 4.75035 21.8431C4.56978 21.9543 4.39171 22.048 4.22489 22.1221C4.05681 22.1929 3.90248 22.2482 3.7694 22.2805C3.63693 22.3142 3.52759 22.3338 3.45199 22.3392C3.37639 22.3466 3.33452 22.3479 3.3339 22.3432C3.33265 22.3304 3.49948 22.3108 3.75815 22.232C3.88811 22.1942 4.03806 22.1349 4.20239 22.0621C4.36484 21.9853 4.54042 21.8916 4.71849 21.7817C5.07401 21.56 5.37704 21.3247 5.59698 21.1555C5.81504 20.9857 5.95187 20.8805 5.9575 20.8886Z" fill="#263238"/>
<path d="M6.14932 21.4177C6.15307 21.4204 6.1287 21.4595 6.08184 21.5276C6.0356 21.5964 5.96188 21.6901 5.8644 21.7992C5.67009 22.0183 5.36705 22.2906 4.98654 22.5097C4.60541 22.7281 4.22677 22.8474 3.94998 22.8986C3.81127 22.9249 3.69818 22.9391 3.61945 22.9417C3.54072 22.9458 3.49761 22.9458 3.49699 22.9411C3.49574 22.9283 3.66881 22.9141 3.9406 22.8494C4.2124 22.786 4.58104 22.6613 4.95593 22.447C5.32957 22.2313 5.63197 21.9711 5.83192 21.7635C6.03248 21.5566 6.14057 21.4096 6.14932 21.4177Z" fill="#263238"/>
<path d="M3.45949 22.9896C3.44137 22.9916 3.41075 22.8251 3.39138 22.6175C3.37201 22.4099 3.37076 22.2407 3.38888 22.2387C3.407 22.2367 3.43699 22.4032 3.45699 22.6108C3.47573 22.8177 3.47698 22.9876 3.45949 22.9896Z" fill="#263238"/>
<path d="M12.26 7.13138C12.26 7.13138 13.026 9.17441 13.0879 9.69881C13.1504 10.2232 13.171 10.7099 13.171 10.7099L12.26 11.3961L11.449 10.3479L11.3528 7.57962L12.26 7.13138Z" fill="#FFBE9D"/>
<path d="M12.7642 7.57895C12.7642 7.57895 13.1472 9.47638 13.1716 9.54985C13.196 9.62265 13.3434 10.1754 13.3434 10.1754V11.1756C13.3434 11.1756 13.3003 11.9987 12.8236 12.1658C12.3469 12.3323 10.6349 12.1375 10.6349 12.1375C10.6349 12.1375 9.96382 11.9879 9.81636 11.9562C9.66891 11.9252 8.20497 11.2882 8.20497 11.2882L7.06531 7.8034L7.65076 7.90383L9.8601 9.26405C9.8601 9.26405 10.0407 9.17508 10.1238 9.21687C10.2069 9.25866 11.314 9.61254 11.314 9.61254C11.314 9.61254 10.9716 7.79262 11.0298 7.80273C11.0879 7.81284 12.7642 7.57895 12.7642 7.57895Z" fill="#D5D5D5"/>
<path d="M8.29994 23.9643C8.29931 23.9643 8.29869 23.9589 8.29744 23.9481C8.29619 23.9353 8.29494 23.9191 8.29369 23.9002C8.29119 23.8551 8.28682 23.7937 8.28244 23.7156C8.2737 23.5551 8.2587 23.3233 8.23621 23.0368C8.21496 22.7503 8.1831 22.4099 8.14561 22.0318C8.10625 21.6543 8.05876 21.2398 8.00565 20.8044C7.89818 19.9348 7.79446 19.1476 7.72761 18.5773C7.69387 18.2922 7.66763 18.061 7.65201 17.9013C7.64451 17.8237 7.63826 17.7624 7.63389 17.7172C7.63201 17.6977 7.63076 17.6822 7.63014 17.6694C7.62951 17.6586 7.62951 17.6532 7.63014 17.6532C7.63076 17.6532 7.63201 17.6586 7.63389 17.6694C7.63576 17.6822 7.63826 17.6977 7.64076 17.7172C7.64638 17.7617 7.65451 17.8231 7.66513 17.9006C7.68575 18.063 7.71511 18.2929 7.75135 18.5753C7.82383 19.1449 7.9313 19.9308 8.03877 20.801C8.09188 21.2357 8.13874 21.651 8.17622 22.0291C8.21246 22.4072 8.24183 22.7483 8.25995 23.0354C8.27869 23.3226 8.29119 23.5551 8.29556 23.7156C8.29806 23.7937 8.29931 23.8558 8.30119 23.9009C8.30119 23.9205 8.30181 23.936 8.30181 23.9488C8.30119 23.9589 8.30056 23.9643 8.29994 23.9643Z" fill="#263238"/>
<path d="M1.59944 8.13301C1.59944 8.13301 1.58944 8.1438 1.57007 8.16402C1.54945 8.18491 1.52009 8.21457 1.48072 8.25366C1.40137 8.33253 1.28453 8.44846 1.13333 8.59877C1.05835 8.67494 0.970876 8.75583 0.882152 8.85222C0.794053 8.94928 0.707204 9.06454 0.628478 9.19935C0.549126 9.33416 0.484771 9.49121 0.416666 9.65837C0.349811 9.82621 0.284205 10.0062 0.23297 10.2023C0.207978 10.3001 0.186734 10.4025 0.180486 10.5083C0.176113 10.5616 0.18111 10.6142 0.188608 10.6688C0.195481 10.7234 0.202354 10.778 0.209852 10.8339C0.237968 11.0563 0.26796 11.2889 0.298576 11.5309C0.359808 12.0142 0.426037 12.5352 0.496017 13.0879C0.635975 14.194 0.792803 15.4309 0.960878 16.7621L0.954631 16.7513C1.20393 16.9529 1.46136 17.1564 1.72815 17.3553C1.86249 17.453 1.99807 17.5555 2.14365 17.6337C2.3011 17.6862 2.46043 17.7388 2.62039 17.7914C3.26332 18.0084 3.92687 18.2282 4.60854 18.4344C5.03716 18.5625 5.46204 18.6858 5.88441 18.7883C6.0956 18.8382 6.30554 18.8867 6.51548 18.9224C6.72479 18.9615 6.93473 18.9844 7.14154 18.9851L7.12654 19.0006C7.22714 18.0334 7.32336 17.1066 7.41333 16.2337L7.42583 16.2512C6.1081 16.0092 4.92345 15.7908 3.9175 15.6061L3.91437 15.6055L3.91187 15.6028C3.71506 15.41 3.53136 15.2293 3.34392 15.0784L3.34017 15.0757L3.33954 15.0709C3.18522 14.037 3.06213 13.214 2.97778 12.6484C2.93717 12.3667 2.9053 12.149 2.88406 12.0007C2.86344 11.8551 2.85282 11.7735 2.85594 11.7796C2.86906 11.8652 3.04526 13.0111 3.36079 15.0669L3.35642 15.0595C3.54636 15.2118 3.73005 15.3911 3.92812 15.5846L3.92187 15.5812C4.92782 15.7639 6.1131 15.9796 7.43145 16.2195L7.4452 16.2222L7.44395 16.237C7.35397 17.1099 7.25838 18.0367 7.15903 19.004L7.15716 19.0195H7.14341C6.93223 19.0188 6.72104 18.9959 6.51048 18.9568C6.29929 18.9211 6.08935 18.8719 5.87754 18.822C5.45454 18.7195 5.02904 18.5962 4.5998 18.4681C3.9175 18.2619 3.25332 18.0415 2.61039 17.8244C2.44919 17.7705 2.28861 17.7172 2.12991 17.6647C1.9787 17.5831 1.84499 17.4813 1.70941 17.3829C1.44136 17.1834 1.18456 16.9792 0.934636 16.7769L0.929638 16.7729L0.929013 16.7662C0.762188 15.4349 0.607234 14.1974 0.468526 13.0906C0.399171 12.5372 0.33419 12.0169 0.274208 11.5329C0.244217 11.2909 0.214851 11.0584 0.187359 10.8359C0.180486 10.78 0.173613 10.7254 0.16674 10.6708C0.159242 10.6169 0.154868 10.5609 0.159242 10.507C0.16549 10.3985 0.187983 10.2953 0.212976 10.1963C0.26546 9.99876 0.332316 9.81812 0.399796 9.65028C0.468525 9.48312 0.533506 9.32539 0.614732 9.18991C0.694708 9.05443 0.782806 8.93849 0.872155 8.84143C0.962128 8.74504 1.0496 8.66483 1.12583 8.58934C1.27828 8.44037 1.39637 8.32579 1.47635 8.2476C1.51571 8.20918 1.54633 8.18019 1.56695 8.15997C1.58819 8.14245 1.59944 8.13301 1.59944 8.13301Z" fill="#263238"/>
<path d="M5.31647 15.8387L7.72075 12.1786L11.9295 13.553L8.74545 17.9949L7.304 17.6943L7.43646 16.2249L5.31647 15.8387Z" fill="#FF725E"/>
<path d="M10.6999 13.3811C10.6999 13.4431 10.653 13.4937 10.5955 13.4937C10.538 13.4937 10.4912 13.4431 10.4912 13.3811C10.4912 13.3191 10.538 13.2685 10.5955 13.2685C10.653 13.2692 10.6999 13.3191 10.6999 13.3811Z" fill="#FF725E"/>
<path d="M9.01786 12.8749C9.01786 12.9369 8.971 12.9875 8.91352 12.9875C8.85604 12.9875 8.80917 12.9369 8.80917 12.8749C8.80917 12.8129 8.85604 12.7623 8.91352 12.7623C8.971 12.7623 9.01786 12.8129 9.01786 12.8749Z" fill="#FF725E"/>
<path d="M7.40772 16.3739L7.62391 16.3328C7.62391 16.3328 7.69326 15.9789 7.77948 15.9041C7.86571 15.8292 8.73045 15.4046 8.92102 15.2927C9.11096 15.1808 9.85387 14.8155 9.94696 15.0096C10.0526 15.2293 9.75015 15.41 9.58582 15.4936C9.42149 15.5772 8.95351 15.7733 9.04848 15.8946C9.14345 16.016 10.1894 15.9607 10.1894 15.9607L10.3206 15.7706C10.3206 15.7706 10.5512 16.0058 10.5249 16.2108C10.4993 16.4157 10.4212 16.5464 10.4212 16.5464H10.3437C10.3437 16.5464 10.4212 16.6678 10.3525 16.7884C10.2831 16.9097 10.145 17.0681 10.145 17.0681C10.145 17.0681 10.0226 17.3465 9.65268 17.4557C9.60956 17.4685 7.88133 17.6303 7.88133 17.6303L7.30338 17.693L7.40772 16.3739Z" fill="#FFBE9D"/>
<path d="M3.51636 0.41993C2.91342 0.605966 2.42106 1.0596 2.43793 1.73566C2.44543 2.03831 2.5279 2.37331 2.3692 2.6227C2.44355 2.59911 2.50604 2.5344 2.5304 2.45554C2.63162 2.88491 2.64787 3.52457 2.9809 3.78408" fill="#263238"/>
<path d="M3.09087 3.32708C3.07338 3.31966 2.3942 3.12015 2.42919 3.86294C2.46418 4.60574 3.14835 4.41498 3.14835 4.39409C3.14835 4.37252 3.09087 3.32708 3.09087 3.32708Z" fill="#FFBE9D"/>
<path d="M2.92467 4.1238C2.92154 4.12177 2.9128 4.13323 2.89343 4.14469C2.87406 4.15548 2.84032 4.16424 2.80408 4.15143C2.72973 4.12649 2.66287 4.00517 2.6535 3.8717C2.6485 3.8043 2.6585 3.73892 2.67849 3.68432C2.69724 3.62905 2.72785 3.58928 2.76409 3.57984C2.80033 3.56906 2.8272 3.5913 2.83657 3.61152C2.84657 3.63175 2.84282 3.64657 2.84657 3.64792C2.84844 3.64994 2.86094 3.63444 2.85406 3.60411C2.85031 3.58928 2.84157 3.57243 2.8247 3.55895C2.8072 3.54547 2.78284 3.5394 2.75722 3.54345C2.70411 3.55019 2.65912 3.60546 2.63725 3.66545C2.61289 3.72544 2.59976 3.79891 2.60539 3.87507C2.61663 4.02471 2.69411 4.16087 2.79533 4.18648C2.84469 4.19727 2.88405 4.17974 2.90405 4.16087C2.92404 4.142 2.92717 4.12515 2.92467 4.1238Z" fill="#EB996E"/>
<path d="M6.63167 4.70954C6.62854 4.18446 6.54107 3.1033 6.4511 2.12526C6.35425 1.07375 5.52575 0.279054 4.54666 0.298601L4.44919 0.300623C3.40201 0.387575 2.88466 1.39594 2.99463 2.52362L3.14208 6.11964L5.64134 7.59917L5.63322 5.98618C5.63259 5.98618 6.63792 5.79745 6.63167 4.70954Z" fill="#FFBE9D"/>
<path d="M5.63386 5.98551C5.63386 5.98551 4.9978 6.05426 4.31238 5.60872C4.31238 5.60872 4.62978 6.39735 5.63386 6.27939V5.98551Z" fill="#EB996E"/>
<path d="M6.20556 2.93546C6.20993 3.01769 6.1487 3.08847 6.06935 3.09521C5.99 3.10127 5.92252 3.03994 5.91877 2.95838C5.9144 2.87614 5.97563 2.80469 6.05498 2.79863C6.13371 2.79256 6.20119 2.8539 6.20556 2.93546Z" fill="#263238"/>
<path d="M6.25805 2.60383C6.24056 2.62472 6.12997 2.53979 5.97501 2.54316C5.82006 2.54451 5.70822 2.63281 5.69072 2.61259C5.6826 2.60383 5.70009 2.56676 5.74883 2.52699C5.79694 2.48722 5.87942 2.44812 5.97564 2.44678C6.07186 2.44543 6.15371 2.48183 6.2012 2.52025C6.24993 2.55799 6.26618 2.59439 6.25805 2.60383Z" fill="#263238"/>
<path d="M4.75536 2.93546C4.75974 3.01769 4.69851 3.08847 4.61915 3.09521C4.5398 3.10127 4.47232 3.03994 4.46857 2.95838C4.4642 2.87614 4.52543 2.80469 4.60478 2.79863C4.68413 2.79256 4.75161 2.8539 4.75536 2.93546Z" fill="#263238"/>
<path d="M4.71287 2.58765C4.69725 2.60989 4.57916 2.53845 4.42545 2.56002C4.27175 2.57956 4.16865 2.68 4.14991 2.6618C4.14054 2.65371 4.15428 2.61529 4.19927 2.57013C4.24301 2.52497 4.32111 2.47643 4.41671 2.46363C4.5123 2.45082 4.59728 2.47778 4.64851 2.51014C4.70037 2.54316 4.72099 2.57754 4.71287 2.58765Z" fill="#263238"/>
<path d="M5.30458 3.95124C5.30395 3.94181 5.39955 3.92158 5.55513 3.89732C5.59449 3.89193 5.63198 3.88316 5.63823 3.85351C5.64698 3.8225 5.62948 3.77667 5.60949 3.72746C5.57075 3.62501 5.52951 3.51716 5.48703 3.40459C5.31645 2.9449 5.19274 2.56676 5.20961 2.56002C5.2271 2.5526 5.37893 2.91928 5.54951 3.37898C5.59074 3.49222 5.63011 3.60007 5.66697 3.70387C5.68259 3.7524 5.70946 3.80632 5.69009 3.87103C5.68009 3.90339 5.65135 3.92698 5.62636 3.93439C5.60137 3.94315 5.57887 3.94383 5.5595 3.94585C5.40267 3.95798 5.30583 3.96068 5.30458 3.95124Z" fill="#263238"/>
<path d="M4.85096 4.07594C4.87595 4.07392 4.8797 4.25524 5.02591 4.38128C5.17211 4.50733 5.35081 4.48374 5.35268 4.50868C5.35518 4.52014 5.31332 4.5444 5.23772 4.54845C5.16337 4.55249 5.05465 4.5289 4.9653 4.45206C4.87595 4.37454 4.83659 4.27007 4.82972 4.19592C4.82159 4.12043 4.83909 4.07527 4.85096 4.07594Z" fill="#263238"/>
<path d="M4.72225 1.86643C4.70788 1.91226 4.55293 1.89339 4.3711 1.92102C4.18928 1.94462 4.0437 2.00461 4.01871 1.96416C4.00746 1.94462 4.03245 1.90148 4.09119 1.85632C4.14929 1.81115 4.24239 1.76734 4.35111 1.75251C4.45983 1.73768 4.56042 1.75386 4.62665 1.78217C4.69413 1.80913 4.7285 1.84418 4.72225 1.86643Z" fill="#263238"/>
<path d="M6.17869 2.17851C6.15182 2.21693 6.04498 2.17985 5.91627 2.18053C5.78818 2.17648 5.67946 2.21086 5.65385 2.17177C5.6426 2.15289 5.65885 2.11447 5.70571 2.0774C5.75194 2.041 5.82942 2.01 5.91814 2.01067C6.00624 2.01202 6.08309 2.04505 6.1287 2.08279C6.17494 2.12121 6.18994 2.15963 6.17869 2.17851Z" fill="#263238"/>
<path d="M5.28457 0.182666C4.92781 0.0310059 4.56729 0.111217 4.18803 0.171207C3.88749 0.21839 3.62569 0.322867 3.38139 0.517665C2.99838 0.823007 2.80844 1.30899 2.78782 1.82261C2.7672 2.33624 2.81656 2.79121 2.93652 3.28798L2.97401 3.27855C2.9509 3.40392 2.9284 3.53671 2.96901 3.65669C3.00963 3.77667 3.13896 3.87171 3.24706 3.82048C3.37389 3.76049 3.37827 3.57176 3.3664 3.42279C3.32703 2.91524 3.33453 2.42116 3.36077 1.91294C3.38077 1.53682 3.57946 1.07712 3.85063 0.899174C4.34548 0.543953 4.98904 0.833792 5.20772 0.874909C5.54262 0.564848 5.85628 0.807504 6.06122 1.07645C5.98687 0.671347 5.64072 0.333652 5.28457 0.182666Z" fill="#263238"/>
<path d="M3.55634 0.882322C3.81189 0.647755 4.23427 0.667302 4.47107 0.924112C4.56854 1.03061 4.63477 1.16744 4.73787 1.26787C4.95593 1.4802 5.28146 1.48155 5.57512 1.47076C5.48702 1.43571 5.41142 1.36561 5.36518 1.27731C5.7257 1.49772 6.17557 1.54288 6.56732 1.39662C6.35926 0.798066 5.87503 0.223107 5.29958 0.0727953C4.72412 -0.0781904 3.9556 -0.00876395 3.51636 0.419928" fill="#263238"/>
<path d="M6.43112 1.38651C6.43112 1.38785 6.41987 1.38988 6.39863 1.39257C6.37676 1.39594 6.34489 1.39796 6.30366 1.39931C6.22118 1.40066 6.09997 1.3919 5.95688 1.34876C5.8138 1.30629 5.64885 1.22676 5.49515 1.0933C5.34019 0.959836 5.21336 0.769082 5.0659 0.589112C4.99155 0.499464 4.91345 0.417231 4.8266 0.355219C4.74037 0.291859 4.64602 0.250742 4.55293 0.227825C4.36548 0.18199 4.18804 0.202885 4.04495 0.227825C3.90062 0.254787 3.78566 0.289163 3.70631 0.311406C3.66944 0.322191 3.63945 0.330954 3.61446 0.337694C3.59321 0.34376 3.58197 0.345782 3.58197 0.345108C3.58134 0.34376 3.59196 0.339042 3.61258 0.330954C3.6332 0.322865 3.66319 0.31208 3.70255 0.297925C3.78128 0.271638 3.89562 0.233217 4.04058 0.202885C4.18491 0.174575 4.36486 0.15031 4.5598 0.195471C4.65602 0.218388 4.75474 0.260853 4.84409 0.326235C4.93469 0.390269 5.01467 0.474525 5.09027 0.564847C5.2396 0.747513 5.36456 0.935571 5.51452 1.06701C5.66322 1.19845 5.82442 1.27933 5.96376 1.32382C6.10371 1.36831 6.22243 1.38179 6.30428 1.38448C6.38551 1.38718 6.43112 1.38246 6.43112 1.38651Z" fill="#455A64"/>
<path d="M5.46142 1.47952C5.46142 1.48087 5.45329 1.48087 5.43767 1.47885C5.42205 1.47818 5.39956 1.47413 5.37019 1.46807C5.31208 1.45526 5.23023 1.42493 5.13776 1.36898C5.04529 1.31236 4.94469 1.22878 4.8441 1.12498C4.74288 1.0205 4.64291 0.896476 4.53107 0.7738C4.41922 0.651798 4.30363 0.544625 4.18304 0.475199C4.06246 0.405772 3.94062 0.372744 3.83752 0.368026C3.73443 0.363308 3.65133 0.384877 3.59759 0.408469C3.54386 0.43206 3.51699 0.452281 3.51512 0.449585C3.51449 0.448911 3.52074 0.442845 3.53324 0.433408C3.54573 0.422623 3.56573 0.410491 3.59197 0.396336C3.64508 0.368026 3.73068 0.341738 3.83752 0.34376C3.94437 0.345783 4.0712 0.376789 4.19617 0.446889C4.32175 0.51699 4.44047 0.626185 4.55356 0.749535C4.66603 0.872885 4.766 0.998257 4.86409 1.10206C4.96219 1.20654 5.05966 1.29012 5.14838 1.34809C5.3277 1.46537 5.46329 1.47211 5.46142 1.47952Z" fill="#455A64"/>
<path d="M2.38107 2.4306C2.3767 2.42453 2.49042 2.36252 2.61038 2.19266C2.67036 2.10841 2.72972 1.99854 2.78345 1.87047C2.83719 1.7424 2.88405 1.59546 2.93716 1.44178C2.99027 1.2881 3.0465 1.14318 3.11648 1.0205C3.18583 0.897826 3.26581 0.800089 3.34391 0.730663C3.42201 0.66191 3.49574 0.621468 3.54885 0.601246C3.57572 0.591136 3.59634 0.584395 3.61071 0.581699C3.62508 0.578329 3.63258 0.576981 3.6332 0.578329C3.63695 0.585743 3.50824 0.607987 3.35891 0.748862C3.28518 0.818288 3.20833 0.915351 3.1421 1.036C3.07524 1.15666 3.02026 1.30023 2.96777 1.45256C2.91529 1.60557 2.86718 1.75319 2.81095 1.8826C2.75534 2.01202 2.69223 2.12256 2.62912 2.20682C2.56539 2.29107 2.50354 2.34904 2.4573 2.38274C2.43418 2.39959 2.41544 2.4124 2.40232 2.41914C2.38857 2.42858 2.3817 2.43195 2.38107 2.4306Z" fill="#455A64"/>
<path d="M2.5123 2.6928C2.5123 2.68876 2.54354 2.68943 2.59852 2.6773C2.65288 2.66517 2.73036 2.63551 2.81221 2.57417C2.89343 2.51283 2.97778 2.41982 3.04526 2.29781C3.11274 2.17581 3.16023 2.02617 3.19772 1.86575C3.23458 1.70533 3.26145 1.54895 3.29582 1.40875C3.32956 1.26855 3.37204 1.1452 3.4189 1.04746C3.46639 0.949727 3.517 0.878278 3.55636 0.833791C3.57636 0.811548 3.59198 0.795371 3.60385 0.78526C3.6151 0.775149 3.62197 0.769757 3.62259 0.771105C3.62822 0.775823 3.527 0.862775 3.43952 1.05892C3.39579 1.15598 3.35642 1.27799 3.32456 1.41751C3.29207 1.55637 3.26645 1.71274 3.22896 1.87519C3.19147 2.03696 3.14211 2.18997 3.07088 2.31534C2.99965 2.44004 2.91093 2.53508 2.82471 2.59574C2.73848 2.65641 2.65726 2.68337 2.6004 2.69146C2.57166 2.6955 2.54979 2.69685 2.53479 2.6955C2.52042 2.69415 2.5123 2.69348 2.5123 2.6928Z" fill="#455A64"/>
</svg>
