<svg width="20" height="24" viewBox="0 0 20 24" fill="none" xmlns="http://www.w3.org/2000/svg">
<g clip-path="url(#clip0_125_19120)">
<path fill-rule="evenodd" clip-rule="evenodd" d="M11.0742 11.438H11.9904V12.6061C11.9904 12.7176 11.9421 12.8245 11.8562 12.9033C11.7703 12.9821 11.6538 13.0264 11.5323 13.0264C11.4108 13.0264 11.2943 12.9821 11.2084 12.9033C11.1225 12.8245 11.0742 12.7176 11.0742 12.6061V11.438Z" fill="#63A343"/>
<path d="M9.11589 10.7425L9.1869 10.7741C9.57681 10.9428 9.98637 11.0704 10.4077 11.1543C10.5996 11.194 10.7939 11.2234 10.9895 11.2426C11.0834 11.2531 11.175 11.2594 11.2712 11.2657C11.4567 11.2762 11.6445 11.2783 11.83 11.2657C11.924 11.2657 12.0156 11.2657 12.1095 11.251C12.5234 11.2212 12.9327 11.1507 13.3303 11.0409L13.5937 10.961L13.8502 10.8686C13.9785 10.8203 14.1044 10.7656 14.2281 10.7089C14.4237 10.6178 14.614 10.5175 14.7984 10.4085L14.9427 10.3181C15.0183 10.2698 15.0939 10.2194 15.1718 10.1669L15.2771 10.0849L15.4901 9.91893C15.5589 9.8601 15.6276 9.80128 15.694 9.74035C15.8268 9.61849 15.9551 9.49032 16.0765 9.35586C16.136 9.28863 16.1956 9.22139 16.2529 9.14576C16.3101 9.07012 16.3651 9.00289 16.4201 8.93565C16.475 8.86842 16.5231 8.78858 16.5758 8.71084C16.7764 8.4001 16.9437 8.0722 17.0751 7.73177C17.1072 7.64773 17.137 7.56369 17.1645 7.47964C17.1919 7.3935 17.2171 7.30736 17.2377 7.22332C17.2584 7.13928 17.2813 7.05314 17.2996 6.96699C17.3339 6.79471 17.3591 6.62453 17.3775 6.45224C17.3775 6.40812 17.3775 6.3661 17.3775 6.32198C17.3775 6.19382 17.3912 6.06566 17.3775 5.93749C17.3775 5.89547 17.3775 5.85135 17.3775 5.80933C17.3775 5.72319 17.3775 5.63915 17.3614 5.55301C17.3365 5.29986 17.2929 5.04856 17.2309 4.80084C17.2011 4.67688 17.1645 4.55292 17.1232 4.43316C17.0957 4.35122 17.0683 4.27138 17.0362 4.19154C17.0041 4.1117 16.9721 4.03396 16.9354 3.95623C16.8667 3.80495 16.7911 3.65578 16.7064 3.51081C16.5959 3.31809 16.4719 3.13211 16.3353 2.95404C16.2826 2.8847 16.2277 2.81537 16.1704 2.74394C16.1452 2.71242 16.12 2.68301 16.0925 2.65359C16.065 2.62418 16.0284 2.58006 15.994 2.54434L15.9528 2.50022C15.9047 2.45189 15.8566 2.40147 15.8062 2.35315L15.6436 2.20187L15.6093 2.17246C15.4798 2.05659 15.3437 1.94718 15.2016 1.8447L15.0664 1.74805L14.9817 1.68082C14.7264 1.51511 14.4576 1.3676 14.1777 1.2396L14.0815 1.19758L14.0105 1.16817L14.2006 0.802589L14.2716 0.832004L14.3724 0.878226C14.6759 1.01292 14.9663 1.17107 15.2405 1.35096L15.3481 1.42239L15.4947 1.52534C15.6474 1.6388 15.794 1.75645 15.9345 1.87831L15.9711 1.91193C16.0307 1.96446 16.0902 2.01908 16.1475 2.07581L16.3055 2.23549L16.3491 2.28381C16.3857 2.32163 16.4201 2.35945 16.4544 2.39937C16.4888 2.43929 16.5117 2.4645 16.5392 2.49812C16.6018 2.56955 16.6613 2.63959 16.7178 2.70822C16.8641 2.90074 16.9972 3.10142 17.1164 3.30911C17.208 3.46465 17.2906 3.62456 17.3637 3.78815C17.4027 3.87219 17.437 3.95623 17.4714 4.04237C17.5057 4.12851 17.5378 4.21465 17.5653 4.30079C17.6088 4.43316 17.6477 4.56342 17.6821 4.69789C17.7492 4.9649 17.7959 5.23589 17.8218 5.50888C17.8218 5.60133 17.8355 5.69167 17.8378 5.78412C17.8378 5.83034 17.8378 5.87656 17.8378 5.92279C17.8378 6.06145 17.8378 6.20012 17.8378 6.34299C17.8378 6.38921 17.8378 6.43544 17.8378 6.48166C17.8197 6.66773 17.7914 6.85285 17.7531 7.03633C17.7348 7.12877 17.7142 7.22122 17.689 7.31156C17.6638 7.40191 17.6386 7.49645 17.6088 7.5889C17.579 7.68134 17.547 7.76959 17.5126 7.86203C17.4439 8.04272 17.3614 8.22341 17.2836 8.40199C17.2057 8.58058 17.0637 8.75707 16.9491 8.92305C16.8965 9.00499 16.8392 9.08483 16.7819 9.16467C16.7247 9.2445 16.6651 9.32224 16.6033 9.39788C16.5415 9.47352 16.4773 9.54705 16.4132 9.61849C16.2844 9.76547 16.1467 9.90575 16.0009 10.0387C15.9299 10.1059 15.8566 10.169 15.7719 10.232L15.5428 10.4106L15.4237 10.4967C15.3459 10.5534 15.2634 10.6081 15.1947 10.6606C15.126 10.7131 15.0893 10.7236 15.0389 10.7572C14.8422 10.8729 14.6388 10.9788 14.4297 11.0745C14.2945 11.1354 14.1594 11.1943 14.022 11.2468C13.9304 11.2825 13.8388 11.314 13.7448 11.3455L13.4631 11.4317C13.0322 11.5527 12.5884 11.6309 12.1393 11.6649C12.0385 11.6649 11.9377 11.6796 11.8392 11.6817C11.6378 11.6911 11.436 11.6911 11.2345 11.6817C11.1338 11.6817 11.033 11.6691 10.9322 11.6586C10.7291 11.6306 10.5207 11.5963 10.3069 11.5556C9.85242 11.4604 9.41076 11.3194 8.98992 11.1354L8.93266 11.1144L9.11589 10.7425Z" fill="#63A343"/>
<path fill-rule="evenodd" clip-rule="evenodd" d="M14.677 0.0400394C14.7874 0.0858978 14.8735 0.170017 14.9165 0.273978C14.9594 0.377938 14.9557 0.493267 14.9061 0.59471L9.2098 11.7301C9.15773 11.8295 9.06514 11.9062 8.95202 11.9435C8.8389 11.9809 8.71431 11.9759 8.60513 11.9297C8.49473 11.8839 8.40864 11.7998 8.36571 11.6958C8.32278 11.5918 8.32651 11.4765 8.37608 11.3751L14.0724 0.239637C14.1244 0.140237 14.217 0.0635992 14.3302 0.0262586C14.4433 -0.0110821 14.5679 -0.00613251 14.677 0.0400394Z" fill="#63A343"/>
<path d="M15.9551 3.0801C16.0078 3.14523 16.0582 3.21036 16.1063 3.2776C16.1544 3.34483 16.2048 3.41416 16.2506 3.4877C16.3422 3.62847 16.4269 3.77554 16.5048 3.92681C16.5821 4.07683 16.6509 4.23041 16.7109 4.38694C16.7415 4.46398 16.769 4.54171 16.7934 4.62015C16.8186 4.69789 16.8415 4.77563 16.8621 4.85547C16.8827 4.93531 16.9011 5.01304 16.9171 5.09078C16.9491 5.24836 16.9721 5.40594 16.9881 5.56561C16.9881 5.64335 17.0018 5.72319 17.0041 5.80093C17.0064 5.87867 17.0041 5.9585 17.0041 6.03834C17.0041 6.07616 17.0041 6.11608 17.0041 6.156C17.0041 6.23304 16.9995 6.31078 16.9904 6.38921C16.9693 6.6227 16.9295 6.85444 16.8713 7.08255C16.8438 7.19601 16.8094 7.30946 16.7728 7.42082C16.7476 7.49645 16.7201 7.56999 16.6926 7.63092C16.6651 7.69185 16.6308 7.77799 16.5987 7.84102C16.4514 8.16472 16.2672 8.47319 16.049 8.76127L15.8956 8.95036C15.7911 9.07544 15.6794 9.19537 15.5612 9.30964C15.5016 9.36637 15.442 9.42309 15.3802 9.47772C14.6718 10.1058 13.788 10.542 12.8264 10.7383C12.6503 10.7743 12.4721 10.801 12.2927 10.8182C12.208 10.8182 12.1209 10.835 12.0362 10.8392C11.8645 10.8476 11.6925 10.8476 11.5208 10.8392C11.4361 10.8392 11.3491 10.8392 11.2643 10.8266C10.8823 10.7936 10.5053 10.7232 10.1397 10.6165C10.0588 10.5941 9.97862 10.5689 9.89922 10.5408C9.82134 10.5156 9.74118 10.4883 9.67018 10.4568C9.55336 10.4127 9.44113 10.3644 9.32432 10.3118C9.14422 10.228 8.96913 10.1355 8.79981 10.0345L8.66697 9.95255C8.59597 9.90633 8.52725 9.86011 8.46083 9.81178L8.36005 9.74035L8.16307 9.58487C8.09894 9.53235 8.0371 9.47982 7.97526 9.42309C7.85197 9.31099 7.73501 9.19317 7.62482 9.07012C7.56756 9.00709 7.51488 8.94406 7.4622 8.87893C7.40953 8.8138 7.35914 8.74866 7.30875 8.68143C7.25836 8.6142 7.21255 8.54487 7.16674 8.47133C7.07269 8.32929 6.98705 8.18271 6.91021 8.03222C6.83463 7.87884 6.76592 7.72547 6.70636 7.56999C6.67659 7.49435 6.6491 7.41451 6.62391 7.33678C6.59871 7.25904 6.57581 7.1813 6.5552 7.10356C6.53458 7.02583 6.51626 6.94599 6.50023 6.86615C6.46758 6.70981 6.44388 6.55202 6.42922 6.39342C6.42922 6.3535 6.42922 6.31358 6.42922 6.27576C6.42922 6.156 6.41548 6.03834 6.41777 5.92069C6.41777 5.88077 6.41777 5.84085 6.41777 5.80303C6.41777 5.72319 6.41777 5.64545 6.4338 5.56771C6.45522 5.33427 6.49502 5.10255 6.55291 4.87438C6.58039 4.76092 6.61475 4.64747 6.65139 4.53611C6.67659 4.46258 6.70407 4.38904 6.73156 4.3155C6.75904 4.24197 6.79111 4.17053 6.82318 4.1054C6.88731 3.96673 6.95602 3.83017 7.03389 3.6957C7.13531 3.51883 7.24932 3.34828 7.37517 3.18515C7.42403 3.12072 7.47442 3.05769 7.52634 2.99606L7.59963 2.91202L7.68896 2.81327L7.72789 2.77125C7.77141 2.72503 7.81493 2.68091 7.86074 2.63679C7.91113 2.58846 7.95923 2.54224 8.01191 2.49812L8.04168 2.4687C8.16078 2.36365 8.28676 2.2586 8.41731 2.16826L8.54329 2.08001L8.6349 2.01908C8.86916 1.86642 9.11658 1.73151 9.37471 1.61569L9.46175 1.57577L9.61979 1.52744C10.0995 1.33661 10.6074 1.21199 11.1269 1.15766L11.3857 1.13665H11.4521H11.6308C11.7155 1.13665 11.8003 1.13665 11.8873 1.13665L12.1393 1.14506C12.4797 1.17034 12.8165 1.22665 13.1448 1.31314L13.2616 1.34466C13.344 1.36777 13.4242 1.39298 13.4906 1.41819L13.7196 1.50223C13.8365 1.54845 13.9487 1.59678 14.0655 1.6493C14.3029 1.75377 14.5318 1.87384 14.7503 2.00858C14.8206 2.052 14.8893 2.09822 14.9565 2.14725L15.0573 2.22078C15.1557 2.29432 15.2542 2.37416 15.3481 2.454L15.442 2.53804C15.5642 2.65009 15.681 2.76775 15.7925 2.89101C15.8475 2.95194 15.9024 3.01497 15.9551 3.0801Z" fill="#24B4D5"/>
<path d="M12.7439 12.4486H10.3642V13.5894H12.7439V12.4486Z" fill="#63A343"/>
<path d="M15.5955 13.5915H7.54466V14.3983H15.5955V13.5915Z" fill="#63A343"/>
<path d="M18.1745 20.0123C18.2872 20.0015 18.4 20.0315 18.489 20.0958C18.5779 20.1602 18.636 20.2538 18.6509 20.3568L18.667 23.5861C18.6526 23.6895 18.5947 23.7836 18.5057 23.8484C18.4167 23.9132 18.3036 23.9435 18.1906 23.9328L0.492438 24C0.379845 24.0108 0.267062 23.9812 0.177792 23.9173C0.0885223 23.8535 0.029718 23.7603 0.0137387 23.6575L-3.8147e-06 20.4283C0.0143562 20.3251 0.0718121 20.2311 0.160256 20.166C0.248699 20.101 0.361223 20.0699 0.474114 20.0795L18.1745 20.0123Z" fill="#61313E"/>
<path d="M18.1745 20.0123C18.2872 20.0015 18.4 20.0315 18.489 20.0958C18.5779 20.1602 18.636 20.2538 18.6509 20.3568L18.667 23.5861C18.6526 23.6895 18.5947 23.7836 18.5057 23.8484C18.4167 23.9132 18.3036 23.9435 18.1906 23.9328L0.492438 24C0.379845 24.0108 0.267062 23.9812 0.177792 23.9173C0.0885223 23.8535 0.029718 23.7603 0.0137387 23.6575L-3.8147e-06 20.4283C0.0143562 20.3251 0.0718121 20.2311 0.160256 20.166C0.248699 20.101 0.361223 20.0699 0.474114 20.0795L18.1745 20.0123Z" fill="#63A343"/>
<path d="M18.1974 17.0183C18.4402 17.0183 18.6372 17.1339 18.6372 17.2809V19.7391C18.6372 19.8841 18.4425 20.0017 18.1997 20.0039L1.85524 20.0669C1.61246 20.0669 1.41548 19.9492 1.41319 19.8043V17.3461C1.41319 17.2011 1.61017 17.0813 1.85295 17.0813L18.1974 17.0183Z" fill="#22B1B6"/>
<path d="M19.6015 14.0369C19.8145 14.0369 19.9885 14.1546 19.9885 14.2996V16.7578C19.9885 16.9027 19.8168 17.0204 19.6038 17.0225L5.26798 17.0771C5.05497 17.0771 4.88089 16.9616 4.88089 16.8145V14.3584C4.88089 14.2113 5.05268 14.0937 5.26569 14.0937L19.6015 14.0369Z" fill="#EA5645"/>
<path d="M4.88089 16.8985C4.88089 16.9973 5.05497 17.0771 5.26798 17.0771L19.6152 17.0183C19.8282 17.0183 20 16.9364 20 16.8355V16.4699L4.88318 16.5267L4.88089 16.8985Z" fill="#D13431"/>
<path d="M7.95923 14.4971C8.09748 14.4849 8.23698 14.4993 8.36878 14.5395C8.50059 14.5796 8.62178 14.6446 8.72458 14.7303C8.82739 14.816 8.90953 14.9204 8.96574 15.0369C9.02196 15.1534 9.05099 15.2794 9.05099 15.4068C9.05099 15.5342 9.02196 15.6602 8.96574 15.7767C8.90953 15.8932 8.82739 15.9976 8.72458 16.0833C8.62178 16.169 8.50059 16.234 8.36878 16.2741C8.23698 16.3143 8.09748 16.3288 7.95923 16.3166C7.82098 16.3288 7.68147 16.3143 7.54967 16.2741C7.41787 16.234 7.29667 16.169 7.19387 16.0833C7.09107 15.9976 7.00892 15.8932 6.95271 15.7767C6.8965 15.6602 6.86746 15.5342 6.86746 15.4068C6.86746 15.2794 6.8965 15.1534 6.95271 15.0369C7.00892 14.9204 7.09107 14.816 7.19387 14.7303C7.29667 14.6446 7.41787 14.5796 7.54967 14.5395C7.68147 14.4993 7.82098 14.4849 7.95923 14.4971Z" fill="#FFC23A"/>
<path d="M13.391 16.494L6.04791 16.521L6.05033 17.0736L13.3934 17.0466L13.391 16.494Z" fill="#D13431"/>
<path d="M1.39945 19.7706C1.41584 19.8624 1.46973 19.945 1.55015 20.0016C1.63057 20.0582 1.73148 20.0845 1.83234 20.0753L18.202 20.0123C18.4471 20.0123 18.6418 19.8736 18.6418 19.7034V19.0731L1.39029 19.1382L1.39945 19.7706Z" fill="#179998"/>
<path d="M8.91892 17.0637L5.26801 17.0777L5.28164 20.0632L8.93255 20.0492L8.91892 17.0637Z" fill="#FFC23A"/>
<path d="M13.3838 17.0465L12.873 17.0485L12.8872 20.0319L13.3979 20.0299L13.3838 17.0465Z" fill="#FFC23A"/>
<path d="M8.92409 19.1135L5.27548 19.1287L5.28009 20.0615L8.9287 20.0463L8.92409 19.1135Z" fill="#F9A431"/>
<path d="M13.3952 19.0969L12.8845 19.0991L12.8894 20.032L13.4002 20.0297L13.3952 19.0969Z" fill="#F9A431"/>
<path d="M0.045805 23.6575C0.0612414 23.7602 0.119574 23.8533 0.208475 23.9172C0.297376 23.9811 0.409881 24.0108 0.522214 24L18.2226 23.9328C18.3354 23.9434 18.4482 23.9131 18.5369 23.8483C18.6256 23.7835 18.6829 23.6893 18.6967 23.5861V22.876L0.045805 22.9474V23.6575Z" fill="#4F823C"/>
<path d="M15.5494 20.0216L14.8531 20.0243L14.871 23.9448L15.5673 23.9421L15.5494 20.0216Z" fill="#EA5645"/>
<path d="M16.5506 20.0816H15.8543V24.0021H16.5506V20.0816Z" fill="#EA5645"/>
<path d="M15.5375 22.89L14.8641 22.8924L14.8688 23.9472L15.5421 23.9447L15.5375 22.89Z" fill="#D13431"/>
<path d="M16.6552 22.8859L15.9589 22.8884L15.9635 23.9431L16.6598 23.9406L16.6552 22.8859Z" fill="#D13431"/>
<path d="M16.9995 5.79882C16.9995 5.72109 16.9995 5.64125 16.9835 5.56351C16.969 5.40419 16.9453 5.24569 16.9125 5.08868C16.8965 5.01094 16.8781 4.9311 16.8575 4.85336C16.8369 4.77563 16.814 4.69579 16.7888 4.61805C16.7636 4.54031 16.7361 4.46257 16.7064 4.38484C16.6468 4.22936 16.5781 4.07598 16.5025 3.92471C16.4257 3.77422 16.34 3.62763 16.246 3.4856C16.2002 3.41416 16.1521 3.34483 16.104 3.27549C16.0559 3.20616 16.0032 3.14313 15.9505 3.078C15.8978 3.01287 15.8429 2.94984 15.7879 2.88891C15.6784 2.76535 15.5614 2.6475 15.4375 2.53593C15.4077 2.50652 15.3756 2.47921 15.3436 2.45189C15.2497 2.37205 15.1535 2.29222 15.0527 2.21868L14.9542 2.14514L14.8374 2.06741C14.8534 2.09892 14.874 2.12623 14.8901 2.15565C14.9656 2.30902 15.0344 2.4624 15.0939 2.61577C15.1229 2.69281 15.1504 2.77055 15.1764 2.84899C15.2016 2.92672 15.2245 3.00656 15.2451 3.0843C15.2657 3.16204 15.284 3.24188 15.3 3.31962C15.3327 3.47665 15.3564 3.63515 15.371 3.79445C15.371 3.87219 15.3848 3.95202 15.3871 4.02976C15.3894 4.1075 15.3871 4.18734 15.3871 4.26718C15.3871 4.305 15.3871 4.34492 15.3871 4.38484C15.3871 4.46257 15.3871 4.54031 15.371 4.62015C15.3509 4.85304 15.3111 5.08415 15.2519 5.31139C15.2245 5.42484 15.1901 5.5383 15.1535 5.64965C15.1283 5.72529 15.1031 5.79882 15.0733 5.87236C15.0435 5.9459 15.0137 6.01733 14.9817 6.08246C14.8352 6.40957 14.6501 6.72097 14.4297 7.01112C14.3808 7.07415 14.3304 7.13718 14.2785 7.20021C14.1732 7.32417 14.0495 7.44393 13.9441 7.55948C13.8846 7.61621 13.8227 7.67294 13.7609 7.72756C13.0545 8.34678 12.1769 8.77691 11.2231 8.97137C11.047 9.00717 10.8688 9.03383 10.6894 9.05121C10.6024 9.06172 10.5176 9.06802 10.4306 9.07222C10.2589 9.08062 10.0869 9.08062 9.91525 9.07222C9.82974 9.07222 9.745 9.06802 9.66101 9.05961C9.27943 9.03028 8.90239 8.96337 8.53642 8.86002L8.30737 8.78648L8.07833 8.70244C7.96152 8.65622 7.84929 8.60789 7.73248 8.55537C7.55237 8.47157 7.37729 8.37899 7.20797 8.27803L7.05222 8.19399L6.9606 8.13096C7.02473 8.25072 7.09116 8.37048 7.16445 8.48393C7.21026 8.55327 7.25836 8.6226 7.30646 8.69404C7.35456 8.76547 7.40723 8.8285 7.45991 8.89153C7.51259 8.95456 7.56756 9.01969 7.62253 9.08273C7.7335 9.2058 7.85123 9.32361 7.97526 9.4357C8.03481 9.49243 8.09894 9.54495 8.16308 9.59748C8.22721 9.65 8.29134 9.70253 8.35776 9.75295L8.45854 9.82439C8.52496 9.87271 8.59597 9.91893 8.66468 9.96516L8.79752 10.0471C8.96684 10.1481 9.14193 10.2406 9.32203 10.3244C9.43426 10.377 9.55107 10.4253 9.66789 10.4694C9.74576 10.5009 9.82592 10.5282 9.89693 10.5534C9.96793 10.5787 10.055 10.606 10.126 10.6291C10.4915 10.736 10.8686 10.8064 11.2506 10.8392C11.3346 10.8392 11.4193 10.8434 11.5048 10.8518C11.6765 10.8602 11.8485 10.8602 12.0202 10.8518C12.1072 10.8518 12.1919 10.8392 12.279 10.8308C12.4632 10.8097 12.646 10.7788 12.8264 10.7383C13.7818 10.5446 14.6611 10.1144 15.3688 9.49453C15.4306 9.4399 15.4924 9.38317 15.552 9.32644C15.6688 9.21089 15.781 9.09113 15.8864 8.96717C15.9398 8.90414 15.9902 8.84111 16.0376 8.77808C16.2564 8.49004 16.4415 8.18158 16.5896 7.85783C16.6216 7.78639 16.6514 7.71286 16.6812 7.64773C16.7109 7.58259 16.7361 7.50276 16.7613 7.43762C16.798 7.32627 16.8323 7.21281 16.8598 7.09936C16.9192 6.87145 16.959 6.63963 16.9789 6.40602C16.9789 6.32828 16.9789 6.25054 16.995 6.17281C16.995 6.13289 16.995 6.09297 16.995 6.05515C17.0041 5.9564 17.0041 5.88287 16.9995 5.79882Z" fill="#16A2B9"/>
<path d="M12.7439 12.4486H10.3642V12.9003H12.7439V12.4486Z" fill="#4F823C"/>
<path d="M14.2831 4.83236C14.2831 4.86387 14.2831 4.89539 14.2281 4.9164C14.1732 4.93741 14.1021 5.01305 14.0747 5.00464C14.0479 4.99197 14.0204 4.98075 13.9922 4.97102C13.9693 4.97102 13.9029 4.97102 13.9052 4.97102C13.9075 4.97102 13.9395 4.94791 13.9395 4.93321C13.9395 4.9185 13.9395 4.88908 13.9143 4.88908C13.8891 4.88908 13.8204 4.87228 13.8639 4.86807C13.9075 4.86387 13.9418 4.85127 13.9327 4.83866C13.9235 4.82605 13.8846 4.83866 13.8708 4.83866C13.8571 4.83866 13.8296 4.83866 13.8502 4.80925C13.862 4.78347 13.88 4.76048 13.9029 4.74201C13.9029 4.74201 13.951 4.74201 13.9556 4.76933C13.9601 4.79664 13.9922 4.84496 13.9968 4.81135C14.0014 4.77773 14.0128 4.75672 14.0243 4.77563C14.0357 4.79454 14.0243 4.80925 14.0426 4.77563C14.0609 4.74201 14.0792 4.74411 14.0999 4.75672C14.1205 4.76933 14.1434 4.78613 14.1434 4.75672C14.1434 4.72731 14.1571 4.70209 14.1754 4.7147C14.1976 4.72508 14.2183 4.73777 14.2373 4.75252C14.2551 4.77783 14.2704 4.80455 14.2831 4.83236Z" fill="#206787"/>
<path d="M12.0293 7.62672C12.055 7.64491 12.0847 7.65787 12.1163 7.66475C12.1478 7.67164 12.1807 7.67228 12.2125 7.66664C12.3179 7.64773 12.4416 7.77589 12.508 7.7864C12.5744 7.7969 12.76 7.86413 12.7852 7.92716C12.8103 7.9902 12.8218 8.04692 12.9111 8.07634C13.0005 8.10575 13.2158 8.14357 13.2707 8.16248C13.3257 8.18139 13.5158 8.24442 13.4104 8.38939C13.3288 8.47577 13.2728 8.57996 13.2478 8.69194C13.2158 8.83271 13.2226 8.88523 13.0371 8.95877C12.8516 9.0323 12.8974 9.09744 12.8333 9.18988C12.7691 9.28233 12.7073 9.39998 12.6431 9.41679C12.579 9.4336 12.5653 9.55126 12.508 9.58487C12.4508 9.61849 12.3866 9.58487 12.35 9.65631C12.3085 9.74169 12.257 9.8227 12.1965 9.89793C12.1713 9.94205 12.1232 9.94625 12.1507 9.99877C12.1782 10.0513 12.1874 10.0765 12.1347 10.1353C12.082 10.1942 12.0614 10.3602 12.1141 10.4001C12.1667 10.44 12.2698 10.5114 12.1713 10.5198C12.0728 10.5282 11.8026 10.4631 11.7934 10.2782C11.7905 10.0011 11.8236 9.72459 11.8919 9.45461C11.956 9.26132 12.0912 8.78018 11.8919 8.67303C11.6926 8.56588 11.617 8.32636 11.5804 8.29695C11.5437 8.26753 11.5483 8.17719 11.5483 8.14777C11.5483 8.11836 11.5483 8.02801 11.601 8.0028C11.6296 7.98476 11.6525 7.9601 11.6674 7.93132C11.6823 7.90254 11.6886 7.87067 11.6858 7.83892C11.6858 7.77169 11.7545 7.71496 11.7797 7.68975C11.8049 7.66454 11.8552 7.61201 11.9171 7.61201C11.9552 7.61067 11.9932 7.61565 12.0293 7.62672Z" fill="#206787"/>
<path d="M12.437 10.2824C12.4287 10.2778 12.4192 10.2753 12.4095 10.2753C12.3998 10.2753 12.3903 10.2778 12.382 10.2824C12.3739 10.2878 12.3677 10.2953 12.3641 10.3038C12.3604 10.3124 12.3595 10.3217 12.3614 10.3307C12.3822 10.3461 12.4081 10.3545 12.4347 10.3545C12.4614 10.3545 12.4872 10.3461 12.508 10.3307C12.5142 10.3274 12.519 10.3223 12.5219 10.3163C12.5248 10.3103 12.5255 10.3036 12.524 10.2971C12.524 10.2824 12.5011 10.2782 12.4851 10.2782C12.4699 10.2803 12.4545 10.2803 12.4393 10.2782L12.437 10.2824Z" fill="#206787"/>
<path d="M11.8827 7.29266C11.9494 7.29474 12.0145 7.3113 12.0728 7.34098C11.9978 7.35693 11.9204 7.36119 11.8438 7.35359C11.8438 7.35359 11.8438 7.33468 11.8644 7.33258H11.8988C11.8988 7.33258 11.9217 7.31787 11.9148 7.30946C11.9058 7.3117 11.8963 7.3117 11.8873 7.30946C11.8829 7.30819 11.8789 7.30569 11.8761 7.30231C11.8732 7.29893 11.8715 7.29483 11.8713 7.29055C11.8728 7.28916 11.8745 7.28805 11.8765 7.28729C11.8785 7.28653 11.8806 7.28614 11.8827 7.28614C11.8849 7.28614 11.887 7.28653 11.8889 7.28729C11.8909 7.28805 11.8927 7.28916 11.8942 7.29055L11.8827 7.29266Z" fill="#206787"/>
<path d="M12.1667 7.35358C12.1562 7.34948 12.1449 7.34737 12.1335 7.34737C12.1221 7.34737 12.1108 7.34948 12.1003 7.35358C12.1003 7.35358 12.1003 7.35358 12.1141 7.36619C12.131 7.37239 12.1498 7.37239 12.1667 7.36619C12.1828 7.36619 12.1896 7.33468 12.1667 7.32627V7.35358Z" fill="#206787"/>
<path d="M11.7247 7.30526C11.7171 7.3068 11.7093 7.3068 11.7018 7.30526C11.7018 7.30526 11.7018 7.28635 11.6857 7.27585C11.6697 7.26534 11.6422 7.26114 11.617 7.25694C11.5925 7.25185 11.5692 7.24258 11.5483 7.22962C11.538 7.22253 11.526 7.21771 11.5133 7.21553C11.5006 7.21334 11.4875 7.21385 11.475 7.21702C11.459 7.21702 11.4361 7.23382 11.4269 7.21702C11.4254 7.21339 11.4248 7.20945 11.4254 7.20558C11.4259 7.20171 11.4275 7.19804 11.4301 7.19489C11.4326 7.19174 11.4359 7.18923 11.4398 7.18759C11.4436 7.18595 11.4479 7.18523 11.4521 7.1855C11.4643 7.1865 11.4766 7.1865 11.4888 7.1855C11.5071 7.1855 11.5208 7.15819 11.5415 7.15819C11.5621 7.15819 11.5804 7.1834 11.601 7.1876C11.6146 7.18972 11.6286 7.18972 11.6422 7.1876C11.6786 7.19015 11.7132 7.20341 11.7407 7.22542L11.8369 7.28425C11.8384 7.28543 11.8396 7.28689 11.8404 7.28852C11.8412 7.29015 11.8416 7.29192 11.8416 7.2937C11.8416 7.29549 11.8412 7.29726 11.8404 7.29889C11.8396 7.30052 11.8384 7.30198 11.8369 7.30316C11.8295 7.30556 11.8214 7.30556 11.814 7.30316C11.7844 7.30632 11.7545 7.30702 11.7247 7.30526Z" fill="#206787"/>
<path d="M11.6812 7.35358C11.6857 7.34772 11.6921 7.34334 11.6995 7.34107C11.7069 7.3388 11.715 7.33877 11.7224 7.34098C11.7299 7.34307 11.7366 7.34721 11.7415 7.35283C11.7464 7.35846 11.7493 7.36531 11.7499 7.37249C11.7377 7.37639 11.7246 7.37707 11.7121 7.37447C11.6995 7.37187 11.688 7.36609 11.6789 7.35778L11.6812 7.35358Z" fill="#206787"/>
<path d="M11.7247 7.74858C11.7247 7.70656 11.6216 7.67924 11.5987 7.70026C11.5346 7.75278 11.4292 7.66033 11.4567 7.59941C11.4842 7.53848 11.4934 7.45864 11.4086 7.45864C11.3239 7.45864 11.246 7.45864 11.2666 7.41031C11.2872 7.36199 11.3926 7.24223 11.3307 7.24223C11.3021 7.23981 11.2732 7.2437 11.2465 7.25356C11.2198 7.26343 11.1961 7.27899 11.1773 7.29896C11.1154 7.35149 10.9482 7.39981 10.9093 7.26114C10.8704 7.12247 10.8841 6.95649 10.9414 6.94809C10.9986 6.93968 11.0513 6.89346 11.1406 6.91447C11.23 6.93548 11.2139 6.88926 11.2506 6.88086C11.2872 6.87245 11.4246 6.84094 11.4613 6.90817C11.4979 6.9754 11.5186 7.09726 11.5506 7.09726C11.5827 7.09726 11.6399 7.01112 11.5506 6.89976C11.4613 6.78841 11.7613 6.68966 11.7797 6.63293C11.798 6.57621 11.7797 6.53209 11.8278 6.46485C11.8759 6.39762 11.995 6.37451 12.0018 6.34509C12.0087 6.31568 12.0797 6.20012 12.1164 6.20012C12.153 6.20012 12.1805 6.29257 12.2103 6.27156C12.24 6.25055 12.4576 6.13709 12.4393 6.11398C12.421 6.09087 12.3546 6.10348 12.3019 6.09507C12.2492 6.08667 12.24 6.02574 12.2492 5.99212C12.2584 5.95851 12.2973 5.90598 12.3339 5.90598C12.3766 5.90674 12.4186 5.89655 12.4553 5.87657C12.4805 5.85766 12.618 5.80513 12.5905 5.7463C12.563 5.68747 12.5699 5.67067 12.508 5.63075C12.4084 5.54985 12.3301 5.44928 12.279 5.3366C12.2423 5.23996 12.2057 5.19163 12.1896 5.26937C12.1736 5.34711 12.1003 5.41014 12.0568 5.31769C12.0133 5.22525 11.9904 5.15802 11.9308 5.1307C11.8713 5.10339 11.8736 5.08238 11.8049 5.07187C11.7361 5.06137 11.6743 5.01305 11.6789 5.09499C11.6947 5.16851 11.6947 5.24417 11.6789 5.31769C11.6514 5.35131 11.7797 5.44796 11.7407 5.50679C11.7018 5.56561 11.6056 5.59713 11.6147 5.64125C11.6239 5.68537 11.7109 5.83455 11.5987 5.80093C11.4865 5.76731 11.546 5.64125 11.5208 5.61184C11.4956 5.58242 11.3536 5.59293 11.3101 5.54881C11.2666 5.50468 11.1429 5.43325 11.0811 5.38493C11.0192 5.3366 10.9872 5.24626 11.0811 5.116C11.175 4.98573 11.3536 4.86387 11.3697 4.79664C11.3857 4.72941 11.5758 4.7147 11.5644 4.66217C11.5529 4.60965 11.5644 4.46888 11.5437 4.45207C11.5231 4.43526 11.4338 4.32811 11.3972 4.42896C11.3605 4.52981 11.3376 4.66007 11.2964 4.60124C11.2552 4.54242 11.2483 4.40375 11.1864 4.38064C11.1495 4.35697 11.1192 4.32557 11.0981 4.28903C11.077 4.2525 11.0657 4.21188 11.065 4.17053C11.065 4.1033 11.1338 4.06128 11.1544 3.99825C11.175 3.93522 11.2116 3.8974 11.1177 3.87219C11.0238 3.84698 10.9963 3.9016 10.9872 3.98775C10.9878 4.05833 10.9802 4.12878 10.9643 4.19785C10.9391 4.26508 11.0284 4.42896 10.9963 4.48149C10.9643 4.53401 10.9551 4.57813 10.8337 4.56343C10.7123 4.54872 10.5772 4.44157 10.5085 4.48989C10.4398 4.53821 10.2245 4.65587 10.1924 4.57183C10.1731 4.52626 10.1422 4.48554 10.1024 4.45303C10.0626 4.42052 10.0149 4.39715 9.96335 4.38484C9.86257 4.37433 9.76866 4.39955 9.73431 4.37013C9.69995 4.34072 9.69766 4.26928 9.63582 4.3029C9.57398 4.33652 9.43426 4.46258 9.377 4.46258C9.31974 4.46258 9.16628 4.37433 8.97847 4.33652C8.79065 4.2987 8.64178 4.15793 8.48832 4.24407C8.33486 4.33021 8.2776 4.39534 8.17911 4.44157C8.08062 4.48779 8.17911 4.57813 8.21576 4.62646C8.2524 4.67478 8.23637 4.69789 8.16308 4.72731C8.13788 4.73781 8.09665 4.68739 8.05543 4.72731C8.0142 4.76723 8.05543 4.83446 8.11498 4.84706C8.17453 4.85967 8.44709 4.88698 8.33028 4.93951C8.21347 4.99204 8.14246 5.06977 8.15162 5.14961C8.16079 5.22945 8.18827 5.27988 8.25698 5.27357C8.3257 5.26727 8.3257 5.3282 8.3738 5.3408C8.42189 5.35341 8.54787 5.35551 8.47228 5.42274C8.3967 5.48998 8.05543 5.67277 8.07375 5.70008C8.09207 5.72739 8.60742 5.44376 8.62803 5.39963C8.67204 5.33567 8.73583 5.2852 8.81127 5.25466C8.84863 5.23751 8.88935 5.22737 8.93104 5.22484C8.97273 5.22232 9.01455 5.22746 9.05405 5.23996C9.19148 5.27988 9.3541 5.46266 9.43884 5.51519C9.57252 5.62672 9.67805 5.76367 9.74805 5.91649C9.7875 6.05385 9.81054 6.19475 9.81676 6.33669C9.84334 6.48318 9.91394 6.61997 10.0206 6.73168C10.1008 6.78421 10.3413 7.1855 10.3779 7.1855C10.4146 7.1855 10.394 7.10777 10.3 6.9754C10.2061 6.84304 10.142 6.71067 10.3 6.88926C10.4045 6.99481 10.4995 7.10793 10.5841 7.22752C10.6757 7.34573 10.8067 7.43346 10.9574 7.47755C11.0788 7.48805 11.3353 7.54478 11.3468 7.5847C11.4073 7.66053 11.4856 7.72299 11.5758 7.76749C11.617 7.76749 11.6193 7.71916 11.6445 7.71706C11.6697 7.71496 11.6926 7.76329 11.7018 7.77379C11.7099 7.76574 11.7175 7.75733 11.7247 7.74858Z" fill="#206787"/>
<path d="M12.4737 5.91858C12.4501 5.9457 12.4357 5.97858 12.4324 6.01313C12.4313 6.0215 12.4313 6.02997 12.4324 6.03834C12.4462 6.06145 12.4851 6.05515 12.5126 6.05725C12.5472 6.06225 12.5801 6.07447 12.6088 6.09297C12.6231 6.10183 12.6395 6.10741 12.6566 6.10924C12.6738 6.11107 12.6911 6.10909 12.7073 6.10347C12.704 6.07544 12.6947 6.04829 12.6798 6.02364L12.6523 5.97531C12.6379 5.93759 12.6106 5.90515 12.5744 5.88287C12.5654 5.87832 12.5554 5.87558 12.5451 5.87482C12.5348 5.87407 12.5244 5.87532 12.5147 5.8785C12.505 5.88167 12.4961 5.8867 12.4886 5.89324C12.4811 5.89979 12.4753 5.90771 12.4714 5.91648L12.4737 5.91858Z" fill="#206787"/>
<path d="M12.1805 3.61166C12.3385 3.59695 12.3775 3.4877 12.4966 3.78394C12.6157 4.08019 12.7096 4.14532 12.7096 4.28399C12.7096 4.42265 12.5973 4.62225 12.6546 4.75462C12.7119 4.88698 12.9455 5.31139 13.0325 5.26727C13.1196 5.22314 13.1677 4.9269 13.2616 4.84706C13.3555 4.76722 13.4265 4.60754 13.5845 4.57183C13.7426 4.53611 13.9464 4.48569 13.9624 4.26088C14.0131 3.92049 14.0261 3.57627 14.0014 3.23348C13.9624 2.99606 14.2625 2.76285 14.3335 2.662C14.4045 2.56115 14.3655 2.40987 14.2464 2.45189C14.1273 2.49391 14.0563 2.60527 14.0174 2.56115C13.9785 2.51703 13.9876 2.36575 13.9235 2.38046C13.8594 2.39517 13.5387 2.49602 13.6005 2.42458C13.6624 2.35315 14.0174 2.33634 13.8685 2.21448C13.7196 2.09262 13.7655 1.89092 13.4814 1.94765C13.1974 2.00438 13.0554 2.18716 12.8516 2.27331C12.6786 2.33469 12.5159 2.41815 12.3683 2.52123C12.2652 2.61577 12.1553 2.73133 12.1713 2.82588C12.1874 2.92042 12.2973 2.98555 12.1301 3.0717C11.9629 3.15784 11.8071 3.23137 11.9331 3.29651C12.0591 3.36164 12.0522 3.41206 12.0362 3.45408C12.0265 3.48254 12.0275 3.51316 12.0392 3.541C12.0508 3.56884 12.0724 3.59225 12.1003 3.60746C12.1262 3.61517 12.1538 3.61661 12.1805 3.61166Z" fill="#206787"/>
<path d="M11.2826 3.92261C11.2437 3.98774 11.1727 4.18944 11.2185 4.23987C11.2414 4.27766 11.2745 4.30946 11.3146 4.33226C11.3547 4.35505 11.4004 4.36809 11.4475 4.37013C11.5804 4.37013 11.6514 4.34912 11.7087 4.39114C11.7659 4.43316 12.0064 4.60124 11.8965 4.70209C11.7865 4.80294 11.5598 4.97522 11.7384 4.94161C11.9675 4.89749 12.0774 5.15171 12.1484 5.1223C12.2194 5.09288 12.2446 4.99834 12.1805 4.89749C12.1164 4.79664 12.1255 4.68738 12.1805 4.74621C12.2355 4.80504 12.4416 4.81765 12.2606 4.63696C12.0797 4.45627 12.1186 4.37013 12.0316 4.3134C11.9446 4.25667 11.8026 4.13271 11.7476 4.07389C11.7045 4.02969 11.6533 3.99272 11.5964 3.96463C11.4773 3.8932 11.3994 3.9079 11.3926 3.94362C11.3857 3.97934 11.3445 3.94362 11.3216 3.92891C11.3088 3.92566 11.2958 3.92355 11.2826 3.92261Z" fill="#206787"/>
<path d="M12.0637 2.71452C12.1518 2.62039 12.2336 2.52146 12.3087 2.41828C12.3546 2.33003 12.3706 2.22288 12.1965 2.18716C12.0338 2.13945 11.8607 2.12934 11.6926 2.15775C11.5735 2.20818 11.1567 2.40357 11.1567 2.454C11.1512 2.5184 11.1646 2.58297 11.1956 2.64099C11.2345 2.69981 11.2666 2.78596 11.4086 2.75654C11.5506 2.72713 11.6606 2.79436 11.4956 2.82167C11.3307 2.84899 11.1338 2.78596 11.1086 2.69981C11.0834 2.61367 10.9757 2.58426 10.9597 2.69981C10.9283 2.80432 10.9283 2.91467 10.9597 3.01917C11.0078 3.09901 11.0009 3.19356 11.1177 3.22927C11.2345 3.26499 11.3239 3.30911 11.2826 3.36794C11.2414 3.42677 11.1887 3.53392 11.1109 3.51921C11.033 3.50451 10.9207 3.40996 10.9207 3.46039C10.9207 3.51081 10.9528 3.52552 11.0307 3.59905C11.1086 3.67259 11.0147 3.77134 11.0857 3.80916C11.1567 3.84697 11.5758 3.9037 11.5827 3.85328C11.5896 3.80285 11.6628 3.65788 11.5117 3.66419C11.3605 3.67049 11.2208 3.72932 11.2116 3.66419C11.2025 3.59905 11.2437 3.52132 11.3536 3.54863C11.4636 3.57594 11.6308 3.57804 11.6377 3.52762C11.6445 3.47719 11.6147 3.36164 11.6766 3.31752C11.7384 3.27339 11.8667 3.10741 11.8369 3.05069C11.8071 2.99396 12.0637 2.71452 12.0637 2.71452Z" fill="#206787"/>
<path d="M9.86257 3.84487C9.84636 3.84564 9.83093 3.85148 9.81884 3.86142C9.80675 3.87136 9.79875 3.8848 9.79615 3.8995C9.78241 3.97094 9.75492 4.0949 9.7847 4.13902C9.81447 4.18314 9.86257 4.305 9.9267 4.23356C9.99084 4.16213 9.98167 4.06758 10.0366 4.04447C10.0916 4.02136 10.2978 3.94362 10.1306 3.88689C10.0449 3.85753 9.95399 3.84328 9.86257 3.84487Z" fill="#206787"/>
<path d="M10.0779 4.05918C10.0458 4.1096 10.0389 4.18314 10.0779 4.18944C10.1168 4.19575 10.0779 4.23987 10.0939 4.26928C10.1099 4.2987 10.1649 4.29029 10.229 4.29029C10.2932 4.29029 10.3779 4.31971 10.2771 4.34072C10.1764 4.36173 10.1031 4.37013 10.1649 4.42056C10.2267 4.47098 10.2519 4.58654 10.355 4.55082C10.4387 4.5141 10.5261 4.48524 10.6161 4.46468C10.6619 4.46468 10.8131 4.5151 10.7558 4.40585C10.6986 4.2966 10.6459 4.28399 10.6299 4.19575C10.6138 4.1075 10.6459 3.85538 10.5589 3.92892C10.4718 4.00245 10.4581 4.1012 10.394 4.05918C10.3298 4.01716 10.2451 3.94993 10.1901 3.97934C10.1489 4.00112 10.1111 4.02798 10.0779 4.05918Z" fill="#206787"/>
<path d="M10.0595 3.37214C9.96564 3.42257 9.84883 3.55283 9.91067 3.58225C9.97251 3.61166 10.0916 3.52972 10.1397 3.4877C10.3207 3.286 10.0595 3.37214 10.0595 3.37214Z" fill="#206787"/>
<path d="M10.1466 3.54653C10.1008 3.63897 10.0137 3.73352 10.1168 3.74192C10.2199 3.75033 10.2336 3.77764 10.2428 3.80705C10.2519 3.83647 10.3367 3.80705 10.4146 3.77764C10.4924 3.74823 10.5726 3.76293 10.5886 3.6894C10.6047 3.61586 10.5726 3.58224 10.5176 3.52342C10.4627 3.46459 10.4077 3.50871 10.3596 3.56754C10.3115 3.62637 10.2336 3.58224 10.2176 3.55283C10.2016 3.52342 10.1466 3.54653 10.1466 3.54653Z" fill="#206787"/>
<path d="M10.2657 3.15154C10.263 3.15529 10.2616 3.15967 10.2616 3.16414C10.2616 3.16862 10.263 3.173 10.2657 3.17675C10.2768 3.18771 10.2902 3.19637 10.3053 3.20217C10.3203 3.20797 10.3364 3.21076 10.3527 3.21036C10.3779 3.21036 10.4077 3.21036 10.4214 3.19356C10.4352 3.17675 10.4214 3.13263 10.3894 3.12212C10.3587 3.11377 10.3261 3.11377 10.2955 3.12212L10.2657 3.15154Z" fill="#206787"/>
<path d="M11.7453 4.66638C11.7495 4.6684 11.7543 4.66946 11.759 4.66946C11.7638 4.66946 11.7685 4.6684 11.7728 4.66638C11.7842 4.65844 11.7936 4.64832 11.8004 4.63671C11.8071 4.62509 11.811 4.61227 11.8117 4.59914C11.8147 4.58923 11.8148 4.57877 11.812 4.56882C11.8091 4.55886 11.8035 4.54976 11.7957 4.54242C11.7891 4.53909 11.7818 4.53699 11.7743 4.53625C11.7668 4.5355 11.7592 4.53612 11.752 4.53808C11.7448 4.54003 11.738 4.54327 11.7321 4.54762C11.7263 4.55197 11.7214 4.55734 11.7178 4.56343C11.7076 4.58776 11.7076 4.61473 11.7178 4.63906L11.7453 4.66638Z" fill="#206787"/>
<path d="M11.3765 4.79244C11.3709 4.79354 11.3658 4.79611 11.3617 4.79984C11.3576 4.80356 11.3548 4.80829 11.3536 4.81345C11.3536 4.87018 11.2941 4.9164 11.3216 4.96262C11.3491 5.00884 11.4407 5.05086 11.4567 5.01305C11.4727 4.97523 11.5186 4.99204 11.5437 4.99204C11.5689 4.99204 11.6147 4.99203 11.5575 4.9122C11.5002 4.83236 11.4819 4.89539 11.4246 4.80084C11.4203 4.79539 11.4142 4.79128 11.4073 4.78903C11.4003 4.78678 11.3928 4.7865 11.3857 4.78824L11.3765 4.79244Z" fill="#206787"/>
<path d="M10.765 3.93102C10.7584 3.93449 10.7532 3.93989 10.7503 3.94636C10.7474 3.95282 10.7469 3.95999 10.749 3.96673C10.749 3.99405 10.7742 4.01085 10.7306 4.02976C10.6871 4.04867 10.6986 4.05498 10.7513 4.12641C10.8039 4.19785 10.8314 4.25667 10.8726 4.20835C10.9139 4.16003 10.978 4.07809 10.9299 4.04027C10.8818 4.00245 10.9505 3.87639 10.8772 3.87219C10.8039 3.86798 10.7925 3.92051 10.765 3.93102Z" fill="#206787"/>
<path d="M10.552 3.02758C10.5726 3.0759 10.6207 3.08641 10.6207 3.12422C10.6207 3.16204 10.5474 3.19146 10.6459 3.22927C10.7444 3.26709 10.8108 3.35113 10.82 3.30701C10.8367 3.25243 10.831 3.19411 10.8039 3.14313C10.7705 3.09322 10.726 3.05028 10.6734 3.01707C10.536 2.96455 10.552 3.02758 10.552 3.02758Z" fill="#206787"/>
<path d="M10.268 3.2839C10.2428 3.2839 10.2519 3.38475 10.3046 3.38475C10.3573 3.38475 10.4604 3.286 10.4054 3.26919C10.3828 3.2616 10.3587 3.25898 10.3348 3.26153C10.3109 3.26409 10.288 3.27175 10.268 3.2839Z" fill="#206787"/>
<path d="M10.6367 3.51922C10.6619 3.56754 10.6528 3.67889 10.6986 3.67889C10.7444 3.67889 10.7513 3.6936 10.7787 3.72091C10.8062 3.74823 10.8933 3.76924 10.8933 3.65998C10.8933 3.55073 10.8681 3.4898 10.82 3.50451C10.7719 3.51922 10.694 3.55283 10.6825 3.53813C10.6711 3.52342 10.6367 3.51922 10.6367 3.51922Z" fill="#206787"/>
<path d="M10.8566 3.13893C10.8726 3.17255 10.8681 3.2881 10.9299 3.2881C10.9467 3.28715 10.9627 3.28092 10.975 3.27046C10.9874 3.26 10.9955 3.24594 10.9979 3.23066C11.0003 3.21537 10.997 3.19979 10.9883 3.18653C10.9797 3.17327 10.9663 3.16314 10.9505 3.15784C10.8772 3.11372 10.8566 3.13893 10.8566 3.13893Z" fill="#206787"/>
<path d="M10.994 3.66839C10.9482 3.71251 10.9368 3.76083 10.9734 3.77974C11.0101 3.79865 11.0834 3.85118 11.0582 3.74192C11.033 3.63267 10.994 3.66839 10.994 3.66839Z" fill="#206787"/>
<path d="M15.2863 9.59118C11.4636 9.32225 9.25332 8.27594 8.07375 7.44813C6.7934 6.54679 6.41319 5.69588 6.41319 5.68747L6.46816 5.66856C6.46816 5.66856 6.84837 6.50897 8.11727 7.40821C9.28996 8.23181 11.4888 9.26972 15.2955 9.53865L15.2863 9.59118Z" fill="#3AC2DB"/>
<path d="M8.98763 10.2803C8.21347 8.08474 8.28676 6.16861 9.20293 4.58654C10.5909 2.18927 13.4723 1.40138 13.5135 1.39298L13.5295 1.4434C13.4883 1.45181 10.6276 2.23339 9.25332 4.62225C8.33715 6.18962 8.27302 8.09314 9.0426 10.2761L8.98763 10.2803Z" fill="#3AC2DB"/>
<path d="M9.69537 10.6312L9.67476 10.5808C12.0087 9.80128 13.5822 8.58478 14.3587 6.96699C15.5566 4.46467 14.3999 1.8405 14.3862 1.81318L14.4297 1.79427C14.4434 1.81949 15.6115 4.46467 14.4022 6.9859C13.6303 8.6142 12.0431 9.8454 9.69537 10.6312Z" fill="#3AC2DB"/>
<path d="M17.0018 6.18121C13.2295 5.91859 11.0467 4.88068 9.89006 4.05498C8.62574 3.15154 8.24553 2.31113 8.24553 2.31113L8.29821 2.29222C8.29821 2.29222 8.67155 3.13263 9.92441 4.02346C11.0696 4.84286 13.2478 5.87446 17.0018 6.13499V6.18121Z" fill="#3AC2DB"/>
<path d="M6.54832 20.0753H1.64681V23.9874H6.54832V20.0753Z" fill="#EA5645"/>
<path d="M6.54832 22.9348H1.64681V23.9874H6.54832V22.9348Z" fill="#D13431"/>
<path d="M5.34356 20.0753H3.17224V23.9874H5.34356V20.0753Z" fill="#FFC23A"/>
<path d="M5.35272 22.9348H3.17224V23.9874H5.35272V22.9348Z" fill="#F9A431"/>
</g>
<defs>
<clipPath id="clip0_125_19120">
<rect width="20" height="24" fill="white"/>
</clipPath>
</defs>
</svg>
