<svg width="107" height="118" viewBox="0 0 107 118" fill="none" xmlns="http://www.w3.org/2000/svg">
<defs>
<linearGradient id="paint0_linear_634_9382" x1="12.2241" y1="10.1398" x2="85.0152" y2="131.457" gradientUnits="userSpaceOnUse">
<stop stop-color="#59DED2"/>
<stop offset="1" stop-color="#FAFAFA"/>
</linearGradient>
<linearGradient id="paint1_linear_634_9382" x1="97.7271" y1="10.1398" x2="24.936" y2="131.457" gradientUnits="userSpaceOnUse">
<stop stop-color="#FAFAFA"/>
<stop offset="1" stop-color="#59DED2"/>
</linearGradient>
</defs>
<path d="M21.7 20.584C21.532 21.032 21.252 21.844 21.252 22.348C21.252 23.58 22.12 24.364 23.38 24.364C24.472 24.364 25.116 24 25.424 23.104L26.628 19.744H34.02L35.196 23.104C35.532 24 36.26 24.364 37.268 24.364C38.444 24.364 39.424 23.468 39.424 22.348C39.424 21.844 39.144 21.032 38.976 20.584L33.432 5.156C32.928 3.728 32.004 3.476 30.968 3.476H29.876C28.756 3.476 28.028 3.84 27.636 4.876L21.7 20.584ZM33.012 16.552H27.636L30.352 8.46H30.408L33.012 16.552ZM44.6038 21.312C44.6038 23.356 45.6678 24 47.2918 24H54.0398C58.0158 24 61.4598 22.264 61.4598 18.036C61.4598 15.264 60.0598 13.752 57.9318 13.192V13.136C59.8358 12.38 60.7598 10.756 60.7598 9.048C60.7598 4.596 56.7558 3.84 53.3958 3.84H47.2918C45.6678 3.84 44.6038 4.484 44.6038 6.528V21.312ZM49.1958 15.04H52.4998C54.7398 15.04 56.8678 15.348 56.8678 17.784C56.8678 20.108 54.8518 20.472 53.0598 20.472H49.1958V15.04ZM49.1958 7.2H52.8358C54.5438 7.2 56.1678 7.732 56.1678 9.664C56.1678 11.26 55.1318 12.128 52.9758 12.128H49.1958V7.2ZM66.9668 13.92C66.9668 20.864 70.6908 24.476 76.9908 24.476C81.4428 24.476 84.9708 21.592 84.9708 18.68C84.9708 17.56 83.8508 16.916 82.7308 16.916C80.5188 16.916 80.6028 20.78 76.9908 20.78C73.0148 20.78 71.5588 17.588 71.5588 13.92C71.5588 9.552 73.9388 7.06 76.8228 7.06C81.0228 7.06 80.2388 10.7 82.8988 10.7C84.2708 10.7 84.9708 9.916 84.9708 8.628C84.9708 6.668 82.0868 3.364 76.8228 3.364C70.3268 3.364 66.9668 8.236 66.9668 13.92Z" fill="#FAFAFA"/>
<path d="M14 17V76.2398C13.9979 85.6737 17.2681 94.8142 23.2493 102.093C29.2305 109.372 37.55 114.336 46.7804 116.133C49.321 116.632 51.9046 116.879 54.4935 116.868C72.4135 116.623 89.9736 103.067 94.6657 86.2357C95.4796 83.2942 95.9117 80.2596 95.9512 77.2072C95.2591 82.1577 93.2621 86.833 90.1664 90.7499C89.8 91.2078 80.93 101.919 67.0272 101.068C64.2762 100.901 54.6606 100.314 49.6728 92.6846C47.8754 89.8468 46.9068 86.5604 46.8769 83.1982L46.7804 82.7984V56.8931C46.7824 47.4592 43.5123 38.3187 37.5311 31.0397C31.5499 23.7607 23.2304 18.7969 14 17Z" fill="url(#paint0_linear_634_9382)"/>
<path d="M95.9512 17V76.2398C95.9532 85.6737 92.6831 94.8142 86.7019 102.093C80.7206 109.372 72.4012 114.336 63.1707 116.133C60.6301 116.632 58.0466 116.879 55.4577 116.868C36.4938 117.858 18.9329 103.148 15.2855 86.2357C14.4716 83.2942 14.0395 80.2596 14 77.2072C14.6921 82.1577 16.6891 86.833 19.7848 90.7499C20.1512 91.2078 29.0212 101.919 42.924 101.068C45.6749 100.901 55.2906 100.314 60.2783 92.6846C62.0758 89.8468 63.0444 86.5604 63.0743 83.1982L63.1707 82.7984V56.8931C63.1687 47.4592 66.4389 38.3187 72.4201 31.0397C78.4013 23.7607 86.7208 18.7969 95.9512 17Z" fill="url(#paint1_linear_634_9382)"/>
<path d="M59.1197 93.2125C59.1197 93.3857 59.1884 93.5518 59.3105 93.6743C59.4327 93.7968 59.5984 93.8656 59.7711 93.8656C64.8994 93.8597 69.8161 91.8148 73.4423 88.1794C77.0686 84.544 79.1084 79.615 79.1143 74.4737V74.0766H78.1988C75.6924 74.076 73.2105 74.5707 70.8949 75.5323C68.5792 76.4938 66.4754 77.9035 64.7035 79.6806C62.9316 81.4578 61.5264 83.5676 60.5683 85.8895C59.6103 88.2114 59.118 90.6998 59.1197 93.2125Z" fill="#FFE089"/>
<path d="M59.2909 89.918C59.3288 90.086 59.4311 90.2322 59.5757 90.325C59.7203 90.4178 59.8955 90.4497 60.0634 90.4139C62.5329 89.869 64.8713 88.8413 66.9449 87.3896C69.0185 85.9379 70.7868 84.0906 72.1487 81.9532C73.5106 79.8158 74.4394 77.4302 74.8821 74.9327C75.3248 72.4352 75.2727 69.8747 74.7287 67.3974L74.6474 67.024L73.7404 67.2154C68.8239 68.3044 64.5396 71.3079 61.8299 75.5653C59.1202 79.8227 58.2069 84.9855 59.2909 89.918Z" fill="#FFD36C"/>
<path d="M58.6881 86.8263C58.7303 86.9015 58.787 86.9677 58.8548 87.0211C58.9227 87.0745 59.0005 87.1141 59.0837 87.1375C59.1669 87.1609 59.2538 87.1677 59.3395 87.1576C59.4252 87.1474 59.508 87.1204 59.583 87.0782C64.0685 84.5678 67.364 80.3836 68.7466 75.4434C70.1292 70.5032 69.4861 65.2103 66.9583 60.7257L66.7676 60.3884L65.9667 60.8354C61.5379 63.3066 58.2831 67.433 56.9181 72.3071C55.5531 77.1812 56.1898 82.4038 58.6881 86.8263Z" fill="#FFBE3B"/>
<path d="M50.7006 93.2125C50.7006 93.3857 50.6319 93.5518 50.5098 93.6743C50.3876 93.7968 50.222 93.8656 50.0492 93.8656C44.9209 93.8597 40.0042 91.8148 36.378 88.1794C32.7517 84.544 30.7119 79.615 30.7061 74.4737V74.0766H31.6215C34.1279 74.076 36.6098 74.5707 38.9255 75.5323C41.2411 76.4938 43.345 77.9035 45.1168 79.6806C46.8887 81.4578 48.2939 83.5676 49.252 85.8895C50.2101 88.2114 50.7023 90.6998 50.7006 93.2125Z" fill="#FFE089"/>
<path d="M50.5294 89.918C50.4915 90.086 50.3892 90.2322 50.2446 90.325C50.1 90.4178 49.9248 90.4497 49.757 90.4139C47.2874 89.869 44.949 88.8413 42.8754 87.3896C40.8018 85.9379 39.0335 84.0906 37.6716 81.9532C36.3098 79.8158 35.3809 77.4302 34.9382 74.9327C34.4955 72.4352 34.5476 69.8747 35.0916 67.3974L35.1729 67.024L36.0799 67.2154C40.9965 68.3044 45.2807 71.3079 47.9904 75.5653C50.7002 79.8227 51.6134 84.9855 50.5294 89.918Z" fill="#FFD36C"/>
<path d="M51.1322 86.8263C51.09 86.9015 51.0334 86.9677 50.9655 87.0211C50.8976 87.0745 50.8198 87.1141 50.7366 87.1375C50.6534 87.1609 50.5665 87.1677 50.4808 87.1576C50.3951 87.1474 50.3123 87.1204 50.2373 87.0782C45.7518 84.5678 42.4563 80.3836 41.0737 75.4434C39.6911 70.5032 40.3342 65.2103 42.862 60.7257L43.0527 60.3884L43.8536 60.8354C48.2824 63.3066 51.5372 67.433 52.9022 72.3071C54.2672 77.1812 53.6305 82.4038 51.1322 86.8263Z" fill="#FFBE3B"/>
<path d="M54.5519 67.7639C54.6024 67.8144 54.6625 67.8546 54.7286 67.882C54.7948 67.9094 54.8657 67.9235 54.9374 67.9235C55.009 67.9235 55.08 67.9094 55.1461 67.882C55.2123 67.8546 55.2724 67.8144 55.3229 67.7639C58.3436 64.751 60.04 60.6691 60.04 56.4134C60.04 52.1577 58.3436 48.0757 55.3229 45.0629L55.0952 44.8364L54.5556 45.3733C51.5713 48.3422 49.8945 52.3689 49.8938 56.5679C49.8931 60.7668 51.5686 64.794 54.5519 67.7639Z" fill="#E84126"/>
<path d="M62.1636 40.7067C58.0706 42.7532 52.1016 42.7532 48.1791 40.7067C43.9155 38.4896 38.6287 36.9547 32.3186 36.4431C26.179 35.9315 13.2178 35.9315 6.73711 38.3191C6.05494 38.6602 5.20222 39.0013 4.52005 39.3423C4.17896 39.5129 4.00842 39.5129 4.00842 40.3656V41.3889C4.00842 43.2648 3.83788 42.5827 5.03168 43.2648C7.58983 44.7997 9.12472 48.7222 9.80689 54.1796C10.8301 62.0246 14.7526 66.9703 20.8922 69.3579C26.5201 71.575 33.0008 71.4044 38.6287 69.1874C41.6985 67.9936 44.4271 65.9471 46.6442 62.7067C50.3962 57.0788 49.3729 53.4974 51.2489 48.5517C52.9543 44.2881 57.7295 44.2881 59.4349 48.5517C61.3109 53.4974 60.2877 56.9083 64.0396 62.7067C66.2567 65.9471 68.9854 67.9936 72.0551 69.1874C77.6831 71.575 83.9932 71.575 89.7916 69.3579C95.9312 66.9703 99.6831 62.0246 100.877 54.1796C101.559 48.7222 103.094 44.7997 105.652 43.2648C107.016 42.4121 106.675 43.2648 106.675 41.3889V40.3656C106.675 39.6834 106.675 39.5129 106.164 39.1718C105.482 38.8307 104.799 38.4896 103.947 38.1485C97.4661 35.7609 84.5048 35.7609 78.3652 36.2726C71.714 36.9547 66.4272 38.4896 62.1636 40.7067Z" fill="#363B3D"/>
<path d="M45.2802 43.7765C43.9159 42.7532 41.1872 41.9005 38.1174 41.3889C36.412 41.0478 34.3655 40.8772 32.3189 40.7067C27.7143 40.3656 22.7685 40.3656 19.5282 41.0478C17.4817 41.3889 15.9468 41.9005 15.4352 42.5827C13.0476 45.3114 13.5592 52.9858 15.9468 58.4432C16.629 59.8075 17.4817 61.1719 18.3344 62.1951C19.8693 63.9006 21.9158 64.9238 24.3034 65.606C25.8383 66.1176 27.3732 66.2882 29.0786 66.4587C31.8073 66.6292 34.536 66.2882 37.0942 65.606C37.6058 65.4354 37.9469 65.2649 38.288 65.0944C45.6213 61.854 47.4973 49.5749 46.3035 45.1408C46.1329 44.6292 45.7919 44.1175 45.2802 43.7765ZM95.5904 42.7532C95.4199 42.5827 95.4199 42.4121 95.2494 42.2416C94.2261 40.8772 89.2803 40.3656 83.823 40.3656C81.7765 40.3656 79.7299 40.5361 77.6834 40.7067C75.4664 40.8772 73.2493 41.2183 71.3733 41.5594C67.6214 42.4121 64.8927 43.6059 64.5516 45.1408C63.8694 47.8695 64.2105 53.3269 66.257 58.1021C67.1097 59.9781 68.133 61.854 69.6679 63.2184C70.8617 64.4122 72.226 65.2649 73.9315 65.606C74.2726 65.606 74.4431 65.7765 74.7842 65.7765C79.9005 66.9703 85.8695 66.6292 90.1331 64.0711C90.9858 63.5595 91.8385 62.8773 92.6912 62.1951C96.6137 57.761 98.1486 46.8462 95.5904 42.7532Z" fill="#DAF5F2"/>
<path d="M18.75 111.75C18.75 114.511 17.7613 116.75 15 116.75H6.25C1.25 116.75 1.25 99.25 6.25 99.25H15C17.7613 99.25 18.75 101.489 18.75 104.25V111.75Z" fill="#553788"/>
<path d="M42.5 114.25H41.25V101.75H42.5C42.8315 101.75 43.1495 101.618 43.3839 101.384C43.6183 101.149 43.75 100.832 43.75 100.5C43.75 100.168 43.6183 99.8505 43.3839 99.6161C43.1495 99.3817 42.8315 99.25 42.5 99.25H12.5C7.5 99.25 7.5 116.75 12.5 116.75H42.5C42.8315 116.75 43.1495 116.618 43.3839 116.384C43.6183 116.149 43.75 115.832 43.75 115.5C43.75 115.168 43.6183 114.851 43.3839 114.616C43.1495 114.382 42.8315 114.25 42.5 114.25Z" fill="#9266CC"/>
<path d="M42.715 114.25H13.75C11.25 114.25 11.25 101.75 13.75 101.75H42.715C44.095 101.75 44.095 114.25 42.715 114.25Z" fill="#CCD6DD"/>
<path d="M14.375 104.25H43.5625C43.3938 102.781 43.1125 101.75 42.715 101.75H13.75C11.6863 101.75 11.3275 110.26 12.6713 113.235C12.1813 109.536 12.7488 104.25 14.375 104.25Z" fill="#99AAB5"/>
<path d="M15 83C15 84.3261 14.4732 85.5979 13.5355 86.5355C12.5979 87.4732 11.3261 88 10 88H5C0 88 0 74.25 5 74.25H10C11.3261 74.25 12.5979 74.7768 13.5355 75.7145C14.4732 76.6521 15 77.9239 15 79.25V83Z" fill="#226699"/>
<path d="M38.75 85.5H37.5V76.75H38.75C39.0815 76.75 39.3995 76.6183 39.6339 76.3839C39.8683 76.1495 40 75.8315 40 75.5C40 75.1685 39.8683 74.8505 39.6339 74.6161C39.3995 74.3817 39.0815 74.25 38.75 74.25H8.75C3.75 74.25 3.75 88 8.75 88H38.75C39.0815 88 39.3995 87.8683 39.6339 87.6339C39.8683 87.3995 40 87.0815 40 86.75C40 86.4185 39.8683 86.1005 39.6339 85.8661C39.3995 85.6317 39.0815 85.5 38.75 85.5Z" fill="#55ACEE"/>
<path d="M38.965 85.5H10C7.5 85.5 7.5 76.75 10 76.75H38.965C40.345 76.75 40.345 85.5 38.965 85.5Z" fill="#CCD6DD"/>
<path d="M10 79.25H39.9063C39.7638 77.8438 39.4513 76.75 38.965 76.75H10C8.50879 76.75 7.91379 79.8613 8.20254 82.375C8.39754 80.6775 8.99129 79.25 10 79.25Z" fill="#99AAB5"/>
<path d="M25 94.25C25 95.5761 24.4732 96.8479 23.5355 97.7855C22.5979 98.7232 21.3261 99.25 20 99.25H7.5C2.5 99.25 2.5 88 7.5 88H20C21.3261 88 22.5979 88.5268 23.5355 89.4645C24.4732 90.4021 25 91.6739 25 93V94.25Z" fill="#F4900C"/>
<path d="M43.75 96.75H42.5V90.5H43.75C44.0815 90.5 44.3995 90.3683 44.6339 90.1339C44.8683 89.8995 45 89.5815 45 89.25C45 88.9185 44.8683 88.6005 44.6339 88.3661C44.3995 88.1317 44.0815 88 43.75 88H18.75C13.75 88 13.75 99.25 18.75 99.25H43.75C44.0815 99.25 44.3995 99.1183 44.6339 98.8839C44.8683 98.6495 45 98.3315 45 98C45 97.6685 44.8683 97.3505 44.6339 97.1161C44.3995 96.8817 44.0815 96.75 43.75 96.75Z" fill="#FFAC33"/>
<path d="M43.965 96.75H20C17.5 96.75 17.5 90.5 20 90.5H43.965C45.345 90.5 45.345 96.75 43.965 96.75Z" fill="#CCD6DD"/>
<path d="M19.9995 93H44.9795C44.8983 91.6725 44.562 90.5 43.9645 90.5H19.9995C18.407 90.5 17.8333 93.0338 18.2708 94.875C18.5183 93.8263 19.092 93 19.9995 93Z" fill="#99AAB5"/>
</svg>
