<svg width="55" height="56" viewBox="0 0 55 56" fill="none" xmlns="http://www.w3.org/2000/svg">
<path d="M36.6667 19.979C39.7215 24.0536 39.7215 31.9461 36.6667 36.0207M43.5417 11.9582C52.6809 20.6849 52.7359 35.3722 43.5417 44.0415M4.58337 34.7809V21.2165C4.58337 19.9011 5.61004 18.8332 6.87504 18.8332H15.093C15.3962 18.8321 15.6961 18.7696 15.9746 18.6495C16.253 18.5294 16.5043 18.3541 16.7132 18.1342L23.5882 10.3701C25.0319 8.86674 27.5 9.93237 27.5 12.0567V43.943C27.5 46.0834 25.0021 47.1399 23.5675 45.6067L16.7155 37.8861C16.506 37.66 16.2522 37.4794 15.9699 37.3556C15.6876 37.2318 15.3829 37.1675 15.0746 37.1665H6.87504C5.61004 37.1665 4.58337 36.0986 4.58337 34.7809Z" stroke="#018893" stroke-width="5" stroke-linecap="round" stroke-linejoin="round"/>
</svg>
