<svg width="40" height="40" viewBox="0 0 40 40" fill="none" xmlns="http://www.w3.org/2000/svg">
<rect width="40" height="40" rx="20" fill="#FAFAFA"/>
<path d="M29.0892 32.7215H14.2021C13.1742 32.7215 12.3394 31.8754 12.3394 30.8338V9.95133C12.3394 8.90965 13.1742 8.0636 14.2021 8.0636H23.6434L30.9519 15.6977V30.8338C30.9519 31.8779 30.117 32.7215 29.0892 32.7215Z" fill="#A8A8A8"/>
<path d="M23.6436 8.0636V13.942C23.6436 14.9127 24.4181 15.6977 25.376 15.6977H30.952L23.6436 8.0636Z" fill="#C4C4C4"/>
<path d="M23.7183 14.4556C23.7183 14.4556 23.6459 15.8811 25.2456 16.3506C25.3059 16.3678 25.3662 16.3824 25.429 16.3922C26.1576 16.5242 30.9495 17.3874 30.9495 17.2774C30.9495 17.1576 30.9495 15.6978 30.9495 15.6978H25.3759C25.3759 15.6978 23.9837 15.6488 23.7183 14.4556Z" fill="#434343"/>
<path d="M29.0891 32.7215C29.0891 32.7117 29.2001 32.7239 29.41 32.6823C29.6175 32.6432 29.9336 32.5478 30.2545 32.2838C30.5657 32.0221 30.889 31.5649 30.9204 30.9511C30.9301 30.3422 30.918 29.6356 30.9204 28.8457C30.9156 25.684 30.9083 21.1603 30.8987 15.6952L30.9132 15.7319C28.7006 13.4236 26.2323 10.8512 23.5999 8.1027L23.6433 8.12226C21.8916 8.12226 20.0699 8.12471 18.1952 8.12471C17.2566 8.12471 16.3059 8.12471 15.3456 8.12471C15.1044 8.12471 14.8631 8.12471 14.6218 8.12471C14.3805 8.12715 14.1344 8.11248 13.9076 8.1516C13.4443 8.22741 13.0124 8.49883 12.7374 8.89007C12.5468 9.16149 12.4285 9.48671 12.4068 9.81926C12.3948 10.1543 12.402 10.5039 12.3996 10.8438C12.3996 11.5285 12.3996 12.2058 12.3996 12.8807C12.3996 14.228 12.3996 15.5583 12.3996 16.864C12.3972 19.4755 12.3972 21.9942 12.3948 24.3929C12.3948 25.5936 12.3923 26.7624 12.3923 27.8994C12.3923 28.4667 12.3923 29.0267 12.3899 29.5793C12.3899 29.8556 12.3899 30.1295 12.3899 30.3985C12.3948 30.6699 12.373 30.9413 12.4237 31.1932C12.5202 31.7042 12.8435 32.1493 13.2682 32.4085C13.4805 32.5381 13.7146 32.6212 13.9558 32.6554C14.1947 32.6848 14.4457 32.6701 14.6893 32.675C15.6665 32.6774 16.6051 32.6774 17.5003 32.6799C21.0785 32.6872 23.9739 32.6946 25.9814 32.6995C26.9803 32.7043 27.7572 32.7092 28.288 32.7117C28.5486 32.7141 28.7489 32.7166 28.8888 32.719C29.0191 32.719 29.0891 32.7215 29.0891 32.7215C29.0891 32.7215 29.0191 32.7264 28.884 32.7288C28.7465 32.7312 28.5462 32.7312 28.2832 32.7361C27.7524 32.7386 26.9754 32.7435 25.9765 32.7484C23.9715 32.7532 21.0737 32.7606 17.4955 32.7679C16.6003 32.7704 15.6617 32.7704 14.6845 32.7728C14.4408 32.7679 14.1947 32.785 13.939 32.7532C13.6856 32.719 13.4371 32.631 13.2127 32.4965C12.7663 32.2275 12.4237 31.7556 12.32 31.2152C12.2645 30.9438 12.2862 30.6699 12.2813 30.4009C12.2813 30.1295 12.2813 29.8556 12.2813 29.5818C12.2813 29.0316 12.2813 28.4716 12.2789 27.9019C12.2789 26.7648 12.2765 25.596 12.2765 24.3954C12.2765 21.9966 12.2741 19.478 12.2717 16.8665C12.2717 15.5607 12.2717 14.2329 12.2717 12.8832C12.2717 12.2083 12.2717 11.5309 12.2717 10.8463C12.2741 10.5015 12.2645 10.1665 12.2789 9.81193C12.3007 9.45737 12.4261 9.1077 12.6312 8.81916C12.9256 8.40102 13.3864 8.11003 13.8811 8.02934C14.132 7.98777 14.3757 8.00489 14.617 8C14.8582 8 15.0995 8 15.3408 8C16.3035 8 17.2542 8 18.1904 8C20.0651 8 21.8892 8.00244 23.6385 8.00244H23.665L23.6819 8.02201C26.3119 10.7729 28.7754 13.3502 30.9856 15.661L31 15.6756V15.6976C30.9904 21.1628 30.9831 25.6865 30.9783 28.8482C30.9735 29.638 30.9807 30.3398 30.9662 30.956C30.9301 31.5844 30.5947 32.0466 30.2738 32.3107C29.9432 32.5772 29.6223 32.6677 29.4124 32.7019C29.3062 32.719 29.2242 32.7239 29.1711 32.7239C29.1156 32.7239 29.0891 32.7215 29.0891 32.7215Z" fill="#263238"/>
<path d="M30.9519 15.6977C30.9519 15.7026 30.9036 15.7074 30.8095 15.7099C30.7009 15.7123 30.5658 15.7172 30.3993 15.7221C30.0253 15.727 29.5138 15.7343 28.8889 15.7417C28.2471 15.7466 27.487 15.749 26.6498 15.7539C26.2275 15.7539 25.7836 15.7539 25.3251 15.7539C24.8498 15.7441 24.3624 15.5241 24.0319 15.1377C23.8654 14.947 23.7399 14.722 23.6675 14.4848C23.5903 14.2501 23.5807 13.9933 23.5855 13.7635C23.5879 13.2989 23.5879 12.8514 23.5903 12.4235C23.5952 11.5725 23.6 10.8047 23.6048 10.1518C23.612 9.51852 23.6193 9.00013 23.6241 8.62112C23.6289 8.4524 23.6338 8.31302 23.6362 8.20543C23.641 8.11006 23.6434 8.06116 23.6482 8.06116C23.6531 8.06116 23.6579 8.11006 23.6603 8.20543C23.6627 8.31546 23.6675 8.4524 23.6724 8.62112C23.6772 9.00013 23.6844 9.51852 23.6917 10.1518C23.6965 10.8023 23.6989 11.5725 23.7061 12.4235C23.7061 12.8514 23.7086 13.2989 23.711 13.7635C23.7061 13.9982 23.7158 14.2232 23.7882 14.4457C23.8582 14.6658 23.974 14.8761 24.1284 15.0546C24.4372 15.414 24.8884 15.6194 25.3324 15.6292C25.7908 15.6316 26.2324 15.6341 26.6546 15.6365C27.4943 15.6414 28.2519 15.6463 28.8937 15.6512C29.5186 15.6585 30.0302 15.6659 30.4041 15.6708C30.5706 15.6757 30.7082 15.6806 30.8143 15.683C30.9036 15.6879 30.9519 15.6928 30.9519 15.6977Z" fill="#263238"/>
<path d="M23.3613 13.3086C23.3613 13.3428 21.6023 13.3721 19.4332 13.3721C17.2641 13.3721 15.5051 13.3428 15.5051 13.3086C15.5051 13.2743 17.2641 13.245 19.4332 13.245C21.6023 13.245 23.3613 13.2719 23.3613 13.3086Z" fill="#263238"/>
<path d="M27.0889 16.2403C27.0889 16.2746 24.4951 16.3039 21.2981 16.3039C18.0987 16.3039 15.5073 16.2746 15.5073 16.2403C15.5073 16.2061 18.0987 16.1768 21.2981 16.1768C24.4951 16.1768 27.0889 16.2037 27.0889 16.2403Z" fill="#263238"/>
<path d="M27.0889 19.1722C27.0889 19.2065 24.4951 19.2358 21.2981 19.2358C18.0987 19.2358 15.5073 19.2065 15.5073 19.1722C15.5073 19.138 18.0987 19.1086 21.2981 19.1086C24.4951 19.1086 27.0889 19.1355 27.0889 19.1722Z" fill="#263238"/>
<path d="M27.0889 22.1041C27.0889 22.1383 24.4951 22.1677 21.2981 22.1677C18.0987 22.1677 15.5073 22.1383 15.5073 22.1041C15.5073 22.0699 18.0987 22.0405 21.2981 22.0405C24.4951 22.0405 27.0889 22.0674 27.0889 22.1041Z" fill="#263238"/>
<path d="M27.0889 25.036C27.0889 25.0702 24.4951 25.0996 21.2981 25.0996C18.0987 25.0996 15.5073 25.0702 15.5073 25.036C15.5073 25.0018 18.0987 24.9724 21.2981 24.9724C24.4951 24.9724 27.0889 25.0018 27.0889 25.036Z" fill="#263238"/>
<path d="M27.0889 27.9679C27.0889 28.0021 24.4951 28.0315 21.2981 28.0315C18.0987 28.0315 15.5073 28.0021 15.5073 27.9679C15.5073 27.9336 18.0987 27.9043 21.2981 27.9043C24.4951 27.9043 27.0889 27.9336 27.0889 27.9679Z" fill="#263238"/>
<path d="M20.6274 28.6525H10.0182C9.45602 28.6525 9 28.1903 9 27.6206V23.9258C9 23.3561 9.45602 22.8939 10.0182 22.8939H20.6274C21.1896 22.8939 21.6456 23.3561 21.6456 23.9258V27.6206C21.6456 28.1903 21.1896 28.6525 20.6274 28.6525Z" fill="#FF725E"/>
<path d="M13.9511 25.557C13.9511 26.0412 13.5916 26.3444 13.0198 26.3444H12.5879V26.9435H12.0908V24.7672H13.0198C13.5916 24.7697 13.9511 25.0704 13.9511 25.557ZM13.4468 25.557C13.4468 25.3174 13.2924 25.178 12.9908 25.178H12.5854V25.9336H12.9908C13.2948 25.9336 13.4468 25.7942 13.4468 25.557Z" fill="white"/>
<path d="M14.3035 24.7695H15.2782C15.9804 24.7695 16.4629 25.1974 16.4629 25.8577C16.4629 26.5154 15.9804 26.9458 15.2782 26.9458H14.3035V24.7695ZM15.2541 26.5301C15.6812 26.5301 15.9587 26.2734 15.9587 25.8552C15.9587 25.4395 15.6788 25.1803 15.2541 25.1803H14.8005V26.5301H15.2541Z" fill="white"/>
<path d="M17.334 25.1731V25.7478H18.328V26.1512H17.334V26.9435H16.8369V24.7672H18.4583V25.1707H17.334V25.1731Z" fill="white"/>
</svg>
