<svg width="40" height="40" viewBox="0 0 40 40" fill="none" xmlns="http://www.w3.org/2000/svg">
<rect width="40" height="40" rx="20" fill="#FAFAFA"/>
<g clip-path="url(#clip0_442_62331)">
<path d="M25.7822 33.9957L12.0687 32.5522C11.649 32.5079 11.3441 32.1251 11.3874 31.6963L13.7626 8.14056C13.8246 7.53123 14.3573 7.08855 14.9528 7.15191L28.0266 8.52769C28.6221 8.59019 29.0554 9.13442 28.9942 9.74376L26.619 33.2995C26.5765 33.7283 26.201 34.0399 25.7822 33.9957Z" fill="#E8505B"/>
<path opacity="0.4" d="M25.7822 33.9957L12.0687 32.5522C11.649 32.5079 11.3441 32.1251 11.3874 31.6963L13.7626 8.14056C13.8246 7.53123 14.3573 7.08855 14.9528 7.15191L28.0266 8.52769C28.6221 8.59019 29.0554 9.13442 28.9942 9.74376L26.619 33.2995C26.5765 33.7283 26.201 34.0399 25.7822 33.9957Z" fill="#FFBE3B"/>
<path d="M24.3986 33.8502L10.6859 32.4067C10.2662 32.3624 9.96126 31.9797 10.0046 31.5509L12.379 7.99508C12.441 7.38661 12.9736 6.94393 13.5691 7.00643L26.643 8.38221C27.2385 8.44471 27.6717 8.98894 27.6106 9.59828L25.2353 33.1541C25.1929 33.5829 24.8182 33.8945 24.3986 33.8502Z" fill="#F17A59"/>
<path d="M17.191 29.7572L12.4627 29.2599C12.3497 29.2477 12.2673 29.1444 12.2792 29.029L12.4712 27.128C12.4831 27.0126 12.5842 26.9284 12.6972 26.9406L17.4255 27.4379C17.5385 27.4501 17.6209 27.5534 17.609 27.6688L17.417 29.5697C17.4051 29.6852 17.304 29.7694 17.191 29.7572Z" fill="#E8505B"/>
<g opacity="0.4">
<path d="M17.191 29.7572L12.4627 29.2599C12.3497 29.2477 12.2673 29.1444 12.2792 29.029L12.4712 27.128C12.4831 27.0126 12.5842 26.9284 12.6972 26.9406L17.4255 27.4379C17.5385 27.4501 17.6209 27.5534 17.609 27.6688L17.417 29.5697C17.4051 29.6852 17.304 29.7694 17.191 29.7572Z" fill="black"/>
</g>
<path d="M13.3347 9.63976L12.8083 14.859L25.8298 16.23L26.3562 11.0108L13.3347 9.63976Z" fill="#FAFAFA"/>
<path d="M25.8305 16.2294C25.8305 16.2294 25.833 16.1973 25.8381 16.1365C25.8441 16.0749 25.8526 15.9846 25.8636 15.8666C25.8866 15.6287 25.9205 15.2798 25.9647 14.8293C26.0531 13.9292 26.1822 12.6263 26.3419 11.0084L26.3555 11.0257C23.0781 10.6829 18.4534 10.1985 13.3334 9.66212H13.3326L13.3572 9.64216C13.1729 11.4676 12.9945 13.2313 12.8297 14.8614L12.811 14.838C16.5794 15.239 19.8313 15.5845 22.1428 15.8301C23.299 15.9542 24.2198 16.0532 24.8527 16.1218C25.1687 16.1565 25.4125 16.1825 25.5782 16.2008C25.6606 16.2103 25.7226 16.2173 25.7659 16.2216C25.8076 16.2259 25.8305 16.2294 25.8305 16.2294C25.8305 16.2294 25.8101 16.2285 25.7685 16.2242C25.726 16.2199 25.664 16.2138 25.5824 16.206C25.4176 16.1895 25.1747 16.1643 24.8604 16.1331C24.2283 16.068 23.3092 15.9733 22.1538 15.8544C19.8381 15.6131 16.5803 15.2737 12.8059 14.8805L12.7847 14.8779L12.7872 14.8562C12.9512 13.2261 13.1287 11.4624 13.3122 9.63695L13.3148 9.61438L13.3368 9.61698H13.3377C18.4568 10.1586 23.0815 10.6482 26.358 10.9945L26.3733 10.9962L26.3716 11.0119C26.2043 12.6324 26.0701 13.9388 25.9775 14.8397C25.9307 15.2885 25.8942 15.6357 25.8696 15.8727C25.8568 15.9898 25.8475 16.0784 25.8407 16.14C25.8339 16.1999 25.8305 16.2294 25.8305 16.2294Z" fill="#263238"/>
<path d="M15.1355 19.4922L13.2742 19.2961C13.1774 19.2856 13.106 19.1971 13.1162 19.0982L13.3082 17.1964C13.3184 17.0974 13.405 17.0245 13.5019 17.0349L15.3631 17.2311C15.46 17.2415 15.5313 17.33 15.5211 17.429L15.3292 19.3308C15.3198 19.4306 15.2332 19.5026 15.1355 19.4922Z" fill="#E8505B"/>
<g opacity="0.4">
<path d="M15.1355 19.4922L13.2742 19.2961C13.1774 19.2856 13.106 19.1971 13.1162 19.0982L13.3082 17.1964C13.3184 17.0974 13.405 17.0245 13.5019 17.0349L15.3631 17.2311C15.46 17.2415 15.5313 17.33 15.5211 17.429L15.3292 19.3308C15.3198 19.4306 15.2332 19.5026 15.1355 19.4922Z" fill="black"/>
</g>
<path d="M14.7939 19.4566L12.9327 19.2605C12.8358 19.2501 12.7645 19.1615 12.7747 19.0626L12.9666 17.1608C12.9768 17.0618 13.0635 16.9889 13.1603 16.9993L15.0216 17.1955C15.1184 17.2059 15.1898 17.2945 15.1796 17.3934L14.9876 19.2952C14.9774 19.395 14.8908 19.4671 14.7939 19.4566Z" fill="#263238"/>
<path d="M14.1815 17.7623L14.0864 18.705L13.8732 18.6824L13.9505 17.9151L13.7661 17.896L13.784 17.7206L14.1815 17.7623Z" fill="white"/>
<path d="M18.2217 19.8177L16.3604 19.6216C16.2636 19.6112 16.1922 19.5226 16.2024 19.4237L16.3944 17.5219C16.4046 17.4229 16.4912 17.35 16.5881 17.3604L18.4493 17.5566C18.5462 17.567 18.6175 17.6555 18.6073 17.7545L18.4153 19.6563C18.406 19.7552 18.3193 19.8282 18.2217 19.8177Z" fill="#E8505B"/>
<g opacity="0.4">
<path d="M18.2217 19.8177L16.3604 19.6216C16.2636 19.6112 16.1922 19.5226 16.2024 19.4237L16.3944 17.5219C16.4046 17.4229 16.4912 17.35 16.5881 17.3604L18.4493 17.5566C18.5462 17.567 18.6175 17.6555 18.6073 17.7545L18.4153 19.6563C18.406 19.7552 18.3193 19.8282 18.2217 19.8177Z" fill="black"/>
</g>
<path d="M17.8801 19.7813L16.0188 19.586C15.922 19.5756 15.8506 19.487 15.8608 19.3881L16.0528 17.4863C16.063 17.3873 16.1497 17.3144 16.2465 17.3248L18.1078 17.521C18.2046 17.5314 18.276 17.62 18.2658 17.7189L18.0738 19.6207C18.0644 19.7197 17.9778 19.7917 17.8801 19.7813Z" fill="#263238"/>
<path d="M17.5241 18.8872L17.5063 19.0652L16.8088 18.9914L16.8233 18.8499L17.2141 18.5444C17.3041 18.4732 17.3228 18.4263 17.3279 18.3812C17.3355 18.3074 17.2897 18.2588 17.192 18.2484C17.113 18.2397 17.0425 18.264 16.9915 18.3222L16.8462 18.2032C16.9278 18.1043 17.0645 18.0496 17.2302 18.067C17.4358 18.0887 17.5623 18.2111 17.5445 18.3821C17.5352 18.4732 17.502 18.5548 17.3602 18.6633L17.1274 18.8456L17.5241 18.8872Z" fill="white"/>
<path d="M21.4216 20.1545L19.5603 19.9584C19.4635 19.9479 19.3921 19.8594 19.4023 19.7605L19.5943 17.8587C19.6045 17.7597 19.6912 17.6868 19.788 17.6972L21.6493 17.8934C21.7461 17.9038 21.8175 17.9923 21.8073 18.0913L21.6153 19.9931C21.6059 20.092 21.5185 20.1649 21.4216 20.1545Z" fill="#E8505B"/>
<g opacity="0.4">
<path d="M21.4216 20.1545L19.5603 19.9584C19.4635 19.9479 19.3921 19.8594 19.4023 19.7605L19.5943 17.8587C19.6045 17.7597 19.6912 17.6868 19.788 17.6972L21.6493 17.8934C21.7461 17.9038 21.8175 17.9923 21.8073 18.0913L21.6153 19.9931C21.6059 20.092 21.5185 20.1649 21.4216 20.1545Z" fill="black"/>
</g>
<path d="M21.0801 20.1181L19.2188 19.9219C19.1219 19.9115 19.0506 19.823 19.0608 19.724L19.2528 17.8222C19.263 17.7233 19.3496 17.6504 19.4465 17.6608L21.3077 17.8569C21.4046 17.8674 21.4759 17.9559 21.4657 18.0549L21.2737 19.9566C21.2635 20.0565 21.1769 20.1285 21.0801 20.1181Z" fill="#263238"/>
<path d="M20.7275 19.1129C20.7114 19.2718 20.5771 19.4046 20.3146 19.3768C20.1855 19.3629 20.0564 19.3126 19.9731 19.2388L20.0734 19.0808C20.1379 19.1425 20.2322 19.1833 20.3282 19.1937C20.4353 19.205 20.5049 19.1676 20.5134 19.0904C20.5202 19.0192 20.4735 18.9689 20.3529 18.9567L20.2552 18.9463L20.2696 18.8022L20.482 18.6026L20.0895 18.5609L20.1074 18.3856L20.753 18.4533L20.7385 18.5947L20.5058 18.8152C20.668 18.8604 20.7411 18.9741 20.7275 19.1129Z" fill="white"/>
<path d="M24.6216 20.4913L22.7603 20.2951C22.6635 20.2847 22.5921 20.1962 22.6023 20.0972L22.7943 18.1955C22.8045 18.0965 22.8911 18.0236 22.988 18.034L24.8492 18.2302C24.9461 18.2406 25.0174 18.3291 25.0072 18.4281L24.8152 20.3299C24.8051 20.4288 24.7184 20.5017 24.6216 20.4913Z" fill="#E8505B"/>
<g opacity="0.4">
<path d="M24.6216 20.4913L22.7603 20.2951C22.6635 20.2847 22.5921 20.1962 22.6023 20.0972L22.7943 18.1955C22.8045 18.0965 22.8911 18.0236 22.988 18.034L24.8492 18.2302C24.9461 18.2406 25.0174 18.3291 25.0072 18.4281L24.8152 20.3299C24.8051 20.4288 24.7184 20.5017 24.6216 20.4913Z" fill="black"/>
</g>
<path d="M24.2878 20.4549L22.4266 20.2587C22.3297 20.2483 22.2584 20.1598 22.2685 20.0608L22.4605 18.159C22.4707 18.0601 22.5574 17.9872 22.6542 17.9976L24.5155 18.1937C24.6123 18.2042 24.6837 18.2927 24.6735 18.3916L24.4815 20.2934C24.4713 20.3933 24.3847 20.4653 24.2878 20.4549Z" fill="#263238"/>
<path d="M22.9711 19.0942L22.9624 19.1805L23.9511 19.2846L23.9598 19.1983L22.9711 19.0942Z" fill="white"/>
<path d="M23.6652 18.7658C23.6558 18.856 23.5768 18.922 23.4885 18.9124C23.4001 18.9029 23.3355 18.8222 23.3449 18.7319C23.3542 18.6416 23.4332 18.5757 23.5216 18.5852C23.6099 18.5948 23.6745 18.6755 23.6652 18.7658Z" fill="white"/>
<path d="M23.5768 19.6459C23.5674 19.7362 23.4884 19.8021 23.4001 19.7926C23.3117 19.783 23.2472 19.7023 23.2565 19.612C23.2659 19.5218 23.3449 19.4558 23.4332 19.4653C23.5216 19.4749 23.5861 19.5556 23.5768 19.6459Z" fill="white"/>
<path d="M14.8015 22.8054L12.9402 22.6092C12.8434 22.5988 12.772 22.5103 12.7822 22.4113L12.9742 20.5095C12.9844 20.4106 13.0711 20.3377 13.1679 20.3481L15.0292 20.5443C15.126 20.5547 15.1974 20.6432 15.1872 20.7422L14.9952 22.644C14.9858 22.7438 14.8983 22.8158 14.8015 22.8054Z" fill="#E8505B"/>
<g opacity="0.4">
<path d="M14.8015 22.8054L12.9402 22.6092C12.8434 22.5988 12.772 22.5103 12.7822 22.4113L12.9742 20.5095C12.9844 20.4106 13.0711 20.3377 13.1679 20.3481L15.0292 20.5443C15.126 20.5547 15.1974 20.6432 15.1872 20.7422L14.9952 22.644C14.9858 22.7438 14.8983 22.8158 14.8015 22.8054Z" fill="black"/>
</g>
<path d="M14.4599 22.7698L12.5987 22.5737C12.5018 22.5632 12.4305 22.4747 12.4407 22.3757L12.6327 20.474C12.6428 20.375 12.7295 20.3021 12.8263 20.3125L14.6876 20.5087C14.7844 20.5191 14.8558 20.6076 14.8456 20.7066L14.6536 22.6084C14.6434 22.7082 14.5568 22.7802 14.4599 22.7698Z" fill="#263238"/>
<path d="M14.042 21.8489L13.8916 21.8332L13.8721 22.0312L13.6639 22.0095L13.6835 21.8115L13.1865 21.7595L13.201 21.6128L13.6962 21.0607L13.9205 21.0842L13.4601 21.6084L13.7081 21.6345L13.726 21.4583L13.9273 21.4791L13.9095 21.6553L14.0598 21.6709L14.042 21.8489Z" fill="white"/>
<path d="M17.8877 23.1309L16.0264 22.9347C15.9296 22.9243 15.8582 22.8358 15.8684 22.7368L16.0604 20.835C16.0706 20.7361 16.1572 20.6632 16.2541 20.6736L18.1153 20.8698C18.2122 20.8802 18.2835 20.9687 18.2733 21.0677L18.0814 22.9695C18.072 23.0684 17.9854 23.1405 17.8877 23.1309Z" fill="#E8505B"/>
<g opacity="0.4">
<path d="M17.8877 23.1309L16.0264 22.9347C15.9296 22.9243 15.8582 22.8358 15.8684 22.7368L16.0604 20.835C16.0706 20.7361 16.1572 20.6632 16.2541 20.6736L18.1153 20.8698C18.2122 20.8802 18.2835 20.9687 18.2733 21.0677L18.0814 22.9695C18.072 23.0684 17.9854 23.1405 17.8877 23.1309Z" fill="black"/>
</g>
<path d="M17.5461 23.0945L15.6849 22.8983C15.588 22.8879 15.5167 22.7993 15.5268 22.7004L15.7188 20.7986C15.729 20.6997 15.8157 20.6267 15.9125 20.6372L17.7738 20.8333C17.8706 20.8437 17.942 20.9323 17.9318 21.0312L17.7398 22.933C17.7305 23.0328 17.643 23.1049 17.5461 23.0945Z" fill="#263238"/>
<path d="M17.1001 22.0711C17.0831 22.2378 16.9488 22.3706 16.6855 22.3428C16.5581 22.3289 16.4272 22.2786 16.344 22.2048L16.4451 22.0468C16.5096 22.1084 16.6022 22.1492 16.6982 22.1597C16.8053 22.1709 16.8758 22.1319 16.8834 22.0555C16.8911 21.9817 16.8486 21.9279 16.6812 21.9105L16.4451 21.8854L16.5462 21.3602L17.1085 21.4193L17.0907 21.5946L16.7059 21.5538L16.6736 21.7309L16.7484 21.7387C17.0219 21.7682 17.117 21.9045 17.1001 22.0711Z" fill="white"/>
<path d="M21.0879 23.4676L19.2266 23.2715C19.1298 23.2611 19.0584 23.1725 19.0686 23.0736L19.2606 21.1718C19.2708 21.0728 19.3574 20.9999 19.4543 21.0103L21.3155 21.2065C21.4124 21.2169 21.4837 21.3054 21.4735 21.4044L21.2816 23.3062C21.2722 23.4051 21.1847 23.4772 21.0879 23.4676Z" fill="#E8505B"/>
<g opacity="0.4">
<path d="M21.0879 23.4676L19.2266 23.2715C19.1298 23.2611 19.0584 23.1725 19.0686 23.0736L19.2606 21.1718C19.2708 21.0728 19.3574 20.9999 19.4543 21.0103L21.3155 21.2065C21.4124 21.2169 21.4837 21.3054 21.4735 21.4044L21.2816 23.3062C21.2722 23.4051 21.1847 23.4772 21.0879 23.4676Z" fill="black"/>
</g>
<path d="M20.7463 23.4312L18.8851 23.235C18.7882 23.2246 18.7169 23.1361 18.727 23.0371L18.919 21.1353C18.9292 21.0364 19.0159 20.9635 19.1127 20.9739L20.974 21.1701C21.0708 21.1805 21.1422 21.269 21.132 21.368L20.94 23.2698C20.9298 23.3696 20.8432 23.4416 20.7463 23.4312Z" fill="#263238"/>
<path d="M20.365 22.4139C20.3454 22.6066 20.1789 22.7116 19.9844 22.6908C19.7304 22.6639 19.5885 22.4842 19.6191 22.1804C19.6522 21.8549 19.8629 21.6926 20.1407 21.7221C20.2384 21.7325 20.331 21.7655 20.3913 21.8141L20.2962 21.966C20.2486 21.9252 20.19 21.907 20.128 21.9009C19.9742 21.8844 19.8655 21.9669 19.8408 22.1466C19.9003 22.0971 19.981 22.0771 20.077 22.0867C20.2545 22.1049 20.3828 22.236 20.365 22.4139ZM20.1568 22.4026C20.1653 22.3167 20.1093 22.2551 20.0141 22.2446C19.9207 22.2351 19.8485 22.2872 19.84 22.3696C19.8315 22.4504 19.885 22.5163 19.9878 22.5267C20.0795 22.5363 20.1483 22.4886 20.1568 22.4026Z" fill="white"/>
<path d="M24.2878 23.8044L22.4266 23.6083C22.3297 23.5978 22.2584 23.5093 22.2685 23.4104L22.4605 21.5086C22.4707 21.4096 22.5574 21.3367 22.6542 21.3471L24.5155 21.5433C24.6123 21.5537 24.6837 21.6422 24.6735 21.7412L24.4815 23.643C24.4713 23.7419 24.3847 23.8148 24.2878 23.8044Z" fill="#E8505B"/>
<g opacity="0.4">
<path d="M24.2878 23.8044L22.4266 23.6083C22.3297 23.5978 22.2584 23.5093 22.2685 23.4104L22.4605 21.5086C22.4707 21.4096 22.5574 21.3367 22.6542 21.3471L24.5155 21.5433C24.6123 21.5537 24.6837 21.6422 24.6735 21.7412L24.4815 23.643C24.4713 23.7419 24.3847 23.8148 24.2878 23.8044Z" fill="black"/>
</g>
<path d="M23.9455 23.768L22.0843 23.5718C21.9874 23.5614 21.9161 23.4729 21.9263 23.3739L22.1183 21.4721C22.1284 21.3732 22.2151 21.3003 22.3119 21.3107L24.1732 21.5069C24.27 21.5173 24.3414 21.6058 24.3312 21.7048L24.1392 23.6065C24.1299 23.7064 24.0432 23.7784 23.9455 23.768Z" fill="#263238"/>
<path d="M23.4928 22.1909L22.7124 22.8198L22.765 22.8879L23.5454 22.2591L23.4928 22.1909Z" fill="white"/>
<path d="M22.8489 22.1187L22.783 22.1735L23.4101 22.9613L23.476 22.9066L22.8489 22.1187Z" fill="white"/>
<path d="M14.4702 26.0917L12.6089 25.8955C12.5121 25.8851 12.4407 25.7965 12.4509 25.6976L12.6429 23.7958C12.6531 23.6968 12.7398 23.6239 12.8366 23.6344L14.6979 23.8305C14.7947 23.8409 14.8661 23.9295 14.8559 24.0284L14.6639 25.9311C14.6545 26.03 14.567 26.1021 14.4702 26.0917Z" fill="#E8505B"/>
<g opacity="0.4">
<path d="M14.4702 26.0917L12.6089 25.8955C12.5121 25.8851 12.4407 25.7965 12.4509 25.6976L12.6429 23.7958C12.6531 23.6968 12.7398 23.6239 12.8366 23.6344L14.6979 23.8305C14.7947 23.8409 14.8661 23.9295 14.8559 24.0284L14.6639 25.9311C14.6545 26.03 14.567 26.1021 14.4702 26.0917Z" fill="black"/>
</g>
<path d="M14.1286 26.0561L12.2674 25.8599C12.1705 25.8495 12.0992 25.761 12.1094 25.662L12.3014 23.7602C12.3116 23.6613 12.3982 23.5884 12.495 23.5988L14.3563 23.7949C14.4531 23.8054 14.5245 23.8939 14.5143 23.9928L14.3223 25.8946C14.3121 25.9936 14.2255 26.0665 14.1286 26.0561Z" fill="#263238"/>
<path d="M13.6632 24.3774L13.6487 24.5189L13.2248 25.2836L12.9929 25.2593L13.4007 24.5293L13.0949 24.4972L13.0796 24.6508L12.8901 24.6308L12.9233 24.2993L13.6632 24.3774Z" fill="white"/>
<path d="M17.5564 26.4171L15.6951 26.2209C15.5983 26.2105 15.5269 26.122 15.5371 26.023L15.7291 24.1212C15.7393 24.0223 15.8259 23.9494 15.9228 23.9598L17.784 24.156C17.8809 24.1664 17.9522 24.2549 17.942 24.3539L17.7501 26.2557C17.7407 26.3546 17.6541 26.4266 17.5564 26.4171Z" fill="#E8505B"/>
<g opacity="0.4">
<path d="M17.5564 26.4171L15.6951 26.2209C15.5983 26.2105 15.5269 26.122 15.5371 26.023L15.7291 24.1212C15.7393 24.0223 15.8259 23.9494 15.9228 23.9598L17.784 24.156C17.8809 24.1664 17.9522 24.2549 17.942 24.3539L17.7501 26.2557C17.7407 26.3546 17.6541 26.4266 17.5564 26.4171Z" fill="black"/>
</g>
<path d="M17.2148 26.3807L15.3536 26.1845C15.2567 26.1741 15.1854 26.0855 15.1955 25.9866L15.3875 24.0848C15.3977 23.9859 15.4844 23.9129 15.5812 23.9234L17.4425 24.1195C17.5393 24.1299 17.6107 24.2185 17.6005 24.3174L17.4085 26.2192C17.3992 26.319 17.3117 26.3911 17.2148 26.3807Z" fill="#263238"/>
<path d="M16.8418 25.3885C16.8239 25.5665 16.6574 25.662 16.423 25.6368C16.1894 25.6125 16.0466 25.484 16.0645 25.307C16.0747 25.2063 16.1333 25.136 16.2267 25.0995C16.1622 25.0492 16.1307 24.9788 16.1392 24.8947C16.1562 24.7289 16.3117 24.6403 16.5207 24.6629C16.733 24.6855 16.8673 24.8044 16.8503 24.9702C16.8418 25.0552 16.7959 25.1169 16.7229 25.1525C16.8078 25.2063 16.852 25.287 16.8418 25.3885ZM16.626 25.359C16.6345 25.2757 16.5725 25.2175 16.4655 25.2063C16.3601 25.195 16.2888 25.2392 16.2803 25.3226C16.2718 25.4059 16.3321 25.4658 16.4374 25.4762C16.5453 25.4875 16.6175 25.4424 16.626 25.359ZM16.3499 24.9259C16.3431 24.9971 16.3941 25.0474 16.4807 25.057C16.5691 25.0665 16.6303 25.0275 16.6371 24.9563C16.6447 24.8825 16.5912 24.8313 16.5037 24.8226C16.4187 24.8131 16.3576 24.8513 16.3499 24.9259Z" fill="white"/>
<path d="M20.7566 26.7539L18.8953 26.5577C18.7985 26.5473 18.7271 26.4588 18.7373 26.3598L18.9293 24.458C18.9395 24.3591 19.0261 24.2862 19.123 24.2966L20.9842 24.4928C21.0811 24.5032 21.1524 24.5917 21.1422 24.6907L20.9503 26.5924C20.9409 26.6914 20.8534 26.7634 20.7566 26.7539Z" fill="#E8505B"/>
<g opacity="0.4">
<path d="M20.7566 26.7539L18.8953 26.5577C18.7985 26.5473 18.7271 26.4588 18.7373 26.3598L18.9293 24.458C18.9395 24.3591 19.0261 24.2862 19.123 24.2966L20.9842 24.4928C21.0811 24.5032 21.1524 24.5917 21.1422 24.6907L20.9503 26.5924C20.9409 26.6914 20.8534 26.7634 20.7566 26.7539Z" fill="black"/>
</g>
<path d="M20.415 26.7175L18.5538 26.5213C18.4569 26.5109 18.3856 26.4223 18.3957 26.3234L18.5877 24.4216C18.5979 24.3226 18.6846 24.2497 18.7814 24.2601L20.6427 24.4563C20.7395 24.4667 20.8109 24.5553 20.8007 24.6542L20.6087 26.556C20.5985 26.6558 20.5119 26.7279 20.415 26.7175Z" fill="#263238"/>
<path d="M20.0286 25.5031C19.9954 25.8286 19.7864 25.9909 19.507 25.9614C19.4093 25.951 19.3184 25.918 19.2581 25.8703L19.3532 25.7184C19.3999 25.7583 19.4577 25.7774 19.5214 25.7835C19.6743 25.8 19.7839 25.7175 19.8085 25.5361C19.7491 25.5856 19.6667 25.6073 19.5707 25.5968C19.3931 25.5778 19.2649 25.4476 19.2827 25.2696C19.3022 25.0769 19.4687 24.9719 19.6633 24.9927C19.9181 25.0196 20.0591 25.1984 20.0286 25.5031ZM19.806 25.3139C19.8145 25.2332 19.761 25.1672 19.659 25.1568C19.5681 25.1472 19.4993 25.1941 19.4908 25.2809C19.4823 25.3668 19.5384 25.4285 19.6335 25.4389C19.7278 25.4484 19.7983 25.3955 19.806 25.3139Z" fill="white"/>
<path d="M23.9565 27.0907L22.0953 26.8945C21.9984 26.8841 21.9271 26.7956 21.9372 26.6966L22.1292 24.7948C22.1394 24.6959 22.2261 24.623 22.3229 24.6334L24.1842 24.8295C24.281 24.84 24.3524 24.9285 24.3422 25.0274L24.1502 26.9292C24.14 27.0282 24.0534 27.1002 23.9565 27.0907Z" fill="#E8505B"/>
<g opacity="0.4">
<path d="M23.9565 27.0907L22.0953 26.8945C21.9984 26.8841 21.9271 26.7956 21.9372 26.6966L22.1292 24.7948C22.1394 24.6959 22.2261 24.623 22.3229 24.6334L24.1842 24.8295C24.281 24.84 24.3524 24.9285 24.3422 25.0274L24.1502 26.9292C24.14 27.0282 24.0534 27.1002 23.9565 27.0907Z" fill="black"/>
</g>
<path d="M23.6142 27.0542L21.753 26.8581C21.6561 26.8477 21.5848 26.7591 21.595 26.6602L21.787 24.7584C21.7971 24.6594 21.8838 24.5865 21.9806 24.5969L23.8419 24.7931C23.9387 24.8035 24.0101 24.8921 23.9999 24.991L23.8079 26.8928C23.7986 26.9926 23.7119 27.0647 23.6142 27.0542Z" fill="#263238"/>
<path d="M22.3073 25.7307L22.2986 25.8171L23.2872 25.9211L23.2959 25.8347L22.3073 25.7307Z" fill="white"/>
<path d="M20.4219 30.0688L18.5606 29.8727C18.4637 29.8622 18.3924 29.7737 18.4026 29.6748L18.5946 27.773C18.6048 27.674 18.6914 27.6011 18.7883 27.6115L20.6495 27.8077C20.7464 27.8181 20.8177 27.9066 20.8075 28.0056L20.6155 29.9074C20.6062 30.0063 20.5195 30.0784 20.4219 30.0688Z" fill="#E8505B"/>
<g opacity="0.4">
<path d="M20.4219 30.0688L18.5606 29.8727C18.4637 29.8622 18.3924 29.7737 18.4026 29.6748L18.5946 27.773C18.6048 27.674 18.6914 27.6011 18.7883 27.6115L20.6495 27.8077C20.7464 27.8181 20.8177 27.9066 20.8075 28.0056L20.6155 29.9074C20.6062 30.0063 20.5195 30.0784 20.4219 30.0688Z" fill="black"/>
</g>
<path d="M20.0803 30.0324L18.219 29.8362C18.1222 29.8258 18.0508 29.7373 18.061 29.6383L18.253 27.7365C18.2632 27.6376 18.3499 27.5647 18.4467 27.5751L20.308 27.7713C20.4048 27.7817 20.4762 27.8702 20.466 27.9692L20.274 29.8709C20.2646 29.9708 20.178 30.0428 20.0803 30.0324Z" fill="#263238"/>
<path d="M23.6218 30.4056L21.7605 30.2094C21.6637 30.199 21.5923 30.1104 21.6025 30.0115L21.7945 28.1097C21.8047 28.0108 21.8914 27.9378 21.9882 27.9483L23.8495 28.1444C23.9463 28.1548 24.0177 28.2434 24.0075 28.3423L23.8155 30.2441C23.8061 30.3431 23.7186 30.4151 23.6218 30.4056Z" fill="#E8505B"/>
<g opacity="0.4">
<path d="M23.6218 30.4056L21.7605 30.2094C21.6637 30.199 21.5923 30.1104 21.6025 30.0115L21.7945 28.1097C21.8047 28.0108 21.8914 27.9378 21.9882 27.9483L23.8495 28.1444C23.9463 28.1548 24.0177 28.2434 24.0075 28.3423L23.8155 30.2441C23.8061 30.3431 23.7186 30.4151 23.6218 30.4056Z" fill="black"/>
</g>
<path d="M23.2803 30.3691L21.419 30.173C21.3221 30.1625 21.2508 30.074 21.261 29.9751L21.453 28.0733C21.4632 27.9743 21.5498 27.9014 21.6467 27.9118L23.5079 28.108C23.6048 28.1184 23.6761 28.2069 23.6659 28.3059L23.4739 30.2077C23.4637 30.3075 23.3771 30.3795 23.2803 30.3691Z" fill="#455A64"/>
<path d="M21.9853 28.922L21.9766 29.0084L22.9652 29.1124L22.9739 29.026L21.9853 28.922Z" fill="white"/>
<path d="M21.9467 29.3068L21.938 29.3931L22.9266 29.4971L22.9353 29.4108L21.9467 29.3068Z" fill="white"/>
<path d="M16.7688 29.7129L11.8485 29.1947C11.7321 29.1826 11.6472 29.0758 11.6591 28.9569L11.8494 27.0699C11.8613 26.951 11.9657 26.8642 12.0821 26.8763L17.0024 27.3945C17.1188 27.4067 17.2038 27.5134 17.1919 27.6323L17.0016 29.5194C16.9897 29.6383 16.8861 29.7251 16.7688 29.7129Z" fill="#263238"/>
<path d="M14.2273 28.2278C14.2587 27.917 14.4447 27.7582 14.6716 27.7816C14.8992 27.8059 15.0487 27.9995 15.0182 28.3102C14.9867 28.621 14.8015 28.7798 14.5739 28.7564C14.3471 28.733 14.1958 28.5394 14.2273 28.2278ZM14.8032 28.2885C14.8245 28.0741 14.7599 27.9778 14.6529 27.9665C14.5475 27.9552 14.4651 28.0368 14.443 28.2503C14.4218 28.4647 14.4864 28.5611 14.5917 28.5724C14.6987 28.5837 14.782 28.5029 14.8032 28.2885Z" fill="white"/>
<path d="M19.2791 28.2938L19.1626 29.3024L19.247 29.3125L19.3634 28.304L19.2791 28.2938Z" fill="white"/>
<path d="M18.7729 28.7079L18.7642 28.7943L19.7528 28.8982L19.7615 28.8119L18.7729 28.7079Z" fill="white"/>
<path d="M18.3115 12.826L18.1696 14.2348L18.1042 14.2278L18.2402 12.8815L17.8936 12.8451L17.8995 12.7826L18.3115 12.826Z" fill="#263238"/>
<path d="M19.4439 14.3068L19.438 14.3693L18.5044 14.2712L18.5095 14.2226L19.1619 13.6766C19.3488 13.5212 19.3947 13.4223 19.4066 13.3077C19.4253 13.1202 19.3097 12.9866 19.0693 12.9605C18.8858 12.9414 18.7465 12.9813 18.6386 13.0864L18.5978 13.0378C18.7125 12.9275 18.8748 12.8781 19.0778 12.8989C19.342 12.9267 19.4949 13.0829 19.472 13.3103C19.4584 13.4431 19.4057 13.556 19.2052 13.7218L18.6114 14.2191L19.4439 14.3068Z" fill="#263238"/>
<path d="M20.5372 14.0898C20.5134 14.3233 20.335 14.4717 20.0317 14.4396C19.8245 14.4179 19.6495 14.3181 19.573 14.1939L19.6129 14.1497C19.6834 14.2608 19.8389 14.3563 20.036 14.3771C20.3002 14.4049 20.4514 14.2868 20.4718 14.0828C20.4922 13.8771 20.3715 13.7322 20.0802 13.7018L20.0037 13.694L20.0088 13.6454L20.4964 13.1185L19.7361 13.0386L19.742 12.9761L20.589 13.0655L20.5839 13.1141L20.0946 13.6428C20.4174 13.6766 20.561 13.8546 20.5372 14.0898Z" fill="#263238"/>
<path d="M21.8938 14.2165L21.594 14.1853L21.5532 14.5915L21.4878 14.5845L21.5286 14.1783L20.7368 14.095L20.7419 14.0464L21.6008 13.1723L21.6772 13.1801L20.8294 14.0429L21.5345 14.1176L21.5702 13.7591L21.6356 13.766L21.5999 14.1245L21.8998 14.1557L21.8938 14.2165Z" fill="#263238"/>
<path d="M22.1827 14.5967C22.1802 14.6228 22.1725 14.6384 22.1632 14.6696L22.0646 14.9318L22.0137 14.9266L22.1029 14.6549C22.0697 14.6453 22.0485 14.6167 22.0527 14.5828C22.0561 14.5464 22.0867 14.5195 22.1241 14.5229C22.1632 14.5273 22.1853 14.5646 22.1827 14.5967Z" fill="#263238"/>
<path d="M23.5486 14.391L23.2488 14.3598L23.208 14.7668L23.1426 14.7599L23.1833 14.3528L22.3916 14.2695L22.3967 14.2209L23.2555 13.3468L23.332 13.3546L22.4842 14.2174L23.1893 14.2921L23.225 13.9336L23.2904 13.9405L23.2547 14.299L23.5546 14.3302L23.5486 14.391Z" fill="#263238"/>
<path d="M24.5724 14.5064C24.5495 14.7356 24.3754 14.897 24.0627 14.8641C23.8597 14.8424 23.683 14.7425 23.6057 14.6184L23.6482 14.5742C23.717 14.6853 23.8742 14.7807 24.0695 14.8016C24.3397 14.8302 24.4858 14.6991 24.5062 14.4995C24.5283 14.2816 24.4153 14.1402 24.0211 14.0985L23.7535 14.0698L23.8937 13.4136L24.6047 13.4883L24.5988 13.5508L23.943 13.4813L23.8291 14.0143L24.0415 14.0369C24.462 14.082 24.5979 14.2573 24.5724 14.5064Z" fill="#263238"/>
</g>
<defs>
<clipPath id="clip0_442_62331">
<rect width="19" height="27" fill="white" transform="translate(10 7)"/>
</clipPath>
</defs>
</svg>
