<svg width="40" height="40" viewBox="0 0 40 40" fill="none" xmlns="http://www.w3.org/2000/svg">
<rect width="40" height="40" rx="20" fill="#FAFAFA"/>
<g clip-path="url(#clip0_464_81301)">
<path d="M12.0938 26.7407H30.4539V28.2293H12.0938V26.7407Z" fill="#FFBE3B"/>
<path d="M12.0939 26.927H16.1982V28.054H12.0939V26.927Z" fill="#E0E0E0"/>
<path opacity="0.3" d="M12.0938 26.7407H16.4302V28.2293H12.0938V26.7407Z" fill="black"/>
<path d="M16.4302 28.2292C16.4393 28.2292 16.446 27.9081 16.4455 27.513C16.4446 27.1173 16.4364 26.7969 16.4273 26.7969C16.4182 26.7969 16.4114 27.1173 16.4119 27.513C16.4129 27.9087 16.421 28.2292 16.4302 28.2292Z" fill="#263238"/>
<path d="M18.0764 27.3145H29.1338V27.6703H18.0764V27.3145Z" fill="white"/>
<path d="M16.8769 28.2179C16.8769 28.2299 19.9196 28.24 23.6719 28.24C27.4255 28.24 30.4673 28.2299 30.4673 28.2179C30.4673 28.2059 27.4255 28.1958 23.6719 28.1958C19.9191 28.1958 16.8769 28.2059 16.8769 28.2179Z" fill="#263238"/>
<path d="M16.385 28.2248C16.385 28.2368 19.4277 28.2469 23.1799 28.2469C26.9336 28.2469 29.9753 28.2368 29.9753 28.2248C29.9753 28.2128 26.9336 28.2026 23.1799 28.2026C19.4277 28.2026 16.385 28.2128 16.385 28.2248Z" fill="#263238"/>
<path d="M12.0937 26.7299C12.0937 26.7419 16.0972 26.752 21.0341 26.752C25.9728 26.752 29.9753 26.7419 29.9753 26.7299C29.9753 26.7179 25.9728 26.7078 21.0341 26.7078C16.0972 26.7078 12.0937 26.7179 12.0937 26.7299Z" fill="#263238"/>
<path d="M6.27832 28.2356H32.2783V29.7241H6.27832V28.2356Z" fill="#E84126"/>
<path d="M6.27838 28.4219H11.8325V29.5489H6.27838V28.4219Z" fill="#E0E0E0"/>
<path opacity="0.3" d="M6.27794 28.2356H12.1462V29.7241H6.27794V28.2356Z" fill="black"/>
<path d="M12.146 29.724C12.1585 29.724 12.1676 29.4029 12.1667 29.0079C12.1657 28.6122 12.1547 28.2917 12.1422 28.2917C12.1297 28.2917 12.1206 28.6122 12.1215 29.0079C12.1225 29.4036 12.1335 29.724 12.146 29.724Z" fill="#263238"/>
<path d="M14.3736 28.8093H29.3369V29.1652H14.3736V28.8093Z" fill="#E0E0E0"/>
<path d="M12.085 29.7196C12.085 29.7316 16.2023 29.7418 21.2799 29.7418C26.3595 29.7418 30.4758 29.7316 30.4758 29.7196C30.4758 29.7076 26.3595 29.6975 21.2799 29.6975C16.2023 29.6975 12.085 29.7076 12.085 29.7196Z" fill="#263238"/>
<path d="M6.27821 28.2248C6.27821 28.2368 11.6954 28.2469 18.3765 28.2469C25.0601 28.2469 30.4763 28.2368 30.4763 28.2248C30.4763 28.2128 25.0601 28.2026 18.3765 28.2026C11.6954 28.2026 6.27821 28.2128 6.27821 28.2248Z" fill="#263238"/>
<path d="M8.50839 22.5513H31.2048V26.7179H8.50839V22.5513Z" fill="#FF725E"/>
<path d="M8.87877 23.0715H31.2048V26.1807H8.87877V23.0715Z" fill="#F5F5F5"/>
<path d="M8.87868 23.7516C8.87868 23.7516 8.89837 23.7529 8.93632 23.7541C8.97523 23.7548 9.03192 23.7554 9.1059 23.756C9.25529 23.7567 9.47483 23.7586 9.75729 23.7605C10.3237 23.7624 11.1413 23.7643 12.1525 23.7674C14.1753 23.7693 16.9687 23.7712 20.0537 23.7737C23.1402 23.7712 25.9335 23.7687 27.9564 23.7674C28.9671 23.7643 29.7852 23.7624 30.3511 23.7605C30.6336 23.7586 30.8526 23.7573 31.002 23.756C31.076 23.7548 31.1327 23.7541 31.1711 23.7541C31.2091 23.7535 31.2288 23.7516 31.2288 23.7516C31.2288 23.7516 31.2091 23.7504 31.1711 23.7491C31.1322 23.7485 31.076 23.7478 31.002 23.7472C30.8526 23.7466 30.6331 23.7447 30.3511 23.7428C29.7852 23.7409 28.9671 23.739 27.9564 23.7358C25.9335 23.7339 23.1402 23.732 20.0537 23.7295C16.9687 23.732 14.1753 23.7345 12.1525 23.7358C11.1417 23.739 10.3237 23.7409 9.75729 23.7428C9.47483 23.7447 9.25577 23.7459 9.1059 23.7472C9.03192 23.7485 8.97523 23.7491 8.93632 23.7491C8.89837 23.7497 8.87868 23.7516 8.87868 23.7516Z" fill="#263238"/>
<path d="M8.87868 24.5827C8.87868 24.5827 8.89837 24.5839 8.93632 24.5852C8.97523 24.5858 9.03192 24.5865 9.1059 24.5871C9.25529 24.5877 9.47483 24.5896 9.75729 24.5915C10.3237 24.5934 11.1413 24.5953 12.1525 24.5985C14.1753 24.6004 16.9687 24.6023 20.0537 24.6048C23.1402 24.6023 25.9335 24.5997 27.9564 24.5985C28.9671 24.5953 29.7852 24.5934 30.3511 24.5915C30.6336 24.5896 30.8526 24.5884 31.002 24.5871C31.076 24.5858 31.1327 24.5852 31.1711 24.5852C31.2091 24.5846 31.2288 24.5827 31.2288 24.5827C31.2288 24.5827 31.2091 24.5814 31.1711 24.5801C31.1322 24.5795 31.076 24.5789 31.002 24.5782C30.8526 24.577 30.6331 24.5757 30.3511 24.5738C29.7852 24.5719 28.9671 24.57 27.9564 24.5669C25.9335 24.565 23.1402 24.5631 20.0537 24.5605C16.9687 24.5631 14.1753 24.5656 12.1525 24.5669C11.1417 24.57 10.3237 24.5719 9.75729 24.5738C9.47483 24.5757 9.25577 24.577 9.1059 24.5782C9.03192 24.5789 8.97523 24.5801 8.93632 24.5801C8.89837 24.5808 8.87868 24.5827 8.87868 24.5827Z" fill="#263238"/>
<path d="M8.87868 25.414C8.87868 25.414 8.89837 25.4152 8.93632 25.4165C8.97523 25.4171 9.03192 25.4178 9.1059 25.4184C9.25529 25.419 9.47483 25.4209 9.75729 25.4228C10.3237 25.4247 11.1413 25.4266 12.1525 25.4298C14.1753 25.4317 16.9687 25.4336 20.0537 25.4361C23.1402 25.4336 25.9335 25.431 27.9564 25.4298C28.9671 25.4266 29.7852 25.4247 30.3511 25.4228C30.6336 25.4209 30.8526 25.4197 31.002 25.4184C31.076 25.4171 31.1327 25.4165 31.1711 25.4165C31.2091 25.4159 31.2288 25.414 31.2288 25.414C31.2288 25.414 31.2091 25.4127 31.1711 25.4114C31.1322 25.4108 31.076 25.4102 31.002 25.4095C30.8526 25.4083 30.6331 25.407 30.3511 25.4051C29.7852 25.4032 28.9671 25.4013 27.9564 25.3982C25.9335 25.3963 23.1402 25.3944 20.0537 25.3918C16.9687 25.3944 14.1753 25.3969 12.1525 25.3982C11.1417 25.4013 10.3237 25.4032 9.75729 25.4051C9.47483 25.407 9.25577 25.4083 9.1059 25.4095C9.03192 25.4102 8.97523 25.4114 8.93632 25.4114C8.89837 25.4127 8.87868 25.414 8.87868 25.414Z" fill="#263238"/>
<path opacity="0.3" d="M8.50828 22.5513H14.7695V26.7179H8.50828V22.5513Z" fill="black"/>
<path d="M10.8789 15.2937C10.8789 15.2912 10.8443 15.307 10.8126 15.3708C10.7809 15.4315 10.7617 15.5548 10.8155 15.6654L10.8213 15.6426C10.7612 15.6723 10.73 15.764 10.7324 15.8506C10.7343 15.9485 10.7833 16.0269 10.8347 16.0686C10.8871 16.1123 10.9438 16.123 10.9884 16.1236C11.0336 16.1243 11.0696 16.1173 11.0941 16.1123C11.1186 16.1066 11.1321 16.1021 11.1321 16.1002C11.1316 16.0939 11.0764 16.1053 10.9894 16.1002C10.9462 16.0965 10.8943 16.0838 10.8472 16.0427C10.8011 16.0035 10.7588 15.9327 10.7574 15.8487C10.755 15.7722 10.7833 15.6932 10.8294 15.6704L10.8434 15.6635L10.8352 15.6477C10.8107 15.6009 10.8016 15.5465 10.8021 15.4991C10.8025 15.4517 10.8126 15.4106 10.8256 15.3797C10.8506 15.319 10.8808 15.2975 10.8789 15.2937Z" fill="#455A64"/>
</g>
<defs>
<clipPath id="clip0_464_81301">
<rect width="26" height="26" fill="white" transform="matrix(-1 0 0 1 33 5)"/>
</clipPath>
</defs>
</svg>
