<svg width="60" height="60" viewBox="0 0 60 60" fill="none" xmlns="http://www.w3.org/2000/svg">
<path d="M12 12V48C12 49.5913 12.6321 51.1174 13.7574 52.2426C14.8826 53.3679 16.4087 54 18 54H46.5C46.8978 54 47.2794 53.842 47.5607 53.5607C47.842 53.2794 48 52.8978 48 52.5C48 52.1022 47.842 51.7206 47.5607 51.4393C47.2794 51.158 46.8978 51 46.5 51H18C17.2044 51 16.4413 50.6839 15.8787 50.1213C15.3161 49.5587 15 48.7957 15 48H45C45.7957 48 46.5587 47.6839 47.1213 47.1213C47.6839 46.5587 48 45.7957 48 45V12C48 10.4087 47.3679 8.88258 46.2426 7.75736C45.1174 6.63214 43.5913 6 42 6H18C16.4087 6 14.8826 6.63214 13.7574 7.75736C12.6321 8.88258 12 10.4087 12 12ZM42 9C42.7956 9 43.5587 9.31607 44.1213 9.87868C44.6839 10.4413 45 11.2044 45 12V45H15V12C15 11.2044 15.3161 10.4413 15.8787 9.87868C16.4413 9.31607 17.2044 9 18 9H42ZM32.25 17.25C32.25 16.6533 32.0129 16.081 31.591 15.659C31.169 15.2371 30.5967 15 30 15C29.4033 15 28.831 15.2371 28.409 15.659C27.9871 16.081 27.75 16.6533 27.75 17.25C27.75 17.8467 27.9871 18.419 28.409 18.841C28.831 19.2629 29.4033 19.5 30 19.5C30.5967 19.5 31.169 19.2629 31.591 18.841C32.0129 18.419 32.25 17.8467 32.25 17.25ZM31.5 37.5C31.5 37.8978 31.342 38.2794 31.0607 38.5607C30.7794 38.842 30.3978 39 30 39C29.6022 39 29.2206 38.842 28.9393 38.5607C28.658 38.2794 28.5 37.8978 28.5 37.5V25.5C28.5 25.1022 28.658 24.7206 28.9393 24.4393C29.2206 24.158 29.6022 24 30 24C30.3978 24 30.7794 24.158 31.0607 24.4393C31.342 24.7206 31.5 25.1022 31.5 25.5V37.5Z" fill="#FAFAFA"/>
</svg>
