<svg width="40" height="40" viewBox="0 0 40 40" fill="none" xmlns="http://www.w3.org/2000/svg">
<rect width="40" height="40" rx="20" fill="#FAFAFA"/>
<g clip-path="url(#clip0_442_60662)">
<path d="M12.0938 26.7407H30.4539V28.2293H12.0938V26.7407Z" fill="#FFBE3B"/>
<path d="M12.0939 26.9272H16.1982V28.0542H12.0939V26.9272Z" fill="#E0E0E0"/>
<path opacity="0.3" d="M12.0938 26.7407H16.4302V28.2293H12.0938V26.7407Z" fill="black"/>
<path d="M16.4302 28.2293C16.4393 28.2293 16.446 27.9082 16.4455 27.5131C16.4446 27.1175 16.4364 26.797 16.4273 26.797C16.4182 26.797 16.4114 27.1175 16.4119 27.5131C16.4129 27.9088 16.421 28.2293 16.4302 28.2293Z" fill="#263238"/>
<path d="M18.0764 27.3147H29.1338V27.6706H18.0764V27.3147Z" fill="white"/>
<path d="M16.8769 28.2179C16.8769 28.2299 19.9196 28.24 23.6719 28.24C27.4255 28.24 30.4673 28.2299 30.4673 28.2179C30.4673 28.2059 27.4255 28.1958 23.6719 28.1958C19.9191 28.1958 16.8769 28.2059 16.8769 28.2179Z" fill="#263238"/>
<path d="M16.385 28.2249C16.385 28.2369 19.4277 28.247 23.1799 28.247C26.9336 28.247 29.9753 28.2369 29.9753 28.2249C29.9753 28.2129 26.9336 28.2028 23.1799 28.2028C19.4277 28.2028 16.385 28.2129 16.385 28.2249Z" fill="#263238"/>
<path d="M12.0937 26.73C12.0937 26.742 16.0972 26.7521 21.0341 26.7521C25.9728 26.7521 29.9753 26.742 29.9753 26.73C29.9753 26.718 25.9728 26.7079 21.0341 26.7079C16.0972 26.7079 12.0937 26.718 12.0937 26.73Z" fill="#263238"/>
<path d="M6.27832 28.2356H32.2783V29.7241H6.27832V28.2356Z" fill="#E84126"/>
<path d="M6.27838 28.4221H11.8325V29.5491H6.27838V28.4221Z" fill="#E0E0E0"/>
<path opacity="0.3" d="M6.27794 28.2356H12.1462V29.7241H6.27794V28.2356Z" fill="black"/>
<path d="M12.146 29.7242C12.1585 29.7242 12.1676 29.4031 12.1667 29.008C12.1657 28.6123 12.1547 28.2919 12.1422 28.2919C12.1297 28.2919 12.1206 28.6123 12.1215 29.008C12.1225 29.4037 12.1335 29.7242 12.146 29.7242Z" fill="#263238"/>
<path d="M14.3736 28.8096H29.3369V29.1654H14.3736V28.8096Z" fill="#E0E0E0"/>
<path d="M12.085 29.7198C12.085 29.7318 16.2023 29.7419 21.2799 29.7419C26.3595 29.7419 30.4758 29.7318 30.4758 29.7198C30.4758 29.7077 26.3595 29.6976 21.2799 29.6976C16.2023 29.6976 12.085 29.7077 12.085 29.7198Z" fill="#263238"/>
<path d="M6.27821 28.2249C6.27821 28.2369 11.6954 28.247 18.3765 28.247C25.0601 28.247 30.4763 28.2369 30.4763 28.2249C30.4763 28.2129 25.0601 28.2028 18.3765 28.2028C11.6954 28.2028 6.27821 28.2129 6.27821 28.2249Z" fill="#263238"/>
<path d="M8.50839 22.5514H31.2048V26.7181H8.50839V22.5514Z" fill="#FF725E"/>
<path d="M8.87877 23.0717H31.2048V26.1809H8.87877V23.0717Z" fill="#F5F5F5"/>
<path d="M8.87868 23.7517C8.87868 23.7517 8.89837 23.753 8.93632 23.7543C8.97523 23.7549 9.03192 23.7555 9.1059 23.7562C9.25529 23.7568 9.47483 23.7587 9.75729 23.7606C10.3237 23.7625 11.1413 23.7644 12.1525 23.7675C14.1753 23.7694 16.9687 23.7713 20.0537 23.7739C23.1402 23.7713 25.9335 23.7688 27.9564 23.7675C28.9671 23.7644 29.7852 23.7625 30.3511 23.7606C30.6336 23.7587 30.8526 23.7574 31.002 23.7562C31.076 23.7549 31.1327 23.7543 31.1711 23.7543C31.2091 23.7536 31.2288 23.7517 31.2288 23.7517C31.2288 23.7517 31.2091 23.7505 31.1711 23.7492C31.1322 23.7486 31.076 23.7479 31.002 23.7473C30.8526 23.7467 30.6331 23.7448 30.3511 23.7429C29.7852 23.741 28.9671 23.7391 27.9564 23.7359C25.9335 23.734 23.1402 23.7321 20.0537 23.7296C16.9687 23.7321 14.1753 23.7347 12.1525 23.7359C11.1417 23.7391 10.3237 23.741 9.75729 23.7429C9.47483 23.7448 9.25577 23.746 9.1059 23.7473C9.03192 23.7486 8.97523 23.7492 8.93632 23.7492C8.89837 23.7498 8.87868 23.7517 8.87868 23.7517Z" fill="#263238"/>
<path d="M8.87868 24.5829C8.87868 24.5829 8.89837 24.5842 8.93632 24.5854C8.97523 24.5861 9.03192 24.5867 9.1059 24.5873C9.25529 24.588 9.47483 24.5899 9.75729 24.5918C10.3237 24.5937 11.1413 24.5956 12.1525 24.5987C14.1753 24.6006 16.9687 24.6025 20.0537 24.605C23.1402 24.6025 25.9335 24.6 27.9564 24.5987C28.9671 24.5956 29.7852 24.5937 30.3511 24.5918C30.6336 24.5899 30.8526 24.5886 31.002 24.5873C31.076 24.5861 31.1327 24.5854 31.1711 24.5854C31.2091 24.5848 31.2288 24.5829 31.2288 24.5829C31.2288 24.5829 31.2091 24.5816 31.1711 24.5804C31.1322 24.5798 31.076 24.5791 31.002 24.5785C30.8526 24.5772 30.6331 24.576 30.3511 24.5741C29.7852 24.5722 28.9671 24.5703 27.9564 24.5671C25.9335 24.5652 23.1402 24.5633 20.0537 24.5608C16.9687 24.5633 14.1753 24.5658 12.1525 24.5671C11.1417 24.5703 10.3237 24.5722 9.75729 24.5741C9.47483 24.576 9.25577 24.5772 9.1059 24.5785C9.03192 24.5791 8.97523 24.5804 8.93632 24.5804C8.89837 24.581 8.87868 24.5829 8.87868 24.5829Z" fill="#263238"/>
<path d="M8.87868 25.4141C8.87868 25.4141 8.89837 25.4154 8.93632 25.4166C8.97523 25.4173 9.03192 25.4179 9.1059 25.4185C9.25529 25.4191 9.47483 25.421 9.75729 25.4229C10.3237 25.4248 11.1413 25.4267 12.1525 25.4299C14.1753 25.4318 16.9687 25.4337 20.0537 25.4362C23.1402 25.4337 25.9335 25.4312 27.9564 25.4299C28.9671 25.4267 29.7852 25.4248 30.3511 25.4229C30.6336 25.421 30.8526 25.4198 31.002 25.4185C31.076 25.4173 31.1327 25.4166 31.1711 25.4166C31.2091 25.416 31.2288 25.4141 31.2288 25.4141C31.2288 25.4141 31.2091 25.4128 31.1711 25.4116C31.1322 25.4109 31.076 25.4103 31.002 25.4097C30.8526 25.4084 30.6331 25.4071 30.3511 25.4052C29.7852 25.4033 28.9671 25.4014 27.9564 25.3983C25.9335 25.3964 23.1402 25.3945 20.0537 25.392C16.9687 25.3945 14.1753 25.397 12.1525 25.3983C11.1417 25.4014 10.3237 25.4033 9.75729 25.4052C9.47483 25.4071 9.25577 25.4084 9.1059 25.4097C9.03192 25.4103 8.97523 25.4116 8.93632 25.4116C8.89837 25.4128 8.87868 25.4141 8.87868 25.4141Z" fill="#263238"/>
<path opacity="0.3" d="M8.50828 22.5514H14.7695V26.7181H8.50828V22.5514Z" fill="black"/>
<path d="M10.8789 15.2938C10.8789 15.2913 10.8443 15.3071 10.8126 15.3709C10.7809 15.4316 10.7617 15.5549 10.8155 15.6655L10.8213 15.6427C10.7612 15.6724 10.73 15.7641 10.7324 15.8507C10.7343 15.9487 10.7833 16.027 10.8347 16.0688C10.8871 16.1124 10.9438 16.1231 10.9884 16.1238C11.0336 16.1244 11.0696 16.1174 11.0941 16.1124C11.1186 16.1067 11.1321 16.1023 11.1321 16.1004C11.1316 16.094 11.0764 16.1054 10.9894 16.1004C10.9462 16.0966 10.8943 16.0839 10.8472 16.0428C10.8011 16.0037 10.7588 15.9329 10.7574 15.8488C10.755 15.7723 10.7833 15.6933 10.8294 15.6706L10.8434 15.6636L10.8352 15.6478C10.8107 15.601 10.8016 15.5467 10.8021 15.4993C10.8025 15.4519 10.8126 15.4108 10.8256 15.3798C10.8506 15.3191 10.8808 15.2976 10.8789 15.2938Z" fill="#455A64"/>
</g>
<path d="M5.88363 19.65C5.76363 19.6167 5.66697 19.5867 5.59363 19.56C5.5203 19.54 5.48363 19.53 5.48363 19.53C5.49697 19.4967 5.4903 19.4667 5.46363 19.44C5.44363 19.4133 5.39697 19.3967 5.32363 19.39C5.22363 19.3233 5.1203 19.23 5.01363 19.11C4.90697 18.99 4.81363 18.8667 4.73363 18.74C4.65363 18.6133 4.6003 18.52 4.57363 18.46C4.52697 18.36 4.5303 18.3 4.58363 18.28C4.63697 18.2533 4.7003 18.2233 4.77363 18.19C4.84697 18.1367 4.92363 18.0967 5.00363 18.07C5.0903 18.0433 5.1603 18.0867 5.21363 18.2C5.3003 18.3533 5.43363 18.4833 5.61363 18.59C5.8003 18.6967 6.0103 18.76 6.24363 18.78C6.48363 18.8 6.72363 18.76 6.96363 18.66C7.12363 18.5867 7.2103 18.4867 7.22363 18.36C7.23697 18.2267 7.18697 18.0733 7.07363 17.9C7.05363 17.8467 7.02363 17.8033 6.98363 17.77C6.9503 17.7367 6.89697 17.6933 6.82363 17.64C6.75697 17.5867 6.6603 17.5 6.53363 17.38C6.43363 17.3333 6.3403 17.29 6.25363 17.25C6.17363 17.21 6.08697 17.1667 5.99363 17.12C5.88697 17.0667 5.76697 16.9933 5.63363 16.9C5.5003 16.8 5.37697 16.6933 5.26363 16.58C5.1503 16.46 5.06363 16.3467 5.00363 16.24C4.89697 16.14 4.8303 16.0033 4.80363 15.83C4.77697 15.65 4.7803 15.46 4.81363 15.26C4.85363 15.06 4.91697 14.88 5.00363 14.72C5.04363 14.6267 5.11697 14.5067 5.22363 14.36C5.3303 14.2067 5.4503 14.05 5.58363 13.89C5.71697 13.73 5.84363 13.5867 5.96363 13.46C6.0903 13.3267 6.1903 13.2367 6.26363 13.19C6.31697 13.1367 6.37363 13.0833 6.43363 13.03C6.49363 12.97 6.52363 12.94 6.52363 12.94C6.5303 12.9067 6.5403 12.89 6.55363 12.89C6.57363 12.89 6.58363 12.89 6.58363 12.89C6.61697 12.87 6.6903 12.8367 6.80363 12.79C6.91697 12.7433 7.0403 12.6567 7.17363 12.53C7.6203 12.3167 8.0003 12.1733 8.31363 12.1C8.62697 12.02 8.87363 11.98 9.05363 11.98C9.2203 11.9867 9.38363 12.0333 9.54363 12.12C9.70363 12.2 9.8403 12.3033 9.95363 12.43C10.0736 12.5567 10.1436 12.7 10.1636 12.86C10.2103 13.02 10.187 13.2133 10.0936 13.44C10.007 13.66 9.88363 13.87 9.72363 14.07C9.5703 14.2633 9.4103 14.4067 9.24363 14.5C9.05697 14.58 8.89697 14.59 8.76363 14.53C8.63697 14.47 8.57697 14.3767 8.58363 14.25C8.58363 14.1967 8.6003 14.1333 8.63363 14.06C8.67363 13.9867 8.77697 13.8567 8.94363 13.67C9.15697 13.3567 9.2703 13.1333 9.28363 13C9.29697 12.8667 9.23697 12.79 9.10363 12.77C9.06363 12.7567 8.98697 12.76 8.87363 12.78C8.7603 12.8 8.63697 12.8267 8.50363 12.86C8.37697 12.8867 8.26363 12.9167 8.16363 12.95C8.0703 12.9833 8.02363 13.0067 8.02363 13.02C8.02363 13.02 8.02363 13.03 8.02363 13.05C8.02363 13.07 8.0103 13.0767 7.98363 13.07C7.9703 13.07 7.92363 13.0933 7.84363 13.14C7.7703 13.18 7.6803 13.2333 7.57363 13.3C7.46697 13.3667 7.3603 13.4367 7.25363 13.51C7.15363 13.5767 7.06697 13.6367 6.99363 13.69C6.9203 13.7433 6.8803 13.7767 6.87363 13.79C6.8603 13.8633 6.78363 13.93 6.64363 13.99C6.5103 14.07 6.39363 14.1833 6.29363 14.33C6.19363 14.4767 6.07697 14.6633 5.94363 14.89C5.8303 15.0433 5.7503 15.21 5.70363 15.39C5.65697 15.5633 5.65697 15.7033 5.70363 15.81C5.73697 15.9167 5.82697 16.0233 5.97363 16.13C6.12697 16.23 6.33363 16.3567 6.59363 16.51C6.8203 16.6367 7.03363 16.77 7.23363 16.91C7.43363 17.05 7.60363 17.1867 7.74363 17.32C7.88363 17.4467 7.97363 17.5533 8.01363 17.64C8.09363 17.7533 8.1403 17.8833 8.15363 18.03C8.17363 18.1767 8.17363 18.32 8.15363 18.46C8.1403 18.5933 8.1203 18.7033 8.09363 18.79C8.04697 18.8967 7.97363 19.01 7.87363 19.13C7.7803 19.25 7.69363 19.3067 7.61363 19.3C7.5403 19.32 7.48363 19.3433 7.44363 19.37C7.4103 19.3967 7.3703 19.42 7.32363 19.44C7.27697 19.4667 7.16697 19.4967 6.99363 19.53C6.8203 19.57 6.6303 19.6 6.42363 19.62C6.21697 19.6467 6.03697 19.6567 5.88363 19.65ZM9.40012 18.83C9.34678 18.7767 9.30678 18.6967 9.28012 18.59C9.26012 18.4833 9.25345 18.38 9.26012 18.28C9.26678 18.1733 9.28345 18.0933 9.31012 18.04C9.31012 17.9867 9.31678 17.9467 9.33012 17.92C9.35012 17.8867 9.35678 17.8567 9.35012 17.83C9.34345 17.8033 9.35012 17.7567 9.37012 17.69C9.39012 17.6233 9.41012 17.56 9.43012 17.5C9.47678 17.3933 9.53012 17.2567 9.59012 17.09C9.65012 16.9167 9.71012 16.7433 9.77012 16.57C9.83012 16.39 9.88012 16.2367 9.92012 16.11C9.96012 15.9767 9.98345 15.8967 9.99012 15.87C9.99012 15.79 10.0435 15.7467 10.1501 15.74C10.2301 15.7133 10.3268 15.7467 10.4401 15.84C10.5535 15.9333 10.6435 16.0333 10.7101 16.14C10.7635 16.1933 10.7835 16.2633 10.7701 16.35C10.7568 16.4367 10.7135 16.56 10.6401 16.72C10.6135 16.7733 10.5801 16.8633 10.5401 16.99C10.5068 17.11 10.4835 17.21 10.4701 17.29C10.4435 17.3433 10.4101 17.42 10.3701 17.52C10.3368 17.6133 10.3068 17.7033 10.2801 17.79C10.2668 17.8233 10.2535 17.8867 10.2401 17.98C10.2268 18.0667 10.2101 18.1567 10.1901 18.25C10.1701 18.3433 10.1435 18.4167 10.1101 18.47C10.0501 18.7433 9.94345 18.9033 9.79012 18.95C9.64345 18.9967 9.51345 18.9567 9.40012 18.83ZM10.4801 14.82C10.4068 14.7667 10.3501 14.7033 10.3101 14.63C10.2768 14.55 10.2568 14.48 10.2501 14.42C10.2501 14.36 10.2568 14.3233 10.2701 14.31C10.3368 14.2367 10.3935 14.14 10.4401 14.02C10.4935 13.9 10.5501 13.79 10.6101 13.69C10.6235 13.67 10.6401 13.6433 10.6601 13.61C10.6868 13.57 10.7135 13.5467 10.7401 13.54C10.8201 13.4867 10.9301 13.49 11.0701 13.55C11.2168 13.61 11.3235 13.6933 11.3901 13.8C11.4501 13.9267 11.4668 14.0567 11.4401 14.19C11.4201 14.3233 11.3501 14.4633 11.2301 14.61C11.1301 14.7433 11.0035 14.83 10.8501 14.87C10.6968 14.9033 10.5735 14.8867 10.4801 14.82ZM11.753 19.11C11.6263 19.1433 11.513 19.1067 11.413 19C11.313 18.9 11.243 18.75 11.203 18.55C11.163 18.35 11.1697 18.1267 11.223 17.88C11.2563 17.8 11.283 17.7233 11.303 17.65C11.323 17.57 11.333 17.5067 11.333 17.46C11.3463 17.3933 11.373 17.2967 11.413 17.17C11.453 17.0367 11.4963 16.9 11.543 16.76C11.5897 16.62 11.633 16.4967 11.673 16.39C11.7197 16.2767 11.7497 16.2067 11.763 16.18C11.7897 16.18 11.813 16.1567 11.833 16.11C11.853 16.0633 11.863 16.0167 11.863 15.97C11.863 15.9167 11.873 15.8567 11.893 15.79C11.9197 15.7233 11.9463 15.6767 11.973 15.65C11.973 15.6167 11.9797 15.58 11.993 15.54C12.013 15.4933 12.023 15.4567 12.023 15.43C12.023 15.4033 12.0297 15.3767 12.043 15.35C12.063 15.3233 12.073 15.2967 12.073 15.27C12.1197 15.1833 12.1797 15.0467 12.253 14.86C12.333 14.6667 12.4163 14.4533 12.503 14.22C12.5963 13.9867 12.683 13.7567 12.763 13.53C12.843 13.3033 12.9063 13.1133 12.953 12.96C13.0063 12.8 13.033 12.7033 13.033 12.67C13.033 12.6167 13.053 12.5667 13.093 12.52C13.133 12.4733 13.1797 12.45 13.233 12.45C13.253 12.43 13.2997 12.4167 13.373 12.41C13.4463 12.3967 13.4963 12.39 13.523 12.39C13.523 12.39 13.5363 12.4033 13.563 12.43C13.5897 12.4567 13.6297 12.4967 13.683 12.55C13.7363 12.5967 13.7863 12.65 13.833 12.71C13.8863 12.77 13.913 12.84 13.913 12.92C13.913 13.0067 13.8997 13.09 13.873 13.17C13.853 13.25 13.813 13.36 13.753 13.5C13.693 13.6333 13.5997 13.8333 13.473 14.1C13.4197 14.2333 13.363 14.36 13.303 14.48C13.243 14.5933 13.213 14.6633 13.213 14.69C13.213 14.7167 13.1997 14.7567 13.173 14.81C13.153 14.8633 13.1297 14.93 13.103 15.01C13.0763 15.0633 13.0397 15.1433 12.993 15.25C12.9463 15.35 12.8963 15.46 12.843 15.58C12.7963 15.6933 12.7563 15.7933 12.723 15.88C12.6897 15.96 12.673 16.0067 12.673 16.02C12.673 16.0467 12.6697 16.0733 12.663 16.1C12.663 16.1267 12.6497 16.1533 12.623 16.18C12.5963 16.18 12.5797 16.2 12.573 16.24C12.573 16.2733 12.573 16.29 12.573 16.29C12.573 16.3567 12.5197 16.5333 12.413 16.82C12.3063 17.1867 12.2063 17.5233 12.113 17.83C12.0263 18.1367 11.983 18.3833 11.983 18.57C11.983 18.73 11.9563 18.8533 11.903 18.94C11.8563 19.0267 11.8063 19.0833 11.753 19.11ZM14.0004 18.86C13.947 18.8733 13.877 18.88 13.7904 18.88C13.7037 18.8733 13.627 18.8633 13.5604 18.85C13.5004 18.83 13.4704 18.81 13.4704 18.79C13.4704 18.7567 13.4537 18.74 13.4204 18.74C13.4204 18.74 13.3837 18.7133 13.3104 18.66C13.237 18.6 13.1704 18.5567 13.1104 18.53C13.0504 18.4367 13.0104 18.33 12.9904 18.21C12.977 18.0833 13.017 17.8633 13.1104 17.55C13.117 17.3367 13.177 17.1133 13.2904 16.88C13.4037 16.64 13.547 16.4067 13.7204 16.18C13.8937 15.9533 14.0737 15.7533 14.2604 15.58C14.447 15.4 14.6137 15.2667 14.7604 15.18C14.8537 15.0867 14.977 15.0367 15.1304 15.03C15.2904 15.0233 15.4304 15.0533 15.5504 15.12C15.617 15.1533 15.6904 15.22 15.7704 15.32C15.8504 15.42 15.927 15.5267 16.0004 15.64C16.0737 15.7467 16.1304 15.8433 16.1704 15.93C16.1904 16.0033 16.207 16.07 16.2204 16.13C16.2404 16.1833 16.2537 16.25 16.2604 16.33C16.267 16.41 16.2604 16.53 16.2404 16.69C16.207 16.81 16.177 16.9333 16.1504 17.06C16.1304 17.18 16.1204 17.3033 16.1204 17.43C16.107 17.5567 16.1204 17.6467 16.1604 17.7C16.207 17.7533 16.2737 17.7567 16.3604 17.71C16.4404 17.67 16.5237 17.6667 16.6104 17.7C16.697 17.7267 16.757 17.78 16.7904 17.86C16.8304 17.9333 16.8204 18.03 16.7604 18.15C16.7204 18.2367 16.657 18.32 16.5704 18.4C16.4837 18.48 16.387 18.5467 16.2804 18.6C16.1737 18.6467 16.0704 18.67 15.9704 18.67C15.897 18.67 15.8237 18.6433 15.7504 18.59C15.677 18.53 15.6104 18.45 15.5504 18.35C15.4904 18.25 15.4404 18.14 15.4004 18.02L15.3404 17.79L14.9804 18.12C14.8937 18.2133 14.807 18.3 14.7204 18.38C14.6404 18.4533 14.5904 18.5067 14.5704 18.54C14.537 18.6 14.4704 18.6533 14.3704 18.7C14.277 18.7467 14.1537 18.8 14.0004 18.86ZM14.2704 17.9C14.3837 17.8333 14.4804 17.7533 14.5604 17.66C14.647 17.5667 14.7304 17.4633 14.8104 17.35C14.8904 17.23 14.977 17.1033 15.0704 16.97C15.1837 16.8167 15.2637 16.6933 15.3104 16.6C15.3637 16.5067 15.4037 16.4067 15.4304 16.3C15.4037 16.2267 15.367 16.15 15.3204 16.07C15.2737 15.9833 15.227 15.9367 15.1804 15.93C15.087 15.93 14.9737 15.9867 14.8404 16.1C14.7137 16.2133 14.5737 16.3767 14.4204 16.59C14.3937 16.6233 14.3604 16.6767 14.3204 16.75C14.2804 16.8233 14.2404 16.8933 14.2004 16.96C14.167 17.02 14.1437 17.06 14.1304 17.08C14.1104 17.1067 14.0804 17.17 14.0404 17.27C14.007 17.3633 13.977 17.46 13.9504 17.56C13.9237 17.6533 13.9104 17.72 13.9104 17.76C13.9104 17.8 13.9137 17.8433 13.9204 17.89C13.9337 17.9367 13.967 17.9667 14.0204 17.98C14.0737 17.9933 14.157 17.9667 14.2704 17.9ZM18.1619 18.86C18.0752 18.88 17.9619 18.8667 17.8219 18.82C17.6819 18.7667 17.5452 18.7033 17.4119 18.63C17.2852 18.55 17.1986 18.4867 17.1519 18.44C17.1052 18.3867 17.0919 18.34 17.1119 18.3C17.1319 18.2533 17.1652 18.23 17.2119 18.23C17.2386 18.23 17.2819 18.2033 17.3419 18.15C17.4019 18.09 17.4386 17.9833 17.4519 17.83C17.4652 17.7367 17.4819 17.6567 17.5019 17.59C17.5286 17.5167 17.5419 17.4667 17.5419 17.44C17.5486 17.42 17.5552 17.3667 17.5619 17.28C17.5752 17.1867 17.5952 17.1067 17.6219 17.04C17.6486 16.92 17.6886 16.7667 17.7419 16.58C17.7952 16.3867 17.8486 16.2 17.9019 16.02C17.9619 15.8333 18.0086 15.69 18.0419 15.59C18.0552 15.5167 18.0852 15.4233 18.1319 15.31C18.1786 15.1967 18.2186 15.1067 18.2519 15.04C18.3186 14.8533 18.4086 14.6267 18.5219 14.36C18.6419 14.0933 18.7652 13.8267 18.8919 13.56C19.0186 13.2867 19.1286 13.0567 19.2219 12.87C19.3219 12.6767 19.3852 12.56 19.4119 12.52C19.4652 12.4667 19.5519 12.4467 19.6719 12.46C19.7919 12.4733 19.8886 12.5167 19.9619 12.59C20.0219 12.6633 20.0786 12.74 20.1319 12.82C20.1852 12.9 20.1719 12.9867 20.0919 13.08C20.0652 13.1267 20.0219 13.2 19.9619 13.3C19.9019 13.3933 19.8552 13.4633 19.8219 13.51C19.7686 13.67 19.7019 13.8267 19.6219 13.98C19.5486 14.1333 19.4686 14.3067 19.3819 14.5C19.2952 14.6867 19.2019 14.92 19.1019 15.2C19.0419 15.3267 18.9919 15.4533 18.9519 15.58C18.9119 15.7 18.8786 15.7767 18.8519 15.81C18.8119 15.9567 18.7686 16.0667 18.7219 16.14C18.6819 16.2133 18.6486 16.33 18.6219 16.49C18.6219 16.49 18.6552 16.4567 18.7219 16.39C18.7952 16.3233 18.8819 16.24 18.9819 16.14C19.2419 15.86 19.4752 15.6467 19.6819 15.5C19.8886 15.3533 20.0786 15.2767 20.2519 15.27C20.3452 15.2633 20.4452 15.2867 20.5519 15.34C20.6652 15.3933 20.7686 15.46 20.8619 15.54C20.9552 15.6133 21.0186 15.6933 21.0519 15.78C21.1052 15.9 21.1319 16.0567 21.1319 16.25C21.1319 16.4367 21.1019 16.63 21.0419 16.83C20.9886 17.03 20.9019 17.2067 20.7819 17.36C20.7086 17.4867 20.6186 17.61 20.5119 17.73C20.4119 17.8433 20.3252 17.9267 20.2519 17.98C20.1852 18.04 20.1186 18.1 20.0519 18.16C19.9919 18.2133 19.9419 18.2567 19.9019 18.29C19.8152 18.35 19.7452 18.3967 19.6919 18.43C19.6386 18.4567 19.5652 18.4867 19.4719 18.52C19.3319 18.62 19.1386 18.6933 18.8919 18.74C18.6452 18.7867 18.4019 18.8267 18.1619 18.86ZM18.4119 18.1C18.4586 18.1 18.5419 18.09 18.6619 18.07C18.7886 18.05 18.9052 18 19.0119 17.92C19.3252 17.76 19.5752 17.5833 19.7619 17.39C19.9552 17.1967 20.0919 17.0033 20.1719 16.81C20.2519 16.6167 20.2852 16.4433 20.2719 16.29C20.2586 16.1367 20.1752 16.09 20.0219 16.15C19.8752 16.2033 19.6452 16.3867 19.3319 16.7C19.1852 16.8333 19.0586 16.96 18.9519 17.08C18.8452 17.2 18.7352 17.3267 18.6219 17.46C18.5752 17.5333 18.5286 17.5933 18.4819 17.64C18.4419 17.68 18.4186 17.7267 18.4119 17.78C18.3652 17.9933 18.3652 18.1 18.4119 18.1ZM22.3553 18.65C22.2286 18.5367 22.1186 18.42 22.0253 18.3C21.9319 18.1733 21.8686 17.98 21.8353 17.72C21.8219 17.6 21.8353 17.4333 21.8753 17.22C21.9153 17.0067 21.9753 16.7833 22.0553 16.55C22.1353 16.31 22.2219 16.09 22.3153 15.89C22.4086 15.69 22.5019 15.5433 22.5953 15.45C22.6753 15.35 22.7753 15.27 22.8953 15.21C23.0219 15.15 23.1519 15.15 23.2853 15.21C23.3586 15.2967 23.3953 15.4167 23.3953 15.57C23.4019 15.7167 23.3653 15.8533 23.2853 15.98C23.1519 16.16 23.0353 16.3867 22.9353 16.66C22.8419 16.9267 22.7786 17.1667 22.7453 17.38C22.6986 17.5333 22.6786 17.6533 22.6853 17.74C22.6919 17.82 22.7386 17.87 22.8253 17.89C22.9519 17.9233 23.0819 17.8867 23.2153 17.78C23.3553 17.6733 23.4886 17.5167 23.6153 17.31C23.7486 17.1033 23.8653 16.8667 23.9653 16.6C24.0053 16.5067 24.0353 16.3967 24.0553 16.27C24.0819 16.1433 24.1086 16.05 24.1353 15.99C24.1686 15.8567 24.2253 15.7533 24.3053 15.68C24.3919 15.6 24.4819 15.55 24.5753 15.53C24.6686 15.51 24.7386 15.52 24.7853 15.56C24.8453 15.5867 24.9086 15.63 24.9753 15.69C25.0419 15.75 25.0686 15.8567 25.0553 16.01C25.0553 16.2567 25.0019 16.4667 24.8953 16.64C24.7886 16.8133 24.6986 16.9967 24.6253 17.19C24.5653 17.33 24.4686 17.4933 24.3353 17.68C24.2019 17.8667 24.0586 18.0367 23.9053 18.19C23.7586 18.3433 23.6219 18.4467 23.4953 18.5C23.3086 18.62 23.1186 18.6933 22.9253 18.72C22.7319 18.74 22.5419 18.7167 22.3553 18.65ZM26.3464 19.07C25.9931 19.07 25.7331 18.9567 25.5664 18.73C25.5198 18.6233 25.4964 18.5167 25.4964 18.41C25.5031 18.2967 25.5298 18.2167 25.5764 18.17C25.6231 18.1167 25.6798 18.1267 25.7464 18.2C25.8331 18.2533 25.9564 18.28 26.1164 18.28C26.1964 18.28 26.2664 18.28 26.3264 18.28C26.3931 18.2733 26.4698 18.2667 26.5564 18.26C26.7098 18.2467 26.8064 18.2 26.8464 18.12C26.8931 18.04 26.8831 17.9733 26.8164 17.92H26.8264C26.6464 17.8733 26.4698 17.8067 26.2964 17.72C26.1231 17.6333 25.9764 17.5367 25.8564 17.43C25.7364 17.3167 25.6664 17.21 25.6464 17.11C25.5931 16.89 25.6064 16.6633 25.6864 16.43C25.7664 16.1967 25.8831 15.9933 26.0364 15.82C26.0964 15.78 26.1798 15.7233 26.2864 15.65C26.3931 15.57 26.4698 15.5267 26.5164 15.52V15.53C26.6431 15.3967 26.7864 15.29 26.9464 15.21C27.1064 15.1233 27.2931 15.0433 27.5064 14.97L27.6664 14.95C27.7464 14.9367 27.8164 14.93 27.8764 14.93C27.8698 14.93 27.8864 14.9367 27.9264 14.95C27.9664 14.9633 27.9998 14.9733 28.0264 14.98C28.0664 15 28.1064 15.01 28.1464 15.01C28.2398 15.0233 28.3298 15.0733 28.4164 15.16C28.5098 15.24 28.5831 15.3367 28.6364 15.45C28.6964 15.5567 28.7198 15.6567 28.7064 15.75C28.6864 15.9033 28.6298 16.0567 28.5364 16.21C28.4431 16.3567 28.3431 16.44 28.2364 16.46C28.2498 16.4533 28.2364 16.44 28.1964 16.42C28.1564 16.4 28.1198 16.38 28.0864 16.36L28.0464 16.38C28.0464 16.38 28.0431 16.37 28.0364 16.35C28.0364 16.33 28.0298 16.3067 28.0164 16.28C27.9898 16.2333 27.9698 16.1833 27.9564 16.13C27.9498 16.0767 27.9498 16.0167 27.9564 15.95C27.9698 15.8767 27.9731 15.8333 27.9664 15.82C27.9598 15.8067 27.9198 15.7967 27.8464 15.79C27.7598 15.77 27.6498 15.78 27.5164 15.82C27.3831 15.8533 27.2598 15.9133 27.1464 16C27.0131 16.0867 26.9131 16.1567 26.8464 16.21C26.7864 16.2633 26.7398 16.3167 26.7064 16.37C26.6731 16.4167 26.6364 16.4867 26.5964 16.58C26.5698 16.6267 26.5464 16.67 26.5264 16.71C26.5064 16.7433 26.4964 16.7767 26.4964 16.81C26.4964 16.8767 26.5531 16.9467 26.6664 17.02C26.7798 17.0867 26.9498 17.1667 27.1764 17.26C27.3564 17.3333 27.4731 17.4333 27.5264 17.56C27.5864 17.6867 27.6398 17.8067 27.6864 17.92C27.6998 17.9467 27.7131 17.9967 27.7264 18.07C27.7464 18.1367 27.7498 18.1767 27.7364 18.19C27.7498 18.2033 27.7564 18.2167 27.7564 18.23V18.22C27.8098 18.32 27.7998 18.4267 27.7264 18.54C27.6598 18.6467 27.5531 18.7467 27.4064 18.84C27.2598 18.9267 27.0931 18.99 26.9064 19.03H26.9164C26.8164 19.0433 26.7164 19.0533 26.6164 19.06C26.5231 19.0667 26.4331 19.07 26.3464 19.07ZM32.7144 18.99C32.5477 18.99 32.3844 18.96 32.2244 18.9C32.0711 18.8333 31.9477 18.7567 31.8544 18.67C31.7611 18.5833 31.7177 18.5 31.7244 18.42C31.7311 18.3133 31.7677 18.23 31.8344 18.17C31.9011 18.11 32.0077 18.09 32.1544 18.11C32.3811 18.1567 32.6111 18.1733 32.8444 18.16C33.0777 18.14 33.2944 18.0933 33.4944 18.02C33.7011 17.9467 33.8677 17.8467 33.9944 17.72C34.1744 17.5467 34.2677 17.4 34.2744 17.28C34.2811 17.1533 34.1877 17.0267 33.9944 16.9C33.9077 16.84 33.8011 16.7833 33.6744 16.73C33.5477 16.6767 33.4211 16.6367 33.2944 16.61C33.1744 16.5767 33.0677 16.5633 32.9744 16.57C32.9144 16.5767 32.8411 16.5667 32.7544 16.54C32.6677 16.5067 32.5811 16.4667 32.4944 16.42C32.4544 16.3733 32.4177 16.2967 32.3844 16.19C32.3511 16.0833 32.3277 16.0167 32.3144 15.99C32.3077 15.9567 32.3311 15.9167 32.3844 15.87C32.4377 15.8233 32.5444 15.7533 32.7044 15.66C32.8644 15.56 33.0977 15.4267 33.4044 15.26C33.6844 15.1067 33.8977 14.99 34.0444 14.91C34.1977 14.8233 34.3144 14.7567 34.3944 14.71C34.4811 14.6567 34.5544 14.6033 34.6144 14.55C34.6944 14.4567 34.7311 14.3867 34.7244 14.34C34.7177 14.2933 34.6277 14.2533 34.4544 14.22C34.2877 14.2067 34.1544 14.2067 34.0544 14.22C33.9544 14.2267 33.9044 14.2433 33.9044 14.27C33.9044 14.27 33.9011 14.27 33.8944 14.27C33.8944 14.27 33.8844 14.27 33.8644 14.27C33.8311 14.2567 33.7577 14.26 33.6444 14.28C33.5311 14.3 33.4211 14.3233 33.3144 14.35C33.2144 14.3767 33.1611 14.4 33.1544 14.42C33.1477 14.4333 33.1011 14.4567 33.0144 14.49C32.9344 14.5167 32.8511 14.54 32.7644 14.56C32.6844 14.58 32.6344 14.59 32.6144 14.59C32.5811 14.5767 32.5411 14.53 32.4944 14.45C32.4544 14.37 32.4211 14.2867 32.3944 14.2C32.3677 14.1067 32.3611 14.0433 32.3744 14.01C32.3877 13.9833 32.4344 13.9433 32.5144 13.89C32.6011 13.83 32.6977 13.77 32.8044 13.71C32.9111 13.6433 33.0011 13.5933 33.0744 13.56C33.1677 13.5333 33.3044 13.51 33.4844 13.49C33.6711 13.4633 33.8544 13.4433 34.0344 13.43C34.2211 13.41 34.3544 13.4033 34.4344 13.41C34.7411 13.4433 34.9877 13.5233 35.1744 13.65C35.3611 13.77 35.4811 13.9633 35.5344 14.23C35.5544 14.3233 35.5544 14.42 35.5344 14.52C35.5144 14.62 35.4711 14.72 35.4044 14.82C35.3377 14.92 35.2377 15.03 35.1044 15.15C34.9377 15.2567 34.8077 15.3467 34.7144 15.42C34.6277 15.4867 34.5077 15.5567 34.3544 15.63C34.3077 15.6633 34.2344 15.7 34.1344 15.74C34.0344 15.78 33.9411 15.8167 33.8544 15.85C33.7677 15.8833 33.7244 15.9067 33.7244 15.92C33.7244 15.92 33.7544 15.9267 33.8144 15.94C33.8811 15.9467 33.9511 15.96 34.0244 15.98C34.1044 15.9933 34.1611 16.0167 34.1944 16.05C34.3877 16.1167 34.5644 16.2333 34.7244 16.4C34.8911 16.56 35.0077 16.6867 35.0744 16.78C35.1677 16.9867 35.1777 17.2133 35.1044 17.46C35.0377 17.7 34.9144 17.93 34.7344 18.15C34.5611 18.3633 34.3577 18.54 34.1244 18.68C33.9377 18.7867 33.7077 18.8633 33.4344 18.91C33.1677 18.95 32.9277 18.9767 32.7144 18.99Z" fill="#E84126"/>
<defs>
<clipPath id="clip0_442_60662">
<rect width="26" height="26" fill="white" transform="matrix(-1 0 0 1 33 5)"/>
</clipPath>
</defs>
</svg>
