<svg width="60" height="60" viewBox="0 0 60 60" fill="none" xmlns="http://www.w3.org/2000/svg">
<path d="M10.7 24.584C10.532 25.032 10.252 25.844 10.252 26.348C10.252 27.58 11.12 28.364 12.38 28.364C13.472 28.364 14.116 28 14.424 27.104L15.628 23.744H23.02L24.196 27.104C24.532 28 25.26 28.364 26.268 28.364C27.444 28.364 28.424 27.468 28.424 26.348C28.424 25.844 28.144 25.032 27.976 24.584L22.432 9.156C21.928 7.728 21.004 7.476 19.968 7.476H18.876C17.756 7.476 17.028 7.84 16.636 8.876L10.7 24.584ZM22.012 20.552H16.636L19.352 12.46H19.408L22.012 20.552ZM31.3638 25.312C31.3638 27.356 32.4278 28 34.0518 28H40.7998C44.7758 28 48.2198 26.264 48.2198 22.036C48.2198 19.264 46.8198 17.752 44.6918 17.192V17.136C46.5958 16.38 47.5198 14.756 47.5198 13.048C47.5198 8.596 43.5158 7.84 40.1558 7.84H34.0518C32.4278 7.84 31.3638 8.484 31.3638 10.528V25.312ZM35.9558 19.04H39.2598C41.4998 19.04 43.6278 19.348 43.6278 21.784C43.6278 24.108 41.6118 24.472 39.8198 24.472H35.9558V19.04ZM35.9558 11.2H39.5958C41.3038 11.2 42.9278 11.732 42.9278 13.664C42.9278 15.26 41.8918 16.128 39.7358 16.128H35.9558V11.2Z" fill="#FAFAFA"/>
<path d="M10.484 41.92C10.484 48.864 14.208 52.476 20.508 52.476C24.96 52.476 28.488 49.592 28.488 46.68C28.488 45.56 27.368 44.916 26.248 44.916C24.036 44.916 24.12 48.78 20.508 48.78C16.532 48.78 15.076 45.588 15.076 41.92C15.076 37.552 17.456 35.06 20.34 35.06C24.54 35.06 23.756 38.7 26.416 38.7C27.788 38.7 28.488 37.916 28.488 36.628C28.488 34.668 25.604 31.364 20.34 31.364C13.844 31.364 10.484 36.236 10.484 41.92ZM31.895 49.312C31.895 51.356 32.959 52 34.583 52H40.099C46.231 52 49.787 48.304 49.787 41.92C49.787 34.024 45.195 31.84 40.183 31.84H34.583C32.959 31.84 31.895 32.484 31.895 34.528V49.312ZM36.487 35.536H40.323C43.683 35.536 45.195 37.944 45.195 41.92C45.195 45.028 44.019 48.304 40.351 48.304H36.487V35.536Z" fill="#FAFAFA"/>
</svg>
