<svg width="23" height="21" viewBox="0 0 23 21" fill="none" xmlns="http://www.w3.org/2000/svg">
<g clip-path="url(#clip0_349_17533)">
<path d="M15.2813 8.61005L15.2204 3.67421C15.1647 2.44693 15.8423 1.3916 17.0882 1.37106L17.2032 1.37568C18.3626 1.42291 19.291 2.34016 19.3368 3.48378C19.379 4.54784 19.4118 5.72431 19.3811 6.29304C19.3171 7.47054 18.1149 7.60502 18.1149 7.60502C18.1123 7.60502 18.1076 8.32158 18.1082 8.66754L18.0415 9.4806L17.4056 9.23986L15.2813 8.61005Z" fill="#AE7461"/>
<path d="M18.1087 7.61119C18.1087 7.61119 17.3541 7.62402 16.573 7.0943C16.573 7.0943 16.9102 7.99513 18.1061 7.93764L18.1087 7.61119Z" fill="#6F4439"/>
<path d="M18.8055 4.45957C18.805 4.54837 18.7279 4.62125 18.6337 4.62279C18.5395 4.62382 18.4636 4.55299 18.4641 4.46419C18.4646 4.37539 18.5416 4.30199 18.6353 4.30096C18.73 4.29942 18.806 4.37025 18.8055 4.45957Z" fill="#263238"/>
<path d="M19.061 3.95293C19.0392 3.97397 18.9137 3.8744 18.73 3.86721C18.5468 3.85746 18.4084 3.94523 18.3892 3.92213C18.3798 3.91187 18.4032 3.87337 18.4636 3.83333C18.5229 3.79381 18.6233 3.75685 18.7373 3.76198C18.8518 3.76712 18.946 3.8128 18.9996 3.85746C19.0542 3.90314 19.0719 3.94369 19.061 3.95293Z" fill="#263238"/>
<path d="M17.1891 4.4267C17.1886 4.5155 17.1115 4.58839 17.0173 4.58993C16.9232 4.59095 16.8472 4.52012 16.8477 4.43132C16.8482 4.34252 16.9252 4.26963 17.0189 4.26809C17.1136 4.26655 17.1896 4.3379 17.1891 4.4267Z" fill="#263238"/>
<path d="M17.2604 3.92162C17.2386 3.94266 17.1131 3.84308 16.9294 3.8359C16.7463 3.82615 16.6078 3.91392 16.5886 3.89082C16.5792 3.88055 16.6021 3.84206 16.663 3.80202C16.7223 3.7625 16.8228 3.72554 16.9367 3.73067C17.0512 3.73581 17.1454 3.78149 17.199 3.82615C17.2536 3.87183 17.2713 3.91238 17.2604 3.92162Z" fill="#263238"/>
<path d="M17.8605 5.33934C17.8599 5.32907 17.9749 5.31419 18.1607 5.29828C18.2081 5.2952 18.2523 5.28801 18.2617 5.2567C18.2742 5.22385 18.2565 5.17303 18.2362 5.11862C18.1966 5.00518 18.1555 4.8861 18.1123 4.76086C17.9406 4.25167 17.8188 3.83436 17.8396 3.82769C17.8605 3.82101 18.0166 4.22806 18.1878 4.73724C18.2289 4.86249 18.2685 4.98209 18.3059 5.09655C18.3215 5.14993 18.3496 5.2105 18.3226 5.27877C18.3085 5.31265 18.2731 5.33626 18.243 5.34345C18.2128 5.35114 18.1862 5.35063 18.1628 5.35114C17.976 5.35371 17.861 5.3496 17.8605 5.33934Z" fill="#263238"/>
<path d="M16.5157 3.26768C16.5324 3.21789 16.7161 3.23483 16.9305 3.20249C17.1454 3.17375 17.3171 3.10599 17.3473 3.14911C17.3609 3.16964 17.3322 3.21738 17.2635 3.26717C17.1954 3.31696 17.0861 3.36623 16.957 3.38471C16.8285 3.40319 16.7093 3.38677 16.6297 3.35802C16.5501 3.32876 16.5089 3.29129 16.5157 3.26768Z" fill="#263238"/>
<path d="M18.4131 3.1219C18.4636 3.09623 18.5885 3.1876 18.7566 3.25073C18.9226 3.319 19.0777 3.33851 19.0953 3.39086C19.1026 3.4155 19.0657 3.4463 18.9892 3.46016C18.9142 3.47402 18.7998 3.46632 18.6853 3.42115C18.5703 3.37598 18.4833 3.30412 18.4391 3.24355C18.3949 3.18195 18.3902 3.13473 18.4131 3.1219Z" fill="#263238"/>
<path d="M15.2813 4.50985C15.2615 4.5001 14.471 4.23729 14.4632 5.04317C14.4554 5.84955 15.2777 5.69094 15.2797 5.66784C15.2813 5.64475 15.2813 4.50985 15.2813 4.50985Z" fill="#AE7461"/>
<path d="M15.0331 5.36037C15.0294 5.35781 15.0185 5.37013 14.9945 5.38091C14.9711 5.39117 14.9305 5.39836 14.8879 5.38193C14.802 5.35011 14.7302 5.21409 14.7276 5.06882C14.726 4.99542 14.7427 4.92561 14.7692 4.86812C14.7947 4.80961 14.8337 4.76855 14.8775 4.76136C14.9206 4.75212 14.9514 4.77779 14.9612 4.80088C14.9722 4.82347 14.9664 4.83938 14.9711 4.84092C14.9732 4.84297 14.9888 4.82757 14.9826 4.79421C14.9795 4.7783 14.9701 4.75879 14.9508 4.74339C14.9316 4.72748 14.9024 4.71927 14.8722 4.72235C14.8093 4.72594 14.752 4.78292 14.7224 4.84605C14.6891 4.9097 14.6693 4.98772 14.6708 5.07036C14.6745 5.23308 14.7572 5.38553 14.8754 5.42043C14.9326 5.43583 14.981 5.41889 15.006 5.40041C15.031 5.37988 15.0357 5.36191 15.0331 5.36037Z" fill="#6F4439"/>
<path d="M20.987 2.38225C20.9746 2.33451 20.9402 2.29499 20.8975 2.26984C20.8044 2.2144 20.6967 2.22005 20.5921 2.21748C20.3329 2.21029 20.0763 2.14203 19.8463 2.02397C19.9275 1.98444 20.0035 1.9362 20.068 1.87409C20.2018 1.74576 20.2798 1.54712 20.2215 1.3726C20.2106 1.33975 20.1919 1.30536 20.158 1.29458C20.105 1.27815 20.0581 1.32897 20.0206 1.369C19.8973 1.50195 19.7844 1.55841 19.6028 1.53788C19.4898 1.52556 19.3811 1.49938 19.2931 1.44395C19.2895 1.44035 19.2864 1.43625 19.2832 1.43265C19.2411 1.38902 19.2 1.34693 19.1599 1.3069C19.1599 1.3069 19.1599 1.3069 19.1599 1.30638C18.8549 1.002 18.5932 0.790522 18.322 0.679651C17.925 0.516936 17.2578 0.445075 16.8404 0.548247C16.4231 0.651419 16.0452 0.979928 15.9828 1.3998C15.7517 1.2027 15.4015 1.20013 15.1158 1.30998L15.1085 1.3069C14.7905 1.41469 14.6068 1.74268 14.51 2.0599C14.5048 2.07735 14.5001 2.0948 14.4949 2.11225C14.3862 2.27856 14.2389 2.42023 14.064 2.51776C14.0333 2.53521 13.998 2.55625 13.9938 2.59065C13.9896 2.62504 14.0188 2.65378 14.0474 2.67431C14.1229 2.72872 14.2108 2.76517 14.3024 2.7821C14.2727 2.85756 14.2379 2.93045 14.1947 3.00025C14.1582 3.05928 14.115 3.13063 14.1452 3.19274C14.1686 3.24099 14.2306 3.26152 14.2842 3.25433C14.3378 3.24715 14.3862 3.2184 14.4325 3.19017C14.3961 3.27333 14.3602 3.35597 14.3237 3.43912C14.4382 3.46017 14.5569 3.45247 14.6682 3.42013C14.7323 3.71887 14.7765 4.27066 14.8514 4.47341C15.0684 4.47957 15.1215 4.45698 15.2303 4.49394C15.3713 4.54168 15.3146 4.78857 15.4993 4.7203C15.5935 4.6854 15.7413 4.33636 15.7741 4.24294C15.9896 3.6198 16.0666 2.95098 15.9989 2.29653C16.1316 2.15999 16.2914 2.04912 16.4663 1.97213L16.4522 1.98444C16.7879 1.87357 17.1672 1.76527 17.4826 1.92336C17.7272 2.04604 17.8688 2.29961 18.0504 2.50236C18.3944 2.88682 18.7868 3.0947 19.3061 3.12242C19.3488 3.47916 19.3561 4.06123 19.3701 4.39385L19.6652 3.73221V3.73478C19.6891 3.69628 19.7084 3.65676 19.7277 3.61775L19.7344 3.60594V3.6044C19.7646 3.54178 19.7932 3.47864 19.8312 3.41654C19.8323 3.41756 19.8333 3.41859 19.8343 3.41962C20.0149 3.58028 20.2866 3.34057 20.145 3.14552C20.1169 3.10702 20.0831 3.07212 20.0446 3.04337C20.1273 3.12139 20.2512 3.15989 20.361 3.12806C20.4708 3.09624 20.5567 2.98793 20.5489 2.87552C20.5431 2.79853 20.4885 2.72923 20.4188 2.69844C20.566 2.71127 20.717 2.6815 20.8465 2.61066C20.9308 2.56447 21.0141 2.48696 20.987 2.38225Z" fill="#263238"/>
<path d="M16.3575 1.53943C16.3601 1.54251 16.307 1.57023 16.2363 1.64619C16.166 1.72216 16.0869 1.85459 16.0479 2.03578C16.0281 2.12561 16.0151 2.22673 16.014 2.33555C16.0125 2.44437 16.0198 2.56088 16.0271 2.68356C16.0338 2.80624 16.0411 2.9361 16.0317 3.07059C16.0271 3.13783 16.0182 3.2061 16.0026 3.27436C15.987 3.34161 15.9682 3.41398 15.9157 3.47147C15.8741 3.51818 15.8054 3.5382 15.746 3.52536C15.6862 3.51407 15.6336 3.48225 15.5951 3.43913C15.5191 3.34982 15.5014 3.23689 15.4832 3.13783L15.5082 3.14091C15.4661 3.22971 15.4229 3.31697 15.3599 3.38626C15.2974 3.45607 15.2121 3.50175 15.1257 3.50843C15.0825 3.51202 15.0393 3.50432 15.0024 3.48584C14.9649 3.46736 14.9378 3.43605 14.9196 3.40371C14.9019 3.37035 14.8931 3.33391 14.8957 3.299C14.8983 3.2641 14.9123 3.23073 14.9352 3.20764L14.9477 3.21893C14.8541 3.32159 14.7562 3.376 14.6886 3.40628C14.6542 3.42117 14.6272 3.43041 14.6084 3.43605C14.5897 3.44118 14.5798 3.44324 14.5798 3.44272C14.5798 3.4417 14.5892 3.4381 14.6069 3.43143C14.6246 3.42425 14.6511 3.41398 14.6844 3.39807C14.75 3.36573 14.8452 3.30978 14.9347 3.20764L14.9472 3.21893C14.9066 3.2605 14.9035 3.33442 14.9373 3.39396C14.9545 3.42322 14.9795 3.45094 15.0123 3.46685C15.045 3.48327 15.0846 3.48943 15.1236 3.48584C15.2032 3.47917 15.2829 3.43605 15.3412 3.36932C15.401 3.30311 15.4426 3.2179 15.4843 3.1291L15.502 3.09163L15.5092 3.13269C15.5275 3.23176 15.5462 3.34007 15.6159 3.42065C15.6503 3.45966 15.6987 3.48841 15.7512 3.49765C15.8038 3.50843 15.859 3.492 15.8954 3.45196C15.9412 3.40269 15.9599 3.33339 15.9755 3.26769C15.9906 3.20096 16 3.13423 16.0047 3.06802C16.0146 2.93559 16.0078 2.80675 16.0016 2.68407C15.9953 2.5614 15.9885 2.44437 15.9911 2.33452C15.9932 2.22468 16.0078 2.12253 16.0291 2.03116C16.0708 1.84741 16.1546 1.71344 16.2285 1.63849C16.3029 1.56355 16.3575 1.53943 16.3575 1.53943Z" fill="#455A64"/>
<path d="M20.0456 2.72924C20.0461 2.72975 20.0425 2.73232 20.0357 2.73694C20.0274 2.74259 20.0175 2.74977 20.0055 2.75798C19.9925 2.76774 19.9759 2.77852 19.9545 2.7893C19.9337 2.80059 19.9098 2.81445 19.8812 2.82625C19.7693 2.87707 19.5908 2.92686 19.368 2.91146C19.1474 2.89657 18.8835 2.8165 18.6488 2.64044C18.4115 2.46797 18.2049 2.21595 18.0368 1.92799C17.9515 1.78427 17.8823 1.63695 17.8058 1.50093C17.7298 1.3649 17.6455 1.23863 17.5424 1.13854C17.441 1.03794 17.3223 0.963508 17.2 0.92809C17.1391 0.909612 17.0772 0.904479 17.0184 0.905505C16.9591 0.908072 16.9034 0.918851 16.8513 0.935276C16.7478 0.968127 16.664 1.02356 16.6 1.08054C16.536 1.13803 16.4928 1.19911 16.4631 1.25198C16.4074 1.35977 16.4038 1.42958 16.3991 1.42804C16.3986 1.42804 16.3991 1.42393 16.4001 1.41572C16.4017 1.40597 16.4038 1.39416 16.4064 1.37979C16.4126 1.34848 16.4267 1.3028 16.4532 1.24685C16.4818 1.19244 16.525 1.1293 16.589 1.06925C16.6531 1.0097 16.7384 0.951702 16.8446 0.916798C16.8977 0.899346 16.9554 0.88754 17.0168 0.88446C17.0777 0.88292 17.1428 0.88754 17.2057 0.906532C17.3332 0.941949 17.4555 1.01843 17.5596 1.12058C17.6653 1.22221 17.7516 1.35053 17.8287 1.48758C17.9062 1.62463 17.9754 1.77143 18.0602 1.91413C18.2273 2.20003 18.4313 2.44898 18.6634 2.61991C18.8934 2.79443 19.1515 2.87502 19.3686 2.89195C19.5876 2.90941 19.7641 2.86372 19.876 2.8165C19.9899 2.76876 20.0435 2.72565 20.0456 2.72924Z" fill="#455A64"/>
<path d="M20.1607 2.21185C20.1617 2.21339 20.1461 2.22365 20.1175 2.24111C20.0888 2.25856 20.0451 2.28063 19.9894 2.30321C19.9338 2.32683 19.8651 2.34838 19.7875 2.36635C19.7095 2.38277 19.622 2.39458 19.5299 2.39715C19.4378 2.39869 19.3499 2.38996 19.2713 2.37713C19.1927 2.36224 19.1235 2.34376 19.0668 2.32272C19.01 2.30219 18.9658 2.28217 18.9367 2.26574C18.907 2.24983 18.8914 2.24008 18.8924 2.23854C18.895 2.23392 18.9606 2.26831 19.0735 2.30424C19.1297 2.32272 19.1984 2.33914 19.276 2.35249C19.3535 2.3643 19.4394 2.37148 19.5299 2.37046C19.6205 2.36789 19.7058 2.35711 19.7828 2.34222C19.8593 2.3258 19.9275 2.30681 19.9832 2.28628C20.094 2.24419 20.1581 2.20723 20.1607 2.21185Z" fill="#455A64"/>
<path d="M17.8432 5.89061C17.8339 5.86136 17.6408 5.93476 17.4399 5.8244C17.2385 5.71455 17.1802 5.50359 17.1532 5.51232C17.1402 5.51437 17.1334 5.57186 17.1646 5.65809C17.1948 5.7433 17.2703 5.8552 17.3931 5.92295C17.5159 5.99019 17.645 5.99019 17.7267 5.96607C17.8099 5.94246 17.8495 5.90293 17.8432 5.89061Z" fill="#263238"/>
<path d="M18.1087 8.48123C18.1087 8.48123 20.1019 9.3025 20.6368 9.68798C21.1718 10.0735 20.7956 12.7097 20.8367 13.2579C20.8778 13.8056 20.7982 17.8781 20.7982 17.8781C20.7982 17.8781 21.0823 20.0447 20.973 20.4271C20.973 20.4271 17.7481 20.5436 16.4933 20.4831C15.2386 20.4225 12.6949 20.5005 12.6949 20.5005L12.7714 17.6209L12.8744 13.1158L12.0928 9.19881L15.1809 8.07418L15.2464 7.88016C15.2464 7.88016 16.3757 8.88467 17.0752 8.84412C17.7741 8.80357 18.1087 8.48123 18.1087 8.48123Z" fill="#FFBE3B"/>
<g opacity="0.3">
<path d="M12.6454 16.8469C12.7157 16.6672 12.8541 16.5235 12.9936 16.3885C13.9876 15.4246 15.1814 14.6613 16.4803 14.1608C16.9831 13.9668 17.5087 13.8108 18.0483 13.7954C18.588 13.78 19.1464 13.916 19.5632 14.2542C20.1144 14.7008 20.3459 15.4266 20.4459 16.1231C20.5463 16.8197 20.5447 17.5362 20.7576 18.2081L20.882 18.8277C20.6748 18.9175 20.4245 18.841 20.2538 18.6942C20.0837 18.5474 19.978 18.3426 19.8838 18.1399C19.5825 17.4906 19.3556 16.8079 19.2088 16.1088C19.1251 15.7094 19.046 15.2675 18.7254 15.0098C18.3725 14.7265 17.8553 14.7742 17.4207 14.9061C15.9839 15.3419 14.8957 16.4763 13.6347 17.2842C13.3579 17.4618 12.9634 17.6143 12.7277 17.3864C12.5887 17.2509 12.5752 17.026 12.6454 16.8469Z" fill="#FFBE3B"/>
</g>
<path d="M12.0917 9.19882C12.0917 9.19882 11.5645 9.48575 11.3496 9.82196C11.1352 10.1582 10.2765 12.6979 10.2765 12.6979L13.1336 13.5341L13.5078 11.3346L12.0917 9.19882Z" fill="#FFBE3B"/>
<path d="M20.5411 9.62329C20.5411 9.62329 20.9647 9.74084 21.265 10.1864C21.4929 10.5241 22.4978 13.1404 22.4978 13.1404L20.5629 14.1505L20.5411 9.62329Z" fill="#FFBE3B"/>
<path d="M20.7976 11.3105C20.7903 11.3105 20.7841 12.4428 20.7841 13.839C20.7841 15.2357 20.7903 16.3675 20.7976 16.3675C20.8049 16.3675 20.8112 15.2357 20.8112 13.839C20.8112 12.4423 20.8049 11.3105 20.7976 11.3105Z" fill="#FFBE3B"/>
<path d="M12.2806 9.37486C12.2796 9.3764 12.2989 9.39796 12.3348 9.43543C12.3712 9.4729 12.4227 9.52833 12.4841 9.59865C12.6075 9.73878 12.7672 9.94205 12.915 10.1848C13.0623 10.4281 13.169 10.6627 13.2356 10.8362C13.2694 10.923 13.2949 10.9938 13.311 11.0431C13.3277 11.0923 13.3381 11.1195 13.3397 11.119C13.3412 11.1185 13.335 11.0903 13.3209 11.04C13.3079 10.9897 13.285 10.9173 13.2533 10.8295C13.1908 10.6535 13.0862 10.4158 12.9379 10.171C12.7891 9.92665 12.6257 9.72338 12.4982 9.58582C12.4342 9.51704 12.3806 9.46314 12.342 9.42773C12.3041 9.39282 12.2822 9.37383 12.2806 9.37486Z" fill="#FFBE3B"/>
<path d="M12.9457 13.6414C12.953 13.6424 13.0103 13.1722 13.0732 12.5912C13.1362 12.0101 13.1809 11.5389 13.1737 11.5384C13.1664 11.5374 13.1091 12.0075 13.0462 12.5886C12.9832 13.1691 12.9384 13.6408 12.9457 13.6414Z" fill="#FFBE3B"/>
<path d="M15.7211 13.2127L12.8385 14.6495L12.8099 14.5802L12.9353 13.4755L10.5404 12.7749C10.5404 12.7749 10.3078 15.4107 10.1777 15.9645C9.97419 16.8304 10.6887 17.8801 11.9892 17.8781C12.684 17.877 16.8056 14.6654 16.8056 14.6654L15.7211 13.2127Z" fill="#AE7461"/>
<path d="M20.1466 13.1091L19.3587 14.612L19.8578 16.0934L20.0717 16.6883C20.0717 16.6883 20.6415 18.8754 21.2567 18.9283C21.8723 18.9812 22.3402 18.8877 22.8189 17.9648C23.3399 16.9608 22.5952 14.2147 22.3599 13.2133L20.8476 13.955L20.1466 13.1091Z" fill="#AE7461"/>
<path d="M17.0273 12.5178C17.1438 12.4787 17.4337 12.7 17.606 12.8452C17.7782 12.9905 18.091 13.1424 18.091 13.1424C18.091 13.1424 16.841 12.0604 16.8441 11.8951C16.8472 11.7298 16.9242 11.6138 17.1397 11.7088C17.1397 11.7088 16.893 11.5137 17.1064 11.3012C17.3197 11.0887 18.6676 12.3042 18.6676 12.3042L18.7259 12.2462C18.7259 12.2462 17.5544 11.2407 17.6242 11.1483C17.6939 11.0554 17.8885 10.9779 18.1311 11.1842C18.3741 11.3906 19.3166 12.1353 19.5023 12.3309C19.8266 12.6723 19.9551 12.6255 20.0685 12.6225L20.8476 13.9539L19.418 14.7352C19.418 14.7352 18.7306 14.5006 18.001 13.6891C18.001 13.6891 17.2412 13.124 17.0845 12.9325C16.9268 12.741 16.9102 12.5568 17.0273 12.5178Z" fill="#AE7461"/>
<path d="M16.7463 14.7039C16.7463 14.7039 17.5201 14.6505 18.5 14.0155C18.5 14.0155 19.4415 13.6419 19.6569 13.4879C19.8724 13.3339 19.9416 13.1486 19.8323 13.0762C19.723 13.0038 19.3624 13.1527 19.1438 13.2548C18.9252 13.357 18.5604 13.4278 18.5604 13.4278C18.5604 13.4278 20.1518 12.6569 20.1955 12.4859C20.2393 12.315 20.1919 12.1744 19.9442 12.2134C19.9442 12.2134 20.2533 12.0804 20.0935 11.8032C19.9478 11.5502 18.4933 12.2626 18.2409 12.3889C18.2201 12.3992 18.1946 12.3915 18.1826 12.3715C18.1701 12.3499 18.1784 12.3227 18.2008 12.3114C18.385 12.2185 19.1396 11.834 19.4524 11.6179C19.6507 11.4809 19.3723 11.2258 19.0642 11.3716C18.7561 11.5173 17.5846 12.0825 17.2963 12.1102C17.008 12.1379 16.625 12.1903 16.5948 12.1143C16.5646 12.0378 16.7322 11.7304 16.804 11.5969C16.8759 11.4634 16.9919 11.1714 16.6453 11.0857C16.6453 11.0857 16.1509 11.6955 15.9922 11.9249C15.8335 12.1538 15.5644 13.2846 15.5644 13.2846" fill="#AE7461"/>
<path d="M15.5644 13.2846C15.5644 13.2846 15.5686 13.2708 15.5759 13.243C15.5832 13.2148 15.5941 13.1737 15.6076 13.1198C15.6357 13.0115 15.6774 12.8509 15.7367 12.6456C15.7658 12.5429 15.8002 12.4284 15.8413 12.3047C15.8616 12.2426 15.884 12.1785 15.91 12.1123C15.936 12.0466 15.9646 11.9783 16.0073 11.9157C16.1874 11.6677 16.408 11.3947 16.6521 11.0918L16.6427 11.0949C16.6916 11.1098 16.7426 11.1252 16.7832 11.1575C16.8243 11.1883 16.855 11.233 16.866 11.2848C16.8774 11.3362 16.8707 11.3911 16.8561 11.4439C16.8415 11.4968 16.8186 11.5481 16.7916 11.5979C16.7369 11.6985 16.6812 11.8022 16.6334 11.9126C16.611 11.9685 16.585 12.0235 16.5803 12.0892C16.5792 12.0974 16.5813 12.1061 16.5834 12.1153C16.585 12.1246 16.5928 12.1338 16.6006 12.1389C16.6157 12.1497 16.6323 12.1538 16.6479 12.1574C16.6797 12.1641 16.7114 12.1656 16.7437 12.1661C16.8707 12.1672 16.9987 12.1528 17.1288 12.1405C17.1938 12.1328 17.2589 12.1292 17.3255 12.1184C17.3926 12.1076 17.4561 12.0856 17.5207 12.0645C17.7762 11.9752 18.0312 11.8633 18.2929 11.7463C18.5542 11.6298 18.8196 11.5014 19.0912 11.3762C19.1584 11.348 19.2338 11.3362 19.3062 11.3474C19.378 11.3577 19.4503 11.3931 19.4883 11.4532C19.5076 11.483 19.5112 11.5199 19.4961 11.5507C19.4805 11.5815 19.4535 11.6046 19.4201 11.6256C19.3561 11.6688 19.2895 11.7088 19.2224 11.7488C18.9528 11.9069 18.6702 12.0568 18.3825 12.2052L18.2742 12.2606L18.2196 12.2883L18.1915 12.3027C18.18 12.3094 18.1706 12.3201 18.1665 12.3325C18.1571 12.3576 18.1686 12.3879 18.1925 12.4007C18.204 12.4074 18.218 12.4095 18.2315 12.4069C18.2461 12.4038 18.2539 12.3976 18.2633 12.3935L18.3736 12.3391C18.5214 12.2673 18.6718 12.1975 18.8243 12.1297C19.1157 12.0024 19.4071 11.8797 19.7064 11.8012C19.7813 11.7827 19.8568 11.7668 19.9322 11.7637C19.9697 11.7627 20.0077 11.7642 20.0405 11.7776C20.0566 11.7843 20.0701 11.794 20.079 11.8068C20.0878 11.8212 20.0951 11.8392 20.1034 11.8551C20.1326 11.9218 20.1336 11.9988 20.0977 12.0609C20.0639 12.1235 20.0025 12.1713 19.9385 12.2021L19.8635 12.2385L19.9458 12.2267C19.9962 12.2195 20.0488 12.2159 20.0962 12.2303C20.1435 12.2437 20.1799 12.2801 20.1898 12.3273C20.2018 12.374 20.1956 12.4248 20.1846 12.4731C20.1836 12.4798 20.182 12.4854 20.1794 12.489C20.1773 12.4936 20.1753 12.4983 20.1711 12.5024C20.1643 12.5116 20.156 12.5203 20.1466 12.529C20.1289 12.546 20.1092 12.5619 20.0889 12.5773C19.9255 12.6969 19.748 12.7944 19.5757 12.8909C19.2286 13.0819 18.8857 13.2548 18.5547 13.417L18.4704 13.4581L18.5625 13.4391C18.715 13.4078 18.8628 13.3703 19.0049 13.3216C19.0762 13.298 19.1448 13.2667 19.2104 13.2359C19.277 13.2061 19.3436 13.1779 19.4103 13.1522C19.4769 13.127 19.544 13.1039 19.6117 13.0875C19.6783 13.0721 19.7501 13.0572 19.8105 13.0772C19.8391 13.0885 19.8615 13.1147 19.8682 13.144C19.876 13.1737 19.8703 13.2061 19.8599 13.2359C19.838 13.2959 19.7964 13.3483 19.7516 13.3939C19.7059 13.4391 19.6549 13.4786 19.6012 13.511C19.5466 13.5428 19.4909 13.5721 19.4352 13.5993C19.3239 13.6542 19.2135 13.704 19.1063 13.7517C18.8914 13.8462 18.6874 13.9309 18.4969 14.0073L18.4959 14.0078L18.4954 14.0084C17.9921 14.3353 17.5441 14.5083 17.2334 14.5992C17.0778 14.6448 16.955 14.67 16.8722 14.6849C16.8306 14.6921 16.7988 14.6967 16.778 14.6993C16.7567 14.7018 16.7458 14.7034 16.7458 14.7034C16.7458 14.7034 16.7567 14.7034 16.778 14.7013C16.7994 14.6993 16.8311 14.6951 16.8727 14.689C16.956 14.6756 17.0788 14.6515 17.2355 14.6074C17.5477 14.5191 17.9979 14.3482 18.5037 14.0217L18.5021 14.0222C18.6931 13.9463 18.8977 13.8621 19.1131 13.7681C19.2208 13.7209 19.3312 13.6711 19.4436 13.6167C19.4998 13.5895 19.5555 13.5603 19.6117 13.5279C19.6673 13.4946 19.7194 13.4545 19.7662 13.4083C19.8125 13.3616 19.8557 13.3077 19.8797 13.243C19.8911 13.2107 19.8979 13.1748 19.889 13.1388C19.8802 13.1029 19.8542 13.0716 19.8188 13.0577C19.747 13.0341 19.6751 13.0516 19.6065 13.0665C19.5372 13.0834 19.4696 13.1065 19.4025 13.1317C19.3348 13.1573 19.2682 13.1856 19.2011 13.2153C19.1339 13.2461 19.0683 13.2764 18.9976 13.2995C18.8571 13.3472 18.7093 13.3842 18.5583 13.4155L18.5662 13.4376C18.8977 13.2754 19.2406 13.1029 19.5888 12.912C19.7621 12.815 19.939 12.7179 20.1055 12.5963C20.1263 12.5809 20.1466 12.5645 20.1654 12.5465C20.1753 12.5378 20.1841 12.528 20.193 12.5167C20.2013 12.5075 20.2096 12.489 20.2112 12.4777C20.2226 12.4269 20.2299 12.3735 20.2164 12.3196C20.2096 12.2934 20.1976 12.2668 20.1773 12.2467C20.157 12.2267 20.1321 12.2118 20.105 12.2041C20.0514 12.1877 19.9957 12.1918 19.9426 12.1995L19.9499 12.2247C20.0197 12.1908 20.0837 12.1415 20.1222 12.0717C20.1622 12.0029 20.1607 11.9141 20.1289 11.8433C20.1201 11.8258 20.1128 11.8084 20.1019 11.7904C20.0894 11.7719 20.0707 11.7591 20.0514 11.7514C20.0124 11.736 19.9713 11.7345 19.9322 11.7355C19.8531 11.7386 19.7766 11.755 19.7006 11.7735C19.3983 11.853 19.1063 11.9757 18.8139 12.1035C18.6614 12.1713 18.5105 12.2416 18.3627 12.3135L18.2518 12.3679C18.2425 12.3725 18.2331 12.3781 18.2274 12.3787C18.2206 12.3802 18.2128 12.3787 18.2066 12.3751C18.1941 12.3684 18.1878 12.352 18.1925 12.3386C18.1946 12.3319 18.1998 12.3263 18.2055 12.3227L18.2321 12.3094L18.2867 12.2816L18.3955 12.2262C18.6838 12.0773 18.9663 11.9275 19.2364 11.7683C19.3036 11.7278 19.3707 11.6878 19.4352 11.6441C19.4675 11.6246 19.5024 11.5964 19.5206 11.5584C19.5393 11.5199 19.5341 11.4717 19.5117 11.4373C19.467 11.3669 19.3884 11.3305 19.3109 11.3192C19.2328 11.3069 19.1527 11.3197 19.0819 11.35C18.8081 11.4768 18.5443 11.6046 18.2831 11.7216C18.0223 11.8387 17.7673 11.9511 17.5139 12.0399C17.4504 12.0609 17.3864 12.0825 17.3229 12.0933C17.2589 12.1035 17.1918 12.1076 17.1272 12.1153C16.9976 12.1282 16.8696 12.1425 16.7447 12.142C16.7135 12.1415 16.6828 12.14 16.6531 12.1338C16.6386 12.1307 16.6245 12.1266 16.6141 12.1194C16.6037 12.1133 16.6027 12.102 16.6027 12.0876C16.6063 12.0306 16.6318 11.9737 16.6537 11.9193C16.701 11.8099 16.7562 11.7067 16.8103 11.6061C16.8379 11.5553 16.8608 11.5025 16.8759 11.4475C16.8904 11.3931 16.8982 11.3351 16.8858 11.2797C16.8743 11.2237 16.84 11.1745 16.7952 11.1416C16.751 11.1072 16.6979 11.0913 16.6474 11.0759L16.6417 11.0744L16.638 11.079C16.395 11.3829 16.1754 11.6564 15.9959 11.9064C15.9521 11.9711 15.9235 12.0399 15.898 12.1061C15.8725 12.1723 15.8501 12.237 15.8298 12.2996C15.7898 12.4238 15.7559 12.5383 15.7273 12.6415C15.6696 12.8478 15.6295 13.0085 15.6029 13.1173C15.5899 13.1712 15.58 13.2128 15.5733 13.241C15.567 13.2702 15.5644 13.2846 15.5644 13.2846Z" fill="#6F4439"/>
<path d="M20.6499 13.6301C20.6488 13.6306 20.6561 13.6439 20.6707 13.6691C20.6858 13.6942 20.7066 13.7317 20.7363 13.7784C20.794 13.8728 20.8825 14.0058 20.9965 14.168C21.2223 14.4929 21.5606 14.9225 21.9046 15.4173C22.0742 15.6663 22.234 15.9055 22.3521 16.137C22.4713 16.368 22.5437 16.5928 22.5718 16.7868C22.6014 16.9808 22.5889 17.141 22.5697 17.2483C22.5603 17.3022 22.5499 17.3437 22.5421 17.3715C22.5343 17.3992 22.5306 17.4141 22.5312 17.4146C22.5322 17.4151 22.5374 17.4007 22.5473 17.373C22.5567 17.3453 22.5692 17.3042 22.5801 17.2503C22.6025 17.1425 22.6181 16.9803 22.5905 16.7842C22.5645 16.5882 22.4932 16.3597 22.374 16.1262C22.2564 15.8916 22.0966 15.6514 21.9265 15.4025C21.5819 14.9066 21.2411 14.479 21.0116 14.1572C20.896 13.9971 20.805 13.8657 20.7446 13.7733C20.7134 13.7276 20.691 13.6911 20.6749 13.667C20.6598 13.6424 20.6509 13.6295 20.6499 13.6301Z" fill="#6F4439"/>
<path d="M18.3299 12.954C18.3309 12.9556 18.3528 12.9463 18.3928 12.9284C18.4324 12.9104 18.4891 12.8832 18.5588 12.8493C18.703 12.7775 18.8924 12.683 19.1022 12.5783C19.3145 12.4736 19.5102 12.3858 19.6533 12.3253C19.7209 12.297 19.7782 12.2729 19.8229 12.2544C19.863 12.2375 19.8848 12.2272 19.8843 12.2257C19.8838 12.2241 19.8604 12.2308 19.8193 12.2447C19.7776 12.2585 19.7188 12.2801 19.646 12.3078C19.5008 12.3638 19.303 12.4495 19.0902 12.5542C18.8773 12.6594 18.6879 12.76 18.5505 12.8324C18.486 12.8673 18.4313 12.896 18.3882 12.9191C18.3496 12.9402 18.3293 12.9525 18.3299 12.954Z" fill="#6F4439"/>
<path d="M11.6353 15.3963C11.6364 15.3979 11.6572 15.3819 11.6926 15.3527C11.729 15.3239 11.7816 15.2834 11.8497 15.2362C11.9845 15.1407 12.1786 15.0196 12.3982 14.8938C12.6179 14.7691 12.8208 14.6623 12.9691 14.5874C13.0399 14.5519 13.0987 14.5227 13.145 14.4996C13.1867 14.4791 13.2096 14.4667 13.2085 14.4652C13.2075 14.4637 13.1835 14.4724 13.1403 14.4898C13.0972 14.5078 13.0357 14.5345 12.9608 14.5704C12.8104 14.6407 12.6054 14.7455 12.3852 14.8707C12.1651 14.997 11.972 15.1207 11.8393 15.2208C11.7727 15.2706 11.7212 15.3137 11.6868 15.345C11.652 15.3768 11.6343 15.3953 11.6353 15.3963Z" fill="#6F4439"/>
<path d="M10.1001 2.31861C10.0668 2.13228 9.98358 1.94391 9.82537 1.83611C9.63178 1.7042 9.37418 1.72114 9.14208 1.75809C8.80953 1.81096 8.45201 1.91311 8.26259 2.18772C8.1533 2.34582 8.11583 2.54497 8.12832 2.73592C8.14081 2.92686 8.20066 3.11216 8.27247 3.28976L9.14936 3.65369C9.35753 3.32723 9.82381 3.22765 10.021 2.89453C10.1215 2.7236 10.135 2.51366 10.1001 2.31861Z" fill="#263238"/>
<path d="M1.60236 9.60791C1.57061 9.52373 1.47538 9.48523 1.39472 9.44314C1.10641 9.29275 0.915419 8.97656 0.918541 8.65472C0.921664 8.33289 1.1189 8.02029 1.40981 7.87554C1.48162 7.83961 1.56073 7.81189 1.61537 7.75338C1.75119 7.60812 1.66533 7.3756 1.69603 7.18003C1.76056 6.76631 2.32104 6.60565 2.47144 6.21401C2.56303 5.97533 2.48081 5.71098 2.43137 5.46049C2.38245 5.21001 2.3861 4.9087 2.58905 4.75061C2.69834 4.6654 2.84666 4.63922 2.9523 4.54991C3.17035 4.36564 3.10894 4.02686 3.15786 3.74763C3.23488 3.30774 3.66942 2.95767 4.12218 2.97153C4.12218 2.97153 3.88956 2.61684 4.32462 2.35506C4.84971 2.03887 4.94547 2.43103 5.16612 2.14615C5.40082 1.84331 5.86555 1.74219 6.20746 1.91928C6.31414 1.97471 6.40886 2.05273 6.52283 2.09226C6.66126 2.14051 6.81321 2.12562 6.95945 2.13589C7.51837 2.17541 8.53369 2.69127 8.32396 3.42939L5.44662 10.0201C5.44662 10.0201 4.78362 10.2557 4.29704 10.5688C4.19035 10.6376 4.15496 11.5543 4.03371 11.5938C3.88279 11.6426 3.7173 11.6288 3.56378 11.5872C3.23124 11.4963 2.93825 11.272 2.76599 10.9769C2.45271 11.174 2.0088 11.1386 1.73142 10.8953C1.45404 10.6514 1.36765 10.2208 1.53002 9.89125C1.5753 9.8004 1.63723 9.70184 1.60236 9.60791Z" fill="#263238"/>
<path d="M8.54726 4.37434L8.5816 3.95087L6.02952 3.31336C5.2385 3.18298 4.32986 3.91905 4.2315 4.70387C4.12222 5.57596 4.02386 6.64464 4.08891 7.30422C4.22005 8.63006 5.23069 8.85797 5.23069 8.85797L5.15679 10.1622L8.09919 10.3737L8.54726 4.37434Z" fill="#FFBF9D"/>
<path d="M4.71392 5.92706C4.70507 6.01586 4.77428 6.09594 4.86848 6.10671C4.96215 6.11749 5.0449 6.05384 5.05374 5.96556C5.06259 5.87676 4.99338 5.79617 4.8997 5.78591C4.80551 5.77461 4.72276 5.83826 4.71392 5.92706Z" fill="#263238"/>
<path d="M4.47919 5.27878C4.49897 5.30188 4.63428 5.21513 4.81798 5.22643C5.00169 5.23515 5.13075 5.33627 5.15208 5.31523C5.16249 5.30599 5.14324 5.26492 5.08703 5.21924C5.03187 5.17407 4.93559 5.12736 4.8211 5.12069C4.70661 5.11453 4.60774 5.15046 4.54997 5.18947C4.49064 5.22951 4.46931 5.268 4.47919 5.27878Z" fill="#263238"/>
<path d="M6.37038 5.97481C6.36153 6.06361 6.43075 6.14369 6.52442 6.15447C6.6181 6.16525 6.70084 6.1016 6.70969 6.01331C6.71853 5.92451 6.64932 5.84392 6.55565 5.83366C6.46197 5.82288 6.37923 5.88601 6.37038 5.97481Z" fill="#263238"/>
<path d="M6.28346 5.41941C6.30323 5.4425 6.43854 5.35576 6.62224 5.36705C6.80595 5.37578 6.93501 5.4769 6.95634 5.45585C6.96675 5.44661 6.9475 5.40555 6.89129 5.35986C6.83613 5.31418 6.73986 5.26799 6.62537 5.26131C6.51088 5.25515 6.412 5.29108 6.35423 5.33009C6.29543 5.37064 6.27357 5.40914 6.28346 5.41941Z" fill="#263238"/>
<path d="M5.5346 6.7242C5.53616 6.71394 5.42323 6.68776 5.23953 6.65337C5.19269 6.64567 5.14898 6.63386 5.14325 6.60204C5.13441 6.56816 5.15678 6.5194 5.1828 6.46653C5.2338 6.3572 5.28688 6.24273 5.34309 6.12211C5.56634 5.63191 5.73131 5.22744 5.71102 5.21871C5.69072 5.20998 5.49349 5.6006 5.27023 6.0908C5.21611 6.21193 5.16459 6.32691 5.11567 6.43727C5.09485 6.4886 5.06051 6.5466 5.08028 6.61744C5.09069 6.65285 5.124 6.68006 5.15314 6.68981C5.1828 6.70059 5.20882 6.70264 5.23224 6.70521C5.41751 6.72677 5.53304 6.73447 5.5346 6.7242Z" fill="#263238"/>
<path d="M5.23122 8.86158C5.23122 8.86158 6.169 8.97194 7.08856 8.49817C7.08856 8.49817 6.58272 9.3913 5.21197 9.18906L5.23122 8.86158Z" fill="#FF9A6C"/>
<path d="M7.23266 5.12273C7.22954 5.07037 7.04636 5.04112 6.84704 4.95591C6.64564 4.87481 6.4968 4.76599 6.45621 4.80038C6.438 4.81732 6.45361 4.87019 6.50721 4.93589C6.56029 5.00108 6.65397 5.07602 6.77418 5.12581C6.8944 5.1756 7.01409 5.18946 7.0984 5.18125C7.18374 5.17303 7.23318 5.14737 7.23266 5.12273Z" fill="#263238"/>
<path d="M5.0886 4.56275C5.04176 4.53811 4.94393 4.62845 4.8055 4.69159C4.66915 4.75934 4.53697 4.77987 4.5276 4.8312C4.52448 4.85533 4.55986 4.8851 4.62752 4.89793C4.69413 4.91128 4.79249 4.90255 4.88668 4.85738C4.98088 4.81221 5.04853 4.74137 5.07923 4.68183C5.1115 4.62126 5.10994 4.57558 5.0886 4.56275Z" fill="#263238"/>
<path d="M4.23669 3.75943C4.53697 3.37138 4.97255 3.08804 5.45237 2.96793L7.60842 3.23535L8.19753 3.58491C8.23812 3.45094 8.12883 3.29849 8.12883 3.29849C8.33127 3.14553 9.02342 2.89914 9.5126 3.4032C9.68902 3.58491 9.8363 4.06894 9.84046 4.32097C9.84202 4.41644 9.83265 4.53245 9.91332 4.5848C9.94142 4.60328 9.97577 4.60893 10.0091 4.61611C10.5576 4.73469 10.9468 5.33524 10.8256 5.87574C10.8178 5.91116 10.8079 5.94811 10.8136 5.98404C10.823 6.04102 10.8698 6.08311 10.9099 6.1252C11.1711 6.39776 11.2341 6.83611 11.0608 7.16975C11.0072 7.27293 10.9328 7.36891 10.9141 7.48338C10.8808 7.68767 11.0322 7.8704 11.1498 8.04184C11.5016 8.55719 11.5771 9.30557 11.1644 9.77421C11.0639 9.88816 10.9349 9.98979 10.8969 10.1361C10.8787 10.2074 10.8844 10.2829 10.8849 10.3563C10.8875 10.7305 10.6877 11.1493 10.3166 11.2279C10.1106 11.2715 9.86076 11.2145 9.71452 11.3634C9.65051 11.4286 9.62397 11.5194 9.58286 11.6005C9.42777 11.91 9.0307 12.0784 8.69608 11.9768C8.36146 11.8751 8.25061 10.5365 8.29901 10.1946C7.89361 10.0493 7.59385 10.0237 7.61311 9.59866C7.61311 9.59866 7.67556 8.86773 7.55586 8.5115C7.43565 8.15528 7.6766 7.39766 7.81399 7.02911C7.95137 6.66108 7.78745 5.80388 7.75102 5.46356C7.74477 5.40402 7.75622 5.30085 7.77964 5.17201V5.17252C7.77964 5.17201 7.77964 5.17201 7.78016 5.1715C7.79525 5.08886 7.81503 4.99544 7.83792 4.89535C7.84625 4.80193 7.84729 4.70799 7.84573 4.62073C7.84053 4.2989 7.51215 4.06792 7.20251 4.17057C7.12757 4.19521 7.04951 4.20958 6.9704 4.21164C6.7154 4.21831 6.4604 4.09923 6.3048 3.90058C6.01233 4.20805 5.54032 4.33534 5.13024 4.21728C4.96371 4.44621 4.79457 4.67874 4.57288 4.85685C4.35118 5.03496 4.06756 5.15559 3.78342 5.12479C3.77353 4.63665 3.93642 4.14748 4.23669 3.75943Z" fill="#263238"/>
<path d="M4.46102 4.13977C4.46466 4.13926 4.45842 4.09204 4.4657 4.0058C4.47351 3.9206 4.49797 3.79484 4.57603 3.65933C4.65305 3.52536 4.78888 3.38164 4.98871 3.30978C5.18439 3.2374 5.43887 3.23535 5.659 3.35033L5.67461 3.35854L5.68606 3.34519C5.7662 3.24921 5.86612 3.16246 5.97957 3.09163C6.23249 2.93764 6.526 2.87912 6.78048 2.91197C7.03756 2.94174 7.25041 3.0557 7.40133 3.17632C7.55329 3.299 7.64644 3.42937 7.70213 3.52228C7.75677 3.61673 7.77759 3.6737 7.78175 3.67216C7.78331 3.67165 7.77863 3.65728 7.76874 3.63007C7.75989 3.60235 7.74168 3.56386 7.71722 3.51458C7.66518 3.41808 7.57463 3.28155 7.42162 3.15322C7.26967 3.02644 7.05213 2.90581 6.78621 2.87245C6.52236 2.83652 6.21896 2.89504 5.95667 3.05467C5.83906 3.12807 5.7355 3.2179 5.65275 3.31799L5.67982 3.31286C5.44615 3.19172 5.1797 3.19634 4.9757 3.27487C4.76702 3.35238 4.62755 3.50586 4.55157 3.64598C4.47403 3.78765 4.45373 3.91803 4.45061 4.00529C4.44905 4.04892 4.45113 4.08331 4.45425 4.1059C4.45738 4.12848 4.45946 4.14029 4.46102 4.13977Z" fill="#455A64"/>
<path d="M9.37833 4.12334C9.37052 4.12744 9.33045 4.04121 9.22793 3.93239C9.12749 3.8246 8.95264 3.69833 8.72834 3.6547C8.50404 3.61158 8.2938 3.6624 8.15901 3.72502C8.02214 3.78713 7.95241 3.85232 7.94668 3.84513C7.9446 3.84308 7.95969 3.8246 7.99196 3.79586C8.02422 3.76711 8.0747 3.72964 8.1434 3.69371C8.2787 3.62082 8.49988 3.56025 8.73823 3.60645C8.97605 3.65316 9.15716 3.79175 9.25447 3.90981C9.30443 3.96935 9.3367 4.02273 9.35543 4.06123C9.37417 4.09921 9.38145 4.1218 9.37833 4.12334Z" fill="#455A64"/>
<path d="M9.29558 8.05261C9.29558 8.05261 9.22376 8.03054 9.12488 7.94174C9.02757 7.85499 8.91204 7.68663 8.88446 7.45051C8.87197 7.334 8.88133 7.20003 8.93702 7.07068C8.96512 7.00651 9.00519 6.94338 9.05203 6.88743C9.09678 6.83097 9.14518 6.77348 9.16079 6.70572C9.17588 6.63745 9.14934 6.56713 9.09782 6.51016C9.04734 6.45164 8.98177 6.40134 8.92192 6.34026C8.86052 6.28072 8.80952 6.19807 8.79442 6.10876C8.77725 6.01945 8.78558 5.92757 8.80743 5.83928C8.85323 5.66168 8.94898 5.51385 9.00883 5.36141C9.07076 5.2105 9.08898 5.05086 9.07128 4.90252C9.0385 4.60276 8.86676 4.36356 8.67733 4.23729C8.48686 4.10691 8.29587 4.0679 8.16785 4.0602C8.03827 4.05148 7.96645 4.0679 7.96541 4.06226C7.96489 4.06072 7.98259 4.05661 8.01693 4.05045C8.05128 4.04532 8.10228 4.03967 8.16837 4.04121C8.29951 4.04327 8.49727 4.07766 8.69711 4.20906C8.89642 4.33636 9.08013 4.58479 9.11708 4.8979C9.13685 5.0524 9.11864 5.22179 9.05411 5.37988C8.99218 5.53747 8.89798 5.68529 8.85583 5.8516C8.83554 5.93424 8.82825 6.01996 8.84334 6.10004C8.85791 6.18114 8.89955 6.24992 8.95731 6.30689C9.01404 6.36541 9.07961 6.41623 9.13477 6.47987C9.19098 6.54147 9.22636 6.63232 9.20607 6.71599C9.18577 6.79914 9.13165 6.8592 9.08637 6.91515C9.03954 6.97058 9.00311 7.02705 8.97553 7.08761C8.9214 7.20875 8.91048 7.33554 8.91984 7.44795C8.9417 7.67482 9.04786 7.84062 9.13841 7.9289C9.23001 8.01822 9.29922 8.04696 9.29558 8.05261Z" fill="#455A64"/>
<path d="M9.6458 3.60543C9.63539 3.61262 9.58595 3.46376 9.39496 3.32671C9.30024 3.26152 9.17378 3.19377 9.02235 3.16913C8.87091 3.14398 8.69605 3.14398 8.52431 3.18504C8.48997 3.19326 8.45718 3.20455 8.427 3.21584L8.39785 3.22713L8.38849 3.19839C8.28857 2.88271 8.0778 2.6543 7.90711 2.52905C7.73485 2.40073 7.60579 2.35864 7.60995 2.34889C7.611 2.34581 7.64378 2.35351 7.70103 2.37507C7.75827 2.39662 7.83842 2.43563 7.93001 2.49723C8.11215 2.61785 8.33749 2.85089 8.44365 3.18094L8.40514 3.16297C8.43793 3.15014 8.47383 3.13833 8.51026 3.12961C8.69293 3.08598 8.87299 3.08803 9.03223 3.11729C9.19356 3.14706 9.32314 3.22149 9.41942 3.29438C9.51569 3.36932 9.57502 3.45042 9.60677 3.50893C9.63955 3.56796 9.64892 3.60389 9.6458 3.60543Z" fill="#455A64"/>
<path d="M5.66728 7.16358C5.72765 7.07581 5.83902 7.02397 5.95247 7.03013C6.03105 7.03475 6.11223 7.06811 6.16271 7.12817C6.21319 7.18873 6.22776 7.27753 6.18769 7.33913C6.14242 7.40894 6.04146 7.42947 5.95455 7.40996C5.86712 7.38995 5.79062 7.3381 5.71724 7.28575C5.69695 7.27137 5.67613 7.25598 5.66312 7.23596C5.65011 7.21543 5.64595 7.18822 5.66 7.16974" fill="#FF9A6C"/>
<path d="M6.106 6.83612C6.07686 6.83612 6.08622 7.02861 5.92542 7.17387C5.76513 7.31965 5.55593 7.30836 5.55541 7.33505C5.55333 7.34737 5.6038 7.37046 5.69175 7.36841C5.77814 7.36687 5.90304 7.33351 6.00088 7.24471C6.09871 7.15591 6.13722 7.04144 6.13983 6.96188C6.14347 6.88078 6.11953 6.83407 6.106 6.83612Z" fill="#263238"/>
<path d="M9.96431 10.3085L8.51653 9.73621C8.51653 9.73621 6.93188 10.3327 6.13097 10.2839C5.33059 10.2356 4.59525 9.73621 4.59525 9.73621L2.4241 10.3753L2.29035 12.8555L2.4548 17.0881C2.4548 17.0881 2.0874 18.5197 2.13215 19.0186C2.17691 19.5175 2.63226 19.7567 2.63226 19.7567L2.52454 20.3989H9.44026L9.2987 19.7439C9.2987 19.7439 10.2053 19.669 9.97315 18.3246C9.90342 17.9212 9.27112 17.1456 9.54278 15.5103C9.83056 13.7784 9.96431 10.3085 9.96431 10.3085Z" fill="#FF725E"/>
<g opacity="0.3">
<path d="M3.11053 15.3476C3.27342 15.056 3.45608 14.7619 3.73398 14.573C4.02541 14.3749 4.39126 14.3143 4.74462 14.3071C5.27023 14.2963 5.80729 14.3964 6.25849 14.6618C6.88194 15.0288 7.28213 15.6679 7.63497 16.2936C7.98781 16.9193 8.33388 17.5763 8.89956 18.0254L10.0351 18.8482C8.88135 19.0361 7.64121 18.5613 6.91784 17.6553C6.29908 16.8803 6.03107 15.8229 5.2286 15.2346C5.07404 15.1212 4.90178 15.0288 4.71756 14.9734C4.44486 14.8918 4.13105 14.8989 3.89427 15.056C3.59451 15.2552 3.48783 15.635 3.41081 15.9835C3.18495 17.0096 3.00333 18.1019 2.32211 18.9083C2.27632 18.9627 2.19461 19.0186 2.14101 18.9719C2.11395 18.9483 2.11031 18.9083 2.10874 18.8729C2.05462 17.6384 2.5053 16.4301 3.11053 15.3476Z" fill="black"/>
</g>
<path d="M2.44909 10.3732C2.44909 10.3732 1.46448 10.4107 0.93574 12.6594C0.700516 13.6609 -0.366322 17.0953 0.154608 18.0993C0.633384 19.0222 1.10175 19.1162 1.71688 19.0628C2.33252 19.0099 3.08399 16.8382 3.08399 16.8382V16.3013L3.61481 15.0786L2.82691 13.2436" fill="#FF725E"/>
<path d="M2.82691 13.2441C2.82691 13.2441 2.83056 13.2554 2.8394 13.2764C2.84825 13.298 2.86126 13.3293 2.87844 13.3703C2.91382 13.4535 2.96482 13.5751 3.03144 13.7327C3.16622 14.0489 3.36189 14.5078 3.60649 15.0822V15.0755C3.4488 15.4374 3.26978 15.848 3.07359 16.2971L3.07255 16.2992V16.3013C3.07255 16.4686 3.07203 16.6508 3.07203 16.8382L3.07255 16.8346C2.9617 17.1451 2.83212 17.4669 2.6812 17.7944C2.60574 17.9582 2.52352 18.1229 2.43244 18.2867C2.34137 18.4499 2.23989 18.6121 2.11916 18.7625C2.05775 18.8364 1.99062 18.9078 1.91204 18.9653C1.89278 18.9807 1.87196 18.993 1.85063 19.0043C1.83033 19.0176 1.80691 19.0248 1.78453 19.034C1.76216 19.0438 1.7377 19.0443 1.71428 19.0499L1.63934 19.0551C1.53942 19.0618 1.43794 19.0643 1.33698 19.0556C1.2865 19.053 1.23654 19.0443 1.18606 19.0366C1.13663 19.0248 1.08615 19.0156 1.03879 18.9971C0.843115 18.935 0.675543 18.8041 0.536073 18.6506C0.396604 18.4956 0.284196 18.3154 0.185318 18.1281C0.115063 18.0008 0.0781128 17.8601 0.0557353 17.719C0.0323169 17.5773 0.0286753 17.4341 0.0260732 17.2924C0.0265937 17.0086 0.0526137 16.7293 0.087481 16.4568C0.159297 15.9112 0.267542 15.3902 0.37943 14.8964C0.492359 14.4026 0.613094 13.937 0.728105 13.5012C0.78535 13.2831 0.840513 13.0726 0.893594 12.8704C0.943033 12.6666 0.994034 12.4731 1.04243 12.2878C1.1512 11.9208 1.2761 11.5969 1.41765 11.3269C1.55764 11.0564 1.72 10.8454 1.87353 10.6961C2.02757 10.5457 2.17536 10.4605 2.28101 10.4184C2.30755 10.4081 2.33149 10.4004 2.35178 10.3932C2.3726 10.3881 2.39029 10.3835 2.40434 10.3799C2.43296 10.3742 2.44806 10.3722 2.44806 10.3722C2.44806 10.3722 2.44441 10.3722 2.43661 10.3727C2.4288 10.3737 2.41787 10.3753 2.40382 10.3773C2.38925 10.3809 2.37156 10.385 2.35074 10.3896C2.33044 10.3963 2.30598 10.4035 2.27892 10.4138C2.17224 10.4543 2.02236 10.539 1.86624 10.6889C1.71012 10.8383 1.54567 11.0492 1.40412 11.3202C1.261 11.5902 1.13402 11.9152 1.0237 12.2827C0.974258 12.468 0.922738 12.6625 0.872778 12.8653C0.819176 13.0675 0.763492 13.278 0.706247 13.4956C0.590716 13.9309 0.46894 14.3969 0.35497 14.8907C0.242042 15.3845 0.132756 15.906 0.0609398 16.4532C0.0255518 16.7268 -0.000468731 17.007 -0.000989199 17.2924C0.0016129 17.4351 0.00473571 17.5794 0.0286746 17.7226C0.0510521 17.8653 0.0890424 18.01 0.160859 18.1404C0.260777 18.3293 0.373706 18.511 0.515257 18.6686C0.656288 18.8241 0.828544 18.9586 1.02942 19.0222C1.07834 19.0412 1.12986 19.0505 1.18034 19.0628C1.23186 19.0705 1.28286 19.0797 1.33438 19.0823C1.4369 19.091 1.53942 19.0879 1.64038 19.0818L1.71584 19.0766C1.74134 19.071 1.7684 19.0695 1.79182 19.0597C1.81576 19.0505 1.84074 19.0422 1.86208 19.0284C1.88445 19.0161 1.90631 19.0032 1.92609 18.9873C2.00727 18.9278 2.07544 18.8549 2.13789 18.78C2.26071 18.6275 2.36219 18.4643 2.45326 18.3C2.54485 18.1358 2.62708 17.9705 2.70254 17.8062C2.85346 17.4772 2.98252 17.1549 3.09336 16.8433L3.09388 16.8418V16.8397C3.09388 16.6523 3.09336 16.4701 3.09336 16.3028L3.09232 16.3069C3.28696 15.8567 3.46442 15.4456 3.62106 15.0837L3.62262 15.0801L3.62106 15.0765C3.37334 14.5037 3.17507 14.0458 3.03872 13.7302C2.97055 13.5736 2.91747 13.452 2.88156 13.3693C2.86334 13.3288 2.84981 13.298 2.84044 13.2764C2.83264 13.2543 2.82691 13.2441 2.82691 13.2441Z" fill="#263238"/>
<path d="M2.4491 11.658C2.44702 11.6585 2.4517 11.6857 2.46159 11.7355C2.472 11.7899 2.48605 11.8602 2.5027 11.9444C2.53549 12.121 2.5766 12.3663 2.58909 12.6399C2.60158 12.9135 2.57816 13.1614 2.54954 13.3385C2.53497 13.4273 2.52144 13.4987 2.51051 13.5474C2.5001 13.5967 2.49542 13.6239 2.49698 13.6244C2.49854 13.6249 2.50687 13.5982 2.5204 13.5495C2.53445 13.5012 2.55058 13.4299 2.56776 13.3411C2.60158 13.164 2.62812 12.914 2.61563 12.6384C2.60262 12.3627 2.55839 12.1164 2.52092 11.9403C2.50166 11.852 2.48449 11.7812 2.47148 11.7324C2.45899 11.6842 2.45066 11.6575 2.4491 11.658Z" fill="#263238"/>
<path d="M9.53288 10.3804C9.71762 10.2593 9.76758 9.97746 9.68328 9.76496C9.59897 9.55245 9.40954 9.40462 9.20866 9.31788C8.8756 9.17415 8.50247 9.17364 8.14703 9.226C7.43303 9.33071 6.74869 9.64125 6.17364 10.1042C5.60899 9.63612 4.98502 9.24807 4.32462 8.95446C4.17266 8.88671 4.00197 8.82357 3.84637 8.88209C3.71418 8.93188 3.62103 9.06277 3.57471 9.20393C3.52892 9.34508 3.52371 9.4965 3.51903 9.64587C3.51226 9.86145 3.51643 10.1068 3.66735 10.2505C3.76466 10.3429 3.90101 10.3696 4.02955 10.3922C4.95484 10.5559 5.90354 10.7197 6.82467 10.5313C7.27742 10.4389 7.71249 10.2634 8.16628 10.1787C8.62008 10.0935 9.07075 10.3049 9.53288 10.3804Z" fill="#FF725E"/>
<path d="M1.27399 12.2293C1.27243 12.2339 1.35725 12.2637 1.48736 12.3253C1.61746 12.3869 1.79128 12.4849 1.96457 12.6194C2.13735 12.7544 2.27422 12.8986 2.36477 13.0095C2.45584 13.1204 2.50476 13.1948 2.5084 13.1922C2.50996 13.1912 2.49903 13.1717 2.47769 13.1378C2.45688 13.1034 2.42357 13.0552 2.37934 12.9982C2.29191 12.8837 2.15556 12.7354 1.9807 12.5989C1.80585 12.4628 1.62787 12.3658 1.49464 12.3083C1.42803 12.2796 1.37287 12.2586 1.33436 12.2462C1.29637 12.2339 1.27503 12.2278 1.27399 12.2293Z" fill="#263238"/>
<path d="M6.11486 10.3794C6.11538 10.3789 6.10913 10.3691 6.09612 10.3511C6.08311 10.3332 6.06282 10.3075 6.03575 10.2757C5.98059 10.2131 5.8968 10.1212 5.76566 10.0421C5.73288 10.0226 5.69749 10.0042 5.65846 9.98876C5.6392 9.98055 5.61891 9.97285 5.59549 9.96977C5.57259 9.96669 5.54449 9.97182 5.52575 9.98979C5.48828 10.0257 5.48724 10.0873 5.51535 10.1294C5.54241 10.173 5.58456 10.2013 5.62463 10.2305C5.7896 10.3455 6.00817 10.424 6.24288 10.4235C6.47758 10.4235 6.69615 10.3434 6.86008 10.228C6.87986 10.2131 6.9012 10.2002 6.91941 10.1797C6.92826 10.1694 6.93606 10.1566 6.93762 10.1417C6.93971 10.1268 6.93502 10.1114 6.92513 10.0996C6.90484 10.077 6.87726 10.0729 6.85384 10.0704C6.82886 10.0678 6.80544 10.0729 6.78358 10.076C6.69459 10.0924 6.61601 10.1207 6.54576 10.1489C6.40525 10.2064 6.29804 10.2659 6.22518 10.308C6.18876 10.3291 6.16065 10.3465 6.14244 10.3588C6.12422 10.3717 6.11434 10.3784 6.11486 10.3794C6.11538 10.3804 6.12579 10.3748 6.14504 10.364C6.1669 10.3522 6.19552 10.3368 6.23039 10.3178C6.30481 10.2788 6.41305 10.2223 6.55304 10.1674C6.62278 10.1407 6.70136 10.1135 6.78775 10.0986C6.8096 10.0955 6.83094 10.0914 6.85228 10.094C6.87309 10.096 6.89599 10.1017 6.90744 10.1155C6.91889 10.1289 6.91629 10.1494 6.90119 10.1648C6.88714 10.1807 6.86581 10.1941 6.84603 10.2085C6.6847 10.3198 6.47134 10.3973 6.24288 10.3973C6.01442 10.3979 5.80105 10.3219 5.6392 10.211C5.59913 10.1828 5.55906 10.1551 5.53564 10.1176C5.51118 10.0822 5.51378 10.0329 5.54137 10.0062C5.56947 9.97901 5.61422 9.99287 5.65065 10.0078C5.68864 10.0221 5.72351 10.0401 5.75578 10.0586C5.88484 10.134 5.97018 10.2223 6.02743 10.2829C6.05605 10.3137 6.07687 10.3383 6.09144 10.3547C6.10653 10.3712 6.11434 10.3799 6.11486 10.3794Z" fill="#263238"/>
<path d="M6.34072 12.2904C6.3428 12.2904 6.34489 12.2637 6.34697 12.2144C6.34957 12.1656 6.35061 12.0948 6.35009 12.0075C6.34957 11.8325 6.33864 11.5907 6.30742 11.3259C6.27619 11.0605 6.2304 10.8229 6.1898 10.6524C6.17003 10.5672 6.15233 10.499 6.13828 10.4517C6.12475 10.4045 6.11643 10.3789 6.11434 10.3794C6.11278 10.3799 6.11747 10.4066 6.12788 10.4543C6.1388 10.5067 6.15337 10.5749 6.17107 10.6566C6.20646 10.8275 6.24913 11.0646 6.28035 11.329C6.31158 11.5933 6.32511 11.8335 6.33083 12.0081C6.33292 12.0912 6.33448 12.161 6.33604 12.2144C6.3376 12.2632 6.33864 12.2904 6.34072 12.2904Z" fill="#263238"/>
<path d="M5.57312 11.4691C5.57677 11.4706 5.60123 11.4162 5.64026 11.3285C5.68241 11.233 5.73445 11.1154 5.7917 10.9856C5.8505 10.8562 5.90358 10.7392 5.94626 10.6437C5.98581 10.5565 6.00975 10.5015 6.00611 10.5C6.00298 10.4985 5.9728 10.5498 5.92856 10.6355C5.88433 10.7212 5.82604 10.8403 5.7662 10.9748C5.70635 11.1088 5.65587 11.232 5.62204 11.3218C5.58822 11.4111 5.56948 11.4681 5.57312 11.4691Z" fill="#263238"/>
<path d="M6.50048 10.5C6.501 10.501 6.51141 10.4969 6.53066 10.4892C6.55252 10.48 6.5801 10.4687 6.61445 10.4543C6.65036 10.4384 6.69511 10.4199 6.74767 10.4004C6.80023 10.3809 6.85904 10.3563 6.92617 10.3347C6.99278 10.3116 7.06616 10.287 7.14579 10.2649C7.22489 10.2403 7.31127 10.2202 7.40183 10.1977C7.58397 10.1566 7.78589 10.1212 8.0003 10.0991C8.2147 10.0786 8.42027 10.0745 8.60657 10.0791C8.69973 10.0837 8.7882 10.0863 8.87094 10.095C8.95369 10.1012 9.03019 10.1109 9.10044 10.1207C9.1707 10.1284 9.23315 10.1412 9.28883 10.1499C9.34451 10.1586 9.39187 10.1684 9.43038 10.1766C9.46681 10.1838 9.49647 10.19 9.51989 10.1946C9.54019 10.1982 9.55112 10.1997 9.55164 10.1992C9.55164 10.1982 9.54123 10.1951 9.52145 10.1894C9.49855 10.1833 9.46941 10.1761 9.43298 10.1669C9.39447 10.1566 9.34764 10.1458 9.29195 10.1355C9.23679 10.1253 9.17382 10.1109 9.10356 10.1022C9.03331 10.0914 8.95681 10.0801 8.87354 10.0734C8.7908 10.0637 8.70181 10.0601 8.60814 10.055C8.42079 10.0488 8.21419 10.0529 7.99822 10.0734C7.78277 10.0955 7.57929 10.1325 7.39714 10.1746C7.30659 10.1982 7.21968 10.2187 7.14058 10.2449C7.06044 10.268 6.98758 10.2936 6.92097 10.3183C6.85384 10.3409 6.79503 10.367 6.74299 10.3876C6.69095 10.4081 6.64671 10.4286 6.61132 10.4456C6.57802 10.4615 6.55096 10.4748 6.52962 10.4851C6.50933 10.4938 6.49996 10.499 6.50048 10.5Z" fill="#263238"/>
<path d="M3.69028 9.94205C3.68976 9.94359 3.71994 9.9554 3.77562 9.97439C3.83131 9.9939 3.91249 10.0201 4.01293 10.0504C4.21433 10.112 4.49535 10.1884 4.80916 10.2572C5.12348 10.326 5.41075 10.3737 5.61943 10.402C5.72403 10.4163 5.80834 10.4261 5.86715 10.4317C5.92595 10.4374 5.95822 10.4399 5.95874 10.4379C5.95874 10.4358 5.92699 10.4302 5.86871 10.4215C5.80626 10.4117 5.72299 10.3989 5.62255 10.383C5.41491 10.3501 5.12869 10.2993 4.81488 10.231C4.50159 10.1623 4.22057 10.0889 4.01813 10.0319C3.9203 10.0042 3.83963 9.98106 3.77875 9.96412C3.72254 9.94821 3.69132 9.94 3.69028 9.94205Z" fill="#263238"/>
<path d="M2.12638 14.09C2.12638 14.09 2.90752 13.068 3.15055 12.9541C3.39358 12.8401 5.0719 12.101 5.20929 12.0384C5.34667 11.9757 5.54235 12.0738 5.50228 12.1497C5.46272 12.2257 5.34615 12.4028 5.34615 12.4028L5.62197 12.2781L5.8421 12.9541C5.8421 12.9541 5.03287 13.9673 4.79868 14.2486C4.5645 14.5299 3.61475 14.747 3.61475 14.747L3.42897 15.1145C2.49743 15.0765 2.12638 14.09 2.12638 14.09Z" fill="#FFBF9D"/>
<path d="M6.34222 13.6819C6.34222 13.6819 6.11376 12.7621 6.00812 12.5855C5.90248 12.4084 5.48043 11.9193 5.42734 11.7422C5.37478 11.5651 5.38831 11.4296 5.31286 11.409C5.2374 11.3885 5.04745 11.5651 5.04745 11.7524C5.04745 11.9398 5.31286 12.5024 5.31286 12.5024C5.31286 12.5024 4.40318 12.1692 4.12892 12.0753C3.85467 11.9814 3.07301 11.9506 3.07301 11.9506C3.07301 11.9506 2.94655 12.1379 3.11517 12.2632L2.69312 12.2216C2.69312 12.2216 2.65096 12.4505 2.78835 12.5131L2.55625 12.4505C2.55625 12.4505 2.39804 12.7005 2.72538 12.8463L2.82062 12.8878C2.82062 12.8878 2.70456 13.0649 2.85236 13.1897C3.00016 13.3144 3.62309 13.6059 3.72873 13.7209C3.83437 13.8354 4.46771 14.4288 4.7633 14.5227C5.0589 14.6166 5.5002 14.826 5.5002 14.826L6.34222 13.6819Z" fill="#FFBF9D"/>
<path d="M6.34225 13.6819C6.34225 13.6819 6.33652 13.6886 6.32663 13.7014C6.31623 13.7153 6.30165 13.7343 6.28292 13.7594C6.24441 13.8113 6.18769 13.8862 6.11483 13.9832C5.96911 14.1793 5.75783 14.4637 5.49242 14.8204L5.50283 14.8178C5.30611 14.726 5.08858 14.6274 4.84503 14.5396C4.78362 14.5176 4.72117 14.5011 4.66393 14.4673C4.60512 14.437 4.54892 14.3995 4.49219 14.361C4.37978 14.2825 4.26842 14.1942 4.15705 14.0997C4.04568 14.0053 3.93379 13.9052 3.82295 13.7984C3.79536 13.7717 3.76778 13.7445 3.74124 13.7168C3.71262 13.6881 3.67983 13.6639 3.64653 13.6424C3.57991 13.5988 3.51018 13.5587 3.4394 13.5187C3.29837 13.4391 3.15162 13.3621 3.00694 13.2769C2.97104 13.2554 2.93513 13.2333 2.90026 13.2097C2.86591 13.1856 2.83365 13.1599 2.81387 13.125C2.77172 13.0557 2.78837 12.9633 2.83053 12.894L2.83833 12.8812L2.8248 12.875C2.73893 12.8355 2.64162 12.8037 2.58125 12.7267C2.55107 12.6897 2.53233 12.644 2.53077 12.5958C2.52921 12.548 2.54326 12.4983 2.56668 12.4567L2.55159 12.4623C2.62444 12.4818 2.70407 12.5034 2.78369 12.5249L2.90859 12.5588L2.79254 12.5003C2.7712 12.4895 2.75246 12.4741 2.73789 12.4541C2.72384 12.4336 2.71447 12.4095 2.70823 12.3838C2.69626 12.333 2.69678 12.2765 2.70511 12.2231L2.69054 12.2339C2.8248 12.2473 2.96791 12.2611 3.11259 12.2755L3.15474 12.2796L3.12195 12.2514L3.12039 12.2498C3.07616 12.2165 3.04337 12.1677 3.04025 12.1128C3.03609 12.0589 3.0543 12.0024 3.08292 11.9567L3.07095 11.9629C3.27756 11.9721 3.48104 11.9865 3.68087 12.0081C3.78079 12.0188 3.87967 12.0322 3.97595 12.0507C4.02434 12.0599 4.0717 12.0712 4.1175 12.0856C4.16381 12.102 4.20961 12.1184 4.25541 12.1348C4.62073 12.2662 4.97253 12.393 5.30663 12.5131L5.33473 12.5234L5.32224 12.4967C5.26292 12.3699 5.2088 12.2431 5.15988 12.1179C5.13542 12.0553 5.11356 11.9927 5.09379 11.93C5.07557 11.8679 5.0558 11.8043 5.05736 11.7427C5.05944 11.6806 5.08182 11.621 5.11408 11.5692C5.14635 11.5174 5.1885 11.4706 5.23846 11.4388C5.26292 11.4244 5.29258 11.4106 5.31496 11.4209C5.33838 11.4306 5.35035 11.4588 5.35815 11.486C5.37324 11.542 5.38053 11.6005 5.39354 11.657C5.39979 11.6852 5.40707 11.7134 5.41488 11.7406C5.41956 11.7545 5.42529 11.7678 5.43049 11.7817L5.44975 11.8197C5.47733 11.869 5.50699 11.9162 5.53821 11.9603C5.59962 12.0502 5.66311 12.1338 5.724 12.2139C5.78489 12.294 5.84369 12.371 5.8999 12.4449C5.95506 12.5193 6.00866 12.5896 6.03729 12.6676C6.09817 12.8227 6.13981 12.9674 6.17728 13.0921C6.2137 13.2174 6.24337 13.3247 6.26731 13.4119C6.29073 13.4987 6.30894 13.5654 6.32143 13.6116C6.32768 13.6337 6.33184 13.6506 6.33548 13.6629C6.34016 13.6763 6.34173 13.6814 6.34225 13.6819C6.34277 13.6819 6.34121 13.6758 6.3386 13.6639C6.33548 13.6516 6.33184 13.6342 6.32663 13.6121C6.31518 13.5654 6.29801 13.4987 6.27616 13.4114C6.25326 13.3236 6.22515 13.2164 6.18925 13.0906C6.15282 12.9654 6.11275 12.8206 6.05238 12.6635C6.02376 12.5835 5.96911 12.5106 5.91447 12.4367C5.85879 12.3627 5.8005 12.2852 5.73961 12.2047C5.67924 12.1241 5.61628 12.0404 5.55539 11.9511C5.49502 11.8607 5.43153 11.7689 5.41488 11.6534C5.40239 11.5974 5.39562 11.5394 5.37949 11.4809C5.37116 11.4527 5.35867 11.4178 5.32433 11.4024C5.30819 11.3942 5.2879 11.3962 5.27229 11.4008C5.25615 11.406 5.24158 11.4132 5.22805 11.4214C5.17393 11.4558 5.13021 11.504 5.09587 11.5584C5.06204 11.6128 5.03758 11.676 5.0355 11.7427C5.03394 11.8104 5.05423 11.8736 5.07245 11.9372C5.09222 12.0004 5.11408 12.0635 5.13854 12.1266C5.18694 12.2529 5.24158 12.3792 5.30091 12.507L5.31652 12.4906C4.98242 12.3699 4.63062 12.2426 4.26529 12.1107C4.2195 12.0943 4.1737 12.0779 4.12739 12.0614C4.07951 12.0466 4.03111 12.0348 3.98219 12.0255C3.88435 12.0065 3.78496 11.9937 3.68504 11.9824C3.48468 11.9608 3.28068 11.9465 3.07304 11.9367L3.06523 11.9362L3.06159 11.9424C3.02984 11.9942 3.01059 12.0532 3.01475 12.1153C3.01787 12.178 3.05638 12.2349 3.1053 12.2714L3.10686 12.2729L3.11623 12.2488C2.97156 12.2344 2.82792 12.2206 2.69418 12.2072L2.68117 12.2062L2.67961 12.2185C2.67076 12.276 2.67024 12.334 2.68325 12.39C2.69002 12.4177 2.70042 12.4449 2.71656 12.469C2.73321 12.4926 2.75663 12.5116 2.78213 12.5244L2.79149 12.4998C2.71135 12.4782 2.63225 12.4572 2.55939 12.4372L2.5495 12.4346L2.54482 12.4428C2.51776 12.4906 2.50371 12.5429 2.50475 12.5968C2.50631 12.6507 2.52765 12.7025 2.56095 12.7431C2.57657 12.7641 2.59738 12.7806 2.61664 12.7975C2.6385 12.8114 2.65827 12.8278 2.68117 12.8381C2.72592 12.8622 2.77068 12.8791 2.81439 12.8991L2.80867 12.8801C2.78473 12.9197 2.77016 12.9623 2.76496 13.0069C2.75923 13.0516 2.7686 13.0988 2.79149 13.1378C2.81439 13.1779 2.85082 13.2061 2.88569 13.2302C2.92108 13.2543 2.95751 13.2769 2.99393 13.2985C3.13965 13.3842 3.2864 13.4607 3.42743 13.5397C3.49769 13.5793 3.56743 13.6188 3.633 13.6619C3.6663 13.6829 3.69701 13.706 3.72355 13.7327C3.75061 13.7615 3.77871 13.7882 3.80629 13.8154C3.91766 13.9221 4.03007 14.0222 4.14196 14.1167C4.25384 14.2111 4.36573 14.2994 4.4797 14.3785C4.53695 14.4175 4.59419 14.4544 4.65404 14.4852C4.71285 14.5191 4.77894 14.5365 4.83826 14.5581C5.08078 14.6443 5.29883 14.7419 5.49554 14.8327L5.50179 14.8358L5.50595 14.8302C5.76876 14.4703 5.979 14.1834 6.12315 13.9858C6.19393 13.8877 6.24909 13.8123 6.28708 13.7599C6.3053 13.7348 6.31883 13.7153 6.32872 13.7014C6.33808 13.6886 6.34225 13.6819 6.34225 13.6819Z" fill="#FF9A6C"/>
<path d="M3.1152 12.2627C3.1152 12.2647 3.13654 12.2673 3.17609 12.2714C3.21512 12.275 3.27184 12.2806 3.34106 12.2899C3.48 12.3073 3.67152 12.3397 3.8776 12.3951C3.98064 12.4233 4.07691 12.4552 4.16382 12.4865C4.25021 12.5198 4.32723 12.5506 4.38968 12.5814C4.51614 12.641 4.58952 12.6872 4.59212 12.6831C4.59316 12.6815 4.57547 12.6687 4.54268 12.6471C4.52655 12.6358 4.50573 12.6235 4.48179 12.6097C4.45785 12.5958 4.43027 12.5799 4.39853 12.564C4.3366 12.5306 4.25958 12.4972 4.17267 12.4629C4.08576 12.4295 3.98844 12.3972 3.88436 12.3684C3.67672 12.3119 3.48313 12.2827 3.34314 12.2699C3.27288 12.2632 3.21616 12.2601 3.17661 12.2601C3.13706 12.2601 3.11572 12.2606 3.1152 12.2627Z" fill="#FF9A6C"/>
<path d="M4.14302 12.9782C4.14406 12.9767 4.12896 12.9643 4.10034 12.9433C4.07224 12.9217 4.02905 12.894 3.9744 12.8612C3.86564 12.796 3.70587 12.7195 3.52113 12.6605C3.33586 12.6014 3.16309 12.5681 3.03767 12.5486C2.9747 12.5388 2.9237 12.5321 2.88883 12.5286C2.85344 12.525 2.83367 12.5239 2.83367 12.5255C2.83315 12.5275 2.8524 12.5321 2.88727 12.5388C2.92786 12.5465 2.97678 12.5558 3.03455 12.567C3.15892 12.5912 3.32962 12.6276 3.51332 12.6856C3.6965 12.7441 3.85523 12.817 3.96556 12.8771C4.07588 12.9382 4.14041 12.9818 4.14302 12.9782Z" fill="#FF9A6C"/>
<path d="M2.86593 12.8509C2.86541 12.855 2.93514 12.8673 3.04547 12.895C3.15579 12.9227 3.30671 12.9695 3.46492 13.0403C3.62312 13.1111 3.75791 13.1927 3.85158 13.2564C3.94577 13.32 4.00042 13.3642 4.00354 13.3606C4.00458 13.359 3.99209 13.3467 3.96815 13.3257C3.94474 13.3041 3.90831 13.2749 3.86251 13.241C3.77092 13.1727 3.63561 13.088 3.47585 13.0162C3.31556 12.9448 3.16204 12.9002 3.04963 12.8771C2.99343 12.8653 2.94763 12.8576 2.91537 12.8545C2.88414 12.8504 2.86645 12.8488 2.86593 12.8509Z" fill="#FF9A6C"/>
<path d="M9.93986 10.3465C9.99502 10.3645 10.1444 10.3999 10.62 10.8177C11.0192 11.1688 11.2752 11.831 11.434 12.4326C11.588 13.0157 11.6661 13.6152 11.6791 14.2178C11.6968 15.0355 11.7295 16.5548 11.7316 16.7396C11.7353 17.1164 11.7701 18.5408 10.0361 18.7266C8.81057 18.858 6.75964 16.9773 6.66805 16.6693C6.57593 16.3613 6.47758 15.9024 6.47758 15.9024L5.36338 14.9159L6.39275 13.5197L9.29663 15.2505L8.93807 13.0121" fill="#FF725E"/>
<path d="M8.93806 13.0116C8.93806 13.0116 8.93962 13.0244 8.94326 13.05C8.9469 13.0762 8.95263 13.1137 8.96043 13.163C8.97604 13.2631 8.99894 13.4104 9.02861 13.6018C9.08897 13.9858 9.17744 14.5453 9.28881 15.2511L9.30078 15.2434C8.52381 14.7788 7.53555 14.189 6.39846 13.5094L6.38961 13.5038L6.38337 13.512C6.06019 13.9499 5.71412 14.4185 5.35296 14.9077L5.34619 14.9169L5.35452 14.9246C5.70892 15.2387 6.08361 15.5703 6.46819 15.9117L6.46403 15.9045C6.51399 16.1319 6.56759 16.3628 6.63212 16.5949C6.64045 16.6241 6.64773 16.6523 6.65866 16.6821C6.67011 16.7129 6.68781 16.7381 6.70498 16.7637C6.73985 16.8145 6.77992 16.8613 6.81999 16.908C6.90117 17.0004 6.9886 17.0881 7.07811 17.1744C7.43876 17.5172 7.83999 17.8355 8.27505 18.1173C8.6206 18.338 8.98177 18.5336 9.36687 18.6542C9.5589 18.7127 9.75822 18.7533 9.95858 18.744C10.1574 18.7317 10.3515 18.6953 10.5383 18.6383C10.7241 18.5803 10.9026 18.4997 11.0582 18.3878C11.1363 18.3329 11.2081 18.2697 11.2742 18.2025C11.3387 18.1332 11.3985 18.0608 11.449 17.9823C11.6546 17.6676 11.7306 17.2986 11.7425 16.9475C11.7483 16.7709 11.7399 16.5974 11.7373 16.426C11.7337 16.2545 11.73 16.0852 11.7264 15.9189C11.7191 15.5852 11.7124 15.2618 11.7056 14.9487C11.6978 14.6356 11.6947 14.3338 11.6837 14.0428C11.6707 13.7522 11.6431 13.474 11.6036 13.2102C11.5229 12.683 11.397 12.2144 11.2461 11.8181C11.0952 11.4224 10.9078 11.099 10.6965 10.8839C10.5883 10.7787 10.4842 10.6961 10.3942 10.6232C10.3036 10.5513 10.224 10.4938 10.1569 10.4512C10.0897 10.4086 10.0361 10.3809 9.99813 10.366C9.96014 10.3511 9.93984 10.3465 9.93984 10.3465C9.93984 10.3465 9.94453 10.3486 9.95441 10.3522C9.9643 10.3558 9.97887 10.3604 9.99709 10.3686C10.0346 10.3845 10.0876 10.4127 10.1543 10.4559C10.2203 10.499 10.2994 10.557 10.3895 10.6294C10.4785 10.7028 10.5831 10.7864 10.6892 10.8911C10.8979 11.1057 11.0832 11.428 11.232 11.8233C11.3814 12.219 11.5052 12.6866 11.5849 13.2128C11.6239 13.4756 11.6509 13.7533 11.6629 14.0433C11.6733 14.3333 11.6759 14.6356 11.6832 14.9487C11.6895 15.2618 11.6962 15.5852 11.7025 15.9189C11.7056 16.0857 11.7092 16.2545 11.7129 16.426C11.715 16.5974 11.7233 16.7714 11.7176 16.9465C11.7056 17.295 11.6296 17.6594 11.4272 17.9684C11.3777 18.0454 11.3184 18.1173 11.2554 18.185C11.1904 18.2513 11.1196 18.3129 11.0426 18.3673C10.8896 18.4771 10.7137 18.5567 10.53 18.6136C10.3458 18.6696 10.1522 18.7055 9.95702 18.7178C9.76134 18.7271 9.56463 18.687 9.37468 18.629C8.99374 18.51 8.63414 18.3154 8.28962 18.0952C7.85612 17.8144 7.45593 17.4972 7.09685 17.1559C7.00734 17.0702 6.92095 16.9829 6.84029 16.8915C6.80073 16.8453 6.76066 16.7997 6.72684 16.7499C6.71018 16.7252 6.69353 16.7001 6.68364 16.6739C6.67375 16.6472 6.66595 16.6169 6.65762 16.5882C6.59309 16.3572 6.53949 16.1267 6.48953 15.8993L6.48849 15.8952L6.48537 15.8927C6.10026 15.5518 5.72505 15.2203 5.37065 14.9066L5.37221 14.9231C5.73285 14.4334 6.07789 13.9647 6.40054 13.5264L6.38545 13.5295C7.5241 14.2065 8.5134 14.7947 9.29141 15.2572L9.30598 15.2659L9.30338 15.249C9.18889 14.5432 9.09782 13.9842 9.03589 13.6008C9.00415 13.4099 8.98021 13.2626 8.96355 13.1625C8.95523 13.1132 8.94898 13.0757 8.9443 13.0495C8.94066 13.0244 8.93806 13.0116 8.93806 13.0116Z" fill="#263238"/>
<path d="M10.8943 11.407C10.8937 11.406 10.8854 11.409 10.8693 11.4152C10.8505 11.4229 10.8271 11.4321 10.7995 11.4434C10.7694 11.4558 10.7324 11.4712 10.6908 11.4922C10.6491 11.5127 10.6008 11.5348 10.5503 11.5641C10.4988 11.5923 10.4431 11.6231 10.3853 11.6606C10.326 11.696 10.2666 11.7386 10.2032 11.7832C10.0788 11.8751 9.94764 11.9834 9.82066 12.1087C9.69472 12.2349 9.58543 12.3653 9.49332 12.4885C9.44909 12.5516 9.40589 12.6107 9.3705 12.6692C9.33304 12.7262 9.30181 12.7821 9.27371 12.8329C9.24404 12.8832 9.22271 12.931 9.20189 12.972C9.18107 13.0131 9.16494 13.0495 9.15297 13.0798C9.14153 13.1075 9.13268 13.1301 9.12487 13.1491C9.11863 13.165 9.11602 13.1738 9.11655 13.1738C9.11759 13.1743 9.12175 13.1661 9.12956 13.1512C9.1384 13.1332 9.14933 13.1111 9.16234 13.0839C9.17587 13.0547 9.19304 13.0187 9.2149 12.9787C9.23676 12.9382 9.25966 12.8914 9.28984 12.8422C9.31898 12.7924 9.35073 12.7375 9.38872 12.6815C9.42463 12.6235 9.46834 12.5655 9.51258 12.5034C9.60521 12.3817 9.71397 12.2529 9.83887 12.1277C9.96481 12.0034 10.0944 11.8951 10.2172 11.8033C10.2797 11.7586 10.3385 11.7155 10.3968 11.6796C10.4535 11.6416 10.5086 11.6097 10.5591 11.5805C10.6091 11.5502 10.6564 11.5276 10.697 11.5055C10.7376 11.4835 10.7735 11.4665 10.8032 11.4527C10.8303 11.4398 10.8526 11.4286 10.8708 11.4198C10.887 11.4121 10.8948 11.4075 10.8943 11.407Z" fill="#263238"/>
<path d="M7.78273 14.3117C7.78065 14.3112 7.77285 14.3389 7.75775 14.3882C7.74266 14.4375 7.7182 14.5083 7.6823 14.593C7.611 14.7629 7.48246 14.9857 7.30396 15.2048C7.12546 15.424 6.94019 15.6026 6.80645 15.732C6.74192 15.7941 6.68831 15.8454 6.64772 15.885C6.61025 15.9214 6.59048 15.9419 6.59152 15.9435C6.59256 15.945 6.61546 15.9265 6.65501 15.8927C6.69456 15.8588 6.75128 15.809 6.81998 15.7459C6.95737 15.6201 7.14575 15.443 7.32529 15.2218C7.50536 15.0011 7.63286 14.7737 7.69999 14.6002C7.73434 14.5134 7.75567 14.4416 7.76816 14.3908C7.77493 14.3656 7.77805 14.3456 7.78065 14.3322C7.78273 14.3189 7.78377 14.3117 7.78273 14.3117Z" fill="#263238"/>
<path d="M0.177486 16.7909C0.180609 16.7909 0.181129 16.7381 0.193619 16.6431C0.205588 16.5486 0.233691 16.4116 0.307589 16.2576C0.379405 16.1026 0.50066 15.9363 0.650538 15.7659C0.726518 15.6807 0.805619 15.5914 0.888364 15.499C0.928956 15.4523 0.971631 15.4055 1.0117 15.3542C1.05177 15.3034 1.08872 15.2495 1.12515 15.1951C1.26982 14.9749 1.39108 14.7562 1.51025 14.5627C1.62839 14.3692 1.74236 14.1983 1.85633 14.0699C1.96873 13.9411 2.08635 13.8585 2.18054 13.8364C2.27473 13.8138 2.32834 13.8364 2.32886 13.8313C2.32886 13.8302 2.31585 13.8272 2.29087 13.822C2.26537 13.8179 2.22686 13.8159 2.17846 13.8261C2.08062 13.8456 1.95833 13.9283 1.84227 14.0571C1.72518 14.1854 1.60913 14.3559 1.48892 14.5494C1.36818 14.7424 1.24641 14.961 1.10277 15.1797C1.06634 15.2341 1.02992 15.2875 0.990365 15.3373C0.951855 15.3871 0.909181 15.4343 0.86859 15.481C0.786365 15.5739 0.706221 15.6627 0.631802 15.7494C0.482445 15.9214 0.360669 16.0908 0.290414 16.2494C0.217557 16.407 0.192057 16.5466 0.18321 16.6416C0.176445 16.6893 0.178527 16.7268 0.176965 16.7519C0.176445 16.7776 0.176966 16.7909 0.177486 16.7909Z" fill="#263238"/>
<path d="M2.11758 13.9714C2.11601 13.9719 2.1207 13.9986 2.13267 14.0458C2.14516 14.0931 2.16701 14.1603 2.2024 14.2409C2.27214 14.4005 2.40588 14.6115 2.61457 14.784C2.82325 14.9569 3.05639 15.0509 3.22813 15.0909C3.31452 15.1114 3.38529 15.1212 3.43473 15.1253C3.48417 15.1294 3.51123 15.1289 3.51123 15.1274C3.51123 15.1253 3.48417 15.1222 3.43577 15.115C3.38737 15.1078 3.31712 15.0955 3.23281 15.0729C3.0642 15.0288 2.83678 14.9338 2.63174 14.7639C2.42722 14.594 2.29295 14.3892 2.21957 14.2332C2.18263 14.1552 2.15765 14.089 2.14255 14.0433C2.12746 13.9971 2.11966 13.9709 2.11758 13.9714Z" fill="#263238"/>
<path d="M1.24434 15.25C1.2433 15.25 1.24434 15.2583 1.24746 15.2731C1.25058 15.288 1.25371 15.3106 1.26203 15.3383C1.27608 15.3948 1.30262 15.4749 1.34738 15.5693C1.43533 15.7567 1.61331 16 1.89121 16.1668C2.16963 16.3331 2.47094 16.3767 2.67963 16.367C2.78527 16.3629 2.86958 16.349 2.92682 16.3351C2.95544 16.3295 2.9773 16.3218 2.99239 16.3177C3.00696 16.3131 3.01477 16.3105 3.01477 16.3095C3.01425 16.3074 2.98251 16.3146 2.92526 16.3249C2.86802 16.3351 2.78371 16.3459 2.67963 16.348C2.47302 16.3526 2.17795 16.3069 1.90578 16.1437C1.6336 15.9805 1.45562 15.7438 1.36507 15.5606C1.31876 15.4687 1.28961 15.3902 1.27244 15.3352C1.25475 15.2808 1.24642 15.2495 1.24434 15.25Z" fill="#263238"/>
<path d="M2.70513 19.8014C2.70513 19.8086 4.14979 19.8147 5.93115 19.8147C7.71303 19.8147 9.15717 19.8086 9.15717 19.8014C9.15717 19.7942 7.71303 19.7881 5.93115 19.7881C4.14979 19.7881 2.70513 19.7937 2.70513 19.8014Z" fill="#263238"/>
<path d="M10.6429 10.5282C10.4879 10.7895 10.1782 10.9532 9.87222 10.9358C9.5657 10.9183 9.27739 10.7207 9.15353 10.4435C8.84441 10.636 8.41455 10.6165 8.12416 10.3973C7.8343 10.1777 7.70419 9.77318 7.81244 9.42876C7.5283 9.42209 7.34303 9.12694 7.2785 8.85387C7.1307 8.23124 7.34459 7.5383 7.81868 7.10251" fill="#263238"/>
<path d="M10.1043 16.0539C10.1059 16.0533 10.1017 16.0374 10.0928 16.0092C10.084 15.981 10.0679 15.9409 10.0444 15.8927C9.99865 15.7967 9.91747 15.6709 9.80141 15.5549C9.68484 15.4394 9.55786 15.3589 9.46107 15.3127C9.41267 15.2896 9.37208 15.2731 9.34345 15.2644C9.31483 15.2552 9.2987 15.2511 9.29818 15.2526C9.29662 15.2572 9.35855 15.2798 9.45222 15.3296C9.54537 15.3794 9.66819 15.461 9.78216 15.5739C9.89613 15.6874 9.97783 15.809 10.0273 15.9014C10.0772 15.9938 10.0996 16.0554 10.1043 16.0539Z" fill="#263238"/>
</g>
<defs>
<clipPath id="clip0_349_17533">
<rect width="23" height="20" fill="white" transform="matrix(-1 0 0 1 23 0.5)"/>
</clipPath>
</defs>
</svg>
