<svg width="60" height="60" viewBox="0 0 60 60" fill="none" xmlns="http://www.w3.org/2000/svg">
<path d="M19.788 23.9C19.788 25.356 20.348 26.364 21.916 26.364C23.484 26.364 24.044 25.356 24.044 23.9V7.996C24.044 6.484 23.316 6.092 22.42 6.092C20.04 6.092 20.908 9.284 17.8 9.956L16.764 10.18C15.308 10.46 14.748 10.74 14.748 11.776C14.748 12.924 15.252 13.26 16.176 13.26H19.788V23.9ZM34.6903 22.472C35.0543 21.408 36.9863 20.26 40.1503 18.468C43.1183 16.788 44.8263 15.332 44.8263 11.608C44.8263 9.032 42.1663 6.092 37.6863 6.092C33.5703 6.092 30.2103 8.696 30.2103 12.112C30.2103 13.512 31.1063 13.988 32.2543 13.988C33.3743 13.988 33.7383 13.456 34.0183 12.42C34.6343 10.18 35.8383 9.452 37.6303 9.452C39.1703 9.452 40.5703 10.46 40.5703 12.28C40.5703 14.548 39.2263 15.052 35.3343 17.516C31.8343 19.728 30.0703 21.94 30.0703 23.928C30.0703 24.908 30.7423 26 32.3663 26H42.8663C44.1543 26 44.9383 25.496 44.9383 24.236C44.9383 22.976 44.1543 22.472 43.0903 22.472H34.6903Z" fill="#FAFAFA"/>
<path d="M12.868 49.52C12.868 51.088 14.52 54.364 19.784 54.364C23.928 54.364 27.344 52.236 27.344 47.812C27.344 45.712 26.448 44.032 24.348 43.444C25.916 42.604 26.728 41.316 26.728 39.524C26.728 36.808 24.936 34.092 20.092 34.092C17.376 34.092 13.316 35.548 13.316 38.964C13.316 40.224 14.24 40.644 15.192 40.644C17.404 40.644 16.62 37.452 20.008 37.452C21.492 37.452 22.808 38.236 22.808 39.916C22.808 41.204 22.08 42.016 20.68 42.1C19.084 42.184 18.244 42.492 18.244 43.948C18.244 45.236 19.784 45.376 20.568 45.46C22.5 45.656 23.088 46.636 23.088 47.98C23.088 49.716 21.968 51.004 19.868 51.004C16.004 51.004 17.348 47.56 14.856 47.56C13.708 47.56 12.868 48.372 12.868 49.52ZM40.9177 46.328H35.4577L40.8617 39.076H40.9177V46.328ZM40.9177 52.404C40.9177 53.58 41.4217 54.364 42.8777 54.364C44.3337 54.364 44.8377 53.58 44.8377 52.404V49.52H46.2377C47.1897 49.52 47.8057 48.848 47.8057 47.924C47.8057 47 47.1897 46.328 46.2377 46.328H44.8377V36.108C44.8377 34.904 44.2497 34.092 42.7377 34.092C41.9537 34.092 41.3377 34.316 40.9177 34.876L32.2937 45.936C31.9297 46.412 31.7617 46.86 31.7617 47.588C31.7617 48.484 32.4337 49.52 33.8897 49.52H40.9177V52.404Z" fill="#FAFAFA"/>
</svg>
