<svg width="40" height="40" viewBox="0 0 40 40" fill="none" xmlns="http://www.w3.org/2000/svg">
<rect width="40" height="40" rx="20" fill="#FAFAFA"/>
<g clip-path="url(#clip0_442_62747)">
<path d="M7.97537 21.6302L7.52319 22.6021C7.52319 22.6021 13.7694 23.1011 16.0258 26.2033C16.0303 26.4506 16.1588 26.6762 16.3716 26.8064L17.5863 27.5657C17.8523 27.7219 18.1892 27.7045 18.4374 27.518C18.4374 27.518 22.2188 27.6525 24.493 30.8675L25.4018 31.9999L29.4315 18.8361L16.2298 8.63562L7.97537 21.6302Z" fill="#E84126"/>
<path d="M7.85558 19.8861L7 21.6086C7 21.6086 13.654 21.2224 17.1163 26.8715L20.1529 18.0508C20.1574 18.0508 9.15891 18.3545 7.85558 19.8861Z" fill="#EBEBEB"/>
<path d="M13.4235 7.09539C13.4235 7.09539 21.9483 5.60719 23.1585 14.3498L17.1162 26.8758C17.1162 26.8758 14.483 18.5107 7.09302 19.9642L13.4235 7.09539Z" fill="#F17A59"/>
<path d="M17.1162 26.8758C17.1162 26.8758 24.1072 26.2684 26.0577 31.6702L30.9119 19.8991L22.9501 14.7837L17.1162 26.8758Z" fill="#EBEBEB"/>
<path d="M23.1453 14.3585C23.1453 14.3585 27.0685 11.3127 30.7125 13.6513L33.0044 15.2306L28.3408 27.1709C28.3408 27.1709 22.6665 23.4222 17.1074 26.8802L23.1453 14.3585Z" fill="#F17A59"/>
<path d="M17.1163 26.8759C17.103 26.8672 17.174 26.6893 17.3158 26.3683C17.4843 26.0081 17.6882 25.5569 17.9364 25.0189C18.495 23.8431 19.2265 22.3028 20.0377 20.5977C20.849 18.8926 21.5804 17.3523 22.1434 16.1765C22.3961 15.6428 22.6089 15.1959 22.7818 14.8358C22.9325 14.5191 23.0256 14.3499 23.0389 14.3542C23.0522 14.3585 22.9902 14.5451 22.8616 14.8705C22.7375 15.1959 22.538 15.6645 22.2897 16.2416C21.7932 17.3913 21.0706 18.9663 20.2461 20.6932C19.4215 22.42 18.6502 23.9733 18.0827 25.0883C17.799 25.648 17.5641 26.0949 17.3956 26.4073C17.2316 26.7154 17.1296 26.8802 17.1163 26.8759Z" fill="#263238"/>
<path d="M30.7037 16.4237C30.6771 16.4541 30.3269 16.1894 29.6974 15.8814C29.0724 15.5733 28.1414 15.2566 27.073 15.1742C26.0047 15.0917 25.0338 15.2609 24.3644 15.4692C23.6906 15.6775 23.3049 15.8857 23.2872 15.851C23.2783 15.838 23.3714 15.7773 23.5443 15.6731C23.7128 15.569 23.9788 15.4432 24.3157 15.3173C24.9895 15.0657 25.9869 14.8661 27.0952 14.9486C28.1991 15.0353 29.1566 15.3868 29.7817 15.7425C30.0964 15.9161 30.3358 16.081 30.4865 16.2111C30.6328 16.337 30.7126 16.4107 30.7037 16.4237Z" fill="#263238"/>
<path d="M30.349 17.8643C30.3224 17.8947 29.9722 17.63 29.3427 17.3219C28.7176 17.0139 27.7867 16.6972 26.7183 16.6147C25.6499 16.5323 24.6791 16.7015 24.0097 16.9098C23.3403 17.118 22.9502 17.3263 22.9325 17.2916C22.9236 17.2786 23.0167 17.2178 23.1896 17.1137C23.358 17.0095 23.624 16.8837 23.9609 16.7579C24.6348 16.5062 25.6322 16.3067 26.7405 16.3891C27.8443 16.4759 28.8019 16.8273 29.4269 17.1831C29.7417 17.3566 29.9811 17.5215 30.1318 17.6517C30.2781 17.7775 30.3579 17.8513 30.349 17.8643Z" fill="#263238"/>
<path d="M29.684 19.296C29.6574 19.3264 29.3116 19.0618 28.6777 18.7537C28.0526 18.4456 27.1216 18.1289 26.0533 18.0465C24.9849 17.964 24.0141 18.1333 23.3447 18.3415C22.6708 18.5498 22.2852 18.758 22.2674 18.7233C22.2586 18.7103 22.3517 18.6496 22.5245 18.5454C22.693 18.4413 22.959 18.3155 23.2959 18.1897C23.9697 17.938 24.9672 17.7384 26.0754 17.8209C27.1793 17.9076 28.1368 18.2591 28.7619 18.6149C29.0766 18.7884 29.316 18.9533 29.4667 19.0834C29.6175 19.2093 29.6973 19.2874 29.684 19.296Z" fill="#263238"/>
<path d="M29.2719 20.7322C29.2453 20.7626 28.895 20.4979 28.2655 20.1899C27.6405 19.8818 26.7095 19.5651 25.6412 19.4826C24.5728 19.4002 23.6019 19.5694 22.9326 19.7777C22.2632 19.9859 21.873 20.1942 21.8553 20.1595C21.8465 20.1465 21.9395 20.0857 22.1124 19.9816C22.2809 19.8775 22.5469 19.7516 22.8838 19.6258C23.5576 19.3742 24.5551 19.1746 25.6633 19.257C26.7672 19.3438 27.7247 19.6952 28.3498 20.051C28.6645 20.2246 28.9039 20.3894 29.0546 20.5196C29.2009 20.6411 29.2807 20.7192 29.2719 20.7322Z" fill="#263238"/>
<path d="M28.8551 22.2508C28.8285 22.2811 28.4783 22.0165 27.8488 21.7084C27.2237 21.4004 26.2928 21.0836 25.2244 21.0012C24.156 20.9188 23.1852 21.088 22.5158 21.2962C21.8464 21.5045 21.4563 21.7128 21.4386 21.678C21.4297 21.665 21.5228 21.6043 21.6957 21.5002C21.8641 21.396 22.1301 21.2702 22.467 21.1444C23.1409 20.8927 24.1383 20.6931 25.2466 20.7756C26.3504 20.8624 27.308 21.2138 27.933 21.5696C28.2478 21.7431 28.4872 21.908 28.6379 22.0382C28.7886 22.164 28.8684 22.2377 28.8551 22.2508Z" fill="#263238"/>
<path d="M28.4516 23.9863C28.425 24.021 28.0482 23.726 27.3566 23.4049C27.0153 23.2357 26.5853 23.0838 26.1021 22.9363C25.6144 22.8018 25.0692 22.6846 24.4929 22.6196C23.9121 22.5588 23.3536 22.5501 22.8526 22.5805C22.3517 22.6282 21.8995 22.6846 21.5316 22.7888C20.7913 22.9753 20.3701 23.2096 20.3479 23.1706C20.3391 23.1576 20.441 23.0925 20.6317 22.984C20.7248 22.9276 20.8444 22.8712 20.9907 22.8148C21.1326 22.7541 21.2966 22.689 21.4872 22.6369C21.8596 22.5111 22.3207 22.433 22.8393 22.3766C23.358 22.3332 23.9299 22.3375 24.5239 22.3983C25.1179 22.4677 25.6765 22.5935 26.173 22.741C26.6651 22.9059 27.0995 23.0751 27.4364 23.266C27.6093 23.3528 27.76 23.4483 27.8886 23.5307C28.0216 23.6131 28.128 23.6869 28.2122 23.7607C28.3718 23.8908 28.4605 23.9733 28.4516 23.9863Z" fill="#263238"/>
<path d="M27.862 25.2401C27.8354 25.2748 27.4586 24.9798 26.7538 24.6674C26.408 24.5025 25.9691 24.3637 25.4859 24.2292C24.9938 24.1077 24.4441 24.0122 23.859 23.9602C23.2738 23.9211 22.7152 23.9298 22.2099 23.9732C21.7045 24.0339 21.2523 24.1033 20.8844 24.2118C20.144 24.4114 19.7185 24.6413 19.7007 24.6066C19.6919 24.5936 19.7938 24.5285 19.9844 24.4201C20.0775 24.3637 20.1972 24.3073 20.3435 24.2465C20.4854 24.1814 20.6494 24.1164 20.84 24.06C21.2124 23.9298 21.6734 23.8387 22.1877 23.7649C22.7064 23.7085 23.2782 23.6912 23.8811 23.7345C24.4796 23.7866 25.0426 23.8907 25.548 24.0252C26.0445 24.1771 26.4878 24.3376 26.8336 24.5242C27.0109 24.6066 27.1616 24.6978 27.2946 24.7845C27.4276 24.867 27.5384 24.9407 27.6226 25.0101C27.7867 25.1446 27.8709 25.2271 27.862 25.2401Z" fill="#263238"/>
<path d="M17.0232 22.8147C16.9833 22.8234 16.9079 22.3375 16.6021 21.6216C16.3006 20.91 15.7287 19.9685 14.8111 19.2049C13.8934 18.4413 12.8517 18.0377 12.0892 17.8599C11.3178 17.6776 10.8169 17.682 10.8213 17.6429C10.8213 17.6299 10.9454 17.6125 11.1715 17.6125C11.3976 17.6125 11.7257 17.6342 12.1246 17.7037C12.9182 17.8425 14.0087 18.2373 14.9618 19.0313C15.9149 19.8253 16.4868 20.8189 16.7528 21.5608C16.8902 21.934 16.9656 22.2464 17.001 22.4676C17.0321 22.6889 17.0365 22.8147 17.0232 22.8147Z" fill="#263238"/>
<path d="M17.759 21.1878C17.7191 21.1965 17.6438 20.7105 17.3379 19.9946C17.0364 19.2831 16.4646 18.3415 15.5469 17.5779C14.6293 16.8143 13.5875 16.4108 12.825 16.2329C12.0537 16.0507 11.5527 16.055 11.5572 16.016C11.5572 16.003 11.6813 15.9856 11.9074 15.9856C12.1335 15.9856 12.4615 16.0073 12.8605 16.0767C13.654 16.2156 14.7445 16.6104 15.6977 17.4044C16.6508 18.1984 17.2226 19.1919 17.4886 19.9339C17.626 20.307 17.7014 20.6194 17.7369 20.8407C17.7723 21.062 17.7723 21.1878 17.759 21.1878Z" fill="#263238"/>
<path d="M18.4995 19.5607C18.4596 19.5694 18.3843 19.0834 18.0784 18.3675C17.7769 17.656 17.2051 16.7145 16.2874 15.9508C15.3698 15.1872 14.328 14.7837 13.5655 14.6058C12.7941 14.4236 12.2932 14.4279 12.2976 14.3889C12.2976 14.3759 12.4218 14.3585 12.6478 14.3585C12.8739 14.3585 13.202 14.3802 13.601 14.4496C14.3945 14.5885 15.485 14.9833 16.4381 15.7773C17.3912 16.5713 17.9631 17.5649 18.2291 18.3068C18.3665 18.6799 18.4419 18.9923 18.4773 19.2136C18.5084 19.4349 18.5128 19.5564 18.4995 19.5607Z" fill="#263238"/>
<path d="M19.2354 17.9336C19.1955 17.9423 19.1201 17.4564 18.8142 16.7405C18.5128 16.0289 17.9409 15.0874 17.0232 14.3238C16.1056 13.5602 15.0638 13.1566 14.3013 12.9788C13.53 12.7965 13.029 12.8009 13.0335 12.7618C13.0335 12.7488 13.1576 12.7314 13.3837 12.7314C13.6098 12.7314 13.9378 12.7531 14.3368 12.8226C15.1303 12.9614 16.2209 13.3562 17.174 14.1502C18.1271 14.9442 18.6989 15.9378 18.9649 16.6797C19.1024 17.0529 19.1777 17.3653 19.2132 17.5865C19.2442 17.8078 19.2487 17.9293 19.2354 17.9336Z" fill="#263238"/>
<path d="M19.9712 16.3066C19.9313 16.3152 19.8559 15.8293 19.55 15.1134C19.2486 14.4018 18.6767 13.4603 17.7591 12.6967C16.8414 11.9331 15.7997 11.5296 15.0372 11.3517C14.2658 11.1695 13.7649 11.1738 13.7693 11.1347C13.7693 11.1217 13.8934 11.1044 14.1195 11.1044C14.3456 11.1044 14.6737 11.1261 15.0726 11.1955C15.8662 11.3343 16.9567 11.7292 17.9098 12.5231C18.8629 13.3171 19.4348 14.3107 19.7008 15.0527C19.8382 15.4258 19.9136 15.7382 19.949 15.9595C19.9845 16.1807 19.9889 16.3022 19.9712 16.3066Z" fill="#263238"/>
<path d="M20.7114 14.6796C20.6715 14.6883 20.5962 14.2023 20.2903 13.4864C19.9888 12.7749 19.417 11.8334 18.4993 11.0697C17.5817 10.3061 16.5399 9.90262 15.7774 9.72473C15.0061 9.5425 14.5051 9.54684 14.5096 9.50779C14.5096 9.49477 14.6337 9.47742 14.8598 9.47742C15.0859 9.47742 15.4139 9.49911 15.8129 9.56853C16.6064 9.70737 17.6969 10.1022 18.65 10.8962C19.6032 11.6902 20.175 12.6838 20.441 13.4257C20.5784 13.7988 20.6538 14.1112 20.6893 14.3325C20.7203 14.5538 20.7247 14.6753 20.7114 14.6796Z" fill="#263238"/>
</g>
<defs>
<clipPath id="clip0_442_62747">
<rect width="26" height="25" fill="white" transform="translate(7 7)"/>
</clipPath>
</defs>
</svg>
