<svg width="120" height="120" viewBox="0 0 120 120" fill="none" xmlns="http://www.w3.org/2000/svg">
<g clip-path="url(#clip0_365_40128)">
<circle cx="60" cy="60" r="49.25" fill="#DCDCDC" stroke="#AEAEAE" stroke-width="1.5"/>
<path d="M94 20H26C20.3995 20 17.5992 20 15.4601 21.0899C13.5785 22.0487 12.0487 23.5785 11.0899 25.4601C10 27.5992 10 30.3995 10 36V42.5C19.665 42.5 27.5 50.335 27.5 60C27.5 69.665 19.665 77.5 10 77.5V84C10 89.6005 10 92.4008 11.0899 94.5399C12.0487 96.4215 13.5785 97.9513 15.4601 98.9101C17.5992 100 20.3995 100 26 100H94C99.6005 100 102.401 100 104.54 98.9101C106.422 97.9513 107.951 96.4215 108.91 94.5399C110 92.4008 110 89.6005 110 84V77.5C100.335 77.5 92.5 69.665 92.5 60C92.5 50.335 100.335 42.5 110 42.5V36C110 30.3995 110 27.5992 108.91 25.4601C107.951 23.5785 106.422 22.0487 104.54 21.0899C102.401 20 99.6005 20 94 20Z" fill="#FAFAFA"/>
<path d="M50 40V35M50 62.5V57.5M50 85V80M26 20H94C99.6005 20 102.401 20 104.54 21.0899C106.422 22.0487 107.951 23.5785 108.91 25.4601C110 27.5992 110 30.3995 110 36V42.5C100.335 42.5 92.5 50.335 92.5 60C92.5 69.665 100.335 77.5 110 77.5V84C110 89.6005 110 92.4008 108.91 94.5399C107.951 96.4215 106.422 97.9513 104.54 98.9101C102.401 100 99.6005 100 94 100H26C20.3995 100 17.5992 100 15.4601 98.9101C13.5785 97.9513 12.0487 96.4215 11.0899 94.5399C10 92.4008 10 89.6005 10 84V77.5C19.665 77.5 27.5 69.665 27.5 60C27.5 50.335 19.665 42.5 10 42.5V36C10 30.3995 10 27.5992 11.0899 25.4601C12.0487 23.5785 13.5785 22.0487 15.4601 21.0899C17.5992 20 20.3995 20 26 20Z" stroke="#AEAEAE" stroke-width="1.5" stroke-linecap="round" stroke-linejoin="round"/>
<g clip-path="url(#clip1_365_40128)">
<path d="M64 76.4C64 71.3595 64 68.8393 64.9809 66.9141C65.8438 65.2206 67.2206 63.8438 68.9141 62.9809C70.8393 62 73.3595 62 78.4 62H91.6C96.6405 62 99.1607 62 101.086 62.9809C102.779 63.8438 104.156 65.2206 105.019 66.9141C106 68.8393 106 71.3595 106 76.4V116L85 104L64 116V76.4Z" fill="#FAFAFA" stroke="#AEAEAE" stroke-width="4" stroke-linecap="round" stroke-linejoin="round"/>
<circle cx="78" cy="78" r="3" fill="#AEAEAE"/>
<circle cx="92" cy="78" r="3" fill="#AEAEAE"/>
<ellipse cx="85" cy="89.5" rx="4" ry="2.5" fill="#AEAEAE"/>
<line x1="71.6877" y1="75.6096" x2="76.6877" y2="71.6096" stroke="#AEAEAE"/>
<line x1="92.3123" y1="71.6096" x2="97.3123" y2="75.6096" stroke="#AEAEAE"/>
</g>
</g>
<defs>
<clipPath id="clip0_365_40128">
<rect width="120" height="120" fill="white"/>
</clipPath>
<clipPath id="clip1_365_40128">
<rect width="72" height="72" fill="white" transform="translate(49 53)"/>
</clipPath>
</defs>
</svg>
