<svg width="140" height="131" viewBox="0 0 140 131" fill="none" xmlns="http://www.w3.org/2000/svg">
<g clip-path="url(#clip0_849_199681)">
<path d="M140.003 29.6921H119.33V50.0142H140.003V29.6921Z" fill="#E0E0E0"/>
<path d="M138.602 29.6921H117.929V50.0142H138.602V29.6921Z" fill="#FAFAFA"/>
<path d="M138.608 50.0202H117.923V29.6868H138.608V50.0202ZM117.935 50.006H138.593V29.6953H117.935V50.006Z" fill="#E0E0E0"/>
<path d="M135.821 32.4226H120.707V47.2815H135.821V32.4226Z" fill="white"/>
<path d="M120.707 47.3804C120.719 47.3946 120.575 47.5502 120.335 47.7907C120.095 48.0311 119.753 48.3565 119.375 48.7101C118.994 49.0638 118.646 49.3778 118.388 49.6013C118.13 49.8248 117.965 49.9578 117.95 49.9437C117.938 49.9323 118.079 49.7767 118.322 49.5363C118.562 49.2958 118.904 48.9704 119.285 48.6168C119.666 48.2631 120.017 47.9463 120.275 47.7228C120.53 47.4992 120.695 47.3663 120.707 47.3804Z" fill="#E0E0E0"/>
<path d="M135.821 47.3437C135.836 47.3324 136.001 47.4682 136.256 47.6945C136.511 47.9208 136.856 48.2434 137.231 48.5998C137.606 48.9591 137.939 49.2873 138.176 49.5306C138.413 49.774 138.554 49.9296 138.539 49.9437C138.527 49.955 138.362 49.822 138.107 49.5929C137.852 49.3665 137.507 49.044 137.132 48.6847C136.757 48.3254 136.421 47.9944 136.184 47.7511C135.947 47.5106 135.809 47.355 135.821 47.3437Z" fill="#E0E0E0"/>
<path d="M135.779 32.4622C135.767 32.4481 135.911 32.2925 136.151 32.052C136.391 31.8115 136.733 31.4862 137.111 31.1325C137.492 30.7789 137.84 30.4648 138.098 30.2413C138.356 30.0178 138.521 29.8848 138.536 29.899C138.548 29.9103 138.407 30.0659 138.164 30.3064C137.924 30.5469 137.582 30.8722 137.201 31.2259C136.82 31.5795 136.469 31.8964 136.211 32.1199C135.959 32.3434 135.791 32.4764 135.779 32.4622Z" fill="#E0E0E0"/>
<path d="M120.665 32.4989C120.65 32.5102 120.485 32.3744 120.23 32.1481C119.975 31.9217 119.63 31.5992 119.255 31.2427C118.88 30.8834 118.547 30.5552 118.31 30.3119C118.073 30.0686 117.932 29.913 117.947 29.8989C117.959 29.8875 118.124 30.0205 118.379 30.2497C118.634 30.476 118.979 30.7985 119.354 31.1579C119.729 31.5172 120.065 31.8482 120.302 32.0915C120.542 32.332 120.68 32.4876 120.665 32.4989Z" fill="#E0E0E0"/>
<path d="M135.779 47.2815C135.779 47.2815 135.776 47.256 135.776 47.2079C135.776 47.157 135.773 47.0891 135.773 47.0014C135.77 46.8147 135.77 46.5459 135.767 46.2008C135.764 45.4963 135.758 44.4721 135.752 43.1735C135.746 40.5707 135.734 36.8644 135.722 32.4254L135.779 32.4792C131.378 32.482 126.212 32.4848 120.707 32.4877H120.704L120.77 32.4254C120.767 37.8801 120.764 42.9811 120.761 47.2843L120.704 47.2306C125.222 47.2419 128.981 47.2504 131.618 47.2589C132.935 47.2645 133.973 47.2702 134.684 47.273C135.035 47.2758 135.305 47.2787 135.494 47.2787C135.584 47.2787 135.653 47.2815 135.704 47.2815C135.755 47.2787 135.779 47.2815 135.779 47.2815C135.779 47.2815 135.758 47.2843 135.713 47.2843C135.662 47.2843 135.596 47.2872 135.509 47.2872C135.323 47.29 135.056 47.29 134.708 47.2928C134 47.2956 132.968 47.3013 131.657 47.307C129.011 47.3126 125.237 47.3239 120.707 47.3353H120.65V47.2815C120.647 42.9783 120.644 37.8773 120.641 32.4226V32.3604H120.707H120.71C126.215 32.3632 131.381 32.366 135.782 32.3688H135.839V32.4226C135.827 36.8757 135.815 40.5961 135.809 43.2075C135.803 44.5032 135.797 45.5217 135.794 46.2234C135.791 46.5657 135.788 46.8317 135.788 47.0156C135.788 47.1004 135.785 47.1683 135.785 47.2164C135.782 47.2589 135.782 47.2815 135.779 47.2815Z" fill="#E0E0E0"/>
<path d="M128.234 40.8395L126.125 40.8649L125.735 41.7533L124.658 41.7675L126.626 37.617L127.664 37.6057L129.752 41.7052L128.648 41.7194L128.234 40.8395ZM127.892 40.118L127.151 38.5478L126.452 40.135L127.892 40.118Z" fill="#E0E0E0"/>
<path d="M132.212 40.2793L132.233 41.7335L131.777 41.7391L131.774 41.4223C131.618 41.643 131.324 41.7731 130.907 41.7788C130.307 41.7872 129.923 41.4987 129.917 41.0828C129.911 40.6952 130.184 40.3755 130.973 40.3642L131.735 40.3557V40.268C131.729 39.9002 131.492 39.688 131.015 39.6936C130.7 39.6965 130.379 39.8011 130.178 39.9624L129.974 39.6371C130.247 39.4334 130.64 39.3202 131.066 39.3145C131.786 39.3089 132.203 39.6201 132.212 40.2793ZM131.741 41.0036L131.735 40.6669L130.994 40.6754C130.517 40.681 130.385 40.8508 130.388 41.0545C130.391 41.295 130.613 41.4421 130.979 41.4392C131.339 41.4364 131.624 41.2836 131.741 41.0036Z" fill="#E0E0E0"/>
<path d="M137.105 54.292H120.134V70.9757H137.105V54.292Z" fill="#E0E0E0"/>
<path d="M135.956 54.292H118.985V70.9757H135.956V54.292Z" fill="#FAFAFA"/>
<path d="M135.962 70.9817H118.979V54.2866H135.962V70.9817ZM118.991 70.9732H135.953V54.2979H118.991V70.9732Z" fill="#E0E0E0"/>
<path d="M133.673 56.5359H121.265V68.7354H133.673V56.5359Z" fill="white"/>
<path d="M121.265 68.8144C121.274 68.8257 121.157 68.9531 120.959 69.1511C120.761 69.3492 120.482 69.6151 120.17 69.9065C119.858 70.1979 119.57 70.4554 119.36 70.6393C119.147 70.8232 119.012 70.9307 119 70.9222C118.988 70.9109 119.105 70.7864 119.306 70.5883C119.504 70.3903 119.783 70.1243 120.095 69.8329C120.407 69.5415 120.695 69.2841 120.908 69.1002C121.121 68.9135 121.256 68.8059 121.265 68.8144Z" fill="#E0E0E0"/>
<path d="M133.673 68.7861C133.685 68.7776 133.82 68.8879 134.03 69.0747C134.24 69.2614 134.522 69.5245 134.831 69.8188C135.14 70.113 135.413 70.3846 135.608 70.5826C135.803 70.7835 135.917 70.9108 135.908 70.9221C135.896 70.9335 135.764 70.8231 135.554 70.6364C135.344 70.4497 135.062 70.1865 134.753 69.8895C134.444 69.5952 134.171 69.3236 133.976 69.1228C133.778 68.9219 133.664 68.7946 133.673 68.7861Z" fill="#E0E0E0"/>
<path d="M133.64 56.5699C133.631 56.5586 133.748 56.4313 133.946 56.2332C134.144 56.0352 134.423 55.7692 134.735 55.4778C135.047 55.1864 135.335 54.929 135.545 54.7451C135.758 54.5612 135.893 54.4537 135.905 54.4621C135.917 54.4735 135.8 54.5979 135.599 54.796C135.401 54.994 135.122 55.26 134.807 55.5514C134.495 55.8428 134.207 56.1002 133.994 56.2841C133.787 56.4709 133.649 56.5812 133.64 56.5699Z" fill="#E0E0E0"/>
<path d="M121.232 56.598C121.22 56.6065 121.085 56.4962 120.875 56.3094C120.665 56.1227 120.383 55.8596 120.074 55.5654C119.765 55.2711 119.492 54.9995 119.297 54.8015C119.102 54.6006 118.988 54.4733 118.997 54.462C119.009 54.4507 119.141 54.561 119.351 54.7477C119.561 54.9344 119.843 55.1976 120.152 55.4946C120.461 55.7889 120.734 56.0605 120.929 56.2613C121.13 56.4622 121.244 56.5895 121.232 56.598Z" fill="#E0E0E0"/>
<path d="M133.64 68.7353C133.64 68.7353 133.637 68.7155 133.637 68.6758C133.637 68.6334 133.634 68.5768 133.634 68.5061C133.634 68.3533 133.631 68.1326 133.628 67.8469C133.625 67.2697 133.622 66.4295 133.616 65.36C133.61 63.224 133.601 60.1798 133.592 56.5358L133.64 56.5811C130.028 56.5839 125.786 56.5839 121.268 56.5867L121.322 56.5358C121.319 61.0144 121.316 65.2016 121.313 68.7353L121.265 68.69C124.973 68.6985 128.06 68.707 130.226 68.7126C131.306 68.7183 132.158 68.7211 132.743 68.7239C133.031 68.7268 133.253 68.7268 133.409 68.7296C133.481 68.7296 133.538 68.7324 133.58 68.7324C133.619 68.7324 133.64 68.7324 133.64 68.7353C133.64 68.7353 133.622 68.7381 133.586 68.7381C133.544 68.7381 133.49 68.7381 133.418 68.7409C133.265 68.7409 133.046 68.7437 132.761 68.7466C132.179 68.7494 131.333 68.7522 130.256 68.7579C128.084 68.7635 124.988 68.772 121.265 68.7805H121.217V68.7353C121.214 65.2016 121.211 61.0144 121.208 56.5358V56.4849H121.262C125.78 56.4877 130.022 56.4905 133.634 56.4905H133.682V56.5358C133.673 60.1911 133.664 63.2466 133.658 65.3883C133.652 66.4521 133.649 67.2895 133.646 67.8639C133.643 68.1468 133.643 68.3618 133.64 68.5146C133.64 68.5853 133.637 68.6391 133.637 68.6787C133.643 68.7183 133.64 68.7353 133.64 68.7353Z" fill="#E0E0E0"/>
<path d="M128.405 63.2355C128.414 63.8211 127.907 64.1663 126.926 64.1776L124.997 64.2002L124.949 60.8137L126.77 60.791C127.703 60.7797 128.186 61.1277 128.195 61.6539C128.201 61.9934 128.012 62.2566 127.709 62.4037C128.129 62.5225 128.399 62.8111 128.405 63.2355ZM125.816 61.3937L125.828 62.1915L126.686 62.1802C127.106 62.1745 127.334 62.0359 127.331 61.7699C127.328 61.504 127.097 61.3767 126.674 61.3823L125.816 61.3937ZM127.535 63.1647C127.532 62.879 127.289 62.746 126.842 62.7517L125.834 62.763L125.846 63.6004L126.854 63.5891C127.301 63.5834 127.541 63.4533 127.535 63.1647Z" fill="#E0E0E0"/>
<path d="M131.243 63.1874C131.252 63.7901 130.793 64.2031 130.154 64.2116C129.833 64.2144 129.551 64.1069 129.371 63.8863L129.374 64.2003L128.996 64.206L128.957 61.439L129.353 61.4333L129.368 62.5226C129.545 62.3076 129.815 62.2001 130.124 62.1972C130.763 62.1859 131.234 62.582 131.243 63.1874ZM130.844 63.1903C130.838 62.7687 130.517 62.5 130.1 62.5056C129.686 62.5113 129.371 62.7857 129.377 63.2073C129.383 63.6288 129.704 63.9004 130.118 63.8947C130.538 63.8919 130.85 63.6118 130.844 63.1903Z" fill="#E0E0E0"/>
<path d="M113.378 23.1003H25.8633V82.0437H113.378V23.1003Z" fill="#E0E0E0"/>
<path d="M110.672 25.457H27.9424V79.7803H110.672V25.457Z" fill="#F5F5F5"/>
<path d="M118.187 82.0466H23.0133V84.392H118.187V82.0466Z" fill="#EBEBEB"/>
<path d="M25.8935 23.1572C26.7185 23.8504 27.5105 24.5831 28.2635 25.347L25.8935 23.1572Z" fill="#EBEBEB"/>
<path d="M28.2634 25.3466C28.2304 25.3749 27.7054 24.8798 27.0514 24.2772C26.3974 23.6746 25.8634 23.188 25.8934 23.1568C25.9204 23.1257 26.5054 23.5642 27.1594 24.1725C27.8164 24.778 28.2934 25.3183 28.2634 25.3466Z" fill="#EBEBEB"/>
<path d="M110.734 25.6298C111.616 24.8235 112.498 24.0172 113.38 23.208L110.734 25.6298Z" fill="#EBEBEB"/>
<path d="M113.381 23.2079C113.411 23.2362 112.844 23.802 112.112 24.4697C111.38 25.1374 110.765 25.6551 110.735 25.6269C110.705 25.5986 111.272 25.0327 112.004 24.3622C112.736 23.6973 113.351 23.1796 113.381 23.2079Z" fill="#EBEBEB"/>
<path d="M110.885 79.7661C111.788 80.5357 113.564 82.0436 113.375 82.0436L110.885 79.7661Z" fill="#EBEBEB"/>
<path d="M113.375 82.0468C113.435 82.0496 112.826 81.546 112.124 80.9321C111.416 80.3153 110.855 79.8004 110.882 79.7693C110.909 79.741 111.518 80.2078 112.229 80.8246C112.583 81.133 112.895 81.4244 113.111 81.6479C113.219 81.7582 113.3 81.8544 113.351 81.9251C113.375 81.9619 113.393 81.9902 113.399 82.0185C113.411 82.0524 113.369 82.0524 113.375 82.0468Z" fill="#EBEBEB"/>
<path d="M69.0459 81.1609H59.9738V82.0917H69.0459V81.1609Z" fill="#FAFAFA"/>
<path d="M32.1605 71.2588V82.0804H51.8857L32.1605 71.2588ZM35.1845 75.6157L43.3836 80.1934H35.1845V75.6157Z" fill="#EBEBEB"/>
<path d="M34.0535 72.2999C34.0895 72.3226 33.9335 72.6196 33.7055 72.9676C33.4775 73.3156 33.2615 73.5787 33.2255 73.5561C33.1895 73.5335 33.3455 73.2364 33.5735 72.8884C33.8015 72.5404 34.0175 72.2773 34.0535 72.2999Z" fill="#E0E0E0"/>
<path d="M36.9785 73.8871C37.0145 73.9098 36.8615 74.1984 36.6365 74.535C36.4115 74.8717 36.1985 75.1263 36.1625 75.1065C36.1265 75.0839 36.2795 74.7953 36.5045 74.4586C36.7295 74.1191 36.9425 73.8645 36.9785 73.8871Z" fill="#E0E0E0"/>
<path d="M39.9066 75.4743C39.9396 75.4998 39.7566 75.7742 39.4926 76.0854C39.2316 76.3966 38.9916 76.6315 38.9556 76.606C38.9226 76.5805 39.1056 76.3061 39.3696 75.9949C39.6336 75.6809 39.8736 75.4489 39.9066 75.4743Z" fill="#E0E0E0"/>
<path d="M42.7806 77.1237C42.8136 77.1492 42.6306 77.4236 42.3666 77.7348C42.1056 78.046 41.8656 78.2809 41.8296 78.2554C41.7966 78.2299 41.9796 77.9555 42.2436 77.6443C42.5076 77.3331 42.7476 77.0983 42.7806 77.1237Z" fill="#E0E0E0"/>
<path d="M45.7837 78.7476C45.8197 78.7702 45.6487 79.0616 45.4057 79.4011C45.1597 79.7378 44.9346 79.9925 44.8986 79.9698C44.8626 79.9472 45.0336 79.6558 45.2767 79.3163C45.5227 78.9768 45.7507 78.7221 45.7837 78.7476Z" fill="#E0E0E0"/>
<path d="M48.9067 80.4536C48.9427 80.4762 48.7897 80.7535 48.5677 81.076C48.3457 81.3957 48.1357 81.639 48.0997 81.6164C48.0637 81.5938 48.2137 81.3165 48.4387 80.994C48.6607 80.6743 48.8707 80.431 48.9067 80.4536Z" fill="#E0E0E0"/>
<path d="M34.9655 72.8008C35.0015 72.8234 34.9385 72.979 34.8275 73.1516C34.7135 73.3242 34.5935 73.4459 34.5545 73.4261C34.5155 73.4062 34.5815 73.2478 34.6925 73.0752C34.8065 72.8998 34.9295 72.7782 34.9655 72.8008Z" fill="#E0E0E0"/>
<path d="M35.9255 73.3044C35.9615 73.327 35.8985 73.4827 35.7875 73.6552C35.6735 73.8278 35.5535 73.9495 35.5145 73.9297C35.4785 73.907 35.5415 73.7514 35.6525 73.5788C35.7665 73.4063 35.8895 73.2818 35.9255 73.3044Z" fill="#E0E0E0"/>
<path d="M38.0585 74.487C38.0945 74.5096 38.0315 74.6652 37.9205 74.8378C37.8065 75.0104 37.6865 75.132 37.6475 75.1122C37.6115 75.0896 37.6745 74.934 37.7855 74.7614C37.8995 74.5888 38.0225 74.4672 38.0585 74.487Z" fill="#E0E0E0"/>
<path d="M39.0186 74.9904C39.0546 75.013 38.9916 75.1686 38.8806 75.3412C38.7666 75.5138 38.6466 75.6354 38.6076 75.6156C38.5716 75.593 38.6346 75.4374 38.7456 75.2648C38.8596 75.0922 38.9826 74.9706 39.0186 74.9904Z" fill="#E0E0E0"/>
<path d="M40.9476 76.1194C40.9836 76.142 40.9206 76.2976 40.8096 76.4702C40.6956 76.6428 40.5756 76.7644 40.5366 76.7446C40.5006 76.722 40.5636 76.5664 40.6746 76.3938C40.7886 76.2212 40.9116 76.0967 40.9476 76.1194Z" fill="#E0E0E0"/>
<path d="M41.8626 76.623C41.8986 76.6456 41.8356 76.8012 41.7246 76.9738C41.6106 77.1464 41.4906 77.268 41.4516 77.2482C41.4156 77.2256 41.4786 77.07 41.5896 76.8974C41.7036 76.7248 41.8266 76.6032 41.8626 76.623Z" fill="#E0E0E0"/>
<path d="M43.8366 77.6979C43.8726 77.7205 43.8096 77.8761 43.6986 78.0487C43.5846 78.2213 43.4646 78.343 43.4256 78.3232C43.3896 78.3005 43.4526 78.1449 43.5636 77.9723C43.6776 77.7998 43.8006 77.6781 43.8366 77.6979Z" fill="#E0E0E0"/>
<path d="M44.8986 78.2893C44.9346 78.312 44.8716 78.4676 44.7606 78.6401C44.6466 78.8127 44.5266 78.9344 44.4876 78.9146C44.4516 78.8919 44.5146 78.7363 44.6256 78.5638C44.7396 78.3884 44.8626 78.2667 44.8986 78.2893Z" fill="#E0E0E0"/>
<path d="M46.8067 79.3418C46.8427 79.3644 46.7797 79.52 46.6687 79.6926C46.5546 79.8652 46.4346 79.9868 46.3956 79.967C46.3596 79.9444 46.4226 79.7888 46.5337 79.6162C46.6477 79.4436 46.7677 79.3191 46.8067 79.3418Z" fill="#E0E0E0"/>
<path d="M47.9077 79.9359C47.9437 79.9586 47.8807 80.1142 47.7697 80.2868C47.6557 80.4593 47.5357 80.581 47.4967 80.5612C47.4577 80.5414 47.5237 80.383 47.6347 80.2104C47.7487 80.0378 47.8717 79.9161 47.9077 79.9359Z" fill="#E0E0E0"/>
<path d="M127.43 103.172C128.972 102.422 130.79 102.323 132.503 102.592C133.424 102.736 134.384 102.994 135.008 103.647C135.635 104.298 135.752 105.447 135.035 106.007C134.606 106.341 134.009 106.392 133.454 106.386C132.113 106.372 130.625 106.148 129.554 106.909C128.942 107.342 128.537 108.067 127.805 108.279C127.091 108.488 126.284 108.089 125.903 107.481C125.525 106.873 125.51 106.112 125.687 105.427C125.69 105.424 125.876 103.927 127.43 103.172Z" fill="#EBEBEB"/>
<path d="M123.896 96.7386C124.838 98.0089 126.674 97.5873 127.523 96.8121C128.372 96.0369 128.732 94.9109 129.059 93.8415C129.806 91.3914 130.559 88.8225 130.004 86.3272C129.839 85.5802 129.542 84.839 128.987 84.2845C128.432 83.73 127.577 83.4018 126.797 83.597C125.873 83.8262 125.297 84.6806 124.883 85.4925C123.662 87.8804 123.017 90.5285 123.005 93.1795C123.002 94.4158 123.155 95.7144 123.896 96.7386Z" fill="#EBEBEB"/>
<path d="M121.304 98.5606C122.327 97.4148 122.522 95.7428 122.066 94.3055C121.61 92.8683 120.581 91.6461 119.393 90.6502C118.001 89.4818 116.366 88.5708 114.608 87.988C113.915 87.7588 113.186 87.5777 112.457 87.6428C111.728 87.7079 110.99 88.0615 110.651 88.6726C110.147 89.578 110.63 90.6785 111.152 91.5725C112.073 93.1512 113.123 94.662 114.296 96.0851C115.238 97.2309 116.318 98.3598 117.752 98.8775C119.189 99.3952 120.68 99.333 121.439 98.3965" fill="#EBEBEB"/>
<path d="M123.833 115.906C123.851 115.906 123.878 115.703 123.917 115.329C123.959 114.908 124.016 114.381 124.079 113.753C124.157 113.091 124.259 112.302 124.454 111.442C124.649 110.585 124.952 109.657 125.345 108.714C125.75 107.778 126.245 106.926 126.821 106.247C127.394 105.563 128.063 105.068 128.69 104.782C129.314 104.49 129.875 104.372 130.262 104.321C130.652 104.284 130.871 104.253 130.871 104.239C130.871 104.222 130.652 104.219 130.25 104.23C129.851 104.256 129.269 104.349 128.609 104.632C127.949 104.909 127.241 105.41 126.638 106.109C126.032 106.805 125.519 107.673 125.108 108.627C124.709 109.586 124.409 110.525 124.223 111.399C124.037 112.274 123.953 113.071 123.896 113.739C123.842 114.41 123.824 114.95 123.812 115.323C123.809 115.697 123.815 115.906 123.833 115.906Z" fill="#E0E0E0"/>
<path d="M123.947 114.693C123.956 114.693 123.962 114.599 123.962 114.424C123.962 114.223 123.962 113.968 123.959 113.657C123.956 112.992 123.956 112.03 123.995 110.842C124.058 108.466 124.274 105.908 124.694 102.304C125.09 98.9142 125.624 94.9675 126.185 92.4014C126.305 91.8186 126.428 91.2923 126.542 90.834C126.65 90.3728 126.743 89.9768 126.833 89.6542C126.911 89.3515 126.974 89.1054 127.022 88.9102C127.064 88.7404 127.079 88.647 127.073 88.647C127.064 88.6442 127.031 88.7319 126.974 88.8988C126.911 89.0912 126.833 89.3345 126.737 89.6316C126.632 89.9513 126.524 90.3446 126.404 90.8029C126.275 91.2612 126.143 91.7846 126.011 92.3674C125.456 94.693 124.865 97.9409 124.442 101.557C124.022 105.17 123.833 108.46 123.815 110.842C123.8 112.033 123.827 112.998 123.86 113.663C123.881 113.974 123.896 114.229 123.911 114.429C123.926 114.602 123.938 114.695 123.947 114.693Z" fill="#E0E0E0"/>
<path d="M123.965 108.35C123.983 108.35 123.98 108.064 123.959 107.549C123.929 107.034 123.854 106.29 123.698 105.382C123.536 104.474 123.308 103.396 122.951 102.222C122.795 101.687 122.432 100.402 121.55 98.4842C120.389 95.8842 118.808 93.7594 117.437 92.4439C117.116 92.0959 116.756 91.8412 116.468 91.5951C116.321 91.4763 116.189 91.3574 116.054 91.2641C115.919 91.1764 115.793 91.0943 115.679 91.0208C115.226 90.7294 114.974 90.5766 114.965 90.5907C114.923 90.6417 115.976 91.2273 117.308 92.5599C118.631 93.8896 120.167 96.003 121.319 98.5804C121.961 99.978 122.411 101.226 122.729 102.284C123.095 103.444 123.341 104.513 123.524 105.413C123.698 106.315 123.8 107.051 123.863 107.56C123.911 108.067 123.947 108.35 123.965 108.35Z" fill="#E0E0E0"/>
<path d="M117.461 119.542L118.136 128.253H130.001L130.676 119.542H117.461Z" fill="#E0E0E0"/>
<path d="M132.092 116.107H116.315V119.542H132.092V116.107Z" fill="#E0E0E0"/>
<path d="M116.315 127.919V128.873H117.056H131.831V127.919H116.315Z" fill="#EBEBEB"/>
<path d="M117.782 130.547L117.056 128.873H131.267L130.418 130.547H117.782Z" fill="#E0E0E0"/>
<path d="M130.454 122.388C130.457 122.391 130.439 122.416 130.4 122.467C130.352 122.527 130.295 122.6 130.223 122.688C130.055 122.892 129.824 123.172 129.533 123.523L129.503 123.559L129.473 123.52C129.038 122.954 128.459 122.196 127.775 121.305H127.874C127.37 121.978 126.806 122.73 126.203 123.537L126.152 123.608L126.092 123.542C125.474 122.849 124.805 122.097 124.109 121.319L124.223 121.316C124.19 121.355 124.151 121.401 124.115 121.446C123.5 122.173 122.906 122.878 122.342 123.542L122.282 123.613L122.228 123.54C121.625 122.736 121.064 121.986 120.554 121.307L120.65 121.313C119.825 122.199 119.126 122.951 118.589 123.525L118.553 123.565L118.526 123.52C118.253 123.09 118.037 122.747 117.881 122.498C117.815 122.388 117.758 122.298 117.716 122.227C117.68 122.165 117.662 122.131 117.665 122.131C117.668 122.128 117.692 122.159 117.734 122.216C117.782 122.283 117.842 122.371 117.917 122.479C118.082 122.722 118.31 123.059 118.595 123.483L118.532 123.477C119.06 122.895 119.747 122.133 120.56 121.237L120.611 121.18L120.656 121.242C121.169 121.918 121.736 122.665 122.345 123.463L122.231 123.46C122.792 122.793 123.386 122.088 124.001 121.361C124.037 121.316 124.076 121.273 124.109 121.231L124.166 121.163L124.223 121.228C124.916 122.009 125.585 122.764 126.2 123.458L126.089 123.46C126.698 122.657 127.268 121.91 127.778 121.239L127.829 121.174L127.877 121.239C128.546 122.139 129.113 122.906 129.539 123.477L129.479 123.475C129.782 123.132 130.022 122.861 130.199 122.663C130.277 122.578 130.34 122.507 130.391 122.453C130.427 122.411 130.451 122.388 130.454 122.388Z" fill="#F5F5F5"/>
<path d="M130.841 119.485C130.841 119.525 127.868 119.556 124.202 119.556C120.533 119.556 117.56 119.525 117.56 119.485C117.56 119.446 120.533 119.415 124.202 119.415C127.868 119.415 130.841 119.446 130.841 119.485Z" fill="#F5F5F5"/>
<path d="M131.441 128.966C131.441 129.006 128.21 129.037 124.223 129.037C120.236 129.037 117.005 129.006 117.005 128.966C117.005 128.926 120.236 128.895 124.223 128.895C128.21 128.895 131.441 128.926 131.441 128.966Z" fill="#F5F5F5"/>
<path d="M18.7713 68.1663H1.80005V84.85H18.7713V68.1663Z" fill="#E0E0E0"/>
<path d="M17.6194 68.1663H0.648132V84.85H17.6194V68.1663Z" fill="#FAFAFA"/>
<path d="M17.6253 84.8559H0.64502V68.1609H17.6283V84.8559H17.6253ZM0.65402 84.8446H17.6163V68.1694H0.65402V84.8446Z" fill="#E0E0E0"/>
<path d="M15.3392 70.4102H2.93103V82.6096H15.3392V70.4102Z" fill="white"/>
<path d="M2.93104 82.6888C2.94004 82.7001 2.82303 82.8274 2.62503 83.0255C2.42703 83.2235 2.14802 83.4895 1.83602 83.7809C1.52402 84.0723 1.23601 84.3297 1.02601 84.5136C0.813005 84.6975 0.678003 84.805 0.666003 84.7966C0.654003 84.7852 0.771004 84.6608 0.972007 84.4627C1.17001 84.2647 1.44901 83.9987 1.76102 83.7073C2.07302 83.4159 2.36103 83.1584 2.57403 82.9746C2.78403 82.785 2.92204 82.6775 2.93104 82.6888Z" fill="#E0E0E0"/>
<path d="M15.3392 82.6577C15.3512 82.6492 15.4862 82.7595 15.6962 82.9463C15.9062 83.133 16.1883 83.3961 16.4973 83.6903C16.8063 83.9846 17.0793 84.2562 17.2743 84.4542C17.4693 84.6551 17.5833 84.7824 17.5743 84.7937C17.5623 84.805 17.4303 84.6947 17.2203 84.508C17.0103 84.3212 16.7283 84.0581 16.4193 83.7611C16.1103 83.4668 15.8372 83.1952 15.6422 82.9944C15.4412 82.7963 15.3272 82.669 15.3392 82.6577Z" fill="#E0E0E0"/>
<path d="M15.3062 70.4412C15.2972 70.4299 15.4142 70.3026 15.6122 70.1045C15.8102 69.9065 16.0892 69.6406 16.4012 69.3492C16.7132 69.0577 17.0012 68.8003 17.2112 68.6164C17.4242 68.4325 17.5592 68.325 17.5712 68.3335C17.5832 68.3448 17.4662 68.4693 17.2652 68.6673C17.0672 68.8654 16.7882 69.1313 16.4732 69.4227C16.1612 69.7141 15.8732 69.9716 15.6602 70.1555C15.4502 70.345 15.3152 70.4525 15.3062 70.4412Z" fill="#E0E0E0"/>
<path d="M2.89806 70.4723C2.88606 70.4808 2.75106 70.3704 2.54106 70.1837C2.33106 69.997 2.04905 69.7339 1.74005 69.4396C1.43104 69.1454 1.15804 68.8738 0.963037 68.6757C0.768034 68.4749 0.654032 68.3476 0.663033 68.3362C0.675033 68.3249 0.807035 68.4353 1.01704 68.622C1.22704 68.8087 1.50904 69.0718 1.81805 69.3689C2.12705 69.6631 2.40006 69.9347 2.59506 70.1356C2.79306 70.3337 2.90706 70.4638 2.89806 70.4723Z" fill="#E0E0E0"/>
<path d="M15.3063 82.6067C15.3063 82.6067 15.3033 82.5869 15.3033 82.5473C15.3033 82.5048 15.3003 82.4483 15.3003 82.3775C15.3003 82.2248 15.2973 82.0041 15.2943 81.7183C15.2913 81.1412 15.2883 80.3009 15.2823 79.2315C15.2763 77.0954 15.2673 74.0512 15.2583 70.4072L15.3063 70.4525C11.6942 70.4553 7.45214 70.4553 2.93408 70.4581L2.98808 70.4072C2.98508 74.8858 2.98208 79.073 2.97908 82.6067L2.93108 82.5614C6.63913 82.5699 9.72617 82.5784 11.8922 82.5841C12.9722 82.5897 13.8242 82.5926 14.4092 82.5954C14.6972 82.5982 14.9192 82.5982 15.0752 82.601C15.1473 82.601 15.2043 82.6039 15.2463 82.6039C15.2853 82.6067 15.3033 82.6067 15.3063 82.6067C15.3063 82.6067 15.2883 82.6095 15.2523 82.6095C15.2103 82.6095 15.1563 82.6095 15.0842 82.6124C14.9312 82.6124 14.7122 82.6152 14.4272 82.618C13.8452 82.6208 12.9992 82.6237 11.9222 82.6293C9.75017 82.635 6.65413 82.6435 2.93108 82.652H2.88308V82.6067C2.88008 79.0759 2.88008 74.8858 2.87708 70.4101V70.3591H2.93108C7.44914 70.362 11.6912 70.3648 15.3033 70.3648H15.3513V70.4101C15.3423 74.0654 15.3333 77.1209 15.3273 79.2626C15.3213 80.3264 15.3183 81.1638 15.3153 81.7381C15.3123 82.0211 15.3123 82.2361 15.3093 82.3888C15.3093 82.4596 15.3063 82.5133 15.3063 82.5529C15.3063 82.5897 15.3063 82.6095 15.3063 82.6067Z" fill="#E0E0E0"/>
<path d="M11.4062 76.5296C11.4062 77.5679 10.5122 78.411 9.41117 78.411C8.31015 78.411 7.41614 77.5679 7.41614 76.5296C7.41614 75.4913 8.31015 74.6482 9.41117 74.6482C10.5122 74.651 11.4062 75.4913 11.4062 76.5296Z" fill="#E0E0E0"/>
<path d="M107.297 21.8357C101.602 21.8357 96.9884 26.187 96.9884 31.5568C96.9884 33.5287 97.6124 35.3621 98.6834 36.8926L97.2014 40.4518L101.089 39.3144C102.817 40.5451 104.966 41.2751 107.297 41.2751C112.991 41.2751 117.605 36.9238 117.605 31.554C117.605 26.1842 112.991 21.8357 107.297 21.8357Z" fill="#FAFAFA"/>
<path d="M109.877 33.3535H108.452C108.452 33.3535 108.452 34.4824 107.207 34.5022C106.562 34.5135 106.226 34.1146 106.088 33.8062C105.929 33.4497 105.977 33.0451 106.19 32.717C106.433 32.3407 106.961 31.9983 107.924 32.1596V29.1267H106.514V30.9034C106.514 30.9034 104.536 31.3844 104.536 33.4412C104.536 35.4075 106.406 35.8658 107.207 35.8658C107.819 35.8658 109.904 35.7272 109.877 33.3535Z" fill="#E8505B"/>
<path d="M106.497 28.5034H107.928V27.2416H106.497V28.5034Z" fill="#E8505B"/>
<path d="M117.689 31.554C117.692 31.554 117.695 31.4974 117.692 31.3843C117.689 31.2598 117.683 31.0957 117.677 30.8835C117.671 30.7732 117.671 30.6487 117.659 30.5157C117.638 30.3799 117.617 30.2328 117.593 30.0743C117.569 29.9131 117.542 29.7433 117.515 29.5594C117.467 29.3784 117.416 29.186 117.365 28.9851C117.146 28.176 116.768 27.1971 116.075 26.1955C115.394 25.194 114.419 24.1557 113.096 23.3126C111.77 22.4836 110.105 21.8471 108.233 21.6773C107.765 21.6603 107.288 21.6066 106.802 21.649C106.559 21.666 106.313 21.6603 106.07 21.6943C105.827 21.7282 105.581 21.765 105.335 21.799C104.357 21.9885 103.358 22.2601 102.424 22.7354C101.491 23.1994 100.6 23.7964 99.8085 24.5263C99.0314 25.2704 98.3594 26.1389 97.8404 27.1093C97.3184 28.0741 96.9554 29.1435 96.8174 30.2554C96.7604 30.5298 96.7604 30.8128 96.7424 31.0957C96.7214 31.3786 96.7124 31.6615 96.7274 31.9444C96.7514 32.5131 96.8264 33.0818 96.9554 33.6448C97.2314 34.867 97.7594 36.0185 98.4644 37.0285L98.4524 36.9266C97.9544 38.1008 97.4624 39.2494 96.9854 40.3726L96.8984 40.5763L97.1234 40.5169C98.4644 40.1689 99.7695 39.8322 101.029 39.504L100.933 39.4871C102.295 40.4546 103.853 41.0714 105.398 41.326C106.169 41.4533 106.94 41.5071 107.684 41.459C108.056 41.4449 108.425 41.4279 108.782 41.36C108.962 41.3345 109.139 41.3091 109.316 41.2808C109.493 41.2496 109.661 41.1987 109.832 41.1591C112.583 40.4942 114.614 38.8958 115.775 37.3142C116.366 36.5221 116.792 35.7412 117.056 35.0254C117.125 34.8472 117.188 34.6746 117.251 34.5105C117.296 34.3408 117.341 34.1767 117.383 34.0211C117.425 33.8655 117.464 33.7155 117.5 33.574C117.53 33.4298 117.545 33.2911 117.566 33.161C117.602 32.9007 117.65 32.6715 117.659 32.4707C117.665 32.2726 117.671 32.1057 117.677 31.9642C117.68 31.8369 117.683 31.7351 117.683 31.6559C117.692 31.5908 117.692 31.554 117.689 31.554C117.686 31.554 117.68 31.588 117.674 31.6587C117.668 31.7379 117.659 31.8398 117.647 31.9671C117.638 32.1057 117.626 32.2726 117.611 32.4707C117.596 32.6687 117.542 32.895 117.5 33.1553C117.302 34.1682 116.873 35.6903 115.67 37.2435C114.506 38.7939 112.496 40.3528 109.793 40.9922C109.625 41.029 109.457 41.0799 109.283 41.1082C109.109 41.1336 108.935 41.1563 108.758 41.1817C108.407 41.244 108.047 41.261 107.678 41.2723C106.946 41.3175 106.193 41.261 105.437 41.1336C103.925 40.879 102.401 40.2707 101.068 39.3201L101.023 39.289L100.969 39.3032C99.7065 39.6285 98.4014 39.9624 97.0604 40.3075L97.1984 40.4546C97.6784 39.3315 98.1674 38.1828 98.6684 37.0087L98.6924 36.9549L98.6594 36.9068C97.9694 35.9194 97.4534 34.7934 97.1834 33.5995C97.0574 33.0507 96.9854 32.4933 96.9614 31.9388C96.9464 31.6615 96.9584 31.3843 96.9764 31.1098C96.9944 30.8354 96.9944 30.5581 97.0484 30.2894C97.1834 29.2001 97.5374 28.1562 98.0474 27.2112C98.5544 26.2634 99.2085 25.4118 99.9675 24.6819C100.741 23.9661 101.608 23.3776 102.523 22.9221C103.436 22.4553 104.414 22.1837 105.371 21.9942C105.614 21.9602 105.854 21.9234 106.091 21.8895C106.331 21.8555 106.571 21.8612 106.808 21.8442C107.282 21.799 107.75 21.8499 108.212 21.864C110.051 22.0225 111.692 22.6392 113 23.4455C114.308 24.266 115.277 25.2845 115.961 26.2663C116.654 27.248 117.041 28.2127 117.272 29.0106C117.329 29.2114 117.383 29.401 117.431 29.5792C117.464 29.7603 117.491 29.9301 117.521 30.0885C117.548 30.2469 117.575 30.3912 117.596 30.5242C117.611 30.6572 117.614 30.7816 117.626 30.8891C117.641 31.0985 117.656 31.2626 117.665 31.3871C117.677 31.4974 117.683 31.554 117.689 31.554Z" fill="#263238"/>
<path d="M65.872 86.2563C65.695 86.8052 64.9029 111.447 69.742 130.873L93.8234 130.924C94.1444 117.646 99.5234 96.9931 91.7383 85.5745L65.872 86.2563Z" fill="#263238"/>
<path d="M90.1843 39.2693C90.9793 41.9966 92.1823 44.1836 93.3524 45.2785C94.5254 46.3762 95.7794 47.6607 95.7374 49.2167C95.7194 49.8278 95.5034 50.4757 95.7884 51.0274C96.1574 51.7432 97.1354 51.896 97.8704 52.2864C98.9564 52.8607 99.5624 54.0801 99.5174 55.2542C99.4724 56.4283 98.8484 57.5374 97.9694 58.372C97.0574 59.2377 95.6114 59.8432 94.4774 59.2547C93.7934 58.8982 93.4034 58.2022 93.0583 57.5402C91.2733 54.114 89.6533 50.6115 88.2073 47.0439" fill="#263238"/>
<path d="M82.8762 27.5931C80.8662 25.4882 77.4311 24.7215 74.6351 25.7513C71.839 26.7811 69.862 29.5396 69.892 32.3716C69.913 34.1964 70.669 36.1118 69.904 37.7895C69.364 38.9749 68.11 39.8718 67.939 41.1534C67.738 42.6416 69.088 43.9883 69.016 45.4849C68.971 46.461 68.32 47.3267 67.573 48.0029C66.826 48.6819 65.956 49.2392 65.272 49.9748C63.3669 52.0175 63.2439 55.2399 64.6839 57.5967C66.124 59.9534 68.905 61.4302 71.77 61.7499C74.6351 62.0696 77.5541 61.3255 80.0862 60.0269C81.7362 59.181 83.2872 58.0663 84.2712 56.5555C85.2522 55.0447 85.5882 53.0869 84.8142 51.4743" fill="#263238"/>
<path d="M73.7891 26.4953C73.7921 26.5236 74.2841 26.4472 75.0701 26.5518C75.8591 26.6424 76.9031 26.9677 78.0551 27.3384C79.2101 27.7062 80.3202 27.907 81.1302 27.8504C81.5322 27.8278 81.8532 27.7627 82.0662 27.6948C82.2792 27.6298 82.3932 27.576 82.3902 27.5704C82.3812 27.5421 81.9192 27.7345 81.1272 27.7543C80.3352 27.7854 79.2521 27.576 78.1031 27.2082C76.9541 26.8404 75.8891 26.5236 75.0851 26.4557C74.6861 26.416 74.3591 26.4189 74.1341 26.4415C73.9091 26.4613 73.7891 26.4868 73.7891 26.4953Z" fill="#455A64"/>
<path d="M98.0264 60.1967C98.0024 59.8431 97.9514 59.4951 97.8794 59.1556C97.2734 56.3122 95.1344 53.9725 92.3023 52.8436L85.0602 49.9607L76.7801 50.1616C76.7801 50.1616 70.627 52.8125 69.388 54.1932C69.295 54.2978 68.47 55.0646 68.413 55.3644L62.1849 72.8036L54.2168 77.4859L56.4008 80.1142L68.143 79.0646L69.568 76.8833C68.788 78.5299 65.692 85.1954 65.692 87.2381C65.692 87.2381 83.8152 90.8962 91.0303 90.2116C94.2074 89.9117 94.9574 89.6316 94.9574 89.6316L92.8394 82.1456C94.5974 82.0324 96.3884 81.0167 97.1114 79.5936C98.3444 77.1464 98.2514 63.4899 98.0264 60.1967Z" fill="#E84126"/>
<path d="M41.4546 62.7969H40.2096L41.9196 78.0207L56.6798 77.0617L55.0148 63.9568L41.4546 62.7969Z" fill="#E0E0E0"/>
<path d="M41.4546 62.0442L42.7626 77.4859L71.902 76.6004L68.314 62.0442L55.2098 63.2353L41.4546 62.0442Z" fill="#FAFAFA"/>
<path d="M41.4546 62.0443C41.4546 62.0443 41.5326 62.0471 41.6916 62.0584C41.8566 62.0726 42.0906 62.0895 42.3966 62.115C43.0236 62.1659 43.9416 62.2423 45.1236 62.3385C47.5087 62.5394 50.9527 62.8251 55.2158 63.1816H55.2038C58.9328 62.8393 63.3879 62.429 68.305 61.9764L68.368 61.9707L68.383 62.0273C69.487 66.4974 70.702 71.4174 71.98 76.5835L72.001 76.6712L71.905 76.674C71.47 76.6882 71.002 76.7023 70.528 76.7164C59.9499 77.0305 50.2387 77.3191 42.7626 77.5426L42.7056 77.5454L42.7026 77.4916C42.3156 72.7499 42.0006 68.8852 41.7816 66.1975C41.6766 64.865 41.5926 63.8267 41.5356 63.1165C41.5086 62.7685 41.4876 62.4998 41.4756 62.3159C41.4576 62.1348 41.4546 62.0443 41.4546 62.0443C41.4546 62.0443 41.4666 62.1405 41.4846 62.3244C41.5026 62.5111 41.5266 62.7827 41.5596 63.1363C41.6226 63.8493 41.7156 64.8933 41.8356 66.2315C42.0696 68.9079 42.4086 72.7584 42.8196 77.4803L42.7566 77.4266C50.2357 77.1946 59.9439 76.8947 70.522 76.5693C70.993 76.5552 71.464 76.541 71.899 76.5269L71.827 76.6174C70.555 71.4513 69.343 66.5314 68.242 62.0584L68.32 62.1093C63.4029 62.5507 58.9478 62.9524 55.2158 63.2863H55.2098H55.2038C50.9617 62.9072 47.5297 62.5988 45.1566 62.3866C43.9686 62.2791 43.0476 62.1942 42.4176 62.1348C42.1056 62.1065 41.8686 62.0839 41.7006 62.0669C41.5416 62.0556 41.4546 62.0443 41.4546 62.0443Z" fill="#263238"/>
<path d="M57.5858 76.8466C57.5798 76.8466 57.5648 76.8013 57.5408 76.7136C57.5138 76.6089 57.4778 76.4816 57.4388 76.3288C57.3518 75.9921 57.2348 75.5055 57.0968 74.9029C56.8208 73.6977 56.4698 72.0228 56.1428 70.164C55.8158 68.3052 55.5698 66.6162 55.4168 65.3883C55.3388 64.7744 55.2848 64.2793 55.2518 63.9341C55.2368 63.7757 55.2278 63.6456 55.2158 63.538C55.2098 63.4475 55.2098 63.3994 55.2128 63.3994C55.2188 63.3994 55.2278 63.4447 55.2458 63.5352C55.2638 63.6427 55.2848 63.7729 55.3088 63.9285C55.3628 64.2934 55.4348 64.7801 55.5248 65.3742C55.7048 66.5964 55.9688 68.2826 56.2958 70.1385C56.6228 71.9945 56.9558 73.6694 57.2048 74.8803C57.3248 75.4687 57.4238 75.9525 57.4988 76.3147C57.5288 76.4703 57.5528 76.6004 57.5738 76.7051C57.5858 76.7985 57.5918 76.8466 57.5858 76.8466Z" fill="#263238"/>
<path d="M49.9358 67.3037L50.2178 72.6877L48.8977 72.7499L48.6667 68.3647L47.5237 68.4184L47.4697 67.4197L49.9358 67.3037Z" fill="#E8505B"/>
<path d="M65.7309 71.061L65.8389 72.0738L61.5399 72.4812L61.4529 71.6777L63.4389 69.5162C63.8949 69.0155 63.9549 68.7326 63.9279 68.4723C63.8829 68.0507 63.5469 67.8357 62.9469 67.8923C62.4579 67.9375 62.0649 68.1554 61.8249 68.5402L60.8049 68.0479C61.1799 67.4 61.9329 66.9332 62.9589 66.837C64.2279 66.7182 65.1369 67.2501 65.2389 68.2233C65.2929 68.7439 65.1909 69.2333 64.4679 70.0057L63.2829 71.2958L65.7309 71.061Z" fill="#E8505B"/>
<path d="M53.5508 80.5301L50.8627 78.6628L51.0097 74.4077C51.0097 74.4077 52.0717 74.6114 52.1798 75.6073C52.2878 76.6032 52.3808 77.5453 52.3808 77.5453L53.2298 77.7858L53.1128 77.2341L55.1768 74.4615C55.1768 74.4615 55.9598 75.0075 55.6298 75.729C56.0048 75.3838 56.6018 75.6695 56.5388 75.9892L56.6828 75.2338C56.6828 75.2338 57.6218 74.9707 57.5798 75.8676C57.5408 76.7163 57.4688 76.9342 57.4688 76.9342L60.7479 76.9257C60.7479 76.9257 59.8029 78.4365 59.2569 78.8467C58.7108 79.2598 53.7278 80.5273 53.7278 80.5273" fill="#FFBE9D"/>
<path d="M53.8028 79.7153C53.7668 79.7323 53.4758 79.223 53.2838 78.5412C53.0888 77.8565 53.0708 77.2822 53.1098 77.2793C53.1548 77.2737 53.2418 77.8339 53.4338 78.5044C53.6228 79.1721 53.8448 79.6983 53.8028 79.7153Z" fill="#EB996E"/>
<path d="M54.8948 79.0618C54.8528 79.0675 54.7088 78.3262 54.5678 77.3869L54.5648 77.3615L54.5768 77.3388C54.5918 77.3134 54.6098 77.2851 54.6248 77.2568C55.1438 76.3939 55.5968 75.7121 55.6328 75.7319C55.6718 75.7517 55.2788 76.4675 54.7598 77.3304C54.7418 77.3586 54.7268 77.3869 54.7118 77.4124L54.7208 77.3671C54.8588 78.3064 54.9338 79.0562 54.8948 79.0618Z" fill="#EB996E"/>
<path d="M56.2298 78.5695C56.1968 78.5724 56.1428 78.1536 56.1008 77.5652V77.5567L56.1038 77.5454C56.1398 77.3841 56.1788 77.2172 56.2178 77.0446C56.4128 76.2241 56.6048 75.5678 56.6468 75.5763C56.6888 75.5847 56.5658 76.2581 56.3708 77.0757C56.3288 77.2483 56.2868 77.4124 56.2478 77.5737L56.2508 77.5539C56.2718 78.148 56.2658 78.5695 56.2298 78.5695Z" fill="#EB996E"/>
<path d="M86.5483 29.9299L86.5603 31.319L86.8723 52.0966C86.9083 54.5099 84.7392 56.4592 82.0002 56.4762C79.2342 56.4932 76.9301 54.5325 76.8491 52.0966C76.7651 49.539 76.6301 46.8485 76.6301 46.8485C76.6301 46.8485 73.1201 46.393 72.2711 42.1124C71.8481 39.9848 71.8601 36.4767 71.9681 33.6079C72.0641 31.0248 74.4191 29.0387 77.1521 29.2396L86.5483 29.9299Z" fill="#FFBE9D"/>
<path d="M73.6721 36.7115C73.6691 37.003 73.9301 37.2463 74.2511 37.2519C74.5721 37.2604 74.8361 37.0312 74.8391 36.7398C74.8421 36.4484 74.5811 36.2051 74.2601 36.1966C73.9391 36.191 73.6751 36.4201 73.6721 36.7115Z" fill="#263238"/>
<path d="M72.8261 35.4102C72.9011 35.4809 73.3331 35.1584 73.9631 35.1442C74.5901 35.1216 75.0611 35.413 75.1271 35.3394C75.1601 35.3055 75.0821 35.1782 74.8781 35.0452C74.6771 34.9122 74.3351 34.7877 73.9421 34.7991C73.5491 34.8104 73.2251 34.9547 73.0391 35.099C72.8501 35.2489 72.7901 35.379 72.8261 35.4102Z" fill="#263238"/>
<path d="M79.8762 36.7115C79.8732 37.003 80.1342 37.2463 80.4552 37.2519C80.7762 37.2604 81.0402 37.0312 81.0432 36.7398C81.0462 36.4484 80.7852 36.2051 80.4642 36.1966C80.1402 36.191 79.8762 36.4201 79.8762 36.7115Z" fill="#263238"/>
<path d="M79.0122 35.3591C79.0872 35.4299 79.5222 35.1073 80.1492 35.0932C80.7762 35.0706 81.2472 35.362 81.3132 35.2884C81.3462 35.2545 81.2682 35.1271 81.0642 34.9942C80.8632 34.8612 80.5212 34.7367 80.1282 34.748C79.7352 34.7593 79.4112 34.9036 79.2252 35.0479C79.0362 35.1979 78.9732 35.328 79.0122 35.3591Z" fill="#263238"/>
<path d="M76.8581 39.8178C76.8611 39.7839 76.4681 39.7301 75.8321 39.6707C75.6701 39.6594 75.5171 39.6339 75.4871 39.5292C75.4451 39.4217 75.5081 39.2548 75.5801 39.0766C75.7211 38.706 75.8681 38.3184 76.0211 37.9109C76.6331 36.253 77.0711 34.8894 76.9991 34.8667C76.9271 34.8441 76.3751 36.171 75.7631 37.8289C75.6161 38.2391 75.4751 38.6267 75.3431 39.0002C75.2861 39.1728 75.1871 39.3708 75.2771 39.5971C75.3251 39.7103 75.4451 39.7895 75.5471 39.8122C75.6521 39.8405 75.7421 39.8376 75.8201 39.8405C76.4591 39.8603 76.8551 39.8518 76.8581 39.8178Z" fill="#263238"/>
<path d="M76.6271 46.8485C76.6271 46.8485 79.6992 46.956 82.6872 45.1538C82.6872 45.1538 81.2922 48.1443 76.7201 47.8613L76.6271 46.8485Z" fill="#EB996E"/>
<path d="M77.1641 41.241C77.3831 40.9524 77.7731 40.7883 78.1691 40.8166C78.4421 40.8364 78.7212 40.9553 78.8952 41.159C79.0662 41.3655 79.1112 41.6597 78.9672 41.8634C78.8051 42.0926 78.4511 42.1548 78.1481 42.0813C77.8451 42.0077 77.5811 41.8295 77.3321 41.6484C77.2631 41.5975 77.1911 41.5466 77.1461 41.4787C77.1011 41.4108 77.0891 41.3174 77.1401 41.258" fill="#EB996E"/>
<path d="M78.7211 40.18C78.6191 40.1771 78.6371 40.8222 78.0641 41.2918C77.4941 41.7643 76.7651 41.7134 76.7621 41.8011C76.7531 41.8407 76.9271 41.9227 77.2361 41.9227C77.5391 41.9256 77.9741 41.8209 78.3251 41.5323C78.6731 41.2437 78.8171 40.8646 78.8321 40.6015C78.8471 40.3327 78.7661 40.1771 78.7211 40.18Z" fill="#263238"/>
<path d="M78.7812 33.0392C78.8472 33.1976 79.4742 33.1071 80.2152 33.1693C80.9562 33.2203 81.5592 33.407 81.6522 33.2599C81.6942 33.1892 81.5862 33.0392 81.3402 32.8893C81.0972 32.7393 80.7132 32.6007 80.2692 32.5667C79.8252 32.5328 79.4202 32.6092 79.1562 32.7195C78.8832 32.8355 78.7512 32.9656 78.7812 33.0392Z" fill="#263238"/>
<path d="M73.0061 33.6871C73.1201 33.82 73.5491 33.6673 74.0711 33.6474C74.5901 33.6107 75.0371 33.7125 75.1331 33.5682C75.1751 33.4975 75.1031 33.3645 74.9051 33.2429C74.7101 33.1212 74.3921 33.025 74.0321 33.0448C73.6751 33.0646 73.3691 33.1948 73.1921 33.3391C73.0121 33.4834 72.9551 33.6248 73.0061 33.6871Z" fill="#263238"/>
<path d="M80.8152 28.5692C79.5972 30.0969 80.8662 32.2584 82.2672 33.6362C83.6713 35.0141 85.3813 36.6154 84.9973 38.4911C84.5533 40.6668 81.3972 42.0587 81.8682 44.2316C82.0392 45.0237 82.7023 45.6999 82.7053 46.5091C82.7113 47.9689 80.7072 48.6762 80.1312 50.0314C79.3422 51.8874 81.5142 53.7376 81.5472 55.7379C81.5652 56.8724 80.8842 57.9333 80.8482 59.0678C80.7732 61.3934 83.6893 63.0966 86.0833 62.5251C88.4743 61.9536 90.1124 59.7525 90.6344 57.4778C91.1564 55.2032 90.3644 52.0062 89.9804 49.7089L94.1234 50.6142C94.8944 49.9211 93.8414 49.1826 93.6674 48.1896C93.2324 45.7027 91.4984 43.5978 90.6734 41.1987C89.9534 39.1022 89.9474 36.8587 89.6323 34.6746C89.3173 32.4904 88.6003 30.2158 86.8303 28.7757C85.0633 27.3356 82.0002 27.1574 80.5722 28.9002" fill="#263238"/>
<path d="M83.5032 68.4042L82.2432 66.7887L83.9562 63.1786L84.5592 54.7505C84.5592 54.7505 83.3172 54.4393 83.1912 55.7662C83.1162 56.5442 83.0502 57.2402 83.0502 57.2402L81.6402 56.813L79.6362 57.3703C79.6362 57.3703 79.7261 58.3322 80.5332 58.1427C81.3402 57.9531 81.9942 58.0012 81.9942 58.0012L82.7622 59.0678V59.4469L81.7422 58.7623H79.7261L78.4781 59.7949C78.4781 59.7949 78.8981 60.737 79.5551 60.4513C79.5551 60.4513 78.4661 63.2296 78.3671 63.7501C78.3671 63.7501 77.2601 66.4577 78.3671 68.025C79.4741 69.5924 80.9622 70.8769 80.9622 70.8769L83.5032 68.4042Z" fill="#FFBE9D"/>
<path d="M84.0072 60.1685C83.9892 60.1571 84.1302 60.0185 84.0912 59.7497C84.0552 59.4894 83.8302 59.1471 83.6532 58.751C83.2782 57.9645 83.0022 57.3166 83.0442 57.2997C83.0832 57.2827 83.4192 57.9051 83.7972 58.6916C83.8872 58.884 83.9742 59.0679 84.0582 59.2461C84.1362 59.4187 84.1992 59.5885 84.2052 59.7412C84.2112 59.894 84.1632 60.0128 84.1122 60.0836C84.0582 60.1543 84.0132 60.1769 84.0072 60.1685Z" fill="#EB996E"/>
<path d="M83.4792 59.9504C83.4552 59.9844 83.0382 59.7496 82.5552 59.4242C82.0722 59.1017 81.7002 58.7989 81.7392 58.7565C81.7602 58.7367 82.1622 58.9772 82.6482 59.3025C83.1312 59.6307 83.5062 59.9193 83.4792 59.9504Z" fill="#EB996E"/>
<path d="M82.5762 61.5405C82.5642 61.5518 82.3782 61.399 82.1532 61.0906C82.0422 60.935 81.9252 60.7426 81.8232 60.5135C81.7722 60.4003 81.7242 60.273 81.6852 60.1513C81.6642 60.0947 81.6372 60.0523 81.5982 60.0353C81.5562 60.0155 81.4812 60.0099 81.4062 59.9986C80.9952 59.9476 80.6052 59.8826 80.2932 59.8514L80.3142 59.8486C80.2122 59.8882 80.1042 60.0014 80.0202 60.0778C79.9332 60.1598 79.8552 60.2362 79.7892 60.2928C79.6601 60.4116 79.5582 60.4569 79.5522 60.4427C79.5462 60.4314 79.6212 60.3748 79.7352 60.2419C79.8012 60.1655 79.8702 60.0891 79.9422 60.007C80.0322 59.9193 80.0982 59.809 80.2812 59.7269L80.2872 59.7241H80.3022C80.6412 59.7411 81.0192 59.7977 81.4332 59.8486C81.5052 59.8599 81.5802 59.8599 81.6702 59.8995C81.7662 59.942 81.8112 60.0325 81.8322 60.0976C81.8742 60.2305 81.9132 60.3437 81.9582 60.4569C82.0482 60.6804 82.1532 60.8728 82.2492 61.0284C82.4412 61.3509 82.5972 61.5263 82.5762 61.5405Z" fill="#EB996E"/>
<path d="M80.7042 61.7867C80.6622 61.7782 80.7162 61.3595 80.8242 60.8531C80.9322 60.3467 81.0552 59.9421 81.0972 59.9506C81.1392 59.9591 81.0852 60.375 80.9772 60.8842C80.8662 61.3906 80.7462 61.7952 80.7042 61.7867Z" fill="#EB996E"/>
<path d="M82.2192 63.3654C82.2012 63.3625 82.2702 63.2579 82.1802 63.0966C82.1382 63.0202 82.0542 62.9382 81.9372 62.8872C81.8202 62.8363 81.6642 62.8363 81.5052 62.8844C81.3432 62.9297 81.1812 63.023 81.0102 63.1306C80.8362 63.2381 80.6472 63.3654 80.4012 63.4248C80.1582 63.4814 79.8432 63.4361 79.6602 63.2013C79.5702 63.0825 79.5582 62.9212 79.6062 62.7882C79.6512 62.6524 79.7352 62.5421 79.8252 62.4402C80.1882 62.0498 80.5662 61.7188 80.9562 61.4528C81.1542 61.3255 81.3732 61.2265 81.5982 61.2067C81.8232 61.1869 82.0302 61.252 82.1892 61.3368C82.5132 61.5123 82.6812 61.7527 82.7952 61.9027C82.9062 62.0583 82.9572 62.1517 82.9482 62.1573C82.9392 62.163 82.8702 62.0809 82.7472 61.9366C82.6212 61.798 82.4412 61.5773 82.1382 61.4274C81.9882 61.3538 81.8052 61.3057 81.6132 61.3284C81.4212 61.3482 81.2262 61.4387 81.0402 61.5632C80.6742 61.8206 80.2962 62.1573 79.9482 62.5336C79.7802 62.7147 79.6662 62.9495 79.7922 63.1192C79.9122 63.2833 80.1732 63.3399 80.3712 63.2918C80.7942 63.1871 81.1092 62.8589 81.4782 62.7797C81.6582 62.7345 81.8412 62.7401 81.9792 62.808C82.1142 62.8759 82.1982 62.9749 82.2402 63.0683C82.3182 63.2664 82.2192 63.3739 82.2192 63.3654Z" fill="#EB996E"/>
<path d="M95.3654 80.9742C95.3654 80.9742 95.2844 81.0789 95.0924 81.2486C94.9034 81.4156 94.5913 81.6447 94.1353 81.8286C93.6823 82.0182 93.0793 82.1653 92.3713 82.1709C91.6633 82.1851 90.8563 82.0323 90.0403 81.6985C89.2213 81.3675 88.3993 80.861 87.5863 80.2528C86.7762 79.636 85.9302 78.9598 85.0602 78.2214C84.1932 77.483 83.3172 76.6625 82.5132 75.7261C81.7092 74.7924 80.9892 73.7456 80.3111 72.6422C80.1701 72.4074 80.0321 72.1754 79.8911 71.9434L79.8641 71.8953L79.9061 71.8557C81.5322 70.2742 83.0832 68.7662 84.5082 67.3799L84.5472 67.3403L84.5952 67.3686C87.6103 69.1227 90.1273 70.6844 91.9213 71.7652C92.8123 72.2999 93.5203 72.7271 94.0153 73.027C94.2523 73.1713 94.4383 73.2816 94.5704 73.3637C94.6274 73.4005 94.6754 73.4287 94.7114 73.4514C94.7414 73.4712 94.7594 73.4825 94.7564 73.4853C94.7564 73.4882 94.7383 73.4797 94.7053 73.4627C94.6663 73.4429 94.6183 73.4146 94.5583 73.3835C94.4203 73.3071 94.2313 73.1996 93.9913 73.0666C93.4963 72.7865 92.7763 72.3706 91.8733 71.8387C90.0643 70.7778 87.5352 69.2331 84.5172 67.4874L84.6072 67.4761C83.1852 68.8653 81.6372 70.3761 80.0141 71.9604L80.0261 71.8727C80.1641 72.1019 80.3051 72.3367 80.4432 72.5687C81.1182 73.6664 81.8322 74.7075 82.6272 75.6327C83.4222 76.5635 84.2892 77.3783 85.1502 78.1167C86.8932 79.5653 88.4593 80.9374 90.0793 81.5995C90.8803 81.9361 91.6693 82.0917 92.3653 82.0861C93.0613 82.0889 93.6553 81.9531 94.1083 81.7749C94.5613 81.5995 94.8764 81.3844 95.0684 81.2232C95.2694 81.0676 95.3594 80.9685 95.3654 80.9742Z" fill="#263238"/>
<path d="M90.4183 63.0372C90.4303 63.0428 90.4213 63.1447 90.4183 63.3399C90.4123 63.5662 90.4033 63.8407 90.3943 64.1604C90.3673 64.8903 90.3343 65.8296 90.2953 66.8707C90.2503 67.9288 90.2053 68.8879 90.1663 69.5811C90.1453 69.9008 90.1273 70.1752 90.1123 70.4015C90.0973 70.5939 90.0823 70.7014 90.0703 70.7014C90.0583 70.7014 90.0523 70.5939 90.0523 70.3987C90.0493 70.2035 90.0523 69.9234 90.0583 69.5754C90.0703 68.8823 90.0973 67.9232 90.1423 66.8622C90.1873 65.8041 90.2383 64.845 90.2863 64.1519C90.3283 63.4644 90.3883 63.0315 90.4183 63.0372Z" fill="#263238"/>
<path d="M94.2164 55.5908C94.2254 55.6163 93.8924 55.7209 93.4094 55.9897C93.1664 56.1198 92.8964 56.3037 92.6143 56.5273C92.3383 56.7564 92.0533 57.0308 91.7953 57.3505C91.5403 57.6731 91.3363 58.0041 91.1773 58.3181C91.0243 58.635 90.9133 58.9321 90.8443 59.1867C90.7033 59.6988 90.6853 60.0298 90.6553 60.027C90.6433 60.027 90.6433 59.9449 90.6463 59.7921C90.6493 59.6422 90.6763 59.4243 90.7363 59.1612C90.7933 58.8953 90.8983 58.5897 91.0453 58.2615C91.2013 57.9362 91.4083 57.591 91.6693 57.26C91.9363 56.9318 92.2333 56.6517 92.5213 56.4226C92.8154 56.1991 93.1004 56.0208 93.3554 55.8963C93.6074 55.7719 93.8234 55.687 93.9764 55.6445C94.1264 55.6021 94.2104 55.5795 94.2164 55.5908Z" fill="#263238"/>
<path d="M70.801 71.355C70.792 71.3579 70.714 71.1994 70.582 70.908C70.453 70.6166 70.27 70.1922 70.063 69.6604C69.664 68.6022 69.115 67.0886 69.106 65.3374C69.097 64.9017 69.154 64.4773 69.217 64.0727C69.292 63.6681 69.4 63.2862 69.508 62.9269C69.73 62.2083 69.94 61.566 70.054 61.0172C70.168 60.4655 70.186 60.01 70.165 59.6988C70.147 59.3847 70.102 59.215 70.117 59.2122C70.123 59.2122 70.135 59.2518 70.156 59.3338C70.177 59.4159 70.207 59.5347 70.225 59.6931C70.267 60.01 70.264 60.474 70.162 61.037C70.06 61.5972 69.856 62.2479 69.646 62.9665C69.541 63.3258 69.439 63.7049 69.367 64.101C69.307 64.4999 69.253 64.913 69.262 65.343C69.268 67.0603 69.793 68.5655 70.168 69.6292C70.36 70.164 70.528 70.5912 70.639 70.8911C70.753 71.1853 70.81 71.3522 70.801 71.355Z" fill="#263238"/>
<path d="M85.4862 82.8501C85.4892 82.8557 85.4412 82.8755 85.3542 82.9066C85.2462 82.9434 85.1172 82.9887 84.9642 83.0424C84.6252 83.1584 84.1242 83.3056 83.5002 83.4668C82.8762 83.6309 82.1232 83.7894 81.2802 83.9336C80.4372 84.0694 79.5012 84.1854 78.5171 84.2477C77.5301 84.3071 76.5881 84.3099 75.7331 84.2816C74.8781 84.2449 74.1101 84.1798 73.4681 84.0977C72.8261 84.0157 72.3101 83.9336 71.9561 83.8601C71.794 83.8261 71.659 83.7978 71.548 83.7752C71.455 83.7554 71.407 83.7413 71.407 83.7356C71.407 83.7299 71.458 83.7356 71.554 83.7469C71.665 83.7639 71.803 83.7809 71.9651 83.8035C72.3221 83.8601 72.8381 83.928 73.4771 83.9959C74.1161 84.0666 74.8841 84.1204 75.7331 84.1487C76.5851 84.1713 77.5211 84.1628 78.5021 84.1034C79.4832 84.0383 80.4132 83.928 81.2532 83.8007C82.0932 83.6649 82.8432 83.5178 83.4672 83.3678C84.0912 83.2207 84.5952 83.0905 84.9402 82.9887C85.0992 82.9463 85.2312 82.9095 85.3392 82.8812C85.4352 82.8557 85.4862 82.8444 85.4862 82.8501Z" fill="#263238"/>
<path d="M69.742 76.5098C69.751 76.5126 69.715 76.6711 69.616 76.9427C69.517 77.2143 69.364 77.6075 69.169 78.0885C68.779 79.0533 68.233 80.3773 67.654 81.8513C67.072 83.3253 66.5769 84.6692 66.2379 85.6481C66.0789 86.1206 65.9469 86.511 65.8479 86.8109C65.7579 87.0853 65.7009 87.2381 65.6919 87.2353C65.6829 87.2324 65.7159 87.0768 65.7909 86.7967C65.8599 86.5167 65.9829 86.1149 66.1329 85.6198C66.4449 84.6296 66.925 83.2772 67.507 81.8032C68.086 80.3264 68.653 79.0052 69.067 78.0517C69.268 77.5934 69.433 77.2143 69.562 76.9229C69.676 76.6541 69.73 76.507 69.742 76.5098Z" fill="#263238"/>
<path d="M90.7333 130.819C90.7303 130.819 90.7273 130.785 90.7243 130.714C90.7213 130.638 90.7183 130.536 90.7123 130.409C90.7063 130.131 90.6943 129.738 90.6823 129.237C90.6643 128.219 90.6523 126.745 90.6553 124.926C90.6553 121.285 90.7093 116.257 90.6613 110.703C90.6013 105.15 90.4213 100.122 90.0613 96.498C89.9653 95.5926 89.8993 94.7722 89.7883 94.0564C89.7403 93.6999 89.6953 93.3661 89.6533 93.0577C89.6323 92.9049 89.6143 92.7578 89.5933 92.6163C89.5693 92.4777 89.5423 92.3447 89.5213 92.2203C89.4313 91.7251 89.3623 91.3376 89.3143 91.0659C89.2933 90.9386 89.2783 90.8396 89.2633 90.7661C89.2543 90.6982 89.2483 90.6642 89.2513 90.6614C89.2543 90.6614 89.2633 90.6953 89.2783 90.7632C89.2933 90.8368 89.3173 90.9358 89.3443 91.0631C89.4013 91.3347 89.4793 91.7223 89.5813 92.2146C89.6053 92.3391 89.6323 92.4721 89.6623 92.6107C89.6833 92.7521 89.7043 92.8964 89.7283 93.052C89.7733 93.3604 89.8243 93.6914 89.8753 94.0507C89.9953 94.7665 90.0673 95.587 90.1693 96.4923C90.5593 100.117 90.7573 105.15 90.8173 110.706C90.8623 116.26 90.7903 121.29 90.7633 124.931C90.7543 126.745 90.7483 128.216 90.7423 129.243C90.7423 129.747 90.7423 130.137 90.7423 130.414C90.7393 130.542 90.7393 130.643 90.7393 130.72C90.7363 130.785 90.7363 130.819 90.7333 130.819Z" fill="#455A64"/>
<path d="M87.3733 29.5339C87.2383 28.7983 87.7363 28.0344 88.4533 27.7175C89.1673 27.4007 90.0403 27.494 90.7333 27.8533C91.5974 28.3032 92.2034 29.1661 92.3114 30.0912C92.4194 31.0164 92.0234 31.9811 91.2824 32.5979C90.8623 32.9487 90.3133 33.192 89.7523 33.1665C89.2573 33.1439 88.8043 32.9176 88.3423 32.7507C87.8803 32.5837 87.3463 32.4734 86.8993 32.6771" fill="#263238"/>
<path d="M89.4193 33.1495C89.3683 33.1609 89.2123 32.1424 88.5913 31.0446C87.9822 29.9384 87.1842 29.2396 87.2232 29.2057C87.2352 29.1943 87.4512 29.3499 87.7482 29.6527C88.0453 29.9554 88.4173 30.4137 88.7293 30.9739C89.0413 31.5341 89.2303 32.0829 89.3263 32.4847C89.4223 32.8921 89.4373 33.1467 89.4193 33.1495Z" fill="#E8505B"/>
<path d="M88.6813 31.3898C88.6873 31.3983 88.5703 31.4718 88.3513 31.5991C88.1263 31.7151 87.7963 31.8821 87.3613 32.0235C86.5002 32.3177 85.2042 32.5384 83.8092 32.3064C83.1162 32.1904 82.4712 31.9896 81.9282 31.7236C81.3822 31.4605 80.9472 31.1069 80.7012 30.7306C80.4492 30.3571 80.3772 29.9893 80.3802 29.746C80.3802 29.6244 80.3982 29.5282 80.4102 29.4659C80.4282 29.4037 80.4402 29.3726 80.4432 29.3726C80.4582 29.3754 80.4222 29.5055 80.4402 29.7432C80.4552 29.978 80.5422 30.3232 80.7942 30.6712C81.2862 31.3898 82.4892 31.933 83.8392 32.1593C85.2042 32.3856 86.4732 32.1876 87.3313 31.9217C88.1893 31.6614 88.6663 31.3615 88.6813 31.3898Z" fill="#455A64"/>
<path d="M88.9963 32.9064C89.0053 32.912 88.9543 32.9771 88.8583 33.0874C88.7623 33.2006 88.6093 33.3506 88.4053 33.5231C88.0003 33.8683 87.3613 34.2757 86.5753 34.5501C85.7863 34.8246 85.0213 34.9066 84.4753 34.8925C84.2022 34.8868 83.9802 34.867 83.8302 34.8415C83.6802 34.8161 83.5992 34.7991 83.5992 34.7878C83.6022 34.7623 83.9352 34.8048 84.4723 34.7878C85.0093 34.7736 85.7503 34.6774 86.5183 34.4115C87.2863 34.1427 87.9163 33.7608 88.3303 33.4439C88.7503 33.1271 88.9753 32.8894 88.9963 32.9064Z" fill="#455A64"/>
<path d="M91.8314 29.8169C91.8464 29.8169 91.8763 30.0319 91.7713 30.3601C91.6693 30.6855 91.3993 31.1212 90.9193 31.4041C90.4363 31.6842 89.9023 31.721 89.5483 31.6644C89.1883 31.6078 88.9963 31.489 89.0053 31.4748C89.0143 31.4522 89.2183 31.5342 89.5633 31.5597C89.9023 31.588 90.3943 31.5371 90.8383 31.2796C91.2793 31.0193 91.5463 30.6261 91.6693 30.3262C91.7923 30.0235 91.8044 29.8141 91.8314 29.8169Z" fill="#455A64"/>
<path d="M123.716 120.447H10.8901L10.5961 123.839H32.4724V130.924H34.5845V123.839H114.869V130.957H116.981V123.839H123.716V120.447Z" fill="#455A64"/>
<path d="M100.267 94.4101C100.267 94.2573 97.9544 84.5617 97.7804 83.8289L99.7304 81.1101C99.7304 81.1101 100.444 80.4679 100.225 80.1821C100.006 79.8964 99.6284 79.8596 99.2024 80.1227C98.9324 80.2868 97.5344 80.9856 97.5344 80.9856C97.5344 80.9856 97.0034 77.053 96.8924 76.7673C96.7814 76.4815 96.4904 76.3486 96.2984 76.5551C96.1064 76.7616 96.1544 79.4295 96.1544 79.4295C96.1544 79.4295 95.0294 76.1392 94.7894 76.0119C94.4383 75.8223 94.1293 76.1166 94.1293 76.2439C94.1293 76.374 94.9004 79.8992 94.9004 79.8992C94.9004 79.8992 93.1123 76.6852 92.8093 76.7871C92.5063 76.8918 92.4253 77.0474 92.3983 77.2794C92.3713 77.5114 93.6073 80.9064 93.6073 80.9064C93.6073 80.9064 92.2333 78.4195 91.9873 78.4987C91.7413 78.5751 91.6243 78.9118 91.6633 79.1636C91.6993 79.3899 93.4093 84.2901 93.7243 85.1954L94.4503 96.7923L99.3914 106.85L103.849 100.974C103.849 100.974 100.267 94.5685 100.267 94.4101Z" fill="#FFBE9D"/>
<path d="M106.634 97.3611C106.634 97.3611 106.049 105.583 107.198 106.85C108.347 108.118 110.738 107.801 110.738 107.801L112.283 100.81L106.634 97.3611Z" fill="#FFBE9D"/>
<path d="M103.999 101.008L106.259 104.004L111.359 106.528L122.954 112.262C124.184 112.871 124.784 114.217 124.385 115.471L123.983 116.735L119.633 126.881L119.855 130.955L96.7004 130.921C96.7004 130.921 101.905 114.961 102.073 113.937C102.241 112.913 101.236 111.572 101.236 111.572C101.236 111.572 98.2244 109.6 98.2244 109.365C98.2304 109.13 98.6474 101.401 103.999 101.008Z" fill="#DB9A2B"/>
<path d="M103.456 117.96C103.426 117.958 103.465 117.57 103.408 116.948C103.387 116.636 103.318 116.269 103.228 115.867C103.129 115.465 102.991 115.032 102.811 114.585C102.451 113.694 102.001 112.939 101.653 112.404C101.305 111.869 101.068 111.552 101.089 111.538C101.098 111.532 101.167 111.606 101.284 111.742C101.401 111.878 101.56 112.084 101.749 112.347C102.121 112.871 102.592 113.629 102.958 114.531C103.138 114.984 103.276 115.425 103.369 115.836C103.453 116.246 103.51 116.622 103.519 116.939C103.531 117.098 103.528 117.239 103.525 117.366C103.525 117.491 103.516 117.601 103.504 117.689C103.483 117.864 103.465 117.96 103.456 117.96Z" fill="#263238"/>
<path d="M116.639 125.752C116.642 125.76 116.483 125.817 116.192 125.91C115.901 126.004 115.478 126.131 114.953 126.284C113.906 126.589 112.451 126.994 110.834 127.407C109.217 127.82 107.747 128.168 106.676 128.403C106.142 128.522 105.707 128.612 105.407 128.672C105.107 128.731 104.939 128.759 104.936 128.748C104.933 128.737 105.095 128.691 105.392 128.615C105.716 128.533 106.139 128.428 106.649 128.301C107.735 128.029 109.187 127.664 110.792 127.263C112.391 126.844 113.837 126.465 114.92 126.182C115.427 126.049 115.85 125.939 116.171 125.854C116.471 125.78 116.636 125.743 116.639 125.752Z" fill="#263238"/>
<path d="M124.202 115.674C124.202 115.674 124.136 115.657 124.013 115.615C123.89 115.572 123.704 115.516 123.458 115.456C122.969 115.338 122.216 115.205 121.253 115.275C120.296 115.343 119.111 115.64 117.998 116.404C117.443 116.781 116.915 117.273 116.471 117.87C116.033 118.47 115.652 119.177 115.505 119.972C115.439 120.368 115.424 120.79 115.538 121.194C115.652 121.596 115.886 121.986 116.261 122.238C116.999 122.753 118.142 122.776 118.958 122.244C119.774 121.695 120.143 120.625 119.939 119.647C119.756 118.651 118.937 117.796 117.914 117.361C116.888 116.899 115.664 116.88 114.521 117.168C113.948 117.312 113.387 117.525 112.859 117.805C112.328 118.079 111.821 118.407 111.356 118.795C110.432 119.567 109.661 120.541 109.166 121.65C108.92 122.204 108.74 122.79 108.65 123.395C108.617 123.698 108.572 124.003 108.59 124.306C108.608 124.606 108.671 124.912 108.851 125.149C109.025 125.393 109.316 125.537 109.625 125.585C109.934 125.639 110.258 125.608 110.567 125.537C111.182 125.387 111.734 125.028 112.094 124.547C112.829 123.576 112.667 122.139 111.773 121.353C111.338 120.951 110.78 120.685 110.201 120.532C109.622 120.376 109.016 120.328 108.425 120.357C107.24 120.422 106.1 120.758 105.11 121.282C104.119 121.805 103.27 122.513 102.634 123.33C102.001 124.139 101.545 125.087 101.581 126.035C101.602 126.974 102.268 127.848 103.147 128.106C103.585 128.236 104.062 128.171 104.449 127.97C104.84 127.772 105.149 127.464 105.362 127.118C105.788 126.414 105.782 125.593 105.638 124.886C105.488 124.17 105.218 123.517 104.873 122.962C104.191 121.845 103.099 121.169 102.13 121.126C101.65 121.092 101.221 121.166 100.873 121.285C100.528 121.406 100.258 121.573 100.075 121.734C99.7034 122.063 99.6194 122.32 99.6044 122.312C99.6044 122.312 99.6314 122.255 99.6914 122.145C99.7544 122.037 99.8684 121.884 100.051 121.715C100.411 121.378 101.143 121.013 102.13 121.07C103.12 121.104 104.245 121.788 104.942 122.92C105.296 123.483 105.572 124.142 105.731 124.869C105.881 125.588 105.893 126.434 105.455 127.172C105.236 127.531 104.911 127.857 104.5 128.066C104.092 128.278 103.579 128.352 103.111 128.213C102.169 127.939 101.476 127.025 101.449 126.038C101.407 125.045 101.878 124.074 102.52 123.251C103.168 122.419 104.029 121.695 105.038 121.16C106.046 120.625 107.204 120.28 108.416 120.212C109.022 120.181 109.643 120.232 110.24 120.391C110.837 120.546 111.419 120.821 111.878 121.245C112.823 122.08 113 123.596 112.22 124.626C111.839 125.138 111.257 125.517 110.606 125.676C110.282 125.752 109.937 125.783 109.598 125.726C109.262 125.676 108.92 125.511 108.722 125.229C108.518 124.954 108.452 124.62 108.434 124.306C108.413 123.987 108.461 123.678 108.494 123.37C108.584 122.753 108.767 122.153 109.019 121.59C109.526 120.459 110.309 119.468 111.251 118.685C111.722 118.291 112.241 117.958 112.781 117.677C113.321 117.392 113.891 117.177 114.479 117.03C115.643 116.735 116.912 116.755 117.971 117.233C119.024 117.683 119.879 118.571 120.068 119.618C120.278 120.64 119.894 121.757 119.027 122.34C118.157 122.9 116.969 122.875 116.183 122.326C115.784 122.054 115.535 121.638 115.418 121.217C115.301 120.792 115.319 120.357 115.388 119.949C115.544 119.132 115.934 118.416 116.381 117.81C116.837 117.205 117.374 116.71 117.938 116.331C119.069 115.564 120.275 115.273 121.238 115.213C122.213 115.151 122.966 115.295 123.455 115.423C123.962 115.561 124.202 115.674 124.202 115.674Z" fill="#FAFAFA"/>
<path d="M108.71 106.768C108.71 106.768 108.566 107.068 108.125 107.487C107.693 107.897 106.928 108.432 105.82 108.632C105.271 108.734 104.641 108.731 104.002 108.576C103.366 108.417 102.718 108.112 102.163 107.648C101.884 107.416 101.629 107.147 101.413 106.842C101.2 106.536 101.014 106.196 100.921 105.817C100.831 105.447 100.828 105.014 101.065 104.657C101.296 104.298 101.749 104.103 102.187 104.097C102.628 104.086 103.057 104.202 103.42 104.408C103.78 104.623 104.08 104.901 104.308 105.22C104.764 105.863 104.938 106.618 104.908 107.314C104.89 107.665 104.818 108.001 104.707 108.318C104.59 108.632 104.425 108.918 104.23 109.173C103.828 109.671 103.324 110.03 102.817 110.251C101.797 110.709 100.846 110.692 100.24 110.604C99.6254 110.505 99.3194 110.347 99.3194 110.347C99.3254 110.33 99.6404 110.466 100.249 110.548C100.849 110.618 101.782 110.616 102.769 110.157C103.261 109.934 103.744 109.583 104.125 109.099C104.308 108.853 104.464 108.579 104.575 108.276C104.68 107.97 104.746 107.645 104.761 107.308C104.785 106.635 104.611 105.911 104.176 105.3C103.957 104.997 103.669 104.734 103.333 104.533C102.994 104.341 102.589 104.233 102.184 104.244C101.782 104.253 101.392 104.423 101.188 104.737C100.981 105.045 100.975 105.438 101.062 105.789C101.146 106.146 101.323 106.471 101.53 106.768C101.737 107.065 101.983 107.325 102.25 107.552C102.787 108.004 103.411 108.304 104.029 108.463C104.647 108.618 105.259 108.627 105.793 108.533C106.877 108.349 107.636 107.843 108.074 107.45C108.53 107.045 108.692 106.754 108.71 106.768Z" fill="#FAFAFA"/>
<path d="M119.345 130.075C119.33 130.097 119.084 129.916 118.628 129.747C118.178 129.577 117.497 129.438 116.765 129.56C116.033 129.682 115.442 130.032 115.085 130.338C114.719 130.644 114.554 130.892 114.533 130.878C114.524 130.873 114.557 130.808 114.632 130.694C114.707 130.584 114.83 130.428 115.01 130.262C115.361 129.928 115.97 129.543 116.741 129.416C117.509 129.288 118.22 129.45 118.673 129.65C118.901 129.749 119.075 129.854 119.186 129.933C119.297 130.015 119.351 130.069 119.345 130.075Z" fill="#FAFAFA"/>
<g opacity="0.3">
<path d="M116.051 107.419C113.795 106.488 111.269 106.38 108.89 105.345L106.109 103.97C106.379 104.372 107.141 104.706 107.324 105.317C107.507 105.928 107.438 106.576 107.402 107.207C107.306 108.896 107.462 110.596 107.861 112.245C108.11 113.272 108.584 114.415 109.643 114.761C110.351 114.993 111.125 114.792 111.845 114.594C115.043 113.705 118.862 112.746 122.06 111.858C121.112 109.716 118.307 108.352 116.051 107.419Z" fill="black"/>
</g>
<path d="M123.344 97.6976C122.993 96.1161 122.489 94.5007 121.364 93.2841C120.05 91.8639 118.025 91.1594 116.033 91.0434C114.323 90.9415 113.984 90.1494 112.238 90.4181C111.566 90.5228 110.927 90.7661 110.345 91.1028C107.9 92.5202 106.532 94.843 105.818 97.5788C105.551 98.603 105.539 99.8789 106.445 100.496C107.102 100.943 108.032 100.883 108.695 101.322C109.43 101.811 109.619 102.785 109.469 103.622C109.316 104.459 108.893 105.229 108.644 106.044C108.041 108.021 108.479 110.129 108.92 112.143C113.168 112.027 117.416 111.911 121.664 111.793C122.156 111.779 122.693 111.747 123.05 111.431C123.353 111.162 123.449 110.749 123.524 110.364C124.325 106.18 124.262 101.854 123.344 97.6976Z" fill="#263238"/>
<path d="M106.772 97.9551C106.76 97.9551 106.772 97.8363 106.802 97.6241C106.814 97.5166 106.835 97.3893 106.871 97.2394C106.904 97.0922 106.937 96.9197 106.997 96.7358C107.099 96.3651 107.261 95.9323 107.477 95.4683C107.702 95.0071 107.984 94.5148 108.335 94.031C108.689 93.5501 109.079 93.1257 109.454 92.7664C109.838 92.4128 110.207 92.1157 110.54 91.895C110.699 91.7762 110.858 91.6885 110.993 91.6064C111.128 91.5216 111.248 91.4593 111.35 91.4084C111.551 91.3065 111.662 91.2556 111.668 91.2641C111.683 91.2896 111.242 91.5131 110.606 91.9771C110.288 92.2062 109.928 92.5061 109.556 92.8598C109.19 93.2219 108.812 93.6406 108.461 94.1131C108.116 94.5884 107.834 95.0722 107.606 95.522C107.387 95.9775 107.216 96.3991 107.102 96.7612C106.868 97.4912 106.802 97.9608 106.772 97.9551Z" fill="#455A64"/>
<path d="M108.29 99.6555C108.272 99.6555 108.266 99.3471 108.317 98.852C108.365 98.3569 108.476 97.6751 108.677 96.9395C108.878 96.2039 109.133 95.556 109.343 95.1005C109.553 94.645 109.715 94.3762 109.733 94.3847C109.754 94.3932 109.628 94.6761 109.445 95.1401C109.262 95.6013 109.028 96.2463 108.827 96.9763C108.629 97.7034 108.503 98.3767 108.428 98.8633C108.347 99.3528 108.314 99.6583 108.29 99.6555Z" fill="#455A64"/>
<path d="M120.752 109.645C120.746 109.645 120.728 109.58 120.695 109.453C120.659 109.326 120.62 109.133 120.575 108.887C120.485 108.395 120.407 107.671 120.398 106.774C120.389 105.877 120.458 104.813 120.563 103.636C120.662 102.459 120.785 101.166 120.749 99.8083C120.71 98.4531 120.494 97.1601 120.029 96.0709C119.567 94.9817 118.892 94.1103 118.205 93.5077C117.515 92.905 116.828 92.5627 116.336 92.393C116.087 92.3109 115.892 92.2515 115.757 92.2232C115.622 92.1893 115.553 92.1695 115.553 92.1638C115.553 92.1581 115.625 92.1694 115.763 92.1921C115.901 92.2091 116.102 92.26 116.357 92.3364C116.861 92.492 117.569 92.8258 118.28 93.4284C118.988 94.0311 119.684 94.9109 120.161 96.0172C120.641 97.1234 120.866 98.4333 120.902 99.7998C120.938 101.169 120.809 102.468 120.701 103.642C120.59 104.819 120.509 105.877 120.506 106.768C120.5 107.659 120.563 108.378 120.632 108.873C120.668 109.119 120.698 109.312 120.722 109.442C120.746 109.575 120.755 109.645 120.752 109.645Z" fill="#455A64"/>
<path d="M119.561 109.467C119.54 109.467 119.495 109.122 119.459 108.562C119.423 108.002 119.396 107.223 119.414 106.366C119.432 105.509 119.489 104.734 119.552 104.174C119.612 103.613 119.672 103.271 119.693 103.274C119.717 103.277 119.696 103.622 119.663 104.182C119.63 104.742 119.591 105.515 119.573 106.369C119.555 107.223 119.561 107.996 119.57 108.559C119.579 109.119 119.585 109.467 119.561 109.467Z" fill="#455A64"/>
<path d="M62.1459 101.562C62.2659 103.115 62.3889 104.666 62.5089 106.219C61.2668 106.434 59.9768 106.567 58.7498 106.29C57.5228 106.013 56.3558 105.254 55.9178 104.14C55.8338 103.925 55.7768 103.69 55.8338 103.469C55.8908 103.246 56.0858 103.042 56.3288 103.031" fill="#FFBE9D"/>
<path d="M65.4699 96.5969C65.6649 96.0226 66.4869 95.6803 66.4959 95.0833C66.5019 94.4609 65.6319 94.1214 65.3769 93.5414C64.9929 92.67 66.1299 91.7392 65.8689 90.8339C65.5569 89.7475 63.5769 89.6315 63.2079 88.5592C63.0549 88.115 63.2049 87.5577 62.8239 87.238C62.3229 86.8193 61.4529 87.2408 60.8289 86.9862C60.2468 86.7485 60.0998 86.0214 59.5208 85.7781C58.9058 85.5178 58.2248 85.9422 57.6428 86.2562C57.4688 86.3496 57.2498 86.4741 57.0248 86.5844C56.0348 86.2817 54.4658 86.3213 53.7908 86.8193C52.9987 87.4021 52.3897 88.1829 51.5077 88.6582C50.7307 89.0769 49.7587 89.2439 49.1407 89.8352C48.0367 90.8876 48.6307 92.6134 48.0667 93.9573C47.8747 94.4156 47.5477 94.823 47.3407 95.2757C47.1367 95.7312 47.0707 96.2801 47.3857 96.6818C47.7037 97.0836 48.3697 97.3184 48.3847 97.805C48.3967 98.2831 47.7277 98.6368 47.7907 99.1121C47.8597 99.627 48.6697 99.7515 49.0207 100.167C49.4797 100.713 49.0117 101.559 49.4137 102.139C49.8487 102.765 50.8957 102.632 51.7057 102.813C53.1097 103.127 54.1538 104.572 55.5818 104.355C56.1308 104.27 56.5988 103.942 57.1478 103.859C57.8858 103.749 58.5998 104.1 59.3408 104.185C60.6789 104.34 61.9299 103.633 63.0399 102.96C63.6069 102.615 64.2219 102.213 64.3689 101.619C64.5039 101.081 64.2279 100.473 64.5339 99.992C64.8189 99.545 65.5179 99.3865 65.7699 98.9225C66.1629 98.2039 65.2119 97.3636 65.4699 96.5969Z" fill="#263238"/>
<path d="M51.2017 91.0262C51.1987 91.0262 51.1807 90.9922 51.1597 90.9187C51.1387 90.8479 51.1207 90.7376 51.1267 90.5933C51.1357 90.3132 51.2677 89.8832 51.6577 89.5182C52.0447 89.1589 52.6327 88.859 53.3468 88.7543C53.7008 88.7119 54.1148 88.7459 54.4478 88.9863C54.6068 89.1052 54.7358 89.2664 54.8108 89.4532C54.8828 89.6371 54.9098 89.8577 54.8228 90.0558C54.7448 90.2566 54.5498 90.4123 54.3308 90.4547C54.2198 90.4773 54.0968 90.466 53.9918 90.4123C53.8898 90.3557 53.8118 90.2651 53.7818 90.1633C53.7188 89.9568 53.7848 89.7587 53.8898 89.5974C54.0038 89.439 54.1628 89.3287 54.3338 89.2551C55.0388 88.9807 55.7768 89.3145 56.0498 89.7615C56.3468 90.2057 56.3438 90.6499 56.3108 90.9243C56.2928 91.0658 56.2598 91.1705 56.2388 91.2412C56.2118 91.3119 56.1968 91.3459 56.1908 91.3459C56.1758 91.3431 56.2328 91.1959 56.2508 90.9187C56.2658 90.6499 56.2478 90.2255 55.9598 89.821C55.8188 89.6201 55.5998 89.4447 55.3148 89.357C55.0358 89.2664 54.6968 89.2551 54.3968 89.3824C54.2498 89.4447 54.1088 89.5465 54.0188 89.6767C53.9318 89.8068 53.8838 89.9794 53.9318 90.1237C53.9768 90.268 54.1358 90.3557 54.3038 90.3161C54.4688 90.2821 54.6218 90.1661 54.6818 90.0077C54.8138 89.6852 54.6278 89.306 54.3578 89.1023C54.0788 88.8958 53.7008 88.8562 53.3707 88.893C52.6987 88.9835 52.1167 89.2664 51.7417 89.5974C51.3637 89.9341 51.2227 90.333 51.1927 90.6018C51.1597 90.8734 51.2167 91.0234 51.2017 91.0262Z" fill="#455A64"/>
<path d="M49.7557 96.4951C49.7497 96.4979 49.6897 96.4045 49.6327 96.215C49.5787 96.0254 49.5337 95.7312 49.6087 95.3775C49.6807 95.0267 49.8907 94.608 50.3047 94.3053C50.7097 94.0054 51.3007 93.8215 51.9067 93.9233L51.8167 94.0054C51.7837 93.8073 51.7807 93.5951 51.8137 93.3829C51.9127 92.7407 52.3057 92.189 52.7947 91.875C53.2898 91.5553 53.8508 91.4874 54.2888 91.5327C54.7328 91.5779 55.0658 91.7279 55.2698 91.8524C55.3718 91.9174 55.4468 91.9712 55.4918 92.0164C55.5398 92.0589 55.5608 92.0815 55.5578 92.0844C55.5488 92.0957 55.4468 92.0108 55.2368 91.9004C55.0268 91.7929 54.7028 91.6656 54.2768 91.6345C53.8598 91.6062 53.3318 91.6798 52.8757 91.9853C52.4227 92.2824 52.0597 92.803 51.9667 93.4028C51.9367 93.6008 51.9367 93.796 51.9667 93.9799L51.9847 94.0818L51.8767 94.062C51.3187 93.9658 50.7667 94.1299 50.3857 94.4043C49.9957 94.6787 49.7887 95.0635 49.7077 95.3945C49.6237 95.7283 49.6477 96.0113 49.6837 96.198C49.7257 96.3904 49.7677 96.4922 49.7557 96.4951Z" fill="#455A64"/>
<path d="M60.1599 88.7432C60.1509 88.7658 59.9499 88.7064 59.6198 88.6923C59.2898 88.6753 58.8248 88.7206 58.3748 88.9328C57.9248 89.1449 57.6068 89.4675 57.4238 89.7249C57.2378 89.9824 57.1658 90.1719 57.1418 90.1635C57.1238 90.1606 57.1598 89.9569 57.3308 89.6712C57.4988 89.3883 57.8258 89.0289 58.3058 88.7998C58.7888 88.5734 59.2898 88.5423 59.6288 88.5876C59.9769 88.63 60.1689 88.7262 60.1599 88.7432Z" fill="#455A64"/>
<path d="M64.5099 96.2234C64.4979 96.2149 64.5669 96.1187 64.6479 95.9291C64.7229 95.7396 64.8039 95.4482 64.7739 95.086C64.7409 94.7296 64.5909 94.2939 64.2249 93.9685C63.8679 93.6403 63.3009 93.4508 62.7279 93.5045C62.4669 93.5328 62.2179 93.6092 62.0049 93.7252L61.8459 93.8129L61.8909 93.6432C62.0109 93.2046 61.8549 92.752 61.5909 92.4634C61.3269 92.1663 60.9519 92.0475 60.6489 92.0305C60.3399 92.0135 60.0969 92.0843 59.9409 92.1493C59.7848 92.2172 59.7068 92.271 59.7008 92.2625C59.6978 92.2568 59.7608 92.1889 59.9169 92.1041C60.0699 92.022 60.3249 91.9287 60.6519 91.9343C60.9759 91.9372 61.3899 92.056 61.6899 92.3785C61.9869 92.6897 62.1669 93.182 62.0379 93.6771L61.9239 93.5979C62.1549 93.4677 62.4279 93.3829 62.7099 93.3546C63.3309 93.298 63.9399 93.5045 64.3239 93.8695C64.7169 94.2316 64.8609 94.7013 64.8819 95.0776C64.8999 95.4595 64.7979 95.7622 64.7019 95.9518C64.6509 96.0451 64.6059 96.1159 64.5699 96.1583C64.5339 96.2064 64.5129 96.2262 64.5099 96.2234Z" fill="#455A64"/>
<path d="M48.4297 122.453C48.4297 122.453 44.7247 123.157 44.1726 122.784C43.6176 122.41 41.5626 121.143 41.8776 119.426C42.1926 117.708 45.9907 105.475 46.7827 104.578C47.5747 103.684 48.3637 102.787 49.9477 102.861C51.5288 102.934 61.8939 105.025 61.8939 105.025C61.8939 105.025 66.166 104.802 67.036 105.398C67.906 105.995 69.883 107.116 69.883 109.204C69.883 111.292 69.445 125.613 69.445 125.613L70.597 130.87H47.7937L48.4297 122.453Z" fill="#FFBE3B"/>
<path d="M48.4297 122.453C48.3877 122.456 48.1147 119.612 47.8207 116.101C47.5267 112.59 47.3227 109.741 47.3677 109.739C47.4097 109.736 47.6827 112.579 47.9767 116.09C48.2707 119.601 48.4717 122.45 48.4297 122.453Z" fill="#263238"/>
<path d="M69.865 108.844C69.865 108.85 69.781 108.839 69.628 108.816C69.46 108.788 69.235 108.751 68.95 108.703C68.347 108.601 67.501 108.457 66.463 108.281C64.3629 107.931 61.4529 107.475 58.2308 107.048C55.0058 106.624 52.0778 106.309 49.9537 106.106C48.9037 106.007 48.0487 105.928 47.4397 105.868C47.1547 105.84 46.9267 105.817 46.7557 105.8C46.5997 105.783 46.5187 105.772 46.5187 105.766C46.5187 105.761 46.6027 105.763 46.7587 105.769C46.9297 105.778 47.1577 105.792 47.4457 105.809C48.0427 105.845 48.9037 105.911 49.9657 105.998C52.0928 106.177 55.0268 106.474 58.2548 106.898C61.4799 107.325 64.3899 107.798 66.484 108.174C67.534 108.363 68.38 108.522 68.962 108.644C69.241 108.703 69.466 108.748 69.634 108.782C69.787 108.819 69.865 108.839 69.865 108.844Z" fill="#FAFAFA"/>
<path d="M69.445 114.059C69.445 114.064 69.367 114.064 69.22 114.064C69.058 114.062 68.845 114.056 68.578 114.05C68.023 114.036 67.2159 114.002 66.2229 113.957C64.2339 113.863 61.4919 113.694 58.4648 113.433C55.4378 113.173 52.7077 112.87 50.7337 112.621C49.7467 112.497 48.9487 112.392 48.3997 112.31C48.1357 112.271 47.9257 112.24 47.7667 112.214C47.6227 112.191 47.5477 112.177 47.5477 112.172C47.5477 112.166 47.6257 112.172 47.7697 112.186C47.9317 112.203 48.1417 112.225 48.4057 112.254C48.9757 112.319 49.7707 112.406 50.7457 112.517C52.7227 112.737 55.4528 113.023 58.4768 113.286C61.5009 113.547 64.2399 113.733 66.2259 113.852C67.2069 113.912 68.005 113.96 68.578 113.994C68.842 114.011 69.055 114.025 69.217 114.036C69.37 114.045 69.445 114.053 69.445 114.059Z" fill="#FAFAFA"/>
<path d="M69.796 118.916C69.796 118.922 69.724 118.936 69.583 118.956C69.427 118.979 69.223 119.007 68.968 119.041C68.434 119.114 67.654 119.202 66.694 119.296C64.771 119.482 62.0979 119.649 59.1459 119.652C56.1908 119.652 53.5208 119.485 51.5948 119.301C50.6318 119.211 49.8548 119.123 49.3207 119.049C49.0657 119.013 48.8617 118.984 48.7057 118.964C48.5647 118.945 48.4927 118.931 48.4927 118.925C48.4927 118.919 48.5677 118.925 48.7087 118.936C48.8647 118.95 49.0717 118.97 49.3267 118.996C49.8638 119.052 50.6438 119.123 51.6038 119.202C53.5298 119.361 56.1938 119.511 59.1429 119.511C62.0919 119.508 64.756 119.358 66.682 119.199C67.645 119.12 68.422 119.049 68.959 118.993C69.217 118.967 69.421 118.95 69.58 118.933C69.718 118.914 69.793 118.911 69.796 118.916Z" fill="#FAFAFA"/>
<path d="M69.391 126.122C69.391 126.128 69.316 126.134 69.175 126.142C69.019 126.151 68.812 126.159 68.557 126.17C68.002 126.187 67.228 126.213 66.2829 126.241C64.3629 126.292 61.7079 126.34 58.7738 126.357C55.8398 126.374 53.1848 126.346 51.2617 126.286C50.3017 126.253 49.5247 126.224 48.9877 126.187C48.7327 126.17 48.5257 126.156 48.3697 126.145C48.2287 126.134 48.1537 126.125 48.1537 126.12C48.1537 126.114 48.2287 126.114 48.3697 126.114C48.5257 126.117 48.7327 126.122 48.9877 126.128C49.5247 126.148 50.3017 126.159 51.2617 126.179C53.1818 126.213 55.8368 126.221 58.7708 126.207C61.6959 126.179 64.3419 126.154 66.2799 126.137C67.228 126.125 68.002 126.117 68.557 126.111C68.812 126.111 69.019 126.111 69.175 126.111C69.316 126.114 69.391 126.117 69.391 126.122Z" fill="#FAFAFA"/>
<path d="M47.8987 116.223C47.8867 116.262 46.8157 115.991 45.5046 115.617C44.1936 115.244 43.1436 114.91 43.1556 114.871C43.1676 114.831 44.2386 115.103 45.5497 115.476C46.8607 115.852 47.9107 116.186 47.8987 116.223Z" fill="#FAFAFA"/>
<path d="M14.7871 106.335C14.7151 104.669 13.1851 101.667 12.5581 98.7163C12.2371 97.2083 12.0481 95.8673 13.0771 94.6762C13.9531 93.6633 15.1741 92.9815 16.3772 92.3364C18.2942 91.3094 20.3192 90.3022 22.5183 90.1891C23.9523 90.1155 25.5003 90.4918 26.4153 91.5358C27.1683 92.393 27.3813 93.5502 27.5313 94.6535C27.7773 96.4869 27.9153 98.3343 27.9453 100.185C27.9603 101.147 27.9453 102.123 27.6543 103.042C27.3633 103.962 26.7573 104.833 25.8543 105.277C25.0743 105.659 24.1443 105.693 23.3643 106.072C22.5843 106.454 22.0082 107.475 22.5873 108.098L17.4272 109.428L14.7871 106.335Z" fill="#A36957"/>
<path d="M13.7102 103.905C14.2592 104.937 15.2192 105.8 16.3952 106.131C17.5682 106.462 18.9452 106.208 19.8002 105.382C20.3073 104.892 20.6103 104.25 20.9553 103.647C21.3003 103.045 21.7263 102.439 22.3743 102.131C23.0223 101.822 23.9403 101.919 24.3153 102.507C24.4353 102.694 24.5103 102.934 24.7173 103.033C24.9783 103.158 25.3053 102.968 25.4193 102.714C25.5303 102.459 25.4883 102.173 25.4403 101.902C25.2633 100.889 25.0533 99.8732 25.0923 98.8462C25.1313 97.8192 25.4463 96.7667 26.1933 96.0198C26.7663 95.4455 27.5434 95.0975 28.2274 94.6477C28.9114 94.195 29.5534 93.5556 29.6104 92.7691C29.6614 92.0646 29.2264 91.4026 28.6744 90.9273C27.4684 89.8918 22.7373 89.094 21.2253 89.6739C21.2253 89.6739 14.8712 92.2796 14.5592 92.489C14.2472 92.6984 11.9461 93.4594 12.0121 96.1047C12.0751 98.7443 13.7102 103.905 13.7102 103.905Z" fill="#263238"/>
<path d="M14.7871 106.335C14.7151 104.669 13.1851 101.667 12.5581 98.7163C12.2371 97.2083 12.0481 95.8673 13.0771 94.6762C13.9531 93.6633 15.1741 92.9815 16.3772 92.3364C18.2942 91.3094 20.3192 90.3022 22.5183 90.1891C23.9523 90.1155 25.5003 90.4918 26.4153 91.5358C27.1683 92.393 27.3813 93.5502 27.5313 94.6535C27.7773 96.4869 27.9153 98.3343 27.9453 100.185C27.9603 101.147 27.9453 102.123 27.6543 103.042C27.3633 103.962 26.7573 104.833 25.8543 105.277C25.0743 105.659 24.1443 105.693 23.3643 106.072C22.5843 106.454 22.0082 107.475 22.5873 108.098L17.4272 109.428L14.7871 106.335Z" fill="#A36957"/>
<path d="M29.7154 90.7661C29.4124 90.4804 28.8304 90.4719 28.5874 90.8029C28.9684 90.2936 28.8394 89.5043 28.3084 89.1308C27.7774 88.7546 26.9404 88.8564 26.5264 89.3459C26.8234 88.8423 26.5834 88.1604 26.0884 87.8209C25.5964 87.4814 24.9244 87.4418 24.3333 87.5918C23.7453 87.7417 23.2203 88.0586 22.7193 88.3868C22.7313 88.0048 22.4523 87.6512 22.0983 87.4701C21.7413 87.2862 21.3213 87.2494 20.9193 87.2664C19.3473 87.3315 17.8413 88.2029 17.0702 89.4986C16.2782 89.1959 15.3092 89.3742 14.6942 89.9343C14.0822 90.4945 13.8632 91.4055 14.1572 92.1581C13.3082 92.2854 12.6572 93.0861 12.6812 93.8867C12.2822 94.4158 11.9882 95.1316 12.0122 96.102C12.0782 98.7473 13.7132 103.905 13.7132 103.905C14.2622 104.938 15.2222 105.8 16.3982 106.131C17.5713 106.462 18.9483 106.208 19.8033 105.382C20.3103 104.892 20.6133 104.25 20.9583 103.647C21.3033 103.045 21.7293 102.439 22.3773 102.131C23.0253 101.823 23.7723 102.035 24.4714 102.227C25.1074 102.403 25.1074 102.012 25.1434 101.557L25.0924 98.8435C25.1314 97.8165 25.4464 96.764 26.1934 96.0171C26.7664 95.4428 27.5434 95.0948 28.2274 94.6449C28.9114 94.1923 29.5534 93.5529 29.6104 92.7664C29.6194 92.6504 29.6104 92.5372 29.5924 92.4212C29.7274 92.2628 29.8414 92.0902 29.9164 91.9006C30.0634 91.5215 30.0184 91.0519 29.7154 90.7661Z" fill="#263238"/>
<path d="M21.2073 95.2276C21.2133 95.2276 21.2043 95.3351 21.1323 95.5134C21.0603 95.6916 20.9133 95.9462 20.6343 96.1782C20.3613 96.4102 19.9353 96.6196 19.4253 96.6168C18.9243 96.6196 18.3512 96.4187 17.9612 95.9887L18.0842 95.983C17.9612 96.1584 17.7992 96.3197 17.6132 96.4555C17.0762 96.8431 16.4012 96.9789 15.8252 96.8799C15.2462 96.7809 14.8022 96.4612 14.5322 96.1443C14.2562 95.8218 14.1362 95.5021 14.0852 95.2786C14.0612 95.1654 14.0522 95.0777 14.0522 95.0183C14.0522 94.9589 14.0522 94.9277 14.0582 94.9277C14.0732 94.9277 14.0822 95.0522 14.1452 95.2644C14.2112 95.4766 14.3432 95.7793 14.6162 96.0764C14.8862 96.3706 15.3092 96.6592 15.8492 96.7441C16.3832 96.8261 17.0162 96.6988 17.5172 96.3367C17.6912 96.2094 17.8412 96.0594 17.9552 95.8981L18.0122 95.8189L18.0782 95.8925C18.4352 96.2886 18.9603 96.481 19.4253 96.4866C19.8963 96.4979 20.2983 96.314 20.5683 96.1047C20.8413 95.8925 20.9973 95.6577 21.0813 95.4907C21.1683 95.3266 21.1953 95.2248 21.2073 95.2276Z" fill="#455A64"/>
<path d="M25.3353 93.4397C25.3473 93.4284 25.4673 93.6123 25.3923 93.9207C25.3563 94.0706 25.2693 94.2432 25.1133 94.3931C24.9603 94.5431 24.7413 94.6534 24.5013 94.71C24.0093 94.8232 23.5593 94.6987 23.2743 94.5912C22.9833 94.478 22.8213 94.379 22.8273 94.362C22.8363 94.3422 23.0163 94.4073 23.3103 94.4922C23.6013 94.5714 24.0213 94.6676 24.4653 94.5657C24.6843 94.5148 24.8763 94.4186 25.0143 94.2941C25.1523 94.1696 25.2393 94.0225 25.2873 93.8924C25.3803 93.6264 25.3083 93.4454 25.3353 93.4397Z" fill="#455A64"/>
<path d="M28.2753 92.4722C28.2903 92.4722 28.3083 92.6646 28.1943 92.9475C28.0833 93.2276 27.8043 93.5926 27.3483 93.7934C26.8893 93.9886 26.4153 93.9462 26.1183 93.8444C25.8153 93.7425 25.6713 93.6039 25.6833 93.5926C25.6983 93.5728 25.8573 93.6746 26.1513 93.7453C26.4363 93.8161 26.8713 93.8387 27.2853 93.6605C27.6963 93.4822 27.9663 93.1597 28.0953 92.9079C28.2273 92.6504 28.2483 92.4694 28.2753 92.4722Z" fill="#455A64"/>
<path d="M24.7023 90.5708C24.6873 90.5991 24.4053 90.319 23.8113 90.22C23.5203 90.1747 23.1543 90.1832 22.7943 90.3247C22.4403 90.469 22.1013 90.7519 21.9003 91.1282C21.7893 91.3347 21.7263 91.5582 21.7113 91.7704L21.5583 91.7591C21.5883 91.4422 21.2673 91.1989 20.9883 91.1452C20.7003 91.0829 20.4273 91.1904 20.2383 91.2979C19.8543 91.5328 19.6833 91.7591 19.6623 91.7393C19.6563 91.7336 19.6923 91.677 19.7733 91.5809C19.8573 91.4875 19.9833 91.3517 20.1843 91.2187C20.3793 91.0942 20.6703 90.9613 21.0153 91.0235C21.1833 91.0546 21.3513 91.131 21.4893 91.2555C21.6273 91.3771 21.7293 91.5695 21.7083 91.7732L21.5553 91.7619C21.5703 91.5271 21.6363 91.2866 21.7563 91.0603C21.9753 90.65 22.3443 90.3445 22.7343 90.1974C23.1273 90.0503 23.5203 90.0531 23.8263 90.1153C24.1353 90.1776 24.3603 90.2992 24.5013 90.3926C24.6483 90.4916 24.7083 90.5652 24.7023 90.5708Z" fill="#455A64"/>
<path d="M21.8883 88.5197C21.8883 88.5424 21.7443 88.548 21.5342 88.6131C21.3272 88.6753 21.0482 88.8168 20.8472 89.0629C20.6462 89.3119 20.5742 89.6005 20.5622 89.8042C20.5502 90.0136 20.5832 90.1437 20.5592 90.1494C20.5412 90.155 20.4692 90.0305 20.4512 89.8042C20.4332 89.5807 20.4932 89.2525 20.7212 88.9724C20.9492 88.6923 21.2732 88.5509 21.5042 88.5112C21.7443 88.466 21.8913 88.5028 21.8883 88.5197Z" fill="#455A64"/>
<path d="M16.0502 91.8242C16.0352 91.8242 16.0832 91.612 16.3592 91.414C16.4942 91.3178 16.6832 91.2329 16.9052 91.1989C17.1302 91.165 17.3822 91.1876 17.6252 91.264C18.1172 91.4196 18.4622 91.7223 18.6902 91.9402C18.9152 92.1637 19.0382 92.3136 19.0232 92.325C19.0082 92.3391 18.8552 92.2146 18.6152 92.0138C18.3722 91.8185 18.0302 91.5441 17.5772 91.4027C17.3522 91.3348 17.1272 91.3093 16.9262 91.3319C16.7252 91.3546 16.5512 91.4225 16.4222 91.4988C16.1552 91.6544 16.0742 91.8383 16.0502 91.8242Z" fill="#455A64"/>
<path d="M19.0862 94.0933C19.0502 94.1131 18.8822 93.7481 19.0112 93.2954C19.1342 92.8428 19.4732 92.6023 19.4942 92.6362C19.5272 92.6673 19.2722 92.9276 19.1642 93.3322C19.0442 93.7368 19.1312 94.0819 19.0862 94.0933Z" fill="#455A64"/>
<path d="M35.9135 105.02L31.5634 106.352L32.3975 113.892L32.0914 114.466L28.8604 119.465C28.8034 119.553 32.1394 120.291 33.3965 120.546C34.9625 120.863 39.0995 120.546 38.4845 115.646C38.0495 112.18 35.9135 105.02 35.9135 105.02Z" fill="#A36957"/>
<path d="M31.2244 99.6072C30.5374 99.9212 30.0604 100.609 30.0364 101.33C30.0334 101.429 30.0394 101.537 30.0964 101.622C30.2014 101.78 30.4474 101.803 30.6274 101.723C30.8044 101.644 30.9304 101.491 31.0504 101.341" fill="#A36957"/>
<path d="M31.0474 101.339C31.0564 101.345 31.0324 101.39 30.9814 101.469C30.9274 101.543 30.8434 101.659 30.6844 101.752C30.6034 101.797 30.4984 101.828 30.3844 101.826C30.2734 101.823 30.1384 101.786 30.0484 101.678C29.9584 101.571 29.9524 101.432 29.9584 101.313C29.9644 101.192 29.9794 101.067 30.0124 100.943C30.1354 100.442 30.4564 100.06 30.7294 99.8564C31.0054 99.647 31.2184 99.5904 31.2244 99.6046C31.2364 99.6272 31.0444 99.7149 30.8014 99.9328C30.5614 100.148 30.2794 100.51 30.1654 100.974C30.1354 101.09 30.1204 101.203 30.1144 101.316C30.1054 101.427 30.1174 101.528 30.1684 101.594C30.2764 101.729 30.5044 101.721 30.6334 101.656C30.7744 101.588 30.8674 101.492 30.9364 101.429C30.9994 101.367 31.0384 101.333 31.0474 101.339Z" fill="#7C3B29"/>
<path d="M33.7774 99.6244C33.7774 99.6244 31.6354 100.431 31.3714 101.081C31.1074 101.732 30.6304 104.157 30.6304 104.157L31.5814 106.505L35.8414 105.701C35.8414 105.701 36.4955 100.914 36.5405 100.77C36.5405 100.77 38.0255 96.764 38.0225 96.3934C38.0195 95.8983 37.6055 95.7342 37.0895 96.3142C36.5735 96.8942 35.4274 99.1038 35.4274 99.1038L33.7774 99.6244Z" fill="#A36957"/>
<path d="M33.3784 98.6623C32.9434 98.6368 32.4874 98.6312 32.1034 98.8207C31.7314 99.0018 31.4734 99.3441 31.3234 99.7119C31.1734 100.08 31.1224 100.476 31.0714 100.866C31.0324 101.16 31.0204 101.514 31.2724 101.692C31.3954 101.78 31.5694 101.8 31.7104 101.743C31.8514 101.687 31.9594 101.559 31.9804 101.415" fill="#A36957"/>
<path d="M31.9804 101.412C31.9864 101.412 32.0015 101.497 31.9174 101.622C31.8754 101.681 31.8064 101.749 31.7014 101.789C31.5964 101.828 31.4614 101.834 31.3264 101.783C31.1914 101.732 31.0774 101.608 31.0264 101.458C30.9754 101.31 30.9724 101.146 30.9844 100.982C31.0204 100.66 31.0564 100.309 31.1614 99.944C31.2634 99.579 31.4524 99.2452 31.7074 99.0132C31.9595 98.7727 32.2805 98.6652 32.5385 98.6341C32.7995 98.6001 33.0125 98.6143 33.1535 98.6256C33.2975 98.6397 33.3755 98.6539 33.3755 98.6652C33.3755 98.6963 33.0515 98.6567 32.5565 98.7359C32.3135 98.7812 32.0315 98.8859 31.8064 99.1094C31.5784 99.3272 31.4074 99.6356 31.3084 99.9836C31.2094 100.332 31.1674 100.682 31.1254 100.996C31.1104 101.152 31.1104 101.299 31.1494 101.424C31.1854 101.548 31.2694 101.644 31.3714 101.69C31.5844 101.786 31.7884 101.687 31.8694 101.591C31.9565 101.489 31.9654 101.41 31.9804 101.412Z" fill="#7C3B29"/>
<path d="M35.3615 99.053C35.0855 98.7927 34.7885 98.5211 34.4075 98.4419C33.9965 98.357 33.5615 98.5268 33.2494 98.7956C32.9374 99.0643 32.7304 99.4208 32.5444 99.7773C32.3884 100.074 32.2474 100.377 32.1154 100.685C32.0434 100.85 31.9774 101.019 31.9594 101.198C31.9414 101.376 31.9834 101.565 32.1064 101.698C32.2924 101.902 32.6374 101.93 32.8924 101.809C33.1474 101.687 33.3184 101.447 33.4144 101.192" fill="#A36957"/>
<path d="M33.4144 101.189C33.4234 101.192 33.4054 101.294 33.3154 101.458C33.2254 101.611 33.0364 101.871 32.6584 101.925C32.4784 101.947 32.2564 101.916 32.0884 101.763C31.9204 101.611 31.8664 101.37 31.8964 101.147C31.9294 100.92 32.0254 100.705 32.1244 100.493C32.2264 100.278 32.3284 100.057 32.4364 99.8309C32.6554 99.3839 32.9164 98.9511 33.2914 98.6738C33.6604 98.3965 34.1285 98.3004 34.4765 98.405C34.8245 98.5097 35.0285 98.7106 35.1665 98.8351C35.3015 98.9652 35.3675 99.0444 35.3585 99.0529C35.3495 99.0614 35.2685 98.9935 35.1245 98.8775C34.9775 98.7672 34.7645 98.5861 34.4465 98.5069C34.1315 98.4248 33.7174 98.521 33.3784 98.7813C33.0364 99.0416 32.7904 99.4518 32.5744 99.8989C32.4664 100.122 32.3644 100.34 32.2624 100.552C32.1574 100.762 32.0674 100.968 32.0344 101.166C32.0044 101.362 32.0494 101.56 32.1754 101.681C32.2984 101.803 32.4844 101.84 32.6404 101.826C32.9644 101.794 33.1594 101.571 33.2584 101.432C33.3664 101.282 33.4024 101.186 33.4144 101.189Z" fill="#7C3B29"/>
<path d="M33.8614 102.719C33.7684 102.261 33.6754 101.8 33.5794 101.342C33.0424 101.262 32.5294 101.053 32.0974 100.742C31.9534 100.377 32.1544 100.148 32.6854 100.006C33.2164 99.8648 34.9234 100.097 35.1094 100.193C35.7605 100.524 35.8385 101.384 35.9315 102.077" fill="#A36957"/>
<path d="M35.9345 102.077C35.9225 102.08 35.8985 101.961 35.8595 101.752C35.8175 101.543 35.7755 101.234 35.6315 100.886C35.5595 100.714 35.4515 100.535 35.2865 100.388C35.2025 100.326 35.1035 100.244 35.0015 100.227C34.8845 100.199 34.7555 100.176 34.6265 100.156C34.1045 100.083 33.5134 100.012 32.9104 100.046C32.6914 100.063 32.4664 100.136 32.2984 100.247C32.2144 100.303 32.1574 100.374 32.1364 100.456C32.1184 100.538 32.1334 100.629 32.1664 100.716L32.1424 100.685C32.6194 101.033 33.1444 101.214 33.5884 101.285L33.6304 101.291L33.6364 101.328C33.7085 101.729 33.7685 102.069 33.8165 102.34C33.8555 102.581 33.8705 102.714 33.8615 102.717C33.8495 102.72 33.8135 102.589 33.7535 102.352C33.6905 102.083 33.6154 101.746 33.5224 101.347L33.5704 101.39C33.1084 101.328 32.5564 101.152 32.0524 100.793L32.0344 100.782L32.0254 100.762C31.9864 100.66 31.9594 100.544 31.9864 100.419C32.0164 100.298 32.1034 100.193 32.2054 100.125C32.4124 99.9922 32.6404 99.9186 32.8954 99.896C33.5314 99.862 34.1165 99.9384 34.6475 100.018C34.7795 100.04 34.9085 100.063 35.0375 100.097C35.1875 100.134 35.2745 100.219 35.3735 100.295C35.5535 100.462 35.6615 100.663 35.7335 100.844C35.8685 101.214 35.8925 101.528 35.9195 101.741C35.9405 101.956 35.9435 102.074 35.9345 102.077Z" fill="#7C3B29"/>
<path d="M33.4145 102.236C33.4115 102.258 33.2555 102.25 33.0155 102.284C32.7755 102.315 32.4455 102.405 32.1455 102.601C31.8424 102.799 31.6384 103.056 31.5214 103.254C31.4014 103.455 31.3564 103.594 31.3324 103.588C31.3144 103.585 31.3204 103.432 31.4224 103.206C31.5214 102.983 31.7284 102.691 32.0584 102.476C32.3885 102.261 32.7515 102.182 33.0095 102.176C33.2645 102.171 33.4175 102.219 33.4145 102.236Z" fill="#7C3B29"/>
<path d="M35.0135 115.142C34.9925 115.179 34.4015 114.916 33.6605 114.622C32.9195 114.325 32.3074 114.113 32.3194 114.073C32.3314 114.036 32.9705 114.189 33.7205 114.486C34.4705 114.783 35.0345 115.109 35.0135 115.142Z" fill="#7C3B29"/>
<path d="M20.3523 107.153C20.6283 107.068 24.9393 107.798 26.1903 108.324C26.8984 108.621 32.9014 113.213 32.9014 113.213L28.4914 120.034L25.5993 119.041L25.5663 130.972L7.57208 130.926L7.96209 111.875C7.96209 111.875 9.25511 106.878 11.4511 106.276C13.6472 105.667 20.3523 107.153 20.3523 107.153Z" fill="#DB9A2B"/>
<path d="M25.2093 119.219C25.2093 119.225 25.1583 119.216 25.0623 119.199C24.9663 119.177 24.8223 119.163 24.6453 119.106C24.2883 119.013 23.7813 118.817 23.2203 118.475C22.6593 118.133 22.0593 117.618 21.5613 116.927C21.0603 116.24 20.6823 115.363 20.5893 114.398C20.5143 113.431 20.7363 112.505 21.1083 111.75C21.4803 110.992 21.9843 110.389 22.4763 109.968C22.9683 109.54 23.4333 109.272 23.7723 109.125C23.9373 109.04 24.0783 109.003 24.1653 108.966C24.2583 108.935 24.3063 108.918 24.3063 108.924C24.3333 108.963 23.5053 109.181 22.5513 110.044C22.0773 110.468 21.5943 111.065 21.2373 111.809C20.8803 112.551 20.6703 113.45 20.7423 114.39C20.8323 115.326 21.1983 116.181 21.6783 116.857C22.1583 117.536 22.7373 118.048 23.2803 118.393C24.3753 119.089 25.2273 119.177 25.2093 119.219Z" fill="#263238"/>
<path d="M22.1463 130.12C22.1043 130.117 22.2093 127.738 22.3863 124.804C22.5603 121.87 22.7373 119.494 22.7823 119.497C22.8243 119.499 22.7193 121.879 22.5423 124.813C22.3683 127.744 22.1913 130.12 22.1463 130.12Z" fill="#263238"/>
<path d="M17.5832 123.053C17.5892 123.061 17.4992 123.149 17.3282 123.302C17.1572 123.454 16.9052 123.669 16.5902 123.933C15.9572 124.456 15.0632 125.152 14.0342 125.876C13.0052 126.6 12.0422 127.212 11.3312 127.636C10.9772 127.848 10.6861 128.015 10.4821 128.123C10.2781 128.233 10.1641 128.289 10.1581 128.281C10.1521 128.273 10.2571 128.199 10.4491 128.074C10.6711 127.933 10.9442 127.758 11.2712 127.548C11.9642 127.104 12.9152 126.479 13.9412 125.757C14.9672 125.036 15.8702 124.354 16.5182 123.85C16.8242 123.616 17.0792 123.418 17.2862 123.256C17.4692 123.118 17.5742 123.044 17.5832 123.053Z" fill="#263238"/>
<path d="M10.4761 111.572C10.4401 111.546 10.7911 111.06 11.1451 110.418C11.5021 109.778 11.7301 109.229 11.7721 109.243C11.8111 109.255 11.6491 109.835 11.2831 110.488C10.9231 111.139 10.5091 111.597 10.4761 111.572Z" fill="#FAFAFA"/>
<path d="M11.7181 117.918C11.6881 117.943 11.2531 117.496 10.8361 116.865C10.4161 116.235 10.1821 115.672 10.2181 115.657C10.2601 115.64 10.5541 116.167 10.9681 116.789C11.3791 117.409 11.7541 117.89 11.7181 117.918Z" fill="#FAFAFA"/>
<path d="M16.5212 112.206C16.5542 112.234 16.1102 112.752 15.5282 113.363C14.9492 113.974 14.4512 114.446 14.4212 114.421C14.3882 114.393 14.8322 113.878 15.4142 113.264C15.9932 112.653 16.4912 112.177 16.5212 112.206Z" fill="#FAFAFA"/>
<path d="M18.0002 119.664C17.9582 119.644 18.2942 118.951 18.6392 118.071C18.9872 117.191 19.2122 116.458 19.2542 116.469C19.2932 116.478 19.1342 117.233 18.7862 118.122C18.4382 119.01 18.0362 119.68 18.0002 119.664Z" fill="#FAFAFA"/>
<path d="M14.9042 122.99C14.8622 122.993 14.7992 122.447 14.7662 121.771C14.7332 121.095 14.7392 120.546 14.7842 120.543C14.8262 120.54 14.8892 121.086 14.9222 121.763C14.9552 122.439 14.9492 122.988 14.9042 122.99Z" fill="#FAFAFA"/>
<path d="M12.0002 126.674C11.9672 126.7 11.4961 126.185 10.9531 125.523C10.4101 124.861 9.99613 124.306 10.0291 124.281C10.0621 124.255 10.5331 124.77 11.0761 125.432C11.6191 126.094 12.0332 126.649 12.0002 126.674Z" fill="#FAFAFA"/>
<path d="M15.9212 129.045C15.8792 129.048 15.8012 128.621 15.7502 128.092C15.6992 127.56 15.6932 127.127 15.7352 127.124C15.7772 127.121 15.8552 127.548 15.9062 128.077C15.9572 128.609 15.9662 129.042 15.9212 129.045Z" fill="#FAFAFA"/>
<path d="M20.3163 127.288C20.2803 127.311 19.9052 126.847 19.4762 126.256C19.0472 125.661 18.7292 125.161 18.7652 125.138C18.8012 125.115 19.1762 125.579 19.6052 126.173C20.0342 126.765 20.3523 127.266 20.3163 127.288Z" fill="#FAFAFA"/>
<path d="M21.8433 121.649C21.8373 121.689 21.5433 121.683 21.1833 121.635C20.8263 121.587 20.5383 121.516 20.5443 121.474C20.5503 121.434 20.8443 121.44 21.2043 121.488C21.5643 121.536 21.8493 121.61 21.8433 121.649Z" fill="#FAFAFA"/>
<path d="M24.9213 124.798C24.8853 124.818 24.5373 124.326 24.1443 123.701C23.7513 123.072 23.4633 122.549 23.5023 122.526C23.5383 122.507 23.8863 122.996 24.2793 123.624C24.6723 124.252 24.9603 124.778 24.9213 124.798Z" fill="#FAFAFA"/>
<path d="M24.8523 127.469C24.8913 127.486 24.7323 127.928 24.4923 128.459C24.2553 128.991 24.0303 129.407 23.9883 129.393C23.9493 129.376 24.1083 128.935 24.3483 128.403C24.5883 127.871 24.8133 127.452 24.8523 127.469Z" fill="#FAFAFA"/>
<path d="M22.9533 115.301C22.9173 115.315 22.6743 114.823 22.5543 114.166C22.4313 113.51 22.4793 112.97 22.5213 112.972C22.5663 112.972 22.5873 113.501 22.7073 114.141C22.8243 114.78 22.9983 115.284 22.9533 115.301Z" fill="#FAFAFA"/>
<path d="M24.6813 111.099C24.6633 111.063 25.0233 110.876 25.4823 110.684C25.9443 110.491 26.3313 110.364 26.3463 110.401C26.3643 110.437 26.0043 110.624 25.5453 110.817C25.0863 111.009 24.6963 111.136 24.6813 111.099Z" fill="#FAFAFA"/>
<path d="M26.8534 114.828C26.8144 114.848 26.5444 114.435 26.2533 113.906C25.9593 113.377 25.7523 112.933 25.7913 112.913C25.8303 112.893 26.0973 113.306 26.3913 113.835C26.6854 114.367 26.8924 114.811 26.8534 114.828Z" fill="#FAFAFA"/>
<path d="M29.7994 113.617C29.7634 113.64 29.4574 113.238 29.1214 112.72C28.7824 112.203 28.5394 111.767 28.5754 111.747C28.6114 111.725 28.9174 112.126 29.2534 112.644C29.5924 113.159 29.8384 113.595 29.7994 113.617Z" fill="#FAFAFA"/>
<path d="M28.8904 117.015C28.9024 117.055 28.3714 117.23 27.7084 117.406C27.0423 117.581 26.4933 117.694 26.4813 117.655C26.4693 117.615 27.0003 117.44 27.6634 117.264C28.3324 117.089 28.8814 116.976 28.8904 117.015Z" fill="#FAFAFA"/>
<path d="M19.6173 109.592C19.6023 109.625 19.0593 109.436 18.4833 109.04C17.9072 108.647 17.5472 108.217 17.5772 108.194C17.6102 108.166 18.0122 108.539 18.5763 108.921C19.1343 109.309 19.6383 109.555 19.6173 109.592Z" fill="#FAFAFA"/>
<path d="M13.1342 107.43C13.1342 107.47 12.7262 107.498 12.2492 107.365C11.7691 107.238 11.4391 107.009 11.4631 106.977C11.4871 106.941 11.8351 107.102 12.2942 107.224C12.7472 107.351 13.1342 107.388 13.1342 107.43Z" fill="#FAFAFA"/>
<path d="M138.398 130.924C138.398 130.963 107.477 130.997 69.343 130.997C31.1974 130.997 0.281982 130.963 0.281982 130.924C0.281982 130.884 31.1944 130.85 69.343 130.85C107.477 130.85 138.398 130.884 138.398 130.924Z" fill="#263238"/>
</g>
<defs>
<clipPath id="clip0_849_199681">
<rect width="140" height="131" fill="white"/>
</clipPath>
</defs>
</svg>
