<svg width="120" height="120" viewBox="0 0 120 120" fill="none" xmlns="http://www.w3.org/2000/svg">
<g clip-path="url(#clip0_365_40074)">
<circle cx="61" cy="60" r="49.25" fill="#DCDCDC" stroke="#AEAEAE" stroke-width="1.5"/>
<path d="M10 36C10 30.3995 10 27.5992 11.0899 25.4601C12.0487 23.5785 13.5785 22.0487 15.4601 21.0899C17.5992 20 20.3995 20 26 20H28C39.201 20 44.8016 20 49.0798 22.1799C52.8431 24.0973 55.9027 27.1569 57.8201 30.9202C60 35.1984 60 40.799 60 52V100H26C20.3995 100 17.5992 100 15.4601 98.9101C13.5785 97.9513 12.0487 96.4215 11.0899 94.5399C10 92.4008 10 89.6005 10 84V36Z" fill="#FAFAFA"/>
<path d="M110 36C110 30.3995 110 27.5992 108.91 25.4601C107.951 23.5785 106.422 22.0487 104.54 21.0899C102.401 20 99.6005 20 94 20H92C80.7989 20 75.1984 20 70.9202 22.1799C67.1569 24.0973 64.0973 27.1569 62.1799 30.9202C60 35.1984 60 40.799 60 52V100H94C99.6005 100 102.401 100 104.54 98.9101C106.422 97.9513 107.951 96.4215 108.91 94.5399C110 92.4008 110 89.6005 110 84V36Z" fill="#FAFAFA"/>
<path d="M60 100H26C20.3995 100 17.5992 100 15.4601 98.9101C13.5785 97.9513 12.0487 96.4215 11.0899 94.5399C10 92.4008 10 89.6005 10 84V36C10 30.3995 10 27.5992 11.0899 25.4601C12.0487 23.5785 13.5785 22.0487 15.4601 21.0899C17.5992 20 20.3995 20 26 20H28C39.201 20 44.8016 20 49.0798 22.1799C52.8431 24.0973 55.9027 27.1569 57.8201 30.9202C60 35.1984 60 40.799 60 52M60 100V52M60 100H94C99.6005 100 102.401 100 104.54 98.9101C106.422 97.9513 107.951 96.4215 108.91 94.5399C110 92.4008 110 89.6005 110 84V36C110 30.3995 110 27.5992 108.91 25.4601C107.951 23.5785 106.422 22.0487 104.54 21.0899C102.401 20 99.6005 20 94 20H92C80.7989 20 75.1984 20 70.9202 22.1799C67.1569 24.0973 64.0973 27.1569 62.1799 30.9202C60 35.1984 60 40.799 60 52" stroke="#AEAEAE" stroke-width="3" stroke-linecap="round" stroke-linejoin="round"/>
<g clip-path="url(#clip1_365_40074)">
<path d="M64 76.4C64 71.3595 64 68.8393 64.9809 66.9141C65.8438 65.2206 67.2206 63.8438 68.9141 62.9809C70.8393 62 73.3595 62 78.4 62H91.6C96.6405 62 99.1607 62 101.086 62.9809C102.779 63.8438 104.156 65.2206 105.019 66.9141C106 68.8393 106 71.3595 106 76.4V116L85 104L64 116V76.4Z" fill="#FAFAFA" stroke="#AEAEAE" stroke-width="4" stroke-linecap="round" stroke-linejoin="round"/>
<circle cx="78" cy="78" r="3" fill="#AEAEAE"/>
<circle cx="92" cy="78" r="3" fill="#AEAEAE"/>
<ellipse cx="85" cy="89.5" rx="4" ry="2.5" fill="#AEAEAE"/>
<line x1="71.6877" y1="75.6096" x2="76.6877" y2="71.6096" stroke="#AEAEAE"/>
<line x1="92.3123" y1="71.6096" x2="97.3123" y2="75.6096" stroke="#AEAEAE"/>
</g>
</g>
<defs>
<clipPath id="clip0_365_40074">
<rect width="120" height="120" fill="white"/>
</clipPath>
<clipPath id="clip1_365_40074">
<rect width="72" height="72" fill="white" transform="translate(49 53)"/>
</clipPath>
</defs>
</svg>
