<svg width="258" height="285" viewBox="0 0 258 285" fill="none" xmlns="http://www.w3.org/2000/svg">
<g clip-path="url(#clip0_328_5585)">
<path d="M219.834 154.389L173.398 136.984C170.186 135.781 168.571 132.224 169.784 129.047L194.094 65.3369C195.307 62.1533 198.896 60.552 202.101 61.7545L231.551 72.7928L245.465 104.629L227.848 150.807C226.628 153.984 223.039 155.592 219.834 154.389Z" fill="#F5F5F5"/>
<path d="M231.551 72.7928L224.712 90.7235C223.582 93.6793 225.089 96.9895 228.071 98.1034L245.465 104.629L231.551 72.7928Z" fill="#EBEBEB"/>
<path d="M224.342 92.3818C224.342 92.3818 222.452 96.6477 226.903 99.9453C227.069 100.072 227.247 100.179 227.426 100.287C229.546 101.54 243.492 109.781 243.62 109.439C243.76 109.072 245.459 104.623 245.459 104.623L228.065 98.1034C228.065 98.1098 223.78 96.3313 224.342 92.3818Z" fill="#E0E0E0"/>
<path d="M221.092 88.5336C221.002 88.7615 216.124 87.1475 210.192 84.9259C204.26 82.7044 199.521 80.7107 199.611 80.4828C199.7 80.255 204.579 81.8689 210.511 84.0905C216.443 86.312 221.181 88.2994 221.092 88.5336Z" fill="#E0E0E0"/>
<path d="M231.098 103.869C231.008 104.097 223.02 101.319 213.257 97.6604C203.493 94.0021 195.645 90.8438 195.735 90.6159C195.824 90.3881 203.806 93.1666 213.576 96.8249C223.346 100.483 231.187 103.642 231.098 103.869Z" fill="#E0E0E0"/>
<path d="M231.053 113.528C230.964 113.756 222.267 110.711 211.622 106.724C200.977 102.736 192.421 99.3123 192.51 99.0845C192.6 98.8566 201.297 101.901 211.941 105.895C222.586 109.876 231.143 113.3 231.053 113.528Z" fill="#E0E0E0"/>
<path d="M228.007 121.515C227.918 121.743 219.221 118.699 208.576 114.711C197.932 110.724 189.375 107.3 189.464 107.072C189.554 106.844 198.251 109.889 208.895 113.882C219.54 117.863 228.097 121.288 228.007 121.515Z" fill="#E0E0E0"/>
<path d="M224.961 129.503C224.872 129.731 216.175 126.686 205.53 122.699C194.886 118.705 186.329 115.287 186.418 115.06C186.508 114.832 195.205 117.876 205.85 121.87C216.488 125.851 225.051 129.275 224.961 129.503Z" fill="#E0E0E0"/>
<path d="M221.915 137.49C221.826 137.718 213.129 134.674 202.484 130.686C191.84 126.699 183.283 123.275 183.373 123.047C183.462 122.819 192.159 125.864 202.804 129.857C213.442 133.838 221.998 137.263 221.915 137.49Z" fill="#E0E0E0"/>
<path d="M98.3879 182.789L37.1701 204.036C35.0501 204.77 32.7321 203.663 31.9914 201.568L1.27714 114.629C0.536421 112.528 1.65388 110.23 3.76749 109.496L64.9853 88.2488C67.1053 87.5146 69.4233 88.6222 70.164 90.7172L100.878 177.662C101.619 179.757 100.508 182.055 98.3879 182.789Z" fill="#EBEBEB"/>
<path d="M65.7768 93.6492L6.55298 114.205L36.9978 200.38L96.2216 179.824L65.7768 93.6492Z" fill="#E0E0E0"/>
<path d="M64.7194 93.2385L5.49561 113.795L35.36 198.327L94.5838 177.77L64.7194 93.2385Z" fill="#FAFAFA"/>
<path d="M94.5758 177.776C94.3268 177.067 82.3029 143.136 64.6342 93.2742L64.7428 93.3248C46.7803 99.5592 26.6851 106.54 5.52996 113.882H5.52358L5.58104 113.762C16.7429 145.516 27.1321 174.839 35.4269 198.296L35.3311 198.251C71.3518 185.802 93.9948 177.972 94.5758 177.776C93.9948 177.979 71.3709 185.859 35.3822 198.403L35.312 198.428L35.2864 198.359C26.9916 174.896 16.628 145.573 5.40864 113.832L5.37671 113.743L5.46611 113.711H5.47249C26.6277 106.369 46.7292 99.4009 64.6917 93.1666L64.7747 93.1413L64.8002 93.2236C82.3668 143.111 94.3332 177.067 94.5758 177.776Z" fill="#E0E0E0"/>
<path d="M73.574 185.067C73.574 185.067 86.76 174.042 89.0461 162.561C89.0461 162.561 85.3872 168.251 77.7693 169.289C77.7693 169.289 77.5074 181.339 73.574 185.067Z" fill="#E0E0E0"/>
<path d="M28.2751 139.807L25.159 140.889C24.0223 141.282 22.7772 140.693 22.3749 139.56L21.283 136.471C20.8871 135.345 21.4809 134.111 22.6239 133.712L25.74 132.63C26.8767 132.237 28.1218 132.826 28.5241 133.959L29.616 137.047C30.0119 138.18 29.4117 139.414 28.2751 139.807Z" fill="#EBEBEB"/>
<path d="M25.3568 137.952C25.3058 137.971 25.2483 137.965 25.21 137.94L23.7796 137.117C23.6966 137.066 23.6647 136.959 23.7158 136.876C23.7668 136.794 23.8754 136.763 23.9584 136.813L25.2164 137.535L26.7233 134.338C26.768 134.25 26.8702 134.212 26.9596 134.256C27.049 134.3 27.0873 134.402 27.0426 134.49L25.4526 137.864C25.4399 137.908 25.4015 137.94 25.3568 137.952Z" fill="white"/>
<path d="M66.2497 119.553C66.2689 119.604 58.5743 122.313 49.0727 125.61C39.5647 128.908 31.851 131.547 31.8318 131.497C31.8127 131.446 39.5072 128.737 49.0088 125.439C58.5169 122.136 66.2369 119.503 66.2497 119.553Z" fill="#E0E0E0"/>
<path d="M48.1915 131.712C48.1979 131.724 48 131.807 47.636 131.946C47.2401 132.092 46.7229 132.281 46.0907 132.516C44.7817 132.984 42.9746 133.623 40.9759 134.319C38.9709 135.016 37.1574 135.636 35.842 136.073C35.2034 136.282 34.6798 136.452 34.2775 136.585C33.9072 136.699 33.7028 136.763 33.6964 136.75C33.6901 136.737 33.888 136.655 34.252 136.516C34.6479 136.37 35.1651 136.18 35.7973 135.946C37.1063 135.478 38.9134 134.838 40.9184 134.142C42.9171 133.446 44.737 132.826 46.0524 132.389C46.6909 132.18 47.2146 132.009 47.6168 131.876C47.9808 131.756 48.1852 131.699 48.1915 131.712Z" fill="#E0E0E0"/>
<path d="M67.0734 121.876C67.0926 121.927 59.3981 124.636 49.8964 127.933C40.3884 131.231 32.6747 133.87 32.6556 133.819C32.6364 133.769 40.3309 131.06 49.8326 127.762C59.3406 124.465 67.0607 121.832 67.0734 121.876Z" fill="#E0E0E0"/>
<path d="M32.7194 152.402L29.6033 153.484C28.4667 153.877 27.2215 153.288 26.8192 152.155L25.7273 149.067C25.3314 147.94 25.9252 146.706 27.0682 146.307L30.1844 145.225C31.321 144.832 32.5662 145.421 32.9685 146.554L34.0604 149.643C34.4563 150.775 33.8624 152.01 32.7194 152.402Z" fill="#EBEBEB"/>
<path d="M29.8075 150.548C29.7564 150.567 29.699 150.56 29.6607 150.535L28.2303 149.712C28.1473 149.662 28.1154 149.554 28.1664 149.472C28.2175 149.389 28.3261 149.358 28.4091 149.408L29.667 150.13L31.174 146.934C31.2187 146.845 31.3209 146.807 31.4103 146.845C31.4997 146.889 31.538 146.991 31.4933 147.079L29.9033 150.453C29.8905 150.503 29.8522 150.535 29.8075 150.548Z" fill="white"/>
<path d="M70.7004 132.148C70.7195 132.199 63.025 134.908 53.5234 138.206C44.0154 141.503 36.3017 144.142 36.2825 144.092C36.2633 144.041 43.9579 141.332 53.4595 138.035C62.9675 134.731 70.6876 132.098 70.7004 132.148Z" fill="#E0E0E0"/>
<path d="M52.6422 144.307C52.6486 144.32 52.4507 144.402 52.0867 144.541C51.6908 144.687 51.1736 144.877 50.5414 145.111C49.2324 145.579 47.4253 146.218 45.4266 146.915C43.4215 147.611 41.6081 148.231 40.2927 148.668C39.6541 148.877 39.1305 149.048 38.7282 149.181C38.3578 149.294 38.1535 149.358 38.1471 149.345C38.1407 149.332 38.3387 149.25 38.7027 149.111C39.0986 148.965 39.6158 148.775 40.248 148.541C41.557 148.073 43.3641 147.434 45.3691 146.737C47.3678 146.041 49.1877 145.421 50.5031 144.984C51.1416 144.775 51.6652 144.604 52.0675 144.472C52.4315 144.351 52.6358 144.294 52.6422 144.307Z" fill="#E0E0E0"/>
<path d="M71.5241 134.471C71.5433 134.522 63.8487 137.231 54.3471 140.528C44.8391 143.826 37.1254 146.465 37.1062 146.415C37.0871 146.364 44.7816 143.655 54.2832 140.358C63.7913 137.06 71.505 134.421 71.5241 134.471Z" fill="#E0E0E0"/>
<path d="M37.1701 164.997L34.054 166.08C32.9174 166.472 31.6722 165.883 31.2699 164.75L30.178 161.662C29.7821 160.535 30.3759 159.301 31.5189 158.902L34.6351 157.82C35.7717 157.428 37.0169 158.016 37.4191 159.149L38.5111 162.238C38.907 163.371 38.3067 164.605 37.1701 164.997Z" fill="#EBEBEB"/>
<path d="M34.2582 163.143C34.2518 163.143 34.2518 163.143 34.2582 163.143C34.2071 163.162 34.1496 163.155 34.1113 163.13L32.681 162.307C32.598 162.257 32.566 162.149 32.6171 162.067C32.6682 161.985 32.7768 161.953 32.8598 162.004L34.1177 162.725L35.6247 159.529C35.6694 159.44 35.7716 159.402 35.861 159.447C35.9504 159.491 35.9887 159.592 35.9504 159.681L34.3604 163.054C34.3412 163.099 34.3029 163.13 34.2582 163.143Z" fill="white"/>
<path d="M75.1511 144.744C75.1702 144.794 67.4757 147.503 57.9741 150.801C48.466 154.098 40.7523 156.738 40.7332 156.687C40.714 156.636 48.4086 153.927 57.9102 150.63C67.4182 147.326 75.1319 144.693 75.1511 144.744Z" fill="#E0E0E0"/>
<path d="M57.0929 156.902C57.0993 156.915 56.9013 156.997 56.5374 157.136C56.1415 157.282 55.6242 157.472 54.9921 157.706C53.683 158.174 51.8759 158.814 49.8773 159.51C47.8722 160.206 46.0588 160.826 44.7433 161.263C44.1048 161.472 43.5812 161.643 43.1789 161.776C42.8085 161.89 42.6042 161.953 42.5978 161.94C42.5914 161.928 42.7894 161.845 43.1533 161.706C43.5492 161.561 44.0665 161.371 44.6986 161.136C46.0077 160.668 47.8148 160.029 49.8198 159.333C51.8185 158.636 53.6383 158.016 54.9538 157.579C55.5923 157.371 56.1159 157.2 56.5182 157.067C56.8822 156.946 57.0865 156.89 57.0929 156.902Z" fill="#E0E0E0"/>
<path d="M75.9748 147.067C75.994 147.117 68.2994 149.826 58.7978 153.124C49.2898 156.421 41.5761 159.06 41.5569 159.01C41.5378 158.959 49.2323 156.25 58.7339 152.953C68.2356 149.655 75.9556 147.016 75.9748 147.067Z" fill="#E0E0E0"/>
<path d="M41.6208 177.593L38.5047 178.675C37.368 179.067 36.1229 178.479 35.7206 177.346L34.6287 174.257C34.2328 173.13 34.8266 171.896 35.9696 171.497L39.0857 170.415C40.2224 170.023 41.4675 170.611 41.8698 171.744L42.9617 174.833C43.3576 175.966 42.7574 177.2 41.6208 177.593Z" fill="#EBEBEB"/>
<path d="M38.7025 175.738C38.6515 175.757 38.594 175.751 38.5557 175.725L37.1253 174.903C37.0423 174.852 37.0104 174.744 37.0615 174.662C37.1126 174.58 37.2211 174.548 37.3041 174.599L38.5684 175.32L40.0754 172.124C40.1201 172.035 40.2223 171.997 40.3117 172.042C40.4011 172.086 40.4394 172.187 40.3947 172.276L38.8047 175.649C38.7856 175.687 38.7536 175.725 38.7025 175.738Z" fill="white"/>
<path d="M79.6018 157.333C79.6209 157.383 71.9264 160.092 62.4247 163.39C52.9167 166.687 45.203 169.327 45.1839 169.276C45.1647 169.225 52.8593 166.516 62.3609 163.219C71.8689 159.921 79.5826 157.288 79.6018 157.333Z" fill="#E0E0E0"/>
<path d="M61.5436 169.497C61.55 169.51 61.352 169.592 60.988 169.732C60.5921 169.877 60.0749 170.067 59.4428 170.301C58.1337 170.77 56.3266 171.409 54.328 172.105C52.3229 172.801 50.5094 173.422 49.194 173.858C48.5555 174.067 48.0319 174.238 47.6296 174.371C47.2592 174.485 47.0549 174.548 47.0485 174.535C47.0421 174.523 47.2401 174.441 47.604 174.301C47.9999 174.156 48.5172 173.966 49.1493 173.732C50.4584 173.263 52.2654 172.624 54.2705 171.928C56.2692 171.232 58.089 170.611 59.4044 170.175C60.043 169.966 60.5666 169.795 60.9689 169.662C61.3265 169.542 61.5372 169.485 61.5436 169.497Z" fill="#E0E0E0"/>
<path d="M80.4255 159.662C80.4446 159.712 72.7501 162.421 63.2485 165.719C53.7405 169.016 46.0268 171.656 46.0076 171.605C45.9884 171.554 53.683 168.845 63.1846 165.548C72.6862 162.25 80.4063 159.611 80.4255 159.662Z" fill="#E0E0E0"/>
<path d="M12.2029 105.566L13.7673 109.99C14.6741 112.559 17.5092 113.908 20.1018 113.009L52.8594 101.642C55.4519 100.743 56.812 97.9326 55.9053 95.3629L54.3472 90.9451L12.2029 105.566Z" fill="#E0E0E0"/>
<path d="M33.7091 99.5655C31.2826 100.407 28.6199 99.1351 27.7706 96.73C26.9213 94.3249 28.2048 91.6856 30.6313 90.8438C33.0578 90.002 35.7205 91.2742 36.5698 93.6793C37.4127 96.0844 36.1292 98.7237 33.7091 99.5655ZM31.2188 92.521C29.7246 93.04 28.9328 94.6667 29.4564 96.1477C29.98 97.6287 31.6211 98.4136 33.1153 97.8946C34.6095 97.3756 35.4013 95.749 34.8777 94.2679C34.354 92.7805 32.713 92.002 31.2188 92.521Z" fill="#E0E0E0"/>
<path d="M59.8898 111.047C59.9217 111.129 51.2822 114.205 40.5992 117.914C29.9163 121.623 21.232 124.56 21.2 124.477C21.1681 124.395 29.8077 121.319 40.4907 117.61C51.1736 113.895 59.8579 110.958 59.8898 111.047Z" fill="#E0E0E0"/>
<path d="M48.83 112.616C48.862 112.699 45.0562 114.097 40.3373 115.737C35.6184 117.376 31.768 118.636 31.736 118.553C31.7041 118.471 35.5099 117.072 40.2288 115.433C44.9477 113.794 48.7981 112.534 48.83 112.616Z" fill="#E0E0E0"/>
<path d="M219.004 240.872C221.296 239.702 223.997 239.55 226.545 239.967C227.911 240.189 229.342 240.594 230.268 241.613C231.2 242.632 231.372 244.423 230.306 245.297C229.667 245.816 228.78 245.898 227.956 245.885C225.964 245.86 223.754 245.512 222.158 246.702C221.251 247.379 220.645 248.505 219.559 248.841C218.499 249.17 217.299 248.543 216.737 247.594C216.175 246.645 216.156 245.455 216.417 244.385C216.417 244.385 216.698 242.05 219.004 240.872Z" fill="#FFD36C"/>
<path d="M213.755 230.815C215.16 232.803 217.88 232.144 219.144 230.929C220.409 229.72 220.945 227.961 221.43 226.283C222.541 222.454 223.659 218.442 222.835 214.543C222.586 213.378 222.145 212.214 221.322 211.353C220.498 210.486 219.227 209.973 218.065 210.277C216.692 210.638 215.836 211.973 215.217 213.239C213.404 216.967 212.439 221.106 212.427 225.245C212.42 227.189 212.65 229.22 213.755 230.815Z" fill="#FFD36C"/>
<path d="M209.898 233.663C211.418 231.872 211.711 229.258 211.035 227.018C210.358 224.771 208.825 222.866 207.063 221.309C204.994 219.48 202.561 218.062 199.949 217.15C198.921 216.79 197.836 216.511 196.75 216.612C195.665 216.714 194.573 217.264 194.068 218.22C193.321 219.638 194.036 221.353 194.815 222.752C196.182 225.22 197.746 227.581 199.49 229.803C200.888 231.594 202.491 233.36 204.63 234.163C206.763 234.974 208.978 234.879 210.115 233.41" fill="#FFD36C"/>
<path d="M213.659 260.765C213.684 260.765 213.729 260.442 213.787 259.86C213.85 259.202 213.933 258.379 214.029 257.398C214.144 256.36 214.297 255.132 214.591 253.784C214.879 252.442 215.332 250.993 215.913 249.525C216.513 248.062 217.248 246.733 218.11 245.67C218.959 244.6 219.955 243.828 220.887 243.385C221.813 242.929 222.65 242.746 223.224 242.664C223.805 242.607 224.131 242.556 224.131 242.531C224.131 242.505 223.805 242.499 223.212 242.518C222.618 242.556 221.756 242.708 220.772 243.145C219.789 243.575 218.735 244.36 217.841 245.455C216.941 246.543 216.181 247.898 215.568 249.392C214.974 250.892 214.527 252.354 214.253 253.721C213.978 255.088 213.85 256.335 213.767 257.379C213.691 258.423 213.659 259.272 213.646 259.854C213.627 260.436 213.633 260.759 213.659 260.765Z" fill="#263238"/>
<path d="M213.825 258.866C213.838 258.866 213.844 258.721 213.851 258.449C213.851 258.132 213.851 257.74 213.844 257.253C213.844 256.215 213.844 254.708 213.895 252.854C213.991 249.138 214.31 245.145 214.936 239.512C215.524 234.214 216.315 228.049 217.152 224.043C217.331 223.132 217.51 222.309 217.682 221.593C217.842 220.872 217.982 220.252 218.116 219.752C218.231 219.277 218.327 218.891 218.397 218.587C218.455 218.321 218.487 218.176 218.474 218.176C218.461 218.169 218.41 218.309 218.327 218.568C218.237 218.872 218.116 219.252 217.976 219.714C217.822 220.214 217.663 220.828 217.478 221.543C217.286 222.258 217.088 223.075 216.89 223.986C216.066 227.619 215.185 232.695 214.559 238.341C213.934 243.986 213.653 249.126 213.627 252.847C213.608 254.708 213.646 256.215 213.691 257.253C213.723 257.74 213.748 258.132 213.768 258.449C213.8 258.727 213.812 258.866 213.825 258.866Z" fill="#263238"/>
<path d="M213.851 248.955C213.876 248.955 213.87 248.512 213.844 247.702C213.799 246.898 213.685 245.74 213.455 244.316C213.212 242.898 212.874 241.208 212.344 239.379C212.114 238.543 211.571 236.537 210.262 233.537C208.538 229.473 206.188 226.157 204.145 224.1C203.666 223.556 203.136 223.163 202.708 222.777C202.484 222.594 202.293 222.41 202.095 222.264C201.897 222.125 201.712 221.999 201.539 221.885C200.869 221.429 200.492 221.188 200.479 221.214C200.422 221.296 201.986 222.207 203.959 224.29C205.926 226.372 208.206 229.67 209.923 233.695C210.881 235.879 211.545 237.828 212.018 239.48C212.567 241.296 212.925 242.961 213.199 244.366C213.461 245.778 213.608 246.923 213.704 247.721C213.774 248.512 213.825 248.955 213.851 248.955Z" fill="#263238"/>
<path d="M204.189 266.443L205.185 280.05H222.829L223.831 266.443H204.189Z" fill="#263238"/>
<path d="M225.938 261.075H202.484V266.443H225.938V261.075Z" fill="#263238"/>
<path d="M202.484 279.531V281.019H203.583H225.549V279.531H202.484Z" fill="#455A64"/>
<path d="M204.662 283.633L203.583 281.019H224.706L223.448 283.633H204.662Z" fill="#455A64"/>
<path d="M223.499 270.892C223.505 270.898 223.473 270.936 223.416 271.019C223.346 271.114 223.256 271.228 223.154 271.367C222.905 271.683 222.56 272.12 222.126 272.671L222.081 272.728L222.037 272.664C221.392 271.778 220.53 270.595 219.514 269.202H219.661C218.908 270.259 218.071 271.43 217.177 272.69L217.101 272.797L217.011 272.696C216.092 271.614 215.096 270.443 214.061 269.221H214.234C214.183 269.284 214.125 269.354 214.074 269.424C213.161 270.557 212.273 271.658 211.437 272.696L211.347 272.804L211.264 272.69C210.37 271.436 209.534 270.265 208.78 269.202L208.927 269.208C207.701 270.595 206.66 271.766 205.862 272.664L205.805 272.728L205.766 272.658C205.364 271.987 205.039 271.449 204.809 271.063C204.706 270.892 204.63 270.747 204.56 270.639C204.509 270.544 204.477 270.487 204.483 270.487C204.489 270.487 204.521 270.531 204.585 270.62C204.655 270.728 204.745 270.86 204.86 271.031C205.102 271.411 205.441 271.936 205.869 272.601L205.773 272.595C206.558 271.683 207.58 270.493 208.787 269.095L208.863 269.006L208.934 269.101C209.694 270.158 210.543 271.322 211.443 272.569L211.277 272.563C212.114 271.519 212.995 270.424 213.908 269.284C213.965 269.215 214.017 269.145 214.068 269.082L214.151 268.981L214.24 269.082C215.274 270.303 216.264 271.481 217.177 272.563L217.011 272.569C217.918 271.316 218.761 270.145 219.521 269.101L219.597 269L219.668 269.101C220.664 270.506 221.507 271.702 222.139 272.601H222.05C222.503 272.063 222.86 271.639 223.116 271.329C223.231 271.196 223.327 271.088 223.403 271C223.461 270.924 223.499 270.886 223.499 270.892Z" fill="#E0E0E0"/>
<path d="M224.074 266.354C224.074 266.417 219.655 266.462 214.202 266.462C208.749 266.462 204.33 266.411 204.33 266.354C204.33 266.297 208.749 266.246 214.202 266.246C219.655 266.246 224.074 266.291 224.074 266.354Z" fill="#455A64"/>
<path d="M224.968 281.164C224.968 281.228 220.166 281.272 214.24 281.272C208.314 281.272 203.512 281.221 203.512 281.164C203.512 281.107 208.314 281.057 214.24 281.057C220.159 281.057 224.968 281.101 224.968 281.164Z" fill="#263238"/>
<path d="M50.969 237.746C50.9179 237.803 50.5156 237.569 50.0686 237.208C49.6217 236.853 49.296 236.518 49.3471 236.455C49.3982 236.398 49.8004 236.638 50.2474 236.993C50.6944 237.353 51.0137 237.689 50.969 237.746Z" fill="#263238"/>
<path d="M63.2037 219.625C63.2803 217.929 63.325 216.195 62.7886 214.587C62.2523 212.979 61.0007 211.498 59.3213 211.157C57.4121 210.764 55.4517 211.96 54.3789 213.574C53.3062 215.188 52.9422 217.157 52.6229 219.062C50.4455 232.214 49.6409 245.588 50.2284 258.904L58.0506 259.993C61.4796 246.088 62.5779 233.929 63.2037 219.625Z" fill="#455A64"/>
<path d="M58.2358 211.093C58.2421 211.093 58.2294 211.138 58.1974 211.22C58.1655 211.315 58.1208 211.429 58.0697 211.574C57.942 211.903 57.7696 212.346 57.5461 212.916C57.4376 213.207 57.2907 213.524 57.1758 213.884C57.0608 214.245 56.9331 214.638 56.799 215.055C56.6649 215.479 56.5181 215.929 56.3584 216.404C56.2307 216.891 56.0966 217.404 55.9561 217.942C55.3687 220.087 54.877 222.701 54.4428 225.613C54.0213 228.53 53.7404 231.758 53.5233 235.151C53.121 241.942 53.0635 248.107 52.8847 252.563C52.8017 254.79 52.7251 256.594 52.6357 257.841C52.5974 258.442 52.559 258.923 52.5399 259.272C52.5271 259.423 52.5143 259.544 52.508 259.645C52.5016 259.727 52.4952 259.772 52.4888 259.772C52.4824 259.772 52.4824 259.727 52.4824 259.645C52.4824 259.544 52.4824 259.423 52.4888 259.272C52.5016 258.923 52.5143 258.442 52.5335 257.835C52.5846 256.588 52.6357 254.784 52.6931 252.556C52.8209 248.1 52.8528 241.936 53.2487 235.132C53.4658 231.733 53.7531 228.499 54.1937 225.575C54.6407 222.657 55.1516 220.043 55.771 217.891C55.9178 217.353 56.0583 216.84 56.1924 216.353C56.352 215.878 56.5117 215.429 56.6522 215.005C56.799 214.587 56.9331 214.195 57.0544 213.834C57.1758 213.473 57.329 213.163 57.4503 212.872C57.693 212.315 57.8782 211.872 58.0187 211.549C58.0825 211.41 58.1336 211.302 58.1719 211.207C58.2102 211.131 58.2294 211.093 58.2358 211.093Z" fill="#263238"/>
<path d="M58.9572 211.1C58.9572 211.1 59.4361 211.587 59.9151 212.701C60.4067 213.809 60.7132 215.568 60.6302 217.714C60.4195 221.999 60.0364 227.897 59.5191 234.417C59.0019 240.936 58.4272 246.822 57.9675 251.082C57.7376 253.208 57.5396 254.93 57.3928 256.12C57.3161 256.696 57.2587 257.151 57.214 257.487C57.1948 257.626 57.1757 257.746 57.1629 257.841C57.1501 257.923 57.1374 257.961 57.1374 257.961C57.131 257.961 57.131 257.917 57.1374 257.841C57.1437 257.746 57.1501 257.626 57.1629 257.48C57.1948 257.145 57.2331 256.683 57.2906 256.107C57.4055 254.892 57.578 253.17 57.7823 251.056C58.191 246.797 58.7337 240.904 59.251 234.385C59.7618 227.872 60.1832 221.967 60.4387 217.701C60.5472 215.568 60.279 213.84 59.8193 212.733C59.3723 211.631 58.9253 211.119 58.9572 211.1Z" fill="#263238"/>
<path d="M64.3786 231.157C64.3531 231.227 63.689 231.062 62.8972 230.777C62.1054 230.492 61.486 230.208 61.5115 230.138C61.537 230.068 62.2011 230.233 62.9929 230.518C63.7847 230.803 64.4041 231.087 64.3786 231.157Z" fill="#263238"/>
<path d="M65.3237 223.258C65.3557 223.328 64.7235 223.676 63.9125 224.037C63.1016 224.397 62.4183 224.632 62.3864 224.562C62.3545 224.492 62.9867 224.144 63.7976 223.783C64.6086 223.423 65.2918 223.188 65.3237 223.258Z" fill="#263238"/>
<path d="M64.8321 216.815C64.8257 216.891 64.3021 216.916 63.6635 216.872C63.025 216.828 62.5142 216.733 62.5142 216.657C62.5205 216.581 63.0442 216.555 63.6827 216.6C64.3276 216.638 64.8385 216.739 64.8321 216.815Z" fill="#263238"/>
<path d="M56.7608 212.682C56.6969 212.72 56.3521 212.302 55.9945 211.739C55.6369 211.176 55.4007 210.688 55.4645 210.644C55.5284 210.606 55.8732 211.024 56.2308 211.587C56.5947 212.15 56.831 212.644 56.7608 212.682Z" fill="#263238"/>
<path d="M54.0981 216.581C54.0981 216.657 53.6 216.707 52.987 216.695C52.374 216.682 51.8823 216.612 51.8823 216.53C51.8823 216.454 52.3804 216.404 52.9934 216.416C53.6064 216.429 54.0981 216.505 54.0981 216.581Z" fill="#263238"/>
<path d="M52.1822 224.378C52.1503 224.448 51.633 224.309 51.0137 224.062C50.3943 223.815 49.9217 223.556 49.9473 223.486C49.9792 223.416 50.4964 223.556 51.1158 223.802C51.7352 224.056 52.2141 224.309 52.1822 224.378Z" fill="#263238"/>
<path d="M51.978 230.942C51.9908 231.018 51.5502 231.17 50.9819 231.29C50.4135 231.41 49.9474 231.442 49.9282 231.366C49.9155 231.29 50.3561 231.138 50.9244 231.018C51.4927 230.898 51.9652 230.866 51.978 230.942Z" fill="#263238"/>
<path d="M51.0777 241.67C51.0905 241.746 50.618 241.891 50.0241 241.999C49.4239 242.107 48.9322 242.132 48.9194 242.056C48.9067 241.98 49.3792 241.834 49.9731 241.727C50.5669 241.619 51.065 241.594 51.0777 241.67Z" fill="#263238"/>
<path d="M50.4774 247.594C50.5157 247.664 50.1198 247.936 49.5962 248.214C49.0726 248.487 48.6192 248.657 48.5873 248.588C48.549 248.518 48.9449 248.246 49.4685 247.968C49.9921 247.695 50.4455 247.524 50.4774 247.594Z" fill="#263238"/>
<path d="M55.356 254.316C55.2921 254.354 54.9473 253.885 54.5897 253.265C54.2321 252.645 53.9958 252.113 54.0661 252.075C54.1299 252.037 54.4748 252.506 54.8323 253.126C55.1899 253.746 55.4262 254.278 55.356 254.316Z" fill="#263238"/>
<path d="M56.7672 243.145C56.8183 243.202 56.4415 243.657 55.9115 244.17C55.3879 244.683 54.9154 245.05 54.8579 244.999C54.8068 244.942 55.1836 244.486 55.7136 243.974C56.2436 243.461 56.7097 243.088 56.7672 243.145Z" fill="#263238"/>
<path d="M56.4543 237.284C56.3968 237.334 56.0456 237.05 55.6625 236.638C55.2794 236.233 55.0176 235.86 55.075 235.803C55.1325 235.752 55.4837 236.037 55.8668 236.448C56.25 236.86 56.5118 237.233 56.4543 237.284Z" fill="#263238"/>
<path d="M57.4248 229.79C57.4823 229.841 57.163 230.29 56.7096 230.784C56.2563 231.284 55.8476 231.644 55.7901 231.594C55.7327 231.543 56.0519 231.1 56.5053 230.6C56.9523 230.106 57.3674 229.739 57.4248 229.79Z" fill="#263238"/>
<path d="M57.9676 224.359C57.9165 224.416 57.4696 224.068 56.9715 223.587C56.4734 223.106 56.1158 222.669 56.1733 222.613C56.2244 222.556 56.6714 222.904 57.1694 223.385C57.6675 223.866 58.0251 224.302 57.9676 224.359Z" fill="#263238"/>
<path d="M59.0405 217.011C59.1043 217.049 58.8808 217.543 58.5424 218.112C58.1976 218.682 57.8719 219.112 57.8017 219.068C57.7378 219.03 57.9613 218.536 58.2997 217.967C58.6446 217.397 58.9702 216.967 59.0405 217.011Z" fill="#263238"/>
<path d="M61.0519 210.201C61.1221 210.239 60.9242 210.733 60.6113 211.302C60.2984 211.872 59.9919 212.309 59.9216 212.271C59.8514 212.233 60.0493 211.739 60.3622 211.169C60.6751 210.6 60.9816 210.163 61.0519 210.201Z" fill="#263238"/>
<path d="M63.3379 213.29C63.3698 213.359 63.0569 213.574 62.6419 213.777C62.2204 213.973 61.8564 214.081 61.8245 214.011C61.7926 213.941 62.1055 213.726 62.5205 213.524C62.9356 213.327 63.3059 213.226 63.3379 213.29Z" fill="#263238"/>
<path d="M63.3953 237.746C63.3825 237.815 62.6737 237.72 61.8627 237.379C61.0582 237.037 60.4962 236.6 60.5346 236.537C60.5793 236.467 61.1923 236.796 61.9713 237.125C62.7503 237.455 63.408 237.67 63.3953 237.746Z" fill="#263238"/>
<path d="M62.4567 242.929C62.4694 243.005 62.0033 243.157 61.403 243.271C60.8092 243.385 60.3111 243.417 60.2984 243.341C60.2856 243.265 60.7517 243.113 61.352 242.999C61.9522 242.885 62.4439 242.853 62.4567 242.929Z" fill="#263238"/>
<path d="M61.3136 251.809C61.2689 251.866 60.6687 251.461 60.1259 250.771C59.5768 250.088 59.315 249.417 59.3788 249.385C59.4491 249.347 59.813 249.936 60.343 250.6C60.8666 251.265 61.3647 251.746 61.3136 251.809Z" fill="#263238"/>
<path d="M48.7405 255.873C48.6894 255.816 49.0087 255.461 49.4493 255.088C49.8899 254.715 50.2922 254.455 50.3432 254.512C50.3943 254.569 50.075 254.923 49.6344 255.297C49.1875 255.67 48.7916 255.93 48.7405 255.873Z" fill="#263238"/>
<path d="M45.1264 236.486C44.6156 234.91 43.6642 233.075 41.9912 233.049C41.0014 233.037 40.1074 233.739 39.6477 234.606C39.1815 235.474 38.9836 236.48 39.0155 237.461C39.2071 243.942 40.3373 251.354 42.6042 258.107H48.7087C48.6257 250.6 47.438 243.632 45.1264 236.486Z" fill="#455A64"/>
<path d="M34.0858 226.568C33.2301 223.182 30.6887 221.359 27.7322 221.188C25.0311 221.657 23.9839 224.29 23.6646 226.986C23.3454 229.682 24.1882 232.366 25.0247 234.955C27.7067 243.259 30.3822 251.563 33.0641 259.873C35.5928 259.601 38.1278 259.322 40.6565 259.05C38.2491 247.923 36.8699 237.613 34.0858 226.568Z" fill="#455A64"/>
<path d="M41.9975 233.049C42.023 233.068 41.7485 233.322 41.4803 233.904C41.2185 234.493 41.0908 235.429 41.1929 236.581C41.3143 237.733 41.442 239.119 41.6399 240.632C41.8379 242.151 42.1124 243.816 42.4573 245.556C43.1469 249.031 43.9259 252.151 44.4176 254.423C44.6666 255.563 44.8582 256.48 44.9732 257.12C45.0242 257.411 45.0689 257.658 45.1009 257.86C45.1264 258.031 45.1392 258.12 45.1264 258.12C45.1136 258.12 45.0881 258.037 45.0434 257.873C44.9923 257.677 44.9348 257.436 44.8646 257.145C44.705 256.468 44.4879 255.569 44.2197 254.468C43.6769 252.208 42.8659 249.094 42.1763 245.607C41.8315 243.866 41.5633 242.189 41.3781 240.664C41.2823 239.898 41.2185 239.17 41.1546 238.486C41.0972 237.809 41.0269 237.176 40.9886 236.588C40.9056 235.423 41.0652 234.448 41.3717 233.853C41.6846 233.271 41.9975 233.049 41.9975 233.049Z" fill="#263238"/>
<path d="M27.8409 220.973C27.8664 220.999 27.4386 221.353 26.9214 222.195C26.4105 223.024 25.8678 224.378 25.7656 226.132C25.6506 227.885 26.0465 229.961 26.7043 232.195C27.3683 234.436 28.1027 236.891 28.8689 239.474C30.3823 244.632 31.7552 249.303 32.7577 252.721C33.2366 254.398 33.6261 255.765 33.9071 256.746C34.0284 257.202 34.1306 257.569 34.2072 257.841C34.2711 258.094 34.303 258.227 34.2902 258.227C34.2839 258.227 34.2328 258.101 34.1498 257.854C34.0604 257.582 33.9454 257.221 33.7986 256.771C33.4984 255.797 33.077 254.442 32.5662 252.771C31.5445 249.36 30.146 244.702 28.6008 239.55C27.8409 236.967 27.1129 234.505 26.4552 232.258C25.8039 230.018 25.4208 227.897 25.5676 226.113C25.6953 224.328 26.2764 222.954 26.8256 222.131C27.3811 221.302 27.8409 220.973 27.8409 220.973Z" fill="#263238"/>
<path d="M38.9964 258.246C38.99 258.253 38.9261 258.126 38.824 257.885C38.7218 257.645 38.5622 257.291 38.3898 256.828C38.0258 255.904 37.566 254.544 37.0807 252.828C36.5954 251.119 36.1229 249.056 35.6631 246.759C35.2225 244.455 34.7373 241.923 34.2328 239.271C33.7028 236.619 33.1153 234.113 32.4321 231.872C31.7488 229.632 30.989 227.663 30.2163 226.075C29.4501 224.48 28.7157 223.245 28.1666 222.416C27.9048 221.992 27.6685 221.688 27.528 221.467C27.3811 221.252 27.3109 221.131 27.3173 221.125C27.3237 221.119 27.4131 221.226 27.5727 221.429C27.726 221.638 27.9814 221.935 28.256 222.347C28.837 223.157 29.5969 224.385 30.3887 225.98C31.1869 227.575 31.9723 229.543 32.6683 231.79C33.3708 234.037 33.9646 236.55 34.4946 239.208C34.9927 241.866 35.4716 244.398 35.9058 246.702C36.3528 248.999 36.7998 251.063 37.2595 252.771C37.7129 254.48 38.1471 255.847 38.4792 256.784C38.6324 257.253 38.7793 257.613 38.8623 257.86C38.9645 258.113 39.0092 258.24 38.9964 258.246Z" fill="#263238"/>
<path d="M25.159 233.714C25.1781 233.79 24.7631 233.955 24.2331 234.081C23.7031 234.208 23.2625 234.252 23.2433 234.176C23.2242 234.1 23.6392 233.936 24.1692 233.809C24.6992 233.682 25.1398 233.638 25.159 233.714Z" fill="#263238"/>
<path d="M24.3543 228.575C24.3479 228.651 23.7732 228.682 23.0708 228.714C22.3684 228.739 21.7937 228.752 21.781 228.676C21.7682 228.6 22.3429 228.461 23.0581 228.435C23.7796 228.41 24.3607 228.499 24.3543 228.575Z" fill="#263238"/>
<path d="M25.2101 223.885C25.159 223.942 24.7503 223.676 24.2906 223.29C23.8308 222.904 23.4988 222.543 23.5499 222.486C23.6009 222.429 24.0096 222.695 24.4694 223.081C24.9291 223.467 25.2612 223.828 25.2101 223.885Z" fill="#263238"/>
<path d="M27.528 219.536C27.6046 219.555 27.5854 219.923 27.5727 220.359C27.5599 220.802 27.5599 221.169 27.4833 221.182C27.4066 221.195 27.2789 220.828 27.2981 220.353C27.3045 219.885 27.4513 219.524 27.528 219.536Z" fill="#263238"/>
<path d="M32.2596 221.587C32.3235 221.631 32.1383 222.005 31.8445 222.416C31.5508 222.828 31.2635 223.132 31.1996 223.087C31.1357 223.043 31.3209 222.669 31.6147 222.258C31.9084 221.84 32.1957 221.543 32.2596 221.587Z" fill="#263238"/>
<path d="M35.3373 226.878C35.3692 226.948 34.9733 227.176 34.4561 227.385C33.9389 227.594 33.4983 227.701 33.4728 227.632C33.4408 227.562 33.8367 227.334 34.354 227.125C34.8648 226.916 35.3054 226.809 35.3373 226.878Z" fill="#263238"/>
<path d="M37.1957 232.322C37.2276 232.391 36.704 232.682 35.9888 232.841C35.2736 233.005 34.6798 232.961 34.6734 232.885C34.667 232.809 35.2417 232.727 35.925 232.568C36.621 232.417 37.1701 232.246 37.1957 232.322Z" fill="#263238"/>
<path d="M28.6391 230.777C28.5625 230.752 28.62 230.379 28.7604 229.935C28.9009 229.492 29.0733 229.157 29.1436 229.176C29.2202 229.201 29.1627 229.575 29.0223 230.018C28.8882 230.461 28.7157 230.796 28.6391 230.777Z" fill="#263238"/>
<path d="M29.8332 237.607C29.763 237.575 29.9162 237.069 30.178 236.474C30.4398 235.879 30.708 235.423 30.7782 235.455C30.8485 235.486 30.6952 235.993 30.4334 236.588C30.1716 237.182 29.9034 237.638 29.8332 237.607Z" fill="#263238"/>
<path d="M26.883 239.48C26.8511 239.55 26.3722 239.423 25.7911 239.239C25.21 239.056 24.7375 238.891 24.7567 238.815C24.7694 238.739 25.2803 238.79 25.8741 238.974C26.468 239.164 26.915 239.41 26.883 239.48Z" fill="#263238"/>
<path d="M28.5879 245.05C28.6326 245.113 28.3069 245.417 27.8599 245.733C27.413 246.05 27.0171 246.252 26.9724 246.189C26.9277 246.126 27.2533 245.822 27.7003 245.505C28.1409 245.195 28.5432 244.993 28.5879 245.05Z" fill="#263238"/>
<path d="M29.948 250.607C29.9671 250.683 29.5649 250.841 29.0476 250.968C28.5304 251.094 28.1026 251.132 28.0834 251.056C28.0643 250.98 28.4666 250.822 28.9838 250.695C29.501 250.575 29.9288 250.531 29.948 250.607Z" fill="#263238"/>
<path d="M37.3488 236.961C37.3872 237.024 37.0423 237.296 36.5443 237.486C36.0462 237.676 35.6056 237.695 35.5928 237.619C35.5801 237.543 35.9696 237.404 36.4485 237.227C36.921 237.05 37.3105 236.891 37.3488 236.961Z" fill="#263238"/>
<path d="M38.4089 245.607C38.3769 245.676 37.9683 245.556 37.4957 245.335C37.0232 245.113 36.6656 244.879 36.6975 244.809C36.7295 244.74 37.1381 244.86 37.6107 245.081C38.0832 245.303 38.4408 245.537 38.4089 245.607Z" fill="#263238"/>
<path d="M40.2735 251.79C40.2479 251.86 39.7051 251.721 39.0666 251.468C38.428 251.221 37.93 250.961 37.9619 250.892C37.9874 250.822 38.5302 250.961 39.1688 251.214C39.8073 251.461 40.299 251.721 40.2735 251.79Z" fill="#263238"/>
<path d="M30.2482 256.632C30.2099 256.563 30.7079 256.234 31.2826 255.778C31.8573 255.328 32.3043 254.93 32.3618 254.98C32.4192 255.031 32.0553 255.531 31.455 255.993C30.8612 256.468 30.2801 256.702 30.2482 256.632Z" fill="#263238"/>
<path d="M35.1841 253.493C35.1074 253.499 34.9989 253.088 34.8073 252.601C34.6221 252.113 34.4178 251.74 34.4817 251.689C34.5391 251.645 34.8648 251.974 35.0691 252.499C35.2671 253.025 35.2543 253.487 35.1841 253.493Z" fill="#263238"/>
<path d="M33.8751 246.05C33.8304 246.113 33.5111 245.961 33.1663 245.714C32.8151 245.467 32.5724 245.214 32.6171 245.151C32.6618 245.088 32.9811 245.24 33.3259 245.486C33.6707 245.74 33.9198 245.986 33.8751 246.05Z" fill="#263238"/>
<path d="M45.3754 234.391C45.4201 234.455 45.1136 234.758 44.6794 235.069C44.2515 235.385 43.8684 235.588 43.8173 235.524C43.7726 235.461 44.0791 235.157 44.5133 234.847C44.9412 234.537 45.3307 234.334 45.3754 234.391Z" fill="#263238"/>
<path d="M47.1059 239.094C47.1123 239.17 46.627 239.271 46.0267 239.201C45.4265 239.138 44.9731 238.936 44.9923 238.866C45.0178 238.79 45.484 238.866 46.0523 238.929C46.627 238.986 47.0995 239.012 47.1059 239.094Z" fill="#263238"/>
<path d="M39.6604 240.145C39.6796 240.22 39.2262 240.379 38.6452 240.417C38.0641 240.455 37.5979 240.36 37.6043 240.284C37.6107 240.208 38.0705 240.183 38.626 240.145C39.1815 240.1 39.6413 240.069 39.6604 240.145Z" fill="#263238"/>
<path d="M40.2988 235.701C40.2924 235.777 39.8391 235.784 39.341 235.556C38.8429 235.328 38.5556 234.98 38.6067 234.929C38.6578 234.872 39.0026 235.1 39.4559 235.303C39.9093 235.518 40.3052 235.625 40.2988 235.701Z" fill="#263238"/>
<path d="M47.7445 244.132C47.7062 244.195 47.24 243.98 46.7037 243.645C46.1673 243.309 45.7714 242.993 45.8097 242.923C45.848 242.86 46.3141 243.075 46.8505 243.41C47.3869 243.746 47.7892 244.069 47.7445 244.132Z" fill="#263238"/>
<path d="M65.9241 257.316H26.1743V264.297H65.9241V257.316Z" fill="#FFD36C"/>
<path d="M29.1436 262.911L33.9774 283.778H57.6676L62.9612 262.911H29.1436Z" fill="#FFD36C"/>
<path d="M65.9049 264.303C65.9049 264.379 56.9396 264.443 45.8799 264.443C34.8202 264.443 25.855 264.379 25.855 264.303C25.855 264.227 34.8202 264.164 45.8799 264.164C56.9396 264.17 65.9049 264.227 65.9049 264.303Z" fill="#263238"/>
<path d="M43.7983 240.296C43.7344 240.334 43.4598 240.024 43.1916 239.594C42.9235 239.164 42.7574 238.784 42.8213 238.746C42.8851 238.708 43.1597 239.018 43.4279 239.448C43.6961 239.879 43.8621 240.258 43.7983 240.296Z" fill="#263238"/>
<path d="M43.8109 245.917C43.7407 245.892 43.8301 245.417 44.0217 244.854C44.2068 244.29 44.4239 243.854 44.4942 243.879C44.5644 243.904 44.475 244.379 44.2835 244.942C44.0983 245.505 43.8876 245.942 43.8109 245.917Z" fill="#263238"/>
<path d="M45.7522 251.816C45.682 251.847 45.3882 251.379 45.0881 250.765C44.7944 250.151 44.6092 249.626 44.6794 249.594C44.7497 249.562 45.0434 250.031 45.3435 250.645C45.6373 251.259 45.8225 251.784 45.7522 251.816Z" fill="#263238"/>
<path d="M41.5569 256.563C41.4995 256.512 41.7357 256.145 42.0869 255.746C42.4381 255.347 42.7702 255.063 42.8277 255.113C42.8851 255.164 42.6489 255.531 42.2977 255.93C41.9465 256.328 41.6144 256.607 41.5569 256.563Z" fill="#263238"/>
<path d="M40.6757 247.942C40.6629 248.018 40.2798 248.012 39.82 247.936C39.3603 247.854 39.0027 247.727 39.0155 247.657C39.0282 247.581 39.4114 247.588 39.8711 247.664C40.3245 247.74 40.6885 247.866 40.6757 247.942Z" fill="#263238"/>
<path d="M178.967 209.321H84.7039V283.829H178.967V209.321Z" fill="#E0E0E0"/>
<g opacity="0.3">
<path d="M91.5684 209.479C102.666 213.403 114.907 214.239 126.816 214.46C129.281 214.505 131.778 214.505 134.166 215.119C136.554 215.733 138.866 217.062 140.092 219.182C141.426 221.492 141.286 224.385 140.526 226.935C139.766 229.486 138.457 231.841 137.506 234.334C135.839 238.701 135.322 243.499 136.018 248.113C136.312 250.075 136.842 252.05 137.985 253.683C139.128 255.309 140.973 256.55 142.978 256.582C146.56 256.632 149.012 253.145 150.788 250.056C158.073 237.404 165.953 223.024 170.615 209.213L91.5684 209.479Z" fill="black"/>
</g>
<path d="M116.823 283.43C116.734 283.43 116.657 266.917 116.657 246.55C116.657 226.176 116.734 209.663 116.823 209.663C116.912 209.663 116.989 226.176 116.989 246.55C116.989 266.917 116.912 283.43 116.823 283.43Z" fill="#455A64"/>
<path d="M155.449 154.257C155.168 152.402 149.568 146.256 149.568 146.256C149.568 146.256 146.765 135.111 145.928 131.826C145.717 131.003 145.27 130.072 144.708 129.136C142.754 125.851 139.887 123.186 136.529 121.313L128.777 116.99L126.918 112.901L108.292 103.414L103.241 112.249C103.241 112.249 90.9744 116.116 89.3525 118.876C87.7306 121.636 90.1571 158.624 90.1571 158.624C90.1571 158.624 85.0231 179.966 83.9376 184.384C82.8584 188.802 84.2888 194.068 84.2888 194.068L93.4264 182.7C96.268 179.169 102.5 177.548 106.976 177.612L145.232 177.776L143.712 167.156L174.644 173.118C174.644 173.118 179.969 162.833 180.384 162.624C180.799 162.415 155.449 154.257 155.449 154.257Z" fill="#FF725E"/>
<path d="M107.494 115.718C107.225 115.446 109.658 123.585 112.704 131.87C114.345 136.332 115.169 141.066 115.169 145.839V164.08V175.839L133.515 174.605L130.775 154.845C130.775 154.845 128.54 142.098 127.914 137.25C127.34 132.813 125.373 120.775 125.373 120.775C125.373 120.775 115.175 123.471 107.494 115.718Z" fill="white"/>
<path d="M148.195 161.712C148.176 161.712 148.169 161.548 148.195 161.257C148.22 160.966 148.291 160.542 148.437 160.035C148.718 159.022 149.376 157.662 150.532 156.51C151.694 155.358 153.067 154.706 154.089 154.421C154.599 154.276 155.027 154.206 155.321 154.181C155.615 154.155 155.781 154.162 155.781 154.181C155.787 154.238 155.136 154.307 154.159 154.643C153.182 154.972 151.879 155.63 150.768 156.738C149.657 157.845 148.993 159.136 148.661 160.105C148.323 161.073 148.252 161.719 148.195 161.712Z" fill="#263238"/>
<path d="M149.14 154.516C149.101 154.446 150.302 153.839 151.943 153.712C153.578 153.573 154.868 153.972 154.836 154.054C154.817 154.155 153.539 153.908 151.969 154.041C150.398 154.162 149.178 154.611 149.14 154.516Z" fill="#263238"/>
<g opacity="0.3">
<path d="M88.3053 170.884L86.7153 172.675C88.4203 174.643 90.636 176.289 93.1775 176.909C95.7189 177.529 98.3561 177.599 100.974 177.612C102.034 177.612 103.107 177.605 104.129 177.314C105.169 177.017 106.134 176.434 107.213 176.371C107.934 176.327 108.643 176.523 109.352 176.675C110.061 176.827 110.808 176.928 111.497 176.706C112.187 176.485 112.787 175.852 112.743 175.137C104.786 172.833 96.5745 171.409 88.3053 170.884Z" fill="black"/>
</g>
<path d="M140.667 173.181L136.165 168.44L126.906 166.118C126.906 166.118 118.419 168.637 118.221 168.63C118.017 168.624 110.84 166.687 110.84 166.687L108.33 175.808L121.261 176.687L136.024 176.099C136.024 176.099 136.797 175.39 136.337 174.903C135.884 174.415 138.808 175.725 139.153 175.738C139.492 175.751 140.168 176.017 140.622 175.472C140.935 175.099 141.356 173.903 140.667 173.181Z" fill="#FFBE9D"/>
<path d="M136.343 174.903C136.324 174.947 135.769 174.77 134.875 174.485C133.974 174.2 132.736 173.827 131.35 173.472C129.958 173.118 128.687 172.858 127.768 172.675C126.842 172.491 126.273 172.377 126.28 172.333C126.286 172.289 126.874 172.32 127.806 172.447C128.745 172.573 130.035 172.801 131.433 173.156C132.831 173.51 134.077 173.928 134.958 174.27C135.833 174.611 136.356 174.865 136.343 174.903Z" fill="#EB996E"/>
<path d="M140.667 173.181C140.647 173.225 139.875 172.941 138.61 172.523C137.352 172.099 135.59 171.586 133.63 171.042C131.676 170.466 129.932 169.89 128.611 169.814C127.295 169.706 126.491 169.959 126.478 169.896C126.472 169.877 126.663 169.801 127.033 169.713C127.397 169.624 127.947 169.561 128.623 169.58C129.99 169.599 131.784 170.156 133.719 170.725C135.679 171.27 137.442 171.82 138.687 172.301C139.313 172.535 139.811 172.751 140.149 172.903C140.494 173.061 140.673 173.156 140.667 173.181Z" fill="#EB996E"/>
<path d="M89.346 118.87C89.346 118.87 82.6732 123.471 81.0513 130.091C79.4294 136.718 72.3925 163.763 73.8356 167.814C75.2788 171.865 103.343 175.833 103.343 175.833L106.67 161.928L92.4175 158.06C92.4175 158.06 92.5963 145.18 92.7814 139.845C92.9539 134.509 89.346 118.87 89.346 118.87Z" fill="#FF725E"/>
<path d="M106.478 164.004L111.069 165.124L108.311 175.624L103.796 174.903L106.478 164.004Z" fill="white"/>
<path d="M73.7271 166.39C73.7527 166.39 73.7143 166.624 73.7974 167.048C73.8868 167.466 74.1613 168.073 74.7743 168.624C75.994 169.751 78.3247 170.687 81.2748 171.213H81.2876L81.3003 171.219C82.6477 171.656 84.1866 172.01 85.834 172.377C87.4815 172.744 89.2503 173.118 91.1149 173.491C94.8504 174.251 98.9818 175.042 103.356 175.858L103.164 175.979C103.484 174.687 103.816 173.327 104.154 171.941C104.939 168.751 105.706 165.656 106.427 162.725L106.542 162.915C101.83 161.58 97.5259 160.364 93.8798 159.333H93.8734H93.867C91.9322 158.548 90.0102 158.263 88.3435 158.377C86.6705 158.453 85.2657 158.896 84.1738 159.345C83.0819 159.807 82.3029 160.314 81.7792 160.662C81.5366 160.839 81.345 160.972 81.1982 161.08C81.0641 161.174 80.9938 161.219 80.9938 161.212C80.9874 161.206 81.0513 161.149 81.1726 161.048C81.3003 160.947 81.4791 160.788 81.7345 160.598C82.2454 160.231 83.018 159.7 84.1163 159.212C85.2083 158.738 86.6258 158.263 88.3308 158.168C90.0229 158.035 91.9897 158.307 93.9692 159.092L93.9564 159.086C97.6153 160.105 101.919 161.301 106.638 162.611L106.785 162.655L106.747 162.807C106.025 165.738 105.265 168.833 104.486 172.023C104.148 173.403 103.809 174.77 103.49 176.061L103.445 176.206L103.292 176.175C98.9116 175.358 94.7801 174.548 91.051 173.776C89.1864 173.39 87.4176 173.004 85.7702 172.63C84.1227 172.251 82.5966 171.89 81.2237 171.428L81.2429 171.434C78.2544 170.871 75.9237 169.896 74.6913 168.713C74.0719 168.13 73.8101 167.491 73.7335 167.054C73.6697 166.618 73.7271 166.39 73.7271 166.39Z" fill="#263238"/>
<path d="M93.1837 158.991C93.1454 159.035 92.6664 158.598 91.8108 158.029C90.9551 157.459 89.6908 156.788 88.1902 156.352C86.6832 155.921 85.2529 155.814 84.2248 155.839C83.1967 155.864 82.5582 155.972 82.5518 155.921C82.5454 155.89 83.1648 155.693 84.2184 155.611C85.2656 155.522 86.7407 155.598 88.286 156.041C89.8313 156.491 91.1148 157.212 91.9513 157.845C92.7878 158.466 93.2092 158.966 93.1837 158.991Z" fill="#263238"/>
<path d="M95.0548 136.332C95.0803 136.332 95.0803 136.636 95.0612 137.18C95.0484 137.725 95.0037 138.516 94.9271 139.484C94.7674 141.427 94.4801 144.111 93.9628 147.041C93.4584 149.978 92.8135 152.605 92.1941 154.459C92.0344 154.921 91.8748 155.339 91.7407 155.7C91.5874 156.041 91.4533 156.345 91.332 156.611C91.0702 157.092 90.917 157.352 90.8978 157.345C90.8787 157.333 90.9936 157.054 91.2171 156.56C91.3193 156.288 91.4406 155.978 91.5683 155.636C91.6896 155.269 91.8301 154.858 91.9706 154.389C92.5325 152.529 93.1327 149.908 93.6372 146.984C94.148 144.06 94.4737 141.396 94.6908 139.459C94.7866 138.541 94.8696 137.775 94.9334 137.168C94.9909 136.63 95.0292 136.326 95.0548 136.332Z" fill="#263238"/>
<path d="M111.325 129.155C111.306 129.161 111.261 128.984 111.102 128.686C110.942 128.395 110.661 127.984 110.144 127.648C109.639 127.319 108.867 127.079 108.068 127.345C107.283 127.598 106.51 128.326 106.319 129.313L106.229 129.762L106.031 129.345C105.361 127.908 104.671 126.256 104.077 124.458C102.998 121.199 102.532 118.079 102.634 115.825C102.634 115.262 102.717 114.756 102.749 114.313C102.826 113.87 102.883 113.49 102.954 113.186C103.113 112.578 103.215 112.243 103.235 112.249C103.318 112.262 102.858 113.597 102.871 115.832C102.832 118.053 103.324 121.129 104.397 124.357C104.984 126.136 105.655 127.788 106.306 129.218L106.019 129.25C106.255 128.142 107.123 127.364 107.992 127.104C108.886 126.832 109.729 127.117 110.246 127.496C110.782 127.876 111.057 128.332 111.191 128.642C111.255 128.8 111.299 128.927 111.312 129.016C111.331 129.11 111.338 129.155 111.325 129.155Z" fill="#263238"/>
<path d="M126.893 130.579C126.874 130.579 126.829 130.313 126.746 129.826C126.676 129.338 126.516 128.623 126.612 127.705C126.74 126.807 127.167 125.712 128.151 124.901C128.636 124.503 129.3 124.237 130.009 124.243C130.705 124.243 131.465 124.509 131.963 125.11L131.682 125.269C131.49 124.781 131.286 124.275 131.075 123.756C129.881 120.775 128.821 118.066 128.074 116.104C127.723 115.167 127.429 114.382 127.199 113.775C127.001 113.224 126.899 112.914 126.918 112.901C126.937 112.895 127.078 113.186 127.321 113.724C127.576 114.325 127.902 115.097 128.291 116.022C129.102 117.965 130.194 120.655 131.388 123.642C131.593 124.161 131.797 124.667 131.988 125.155L132.378 126.129L131.707 125.313C131.292 124.807 130.628 124.56 130.009 124.553C129.377 124.547 128.789 124.769 128.336 125.129C127.423 125.851 126.976 126.895 126.835 127.737C126.714 128.604 126.842 129.326 126.874 129.813C126.912 130.307 126.918 130.579 126.893 130.579Z" fill="#263238"/>
<path d="M138.738 132.148C138.827 132.136 140.271 141.756 141.963 153.636C143.655 165.523 144.945 175.162 144.855 175.175C144.766 175.187 143.323 165.567 141.631 153.681C139.945 141.807 138.649 132.161 138.738 132.148Z" fill="#263238"/>
<g opacity="0.3">
<path d="M104.275 124.566C104.352 127.022 104.895 129.465 105.865 131.712C106.561 130.864 107.334 129.959 108.388 129.712C109.709 129.402 111.038 130.205 111.995 131.186C111.791 130.205 111.459 129.237 110.846 128.459C110.227 127.68 109.294 127.123 108.317 127.148C107.334 127.174 106.363 127.889 106.185 128.87L104.352 124.61" fill="black"/>
</g>
<path d="M93.4965 131.516C93.4327 131.516 93.4582 130.851 93.2603 129.819C93.0687 128.788 92.6025 127.389 91.7086 126.053C91.2552 125.389 90.7508 124.819 90.2463 124.332C89.7291 123.864 89.2374 123.477 88.784 123.205C87.89 122.642 87.2579 122.427 87.277 122.37C87.2834 122.351 87.4431 122.389 87.7368 122.484C87.8837 122.528 88.0561 122.591 88.254 122.68C88.452 122.769 88.6755 122.863 88.9117 123.003C89.3906 123.256 89.9206 123.642 90.4634 124.11C90.9934 124.598 91.5234 125.186 91.9895 125.87C92.9154 127.25 93.3624 128.712 93.4965 129.781C93.5668 130.313 93.5859 130.75 93.5604 131.054C93.5348 131.357 93.5157 131.522 93.4965 131.516Z" fill="#263238"/>
<path d="M130.558 86.35C129.805 79.3245 123.726 74.0523 116.599 74.2358L115.891 74.2548C108.266 74.8941 104.55 81.6664 105.406 89.2045L107.5 115.718L108.388 116.794C112.487 121.781 119.46 123.414 125.379 120.762L124.792 112.23C124.792 112.23 132.103 110.914 132.008 103.635C131.95 100.122 131.26 92.8881 130.558 86.35Z" fill="#FFBE9D"/>
<path d="M124.843 112.224C124.843 112.224 120.162 112.623 115.15 109.68C115.15 109.68 117.551 114.857 124.856 114.015L124.843 112.224Z" fill="#EB996E"/>
<path d="M128.234 92.3692C128.266 92.9198 127.825 93.4008 127.25 93.4451C126.676 93.4894 126.178 93.0844 126.146 92.5337C126.114 91.9831 126.554 91.502 127.129 91.4577C127.704 91.4134 128.202 91.8248 128.234 92.3692Z" fill="#263238"/>
<path d="M128.7 88.4134C128.617 88.5399 127.787 88.6285 126.791 89.1602C125.794 89.6855 125.201 90.3564 125.06 90.3438C124.996 90.3438 125.054 90.1602 125.309 89.8627C125.565 89.5716 126.037 89.1602 126.656 88.8311C127.276 88.502 127.857 88.3501 128.215 88.3184C128.585 88.2868 128.745 88.3564 128.7 88.4134Z" fill="#263238"/>
<path d="M117.634 92.9198C117.666 93.4704 117.225 93.9514 116.65 93.9958C116.076 94.0401 115.578 93.635 115.546 93.0843C115.514 92.5337 115.954 92.0527 116.529 92.0084C117.11 91.9641 117.602 92.3755 117.634 92.9198Z" fill="#263238"/>
<path d="M117.474 89.945C117.327 89.9767 116.644 89.521 115.552 89.2488C114.46 88.9766 113.573 89.0463 113.47 88.9513C113.419 88.907 113.585 88.8247 113.975 88.7931C114.358 88.7551 114.984 88.7868 115.667 88.9513C116.35 89.1222 116.88 89.3817 117.174 89.5843C117.468 89.7868 117.544 89.9324 117.474 89.945Z" fill="#263238"/>
<path d="M121.899 98.6351C121.893 98.5718 122.589 98.4326 123.726 98.2617C124.013 98.2237 124.281 98.1604 124.326 97.9642C124.39 97.7553 124.262 97.4515 124.109 97.1224C123.821 96.4388 123.515 95.7236 123.202 94.9705C121.938 91.9071 121.018 89.3817 121.139 89.3311C121.267 89.2805 122.391 91.7236 123.655 94.7932C123.962 95.5464 124.249 96.268 124.53 96.9578C124.645 97.2806 124.843 97.6414 124.709 98.0718C124.639 98.287 124.428 98.4452 124.249 98.5022C124.064 98.5655 123.904 98.5718 123.764 98.5845C122.614 98.6731 121.906 98.6984 121.899 98.6351Z" fill="#263238"/>
<path d="M117.493 85.6221C117.365 85.9196 116.248 85.7234 114.92 85.8183C113.585 85.888 112.5 86.2171 112.34 85.9386C112.27 85.8057 112.468 85.5272 112.915 85.255C113.355 84.9829 114.051 84.7361 114.85 84.6854C115.648 84.6348 116.369 84.7993 116.842 85.0145C117.314 85.2297 117.544 85.4829 117.493 85.6221Z" fill="#263238"/>
<path d="M128.674 85.869C128.432 86.1285 127.455 85.869 126.292 85.869C125.124 85.8373 124.141 86.0589 123.911 85.7994C123.808 85.6728 123.962 85.4133 124.39 85.1728C124.811 84.9259 125.52 84.7234 126.324 84.7361C127.123 84.7487 127.825 84.9702 128.227 85.2297C128.642 85.4829 128.783 85.7487 128.674 85.869Z" fill="#263238"/>
<path d="M132.697 79.9132C132.557 79.2549 131.899 78.6916 131.228 78.7929C131.586 78.6663 131.956 78.5334 132.244 78.2802C132.531 78.027 132.71 77.622 132.589 77.2675C132.403 76.7042 131.675 76.5903 131.101 76.4257C130.347 76.2169 129.67 75.7675 129.185 75.1599C128.489 74.2864 128.221 73.1472 127.614 72.2105C126.835 70.9952 125.475 70.1534 124.032 69.9952C122.583 69.837 121.076 70.3623 120.047 71.3813C118.924 70.2421 117.231 69.6788 115.641 69.9193C114.051 70.1598 112.608 71.1978 111.88 72.6155C109.933 71.8117 107.551 72.1408 105.904 73.451C104.256 74.7548 103.407 76.9827 103.764 79.046L108.336 81.8246C108.413 80.4258 109.99 79.3119 111.35 79.698C112.73 80.0904 113.611 81.679 115.048 81.7866C116.165 81.8689 117.11 81.0144 118.196 80.7296C119.505 80.3815 120.89 80.9005 122.072 81.5651C123.253 82.2233 124.377 83.0461 125.692 83.3753C127.238 83.7613 128.879 83.4259 130.354 82.8246C130.986 82.5714 131.612 82.255 132.078 81.7676C132.544 81.2676 132.838 80.5714 132.697 79.9132Z" fill="#263238"/>
<path d="M109.135 79.6853L130.079 79.565C129.389 78.1536 128.195 77.0397 126.905 76.1219C124.128 74.1535 120.75 72.97 117.334 73.0016C113.917 73.0333 107.085 77.3498 104.677 79.7486C102.749 81.6727 102.807 83.2866 102.807 83.2866C102.57 85.9829 104.173 89.002 104.85 91.6223C105.201 92.9767 105.916 97.0781 105.916 97.0781C107.072 97.0401 107.474 96.1224 107.264 94.9958L106.925 90.5653C106.925 90.5653 110.769 87.6918 108.771 82.6917C108.458 82.3056 107.768 80.4765 109.135 79.6853Z" fill="#263238"/>
<path d="M106.6 90.2805C105.533 86.6032 104.556 82.6664 105.686 79.0081C105.482 79.0017 105.271 78.9891 105.067 78.9828L104.805 79.1726C103.637 78.7802 102.232 79.2233 101.504 80.217C100.776 81.2043 100.782 82.6664 101.51 83.6537C100.272 83.5968 99.0774 84.6221 98.9689 85.85C98.8923 86.6981 99.2626 87.5146 99.6457 88.2741C100.029 89.0336 100.438 89.8248 100.444 90.6729C100.45 91.521 99.9012 92.4451 99.0519 92.5463C99.435 93.4198 100.495 93.9325 101.421 93.6856C101.127 94.4072 100.623 95.0337 99.9842 95.4831C101.351 96.4009 103.222 96.0907 104.703 95.3755C105.584 94.9515 106.446 94.3439 106.804 93.4451C107.2 92.4388 106.9 91.3121 106.6 90.2805Z" fill="#263238"/>
<path d="M106.255 94.5591C106.127 94.5084 101.172 93.2109 101.459 98.1794C101.747 103.148 106.721 101.838 106.721 101.692C106.727 101.553 106.255 94.5591 106.255 94.5591Z" fill="#FFBE9D"/>
<path d="M105.527 99.8883C105.501 99.8756 105.444 99.9516 105.297 100.028C105.156 100.103 104.914 100.16 104.646 100.078C104.103 99.9136 103.611 99.1098 103.534 98.211C103.496 97.7617 103.566 97.3249 103.707 96.9578C103.841 96.5844 104.058 96.3186 104.326 96.2553C104.588 96.1793 104.786 96.3249 104.856 96.4642C104.933 96.5971 104.907 96.6983 104.933 96.7047C104.946 96.7173 105.035 96.6161 104.984 96.4135C104.958 96.3186 104.895 96.2047 104.767 96.116C104.639 96.0274 104.46 95.9895 104.275 96.0148C103.892 96.0654 103.56 96.4388 103.407 96.8376C103.228 97.2427 103.139 97.7363 103.183 98.2427C103.273 99.2427 103.847 100.148 104.582 100.319C104.939 100.388 105.227 100.268 105.373 100.141C105.527 100.009 105.546 99.8946 105.527 99.8883Z" fill="#EB996E"/>
<path d="M101.051 90.4387C101.038 90.4514 100.91 90.2488 100.961 89.8627C101.006 89.483 101.287 88.9323 101.9 88.5652C102.507 88.1981 103.343 88.1095 104.199 88.0146C105.042 87.926 106.006 87.6855 106.485 86.8627C106.97 86.0589 106.983 85.0778 106.874 84.255C106.753 83.4196 106.529 82.6601 106.421 82.0081C106.153 80.6917 106.408 79.8499 106.453 79.8752C106.51 79.8815 106.363 80.6916 106.689 81.9512C106.83 82.5841 107.079 83.3246 107.225 84.2044C107.347 85.0715 107.366 86.1221 106.81 87.0652C106.529 87.5272 106.089 87.8817 105.616 88.0652C105.144 88.2551 104.671 88.3184 104.231 88.369C103.356 88.445 102.583 88.5083 102.028 88.8058C101.478 89.0906 101.191 89.5589 101.108 89.8881C101.019 90.2298 101.083 90.4324 101.051 90.4387Z" fill="#455A64"/>
<path d="M99.8372 88.2678C99.8181 88.2741 99.7287 88.1285 99.684 87.8184C99.6456 87.5146 99.6648 87.0399 99.933 86.5399C100.067 86.293 100.259 86.0399 100.527 85.831C100.789 85.6158 101.146 85.4766 101.491 85.388C101.829 85.2867 102.187 85.2044 102.442 85.0019C102.698 84.7993 102.813 84.4702 102.819 84.0905C102.832 83.7107 102.775 83.312 102.787 82.9132C102.794 82.5208 102.838 82.1411 102.915 81.7866C103.068 81.0777 103.33 80.4765 103.637 80.0081C103.937 79.5271 104.422 79.2929 104.748 79.3056C105.08 79.3056 105.22 79.4575 105.201 79.4701C105.188 79.5018 105.035 79.4132 104.754 79.4575C104.473 79.4891 104.115 79.7043 103.866 80.1537C103.617 80.5967 103.394 81.1853 103.266 81.8562C103.202 82.1917 103.17 82.5461 103.17 82.9196C103.164 83.2867 103.228 83.6727 103.215 84.1095C103.215 84.5335 103.055 85.0272 102.685 85.2994C102.321 85.5715 101.925 85.6411 101.593 85.7361C100.904 85.869 100.444 86.2488 100.176 86.6855C99.6393 87.5716 99.9138 88.2741 99.8372 88.2678Z" fill="#455A64"/>
<path d="M129.185 75.1662C129.217 75.1726 128.808 75.4384 128.151 75.1282C127.831 74.989 127.512 74.6852 127.206 74.3308C126.899 73.97 126.548 73.5839 126.044 73.3054C125.067 72.7548 123.477 72.6092 122.263 73.5523C121.644 73.9953 121.095 74.6219 120.373 75.1409C120.016 75.3941 119.594 75.6219 119.115 75.7169C118.643 75.8118 118.138 75.7422 117.685 75.584C116.778 75.2612 116.069 74.7105 115.284 74.432C114.505 74.1346 113.694 74.0016 112.928 74.0143C111.382 74.0206 110.041 74.5966 109.128 75.3118C108.196 76.027 107.653 76.8245 107.334 77.3941C107.021 77.9701 106.906 78.3245 106.874 78.3119C106.861 78.3055 106.881 78.2169 106.925 78.046C106.97 77.8751 107.059 77.6283 107.2 77.3245C107.487 76.7232 108.011 75.8688 108.956 75.0966C109.882 74.3244 111.287 73.6788 112.921 73.6599C113.732 73.6409 114.588 73.7675 115.418 74.0839C116.261 74.3877 116.989 74.9384 117.806 75.2232C118.215 75.3688 118.63 75.4194 119.032 75.3434C119.435 75.2675 119.799 75.0713 120.137 74.8371C120.814 74.3624 121.376 73.7358 122.04 73.2674C122.698 72.7801 123.502 72.5396 124.23 72.5459C124.964 72.5522 125.635 72.7548 126.171 73.0649C126.714 73.375 127.084 73.8181 127.365 74.1852C127.659 74.5523 127.927 74.8371 128.215 74.989C128.796 75.3181 129.185 75.1282 129.185 75.1662Z" fill="#455A64"/>
<path d="M119.115 99.9389C119.275 99.9009 119.454 100.964 120.501 101.566C121.548 102.167 122.665 101.857 122.704 102.009C122.729 102.072 122.487 102.255 122.001 102.35C121.529 102.445 120.814 102.407 120.175 102.04C119.537 101.673 119.192 101.097 119.083 100.667C118.962 100.224 119.038 99.9452 119.115 99.9389Z" fill="#263238"/>
<path d="M185.199 198.827C183.303 197.15 180.678 196.371 178.143 196.517L173.826 210.112C176.987 210.251 180.142 211.865 183.194 211.036C185.646 210.372 187.504 208.087 187.843 205.593C188.187 203.099 187.095 200.504 185.199 198.827Z" fill="#FF725E"/>
<path d="M178.22 196.201C178.226 196.093 178.686 196.004 179.529 196.017C180.359 196.042 181.598 196.131 183.06 196.675C184.529 197.213 186.125 198.315 187.357 199.985C187.977 200.821 188.494 201.815 188.794 202.935C189.101 204.049 189.152 205.296 188.903 206.498C188.654 207.707 188.117 208.84 187.332 209.745C186.546 210.657 185.544 211.283 184.548 211.657C182.536 212.403 180.602 212.283 179.12 212.005C177.626 211.714 176.502 211.283 175.736 210.967C174.976 210.644 174.58 210.403 174.612 210.296C174.644 210.188 175.11 210.22 175.921 210.353C176.732 210.479 177.881 210.726 179.286 210.853C180.678 210.979 182.364 210.935 183.973 210.252C184.771 209.91 185.512 209.403 186.087 208.707C186.668 208.011 187.076 207.125 187.274 206.169C187.689 204.239 187.096 202.308 186.106 200.853C185.11 199.384 183.813 198.334 182.587 197.739C181.355 197.131 180.218 196.859 179.439 196.65C178.654 196.454 178.207 196.321 178.22 196.201Z" fill="#F5F5F5"/>
<path d="M138.234 247.189L128.847 273.259L161.509 285C162.447 281.842 147.825 269.557 147.825 269.557L154.529 253.101L138.234 247.189Z" fill="#FF725E"/>
<g opacity="0.6">
<path d="M138.234 264.519C137.538 264.462 136.841 265.012 136.758 265.696C136.675 266.379 137.231 267.088 137.921 267.152C138.617 267.221 139.466 266.588 139.472 265.898C139.479 265.208 138.783 264.417 138.093 264.512" fill="white"/>
</g>
<path d="M128.847 273.259L129.792 270.626L160.819 282.892C160.819 282.892 162.045 284.044 161.509 285L128.847 273.259Z" fill="white"/>
<path d="M148.412 269.582C148.348 269.74 147.525 269.525 146.554 269.747C145.577 269.949 144.919 270.487 144.798 270.373C144.664 270.291 145.245 269.43 146.426 269.177C147.601 268.911 148.495 269.449 148.412 269.582Z" fill="#263238"/>
<path d="M151.324 272.215C151.305 272.379 150.513 272.398 149.727 272.873C148.929 273.323 148.527 274 148.367 273.936C148.208 273.905 148.438 272.943 149.427 272.373C150.411 271.791 151.375 272.063 151.324 272.215Z" fill="#263238"/>
<path d="M151.784 276.981C151.624 276.962 151.694 276.095 152.422 275.373C153.144 274.652 154.018 274.576 154.038 274.734C154.082 274.899 153.425 275.19 152.837 275.785C152.237 276.373 151.943 277.019 151.784 276.981Z" fill="#263238"/>
<path d="M149.517 265.658C149.395 265.778 148.744 265.297 147.825 265.031C146.905 264.746 146.094 264.797 146.062 264.632C146.011 264.487 146.911 264.145 147.997 264.474C149.076 264.791 149.644 265.563 149.517 265.658Z" fill="#263238"/>
<path d="M150.149 261.537C150.13 261.601 149.459 261.474 148.514 260.942C148.042 260.677 147.512 260.303 146.995 259.803C146.733 259.556 146.477 259.278 146.235 258.974C146.12 258.822 145.979 258.664 145.884 258.417C145.769 258.189 145.82 257.734 146.12 257.55C146.375 257.36 146.714 257.36 146.95 257.442C147.193 257.518 147.371 257.639 147.531 257.746C147.863 257.961 148.163 258.208 148.419 258.455C148.942 258.961 149.319 259.499 149.568 259.98C150.072 260.949 150.111 261.632 150.047 261.645C149.957 261.67 149.766 261.044 149.204 260.189C148.923 259.765 148.54 259.291 148.042 258.847C147.793 258.626 147.512 258.417 147.205 258.221C146.892 258.006 146.599 257.898 146.452 258.018C146.401 258.063 146.388 258.088 146.42 258.215C146.458 258.335 146.567 258.474 146.682 258.626C146.905 258.917 147.135 259.183 147.365 259.423C147.831 259.911 148.31 260.297 148.725 260.594C149.581 261.189 150.181 261.455 150.149 261.537Z" fill="#263238"/>
<path d="M149.855 261.689C149.791 261.696 149.683 261.012 149.996 259.968C150.155 259.449 150.43 258.854 150.871 258.272C151.088 257.98 151.349 257.702 151.65 257.436C151.956 257.183 152.346 256.841 152.991 256.993C153.316 257.094 153.495 257.442 153.508 257.689C153.533 257.949 153.489 258.145 153.457 258.341C153.38 258.74 153.233 259.107 153.061 259.436C152.703 260.088 152.211 260.556 151.752 260.86C150.807 261.468 150.072 261.417 150.079 261.36C150.053 261.259 150.724 261.158 151.503 260.525C151.886 260.215 152.295 259.765 152.575 259.189C152.716 258.898 152.831 258.582 152.888 258.24C152.965 257.879 152.933 257.55 152.793 257.544C152.633 257.48 152.263 257.645 152.026 257.867C151.752 258.094 151.509 258.348 151.298 258.601C150.877 259.113 150.583 259.639 150.392 260.107C149.996 261.044 149.951 261.702 149.855 261.689Z" fill="#263238"/>
<path d="M106.587 177.561C101.632 177.675 96.9321 178.371 93.5223 181.928C88.9949 186.65 83.4012 193.384 83.082 198.049C82.6094 205.024 86.8494 207.1 89.9528 208.796C91.3256 209.549 92.8901 209.884 94.4545 209.827L151.72 209.397L153.52 199.783L116.485 190.738L118.023 176.922L106.587 177.561Z" fill="#263238"/>
<path d="M118.011 176.922L136.024 176.099C136.024 176.099 167.141 177.814 173.782 183.846C180.423 189.878 179.593 196.732 177.377 203.308C175.161 209.891 155.666 251.968 155.666 251.968C155.666 251.968 157.25 254.645 156.356 257.316C154.976 261.449 151.273 262.113 151.273 262.113L133.955 255.803C133.955 255.803 131.606 254.98 133.266 252.79C134.926 250.594 136.031 250.189 136.031 250.189V245.803C136.031 245.803 142.116 234.834 142.672 233.328C143.227 231.822 149.057 209.505 149.057 209.505L152.933 202.903C152.933 202.903 143.566 198.536 135.443 195.371L116.478 190.738L118.011 176.922Z" fill="#263238"/>
<path d="M147.231 255.018C147.199 255.063 146.65 254.632 145.711 254.031C144.772 253.43 143.425 252.683 141.835 252.082C140.245 251.487 138.732 251.151 137.627 250.987C136.522 250.816 135.826 250.778 135.833 250.727C135.833 250.689 136.535 250.645 137.659 250.759C138.783 250.866 140.334 251.17 141.956 251.778C143.578 252.392 144.932 253.183 145.851 253.841C146.758 254.493 147.256 254.987 147.231 255.018Z" fill="#455A64"/>
<path d="M155.883 251.999C155.851 252.025 155.462 251.632 154.874 250.949C154.293 250.271 153.514 249.303 152.697 248.208C151.879 247.113 151.183 246.088 150.705 245.335C150.226 244.581 149.957 244.094 149.989 244.069C150.028 244.043 150.366 244.48 150.896 245.202C151.503 246.024 152.192 246.968 152.959 248.012C153.738 249.05 154.44 249.987 155.053 250.803C155.602 251.525 155.922 251.974 155.883 251.999Z" fill="#455A64"/>
<path d="M162.23 196.878C162.243 196.928 161.592 197.068 160.589 197.397C159.587 197.726 158.233 198.283 156.86 199.131C155.494 199.979 154.389 200.941 153.655 201.688C152.914 202.435 152.505 202.954 152.461 202.922C152.429 202.903 152.773 202.334 153.482 201.53C154.185 200.726 155.289 199.713 156.688 198.846C158.086 197.985 159.485 197.447 160.525 197.169C161.56 196.897 162.23 196.846 162.23 196.878Z" fill="#455A64"/>
<path d="M144.517 226.676C144.504 226.676 144.53 226.543 144.587 226.302C144.657 226.03 144.747 225.682 144.855 225.258C145.111 224.309 145.462 223.011 145.89 221.429C146.809 218.163 148.054 213.726 149.434 208.827C150.155 206.372 150.768 204.023 151.464 201.903C152.269 199.796 153.546 198.175 154.727 196.973C155.915 195.77 157.032 194.96 157.824 194.441C158.227 194.188 158.539 193.998 158.757 193.884C158.974 193.764 159.095 193.707 159.095 193.719C159.108 193.745 158.661 194.011 157.895 194.549C157.128 195.093 156.049 195.922 154.893 197.131C153.75 198.333 152.518 199.947 151.752 202.004C151.088 204.099 150.468 206.467 149.753 208.916C148.335 213.809 147.058 218.233 146.113 221.492C145.641 223.068 145.258 224.353 144.977 225.296C144.843 225.714 144.734 226.056 144.651 226.328C144.574 226.562 144.53 226.682 144.517 226.676Z" fill="#455A64"/>
<path d="M128.585 194.53C128.496 194.536 128.113 191.2 127.742 187.074C127.366 182.947 127.136 179.593 127.225 179.586C127.314 179.58 127.698 182.915 128.068 187.042C128.445 191.175 128.675 194.523 128.585 194.53Z" fill="#455A64"/>
<path d="M98.5988 203.448C98.5477 203.473 98.2731 202.935 97.7048 202.137C97.1429 201.346 96.2617 200.321 95.0867 199.416C93.9118 198.511 92.6986 197.903 91.7854 197.561C90.8723 197.213 90.2784 197.074 90.2912 197.017C90.2976 196.985 90.917 197.036 91.8684 197.34C92.8199 197.637 94.0842 198.226 95.2975 199.156C96.5043 200.093 97.3855 201.169 97.9027 202.011C98.4264 202.853 98.6307 203.429 98.5988 203.448Z" fill="#455A64"/>
<path d="M109.639 191.327C109.607 191.378 108.841 190.89 107.519 190.295C106.197 189.694 104.288 189.042 102.098 188.726C99.9013 188.416 97.8835 188.517 96.4468 188.719C95.01 188.922 94.1352 189.175 94.1225 189.118C94.1161 189.099 94.3268 189.017 94.7163 188.89C95.1058 188.757 95.6869 188.618 96.4085 188.485C97.8516 188.219 99.9077 188.08 102.143 188.39C104.371 188.713 106.306 189.416 107.615 190.08C108.273 190.409 108.784 190.707 109.122 190.941C109.467 191.169 109.652 191.308 109.639 191.327Z" fill="#455A64"/>
<path d="M152.773 199.777C152.773 199.789 152.614 199.764 152.326 199.701C152.001 199.631 151.579 199.542 151.056 199.428C149.919 199.175 148.329 198.821 146.388 198.39C142.448 197.517 136.995 196.34 130.948 195.156C124.901 193.973 119.409 192.998 115.425 192.314C113.464 191.979 111.861 191.707 110.712 191.511C110.182 191.416 109.754 191.34 109.429 191.283C109.135 191.226 108.982 191.194 108.988 191.181C108.994 191.169 109.148 191.181 109.441 191.219C109.767 191.264 110.195 191.314 110.731 191.384C111.849 191.536 113.471 191.77 115.463 192.08C119.454 192.7 124.958 193.637 131.012 194.827C137.059 196.017 142.512 197.226 146.439 198.156C148.406 198.625 149.989 199.011 151.081 199.296C151.598 199.435 152.02 199.542 152.339 199.631C152.627 199.72 152.773 199.77 152.773 199.777Z" fill="#455A64"/>
<path d="M116.472 192.371C116.408 192.39 116.274 191.618 115.68 190.555C115.38 190.03 114.946 189.441 114.371 188.878C113.803 188.308 113.107 187.732 112.366 187.156C110.872 186.023 109.352 185.219 108.266 184.631C107.168 184.048 106.491 183.688 106.517 183.643C106.536 183.605 107.251 183.89 108.375 184.422C109.492 184.96 111.051 185.738 112.57 186.89C113.324 187.473 114.02 188.055 114.594 188.656C115.176 189.251 115.61 189.878 115.891 190.435C116.172 190.998 116.325 191.485 116.402 191.821C116.478 192.175 116.491 192.365 116.472 192.371Z" fill="#455A64"/>
<path d="M180.257 200.954C180.333 201.023 179.369 201.986 178.628 203.441C177.868 204.891 177.638 206.226 177.536 206.207C177.453 206.207 177.543 204.802 178.328 203.296C179.107 201.777 180.205 200.884 180.257 200.954Z" fill="#263238"/>
<g opacity="0.3">
<path d="M139.268 136.092L143.367 164.712L143.572 165.168C144.542 155.32 143.048 145.25 139.268 136.092Z" fill="black"/>
</g>
<path d="M161.343 152.541L148.016 175.649L115.175 176.358L115.092 177.833L146.892 177.599L147.901 177.567L181.482 177.631L188.27 166.029L196.942 153.712C197.51 152.902 196.923 151.801 195.933 151.801L162.415 151.927C161.968 151.927 161.56 152.162 161.343 152.541Z" fill="#E0E0E0"/>
<path d="M188.264 166.023C188.264 166.023 189.988 167.592 189.72 168.921C189.445 170.251 189.541 171.244 188.264 171.333C188.264 171.333 188.353 173.042 186.54 173.314C186.54 173.314 186.929 175.403 184.477 175.763C184.477 175.763 183.724 177.998 182.178 177.453C180.633 176.915 179.637 176.282 179.637 176.282L179.184 175.472C179.184 175.472 176.91 174.624 177.472 173.352C177.811 172.58 178.992 172.377 178.992 172.377C178.992 172.377 178.5 171.244 179.139 170.396C179.682 169.668 181.463 170.27 181.463 170.27C181.463 170.27 181.361 169.333 182.025 168.548C182.632 167.839 185.454 169.77 185.454 169.77L187 167.947L188.264 166.023Z" fill="#FFBE9D"/>
<path d="M184.477 175.763C184.426 175.839 183.162 175.143 181.642 174.213C180.122 173.276 178.935 172.46 178.986 172.384C179.037 172.308 180.301 172.997 181.821 173.934C183.334 174.865 184.522 175.687 184.477 175.763Z" fill="#EB996E"/>
<path d="M186.54 173.314C186.495 173.39 185.314 172.776 183.909 171.934C182.504 171.092 181.406 170.352 181.451 170.276C181.495 170.2 182.677 170.814 184.081 171.656C185.486 172.498 186.584 173.238 186.54 173.314Z" fill="#EB996E"/>
<path d="M183.73 168.732C183.781 168.637 184.835 169.187 186.061 169.959C187.287 170.738 188.277 171.339 188.251 171.403C188.206 171.51 187.108 171.016 185.882 170.238C184.65 169.466 183.692 168.801 183.73 168.732Z" fill="#EB996E"/>
<path d="M196.935 152.674C196.935 152.681 196.878 152.687 196.776 152.693C196.648 152.7 196.495 152.706 196.303 152.712C195.863 152.719 195.256 152.731 194.49 152.744C192.887 152.757 190.614 152.776 187.823 152.795C182.166 152.807 174.401 152.826 165.825 152.845C165.289 152.845 164.752 152.845 164.222 152.845C163.718 152.807 163.264 153.029 163.003 153.415C162.498 154.32 162 155.206 161.508 156.086C160.525 157.839 159.58 159.535 158.68 161.149C156.873 164.371 155.244 167.27 153.871 169.713C152.505 172.124 151.387 174.086 150.602 175.472C150.219 176.13 149.919 176.649 149.702 177.029C149.606 177.194 149.523 177.32 149.459 177.428C149.402 177.517 149.37 177.561 149.37 177.561C149.363 177.561 149.389 177.51 149.433 177.415C149.491 177.301 149.561 177.168 149.644 176.998C149.849 176.612 150.136 176.08 150.493 175.409C151.26 174.01 152.339 172.035 153.667 169.599C155.021 167.143 156.63 164.231 158.418 160.997C159.312 159.377 160.257 157.681 161.234 155.921C161.726 155.041 162.224 154.143 162.734 153.231C163.047 152.738 163.673 152.465 164.229 152.51C164.759 152.51 165.295 152.51 165.831 152.51C174.414 152.529 182.178 152.548 187.83 152.56C190.626 152.579 192.893 152.598 194.496 152.611C195.262 152.624 195.869 152.636 196.309 152.643C196.501 152.649 196.654 152.655 196.782 152.662C196.884 152.662 196.935 152.668 196.935 152.674Z" fill="#263238"/>
<path d="M173.309 164.288C172.715 164.94 172.702 165.883 173.277 166.402C173.852 166.915 174.803 166.807 175.397 166.156C175.991 165.504 176.004 164.561 175.429 164.042C174.848 163.529 173.903 163.637 173.309 164.288Z" fill="white"/>
<g opacity="0.3">
<path d="M80.0871 155.358C79.7998 155.472 79.4805 155.662 79.4741 155.965C79.4741 156.212 79.704 156.409 79.9466 156.459C80.1893 156.51 81.0705 156.149 81.3131 156.098C84.7677 155.345 87.6093 156.067 90.8978 157.345L91.0063 157.238C89.6909 154.491 83.7971 153.871 80.0871 155.358Z" fill="black"/>
</g>
<path d="M258 283.829C258 283.918 200.237 283.994 129.006 283.994C57.7505 283.994 0 283.924 0 283.829C0 283.734 57.7505 283.665 129.006 283.665C200.243 283.665 258 283.74 258 283.829Z" fill="#263238"/>
<path d="M62.2204 82.0841C62.329 82.1917 83.5352 74.97 83.5352 74.97L75.3809 56.4253L56.5054 63.5773L66.8882 69.4889L62.2204 82.0841Z" fill="#455A64"/>
<path d="M72.1689 62.014V36.7603C72.1689 36.7603 101.421 31.4627 122.493 31.7729C143.565 32.083 165.27 35.5134 165.27 35.5134V59.7545C165.27 59.7545 99.2179 53.9063 72.1689 62.014Z" fill="#455A64"/>
<path d="M72.0159 62.033L83.5353 75.0776V59.7545C83.5353 59.7545 73.8996 60.9001 72.0159 62.033Z" fill="#263238"/>
<path d="M72.1691 36.7603C72.2585 36.7603 72.3032 42.4187 72.2585 49.3998C72.2138 56.381 72.1053 62.0393 72.0159 62.0393C71.9265 62.0393 71.8818 56.381 71.9265 49.3998C71.9648 42.4187 72.0733 36.7603 72.1691 36.7603Z" fill="#263238"/>
<path d="M175.18 80.1473C175.071 80.2549 153.865 73.0333 153.865 73.0333L162.02 54.4885L180.895 61.6406L170.512 67.5521L175.18 80.1473Z" fill="#455A64"/>
<path d="M165.385 60.0963L153.865 73.1409V58.9254C157.709 59.0519 161.547 59.4444 165.385 60.0963Z" fill="#263238"/>
<path d="M165.27 35.5134C165.359 35.5134 165.461 41.0136 165.493 47.8049C165.525 54.5961 165.48 60.0963 165.385 60.0963C165.295 60.0963 165.193 54.5961 165.161 47.8049C165.129 41.0199 165.174 35.5134 165.27 35.5134Z" fill="#263238"/>
<path d="M88.6629 47.8302C88.3819 45.8175 89.742 44.1592 91.8365 43.8744C92.9986 43.7162 94.0331 44.001 94.7738 44.6782L93.899 45.7289C93.3754 45.2732 92.7688 45.0896 92.0983 45.1782C90.8403 45.3491 90.0677 46.3491 90.2401 47.615C90.4189 48.8745 91.4342 49.6277 92.6985 49.4568C93.3754 49.3619 93.9054 49.0201 94.2821 48.4314L95.4124 49.2099C94.8824 50.0707 93.9692 50.6214 92.7943 50.7859C90.7063 51.0707 88.9438 49.8492 88.6629 47.8302Z" fill="white"/>
<path d="M95.6295 46.8808C95.4251 44.8871 96.8363 43.2541 98.9691 43.0326C101.095 42.8174 102.826 44.1212 103.03 46.1213C103.241 48.1213 101.817 49.7479 99.6907 49.9695C97.5579 50.191 95.8402 48.8745 95.6295 46.8808ZM101.453 46.2858C101.319 45.0137 100.323 44.2352 99.116 44.3554C97.9091 44.4757 97.0918 45.444 97.2195 46.7162C97.3536 47.9884 98.3497 48.7669 99.5566 48.6466C100.763 48.5264 101.581 47.5643 101.453 46.2858Z" fill="white"/>
<path d="M110.68 48.9884L110.406 44.9504L108.624 48.3998L107.915 48.4441L105.719 45.3301L105.974 49.2796L104.499 49.3745L104.065 42.6465L105.361 42.5642L108.171 46.5833L110.399 42.2414L111.689 42.1592L112.142 48.8872L110.68 48.9884Z" fill="white"/>
<path d="M119.473 44.3871C119.518 45.8871 118.407 46.8555 116.587 46.9061L115.214 46.9441L115.265 48.8049L113.694 48.8492L113.502 42.1085L116.446 42.0263C118.266 41.9693 119.428 42.8744 119.473 44.3871ZM117.877 44.4314C117.857 43.6908 117.359 43.2731 116.395 43.2984L115.112 43.3364L115.175 45.6782L116.459 45.6403C117.423 45.6086 117.896 45.1592 117.877 44.4314Z" fill="white"/>
<path d="M120.667 41.9376H122.238V47.4061H125.648V48.6783H120.667V41.9376Z" fill="white"/>
<path d="M131.784 47.596L131.746 48.8492L126.478 48.6973L126.676 41.9566L131.816 42.1022L131.778 43.3554L128.202 43.2541L128.157 44.7162L131.312 44.8048L131.273 46.02L128.119 45.9314L128.074 47.4884L131.784 47.596Z" fill="white"/>
<path d="M134.69 43.5389L132.519 43.406L132.595 42.1402L138.508 42.4946L138.432 43.7605L136.26 43.6275L135.928 49.0834L134.358 48.9884L134.69 43.5389Z" fill="white"/>
<path d="M144.236 48.5201L144.121 49.7669L138.878 49.2859L139.504 42.5706L144.625 43.0389L144.51 44.2858L140.947 43.9567L140.813 45.4124L143.955 45.7035L143.84 46.9124L140.698 46.6213L140.551 48.1719L144.236 48.5201Z" fill="white"/>
<path d="M146.203 43.2098L149.261 43.6149C151.464 43.906 152.799 45.425 152.524 47.4441C152.25 49.4694 150.564 50.5834 148.361 50.2922L145.302 49.8872L146.203 43.2098ZM148.457 49.0137C149.798 49.191 150.775 48.5137 150.947 47.2352C151.119 45.9567 150.353 45.0453 149.012 44.8744L147.588 44.6845L147.033 48.8239L148.457 49.0137Z" fill="white"/>
<path d="M178.354 37.811L180.027 39.754L184.739 37.811L183.36 35.7666L178.354 37.811Z" fill="#455A64"/>
<path d="M176.195 28.5703C176.195 29.9121 175.097 31.0007 173.743 31.0007C172.39 31.0007 171.291 29.9121 171.291 28.5703C171.291 27.2285 172.39 26.1398 173.743 26.1398C175.097 26.1335 176.195 27.2221 176.195 28.5703Z" fill="#FF725E"/>
<path d="M121.267 64.8179C121.267 65.4888 120.718 66.0331 120.041 66.0331C119.364 66.0331 118.815 65.4888 118.815 64.8179C118.815 64.147 119.364 63.6027 120.041 63.6027C120.718 63.6027 121.267 64.147 121.267 64.8179Z" fill="#FF725E"/>
<path d="M64.1487 46.5517C64.1487 47.0643 63.7337 47.4757 63.2165 47.4757C62.6992 47.4757 62.2842 47.0643 62.2842 46.5517C62.2842 46.039 62.6992 45.6276 63.2165 45.6276C63.7273 45.6339 64.1487 46.0453 64.1487 46.5517Z" fill="#FF725E"/>
<path d="M60.6877 36.3806L63.4335 36.5451L64.7425 31.1969L62.1756 31.2982L60.6877 36.3806Z" fill="#455A64"/>
<path d="M146.509 79.122L147.435 81.6917L152.914 80.7866L151.809 78.4828L146.509 79.122Z" fill="#FF725E"/>
<path d="M91.0957 64.2926L89.4036 66.4508L93.1136 70.5395L94.48 68.3876L91.0957 64.2926Z" fill="#455A64"/>
<path d="M84.5376 13.7408L91.0189 20.2979L100.15 16.8738L100.508 19.1207L96.5552 27.1462L100.201 33.1336L99.8948 34.9185L91.0636 33.4438L85.8403 39.1275L84.6207 38.2034L83.5351 30.9817L75.2978 26.7284L74.9338 25.0828L83.2286 22.8296L84.5376 13.7408Z" fill="#FF725E"/>
<g opacity="0.3">
<path d="M84.5376 13.7408L91.0189 20.2979L100.15 16.8738L100.508 19.1207L96.5552 27.1462L100.201 33.1336L99.8948 34.9185L91.0636 33.4438L85.8403 39.1275L84.6207 38.2034L83.5351 30.9817L75.2978 26.7284L74.9338 25.0828L83.2286 22.8296L84.5376 13.7408Z" fill="black"/>
</g>
<path d="M84.5376 11.899L91.0189 18.4561L100.15 16.8738L95.8655 25.0195L100.201 33.1336L91.0636 31.6083L84.6207 38.2034L83.2542 29.1209L74.9338 25.0828L83.2286 20.9941L84.5376 11.899Z" fill="#FFBE3B"/>
<path d="M151.745 13.7408L145.257 20.2979L136.133 16.8738L135.769 19.1207L139.721 27.1462L136.081 33.1336L136.382 34.9185L145.213 33.4438L150.436 39.1275L151.662 38.2034L152.741 30.9817L160.979 26.7284L161.343 25.0828L153.048 22.8296L151.745 13.7408Z" fill="#FF725E"/>
<g opacity="0.3">
<path d="M151.745 13.7408L145.257 20.2979L136.133 16.8738L135.769 19.1207L139.721 27.1462L136.081 33.1336L136.382 34.9185L145.213 33.4438L150.436 39.1275L151.662 38.2034L152.741 30.9817L160.979 26.7284L161.343 25.0828L153.048 22.8296L151.745 13.7408Z" fill="black"/>
</g>
<path d="M151.745 11.899L145.258 18.4561L136.133 16.8738L140.417 25.0195L136.082 33.1336L145.213 31.6083L151.662 38.2034L153.022 29.1209L161.343 25.0828L153.048 20.9941L151.745 11.899Z" fill="#FFBE3B"/>
<path d="M117.927 2.24055L123.323 12.6902L135.769 11.9623L135.347 14.8358L127.442 23.1334L129.587 31.8172L128.527 33.8805L118.317 28.7475L109.767 33.7096L108.624 32.121L110.08 22.8992L101.664 14.6016L101.855 12.456L112.845 12.8421L117.927 2.24055Z" fill="#FF725E"/>
<g opacity="0.3">
<path d="M117.927 2.24055L123.323 12.6902L135.769 11.9623L135.347 14.8358L127.442 23.1334L129.587 31.8172L128.527 33.8805L118.317 28.7475L109.767 33.7096L108.624 32.121L110.08 22.8992L101.664 14.6016L101.855 12.456L112.845 12.8421L117.927 2.24055Z" fill="black"/>
</g>
<path d="M118.63 0L124.026 10.4496L135.769 11.9623L127.41 20.2789L129.587 31.8172L119.026 26.5069L108.624 32.121L110.457 20.5258L101.855 12.456L113.547 10.6015L118.63 0Z" fill="#FFBE3B"/>
<path d="M140.13 93.7426L149.146 94.7299C151.317 91.6666 154.344 89.1412 158.067 87.5526C168.775 82.9828 181.189 87.888 185.799 98.5022C190.409 109.116 185.461 121.42 174.752 125.99C164.044 130.56 151.63 125.655 147.02 115.041C145.098 110.61 144.842 105.882 145.973 101.547L145.966 101.559L140.13 93.7426Z" fill="#FAFAFA"/>
<path d="M140.13 93.7426C140.481 94.2046 142.307 96.6034 146.036 101.509L145.896 101.515L145.902 101.502C145.922 101.464 145.973 101.445 146.017 101.471C146.049 101.49 146.068 101.528 146.056 101.566C145.309 104.458 145.021 108.262 146.196 112.37C146.496 113.389 146.86 114.433 147.365 115.446C147.62 115.952 147.863 116.471 148.144 116.984C148.457 117.477 148.769 117.977 149.089 118.484C150.462 120.452 152.243 122.294 154.421 123.788C156.592 125.288 159.159 126.44 161.949 127.041C164.74 127.648 167.76 127.718 170.736 127.079C173.705 126.44 176.617 125.142 179.145 123.218C181.661 121.294 183.845 118.775 185.243 115.8C186.687 112.781 187.453 109.477 187.338 106.249C187.249 103.028 186.393 99.9073 184.975 97.1857C183.558 94.4641 181.578 92.116 179.267 90.3628C176.968 88.5969 174.382 87.3817 171.789 86.6918C169.19 86.0019 166.591 85.8437 164.165 86.0842C161.732 86.3374 159.529 87.0589 157.556 87.8944C153.629 89.6792 150.921 92.3755 149.21 94.7616C149.191 94.7869 149.165 94.7996 149.133 94.7933C143.431 94.135 140.685 93.8122 140.13 93.7426C140.692 93.7996 143.438 94.0717 149.159 94.6477L149.082 94.6793C150.781 92.2615 153.495 89.521 157.46 87.6918C159.446 86.8311 161.681 86.0905 164.139 85.831C166.591 85.5779 169.229 85.7298 171.866 86.426C174.497 87.1159 177.115 88.3437 179.458 90.1286C181.802 91.9008 183.813 94.2806 185.263 97.0401C186.712 99.7997 187.581 102.964 187.676 106.243C187.798 109.521 187.019 112.876 185.556 115.946C184.132 118.971 181.917 121.528 179.356 123.484C176.789 125.44 173.826 126.756 170.812 127.395C167.792 128.034 164.72 127.959 161.892 127.338C159.057 126.718 156.464 125.547 154.261 124.022C152.058 122.496 150.257 120.623 148.878 118.629C148.559 118.117 148.239 117.61 147.927 117.11C147.646 116.591 147.403 116.066 147.148 115.553C146.643 114.528 146.279 113.471 145.979 112.439C144.81 108.281 145.13 104.439 145.902 101.528L146.056 101.591L146.049 101.604C146.03 101.642 145.979 101.66 145.934 101.635C145.922 101.629 145.915 101.623 145.909 101.61C142.256 96.6414 140.475 94.2173 140.13 93.7426Z" fill="#263238"/>
<path d="M158.629 99.325C158.635 99.3313 158.642 99.4263 158.648 99.6161C158.654 99.825 158.661 100.091 158.667 100.426C158.673 101.154 158.686 102.179 158.705 103.471C158.725 106.097 158.75 109.794 158.776 114.224L158.629 114.078C163.003 114.072 168.156 114.066 173.654 114.053C173.692 114.015 173.341 114.363 173.488 114.218V114.211V114.205V114.186V114.154V114.091V113.965V113.711V113.205C173.488 112.87 173.488 112.528 173.488 112.192C173.488 111.521 173.488 110.857 173.488 110.199C173.488 108.882 173.488 107.597 173.494 106.35C173.501 103.85 173.507 101.49 173.513 99.325L173.66 99.4706C169.19 99.4389 165.461 99.4136 162.811 99.4009C161.509 99.3883 160.481 99.3756 159.74 99.363C159.401 99.3566 159.133 99.3503 158.923 99.344C158.737 99.3313 158.635 99.3313 158.629 99.325C158.622 99.3187 158.712 99.3123 158.891 99.306C159.095 99.2997 159.357 99.2933 159.682 99.287C160.41 99.2807 161.432 99.268 162.722 99.249C165.391 99.23 169.158 99.2047 173.66 99.1794H173.801V99.325C173.807 101.49 173.813 103.85 173.82 106.35C173.82 107.604 173.82 108.888 173.826 110.199C173.826 110.857 173.826 111.521 173.826 112.192C173.826 112.528 173.826 112.863 173.826 113.205V113.711V113.965V114.091V114.154V114.186V114.205V114.211V114.218C173.973 114.072 173.622 114.42 173.66 114.382C168.162 114.376 163.009 114.37 158.635 114.357H158.488V114.218C158.52 109.749 158.546 106.021 158.559 103.376C158.571 102.104 158.584 101.091 158.597 100.363C158.603 100.04 158.61 99.7807 158.616 99.5782C158.622 99.4073 158.622 99.3187 158.629 99.325Z" fill="#263238"/>
<path d="M172.038 101.787C172.256 101.958 170.231 104.844 167.524 108.23C166.981 108.907 166.457 109.553 165.966 110.142L165.647 110.528L165.289 110.205C162.939 108.11 161.349 106.502 161.496 106.338C161.643 106.173 163.475 107.502 165.908 109.496L165.225 109.559C165.691 108.952 166.202 108.294 166.745 107.616C169.446 104.23 171.821 101.616 172.038 101.787Z" fill="#FF725E"/>
</g>
<defs>
<clipPath id="clip0_328_5585">
<rect width="258" height="285" fill="white"/>
</clipPath>
</defs>
</svg>
