<svg width="296" height="272" viewBox="0 0 296 272" fill="none" xmlns="http://www.w3.org/2000/svg">
<g clip-path="url(#clip0_328_4997)">
<path d="M50.8512 159.406L8.21826 167.385L14.5954 201.482L57.2283 193.503L50.8512 159.406Z" fill="#F5F5F5"/>
<path d="M50.8488 159.416C50.8488 159.416 50.7736 159.435 50.642 159.466C50.4979 159.498 50.2974 159.535 50.0405 159.586C49.5016 159.692 48.7309 159.843 47.722 160.037C45.6917 160.426 42.7341 160.996 38.9994 161.711C31.5113 163.127 20.8776 165.146 8.23869 167.54L8.35774 167.365C10.2627 177.514 12.4433 189.148 14.7493 201.46V201.466L14.555 201.334C30.3396 198.388 45.0087 195.655 57.1965 193.386L57.0837 193.549C55.1976 183.287 53.631 174.774 52.5344 168.813C51.9955 165.835 51.5694 163.497 51.2749 161.892C51.1308 161.096 51.0243 160.488 50.9491 160.062C50.8802 159.636 50.8488 159.416 50.8488 159.416C50.8488 159.416 50.899 159.617 50.9804 160.018C51.0619 160.438 51.1809 161.034 51.3313 161.817C51.6384 163.416 52.0833 165.735 52.6535 168.694C53.7877 174.668 55.4106 183.199 57.3657 193.486L57.3907 193.624L57.2529 193.649C45.0714 195.937 30.4022 198.689 14.6239 201.654L14.461 201.685L14.4297 201.522V201.516C12.1363 189.205 9.96189 177.57 8.0695 167.415L8.04443 167.265L8.19482 167.239C20.8839 164.895 31.5615 162.927 39.0746 161.535C42.8093 160.852 45.7544 160.319 47.7784 159.949C48.7747 159.774 49.5392 159.636 50.0718 159.535C50.3225 159.492 50.5167 159.46 50.6546 159.435C50.7862 159.423 50.8488 159.41 50.8488 159.416Z" fill="#E0E0E0"/>
<path d="M49.7309 161.835L10.0913 169.255L15.6652 199.057L55.3049 191.638L49.7309 161.835Z" fill="#FFD36C"/>
<path d="M15.658 199.071L26.041 177.952L36.7813 187.938L41.4434 180.654L55.2979 191.649L15.658 199.071Z" fill="#E0E0E0"/>
<path d="M37.8338 173.395C38.1534 175.119 37.0192 176.78 35.296 177.1C33.5728 177.42 31.9123 176.285 31.5927 174.561C31.2731 172.837 32.4073 171.176 34.1305 170.856C35.8537 170.537 37.508 171.671 37.8338 173.395Z" fill="#E0E0E0"/>
<path d="M114.736 16.5454L92.9099 137.178L182.193 153.344L204.019 32.7113L114.736 16.5454Z" fill="#FAFAFA"/>
<path d="M182.195 153.355C182.195 153.355 182.226 153.154 182.289 152.772C182.358 152.389 182.458 151.819 182.583 151.079C182.846 149.587 183.241 147.381 183.755 144.51C184.783 138.774 186.287 130.386 188.191 119.761C192.014 98.5358 197.44 68.3965 203.87 32.6907L203.989 32.8662C177.15 28.008 146.772 22.5168 114.714 16.712H114.702L114.896 16.5741C106.743 61.57 99.1864 103.256 93.033 137.2L92.9203 137.044C119.946 141.971 142.241 146.033 157.794 148.866C165.577 150.289 171.661 151.405 175.816 152.164C177.89 152.546 179.475 152.841 180.553 153.035C181.637 153.242 182.195 153.355 182.195 153.355C182.195 153.355 181.656 153.267 180.591 153.079C179.519 152.891 177.94 152.609 175.878 152.239C171.73 151.499 165.646 150.408 157.876 149.017C142.298 146.215 119.965 142.19 92.8952 137.32L92.7573 137.294L92.7824 137.157C98.917 103.212 106.449 61.5199 114.582 16.5177L114.614 16.3547L114.777 16.3861H114.789C146.847 22.1971 177.219 27.7071 204.058 32.5716L204.208 32.5966L204.183 32.7471C197.685 68.478 192.196 98.6487 188.336 119.887C186.399 130.487 184.87 138.862 183.824 144.585C183.298 147.437 182.897 149.631 182.621 151.117C182.483 151.85 182.383 152.408 182.308 152.79C182.232 153.167 182.195 153.355 182.195 153.355Z" fill="#E0E0E0"/>
<path d="M160.188 36.1586L122.28 29.2947L116.303 62.332L154.211 69.1959L160.188 36.1586Z" fill="#E0E0E0"/>
<path d="M190.428 41.6342L166.159 37.2399L165.379 41.5516L189.648 45.9458L190.428 41.6342Z" fill="#E0E0E0"/>
<path d="M184.832 81.6907L115.564 69.1487L114.784 73.4603L184.052 86.0024L184.832 81.6907Z" fill="#E0E0E0"/>
<path d="M183.46 89.2762L114.192 76.7341L113.412 81.0458L182.68 93.5878L183.46 89.2762Z" fill="#E0E0E0"/>
<path d="M182.088 96.8675L112.82 84.3254L112.039 88.6371L181.308 101.179L182.088 96.8675Z" fill="#E0E0E0"/>
<path d="M180.716 104.453L111.448 91.9108L110.668 96.2224L179.936 108.764L180.716 104.453Z" fill="#E0E0E0"/>
<path d="M179.338 112.043L110.07 99.5009L109.289 103.813L178.558 116.355L179.338 112.043Z" fill="#E0E0E0"/>
<path d="M174.633 138.052L105.365 125.51L104.585 129.821L173.853 142.363L174.633 138.052Z" fill="#E0E0E0"/>
<path d="M146.726 113.974L108.7 107.089L107.92 111.401L145.946 118.286L146.726 113.974Z" fill="#E0E0E0"/>
<path d="M189.162 48.6107L164.893 44.2164L164.113 48.528L188.382 52.9223L189.162 48.6107Z" fill="#E0E0E0"/>
<path d="M187.903 55.5881L163.634 51.1938L162.854 55.5055L187.123 59.8998L187.903 55.5881Z" fill="#E0E0E0"/>
<path d="M177.334 60.8761L162.369 58.1665L161.589 62.4781L176.554 65.1877L177.334 60.8761Z" fill="#E0E0E0"/>
<path d="M222.568 15.9912L214.867 16.2983L214.033 18.461C213.764 19.1819 213.632 19.7711 213.651 20.235C213.676 20.843 213.939 21.2881 214.447 21.5576C214.741 21.7206 215.462 21.8147 216.602 21.8585L216.627 22.4541L209.377 22.7424L209.352 22.1469C210.129 21.9965 210.762 21.6454 211.245 21.0938C211.727 20.5421 212.304 19.4201 212.98 17.7275L220.08 0.0125372L220.381 0L228.959 17.5708C229.78 19.232 230.438 20.2789 230.939 20.6989C231.315 21.0186 231.842 21.1878 232.506 21.2191L232.531 21.8147L221.985 22.2409L221.96 21.6454L222.392 21.6266C223.238 21.5953 223.827 21.4511 224.166 21.2003C224.391 21.0186 224.504 20.7678 224.491 20.4481C224.485 20.2538 224.441 20.0595 224.372 19.8589C224.347 19.7648 224.172 19.3699 223.84 18.6741L222.568 15.9912ZM221.972 14.8189L218.426 7.44081L215.38 15.0885L221.972 14.8189Z" fill="#FFBE3B"/>
<path d="M237.151 61.5383L201.93 73.3066L211.335 101.478L246.556 89.7092L237.151 61.5383Z" fill="#F5F5F5"/>
<path d="M236.477 63.7371L203.734 74.6773L211.955 99.2987L244.697 88.3584L236.477 63.7371Z" fill="#FFBE3B"/>
<path d="M211.953 99.3068L218.282 80.1751L228.565 87.384L231.66 80.6641L244.7 88.3619L211.953 99.3068Z" fill="#E0E0E0"/>
<path d="M227.744 74.9346C228.22 76.3576 227.449 77.8997 226.027 78.3761C224.604 78.8525 223.063 78.0814 222.587 76.6585C222.11 75.2355 222.881 73.6934 224.304 73.217C225.732 72.7406 227.274 73.5054 227.744 74.9346Z" fill="#E0E0E0"/>
<path d="M238.14 28.7646L229.518 72.8066L284.582 83.5946L293.204 39.5525L238.14 28.7646Z" fill="#F5F5F5"/>
<path d="M293.2 39.5673C293.2 39.5673 293.106 39.5547 292.931 39.5234C292.749 39.4921 292.492 39.4419 292.154 39.3792C291.464 39.2476 290.462 39.0595 289.159 38.8088C286.539 38.3073 282.717 37.5676 277.879 36.6399C268.204 34.7655 254.456 32.0951 238.108 28.9232L238.283 28.8041C235.72 41.9117 232.788 56.9375 229.68 72.8409V72.8472L229.548 72.6528C249.932 76.6585 268.875 80.3757 284.603 83.4661L284.44 83.579C287.066 70.3272 289.24 59.3384 290.763 51.6531C291.533 47.8105 292.135 44.7953 292.549 42.7329C292.755 41.7111 292.918 40.9213 293.025 40.3822C293.131 39.8494 293.2 39.5673 293.2 39.5673C293.2 39.5673 293.156 39.8306 293.062 40.3571C292.962 40.8962 292.812 41.6735 292.624 42.689C292.229 44.7514 291.652 47.7603 290.919 51.5904C289.428 59.3008 287.291 70.3272 284.722 83.6291L284.697 83.767L284.559 83.742C268.825 80.6704 249.876 76.9656 229.492 72.9788L229.329 72.9475L229.36 72.7845V72.7782C232.481 56.8811 235.426 41.8553 237.995 28.7477L238.026 28.5973L238.17 28.6286C254.544 31.8695 268.317 34.59 278.011 36.5082C282.83 37.4673 286.633 38.2258 289.246 38.7524C290.537 39.0156 291.527 39.21 292.204 39.3479C292.53 39.4168 292.78 39.467 292.956 39.5046C293.119 39.5485 293.2 39.5673 293.2 39.5673Z" fill="#E0E0E0"/>
<path d="M239.492 31.9122L231.956 70.4052L283.152 80.4353L290.688 41.9423L239.492 31.9122Z" fill="#FFEDB0"/>
<path d="M231.954 70.415L254.519 49.9919L262.665 67.1302L271.745 60.6046L283.149 80.4447L231.954 70.415Z" fill="#E0E0E0"/>
<path d="M270.874 50.1549C270.435 52.3803 268.28 53.8346 266.055 53.3958C263.831 52.957 262.377 50.8006 262.815 48.5752C263.254 46.3499 265.41 44.8956 267.634 45.3344C269.859 45.7669 271.306 47.9233 270.874 50.1549Z" fill="#E0E0E0"/>
<path d="M26.2729 4.36294L29.1241 37.5739L42.0011 41.0655L66.9719 38.1569L63.4566 0.771042L26.2729 4.36294Z" fill="#FFBE3B"/>
<path d="M33.0467 34.5838L29.124 37.5739C29.124 37.5739 31.4989 39.7052 34.2435 40.4198C36.9881 41.1344 39.5008 41.3601 42.0011 41.0655C42.0011 41.0655 36.0482 40.0312 33.0467 34.5838Z" fill="#EBEBEB"/>
<path d="M60.4487 12.9822C60.455 13.0449 54.1324 13.7094 46.3247 14.4616C38.517 15.2201 32.1882 15.7843 32.1819 15.7216C32.1756 15.6589 38.4982 14.9944 46.3059 14.2422C54.1136 13.4837 60.4424 12.9195 60.4487 12.9822Z" fill="#E0E0E0"/>
<path d="M60.8186 18.0974C60.8248 18.1601 54.5022 18.8246 46.6946 19.5768C38.8869 20.3353 32.558 20.8995 32.5518 20.8368C32.5455 20.7741 38.8681 20.1096 46.6758 19.3574C54.4834 18.5989 60.8123 18.0347 60.8186 18.0974Z" fill="#E0E0E0"/>
<path d="M61.4138 22.5982C61.4201 22.6609 55.0975 23.3254 47.2898 24.0776C39.4821 24.8361 33.1532 25.4003 33.147 25.3376C33.1407 25.2749 39.4633 24.6105 47.271 23.8582C55.0787 23.0997 61.4075 22.5418 61.4138 22.5982Z" fill="#E0E0E0"/>
<path d="M61.8086 26.9549C61.8149 27.0176 55.4923 27.6821 47.6909 28.4343C39.8832 29.1928 33.5544 29.757 33.5481 29.6943C33.5418 29.6316 39.8644 28.9671 47.6721 28.2149C55.4673 27.4564 61.8024 26.8922 61.8086 26.9549Z" fill="#E0E0E0"/>
<path d="M23.0583 74.4269L25.9095 107.638L38.7865 111.129L63.7573 108.221L60.242 70.835L23.0583 74.4269Z" fill="#FFEDB0"/>
<path d="M29.8321 104.648L25.9094 107.638C25.9094 107.638 28.2843 109.769 31.0289 110.484C33.7735 111.198 36.2862 111.424 38.7865 111.129C38.7865 111.129 32.8336 110.095 29.8321 104.648Z" fill="#EBEBEB"/>
<path d="M57.2341 83.0461C57.2404 83.1088 50.9178 83.7733 43.1101 84.5255C35.3024 85.284 28.9736 85.8482 28.9673 85.7855C28.961 85.7228 35.2836 85.0584 43.0913 84.3061C50.899 83.5476 57.2278 82.9835 57.2341 83.0461Z" fill="#E0E0E0"/>
<path d="M57.604 88.1613C57.6102 88.224 51.2876 88.8885 43.48 89.6407C35.6723 90.3992 29.3434 90.9634 29.3372 90.9007C29.3309 90.838 35.6535 90.1735 43.4612 89.4213C51.2689 88.6628 57.5977 88.0986 57.604 88.1613Z" fill="#E0E0E0"/>
<path d="M58.1992 92.6622C58.2055 92.7248 51.8829 93.3893 44.0752 94.1415C36.2675 94.9 29.9386 95.4642 29.9324 95.4015C29.9261 95.3388 36.2487 94.6744 44.0564 93.9221C51.8641 93.1636 58.1929 92.6057 58.1992 92.6622Z" fill="#E0E0E0"/>
<path d="M58.594 97.0188C58.6003 97.0815 52.2777 97.746 44.4763 98.4982C36.6686 99.2567 30.3398 99.8209 30.3335 99.7582C30.3272 99.6955 36.6498 99.031 44.4575 98.2788C52.2527 97.5203 58.5878 96.9561 58.594 97.0188Z" fill="#E0E0E0"/>
<path d="M295.5 271.831C295.5 271.925 229.454 272 148.006 272C66.5269 272 0.5 271.925 0.5 271.831C0.5 271.737 66.5269 271.661 148.006 271.661C229.461 271.661 295.5 271.737 295.5 271.831Z" fill="#263238"/>
<path d="M170.214 215.815H116.788C110.679 215.815 105.728 210.863 105.728 204.751V198.827C105.728 192.715 110.679 187.763 116.788 187.763H170.214V215.815Z" fill="#FF725E"/>
<path d="M268.931 192.427H156.246V187.769H268.931C269.946 187.769 270.767 188.59 270.767 189.606V190.59C270.761 191.605 269.94 192.427 268.931 192.427Z" fill="#FF725E"/>
<path d="M268.931 215.815H156.246V211.157H268.931C269.946 211.157 270.767 211.978 270.767 212.994V213.978C270.761 214.994 269.94 215.815 268.931 215.815Z" fill="#FF725E"/>
<path d="M267.346 211.157H169.023C163.853 211.157 159.661 206.963 159.661 201.792C159.661 196.62 163.853 192.427 169.023 192.427H267.346C264.714 198.67 264.714 204.914 267.346 211.157Z" fill="#F5F5F5"/>
<path opacity="0.3" d="M159.661 215.815H117.007C110.779 215.815 105.728 210.762 105.728 204.531V198.959C105.728 192.778 110.741 187.763 116.92 187.763H160.727C150.575 193.919 151.334 208.65 159.661 215.815Z" fill="black"/>
<path d="M255.403 202.663C255.403 202.757 235.219 202.832 210.33 202.832C185.434 202.832 165.257 202.757 165.257 202.663C165.257 202.569 185.434 202.494 210.33 202.494C235.219 202.494 255.403 202.569 255.403 202.663Z" fill="#263238"/>
<path d="M264.676 206.826C264.676 206.92 244.493 206.995 219.604 206.995C194.708 206.995 174.531 206.92 174.531 206.826C174.531 206.732 194.708 206.656 219.604 206.656C244.499 206.656 264.676 206.732 264.676 206.826Z" fill="#263238"/>
<path d="M261.945 196.758C261.945 196.852 241.761 196.927 216.872 196.927C191.976 196.927 171.799 196.852 171.799 196.758C171.799 196.664 191.976 196.589 216.872 196.589C241.761 196.589 261.945 196.664 261.945 196.758Z" fill="#263238"/>
<path d="M154.724 213.853C154.724 213.947 145.274 214.022 133.625 214.022C121.97 214.022 112.527 213.947 112.527 213.853C112.527 213.759 121.97 213.683 133.625 213.683C145.274 213.683 154.724 213.759 154.724 213.853Z" fill="#263238"/>
<path d="M154.724 190.095C154.724 190.189 145.274 190.264 133.625 190.264C121.97 190.264 112.527 190.189 112.527 190.095C112.527 190.001 121.97 189.925 133.625 189.925C145.274 189.932 154.724 190.007 154.724 190.095Z" fill="#263238"/>
<path d="M165.188 271.624H93.1958C87.0863 271.624 82.136 266.672 82.136 260.56V246.562C82.136 240.45 87.0863 235.498 93.1958 235.498H165.182V271.624H165.188Z" fill="#FF725E"/>
<path d="M292.849 241.497H147.198V235.498H292.843C293.858 235.498 294.679 236.319 294.679 237.335V239.66C294.679 240.676 293.858 241.497 292.849 241.497Z" fill="#FF725E"/>
<path d="M292.849 271.624H147.198V265.625H292.843C293.858 265.625 294.679 266.446 294.679 267.462V269.787C294.679 270.803 293.858 271.624 292.849 271.624Z" fill="#FF725E"/>
<path d="M290.28 265.625H163.653C156.992 265.625 151.597 260.221 151.597 253.564C151.597 246.901 156.998 241.503 163.653 241.503H290.28C286.89 249.54 286.89 257.582 290.28 265.625Z" fill="#F5F5F5"/>
<path opacity="0.3" d="M151.597 271.624H93.0517C87.0236 271.624 82.136 266.734 82.136 260.704V246.807C82.136 240.563 87.1928 235.498 93.4402 235.498H152.969C139.898 243.428 140.875 262.397 151.597 271.624Z" fill="black"/>
<path d="M274.897 254.68C274.897 254.774 248.905 254.849 216.853 254.849C184.789 254.849 158.803 254.774 158.803 254.68C158.803 254.586 184.789 254.511 216.853 254.511C248.905 254.517 274.897 254.592 274.897 254.68Z" fill="#263238"/>
<path d="M286.846 260.046C286.846 260.14 260.854 260.215 228.802 260.215C196.738 260.215 170.752 260.14 170.752 260.046C170.752 259.952 196.738 259.877 228.802 259.877C260.854 259.877 286.846 259.952 286.846 260.046Z" fill="#263238"/>
<path d="M283.325 249.709C283.325 249.803 257.333 249.878 225.281 249.878C193.217 249.878 167.231 249.803 167.231 249.709C167.231 249.615 193.217 249.54 225.281 249.54C257.333 249.54 283.325 249.615 283.325 249.709Z" fill="#263238"/>
<path d="M145.243 269.091C145.243 269.185 133.074 269.261 118.073 269.261C103.065 269.261 90.9023 269.185 90.9023 269.091C90.9023 268.997 103.065 268.922 118.073 268.922C133.074 268.922 145.243 268.997 145.243 269.091Z" fill="#263238"/>
<path d="M145.243 238.501C145.243 238.595 133.074 238.67 118.073 238.67C103.065 238.67 90.9023 238.595 90.9023 238.501C90.9023 238.407 103.065 238.331 118.073 238.331C133.074 238.331 145.243 238.407 145.243 238.501Z" fill="#263238"/>
<path d="M186.75 235.636H127.434C122.929 235.636 119.282 231.981 119.282 227.481V223.111C119.282 218.604 122.935 214.956 127.434 214.956H186.75V235.636Z" fill="#455A64"/>
<path d="M290.042 219.827H172.137V214.956H290.042C291.101 214.956 291.966 215.815 291.966 216.88V217.908C291.966 218.968 291.101 219.827 290.042 219.827Z" fill="#455A64"/>
<path d="M290.042 235.636H172.137V230.765H290.042C291.101 230.765 291.966 231.624 291.966 232.69V233.718C291.966 234.777 291.101 235.636 290.042 235.636Z" fill="#455A64"/>
<path d="M288.388 230.765H181.173C178.153 230.765 175.709 228.314 175.709 225.299C175.709 222.278 178.159 219.833 181.173 219.833H288.388C285.631 223.469 285.631 227.117 288.388 230.765Z" fill="#F5F5F5"/>
<path opacity="0.3" d="M175.709 235.636H127.484C122.954 235.636 119.276 231.963 119.276 227.424V223.331C119.276 218.705 123.023 214.956 127.647 214.956H176.824C166.209 219.488 166.999 230.352 175.709 235.636Z" fill="black"/>
<path d="M275.893 224.434C275.893 224.528 254.776 224.603 228.734 224.603C202.679 224.603 181.568 224.528 181.568 224.434C181.568 224.34 202.679 224.265 228.734 224.265C254.776 224.265 275.893 224.34 275.893 224.434Z" fill="#263238"/>
<path d="M285.593 227.374C285.593 227.468 264.476 227.543 238.434 227.543C212.379 227.543 191.268 227.468 191.268 227.374C191.268 227.28 212.379 227.205 238.434 227.205C264.482 227.211 285.593 227.286 285.593 227.374Z" fill="#263238"/>
<path d="M170.546 233.58C170.546 233.674 160.664 233.749 148.47 233.749C136.276 233.749 126.394 233.674 126.394 233.58C126.394 233.486 136.276 233.411 148.47 233.411C160.664 233.411 170.546 233.486 170.546 233.58Z" fill="#263238"/>
<path d="M170.546 217.388C170.546 217.482 160.664 217.557 148.47 217.557C136.276 217.557 126.394 217.482 126.394 217.388C126.394 217.294 136.276 217.219 148.47 217.219C160.664 217.225 170.546 217.294 170.546 217.388Z" fill="#263238"/>
<path d="M290.556 214.956C290.556 215.05 254.293 215.125 209.578 215.125C164.843 215.125 128.594 215.05 128.594 214.956C128.594 214.862 164.843 214.787 209.578 214.787C254.3 214.787 290.556 214.862 290.556 214.956Z" fill="#263238"/>
<path d="M225.532 196.451V207.684L229.423 205.183L233.766 207.684V196.451H225.532Z" fill="#FF725E"/>
<path d="M265.078 84.9518L245.484 101.275L215.682 160.181L234.261 168.581L263.248 110.81L265.078 84.9518Z" fill="#FF725E"/>
<g opacity="0.7">
<path d="M263.248 110.81C262.245 110.941 261.324 110.308 261.399 109.293C260.171 110.722 258.003 111.255 256.261 110.546C254.513 109.844 253.316 107.958 253.429 106.077C251.787 106.961 249.675 106.886 248.096 105.889C246.523 104.892 245.546 103.018 245.64 101.156L265.084 84.9518L263.248 110.81Z" fill="white"/>
</g>
<path d="M257.195 91.515C257.195 91.515 257.489 96.392 264.326 95.5457L265.078 84.9518L257.195 91.515Z" fill="#FF725E"/>
<path opacity="0.3" d="M253.422 106.077L224.692 163.936L215.675 160.181L245.477 101.275L245.627 101.156C245.627 101.156 245.514 102.247 246.035 103.45C246.379 104.253 247.006 105.162 247.965 105.807C249.193 106.641 250.502 106.804 251.53 106.679C252.639 106.541 253.422 106.077 253.422 106.077Z" fill="black"/>
<path opacity="0.3" d="M261.399 109.293L231.879 167.503L234.26 168.581L263.241 110.81C263.241 110.81 261.788 111.06 261.405 109.669C261.38 109.562 261.399 109.431 261.399 109.293Z" fill="black"/>
<path d="M253.278 100.46C253.291 100.467 253.184 100.529 253.178 100.724C253.172 100.899 253.31 101.225 253.679 101.263C254.03 101.307 254.481 101.169 254.914 100.912C255.127 100.78 255.334 100.586 255.44 100.322C255.553 100.065 255.565 99.7331 255.384 99.4824C255.208 99.2254 254.876 99.0937 254.538 99.0561C254.193 99.0122 253.823 99.0561 253.447 99.1188C252.702 99.2504 251.912 99.52 251.21 99.9901C250.872 100.235 250.565 100.579 250.521 101.006C250.477 101.432 250.715 101.864 251.073 102.14C251.818 102.679 252.877 102.673 253.817 102.485C255.741 102.065 257.276 100.542 257.646 98.8869C257.721 98.4731 257.621 98.0531 257.351 97.7585C257.094 97.4576 256.737 97.2696 256.393 97.1317C255.684 96.8684 254.97 96.7493 254.325 96.7179C253.028 96.649 251.987 96.9248 251.304 97.1693C250.966 97.3009 250.709 97.4137 250.534 97.5015C250.364 97.5893 250.271 97.6269 250.271 97.6269C250.271 97.6269 250.603 97.3949 251.286 97.1191C251.962 96.8621 253.009 96.5612 254.331 96.6176C254.989 96.649 255.703 96.7555 256.436 97.0251C256.794 97.1693 257.17 97.3573 257.452 97.6833C257.74 97.9967 257.865 98.4731 257.777 98.9119C257.395 100.636 255.829 102.19 253.849 102.623C253.353 102.736 252.852 102.761 252.363 102.723C251.875 102.679 251.38 102.554 250.991 102.253C250.609 101.958 250.346 101.482 250.396 100.999C250.446 100.51 250.791 100.141 251.141 99.8898C251.875 99.4009 252.677 99.1376 253.435 99.006C253.817 98.9433 254.193 98.8994 254.557 98.9496C254.914 98.9934 255.277 99.1376 255.471 99.4322C255.672 99.7206 255.647 100.097 255.528 100.366C255.409 100.648 255.183 100.849 254.958 100.987C254.5 101.244 254.049 101.375 253.673 101.319C253.278 101.263 253.128 100.905 253.153 100.724C253.165 100.517 253.285 100.46 253.278 100.46Z" fill="white"/>
<path d="M263.787 100.109C263.787 100.128 263.498 100.065 262.978 100.084C262.465 100.103 261.713 100.253 260.879 100.648C260.033 101.037 259.137 101.683 258.172 102.454C257.207 103.206 256.129 104.09 254.763 104.566C253.404 105.043 251.975 105.036 250.778 104.723C249.569 104.41 248.604 103.776 247.914 103.143C247.225 102.504 246.812 101.852 246.561 101.394C246.317 100.93 246.235 100.655 246.235 100.655C246.241 100.655 246.273 100.717 246.329 100.843C246.385 100.968 246.479 101.15 246.605 101.369C246.862 101.814 247.288 102.447 247.977 103.074C248.66 103.689 249.613 104.303 250.803 104.604C251.981 104.905 253.379 104.905 254.713 104.441C256.048 103.977 257.113 103.099 258.091 102.36C259.056 101.595 259.977 100.949 260.835 100.567C261.688 100.178 262.452 100.04 262.978 100.04C263.505 100.021 263.787 100.109 263.787 100.109Z" fill="white"/>
<path d="M263.674 106.014C263.661 106.052 263.298 105.469 262.333 105.369C261.393 105.275 260.077 105.544 258.68 105.901C257.276 106.278 256.054 106.785 255.196 107.199C254.763 107.406 254.425 107.588 254.187 107.707C253.955 107.832 253.817 107.901 253.817 107.895C253.811 107.889 253.936 107.801 254.162 107.663C254.387 107.525 254.726 107.331 255.152 107.111C256.004 106.672 257.226 106.146 258.642 105.77C259.35 105.575 260.033 105.438 260.66 105.343C261.286 105.249 261.863 105.206 262.345 105.275C262.828 105.337 263.191 105.532 263.398 105.707C263.599 105.876 263.674 106.014 263.674 106.014Z" fill="white"/>
<path d="M255.54 110.158C255.528 110.145 255.772 109.932 256.198 109.631C256.624 109.337 257.251 108.935 258.053 108.797C258.855 108.647 259.62 108.917 260.008 109.28C260.209 109.456 260.334 109.637 260.397 109.769C260.465 109.901 260.478 109.982 260.472 109.982C260.447 109.995 260.34 109.675 259.939 109.355C259.551 109.029 258.843 108.791 258.072 108.935C257.301 109.067 256.681 109.443 256.248 109.713C255.816 109.995 255.553 110.177 255.54 110.158Z" fill="white"/>
<path d="M264.3 96.5988C264.3 96.6051 264.269 96.6302 264.206 96.674C264.144 96.7179 264.05 96.7931 263.918 96.8746C263.793 96.9561 263.624 97.0564 263.411 97.1003C263.191 97.1505 262.934 97.1191 262.671 97.0564C262.139 96.9373 261.543 96.6678 260.879 96.4358C260.209 96.2039 259.45 96.0096 258.642 95.8779C257.025 95.6147 255.528 95.6021 254.45 95.5959C253.98 95.5959 253.56 95.5959 253.172 95.5959C252.871 95.5959 252.702 95.5896 252.702 95.577C252.702 95.5645 252.871 95.552 253.172 95.5394C253.472 95.5269 253.911 95.5081 254.45 95.4956C255.528 95.4767 257.032 95.4705 258.661 95.74C259.475 95.8717 260.24 96.0723 260.917 96.3167C261.593 96.5612 262.17 96.8308 262.69 96.9624C263.21 97.1379 263.636 96.9937 263.887 96.8308C264.15 96.674 264.294 96.5863 264.3 96.5988Z" fill="white"/>
<path d="M285.067 149.832C285.067 163.152 285.067 176.467 285.067 189.788C285.067 193.586 285.067 197.385 285.067 201.178C285.067 201.698 285.869 201.698 285.869 201.178C285.869 187.857 285.869 174.542 285.869 161.222C285.869 157.423 285.869 153.624 285.869 149.832C285.875 149.311 285.067 149.311 285.067 149.832Z" fill="#FF725E"/>
<path d="M288.375 189.863C288.375 191.461 287.078 192.759 285.48 192.759C283.883 192.759 282.585 191.461 282.585 189.863C282.585 188.264 283.883 186.967 285.48 186.967C287.085 186.967 288.375 188.264 288.375 189.863Z" fill="#FF725E"/>
<path d="M284.666 191.361C284.666 191.361 282.56 193.467 281.927 199.654C281.295 205.841 281.157 208.932 281.157 208.932L286.846 209.283C286.846 209.283 286.846 204.644 286.846 204.851C286.846 205.064 287.968 208.154 287.968 208.154L292.467 206.675C292.467 206.688 290.851 190.239 284.666 191.361Z" fill="#FF725E"/>
<path d="M255.071 154.032H158.446V188.879H255.071V154.032Z" fill="#263238"/>
<path d="M289.008 148.033H123.737V154.032H289.008V148.033Z" fill="#263238"/>
<path opacity="0.3" d="M158.446 178.993C158.446 178.993 187.803 168.456 206.758 164.569C225.713 160.676 255.071 161.974 255.071 161.974V154.032H158.446V178.993Z" fill="black"/>
<path opacity="0.3" d="M183.517 148.033H123.737V154.032H183.517V148.033Z" fill="black"/>
<path d="M287.811 154.032C287.811 154.126 251.06 154.201 205.743 154.201C160.407 154.201 123.662 154.126 123.662 154.032C123.662 153.938 160.401 153.862 205.743 153.862C251.066 153.862 287.811 153.938 287.811 154.032Z" fill="#455A64"/>
<path d="M183.423 154.082C183.329 154.082 183.254 152.715 183.254 151.035C183.254 149.349 183.329 147.989 183.423 147.989C183.517 147.989 183.592 149.355 183.592 151.035C183.592 152.715 183.517 154.082 183.423 154.082Z" fill="#455A64"/>
<path d="M197.209 188.879C197.115 188.879 197.039 182.077 197.039 173.696C197.039 165.309 197.115 158.507 197.209 158.507C197.302 158.507 197.378 165.302 197.378 173.696C197.371 182.083 197.296 188.879 197.209 188.879Z" fill="#455A64"/>
<path d="M57.4223 231.674L68.5322 227.192L77.0167 205.014L88.3271 210.844C88.3271 210.844 87.2306 213.031 84.8933 218.454C83.9909 220.547 81.002 226.377 79.78 229.217C77.4804 234.577 72.2857 238.118 66.4519 238.275L56.0249 238.545L57.4223 231.674Z" fill="#FFBF9D"/>
<path d="M51.9018 227.387L50.2225 225.619C49.8967 225.412 49.5207 225.305 49.1385 225.318L43.8184 225.481C42.8159 225.581 41.9135 226.127 41.3558 226.973L39.4196 230.264C39.4196 230.264 38.1225 232.514 38.2854 233.066C38.536 233.893 39.407 233.724 39.407 233.724C39.407 233.724 39.5888 234.765 39.9397 234.978C40.5224 235.329 41.2305 235.059 41.2305 235.059C41.4248 235.46 41.8321 235.724 42.277 235.692C42.3647 235.686 42.4587 235.667 42.5527 235.642C43.1856 235.448 43.4675 234.226 43.4675 234.226L46.162 233.724C46.162 233.724 50.0345 236.313 51.4005 238.012C52.7666 239.711 56.3383 238.413 56.3383 238.413L57.673 232.019L51.9018 227.387Z" fill="#FFBF9D"/>
<path d="M47.9853 228.145C47.9916 228.183 47.5592 228.264 46.8198 228.339C46.0867 228.421 45.0465 228.452 43.881 228.603L44.0063 228.509C43.8183 228.922 43.5802 229.355 43.317 229.781C42.4899 231.104 41.5186 232.132 40.7604 232.809C39.9959 233.48 39.4508 233.793 39.4257 233.762C39.3944 233.718 39.8894 233.342 40.5975 232.633C41.2993 231.925 42.2267 230.891 43.0288 229.606C43.292 229.192 43.5175 228.772 43.7118 228.377L43.7494 228.295L43.8371 228.283C45.0402 228.145 46.0679 228.164 46.801 228.139C47.5404 228.12 47.9791 228.107 47.9853 228.145Z" fill="#FF9A6C"/>
<path d="M48.1045 230.684C48.1107 230.715 47.7473 230.859 47.1019 230.953C46.4627 231.047 45.5353 231.079 44.5014 230.866L44.6894 230.759C44.5829 231.072 44.4576 231.398 44.3009 231.724C43.7369 232.903 42.9474 233.806 42.302 234.351C41.6566 234.903 41.1803 235.134 41.1615 235.097C41.1302 235.053 41.5563 234.752 42.1391 234.175C42.7281 233.599 43.455 232.709 43.9939 231.58C44.1442 231.267 44.2696 230.96 44.3761 230.659L44.4262 230.521L44.5641 230.552C46.563 230.985 48.0982 230.59 48.1045 230.684Z" fill="#FF9A6C"/>
<path d="M54.8594 232C53.2803 231.267 51.6949 230.527 50.1159 229.794C49.4579 229.486 48.7749 229.179 48.048 229.179C47.271 229.186 46.5441 229.549 45.8486 229.906C44.9964 230.345 44.1504 230.79 43.2982 231.229C43.1604 231.298 43.01 231.386 42.9599 231.536C42.8972 231.731 43.0351 231.931 43.1792 232.075C44.4512 233.367 46.7446 233.461 48.1169 232.276C48.5242 233.392 48.9503 234.526 49.7148 235.435C50.4793 236.344 51.6699 236.984 52.8417 236.771" fill="#FFBF9D"/>
<path d="M52.848 236.764C52.848 236.771 52.8041 236.789 52.7227 236.808C52.6349 236.827 52.5096 236.846 52.3342 236.852C51.9958 236.858 51.4757 236.796 50.9055 236.507C50.3353 236.225 49.7149 235.711 49.2261 234.971C48.7248 234.238 48.3551 233.317 47.9854 232.326L48.2236 232.389C47.5217 233.003 46.5066 233.335 45.4602 233.254C44.9401 233.216 44.4074 233.078 43.9187 232.821C43.6806 232.69 43.4424 232.539 43.2357 232.345C43.1354 232.251 43.0226 232.163 42.9286 232.032C42.8409 231.912 42.7406 231.731 42.7908 231.517C42.8346 231.342 42.9662 231.229 43.0727 231.16C43.1855 231.091 43.2795 231.047 43.3798 230.991C43.5803 230.891 43.7746 230.784 43.9688 230.684C44.3573 230.483 44.7458 230.283 45.128 230.088C45.8863 229.712 46.6069 229.273 47.4152 229.092C48.2361 228.891 49.0319 229.148 49.6648 229.43C50.3039 229.725 50.8867 230.007 51.4193 230.264C52.447 230.765 53.2929 231.179 53.9446 231.499C54.5399 231.8 54.8595 231.969 54.8532 231.994C54.8407 232.013 54.5023 231.881 53.8945 231.618C53.2365 231.323 52.3718 230.941 51.3253 230.483C50.7802 230.239 50.1911 229.975 49.5582 229.693C48.9316 229.424 48.2173 229.211 47.4841 229.399C46.751 229.568 46.0429 230 45.2847 230.383C44.9087 230.577 44.5202 230.778 44.1317 230.985C43.9375 231.085 43.737 231.192 43.5427 231.292C43.3422 231.392 43.1291 231.492 43.1229 231.599C43.0853 231.724 43.267 231.937 43.4612 232.094C43.6492 232.263 43.8623 232.401 44.0816 232.527C44.5265 232.759 45.009 232.89 45.4915 232.928C46.4502 233.009 47.3901 232.715 48.0356 232.163L48.1985 232.019L48.2737 232.22C48.6309 233.216 48.9755 234.119 49.4392 234.834C49.8966 235.554 50.4606 236.05 50.9995 236.344C52.0835 236.946 52.8605 236.708 52.848 236.764Z" fill="#FF9A6C"/>
<path d="M116.544 169.885C116.588 166.324 117.145 162.776 117.014 159.216C116.876 155.655 115.942 151.95 113.461 149.399C110.979 146.848 106.668 145.87 103.767 147.932L103.172 150.96C104.312 164.688 104.162 178.642 105.302 192.37C105.453 194.176 106.913 195.805 107.733 197.416C108.554 199.027 110.196 200.363 112.007 200.25C114.369 200.106 115.917 197.711 116.656 195.461C119.313 187.305 116.443 178.473 116.544 169.885Z" fill="#263238"/>
<path d="M107.984 151.43C107.464 150.553 106.938 149.656 106.173 148.979C105.415 148.296 104.375 147.851 103.372 148.045C102.902 148.133 102.42 148.402 102.263 148.854C102.106 149.305 102.445 149.913 102.921 149.876L103.021 149.963C104.087 150.904 105.171 151.831 106.273 152.728C106.549 152.953 106.837 153.185 107.182 153.292C107.527 153.398 107.94 153.348 108.178 153.079C108.573 152.627 108.285 151.938 107.984 151.43Z" fill="#FF725E"/>
<path d="M109.996 154.922C106.449 150.584 101.687 148.089 96.0846 147.995C92.9264 147.945 91.6168 148.597 89.3421 149.211C87.0675 149.825 85.0122 151.048 83.6587 152.972C82.0483 155.26 80.6948 157.824 80.3877 160.607C80.0744 163.466 79.7611 166.343 79.9742 169.214C80.1872 172.085 80.9705 174.969 82.6561 177.301L89.95 178.567C93.9791 178.705 98.0647 178.836 101.987 177.915C105.91 176.993 109.726 174.881 111.832 171.439C114.758 166.669 113.542 159.26 109.996 154.922Z" fill="#263238"/>
<path d="M103.504 154.872L93.7785 151.004L91.2407 151.298C85.5259 151.317 81.5782 157.623 81.5406 162.256C81.4968 167.402 81.6534 173.69 82.468 177.482C84.1098 185.111 90.6203 185.744 90.6203 185.744C90.6203 185.744 90.4888 189.806 90.4386 192.37L105.327 191.292L106.073 157.479C106.023 156.081 104.907 154.947 103.504 154.872Z" fill="#FFBF9D"/>
<path d="M93.9037 175.702C93.8536 175.301 93.628 174.944 93.3398 174.699C92.7696 174.21 91.9361 174.166 91.3283 174.586C90.7205 175.006 90.3696 175.871 90.4824 176.674C90.827 177.144 91.3471 177.464 91.9299 177.514C92.0176 177.52 92.1116 177.526 92.1993 177.52C92.638 177.507 93.0891 177.357 93.4212 177.037C93.7596 176.711 93.9664 176.197 93.9037 175.702Z" fill="#FF9A6C"/>
<path d="M84.1162 168.775C84.1288 169.296 84.5799 169.722 85.1251 169.722C85.6702 169.722 86.1026 169.296 86.0901 168.775C86.0775 168.255 85.6264 167.829 85.0875 167.829C84.5361 167.829 84.1037 168.255 84.1162 168.775Z" fill="#263238"/>
<path d="M83.2827 164.832C83.4143 164.951 84.1287 164.362 85.1939 164.306C86.2529 164.237 87.0612 164.738 87.1678 164.6C87.2242 164.538 87.0863 164.312 86.7291 164.086C86.3845 163.861 85.8017 163.654 85.1375 163.691C84.4796 163.729 83.9344 164.005 83.6274 164.274C83.3141 164.544 83.2201 164.782 83.2827 164.832Z" fill="#263238"/>
<path d="M90.1004 173.163C90.1004 173.101 89.4362 173.025 88.3584 172.944C88.089 172.931 87.8258 172.894 87.7694 172.706C87.6942 172.511 87.7944 172.217 87.9072 171.891C88.1265 171.22 88.3521 170.518 88.5965 169.785C89.549 166.782 90.2195 164.325 90.1004 164.287C89.9813 164.249 89.1103 166.65 88.1579 169.653C87.9323 170.393 87.713 171.095 87.5062 171.772C87.4185 172.085 87.2618 172.442 87.4247 172.844C87.5062 173.044 87.713 173.176 87.8947 173.213C88.0702 173.257 88.2268 173.251 88.3584 173.251C89.4362 173.257 90.1004 173.226 90.1004 173.163Z" fill="#263238"/>
<path d="M90.6016 185.744C90.6016 185.744 95.7962 185.795 100.753 182.428C100.753 182.428 98.3027 187.913 90.564 187.612L90.6016 185.744Z" fill="#FF9A6C"/>
<path d="M93.2648 173.727C93.0894 173.727 93.152 174.881 92.2121 175.752C91.2722 176.63 90.0377 176.567 90.0377 176.724C90.0252 176.799 90.326 176.931 90.8398 176.918C91.3474 176.906 92.0805 176.705 92.657 176.172C93.2335 175.639 93.4528 174.956 93.4653 174.48C93.4904 173.997 93.3463 173.715 93.2648 173.727Z" fill="#263238"/>
<path d="M83.6398 161.115C83.8341 161.366 84.6362 161.146 85.5886 161.172C86.5411 161.165 87.3432 161.403 87.5374 161.159C87.6252 161.04 87.5061 160.795 87.1615 160.551C86.8231 160.306 86.2466 160.1 85.5949 160.093C84.937 160.087 84.3605 160.281 84.0221 160.513C83.6774 160.752 83.5584 160.996 83.6398 161.115Z" fill="#263238"/>
<path d="M95.7023 168.506C95.7274 169.026 95.3138 169.484 94.7687 169.521C94.2235 169.559 93.7598 169.17 93.7347 168.65C93.7097 168.13 94.1232 167.672 94.6684 167.634C95.2073 167.597 95.671 167.985 95.7023 168.506Z" fill="#263238"/>
<path d="M97.645 164.425C97.5259 164.557 96.7677 164.017 95.7024 164.036C94.6434 164.043 93.8727 164.6 93.7537 164.475C93.6973 164.419 93.8163 164.187 94.1547 163.93C94.4868 163.679 95.0507 163.428 95.715 163.422C96.3792 163.416 96.9369 163.648 97.2627 163.892C97.5886 164.137 97.7076 164.369 97.645 164.425Z" fill="#263238"/>
<path d="M97.0058 161.021C96.799 161.266 95.9781 161.027 94.9881 161.034C94.0043 161.009 93.1709 161.228 92.9704 160.977C92.8826 160.858 93.0142 160.614 93.3714 160.375C93.7286 160.143 94.3239 159.943 95.0006 159.949C95.6774 159.955 96.2664 160.162 96.6173 160.407C96.9807 160.657 97.0998 160.902 97.0058 161.021Z" fill="#263238"/>
<path d="M104.751 170.418C104.719 169.847 105.308 168.456 105.872 168.337C107.37 168.017 110.102 167.992 110.334 171.828C110.653 177.075 105.327 176.316 105.308 176.166C105.296 176.047 104.857 172.399 104.751 170.418Z" fill="#FFBF9D"/>
<path d="M106.637 174.16C106.662 174.141 106.731 174.216 106.887 174.279C107.044 174.336 107.307 174.373 107.57 174.254C108.109 174.016 108.523 173.107 108.492 172.16C108.473 171.684 108.347 171.233 108.153 170.869C107.971 170.493 107.702 170.242 107.42 170.211C107.138 170.161 106.95 170.342 106.894 170.493C106.831 170.643 106.875 170.75 106.844 170.756C106.831 170.769 106.724 170.675 106.756 170.455C106.768 170.349 106.825 170.223 106.944 170.11C107.063 169.998 107.245 169.935 107.439 169.948C107.846 169.954 108.228 170.299 108.441 170.7C108.673 171.101 108.83 171.602 108.849 172.142C108.88 173.201 108.398 174.223 107.658 174.486C107.295 174.605 106.981 174.511 106.812 174.398C106.656 174.285 106.618 174.173 106.637 174.16Z" fill="#FF9A6C"/>
<path d="M106.085 168.355L104.751 169.734C98.9982 164.224 87.7567 150.433 88.3833 151.255C88.3833 151.255 92.3247 149.631 96.5983 150.364C100.878 151.092 108.987 153.235 108.861 158.282C108.748 163.328 106.085 168.355 106.085 168.355Z" fill="#263238"/>
<path d="M113.705 167.196C113.711 167.196 113.686 167.089 113.624 166.895C113.561 166.7 113.448 166.412 113.266 166.067C112.903 165.378 112.207 164.444 111.073 163.604C109.964 162.739 108.416 162.037 106.662 161.479C104.907 160.908 102.933 160.463 100.991 159.629C99.0359 158.827 97.2939 157.793 95.8088 156.727C94.33 155.649 93.1081 154.533 92.1556 153.53C91.2031 152.527 90.5076 151.637 90.0439 151.023C89.8308 150.728 89.6554 150.49 89.5175 150.302C89.3985 150.139 89.3295 150.051 89.3233 150.057C89.317 150.064 89.3671 150.158 89.4737 150.333C89.5802 150.509 89.7368 150.766 89.9624 151.085C90.4073 151.725 91.0778 152.634 92.024 153.662C92.9639 154.69 94.1858 155.831 95.6709 156.928C97.1623 158.012 98.9168 159.065 100.891 159.88C102.858 160.726 104.845 161.165 106.593 161.717C108.341 162.256 109.858 162.927 110.967 163.754C112.088 164.563 112.79 165.453 113.179 166.117C113.561 166.788 113.674 167.202 113.705 167.196Z" fill="#455A64"/>
<path d="M112.176 168.023C112.176 168.023 112.226 167.591 111.976 166.876C111.731 166.168 111.111 165.196 110.008 164.406C108.911 163.591 107.351 163.083 105.634 162.688C103.911 162.306 102.037 161.823 100.195 160.965C98.3591 160.112 96.7111 159.084 95.3513 157.975C93.9853 156.871 92.8825 155.73 92.0303 154.709C91.1718 153.693 90.589 152.778 90.1755 152.164C89.9937 151.863 89.8496 151.624 89.7306 151.43C89.624 151.261 89.5676 151.179 89.5614 151.179C89.5551 151.186 89.599 151.28 89.6867 151.455C89.7932 151.656 89.9248 151.907 90.0877 152.22C90.4762 152.859 91.0339 153.793 91.8799 154.834C92.7195 155.881 93.8224 157.047 95.1947 158.175C96.5607 159.31 98.2275 160.357 100.082 161.222C101.943 162.087 103.855 162.576 105.572 162.946C107.288 163.322 108.817 163.798 109.895 164.575C110.986 165.328 111.612 166.243 111.875 166.926C112.157 167.597 112.145 168.029 112.176 168.023Z" fill="#455A64"/>
<path d="M105.91 177.232C105.904 177.194 106.355 177.138 107.132 176.937C107.903 176.724 108.993 176.247 110.064 175.295C111.149 174.354 112.107 172.894 112.79 171.126C113.467 169.352 113.874 167.271 113.924 165.077C113.95 163.98 113.862 162.914 113.674 161.899C113.467 160.883 113.166 159.937 112.803 159.059C112.051 157.31 111.055 155.893 110.09 154.828C108.141 152.69 106.512 151.831 106.568 151.756C106.574 151.744 106.674 151.8 106.856 151.907C107.038 152.019 107.32 152.17 107.646 152.408C108.316 152.866 109.256 153.593 110.265 154.658C111.274 155.718 112.314 157.147 113.091 158.927C113.467 159.824 113.787 160.795 114 161.83C114.2 162.87 114.288 163.967 114.269 165.083C114.213 167.315 113.793 169.433 113.085 171.239C112.377 173.044 111.362 174.536 110.221 175.476C109.099 176.435 107.953 176.887 107.163 177.062C106.768 177.169 106.443 177.175 106.236 177.213C106.023 177.238 105.916 177.244 105.91 177.232Z" fill="#455A64"/>
<path d="M112.584 241.754L81.5785 246.261C69.9296 249.559 57.6604 250.524 44.8335 249.408L91.4979 271.185L110.234 271.473C110.234 271.473 115.936 271.492 116.932 266.496C117.947 261.425 119.038 246.355 119.038 246.355C119.038 246.355 115.334 243.133 112.584 241.754Z" fill="#263238"/>
<g opacity="0.3">
<path d="M112.496 254.812C113.003 257.915 113.191 261.068 113.041 264.208C114.958 262.14 115.836 259.149 115.341 256.372C115.065 254.837 114.432 253.157 115.234 251.821C115.773 250.925 117.195 249.897 116.989 248.875C116.989 248.875 115.742 248.875 114.614 248.831C113.705 248.794 111.819 248.737 111.819 248.737C112.772 251.195 112.696 252.705 112.32 254.899" fill="black"/>
</g>
<path d="M90.4827 191.091L105.547 189.462L108.304 191.975L97.551 198.3L92.8075 200.758L88.1203 199.335L86.6353 196.539L90.4827 191.091Z" fill="#FFBF9D"/>
<path d="M70.1741 209.446C70.1741 209.446 74.8988 200.381 76.0643 198.401C78.0569 195.022 81.7791 193.11 81.7791 193.11L90.4828 191.098C90.4828 191.098 89.5805 195.461 94.9945 195.762C101.881 196.144 106.161 189.537 106.161 189.537C106.161 189.537 114.019 190.345 116.193 191.261C118.361 192.176 124.502 194.74 125.404 202.908L127.51 216.241L110.904 217.507L111.136 235.254L104.08 241.027C104.08 241.027 83.8156 248.004 82.5247 248.468C81.9107 248.687 82.061 240.068 80.6136 232.69L77.8815 226.045C76.7849 223.387 76.1082 220.566 75.9452 217.695C75.8387 215.808 75.8888 214.373 75.8888 214.373C75.8888 214.373 71.6278 212.906 70.1741 209.446Z" fill="#455A64"/>
<path d="M83.2578 241.491L111.099 233.129L110.904 217.501L125.085 216.423C125.085 216.423 123.95 224.522 123.788 228.672C123.549 234.646 120.68 242.989 118.756 244.763C116.832 246.537 82.5247 248.461 82.5247 248.461L83.2578 241.491Z" fill="#FFBF9D"/>
<path d="M67.4733 246.405C67.7051 246.788 68.1375 247.013 68.5761 246.938C68.6639 246.926 68.7516 246.901 68.8456 246.863C69.4534 246.612 69.2967 245.34 69.2967 245.34L72.2607 244.619C72.2607 244.619 76.3588 246.832 77.8752 248.393C79.3916 249.953 82.8317 248.33 82.8317 248.33L83.5649 241.836L77.6559 237.266C77.6559 237.266 78.0193 237.535 77.5619 236.633C77.1107 235.73 75.4 236.213 75.4 236.213C75.093 235.774 73.9463 235.692 73.9463 235.692L69.1464 236.626C68.1563 236.821 67.3104 237.448 66.8341 238.338L65.0357 241.742C65.0357 241.742 64.1334 244.161 64.3527 244.694C64.6786 245.49 65.5308 245.246 65.5308 245.246C65.5308 245.246 65.8879 246.763 66.2952 246.788C66.7025 246.807 67.4733 246.405 67.4733 246.405Z" fill="#FFBF9D"/>
<path d="M77.4241 241.008C77.4241 241.058 76.7724 241.052 75.7447 241.177C74.7171 241.309 73.3009 241.597 71.8472 242.224C71.1203 242.531 70.4561 242.889 69.8733 243.252C69.3156 243.628 68.7266 243.948 68.5699 244.387C68.4948 244.6 68.5512 244.813 68.6702 244.957C68.783 245.108 68.9334 245.196 69.0587 245.239C69.3219 245.327 69.4785 245.239 69.4911 245.271C69.5036 245.277 69.3532 245.415 69.0337 245.359C68.877 245.327 68.6953 245.239 68.5386 245.07C68.382 244.907 68.2754 244.613 68.3632 244.318C68.4446 244.03 68.6702 243.791 68.9146 243.591C69.1652 243.396 69.4284 243.202 69.7229 243.008C70.3057 242.619 70.9824 242.249 71.7281 241.936C73.2132 241.297 74.6732 241.033 75.7259 240.958C76.7787 240.889 77.4304 240.977 77.4241 241.008Z" fill="#FF9A6C"/>
<path d="M78.0066 244.073C78.0066 244.168 76.0328 244.236 73.6203 244.569C71.2078 244.888 69.2841 245.346 69.259 245.258C69.2465 245.221 69.7165 245.051 70.4997 244.857C71.2767 244.656 72.3671 244.431 73.5827 244.268C74.7983 244.105 75.9075 244.036 76.7095 244.023C77.5053 243.998 78.0066 244.036 78.0066 244.073Z" fill="#FF9A6C"/>
<path d="M67.4858 246.28C67.467 246.28 67.4356 246.105 67.3855 245.766C67.3416 245.434 67.279 244.951 67.2727 244.349C67.2727 244.048 67.279 243.716 67.3291 243.359C67.3792 243.002 67.5171 242.613 67.7239 242.268C68.1124 241.572 68.6638 240.839 69.3969 240.268C70.1238 239.704 70.8632 239.215 71.6214 238.914C72.3734 238.62 73.094 238.507 73.6893 238.432C74.2846 238.363 74.7733 238.338 75.1055 238.325C75.4376 238.313 75.6255 238.319 75.6255 238.338C75.6318 238.388 74.8924 238.469 73.7206 238.645C73.1379 238.745 72.4423 238.877 71.728 239.171C71.0199 239.46 70.293 239.949 69.5912 240.5C68.8831 241.058 68.3693 241.729 67.9745 242.406C67.5547 243.052 67.5234 243.76 67.492 244.349C67.467 245.534 67.5547 246.274 67.4858 246.28Z" fill="#FF9A6C"/>
<path d="M73.8085 236.946C73.8147 236.99 73.0878 237.065 71.9411 237.291C70.8383 237.548 69.0649 237.767 68.1626 239.385C67.1726 240.87 66.3391 242.262 66.0133 243.378C65.6624 244.487 65.7564 245.227 65.6937 245.227C65.6749 245.227 65.6373 245.045 65.6248 244.713C65.6123 244.381 65.6436 243.892 65.8003 243.315C66.0822 242.143 66.9094 240.701 67.9057 239.209C68.1626 238.833 68.4383 238.476 68.7767 238.181C69.1088 237.886 69.5098 237.698 69.8733 237.554C70.619 237.278 71.3208 237.159 71.9035 237.071C73.069 236.902 73.8022 236.909 73.8085 236.946Z" fill="#FF9A6C"/>
<path d="M76.7347 247.446C76.7284 247.452 76.6219 247.383 76.4276 247.245C76.2083 247.095 75.9201 246.901 75.5692 246.656C74.811 246.161 73.6831 245.453 72.2168 244.707L72.2857 244.713C71.4022 244.932 70.4058 245.183 69.328 245.459L69.422 245.327C69.4471 245.572 69.4534 245.81 69.422 246.067C69.3907 246.318 69.3343 246.587 69.1401 246.813C69.0398 246.926 68.8831 247.001 68.7578 247.026C68.6262 247.07 68.4821 247.095 68.338 247.082C68.0497 247.064 67.7678 246.932 67.561 246.725C67.5108 246.675 67.4607 246.619 67.4169 246.556L67.3855 246.512L67.373 246.487L67.3667 246.474C67.3291 246.462 67.7114 246.568 67.5484 246.524H67.5422L67.4482 246.568C67.3229 246.631 67.1975 246.681 67.0722 246.738C66.9406 246.788 66.809 246.838 66.6712 246.869C66.6023 246.888 66.5271 246.901 66.4519 246.913C66.3767 246.919 66.2889 246.932 66.1699 246.882C65.9944 246.775 65.9192 246.637 65.844 246.506C65.7751 246.374 65.7125 246.242 65.6623 246.105C65.5558 245.835 65.4743 245.559 65.4054 245.271L65.5871 245.377C65.2049 245.478 64.7349 245.415 64.4404 245.083C64.3088 244.926 64.1898 244.732 64.1898 244.493C64.1835 244.28 64.2148 244.092 64.2524 243.904C64.4028 243.152 64.6472 242.425 64.9104 241.679L64.9166 241.673L64.9229 241.66C65.23 241.083 65.5558 240.469 65.8816 239.842C66.0884 239.454 66.2889 239.071 66.4895 238.689C66.69 238.319 66.8654 237.911 67.1662 237.567C67.4545 237.228 67.8054 236.952 68.2001 236.758C68.5886 236.557 69.0273 236.476 69.4158 236.407C71.0074 236.1 72.5238 235.811 73.9462 235.542L73.965 235.536H73.9838C74.2658 235.561 74.5353 235.605 74.7984 235.686C75.0554 235.768 75.3311 235.862 75.5316 236.119L75.3624 236.081C75.8574 235.83 76.4527 235.78 76.9227 236.05C77.3989 236.313 77.6433 236.777 77.7874 237.216L77.7435 237.153C79.4417 238.457 80.8265 239.522 81.8166 240.281C82.274 240.638 82.6375 240.927 82.9132 241.146C83.1638 241.347 83.2891 241.459 83.2829 241.466C83.2766 241.472 83.1325 241.384 82.8756 241.196C82.5873 240.989 82.2113 240.72 81.7414 240.381C80.7388 239.642 79.3289 238.601 77.6057 237.335L77.5806 237.316L77.5681 237.278C77.4365 236.89 77.1984 236.47 76.8099 236.263C76.4276 236.05 75.9076 236.094 75.494 236.307L75.3937 236.357L75.3248 236.263C75.2057 236.106 74.9676 236.006 74.7295 235.937C74.4914 235.868 74.2282 235.824 73.9713 235.805H74.0089C72.5927 236.087 71.0763 236.382 69.4847 236.695C69.0774 236.771 68.7014 236.84 68.3443 237.028C67.9933 237.203 67.6738 237.454 67.4106 237.761C67.1474 238.062 66.9782 238.444 66.7714 238.827C66.5709 239.209 66.3704 239.591 66.1636 239.98C65.8378 240.601 65.5119 241.215 65.2049 241.798L65.2112 241.779C64.948 242.506 64.7099 243.234 64.5595 243.948C64.5281 244.124 64.4968 244.305 64.5031 244.468C64.4968 244.606 64.5783 244.75 64.6785 244.87C64.8728 245.102 65.23 245.152 65.5182 245.083L65.6686 245.045L65.7062 245.189C65.7751 245.459 65.8503 245.735 65.9506 245.985C66.0446 246.23 66.1762 246.518 66.314 246.612C66.3203 246.612 66.3767 246.625 66.4393 246.619C66.4957 246.612 66.5584 246.6 66.621 246.587C66.7464 246.556 66.8654 246.512 66.9908 246.468C67.1098 246.418 67.2351 246.368 67.3479 246.311L67.4357 246.267H67.4419C67.279 246.224 67.6675 246.33 67.6236 246.318L67.6299 246.324L67.6424 246.343L67.6675 246.38C67.7051 246.424 67.7364 246.474 67.7803 246.512C67.9432 246.675 68.1625 246.782 68.3819 246.794C68.4946 246.807 68.6012 246.788 68.7077 246.75C68.8268 246.725 68.9019 246.681 68.9709 246.612C69.2341 246.293 69.2341 245.76 69.2027 245.333L69.1965 245.221L69.2967 245.196C70.3808 244.939 71.3771 244.7 72.2669 244.493L72.3045 244.487L72.3358 244.506C73.8084 245.283 74.9175 246.017 75.6632 246.543C76.0329 246.813 76.3149 247.026 76.4966 247.176C76.647 247.352 76.741 247.433 76.7347 247.446Z" fill="#FF9A6C"/>
<path d="M62.266 251.477C62.266 251.477 42.6215 245.302 36.4493 243.302C25.8281 239.855 18.8726 243.34 16.6794 247.145C13.8346 252.078 20.6585 261.701 23.284 263.914C31.0729 270.464 44.4262 271.348 44.4262 271.348L92.4378 271.26L78.4203 252.248L62.266 251.477Z" fill="#263238"/>
<path d="M65.2049 260.391C57.2468 261.325 49.0569 260.209 41.6377 257.181C40.3406 256.655 39.0623 256.065 37.7026 255.721C36.3804 255.388 35.0018 255.288 33.6483 255.432C32.5768 255.545 31.4364 255.871 30.7847 256.73C29.826 257.996 30.321 259.789 30.8536 261.281C31.474 263.03 32.1257 264.829 33.3476 266.227C34.77 267.869 36.8378 268.803 38.912 269.455C42.9662 270.734 47.246 271.097 51.4945 271.267L66.0884 270.47L65.2049 260.391Z" fill="#E0E0E0"/>
<path d="M37.0321 255.727C37.0509 255.721 37.1324 255.852 37.2577 256.122C37.3768 256.385 37.5272 256.78 37.6462 257.288C37.8906 258.291 37.9721 259.789 37.4833 261.318C36.9883 262.848 36.0546 264.014 35.2713 264.691C34.8766 265.036 34.5319 265.268 34.275 265.412C34.0244 265.556 33.874 265.619 33.8677 265.6C33.8364 265.556 34.3941 265.236 35.121 264.528C35.8478 263.832 36.7188 262.691 37.1888 261.218C37.6588 259.751 37.6149 258.316 37.4332 257.325C37.2452 256.329 36.982 255.746 37.0321 255.727Z" fill="#263238"/>
<path d="M112.402 250.267C111.262 247.032 111.074 242.281 104.037 239.999C97.0059 237.717 91.6796 242.093 88.0703 243.61C84.461 245.133 64.6911 255.971 64.6911 255.971C64.6911 255.971 60.969 262.61 62.028 265.543C63.087 268.471 67.8994 271.373 67.8994 271.373H82.1738C82.1738 271.373 84.2981 271.373 90.0003 271.373C95.7025 271.373 106.311 271.185 106.311 271.185C108.266 268.12 110.115 263.957 110.115 263.957L110.303 263.005C110.309 262.246 113.542 253.501 112.402 250.267Z" fill="#263238"/>
<path d="M100.158 267.067C100.158 267.067 100.139 267.192 99.9948 267.368C99.8507 267.543 99.6125 267.775 99.2679 268.026C98.5849 268.527 97.5196 269.148 96.1411 269.775C95.4518 270.088 94.6873 270.414 93.8351 270.684C92.9829 270.953 92.043 271.154 91.0529 271.285C89.0603 271.567 86.8546 271.505 84.5611 271.542C79.9618 271.618 75.801 271.787 72.7807 271.756C71.2705 271.743 70.0486 271.68 69.209 271.599C68.7891 271.555 68.4633 271.511 68.244 271.461C68.0247 271.417 67.9119 271.392 67.9119 271.379C67.9181 271.348 68.3756 271.43 69.2152 271.473C70.0549 271.524 71.2705 271.549 72.7807 271.536C75.7947 271.511 79.9555 271.304 84.5611 271.235C86.8671 271.204 89.054 271.273 91.0216 271.01C92.0054 270.884 92.9265 270.696 93.7662 270.445C94.6059 270.195 95.3703 269.881 96.0596 269.58C97.4382 268.979 98.5097 268.396 99.2053 267.932C99.5562 267.7 99.8005 267.493 99.9572 267.336C100.108 267.167 100.139 267.054 100.158 267.067Z" fill="#263238"/>
<path d="M67.9056 271.373C67.9056 271.373 67.7991 271.329 67.6111 271.216C67.4231 271.11 67.1474 270.934 66.7902 270.702C66.0822 270.226 65.042 269.518 63.8827 268.389C63.3125 267.819 62.7047 267.142 62.241 266.271C61.7522 265.387 61.7272 264.24 61.9151 263.124C62.3037 260.861 63.2937 258.447 64.5845 255.909L64.5971 255.877L64.6284 255.858C68.244 253.865 72.3985 251.602 76.9352 249.164C79.2036 247.947 81.5722 246.688 84.0286 245.421C85.2567 244.794 86.4974 244.142 87.8071 243.559C89.1042 243.008 90.3449 242.287 91.642 241.629C93.478 240.688 95.3704 239.861 97.3568 239.479C98.3406 239.266 99.3431 239.203 100.333 239.203C101.317 239.253 102.295 239.366 103.228 239.617C105.089 240.112 106.844 240.889 108.291 242.036C108.999 242.625 109.62 243.296 110.134 244.03C110.635 244.769 111.011 245.565 111.324 246.368C111.631 247.17 111.857 247.979 112.082 248.769C112.289 249.559 112.609 250.298 112.715 251.113C112.872 252.718 112.609 254.229 112.339 255.633C112.051 257.043 111.706 258.36 111.355 259.588C111.18 260.203 111.005 260.792 110.835 261.362C110.672 261.926 110.484 262.497 110.403 262.998V263.017C110.328 263.374 110.271 263.675 110.209 263.97V263.976C109.413 266.471 108.442 268.308 107.671 269.486C106.894 270.665 106.324 271.179 106.324 271.179C106.324 271.179 106.349 271.135 106.405 271.066C106.474 270.985 106.556 270.878 106.668 270.746C106.894 270.464 107.213 270.032 107.589 269.436C108.329 268.251 109.275 266.402 110.04 263.926V263.932C110.397 263.631 110.328 263.337 110.228 262.98V262.998C110.315 262.415 110.497 261.889 110.654 261.306C110.817 260.735 110.986 260.14 111.155 259.526C111.493 258.297 111.832 256.987 112.107 255.583C112.371 254.185 112.621 252.68 112.458 251.138C112.358 250.392 112.032 249.627 111.825 248.838C111.6 248.048 111.374 247.245 111.067 246.462C110.76 245.678 110.39 244.901 109.902 244.186C109.4 243.478 108.805 242.826 108.116 242.256C106.712 241.146 104.983 240.381 103.159 239.905C102.244 239.654 101.292 239.548 100.333 239.504C99.3682 239.504 98.3907 239.56 97.4257 239.773C95.4832 240.143 93.6158 240.958 91.7924 241.898C90.5015 242.557 89.2546 243.277 87.9387 243.842C86.6541 244.418 85.4071 245.064 84.1789 245.691C81.7226 246.957 79.3602 248.211 77.0856 249.421C72.5552 251.865 68.3944 254.11 64.7537 256.072L64.8039 256.021C63.513 258.529 62.5104 260.936 62.1094 263.149C61.9151 264.252 61.9277 265.33 62.3914 266.189C62.8363 267.042 63.4316 267.719 63.983 268.289C65.1172 269.417 66.1448 270.151 66.8341 270.64C67.1788 270.872 67.4419 271.047 67.6362 271.179C67.8179 271.31 67.9056 271.373 67.9056 271.373Z" fill="#263238"/>
<path d="M103.874 263.174C103.874 263.174 110.459 263.957 109.87 267.186C109.288 270.408 107.132 271.492 107.132 271.492L89.2358 271.53C89.2421 271.53 99.926 270.784 103.874 263.174Z" fill="#E0E0E0"/>
<path d="M104.513 261.607C104.55 261.619 104.5 261.97 104.312 262.522C104.124 263.067 103.786 263.807 103.247 264.515C102.144 265.951 100.741 266.509 100.728 266.446C100.672 266.358 101.956 265.694 103.003 264.327C104.049 262.967 104.413 261.569 104.513 261.607Z" fill="#263238"/>
<path d="M102.232 262.873C102.32 262.879 102.219 263.983 101.599 265.167C100.997 266.352 100.22 267.123 100.164 267.067C100.095 267.01 100.74 266.177 101.323 265.029C101.919 263.888 102.144 262.86 102.232 262.873Z" fill="#263238"/>
<path d="M110.629 270.59C110.578 270.565 111.004 269.75 111.518 268.364C112.038 266.985 112.602 265.011 112.859 262.773C113.11 260.535 113.003 258.485 112.809 257.024C112.615 255.558 112.389 254.667 112.446 254.655C112.465 254.649 112.54 254.868 112.653 255.269C112.772 255.67 112.903 256.26 113.028 256.993C113.279 258.46 113.423 260.541 113.166 262.81C112.903 265.08 112.295 267.067 111.719 268.446C111.431 269.135 111.174 269.681 110.967 270.038C110.766 270.408 110.647 270.602 110.629 270.59Z" fill="#455A64"/>
<g opacity="0.3">
<path d="M106.906 261.437C106.862 261.005 106.687 260.491 106.261 260.403C105.741 260.297 105.384 260.898 105.171 261.387C102.902 266.64 95.4391 270.728 89.7432 271.254C92.0867 271.273 95.7023 270.997 98.0083 270.577C100.314 270.157 102.583 269.273 104.312 267.694C106.035 266.108 107.151 263.763 106.906 261.437Z" fill="black"/>
</g>
<path d="M63.3063 254.291C63.2687 254.367 61.8525 253.827 60.1418 253.088C58.4312 252.348 57.0651 251.677 57.0965 251.602C57.1278 251.521 58.544 252.06 60.2672 252.806C61.9778 253.552 63.3376 254.216 63.3063 254.291Z" fill="#263238"/>
<g opacity="0.2">
<path d="M69.6851 251.527C61.1631 249.897 52.6098 248.449 44.0251 247.183L37.6335 249.207C39.4257 252.542 42.9661 254.661 46.6443 255.545C50.3226 256.423 54.17 256.216 57.936 255.865C62.0842 255.482 66.3453 254.899 69.9546 252.824C70.2303 252.668 70.5373 252.43 70.506 252.11C70.4747 251.74 70.0423 251.596 69.6851 251.527Z" fill="black"/>
</g>
<path d="M27.7268 226.127L38.4608 249.891C38.9057 250.875 39.877 251.514 40.9548 251.527L72.2732 251.934L76.2209 249.809L70.0362 249.358L60.4113 226.252C60.1043 225.512 59.3899 225.036 58.5878 225.03L28.5853 224.804C27.9085 224.791 27.4448 225.5 27.7268 226.127Z" fill="#E0E0E0"/>
<path d="M27.7267 226.127C27.7267 226.127 27.6641 226.039 27.6327 225.838C27.6014 225.644 27.6327 225.305 27.9273 225.017C28.0714 224.879 28.2844 224.766 28.5351 224.754C28.7732 224.754 29.0364 224.747 29.3246 224.747C29.8948 224.747 30.5528 224.747 31.2859 224.747C34.2561 224.76 38.5359 224.773 43.8559 224.791C46.5191 224.804 49.4454 224.823 52.5847 224.835C54.1576 224.842 55.7868 224.854 57.4661 224.86C57.8922 224.867 58.3183 224.867 58.7444 224.873C59.2018 224.904 59.653 225.092 59.9976 225.399C60.3611 225.694 60.5616 226.164 60.7183 226.553C60.8874 226.96 61.0566 227.368 61.2321 227.775C63.9704 234.345 67.0033 241.597 70.2053 249.276L70.0549 249.17C71.9598 249.308 73.9775 249.458 76.0266 249.609C76.1018 249.615 76.1707 249.621 76.2396 249.621L76.8412 249.665L76.3086 249.953C74.9551 250.681 73.6141 251.401 72.3609 252.078L72.3233 252.097H72.2794C63.8075 251.984 55.793 251.872 48.5305 251.771C46.7133 251.746 44.9462 251.721 43.2293 251.696C42.3646 251.677 41.5374 251.69 40.679 251.646C39.808 251.552 39.0122 251.044 38.5547 250.336C37.1574 247.396 35.9919 244.669 34.8577 242.18C32.6394 237.216 30.8473 233.21 29.6066 230.427C28.9988 229.054 28.5288 227.982 28.203 227.242C28.0526 226.885 27.9335 226.609 27.8458 226.409C27.7581 226.227 27.7267 226.127 27.7267 226.127C27.7267 226.127 27.7831 226.214 27.8709 226.402C27.9649 226.597 28.0902 226.873 28.2594 227.217C28.5977 227.951 29.0928 229.016 29.7194 230.377C30.9852 233.147 32.8086 237.134 35.0707 242.086C36.2112 244.55 37.4205 247.321 38.7866 250.185C39.2001 250.825 39.9208 251.282 40.704 251.364C41.5061 251.401 42.3708 251.389 43.223 251.408C44.94 251.427 46.707 251.445 48.5242 251.47C55.7868 251.558 63.8075 251.658 72.2731 251.759L72.1854 251.778C73.4386 251.101 74.7796 250.38 76.1331 249.653L76.202 249.985C76.1331 249.979 76.0642 249.972 75.989 249.972C73.9462 249.822 71.9222 249.671 70.0173 249.533L69.9108 249.527L69.8669 249.427C66.6774 241.748 63.6571 234.489 60.925 227.913C60.7559 227.499 60.5867 227.092 60.4175 226.691C60.2546 226.271 60.0979 225.907 59.7846 225.644C59.4838 225.381 59.1016 225.218 58.7068 225.186C58.287 225.18 57.8671 225.174 57.4473 225.167C55.768 225.149 54.1388 225.136 52.5659 225.124C49.4203 225.092 46.5003 225.061 43.8371 225.036C38.5234 224.973 34.2436 224.923 31.2734 224.885C30.534 224.873 29.8823 224.867 29.3121 224.854C29.0301 224.848 28.7669 224.848 28.5288 224.841C28.297 224.848 28.1027 224.948 27.9649 225.067C27.6829 225.324 27.639 225.65 27.6578 225.838C27.6891 226.033 27.7393 226.127 27.7267 226.127Z" fill="#263238"/>
<path d="M69.1213 251.89C69.1087 251.897 69.0649 251.803 68.9771 251.633C68.8831 251.427 68.7641 251.17 68.62 250.869C68.3067 250.154 67.8805 249.189 67.3605 248.023C66.314 245.616 64.8916 242.274 63.3626 238.57C61.8337 234.865 60.4802 231.492 59.5465 229.035C59.0828 227.807 58.7068 226.81 58.4687 226.114C58.3622 225.794 58.2682 225.531 58.1993 225.312C58.1429 225.13 58.1115 225.03 58.1241 225.023C58.1366 225.017 58.1805 225.111 58.2557 225.287C58.3434 225.5 58.4499 225.757 58.5815 226.07C58.876 226.797 59.2708 227.769 59.7533 228.954C60.7684 231.424 62.1344 234.758 63.6509 238.451C65.1736 242.137 66.5458 245.471 67.5672 247.941C68.0497 249.126 68.4382 250.098 68.7328 250.825C68.8518 251.138 68.9521 251.402 69.0398 251.615C69.1025 251.79 69.1338 251.884 69.1213 251.89Z" fill="#263238"/>
<path d="M49.6959 237.648C49.6959 238.494 49.0066 239.184 48.1607 239.184C47.3148 239.184 46.6255 238.494 46.6255 237.648C46.6255 236.802 47.3148 236.112 48.1607 236.112C49.0066 236.112 49.6959 236.802 49.6959 237.648Z" fill="white"/>
<path d="M80.1811 199.429C80.2312 199.454 79.7801 200.3 79.1472 201.71C78.5143 203.115 77.7247 205.102 77.0919 207.365C76.459 209.634 76.1081 211.74 75.9201 213.27C75.7321 214.799 75.682 215.758 75.6256 215.758C75.6005 215.758 75.5942 215.52 75.5942 215.081C75.5942 214.649 75.6193 214.022 75.682 213.245C75.8073 211.696 76.1269 209.565 76.766 207.277C77.4052 204.989 78.2323 203.002 78.9279 201.61C79.2725 200.914 79.5733 200.363 79.7989 199.993C80.0307 199.617 80.1623 199.416 80.1811 199.429Z" fill="#263238"/>
<path d="M127.51 216.235C127.51 216.247 127.391 216.26 127.165 216.291C126.908 216.316 126.576 216.348 126.169 216.391C125.26 216.467 124.007 216.573 122.447 216.705C119.238 216.949 114.802 217.282 109.72 217.664L109.557 217.676L109.544 217.513C109.438 215.821 109.325 214.034 109.212 212.204C109.031 209.007 108.88 205.961 108.83 203.184C108.686 200.394 109.369 197.843 110.466 196.031C111.55 194.194 112.985 193.122 114.031 192.602C114.564 192.351 114.99 192.182 115.297 192.113C115.598 192.032 115.754 191.988 115.754 192C115.767 192.044 115.121 192.176 114.094 192.721C113.079 193.273 111.7 194.345 110.672 196.156C109.626 197.949 108.987 200.425 109.143 203.184C109.212 205.954 109.375 208.994 109.551 212.191C109.664 214.028 109.77 215.808 109.877 217.501L109.701 217.351C114.789 217.012 119.226 216.717 122.434 216.511C123.994 216.423 125.254 216.348 126.162 216.297C126.576 216.279 126.902 216.266 127.165 216.254C127.391 216.222 127.51 216.222 127.51 216.235Z" fill="#263238"/>
<path d="M96.2915 227.092C96.2853 227.111 96.0848 227.042 95.7338 226.885C95.5584 226.81 95.3453 226.716 95.1135 226.572C94.8817 226.434 94.5997 226.296 94.324 226.089C93.7537 225.713 93.1208 225.186 92.488 224.534C91.8676 223.87 91.2535 223.074 90.7334 222.165C90.2196 221.25 89.8562 220.316 89.5992 219.444C89.3611 218.567 89.2295 217.758 89.1982 217.075C89.1606 216.736 89.1857 216.423 89.1857 216.153C89.1857 215.884 89.2107 215.652 89.2358 215.457C89.2859 215.081 89.3235 214.874 89.3423 214.874C89.4113 214.881 89.2985 215.721 89.4301 217.056C89.4865 217.727 89.6431 218.51 89.8875 219.363C90.1507 220.209 90.5204 221.112 91.0154 222.002C91.5292 222.886 92.1183 223.663 92.7073 224.321C93.3151 224.967 93.9104 225.5 94.4493 225.895C95.5396 226.697 96.3166 227.029 96.2915 227.092Z" fill="#263238"/>
</g>
<defs>
<clipPath id="clip0_328_4997">
<rect width="295" height="272" fill="white" transform="translate(0.5)"/>
</clipPath>
</defs>
</svg>
