<svg width="146" height="134" viewBox="0 0 146 134" fill="none" xmlns="http://www.w3.org/2000/svg">
<defs>
<linearGradient id="paint0_linear_634_9527" x1="51.2241" y1="26.1398" x2="124.015" y2="147.457" gradientUnits="userSpaceOnUse">
<stop stop-color="#59DED2"/>
<stop offset="1" stop-color="#FAFAFA"/>
</linearGradient>
<linearGradient id="paint1_linear_634_9527" x1="136.727" y1="26.1398" x2="63.936" y2="147.457" gradientUnits="userSpaceOnUse">
<stop stop-color="#FAFAFA"/>
<stop offset="1" stop-color="#59DED2"/>
</linearGradient>
</defs>
<circle cx="50" cy="50" r="50" fill="#FFBE3B"/>
<path d="M24.788 37.9C24.788 39.356 25.348 40.364 26.916 40.364C28.484 40.364 29.044 39.356 29.044 37.9V21.996C29.044 20.484 28.316 20.092 27.42 20.092C25.04 20.092 25.908 23.284 22.8 23.956L21.764 24.18C20.308 24.46 19.748 24.74 19.748 25.776C19.748 26.924 20.252 27.26 21.176 27.26H24.788V37.9ZM39.6903 36.472C40.0543 35.408 41.9863 34.26 45.1503 32.468C48.1183 30.788 49.8263 29.332 49.8263 25.608C49.8263 23.032 47.1663 20.092 42.6863 20.092C38.5703 20.092 35.2103 22.696 35.2103 26.112C35.2103 27.512 36.1063 27.988 37.2543 27.988C38.3743 27.988 38.7383 27.456 39.0183 26.42C39.6343 24.18 40.8383 23.452 42.6303 23.452C44.1703 23.452 45.5703 24.46 45.5703 26.28C45.5703 28.548 44.2263 29.052 40.3343 31.516C36.8343 33.728 35.0703 35.94 35.0703 37.928C35.0703 38.908 35.7423 40 37.3663 40H47.8663C49.1543 40 49.9383 39.496 49.9383 38.236C49.9383 36.976 49.1543 36.472 48.0903 36.472H39.6903Z" fill="#FAFAFA"/>
<path d="M17.868 63.52C17.868 65.088 19.52 68.364 24.784 68.364C28.928 68.364 32.344 66.236 32.344 61.812C32.344 59.712 31.448 58.032 29.348 57.444C30.916 56.604 31.728 55.316 31.728 53.524C31.728 50.808 29.936 48.092 25.092 48.092C22.376 48.092 18.316 49.548 18.316 52.964C18.316 54.224 19.24 54.644 20.192 54.644C22.404 54.644 21.62 51.452 25.008 51.452C26.492 51.452 27.808 52.236 27.808 53.916C27.808 55.204 27.08 56.016 25.68 56.1C24.084 56.184 23.244 56.492 23.244 57.948C23.244 59.236 24.784 59.376 25.568 59.46C27.5 59.656 28.088 60.636 28.088 61.98C28.088 63.716 26.968 65.004 24.868 65.004C21.004 65.004 22.348 61.56 19.856 61.56C18.708 61.56 17.868 62.372 17.868 63.52ZM45.9177 60.328H40.4577L45.8617 53.076H45.9177V60.328ZM45.9177 66.404C45.9177 67.58 46.4217 68.364 47.8777 68.364C49.3337 68.364 49.8377 67.58 49.8377 66.404V63.52H51.2377C52.1897 63.52 52.8057 62.848 52.8057 61.924C52.8057 61 52.1897 60.328 51.2377 60.328H49.8377V50.108C49.8377 48.904 49.2497 48.092 47.7377 48.092C46.9537 48.092 46.3377 48.316 45.9177 48.876L37.2937 59.936C36.9297 60.412 36.7617 60.86 36.7617 61.588C36.7617 62.484 37.4337 63.52 38.8897 63.52H45.9177V66.404Z" fill="#FAFAFA"/>
<path d="M15.7 98.584C15.532 99.032 15.252 99.844 15.252 100.348C15.252 101.58 16.12 102.364 17.38 102.364C18.472 102.364 19.116 102 19.424 101.104L20.628 97.744H28.02L29.196 101.104C29.532 102 30.26 102.364 31.268 102.364C32.444 102.364 33.424 101.468 33.424 100.348C33.424 99.844 33.144 99.032 32.976 98.584L27.432 83.156C26.928 81.728 26.004 81.476 24.968 81.476H23.876C22.756 81.476 22.028 81.84 21.636 82.876L15.7 98.584ZM27.012 94.552H21.636L24.352 86.46H24.408L27.012 94.552ZM36.3638 99.312C36.3638 101.356 37.4278 102 39.0518 102H45.7998C49.7758 102 53.2198 100.264 53.2198 96.036C53.2198 93.264 51.8198 91.752 49.6918 91.192V91.136C51.5958 90.38 52.5198 88.756 52.5198 87.048C52.5198 82.596 48.5158 81.84 45.1558 81.84H39.0518C37.4278 81.84 36.3638 82.484 36.3638 84.528V99.312ZM40.9558 93.04H44.2598C46.4998 93.04 48.6278 93.348 48.6278 95.784C48.6278 98.108 46.6118 98.472 44.8198 98.472H40.9558V93.04ZM40.9558 85.2H44.5958C46.3038 85.2 47.9278 85.732 47.9278 87.664C47.9278 89.26 46.8918 90.128 44.7358 90.128H40.9558V85.2Z" fill="#FAFAFA"/>
<path d="M15.484 115.92C15.484 122.864 19.208 126.476 25.508 126.476C29.96 126.476 33.488 123.592 33.488 120.68C33.488 119.56 32.368 118.916 31.248 118.916C29.036 118.916 29.12 122.78 25.508 122.78C21.532 122.78 20.076 119.588 20.076 115.92C20.076 111.552 22.456 109.06 25.34 109.06C29.54 109.06 28.756 112.7 31.416 112.7C32.788 112.7 33.488 111.916 33.488 110.628C33.488 108.668 30.604 105.364 25.34 105.364C18.844 105.364 15.484 110.236 15.484 115.92ZM36.895 123.312C36.895 125.356 37.959 126 39.583 126H45.099C51.231 126 54.787 122.304 54.787 115.92C54.787 108.024 50.195 105.84 45.183 105.84H39.583C37.959 105.84 36.895 106.484 36.895 108.528V123.312ZM41.487 109.536H45.323C48.683 109.536 50.195 111.944 50.195 115.92C50.195 119.028 49.019 122.304 45.351 122.304H41.487V109.536Z" fill="#FAFAFA"/>
<path d="M53 33V92.2398C52.9979 101.674 56.2681 110.814 62.2493 118.093C68.2305 125.372 76.55 130.336 85.7804 132.133C88.321 132.632 90.9046 132.879 93.4935 132.868C111.413 132.623 128.974 119.067 133.666 102.236C134.48 99.2942 134.912 96.2596 134.951 93.2072C134.259 98.1577 132.262 102.833 129.166 106.75C128.8 107.208 119.93 117.919 106.027 117.068C103.276 116.901 93.6606 116.314 88.6728 108.685C86.8754 105.847 85.9068 102.56 85.8769 99.1982L85.7804 98.7984V72.8931C85.7824 63.4592 82.5123 54.3187 76.5311 47.0397C70.5499 39.7607 62.2304 34.7969 53 33Z" fill="url(#paint0_linear_634_9527)"/>
<path d="M134.951 33V92.2398C134.953 101.674 131.683 110.814 125.702 118.093C119.721 125.372 111.401 130.336 102.171 132.133C99.6301 132.632 97.0466 132.879 94.4577 132.868C75.4938 133.858 57.9329 119.148 54.2855 102.236C53.4716 99.2942 53.0395 96.2596 53 93.2072C53.6921 98.1577 55.6891 102.833 58.7848 106.75C59.1512 107.208 68.0212 117.919 81.924 117.068C84.6749 116.901 94.2906 116.314 99.2783 108.685C101.076 105.847 102.044 102.56 102.074 99.1982L102.171 98.7984V72.8931C102.169 63.4592 105.439 54.3187 111.42 47.0397C117.401 39.7607 125.721 34.7969 134.951 33Z" fill="url(#paint1_linear_634_9527)"/>
<path d="M98.1197 109.213C98.1197 109.386 98.1884 109.552 98.3105 109.674C98.4327 109.797 98.5984 109.866 98.7711 109.866C103.899 109.86 108.816 107.815 112.442 104.179C116.069 100.544 118.108 95.615 118.114 90.4737V90.0766H117.199C114.692 90.076 112.21 90.5707 109.895 91.5323C107.579 92.4938 105.475 93.9035 103.703 95.6806C101.932 97.4578 100.526 99.5676 99.5683 101.89C98.6103 104.211 98.118 106.7 98.1197 109.213Z" fill="#FFE089"/>
<path d="M98.2909 105.918C98.3288 106.086 98.4311 106.232 98.5757 106.325C98.7203 106.418 98.8955 106.45 99.0634 106.414C101.533 105.869 103.871 104.841 105.945 103.39C108.019 101.938 109.787 100.091 111.149 97.9532C112.511 95.8158 113.439 93.4302 113.882 90.9327C114.325 88.4352 114.273 85.8747 113.729 83.3974L113.647 83.024L112.74 83.2154C107.824 84.3044 103.54 87.3079 100.83 91.5653C98.1202 95.8227 97.2069 100.985 98.2909 105.918Z" fill="#FFD36C"/>
<path d="M97.6881 102.826C97.7303 102.901 97.787 102.968 97.8548 103.021C97.9227 103.075 98.0005 103.114 98.0837 103.138C98.1669 103.161 98.2538 103.168 98.3395 103.158C98.4252 103.147 98.508 103.12 98.583 103.078C103.069 100.568 106.364 96.3836 107.747 91.4434C109.129 86.5032 108.486 81.2103 105.958 76.7257L105.768 76.3884L104.967 76.8354C100.538 79.3066 97.2831 83.433 95.9181 88.3071C94.5531 93.1812 95.1898 98.4038 97.6881 102.826Z" fill="#FFBE3B"/>
<path d="M89.7006 109.213C89.7006 109.386 89.6319 109.552 89.5098 109.674C89.3876 109.797 89.222 109.866 89.0492 109.866C83.9209 109.86 79.0042 107.815 75.378 104.179C71.7517 100.544 69.7119 95.615 69.7061 90.4737V90.0766H70.6215C73.1279 90.076 75.6098 90.5707 77.9255 91.5323C80.2411 92.4938 82.345 93.9035 84.1168 95.6806C85.8887 97.4578 87.2939 99.5676 88.252 101.89C89.2101 104.211 89.7023 106.7 89.7006 109.213Z" fill="#FFE089"/>
<path d="M89.5294 105.918C89.4915 106.086 89.3892 106.232 89.2446 106.325C89.1 106.418 88.9248 106.45 88.757 106.414C86.2874 105.869 83.949 104.841 81.8754 103.39C79.8018 101.938 78.0335 100.091 76.6716 97.9532C75.3098 95.8158 74.3809 93.4302 73.9382 90.9327C73.4955 88.4352 73.5476 85.8747 74.0916 83.3974L74.1729 83.024L75.0799 83.2154C79.9965 84.3044 84.2807 87.3079 86.9904 91.5653C89.7002 95.8227 90.6134 100.985 89.5294 105.918Z" fill="#FFD36C"/>
<path d="M90.1322 102.826C90.09 102.901 90.0334 102.968 89.9655 103.021C89.8976 103.075 89.8198 103.114 89.7366 103.138C89.6534 103.161 89.5665 103.168 89.4808 103.158C89.3951 103.147 89.3123 103.12 89.2373 103.078C84.7518 100.568 81.4563 96.3836 80.0737 91.4434C78.6911 86.5032 79.3342 81.2103 81.862 76.7257L82.0527 76.3884L82.8536 76.8354C87.2824 79.3066 90.5372 83.433 91.9022 88.3071C93.2672 93.1812 92.6305 98.4038 90.1322 102.826Z" fill="#FFBE3B"/>
<path d="M93.5519 83.7639C93.6024 83.8144 93.6625 83.8546 93.7286 83.882C93.7948 83.9094 93.8657 83.9235 93.9374 83.9235C94.009 83.9235 94.08 83.9094 94.1461 83.882C94.2123 83.8546 94.2724 83.8144 94.3229 83.7639C97.3436 80.751 99.04 76.6691 99.04 72.4134C99.04 68.1577 97.3436 64.0757 94.3229 61.0629L94.0952 60.8364L93.5556 61.3733C90.5713 64.3422 88.8945 68.3689 88.8938 72.5679C88.8931 76.7668 90.5686 80.794 93.5519 83.7639Z" fill="#E84126"/>
<path d="M101.164 56.7067C97.0706 58.7532 91.1016 58.7532 87.1791 56.7067C82.9155 54.4896 77.6287 52.9547 71.3186 52.4431C65.179 51.9315 52.2178 51.9315 45.7371 54.3191C45.0549 54.6602 44.2022 55.0013 43.5201 55.3423C43.179 55.5129 43.0084 55.5129 43.0084 56.3656V57.3889C43.0084 59.2648 42.8379 58.5827 44.0317 59.2648C46.5898 60.7997 48.1247 64.7222 48.8069 70.1796C49.8301 78.0246 53.7526 82.9703 59.8922 85.3579C65.5201 87.575 72.0008 87.4044 77.6287 85.1874C80.6985 83.9936 83.4271 81.9471 85.6442 78.7067C89.3962 73.0788 88.3729 69.4974 90.2489 64.5517C91.9543 60.2881 96.7295 60.2881 98.4349 64.5517C100.311 69.4974 99.2877 72.9083 103.04 78.7067C105.257 81.9471 107.985 83.9936 111.055 85.1874C116.683 87.575 122.993 87.575 128.792 85.3579C134.931 82.9703 138.683 78.0246 139.877 70.1796C140.559 64.7222 142.094 60.7997 144.652 59.2648C146.016 58.4121 145.675 59.2648 145.675 57.3889V56.3656C145.675 55.6834 145.675 55.5129 145.164 55.1718C144.482 54.8307 143.799 54.4896 142.947 54.1485C136.466 51.7609 123.505 51.7609 117.365 52.2726C110.714 52.9547 105.427 54.4896 101.164 56.7067Z" fill="#363B3D"/>
<path d="M84.2802 59.7765C82.9159 58.7532 80.1872 57.9005 77.1174 57.3889C75.412 57.0478 73.3655 56.8772 71.3189 56.7067C66.7143 56.3656 61.7685 56.3656 58.5282 57.0478C56.4817 57.3889 54.9468 57.9005 54.4352 58.5827C52.0476 61.3114 52.5592 68.9858 54.9468 74.4432C55.629 75.8075 56.4817 77.1719 57.3344 78.1951C58.8693 79.9006 60.9158 80.9238 63.3034 81.606C64.8383 82.1176 66.3732 82.2882 68.0786 82.4587C70.8073 82.6292 73.536 82.2882 76.0942 81.606C76.6058 81.4354 76.9469 81.2649 77.288 81.0944C84.6213 77.854 86.4973 65.5749 85.3035 61.1408C85.1329 60.6292 84.7919 60.1175 84.2802 59.7765ZM134.59 58.7532C134.42 58.5827 134.42 58.4121 134.249 58.2416C133.226 56.8772 128.28 56.3656 122.823 56.3656C120.776 56.3656 118.73 56.5361 116.683 56.7067C114.466 56.8772 112.249 57.2183 110.373 57.5594C106.621 58.4121 103.893 59.6059 103.552 61.1408C102.869 63.8695 103.211 69.3269 105.257 74.1021C106.11 75.9781 107.133 77.854 108.668 79.2184C109.862 80.4122 111.226 81.2649 112.931 81.606C113.273 81.606 113.443 81.7765 113.784 81.7765C118.9 82.9703 124.869 82.6292 129.133 80.0711C129.986 79.5595 130.839 78.8773 131.691 78.1951C135.614 73.761 137.149 62.8462 134.59 58.7532Z" fill="#DAF5F2"/>
<path d="M57.75 127.75C57.75 130.511 56.7613 132.75 54 132.75H45.25C40.25 132.75 40.25 115.25 45.25 115.25H54C56.7613 115.25 57.75 117.489 57.75 120.25V127.75Z" fill="#553788"/>
<path d="M81.5 130.25H80.25V117.75H81.5C81.8315 117.75 82.1495 117.618 82.3839 117.384C82.6183 117.149 82.75 116.832 82.75 116.5C82.75 116.168 82.6183 115.851 82.3839 115.616C82.1495 115.382 81.8315 115.25 81.5 115.25H51.5C46.5 115.25 46.5 132.75 51.5 132.75H81.5C81.8315 132.75 82.1495 132.618 82.3839 132.384C82.6183 132.149 82.75 131.832 82.75 131.5C82.75 131.168 82.6183 130.851 82.3839 130.616C82.1495 130.382 81.8315 130.25 81.5 130.25Z" fill="#9266CC"/>
<path d="M81.715 130.25H52.75C50.25 130.25 50.25 117.75 52.75 117.75H81.715C83.095 117.75 83.095 130.25 81.715 130.25Z" fill="#CCD6DD"/>
<path d="M53.375 120.25H82.5625C82.3938 118.781 82.1125 117.75 81.715 117.75H52.75C50.6863 117.75 50.3275 126.26 51.6713 129.235C51.1813 125.536 51.7488 120.25 53.375 120.25Z" fill="#99AAB5"/>
<path d="M54 99C54 100.326 53.4732 101.598 52.5355 102.536C51.5979 103.473 50.3261 104 49 104H44C39 104 39 90.25 44 90.25H49C50.3261 90.25 51.5979 90.7768 52.5355 91.7145C53.4732 92.6521 54 93.9239 54 95.25V99Z" fill="#226699"/>
<path d="M77.75 101.5H76.5V92.75H77.75C78.0815 92.75 78.3995 92.6183 78.6339 92.3839C78.8683 92.1495 79 91.8315 79 91.5C79 91.1685 78.8683 90.8505 78.6339 90.6161C78.3995 90.3817 78.0815 90.25 77.75 90.25H47.75C42.75 90.25 42.75 104 47.75 104H77.75C78.0815 104 78.3995 103.868 78.6339 103.634C78.8683 103.399 79 103.082 79 102.75C79 102.418 78.8683 102.101 78.6339 101.866C78.3995 101.632 78.0815 101.5 77.75 101.5Z" fill="#55ACEE"/>
<path d="M77.965 101.5H49C46.5 101.5 46.5 92.75 49 92.75H77.965C79.345 92.75 79.345 101.5 77.965 101.5Z" fill="#CCD6DD"/>
<path d="M49 95.25H78.9063C78.7638 93.8438 78.4513 92.75 77.965 92.75H49C47.5088 92.75 46.9138 95.8613 47.2025 98.375C47.3975 96.6775 47.9913 95.25 49 95.25Z" fill="#99AAB5"/>
<path d="M64 110.25C64 111.576 63.4732 112.848 62.5355 113.786C61.5979 114.723 60.3261 115.25 59 115.25H46.5C41.5 115.25 41.5 104 46.5 104H59C60.3261 104 61.5979 104.527 62.5355 105.464C63.4732 106.402 64 107.674 64 109V110.25Z" fill="#F4900C"/>
<path d="M82.75 112.75H81.5V106.5H82.75C83.0815 106.5 83.3995 106.368 83.6339 106.134C83.8683 105.899 84 105.582 84 105.25C84 104.918 83.8683 104.601 83.6339 104.366C83.3995 104.132 83.0815 104 82.75 104H57.75C52.75 104 52.75 115.25 57.75 115.25H82.75C83.0815 115.25 83.3995 115.118 83.6339 114.884C83.8683 114.649 84 114.332 84 114C84 113.668 83.8683 113.351 83.6339 113.116C83.3995 112.882 83.0815 112.75 82.75 112.75Z" fill="#FFAC33"/>
<path d="M82.965 112.75H59C56.5 112.75 56.5 106.5 59 106.5H82.965C84.345 106.5 84.345 112.75 82.965 112.75Z" fill="#CCD6DD"/>
<path d="M58.9995 109H83.9795C83.8983 107.672 83.562 106.5 82.9645 106.5H58.9995C57.407 106.5 56.8333 109.034 57.2708 110.875C57.5183 109.826 58.092 109 58.9995 109Z" fill="#99AAB5"/>
</svg>
