<svg width="58" height="70" viewBox="0 0 58 70" fill="none" xmlns="http://www.w3.org/2000/svg">
<g clip-path="url(#clip0_112_21238)">
<path d="M0.182922 0.0296555V41.4975C0.181519 48.1012 2.47061 54.4996 6.65747 59.5949C10.8443 64.6902 16.668 68.1648 23.1293 69.4227C24.9077 69.7724 26.7162 69.9447 28.5284 69.9373C41.0724 69.7658 53.3644 60.2768 56.6489 48.4946C57.2187 46.4356 57.5211 44.3114 57.5488 42.1747C57.0643 45.64 55.6664 48.9127 53.4994 51.6546C53.243 51.9751 47.034 59.4733 37.302 58.8774C35.3763 58.76 28.6454 58.3492 25.1539 53.0089C23.8957 51.0224 23.2177 48.7219 23.1968 46.3684L23.1293 46.0885V27.9548C23.1307 21.3511 20.8416 14.9527 16.6547 9.85744C12.4679 4.76214 6.64422 1.2875 0.182922 0.0296555Z" fill="url(#paint0_linear_112_21238)"/>
<path d="M57.5488 0.0296555V41.4975C57.5502 48.1012 55.2611 54.4996 51.0742 59.5949C46.8874 64.6902 41.0637 68.1648 34.6024 69.4227C32.824 69.7724 31.0155 69.9447 29.2033 69.9373C15.9286 70.6299 3.63592 60.3331 1.08278 48.4946C0.513009 46.4356 0.210557 44.3114 0.182922 42.1747C0.667359 45.64 2.0653 48.9127 4.23228 51.6546C4.48874 51.9751 10.6977 59.4733 20.4297 58.8774C22.3554 58.76 29.0863 58.3492 32.5778 53.0089C33.836 51.0224 34.514 48.7219 34.535 46.3684L34.6024 46.0885V27.9548C34.601 21.3511 36.8901 14.9527 41.077 9.85744C45.2638 4.76213 51.0875 1.2875 57.5488 0.0296555Z" fill="url(#paint1_linear_112_21238)"/>
<path d="M31.7664 53.3784C31.7664 53.4997 31.8145 53.6159 31.9 53.7017C31.9855 53.7874 32.1015 53.8355 32.2224 53.8355C35.8122 53.8315 39.2539 52.4 41.7923 49.8552C44.3307 47.3104 45.7585 43.8601 45.7626 40.2613V39.9833H45.1218C43.3673 39.9829 41.6299 40.3291 40.009 41.0022C38.3881 41.6753 36.9154 42.6621 35.6751 43.9061C34.4347 45.1501 33.4511 46.627 32.7805 48.2523C32.1098 49.8776 31.7652 51.6195 31.7664 53.3784Z" fill="#FFE089"/>
<path d="M31.8863 51.0723C31.9129 51.1898 31.9845 51.2922 32.0857 51.3571C32.1869 51.4221 32.3095 51.4445 32.427 51.4194C34.1557 51.038 35.7926 50.3186 37.2441 49.3024C38.6957 48.2862 39.9334 46.9931 40.8868 45.4969C41.8401 44.0007 42.4902 42.3308 42.8001 40.5825C43.11 38.8343 43.0736 37.0419 42.6928 35.3079L42.6359 35.0464L42.001 35.1804C38.5594 35.9427 35.5604 38.0452 33.6636 41.0254C31.7668 44.0056 31.1275 47.6195 31.8863 51.0723Z" fill="#FFD36C"/>
<path d="M31.4645 48.908C31.494 48.9607 31.5337 49.007 31.5812 49.0444C31.6287 49.0818 31.6832 49.1095 31.7414 49.1259C31.7996 49.1423 31.8605 49.1471 31.9205 49.1399C31.9805 49.1328 32.0384 49.1139 32.0909 49.0844C35.2308 47.3271 37.5376 44.3982 38.5054 40.94C39.4733 37.4819 39.0231 33.7769 37.2536 30.6376L37.1202 30.4015L36.5595 30.7144C33.4593 32.4443 31.181 35.3328 30.2255 38.7446C29.27 42.1565 29.7157 45.8123 31.4645 48.908Z" fill="#FFBE3B"/>
<path d="M25.8734 53.3784C25.8734 53.4997 25.8254 53.6159 25.7398 53.7017C25.6543 53.7874 25.5384 53.8355 25.4174 53.8355C21.8276 53.8315 18.386 52.4 15.8476 49.8552C13.3092 47.3104 11.8813 43.8601 11.8772 40.2613V39.9833H12.518C14.2725 39.9829 16.0099 40.3291 17.6308 41.0022C19.2517 41.6753 20.7245 42.6621 21.9648 43.9061C23.2051 45.1501 24.1887 46.627 24.8594 48.2523C25.53 49.8776 25.8746 51.6195 25.8734 53.3784Z" fill="#FFE089"/>
<path d="M25.7535 51.0723C25.7269 51.1898 25.6553 51.2922 25.5541 51.3571C25.4529 51.4221 25.3303 51.4445 25.2128 51.4194C23.4841 51.038 21.8472 50.3186 20.3957 49.3024C18.9442 48.2862 17.7064 46.9931 16.7531 45.4969C15.7997 44.0007 15.1496 42.3308 14.8397 40.5825C14.5298 38.8343 14.5663 37.0419 14.947 35.3079L15.0039 35.0464L15.6388 35.1804C19.0804 35.9427 22.0794 38.0452 23.9762 41.0254C25.873 44.0056 26.5123 47.6195 25.7535 51.0723Z" fill="#FFD36C"/>
<path d="M26.1754 48.908C26.1458 48.9607 26.1062 49.007 26.0586 49.0444C26.0111 49.0818 25.9567 49.1095 25.8984 49.1259C25.8402 49.1423 25.7794 49.1471 25.7194 49.1399C25.6594 49.1328 25.6015 49.1139 25.5489 49.0844C22.4091 47.3271 20.1022 44.3982 19.1344 40.94C18.1666 37.4819 18.6168 33.7769 20.3862 30.6376L20.5197 30.4015L21.0803 30.7144C24.1805 32.4443 26.4589 35.3328 27.4144 38.7446C28.3698 42.1565 27.9242 45.8123 26.1754 48.908Z" fill="#FFBE3B"/>
</g>
<defs>
<linearGradient id="paint0_linear_112_21238" x1="-1.06016" y1="-4.77245" x2="49.8936" y2="80.1497" gradientUnits="userSpaceOnUse">
<stop stop-color="#59DED2"/>
<stop offset="1" stop-color="#018893"/>
</linearGradient>
<linearGradient id="paint1_linear_112_21238" x1="58.7919" y1="-4.77245" x2="7.83809" y2="80.1497" gradientUnits="userSpaceOnUse">
<stop stop-color="#018893"/>
<stop offset="1" stop-color="#59DED2"/>
</linearGradient>
<clipPath id="clip0_112_21238">
<rect width="57.3659" height="69.9407" fill="white" transform="translate(0.182922 0.0296555)"/>
</clipPath>
</defs>
</svg>
