<svg width="151" height="71" viewBox="0 0 151 71" fill="none" xmlns="http://www.w3.org/2000/svg">
<path d="M0.365858 0.5V42.003C0.364456 48.6123 2.65549 55.0161 6.8459 60.1157C11.0363 65.2154 16.8649 68.693 23.3317 69.9519C25.1116 70.3018 26.9216 70.4744 28.7354 70.4669C41.29 70.2952 53.5925 60.7982 56.8797 49.0061C57.45 46.9453 57.7527 44.8193 57.7804 42.6808C57.2955 46.1491 55.8964 49.4245 53.7276 52.1687C53.4709 52.4895 47.2566 59.994 37.5164 59.3976C35.5891 59.2802 28.8525 58.869 25.3581 53.5241C24.0988 51.536 23.4202 49.2336 23.3992 46.8781L23.3317 46.5979V28.4488C23.3331 21.8395 21.042 15.4357 16.8516 10.3361C12.6612 5.23649 6.83264 1.75891 0.365858 0.5Z" fill="white"/>
<path d="M57.7804 0.5V42.003C57.7818 48.6123 55.4907 55.0161 51.3003 60.1157C47.1099 65.2154 41.2813 68.693 34.8145 69.9519C33.0346 70.3018 31.2246 70.4744 29.4108 70.4669C16.1249 71.1601 3.82177 60.8546 1.26646 49.0061C0.696211 46.9453 0.393503 44.8193 0.365845 42.6808C0.850692 46.1491 2.24982 49.4245 4.41863 52.1687C4.67531 52.4895 10.8896 59.994 20.6298 59.3976C22.5571 59.2802 29.2938 58.869 32.7882 53.5241C34.0474 51.536 34.726 49.2336 34.747 46.8781L34.8145 46.5979V28.4488C34.8131 21.8395 37.1042 15.4357 41.2946 10.3361C45.485 5.23649 51.3136 1.75891 57.7804 0.5Z" fill="url(#paint0_linear_112_21215)"/>
<path d="M31.9762 53.8941C31.9762 54.0154 32.0242 54.1318 32.1098 54.2176C32.1954 54.3034 32.3115 54.3516 32.4325 54.3516V54.3516C36.0254 54.3475 39.4699 52.9148 42.0105 50.3679C44.551 47.8209 45.9801 44.3677 45.9842 40.7658V40.4876H45.3428C43.5869 40.4872 41.848 40.8337 40.2257 41.5074C38.6034 42.1811 37.1295 43.1687 35.8881 44.4137C34.6467 45.6588 33.6623 47.1369 32.991 48.7636C32.3198 50.3903 31.9749 52.1337 31.9762 53.8941V53.8941Z" fill="#FFE089"/>
<path d="M32.0961 51.5859C32.1227 51.7036 32.1944 51.806 32.2957 51.8711C32.3969 51.9361 32.5197 51.9585 32.6373 51.9334V51.9334C34.3674 51.5516 36.0057 50.8316 37.4585 49.8146C38.9112 48.7975 40.1501 47.5033 41.1042 46.0059C42.0583 44.5084 42.709 42.8371 43.0192 41.0873C43.3293 39.3376 43.2928 37.5437 42.9118 35.8082L42.8548 35.5465L42.2194 35.6806C38.7748 36.4436 35.7733 38.5478 33.8749 41.5305C31.9765 44.5133 31.3367 48.1302 32.0961 51.5859V51.5859Z" fill="#FFD36C"/>
<path d="M31.6739 49.4199C31.7035 49.4726 31.7432 49.519 31.7907 49.5564C31.8383 49.5938 31.8928 49.6215 31.9511 49.6379C32.0094 49.6543 32.0703 49.6591 32.1303 49.652C32.1903 49.6448 32.2483 49.6259 32.3009 49.5964V49.5964C35.4434 47.8376 37.7522 44.9062 38.7208 41.4451C39.6895 37.984 39.2389 34.2759 37.468 31.134L37.3344 30.8977L36.7733 31.2108C33.6705 32.9421 31.3902 35.8331 30.4339 39.2478C29.4776 42.6626 29.9236 46.3215 31.6739 49.4199V49.4199Z" fill="#FFBE3B"/>
<path d="M26.0781 53.8941C26.0781 54.0154 26.03 54.1318 25.9444 54.2176C25.8588 54.3034 25.7428 54.3516 25.6217 54.3516V54.3516C22.0288 54.3475 18.5843 52.9148 16.0437 50.3679C13.5032 47.8209 12.0741 44.3677 12.07 40.7658V40.4876H12.7114C14.4674 40.4872 16.2062 40.8337 17.8285 41.5074C19.4508 42.1811 20.9248 43.1687 22.1661 44.4137C23.4075 45.6588 24.392 47.1369 25.0632 48.7636C25.7344 50.3903 26.0793 52.1337 26.0781 53.8941V53.8941Z" fill="#FFE089"/>
<path d="M25.958 51.5859C25.9315 51.7036 25.8598 51.806 25.7585 51.8711C25.6573 51.9361 25.5345 51.9585 25.4169 51.9334V51.9334C23.6868 51.5516 22.0485 50.8316 20.5957 49.8146C19.143 48.7975 17.9041 47.5033 16.95 46.0059C15.9959 44.5084 15.3452 42.8371 15.035 41.0873C14.7249 39.3376 14.7614 37.5437 15.1424 35.8082L15.1994 35.5465L15.8348 35.6806C19.2794 36.4436 22.2809 38.5478 24.1793 41.5305C26.0777 44.5133 26.7175 48.1302 25.958 51.5859V51.5859Z" fill="#FFD36C"/>
<path d="M26.3803 49.4199C26.3508 49.4726 26.3111 49.519 26.2635 49.5564C26.2159 49.5938 26.1614 49.6215 26.1032 49.6379C26.0449 49.6543 25.984 49.6591 25.9239 49.652C25.8639 49.6448 25.8059 49.6259 25.7533 49.5964V49.5964C22.6108 47.8376 20.302 44.9062 19.3334 41.4451C18.3647 37.984 18.8153 34.2759 20.5863 31.134L20.7198 30.8977L21.2809 31.2108C24.3837 32.9421 26.6641 35.8331 27.6204 39.2478C28.5766 42.6626 28.1306 46.3215 26.3803 49.4199V49.4199Z" fill="#FFBE3B"/>
<path d="M28.7763 36.0648C28.8117 36.1003 28.8537 36.1284 28.9001 36.1476C28.9464 36.1668 28.9961 36.1767 29.0463 36.1767C29.0965 36.1767 29.1462 36.1668 29.1926 36.1476C29.2389 36.1284 29.281 36.1003 29.3164 36.0648C31.4327 33.954 32.6212 31.0942 32.6212 28.1127C32.6212 25.1312 31.4327 22.2715 29.3164 20.1607L29.1569 20.002L28.7789 20.3782C26.6881 22.4582 25.5133 25.2792 25.5128 28.221C25.5123 31.1627 26.6862 33.9842 28.7763 36.0648Z" fill="#E84126"/>
<path d="M85.3506 16.0625H89.1006V35.3008C89.1006 37.4362 88.6254 39.2135 87.6749 40.6328C86.7243 42.0521 85.4613 43.1198 83.8858 43.8359C82.3233 44.5391 80.6241 44.8906 78.7881 44.8906C76.8611 44.8906 75.1163 44.5391 73.5538 43.8359C72.0043 43.1198 70.7738 42.0521 69.8624 40.6328C68.9639 39.2135 68.5147 37.4362 68.5147 35.3008V16.0625H72.2452V35.3008C72.2452 36.7852 72.5186 38.0091 73.0655 38.9727C73.6124 39.9362 74.3741 40.6523 75.3506 41.1211C76.3402 41.5898 77.4861 41.8242 78.7881 41.8242C80.1033 41.8242 81.2491 41.5898 82.2256 41.1211C83.2152 40.6523 83.9835 39.9362 84.5303 38.9727C85.0772 38.0091 85.3506 36.7852 85.3506 35.3008V16.0625ZM102.714 44.5H96.7764L96.8155 41.4336H102.714C104.745 41.4336 106.438 41.0104 107.792 40.1641C109.146 39.3047 110.162 38.1068 110.839 36.5703C111.529 35.0208 111.874 33.2109 111.874 31.1406V29.4023C111.874 27.7747 111.679 26.3294 111.288 25.0664C110.898 23.7904 110.325 22.7161 109.569 21.8438C108.814 20.9583 107.89 20.2878 106.796 19.832C105.715 19.3763 104.472 19.1484 103.065 19.1484H96.6592V16.0625H103.065C104.927 16.0625 106.627 16.375 108.163 17C109.7 17.612 111.021 18.5039 112.128 19.6758C113.248 20.8346 114.107 22.2409 114.706 23.8945C115.305 25.5352 115.605 27.3841 115.605 29.4414V31.1406C115.605 33.1979 115.305 35.0534 114.706 36.707C114.107 38.3477 113.241 39.7474 112.108 40.9062C110.989 42.0651 109.635 42.957 108.046 43.582C106.47 44.194 104.693 44.5 102.714 44.5ZM98.7881 16.0625V44.5H95.0186V16.0625H98.7881ZM131.757 33.3477H124.159V30.2812H131.757C133.228 30.2812 134.42 30.0469 135.331 29.5781C136.243 29.1094 136.907 28.4583 137.323 27.625C137.753 26.7917 137.968 25.8411 137.968 24.7734C137.968 23.7969 137.753 22.8789 137.323 22.0195C136.907 21.1602 136.243 20.4701 135.331 19.9492C134.42 19.4154 133.228 19.1484 131.757 19.1484H125.038V44.5H121.269V16.0625H131.757C133.905 16.0625 135.722 16.4336 137.206 17.1758C138.69 17.918 139.817 18.9466 140.585 20.2617C141.353 21.5638 141.737 23.0547 141.737 24.7344C141.737 26.5573 141.353 28.1133 140.585 29.4023C139.817 30.6914 138.69 31.6745 137.206 32.3516C135.722 33.0156 133.905 33.3477 131.757 33.3477Z" fill="#E6EEF1"/>
<path d="M85.3506 16.0625V15.5625H84.8506V16.0625H85.3506ZM89.1006 16.0625H89.6006V15.5625H89.1006V16.0625ZM83.8858 43.8359L84.091 44.2919L84.0927 44.2911L83.8858 43.8359ZM73.5538 43.8359L73.344 44.2898L73.3486 44.2919L73.5538 43.8359ZM69.8624 40.6328L69.4399 40.9003L69.4417 40.903L69.8624 40.6328ZM68.5147 16.0625V15.5625H68.0147V16.0625H68.5147ZM72.2452 16.0625H72.7452V15.5625H72.2452V16.0625ZM75.3506 41.1211L75.1343 41.5719L75.1366 41.573L75.3506 41.1211ZM82.2256 41.1211L82.0116 40.6692L82.0093 40.6703L82.2256 41.1211ZM84.5303 38.9727L84.0955 38.7259L84.5303 38.9727ZM85.3506 16.5625H89.1006V15.5625H85.3506V16.5625ZM88.6006 16.0625V35.3008H89.6006V16.0625H88.6006ZM88.6006 35.3008C88.6006 37.362 88.1425 39.0361 87.2594 40.3546L88.0903 40.911C89.1083 39.391 89.6006 37.5104 89.6006 35.3008H88.6006ZM87.2594 40.3546C86.3613 41.6956 85.171 42.7025 83.6789 43.3808L84.0927 44.2911C85.7517 43.5371 87.0874 42.4086 88.0903 40.911L87.2594 40.3546ZM83.6806 43.38C82.1872 44.052 80.5585 44.3906 78.7881 44.3906V45.3906C80.6897 45.3906 82.4594 45.0261 84.091 44.2919L83.6806 43.38ZM78.7881 44.3906C76.923 44.3906 75.2493 44.0507 73.759 43.38L73.3486 44.2919C74.9832 45.0275 76.7992 45.3906 78.7881 45.3906V44.3906ZM73.7635 43.3821C72.2993 42.7053 71.1425 41.7008 70.2831 40.3626L69.4417 40.903C70.4052 42.4033 71.7093 43.5343 73.344 44.2898L73.7635 43.3821ZM70.2848 40.3654C69.4491 39.0452 69.0147 37.367 69.0147 35.3008H68.0147C68.0147 37.5054 68.4787 39.3819 69.4399 40.9002L70.2848 40.3654ZM69.0147 35.3008V16.0625H68.0147V35.3008H69.0147ZM68.5147 16.5625H72.2452V15.5625H68.5147V16.5625ZM71.7452 16.0625V35.3008H72.7452V16.0625H71.7452ZM71.7452 35.3008C71.7452 36.8433 72.029 38.1594 72.6306 39.2195L73.5003 38.7259C73.0083 37.8589 72.7452 36.727 72.7452 35.3008H71.7452ZM72.6306 39.2195C73.2266 40.2695 74.0636 41.0579 75.1343 41.5719L75.567 40.6703C74.6846 40.2468 73.9981 39.6029 73.5003 38.7259L72.6306 39.2195ZM75.1366 41.573C76.2046 42.0788 77.4259 42.3242 78.7881 42.3242V41.3242C77.5462 41.3242 76.4759 41.1008 75.5647 40.6692L75.1366 41.573ZM78.7881 42.3242C80.1624 42.3242 81.385 42.0792 82.442 41.5719L82.0093 40.6703C81.1131 41.1005 80.0441 41.3242 78.7881 41.3242V42.3242ZM82.4397 41.573C83.5234 41.0596 84.3682 40.2713 84.9652 39.2195L84.0955 38.7259C83.5987 39.6011 82.9071 40.2451 82.0116 40.6692L82.4397 41.573ZM84.9652 39.2195C85.5669 38.1594 85.8506 36.8433 85.8506 35.3008H84.8506C84.8506 36.727 84.5876 37.8589 84.0955 38.7259L84.9652 39.2195ZM85.8506 35.3008V16.0625H84.8506V35.3008H85.8506ZM96.7764 44.5L96.2765 44.4936L96.27 45H96.7764V44.5ZM96.8155 41.4336V40.9336H96.3218L96.3155 41.4272L96.8155 41.4336ZM107.792 40.1641L108.057 40.5881L108.06 40.5862L107.792 40.1641ZM110.839 36.5703L110.382 36.3669L110.381 36.3687L110.839 36.5703ZM111.288 25.0664L110.81 25.2128L110.81 25.2141L111.288 25.0664ZM109.569 21.8438L109.189 22.1682L109.191 22.171L109.569 21.8438ZM106.796 19.832L106.602 20.2927L106.604 20.2936L106.796 19.832ZM96.6592 19.1484H96.1592V19.6484H96.6592V19.1484ZM96.6592 16.0625V15.5625H96.1592V16.0625H96.6592ZM108.163 17L107.975 17.4632L107.978 17.4645L108.163 17ZM112.128 19.6758L111.764 20.0191L111.768 20.0232L112.128 19.6758ZM114.706 23.8945L114.236 24.0648L114.236 24.066L114.706 23.8945ZM114.706 36.707L115.176 36.8785L115.176 36.8773L114.706 36.707ZM112.108 40.9062L111.751 40.5567L111.749 40.5588L112.108 40.9062ZM108.046 43.582L108.227 44.0481L108.229 44.0473L108.046 43.582ZM98.7881 16.0625H99.2881V15.5625H98.7881V16.0625ZM98.7881 44.5V45H99.2881V44.5H98.7881ZM95.0186 44.5H94.5186V45H95.0186V44.5ZM95.0186 16.0625V15.5625H94.5186V16.0625H95.0186ZM102.714 44H96.7764V45H102.714V44ZM97.2764 44.5064L97.3155 41.44L96.3155 41.4272L96.2765 44.4936L97.2764 44.5064ZM96.8155 41.9336H102.714V40.9336H96.8155V41.9336ZM102.714 41.9336C104.814 41.9336 106.604 41.4959 108.057 40.5881L107.527 39.7401C106.271 40.5249 104.677 40.9336 102.714 40.9336V41.9336ZM108.06 40.5862C109.502 39.6712 110.581 38.3946 111.296 36.7719L110.381 36.3687C109.742 37.819 108.791 38.9382 107.524 39.7419L108.06 40.5862ZM111.296 36.7737C112.02 35.1477 112.374 33.2659 112.374 31.1406H111.374C111.374 33.156 111.038 34.8939 110.382 36.3669L111.296 36.7737ZM112.374 31.1406V29.4023H111.374V31.1406H112.374ZM112.374 29.4023C112.374 27.7358 112.174 26.2391 111.766 24.9187L110.81 25.2141C111.183 26.4198 111.374 27.8137 111.374 29.4023H112.374ZM111.766 24.92C111.358 23.5878 110.755 22.4492 109.947 21.5165L109.191 22.171C109.894 22.9831 110.437 23.993 110.81 25.2128L111.766 24.92ZM109.95 21.5193C109.143 20.5729 108.153 19.8559 106.988 19.3705L106.604 20.2936C107.626 20.7196 108.486 21.3438 109.189 22.1682L109.95 21.5193ZM106.99 19.3713C105.837 18.885 104.525 18.6484 103.065 18.6484V19.6484C104.418 19.6484 105.593 19.8676 106.602 20.2927L106.99 19.3713ZM103.065 18.6484H96.6592V19.6484H103.065V18.6484ZM97.1592 19.1484V16.0625H96.1592V19.1484H97.1592ZM96.6592 16.5625H103.065V15.5625H96.6592V16.5625ZM103.065 16.5625C104.871 16.5625 106.505 16.8653 107.975 17.4631L108.352 16.5369C106.748 15.8847 104.984 15.5625 103.065 15.5625V16.5625ZM107.978 17.4645C109.449 18.0503 110.709 18.9015 111.764 20.0191L112.491 19.3325C111.333 18.1063 109.95 17.1737 108.348 16.5355L107.978 17.4645ZM111.768 20.0232C112.835 21.127 113.659 22.4712 114.236 24.0648L115.176 23.7243C114.556 22.0105 113.661 20.5423 112.488 19.3283L111.768 20.0232ZM114.236 24.066C114.812 25.6429 115.105 27.4324 115.105 29.4414H116.105C116.105 27.3358 115.798 25.4274 115.176 23.7231L114.236 24.066ZM115.105 29.4414V31.1406H116.105V29.4414H115.105ZM115.105 31.1406C115.105 33.1495 114.812 34.9461 114.236 36.5368L115.176 36.8773C115.798 35.1607 116.105 33.2463 116.105 31.1406H115.105ZM114.236 36.5356C113.66 38.1148 112.83 39.4525 111.751 40.5567L112.466 41.2558C113.652 40.0423 114.554 38.5805 115.176 36.8785L114.236 36.5356ZM111.749 40.5588C110.682 41.6632 109.389 42.5164 107.863 43.1167L108.229 44.0473C109.88 43.3977 111.296 42.467 112.468 41.2537L111.749 40.5588ZM107.865 43.116C106.356 43.702 104.642 44 102.714 44V45C104.745 45 106.585 44.686 108.227 44.0481L107.865 43.116ZM98.2881 16.0625V44.5H99.2881V16.0625H98.2881ZM98.7881 44H95.0186V45H98.7881V44ZM95.5186 44.5V16.0625H94.5186V44.5H95.5186ZM95.0186 16.5625H98.7881V15.5625H95.0186V16.5625ZM124.159 33.3477H123.659V33.8477H124.159V33.3477ZM124.159 30.2812V29.7812H123.659V30.2812H124.159ZM137.323 27.625L136.879 27.3958L136.876 27.4014L137.323 27.625ZM137.323 22.0195L136.873 22.2377L136.876 22.2431L137.323 22.0195ZM135.331 19.9492L135.078 20.3807L135.083 20.3833L135.331 19.9492ZM125.038 19.1484V18.6484H124.538V19.1484H125.038ZM125.038 44.5V45H125.538V44.5H125.038ZM121.269 44.5H120.769V45H121.269V44.5ZM121.269 16.0625V15.5625H120.769V16.0625H121.269ZM140.585 20.2617L140.153 20.5139L140.154 20.5158L140.585 20.2617ZM137.206 32.3516L137.41 32.808L137.414 32.8065L137.206 32.3516ZM131.757 32.8477H124.159V33.8477H131.757V32.8477ZM124.659 33.3477V30.2812H123.659V33.3477H124.659ZM124.159 30.7812H131.757V29.7812H124.159V30.7812ZM131.757 30.7812C133.275 30.7812 134.554 30.5403 135.56 30.0228L135.102 29.1335C134.286 29.5535 133.181 29.7812 131.757 29.7812V30.7812ZM135.56 30.0228C136.556 29.5105 137.302 28.7865 137.771 27.8486L136.876 27.4014C136.512 28.1302 135.929 28.7082 135.102 29.1335L135.56 30.0228ZM137.768 27.8541C138.239 26.9407 138.468 25.9097 138.468 24.7734H137.468C137.468 25.7726 137.267 26.6427 136.879 27.3959L137.768 27.8541ZM138.468 24.7734C138.468 23.7206 138.236 22.7259 137.771 21.7959L136.876 22.2431C137.27 23.0319 137.468 23.8732 137.468 24.7734H138.468ZM137.773 21.8014C137.308 20.8424 136.569 20.0808 135.579 19.5151L135.083 20.3833C135.916 20.8593 136.505 21.4779 136.873 22.2377L137.773 21.8014ZM135.584 19.5178C134.571 18.9248 133.284 18.6484 131.757 18.6484V19.6484C133.173 19.6484 134.268 19.906 135.078 20.3807L135.584 19.5178ZM131.757 18.6484H125.038V19.6484H131.757V18.6484ZM124.538 19.1484V44.5H125.538V19.1484H124.538ZM125.038 44H121.269V45H125.038V44ZM121.769 44.5V16.0625H120.769V44.5H121.769ZM121.269 16.5625H131.757V15.5625H121.269V16.5625ZM131.757 16.5625C133.85 16.5625 135.585 16.9242 136.983 17.623L137.43 16.7286C135.859 15.943 133.961 15.5625 131.757 15.5625V16.5625ZM136.983 17.623C138.388 18.3258 139.438 19.2901 140.153 20.5139L141.017 20.0095C140.195 18.6031 138.993 17.5101 137.43 16.7286L136.983 17.623ZM140.154 20.5158C140.872 21.7326 141.237 23.1339 141.237 24.7344H142.237C142.237 22.9755 141.834 21.395 141.016 20.0076L140.154 20.5158ZM141.237 24.7344C141.237 26.4865 140.869 27.9498 140.156 29.1464L141.015 29.6583C141.838 28.2768 142.237 26.6281 142.237 24.7344H141.237ZM140.156 29.1464C139.444 30.3404 138.399 31.2579 136.999 31.8967L137.414 32.8065C138.982 32.0911 140.19 31.0424 141.015 29.6583L140.156 29.1464ZM137.002 31.8952C135.599 32.5228 133.856 32.8477 131.757 32.8477V33.8477C133.954 33.8477 135.845 33.5084 137.41 32.808L137.002 31.8952Z" fill="#E6EEF1"/>
<path d="M69.6944 55.8125H70.4444V59.6602C70.4444 60.0872 70.3493 60.4427 70.1592 60.7266C69.9691 61.0104 69.7165 61.224 69.4014 61.3672C69.0889 61.5078 68.7491 61.5781 68.3819 61.5781C67.9965 61.5781 67.6475 61.5078 67.335 61.3672C67.0251 61.224 66.779 61.0104 66.5967 60.7266C66.4171 60.4427 66.3272 60.0872 66.3272 59.6602V55.8125H67.0733V59.6602C67.0733 59.957 67.128 60.2018 67.2374 60.3945C67.3467 60.5872 67.4991 60.7305 67.6944 60.8242C67.8923 60.918 68.1215 60.9648 68.3819 60.9648C68.6449 60.9648 68.8741 60.918 69.0694 60.8242C69.2673 60.7305 69.421 60.5872 69.5303 60.3945C69.6397 60.2018 69.6944 59.957 69.6944 59.6602V55.8125ZM72.2413 58.1758V61.5H71.5186V57.2734H72.2022L72.2413 58.1758ZM72.0694 59.2266L71.7686 59.2148C71.7712 58.9258 71.8142 58.6589 71.8975 58.4141C71.9809 58.1667 72.098 57.9518 72.2491 57.7695C72.4001 57.5872 72.5798 57.4466 72.7881 57.3477C72.9991 57.2461 73.2322 57.1953 73.4874 57.1953C73.6957 57.1953 73.8832 57.224 74.0499 57.2812C74.2165 57.3359 74.3585 57.4245 74.4756 57.5469C74.5954 57.6693 74.6866 57.8281 74.7491 58.0234C74.8116 58.2161 74.8428 58.4518 74.8428 58.7305V61.5H74.1163V58.7227C74.1163 58.5013 74.0837 58.3242 74.0186 58.1914C73.9535 58.056 73.8585 57.9583 73.7335 57.8984C73.6085 57.8359 73.4548 57.8047 73.2725 57.8047C73.0928 57.8047 72.9288 57.8424 72.7803 57.918C72.6345 57.9935 72.5082 58.0977 72.4014 58.2305C72.2973 58.3633 72.2152 58.5156 72.1553 58.6875C72.098 58.8568 72.0694 59.0365 72.0694 59.2266ZM76.7256 57.2734V61.5H75.9991V57.2734H76.7256ZM75.9444 56.1523C75.9444 56.0352 75.9796 55.9362 76.0499 55.8555C76.1228 55.7747 76.2296 55.7344 76.3702 55.7344C76.5082 55.7344 76.6137 55.7747 76.6866 55.8555C76.7621 55.9362 76.7999 56.0352 76.7999 56.1523C76.7999 56.2643 76.7621 56.3607 76.6866 56.4414C76.6137 56.5195 76.5082 56.5586 76.3702 56.5586C76.2296 56.5586 76.1228 56.5195 76.0499 56.4414C75.9796 56.3607 75.9444 56.2643 75.9444 56.1523ZM79.6553 57.2734V57.8281H77.3702V57.2734H79.6553ZM78.1436 56.2461H78.8663V60.4531C78.8663 60.5964 78.8884 60.7044 78.9327 60.7773C78.9769 60.8503 79.0342 60.8984 79.1046 60.9219C79.1749 60.9453 79.2504 60.957 79.3311 60.957C79.391 60.957 79.4535 60.9518 79.5186 60.9414C79.5863 60.9284 79.6371 60.918 79.671 60.9102L79.6749 61.5C79.6176 61.5182 79.5421 61.5352 79.4483 61.5508C79.3572 61.569 79.2465 61.5781 79.1163 61.5781C78.9392 61.5781 78.7764 61.543 78.628 61.4727C78.4796 61.4023 78.3611 61.2852 78.2725 61.1211C78.1866 60.9544 78.1436 60.7305 78.1436 60.4492V56.2461ZM81.6905 61.0625L82.8663 57.2734H83.6397L81.9444 62.1523C81.9053 62.2565 81.8533 62.3685 81.7881 62.4883C81.7256 62.6107 81.6449 62.7266 81.546 62.8359C81.447 62.9453 81.3272 63.0339 81.1866 63.1016C81.0486 63.1719 80.8832 63.207 80.6905 63.207C80.6332 63.207 80.5603 63.1992 80.4717 63.1836C80.3832 63.168 80.3207 63.1549 80.2842 63.1445L80.2803 62.5586C80.3012 62.5612 80.3337 62.5638 80.378 62.5664C80.4249 62.5716 80.4574 62.5742 80.4756 62.5742C80.6397 62.5742 80.779 62.5521 80.8936 62.5078C81.0082 62.4661 81.1046 62.3945 81.1827 62.293C81.2634 62.194 81.3324 62.0573 81.3897 61.8828L81.6905 61.0625ZM80.8272 57.2734L81.9249 60.5547L82.1124 61.3164L81.5928 61.582L80.0381 57.2734H80.8272ZM87.9249 61.5H86.7374L86.7452 60.8867H87.9249C88.3311 60.8867 88.6697 60.8021 88.9405 60.6328C89.2113 60.4609 89.4144 60.2214 89.5499 59.9141C89.6879 59.6042 89.7569 59.2422 89.7569 58.8281V58.4805C89.7569 58.1549 89.7178 57.8659 89.6397 57.6133C89.5616 57.3581 89.447 57.1432 89.296 56.9688C89.1449 56.7917 88.96 56.6576 88.7413 56.5664C88.5251 56.4753 88.2764 56.4297 87.9952 56.4297H86.7139V55.8125H87.9952C88.3676 55.8125 88.7074 55.875 89.0147 56C89.322 56.1224 89.5863 56.3008 89.8077 56.5352C90.0316 56.7669 90.2035 57.0482 90.3233 57.3789C90.4431 57.707 90.503 58.0768 90.503 58.4883V58.8281C90.503 59.2396 90.4431 59.6107 90.3233 59.9414C90.2035 60.2695 90.0303 60.5495 89.8038 60.7812C89.5798 61.013 89.309 61.1914 88.9913 61.3164C88.6762 61.4388 88.3207 61.5 87.9249 61.5ZM87.1397 55.8125V61.5H86.3858V55.8125H87.1397ZM92.3116 57.2734V61.5H91.585V57.2734H92.3116ZM91.5303 56.1523C91.5303 56.0352 91.5655 55.9362 91.6358 55.8555C91.7087 55.7747 91.8155 55.7344 91.9561 55.7344C92.0941 55.7344 92.1996 55.7747 92.2725 55.8555C92.348 55.9362 92.3858 56.0352 92.3858 56.1523C92.3858 56.2643 92.348 56.3607 92.2725 56.4414C92.1996 56.5195 92.0941 56.5586 91.9561 56.5586C91.8155 56.5586 91.7087 56.5195 91.6358 56.4414C91.5655 56.3607 91.5303 56.2643 91.5303 56.1523ZM95.9327 60.3789C95.9327 60.2747 95.9092 60.1784 95.8624 60.0898C95.8181 59.9987 95.7256 59.9167 95.585 59.8438C95.447 59.7682 95.2387 59.7031 94.96 59.6484C94.7256 59.599 94.5134 59.5404 94.3233 59.4727C94.1358 59.4049 93.9756 59.3229 93.8428 59.2266C93.7126 59.1302 93.6124 59.0169 93.5421 58.8867C93.4717 58.7565 93.4366 58.6042 93.4366 58.4297C93.4366 58.263 93.473 58.1055 93.546 57.957C93.6215 57.8086 93.7269 57.6771 93.8624 57.5625C94.0004 57.4479 94.1658 57.3581 94.3585 57.293C94.5512 57.2279 94.766 57.1953 95.003 57.1953C95.3415 57.1953 95.6306 57.2552 95.8702 57.375C96.1098 57.4948 96.2934 57.6549 96.421 57.8555C96.5486 58.0534 96.6124 58.2734 96.6124 58.5156H95.8897C95.8897 58.3984 95.8546 58.2852 95.7842 58.1758C95.7165 58.0638 95.6163 57.9714 95.4835 57.8984C95.3533 57.8255 95.1931 57.7891 95.003 57.7891C94.8025 57.7891 94.6397 57.8203 94.5147 57.8828C94.3923 57.9427 94.3025 58.0195 94.2452 58.1133C94.1905 58.207 94.1631 58.306 94.1631 58.4102C94.1631 58.4883 94.1762 58.5586 94.2022 58.6211C94.2309 58.681 94.2803 58.737 94.3506 58.7891C94.421 58.8385 94.5199 58.8854 94.6475 58.9297C94.7751 58.974 94.9379 59.0182 95.1358 59.0625C95.4822 59.1406 95.7673 59.2344 95.9913 59.3438C96.2152 59.4531 96.3819 59.5872 96.4913 59.7461C96.6006 59.9049 96.6553 60.0977 96.6553 60.3242C96.6553 60.5091 96.6163 60.6784 96.5381 60.832C96.4626 60.9857 96.3519 61.1185 96.2061 61.2305C96.0629 61.3398 95.891 61.4258 95.6905 61.4883C95.4926 61.5482 95.2699 61.5781 95.0225 61.5781C94.6501 61.5781 94.335 61.5117 94.0772 61.3789C93.8194 61.2461 93.6241 61.0742 93.4913 60.8633C93.3585 60.6523 93.2921 60.4297 93.2921 60.1953H94.0186C94.029 60.3932 94.0863 60.5508 94.1905 60.668C94.2947 60.7826 94.4223 60.8646 94.5733 60.9141C94.7243 60.9609 94.8741 60.9844 95.0225 60.9844C95.2204 60.9844 95.3858 60.9583 95.5186 60.9062C95.654 60.8542 95.7569 60.7826 95.8272 60.6914C95.8975 60.6003 95.9327 60.4961 95.9327 60.3789ZM98.3897 55.5V61.5H97.6631V55.5H98.3897ZM101.304 61.5781C101.01 61.5781 100.743 61.5286 100.503 61.4297C100.266 61.3281 100.062 61.1862 99.8897 61.0039C99.7204 60.8216 99.5902 60.6055 99.4991 60.3555C99.4079 60.1055 99.3624 59.832 99.3624 59.5352V59.3711C99.3624 59.0273 99.4131 58.7214 99.5147 58.4531C99.6163 58.1823 99.7543 57.9531 99.9288 57.7656C100.103 57.5781 100.301 57.4362 100.523 57.3398C100.744 57.2435 100.973 57.1953 101.21 57.1953C101.512 57.1953 101.773 57.2474 101.991 57.3516C102.213 57.4557 102.394 57.6016 102.534 57.7891C102.675 57.974 102.779 58.1927 102.847 58.4453C102.914 58.6953 102.948 58.9688 102.948 59.2656V59.5898H99.7921V59H102.226V58.9453C102.215 58.7578 102.176 58.5755 102.108 58.3984C102.043 58.2214 101.939 58.0755 101.796 57.9609C101.653 57.8464 101.457 57.7891 101.21 57.7891C101.046 57.7891 100.895 57.8242 100.757 57.8945C100.619 57.9622 100.5 58.0638 100.401 58.1992C100.302 58.3346 100.226 58.5 100.171 58.6953C100.116 58.8906 100.089 59.1159 100.089 59.3711V59.5352C100.089 59.7357 100.116 59.9245 100.171 60.1016C100.228 60.276 100.31 60.4297 100.417 60.5625C100.526 60.6953 100.658 60.7995 100.812 60.875C100.968 60.9505 101.145 60.9883 101.343 60.9883C101.598 60.9883 101.814 60.9362 101.991 60.832C102.168 60.7279 102.323 60.5885 102.456 60.4141L102.894 60.7617C102.802 60.8997 102.687 61.0312 102.546 61.1562C102.405 61.2812 102.232 61.3828 102.026 61.4609C101.823 61.5391 101.582 61.5781 101.304 61.5781ZM104.519 55.5V61.5H103.792V55.5H104.519ZM107.101 57.2734L105.257 59.2461L104.226 60.3164L104.167 59.5469L104.905 58.6641L106.218 57.2734H107.101ZM106.44 61.5L104.933 59.4844L105.308 58.8398L107.292 61.5H106.44ZM110.308 60.3789C110.308 60.2747 110.284 60.1784 110.237 60.0898C110.193 59.9987 110.101 59.9167 109.96 59.8438C109.822 59.7682 109.614 59.7031 109.335 59.6484C109.101 59.599 108.888 59.5404 108.698 59.4727C108.511 59.4049 108.351 59.3229 108.218 59.2266C108.088 59.1302 107.987 59.0169 107.917 58.8867C107.847 58.7565 107.812 58.6042 107.812 58.4297C107.812 58.263 107.848 58.1055 107.921 57.957C107.996 57.8086 108.102 57.6771 108.237 57.5625C108.375 57.4479 108.541 57.3581 108.733 57.293C108.926 57.2279 109.141 57.1953 109.378 57.1953C109.717 57.1953 110.006 57.2552 110.245 57.375C110.485 57.4948 110.668 57.6549 110.796 57.8555C110.924 58.0534 110.987 58.2734 110.987 58.5156H110.265C110.265 58.3984 110.23 58.2852 110.159 58.1758C110.092 58.0638 109.991 57.9714 109.858 57.8984C109.728 57.8255 109.568 57.7891 109.378 57.7891C109.177 57.7891 109.015 57.8203 108.89 57.8828C108.767 57.9427 108.677 58.0195 108.62 58.1133C108.565 58.207 108.538 58.306 108.538 58.4102C108.538 58.4883 108.551 58.5586 108.577 58.6211C108.606 58.681 108.655 58.737 108.726 58.7891C108.796 58.8385 108.895 58.8854 109.023 58.9297C109.15 58.974 109.313 59.0182 109.511 59.0625C109.857 59.1406 110.142 59.2344 110.366 59.3438C110.59 59.4531 110.757 59.5872 110.866 59.7461C110.976 59.9049 111.03 60.0977 111.03 60.3242C111.03 60.5091 110.991 60.6784 110.913 60.832C110.838 60.9857 110.727 61.1185 110.581 61.2305C110.438 61.3398 110.266 61.4258 110.065 61.4883C109.868 61.5482 109.645 61.5781 109.398 61.5781C109.025 61.5781 108.71 61.5117 108.452 61.3789C108.194 61.2461 107.999 61.0742 107.866 60.8633C107.733 60.6523 107.667 60.4297 107.667 60.1953H108.394C108.404 60.3932 108.461 60.5508 108.565 60.668C108.67 60.7826 108.797 60.8646 108.948 60.9141C109.099 60.9609 109.249 60.9844 109.398 60.9844C109.595 60.9844 109.761 60.9583 109.894 60.9062C110.029 60.8542 110.132 60.7826 110.202 60.6914C110.273 60.6003 110.308 60.4961 110.308 60.3789ZM112.765 57.2734V61.5H112.038V57.2734H112.765ZM111.983 56.1523C111.983 56.0352 112.019 55.9362 112.089 55.8555C112.162 55.7747 112.269 55.7344 112.409 55.7344C112.547 55.7344 112.653 55.7747 112.726 55.8555C112.801 55.9362 112.839 56.0352 112.839 56.1523C112.839 56.2643 112.801 56.3607 112.726 56.4414C112.653 56.5195 112.547 56.5586 112.409 56.5586C112.269 56.5586 112.162 56.5195 112.089 56.4414C112.019 56.3607 111.983 56.2643 111.983 56.1523ZM116.417 60.7773V58.6016C116.417 58.4349 116.383 58.2904 116.315 58.168C116.25 58.043 116.151 57.9466 116.019 57.8789C115.886 57.8112 115.722 57.7773 115.526 57.7773C115.344 57.7773 115.184 57.8086 115.046 57.8711C114.911 57.9336 114.804 58.0156 114.726 58.1172C114.65 58.2188 114.612 58.3281 114.612 58.4453H113.89C113.89 58.2943 113.929 58.1445 114.007 57.9961C114.085 57.8477 114.197 57.7135 114.343 57.5938C114.491 57.4714 114.668 57.375 114.874 57.3047C115.082 57.2318 115.314 57.1953 115.569 57.1953C115.877 57.1953 116.148 57.2474 116.382 57.3516C116.619 57.4557 116.804 57.6133 116.937 57.8242C117.072 58.0326 117.14 58.2943 117.14 58.6094V60.5781C117.14 60.7188 117.151 60.8685 117.175 61.0273C117.201 61.1862 117.239 61.3229 117.288 61.4375V61.5H116.534C116.498 61.4167 116.469 61.306 116.448 61.168C116.427 61.0273 116.417 60.8971 116.417 60.7773ZM116.542 58.9375L116.55 59.4453H115.819C115.614 59.4453 115.43 59.4622 115.269 59.4961C115.107 59.5273 114.972 59.5755 114.862 59.6406C114.753 59.7057 114.67 59.7878 114.612 59.8867C114.555 59.9831 114.526 60.0964 114.526 60.2266C114.526 60.3594 114.556 60.4805 114.616 60.5898C114.676 60.6992 114.766 60.7865 114.886 60.8516C115.008 60.9141 115.158 60.9453 115.335 60.9453C115.556 60.9453 115.752 60.8984 115.921 60.8047C116.09 60.7109 116.224 60.5964 116.323 60.4609C116.425 60.3255 116.48 60.194 116.487 60.0664L116.796 60.4141C116.778 60.5234 116.728 60.6445 116.648 60.7773C116.567 60.9102 116.459 61.0378 116.323 61.1602C116.19 61.2799 116.032 61.3802 115.847 61.4609C115.664 61.5391 115.459 61.5781 115.23 61.5781C114.943 61.5781 114.692 61.5221 114.476 61.4102C114.262 61.2982 114.095 61.1484 113.976 60.9609C113.858 60.7708 113.8 60.5586 113.8 60.3242C113.8 60.0977 113.844 59.8984 113.933 59.7266C114.021 59.5521 114.149 59.4076 114.315 59.293C114.482 59.1758 114.683 59.0872 114.917 59.0273C115.151 58.9674 115.413 58.9375 115.702 58.9375H116.542ZM122.468 59.2695H120.948V58.6562H122.468C122.762 58.6562 123 58.6094 123.183 58.5156C123.365 58.4219 123.498 58.2917 123.581 58.125C123.667 57.9583 123.71 57.7682 123.71 57.5547C123.71 57.3594 123.667 57.1758 123.581 57.0039C123.498 56.832 123.365 56.694 123.183 56.5898C123 56.4831 122.762 56.4297 122.468 56.4297H121.124V61.5H120.37V55.8125H122.468C122.898 55.8125 123.261 55.8867 123.558 56.0352C123.855 56.1836 124.08 56.3893 124.233 56.6523C124.387 56.9128 124.464 57.2109 124.464 57.5469C124.464 57.9115 124.387 58.2227 124.233 58.4805C124.08 58.7383 123.855 58.9349 123.558 59.0703C123.261 59.2031 122.898 59.2695 122.468 59.2695ZM126.093 55.5V61.5H125.366V55.5H126.093ZM129.745 60.7773V58.6016C129.745 58.4349 129.711 58.2904 129.644 58.168C129.579 58.043 129.48 57.9466 129.347 57.8789C129.214 57.8112 129.05 57.7773 128.855 57.7773C128.672 57.7773 128.512 57.8086 128.374 57.8711C128.239 57.9336 128.132 58.0156 128.054 58.1172C127.978 58.2188 127.94 58.3281 127.94 58.4453H127.218C127.218 58.2943 127.257 58.1445 127.335 57.9961C127.413 57.8477 127.525 57.7135 127.671 57.5938C127.819 57.4714 127.996 57.375 128.202 57.3047C128.411 57.2318 128.642 57.1953 128.898 57.1953C129.205 57.1953 129.476 57.2474 129.71 57.3516C129.947 57.4557 130.132 57.6133 130.265 57.8242C130.4 58.0326 130.468 58.2943 130.468 58.6094V60.5781C130.468 60.7188 130.48 60.8685 130.503 61.0273C130.529 61.1862 130.567 61.3229 130.616 61.4375V61.5H129.862C129.826 61.4167 129.797 61.306 129.776 61.168C129.756 61.0273 129.745 60.8971 129.745 60.7773ZM129.87 58.9375L129.878 59.4453H129.148C128.942 59.4453 128.758 59.4622 128.597 59.4961C128.435 59.5273 128.3 59.5755 128.19 59.6406C128.081 59.7057 127.998 59.7878 127.94 59.8867C127.883 59.9831 127.855 60.0964 127.855 60.2266C127.855 60.3594 127.885 60.4805 127.944 60.5898C128.004 60.6992 128.094 60.7865 128.214 60.8516C128.336 60.9141 128.486 60.9453 128.663 60.9453C128.885 60.9453 129.08 60.8984 129.249 60.8047C129.418 60.7109 129.552 60.5964 129.651 60.4609C129.753 60.3255 129.808 60.194 129.815 60.0664L130.124 60.4141C130.106 60.5234 130.056 60.6445 129.976 60.7773C129.895 60.9102 129.787 61.0378 129.651 61.1602C129.519 61.2799 129.36 61.3802 129.175 61.4609C128.993 61.5391 128.787 61.5781 128.558 61.5781C128.271 61.5781 128.02 61.5221 127.804 61.4102C127.59 61.2982 127.424 61.1484 127.304 60.9609C127.187 60.7708 127.128 60.5586 127.128 60.3242C127.128 60.0977 127.172 59.8984 127.261 59.7266C127.349 59.5521 127.477 59.4076 127.644 59.293C127.81 59.1758 128.011 59.0872 128.245 59.0273C128.48 58.9674 128.741 58.9375 129.03 58.9375H129.87ZM133.374 57.2734V57.8281H131.089V57.2734H133.374ZM131.862 56.2461H132.585V60.4531C132.585 60.5964 132.607 60.7044 132.651 60.7773C132.696 60.8503 132.753 60.8984 132.823 60.9219C132.894 60.9453 132.969 60.957 133.05 60.957C133.11 60.957 133.172 60.9518 133.237 60.9414C133.305 60.9284 133.356 60.918 133.39 60.9102L133.394 61.5C133.336 61.5182 133.261 61.5352 133.167 61.5508C133.076 61.569 132.965 61.5781 132.835 61.5781C132.658 61.5781 132.495 61.543 132.347 61.4727C132.198 61.4023 132.08 61.2852 131.991 61.1211C131.905 60.9544 131.862 60.7305 131.862 60.4492V56.2461ZM135.3 61.5H134.577V56.8281C134.577 56.5234 134.632 56.2669 134.741 56.0586C134.853 55.8477 135.013 55.6888 135.222 55.582C135.43 55.4727 135.677 55.418 135.964 55.418C136.047 55.418 136.131 55.4232 136.214 55.4336C136.3 55.444 136.383 55.4596 136.464 55.4805L136.425 56.0703C136.37 56.0573 136.308 56.0482 136.237 56.043C136.17 56.0378 136.102 56.0352 136.034 56.0352C135.881 56.0352 135.748 56.0664 135.636 56.1289C135.526 56.1888 135.443 56.2773 135.386 56.3945C135.329 56.5117 135.3 56.6562 135.3 56.8281V61.5ZM136.198 57.2734V57.8281H133.909V57.2734H136.198ZM136.812 59.4336V59.3438C136.812 59.0391 136.856 58.7565 136.944 58.4961C137.033 58.2331 137.161 58.0052 137.327 57.8125C137.494 57.6172 137.696 57.4661 137.933 57.3594C138.17 57.25 138.435 57.1953 138.73 57.1953C139.026 57.1953 139.293 57.25 139.53 57.3594C139.77 57.4661 139.973 57.6172 140.14 57.8125C140.309 58.0052 140.438 58.2331 140.526 58.4961C140.615 58.7565 140.659 59.0391 140.659 59.3438V59.4336C140.659 59.7383 140.615 60.0208 140.526 60.2812C140.438 60.5417 140.309 60.7695 140.14 60.9648C139.973 61.1576 139.771 61.3086 139.534 61.418C139.3 61.5247 139.034 61.5781 138.737 61.5781C138.44 61.5781 138.174 61.5247 137.937 61.418C137.7 61.3086 137.496 61.1576 137.327 60.9648C137.161 60.7695 137.033 60.5417 136.944 60.2812C136.856 60.0208 136.812 59.7383 136.812 59.4336ZM137.534 59.3438V59.4336C137.534 59.6445 137.559 59.8438 137.608 60.0312C137.658 60.2161 137.732 60.3802 137.831 60.5234C137.933 60.6667 138.059 60.7799 138.21 60.8633C138.361 60.944 138.537 60.9844 138.737 60.9844C138.935 60.9844 139.108 60.944 139.257 60.8633C139.408 60.7799 139.533 60.6667 139.632 60.5234C139.731 60.3802 139.805 60.2161 139.855 60.0312C139.907 59.8438 139.933 59.6445 139.933 59.4336V59.3438C139.933 59.1354 139.907 58.9388 139.855 58.7539C139.805 58.5664 139.73 58.401 139.628 58.2578C139.529 58.112 139.404 57.9974 139.253 57.9141C139.105 57.8307 138.93 57.7891 138.73 57.7891C138.532 57.7891 138.357 57.8307 138.206 57.9141C138.058 57.9974 137.933 58.112 137.831 58.2578C137.732 58.401 137.658 58.5664 137.608 58.7539C137.559 58.9388 137.534 59.1354 137.534 59.3438ZM142.288 57.9375V61.5H141.565V57.2734H142.269L142.288 57.9375ZM143.608 57.25L143.605 57.9219C143.545 57.9089 143.487 57.901 143.433 57.8984C143.381 57.8932 143.321 57.8906 143.253 57.8906C143.086 57.8906 142.939 57.9167 142.812 57.9688C142.684 58.0208 142.576 58.0938 142.487 58.1875C142.399 58.2812 142.329 58.3932 142.276 58.5234C142.227 58.651 142.194 58.7917 142.179 58.9453L141.976 59.0625C141.976 58.8073 142 58.5677 142.05 58.3438C142.102 58.1198 142.181 57.9219 142.288 57.75C142.395 57.5755 142.53 57.4401 142.694 57.3438C142.861 57.2448 143.059 57.1953 143.288 57.1953C143.34 57.1953 143.4 57.2018 143.468 57.2148C143.536 57.2253 143.582 57.237 143.608 57.25ZM144.995 58.1133V61.5H144.269V57.2734H144.956L144.995 58.1133ZM144.847 59.2266L144.511 59.2148C144.513 58.9258 144.551 58.6589 144.624 58.4141C144.697 58.1667 144.805 57.9518 144.948 57.7695C145.092 57.5872 145.27 57.4466 145.483 57.3477C145.697 57.2461 145.944 57.1953 146.226 57.1953C146.424 57.1953 146.606 57.224 146.773 57.2812C146.939 57.3359 147.084 57.4232 147.206 57.543C147.329 57.6628 147.424 57.8164 147.491 58.0039C147.559 58.1914 147.593 58.418 147.593 58.6836V61.5H146.87V58.7188C146.87 58.4974 146.832 58.3203 146.757 58.1875C146.684 58.0547 146.58 57.9583 146.444 57.8984C146.309 57.8359 146.15 57.8047 145.968 57.8047C145.754 57.8047 145.576 57.8424 145.433 57.918C145.289 57.9935 145.175 58.0977 145.089 58.2305C145.003 58.3633 144.94 58.5156 144.901 58.6875C144.865 58.8568 144.847 59.0365 144.847 59.2266ZM147.585 58.8281L147.101 58.9766C147.103 58.7448 147.141 58.5221 147.214 58.3086C147.289 58.0951 147.398 57.9049 147.538 57.7383C147.681 57.5716 147.857 57.4401 148.065 57.3438C148.274 57.2448 148.512 57.1953 148.78 57.1953C149.007 57.1953 149.207 57.2253 149.382 57.2852C149.559 57.3451 149.707 57.4375 149.827 57.5625C149.95 57.6849 150.042 57.8424 150.105 58.0352C150.167 58.2279 150.198 58.457 150.198 58.7227V61.5H149.472V58.7148C149.472 58.4779 149.434 58.2943 149.358 58.1641C149.286 58.0312 149.181 57.9388 149.046 57.8867C148.913 57.832 148.754 57.8047 148.569 57.8047C148.411 57.8047 148.27 57.832 148.148 57.8867C148.025 57.9414 147.922 58.0169 147.839 58.1133C147.756 58.207 147.692 58.3151 147.648 58.4375C147.606 58.5599 147.585 58.6901 147.585 58.8281Z" fill="#E6EEF1"/>
<defs>
<linearGradient id="paint0_linear_112_21215" x1="70.5595" y1="-17.0148" x2="26.5221" y2="82.0691" gradientUnits="userSpaceOnUse">
<stop offset="0.682292" stop-color="#FAFAFA"/>
<stop offset="1" stop-color="#E5E5E5"/>
</linearGradient>
</defs>
</svg>
