<svg width="284" height="185" viewBox="0 0 284 185" fill="none" xmlns="http://www.w3.org/2000/svg">
<g clip-path="url(#clip0_829_217860)">
<path d="M102.723 72.4684L103.562 74.1789C103.607 74.2701 103.694 74.3322 103.792 74.3487L105.667 74.6221C105.918 74.6594 106.016 74.97 105.836 75.144L104.479 76.4776C104.409 76.548 104.376 76.6516 104.393 76.751L104.713 78.6313C104.754 78.884 104.495 79.0745 104.269 78.9544L102.592 78.0639C102.501 78.0183 102.399 78.0183 102.308 78.0639L100.631 78.9544C100.409 79.0745 100.146 78.8798 100.187 78.6313L100.507 76.751C100.524 76.6516 100.491 76.548 100.421 76.4776L99.0643 75.144C98.8835 74.9659 98.9821 74.6552 99.2329 74.6221L101.108 74.3487C101.206 74.3322 101.293 74.2701 101.338 74.1789L102.177 72.4684C102.288 72.2364 102.612 72.2364 102.723 72.4684Z" fill="#E0E0E0"/>
<path d="M272.209 24.0097L273.048 25.7203C273.093 25.8114 273.179 25.8735 273.278 25.8901L275.153 26.1634C275.403 26.2007 275.502 26.5113 275.321 26.6853L273.964 28.0189C273.895 28.0893 273.862 28.1929 273.878 28.2923L274.199 30.1727C274.24 30.4253 273.981 30.6158 273.755 30.4957L272.077 29.6052C271.987 29.5597 271.884 29.5597 271.794 29.6052L270.116 30.4957C269.894 30.6158 269.631 30.4212 269.672 30.1727L269.993 28.2923C270.009 28.1929 269.977 28.0893 269.907 28.0189L268.55 26.6853C268.369 26.5072 268.468 26.1966 268.718 26.1634L270.593 25.8901C270.692 25.8776 270.778 25.8114 270.823 25.7203L271.662 24.0097C271.773 23.7819 272.098 23.7819 272.209 24.0097Z" fill="#E0E0E0"/>
<path d="M104.684 6.80068L104.475 7.86511C104.462 7.9231 104.479 7.98108 104.52 8.0225L105.272 8.80115C105.371 8.90469 105.309 9.07865 105.17 9.09521L104.101 9.22361C104.043 9.23189 103.994 9.26503 103.969 9.31473L103.468 10.2756C103.402 10.404 103.217 10.3999 103.155 10.2673L102.703 9.28159C102.678 9.22775 102.633 9.19048 102.575 9.18219L101.515 8.99581C101.375 8.97096 101.321 8.79287 101.428 8.69761L102.222 7.96037C102.263 7.9231 102.284 7.86511 102.275 7.80713L102.123 6.73441C102.103 6.58945 102.255 6.48591 102.378 6.55632L103.32 7.08646C103.369 7.11545 103.431 7.11545 103.48 7.0906L104.446 6.61016C104.569 6.54803 104.713 6.65986 104.684 6.80068Z" fill="#E0E0E0"/>
<path d="M20.0833 66.5206L19.7668 68.1111C19.7503 68.1939 19.775 68.2809 19.8367 68.343L20.959 69.5069C21.107 69.6601 21.0166 69.921 20.8028 69.9459L19.2035 70.1364C19.1172 70.1447 19.0432 70.1985 19.0062 70.2731L18.2538 71.7061C18.1552 71.8967 17.8797 71.8884 17.7893 71.6937L17.115 70.2234C17.078 70.1447 17.0081 70.0908 16.9259 70.0743L15.339 69.7968C15.1293 69.7595 15.0512 69.4944 15.2074 69.3495L16.3914 68.2519C16.4531 68.1939 16.486 68.1069 16.4737 68.0241L16.2434 66.4212C16.2147 66.2059 16.4408 66.0526 16.6258 66.1562L18.0277 66.9473C18.1017 66.9887 18.1922 66.9928 18.2703 66.9555L19.7133 66.239C19.9107 66.1396 20.1286 66.3094 20.0833 66.5206Z" fill="#E0E0E0"/>
<path d="M179.505 136.032L161.526 185L178.448 184.726L195.374 139.714L179.505 136.032Z" fill="#F5F5F5"/>
<path d="M283.034 114.167L274.088 114.578L271.506 138.032L260.932 115.998L245.116 124.22C245.116 124.22 254.991 148.068 260.196 155.631C260.196 155.631 267.868 166.735 278.191 162.415C287.207 158.646 283.034 114.167 283.034 114.167Z" fill="#F5F5F5"/>
<path d="M211.515 69.3576L213.517 103.229C213.858 108.99 215.527 117.381 224.539 116.42C232.297 114.996 233.839 107.387 233.518 102.011C233.366 99.4599 233.243 97.3352 233.243 97.0742C233.243 97.0742 241.753 95.7489 241.868 87.1796C241.921 83.0378 241.346 74.4975 240.737 66.7772C240.084 58.4854 233.206 52.0947 224.95 52.0864H224.128C215.277 52.5959 210.762 60.4569 211.515 69.3576Z" fill="#F5F5F5"/>
<path d="M233.243 97.0744C233.243 97.0744 227.877 97.385 222.167 93.7651C222.167 93.7651 224.864 100.027 233.354 99.2654L233.243 97.0744Z" fill="#E0E0E0"/>
<path d="M226.529 71.3127C226.373 71.4991 225.341 70.7743 223.922 70.8405C222.504 70.8819 221.497 71.6813 221.332 71.5074C221.254 71.4328 221.406 71.1015 221.842 70.7411C222.274 70.3808 223.022 70.0205 223.906 69.9873C224.79 69.9542 225.551 70.2607 225.99 70.5837C226.443 70.9151 226.607 71.2299 226.529 71.3127Z" fill="#E0E0E0"/>
<path d="M225.468 75.4629C225.489 76.0758 224.991 76.5977 224.358 76.6308C223.725 76.664 223.195 76.196 223.174 75.5871C223.154 74.9741 223.651 74.4523 224.284 74.4191C224.913 74.386 225.444 74.854 225.468 75.4629Z" fill="#E0E0E0"/>
<path d="M230.788 80.9835C230.78 80.9089 231.594 80.7681 232.914 80.5983C233.247 80.5652 233.563 80.4989 233.621 80.2669C233.699 80.0226 233.559 79.6622 233.399 79.2688C233.086 78.4529 232.757 77.5996 232.412 76.705C231.043 73.0561 230.056 70.0575 230.2 70.0037C230.348 69.9498 231.573 72.8615 232.942 76.5104C233.271 77.4091 233.588 78.2665 233.884 79.0865C234.011 79.4676 234.225 79.9025 234.057 80.4078C233.966 80.6604 233.719 80.8426 233.506 80.9006C233.292 80.9669 233.103 80.971 232.938 80.9793C231.614 81.0539 230.792 81.058 230.788 80.9835Z" fill="#E0E0E0"/>
<path d="M226.55 66.7938C226.406 67.1085 225.275 66.8352 223.91 66.8683C222.545 66.8725 221.419 67.1707 221.271 66.8642C221.205 66.7151 221.423 66.4293 221.896 66.1601C222.36 65.8909 223.088 65.6631 223.902 65.6506C224.72 65.6423 225.448 65.8494 225.916 66.1062C226.389 66.363 226.611 66.6447 226.55 66.7938Z" fill="#E0E0E0"/>
<path d="M239.533 68.8566C239.401 69.1258 238.275 68.9187 236.935 68.9767C235.59 69.0098 234.492 69.2873 234.332 69.0264C234.262 68.9021 234.464 68.6536 234.916 68.4176C235.364 68.1773 236.067 67.9703 236.873 67.9454C237.679 67.9205 238.402 68.0821 238.879 68.2892C239.356 68.4963 239.59 68.7282 239.533 68.8566Z" fill="#E0E0E0"/>
<path d="M212.205 75.7029C212.061 75.6408 206.359 73.9551 206.54 79.8157C206.721 85.6763 212.522 84.2847 212.526 84.1149C212.53 83.9492 212.205 75.7029 212.205 75.7029Z" fill="#F5F5F5"/>
<path d="M210.68 81.9526C210.655 81.9361 210.581 82.0272 210.413 82.11C210.248 82.1929 209.961 82.255 209.656 82.1473C209.036 81.9402 208.489 80.971 208.427 79.919C208.394 79.3847 208.493 78.8753 208.666 78.4487C208.83 78.0138 209.097 77.7073 209.406 77.6411C209.71 77.5582 209.936 77.7405 210.014 77.902C210.096 78.0635 210.063 78.1795 210.096 78.1919C210.113 78.2043 210.22 78.0884 210.162 77.8482C210.133 77.7322 210.063 77.5955 209.924 77.4878C209.78 77.376 209.574 77.3263 209.36 77.3553C208.912 77.4008 208.522 77.8274 208.329 78.2955C208.111 78.7676 207.991 79.3433 208.028 79.9397C208.102 81.1201 208.736 82.2053 209.587 82.4248C209.998 82.5201 210.335 82.3834 210.507 82.2426C210.676 82.0935 210.701 81.9609 210.68 81.9526Z" fill="#E0E0E0"/>
<path d="M203.814 66.8064C204.875 64.6569 204.982 62.1801 205.475 59.8317C205.973 57.4833 207.075 55.0107 209.254 54.0457L209.307 54.0622C211.26 53.1013 213.735 52.9108 215.486 54.1948C215.679 51.1299 218.15 48.533 221.036 47.539C223.922 46.5491 228.675 46.6692 231.578 47.6094C233.822 48.3342 236.063 49.995 238.813 52.4718C239.973 53.5155 241.054 54.6504 242.032 55.868L245.161 63.6421L243.266 67.9744C243.155 68.2685 243.04 68.5625 242.896 68.8525L242.892 68.8318L241.543 77.7697C241.247 75.3799 240.824 67.0218 240.528 64.6361C236.844 64.7438 233.411 63.4889 230.751 60.921C229.345 59.5625 228.194 57.8188 226.393 57.0816C224.07 56.1248 221.456 57.1354 219.153 58.1336L219.248 58.0342C218.06 58.6969 216.999 59.5915 216.144 60.6518C217.011 65.3361 216.872 70.2068 215.721 74.829C215.548 75.5248 215.042 76.9703 214.397 77.2768C213.13 77.8774 212.682 76.5686 211.848 75.9142C211.235 75.4337 210.372 75.4296 209.439 75.5C208.785 74.0835 208.041 71.6689 207.412 69.5524C206.643 69.8506 205.808 69.9749 204.99 69.892C205.196 69.2708 205.401 68.6495 205.611 68.0324C205.303 68.2643 204.978 68.5004 204.604 68.5832C204.23 68.6661 203.782 68.5543 203.584 68.2229C203.329 67.7922 203.592 67.2537 203.814 66.8064Z" fill="#E0E0E0"/>
<path d="M239.484 70.9152C239.327 71.1016 238.295 70.3768 236.877 70.4431C235.459 70.4845 234.451 71.2838 234.287 71.1099C234.209 71.0353 234.361 70.704 234.797 70.3437C235.228 69.9833 235.977 69.623 236.861 69.5899C237.745 69.5567 238.505 69.8632 238.945 70.1863C239.397 70.5176 239.562 70.8324 239.484 70.9152Z" fill="#E0E0E0"/>
<path d="M237.522 75.1933C237.543 75.8062 237.046 76.3281 236.412 76.3612C235.779 76.3944 235.249 75.9264 235.228 75.3175C235.208 74.7045 235.705 74.1827 236.338 74.1495C236.972 74.1123 237.502 74.5803 237.522 75.1933Z" fill="#E0E0E0"/>
<path d="M241.255 54.9404C242.033 55.8558 243.192 56.6634 244.372 56.4646C244.721 56.4066 245.613 56.0173 245.613 56.0173C246.041 56.2451 246.029 57.6823 245.765 58.0923C245.502 58.5023 244.931 59.0739 244.931 59.0739C246.366 59.7449 247.611 59.2976 249.063 58.6597C248.952 61.2193 247.369 63.663 245.087 64.7978C244.359 65.1623 243.459 65.3859 242.752 64.9842C242.127 64.628 241.839 63.8949 241.617 63.2115C240.799 60.6933 240.293 58.0757 240.113 55.4333L241.255 54.9404Z" fill="#E0E0E0"/>
<path d="M238.164 103.788L233.288 101.974L214.639 101.419L210.314 102.603L210.878 113.227L220.667 119.514L230.159 119.324L236.129 113.848L237.453 108.419L238.164 103.788Z" fill="#F5F5F5"/>
<path d="M182.851 120.061C184.241 117.179 185.573 114.863 186.753 113.033C189.084 109.429 192.644 106.816 196.801 105.913L212.448 101.639C212.448 101.639 213.513 112.271 224.272 112.271C235.031 112.271 235.249 102.426 235.249 102.426L254.95 109.682C255.571 109.926 259.773 111.388 264.657 121.946C269.311 131.998 271.346 137.142 271.346 137.142L252.763 142.174L251.526 159.47L252.623 184.731L196.012 184.606L195.629 157.962L195.37 139.718L194.182 141.971L176.508 134.831C176.512 134.822 178.267 129.567 182.851 120.061Z" fill="#EBEBEB"/>
<path d="M195.103 130.274C195.021 130.274 195.07 136.388 195.218 143.922C195.362 151.46 195.547 157.564 195.633 157.564C195.715 157.564 195.666 151.451 195.518 143.917C195.374 136.379 195.189 130.27 195.103 130.274Z" fill="#E0E0E0"/>
<path d="M231.278 85.7508C231.29 85.8005 230.965 85.9372 230.406 85.9372C229.855 85.9372 229.058 85.7508 228.371 85.2124C227.684 84.6698 227.314 83.9367 227.179 83.3983C227.039 82.8516 227.096 82.5037 227.146 82.4996C227.207 82.4954 227.261 82.8268 227.454 83.3031C227.647 83.7794 228.017 84.4048 228.622 84.8811C229.226 85.3574 229.921 85.5686 230.427 85.639C230.936 85.7177 231.269 85.6846 231.278 85.7508Z" fill="#E0E0E0"/>
<path d="M282.516 100.611C282.516 100.611 283.581 97.9564 282.282 97.2068C280.982 96.4571 272.678 93.9141 271.777 94.2496C270.877 94.585 270.544 95.0448 270.31 96.0347C270.075 97.0245 269.833 97.6789 269.833 97.6789C269.833 97.6789 269.023 96.892 267.584 97.6499C267.584 97.6499 266.083 98.4452 265.874 99.112C265.664 99.7788 265.993 100.682 266.272 101.357C266.552 102.028 268.205 104.517 268.205 104.517C268.205 104.517 268.201 106.609 269.594 108.816C270.988 111.024 273.685 111.616 274.129 113.206L273.582 120.314L283.256 125.773C283.256 125.773 283.1 116.893 282.927 112.999C282.754 109.102 282.75 105.192 282.993 103.929C283.231 102.666 282.906 100.806 282.516 100.611Z" fill="#F5F5F5"/>
<path d="M277.595 104.335C277.591 104.339 277.566 104.314 277.525 104.264C277.484 104.215 277.426 104.136 277.369 104.02C277.258 103.8 277.142 103.374 277.406 102.931L277.43 103.022C277.085 102.893 276.682 102.744 276.238 102.579L276.337 102.483C276.444 102.786 276.563 103.117 276.686 103.465L276.666 103.432C276.797 103.568 276.929 103.722 277.031 103.9C277.134 104.082 277.212 104.297 277.212 104.525C277.221 104.985 276.929 105.445 276.485 105.652C276.263 105.759 276.004 105.797 275.753 105.751C275.498 105.697 275.288 105.598 275.066 105.499C274.622 105.296 274.195 105.031 273.8 104.707C273.533 104.484 273.286 104.252 273.068 103.979L273.138 104.02C272.567 103.941 271.999 103.738 271.596 103.349C271.185 102.964 270.98 102.434 270.967 101.924L271.037 102.019C270.671 101.903 270.342 101.746 270.063 101.527C269.927 101.415 269.804 101.291 269.713 101.141C269.627 100.972 269.611 100.806 269.602 100.649C269.582 100.027 269.676 99.5013 269.746 99.0664C269.82 98.6356 269.894 98.296 269.952 98.0682C270.009 97.8404 270.046 97.7162 270.055 97.7203C270.063 97.7245 270.046 97.8487 270.009 98.0806C269.972 98.3126 269.915 98.6522 269.857 99.0871C269.804 99.5178 269.726 100.048 269.759 100.64C269.767 100.785 269.792 100.938 269.853 101.054C269.931 101.179 270.042 101.291 270.17 101.39C270.425 101.585 270.749 101.738 271.087 101.837L271.152 101.858L271.157 101.932C271.173 102.376 271.366 102.869 271.736 103.204C272.102 103.552 272.62 103.742 273.167 103.813L273.208 103.817L273.237 103.854C273.434 104.099 273.677 104.331 273.936 104.542C274.318 104.852 274.729 105.109 275.157 105.308C275.366 105.403 275.593 105.503 275.794 105.548C276.004 105.586 276.217 105.557 276.402 105.47C276.777 105.296 277.027 104.906 277.027 104.525C277.031 104.14 276.789 103.813 276.546 103.552L276.534 103.535L276.53 103.519C276.411 103.167 276.304 102.835 276.201 102.529L276.148 102.372L276.3 102.434C276.74 102.612 277.138 102.773 277.48 102.91L277.545 102.935L277.504 102.997C277.262 103.37 277.336 103.776 277.43 103.991C277.521 104.219 277.607 104.326 277.595 104.335Z" fill="#E0E0E0"/>
<path d="M280.489 99.7166C280.485 99.7332 280.329 99.7125 280.045 99.6628C279.761 99.6131 279.354 99.5344 278.849 99.435C278.327 99.3273 277.735 99.203 277.081 99.0705C276.748 99.0001 276.398 98.9255 276.041 98.8468C275.679 98.7723 275.309 98.6729 274.947 98.7226C274.581 98.764 274.306 99.0166 274.137 99.3231C273.965 99.6296 273.866 99.9775 273.771 100.301C273.59 100.951 273.496 101.56 273.422 102.069C273.286 103.092 273.229 103.73 273.196 103.726C273.179 103.726 273.179 103.564 273.188 103.274C273.2 102.984 273.22 102.566 273.27 102.048C273.323 101.531 273.405 100.918 273.578 100.247C273.669 99.9154 273.759 99.5592 273.952 99.2155C274.129 98.8758 274.483 98.5486 274.914 98.5072C275.338 98.4534 275.724 98.5611 276.082 98.6356C276.44 98.7184 276.789 98.7971 277.122 98.8717C277.772 99.0249 278.364 99.1616 278.877 99.2817C279.379 99.4018 279.782 99.5012 280.057 99.5758C280.333 99.6503 280.489 99.7 280.489 99.7166Z" fill="#E0E0E0"/>
<path d="M279.034 97.803C279.03 97.8154 278.869 97.7864 278.577 97.7201C278.244 97.6415 277.833 97.5462 277.352 97.4302C276.834 97.3101 276.222 97.1651 275.531 97.0368C275.19 96.9746 274.824 96.9084 274.45 96.8628C274.08 96.8172 273.685 96.8048 273.327 96.9291C272.965 97.0533 272.678 97.3184 272.468 97.6207C272.254 97.9231 272.106 98.2586 271.983 98.5858C271.744 99.2443 271.572 99.8573 271.448 100.375C271.206 101.41 271.136 102.073 271.103 102.069C271.091 102.069 271.091 101.899 271.115 101.601C271.144 101.303 271.198 100.868 271.3 100.342C271.407 99.8159 271.564 99.1905 271.798 98.5195C271.917 98.184 272.069 97.832 272.295 97.5006C272.517 97.1734 272.842 96.8711 273.257 96.7303C273.668 96.5894 274.092 96.6102 274.474 96.6557C274.861 96.7054 275.223 96.7758 275.568 96.8462C276.259 96.9871 276.875 97.1444 277.389 97.2853C277.903 97.4261 278.314 97.5503 278.598 97.6415C278.882 97.7326 279.038 97.7906 279.034 97.803Z" fill="#E0E0E0"/>
<path d="M282.508 98.8136C282.467 98.8633 282.018 98.532 281.385 98.3125C280.756 98.0805 280.201 98.0516 280.201 97.9853C280.193 97.9314 280.785 97.861 281.455 98.1095C282.134 98.3456 282.545 98.7764 282.508 98.8136Z" fill="#E0E0E0"/>
<path d="M274.466 95.4546C274.466 95.496 273.968 95.4339 273.187 95.4836C272.801 95.5167 272.336 95.6078 271.909 95.8812C271.469 96.1421 271.189 96.6433 271.054 97.2273C270.77 98.4035 270.589 99.4969 270.466 100.284C270.342 101.071 270.281 101.564 270.248 101.56C270.219 101.555 270.231 101.058 270.318 100.263C270.404 99.4638 270.564 98.3704 270.852 97.1693C270.93 96.8711 271.033 96.5729 271.193 96.3161C271.354 96.0551 271.576 95.8522 271.81 95.7072C272.283 95.4173 272.784 95.3386 273.183 95.3262C273.586 95.3138 273.911 95.351 274.133 95.38C274.347 95.4173 274.466 95.4422 274.466 95.4546Z" fill="#E0E0E0"/>
<path d="M278.832 96.5771C278.816 96.6351 278.326 96.5605 277.739 96.4073C277.151 96.254 276.682 96.0842 276.698 96.0304C276.715 95.9724 277.204 96.0469 277.792 96.2002C278.38 96.3493 278.844 96.5191 278.832 96.5771Z" fill="#E0E0E0"/>
<path d="M271.111 102.43C271.128 102.492 270.482 102.678 269.837 103.175C269.187 103.664 268.834 104.24 268.776 104.207C268.727 104.19 269.015 103.523 269.705 103.001C270.396 102.479 271.107 102.376 271.111 102.43Z" fill="#E0E0E0"/>
<path d="M269.788 101.092C269.804 101.113 269.693 101.229 269.471 101.353C269.253 101.477 268.904 101.601 268.509 101.593C268.114 101.585 267.777 101.465 267.551 101.361C267.325 101.253 267.197 101.162 267.21 101.138C267.234 101.067 267.798 101.349 268.513 101.374C269.233 101.394 269.751 101.026 269.788 101.092Z" fill="#E0E0E0"/>
<path d="M279.058 105.093C279.058 105.134 278.532 105.118 277.722 105.325C276.92 105.528 275.835 106.016 274.947 106.928C274.059 107.843 273.598 108.949 273.413 109.756C273.22 110.576 273.249 111.107 273.208 111.107C273.196 111.107 273.175 110.974 273.171 110.738C273.167 110.498 273.187 110.15 273.265 109.727C273.418 108.887 273.87 107.731 274.791 106.778C275.716 105.83 276.855 105.345 277.685 105.176C278.104 105.089 278.45 105.06 278.684 105.06C278.927 105.064 279.058 105.08 279.058 105.093Z" fill="#E0E0E0"/>
<path d="M280.522 114.192C280.526 114.217 280.222 114.312 279.708 114.37C279.194 114.432 278.474 114.436 277.693 114.295C276.912 114.15 276.238 113.894 275.782 113.653C275.321 113.417 275.066 113.219 275.079 113.198C275.111 113.136 276.205 113.811 277.73 114.08C279.256 114.37 280.514 114.121 280.522 114.192Z" fill="#E0E0E0"/>
<path d="M93.1564 123.731L116.385 184.747L99.574 184.772L79.5071 135.017L93.1564 123.731Z" fill="#F5F5F5"/>
<path d="M0.616656 105.847L8.83502 103.026L11.4292 128.444L27.056 114.719L36.738 126.51C36.738 126.51 20.3753 143.719 14.4551 146.08C14.4551 146.08 5.4638 150.499 1.64446 144.701C-1.3074 140.232 0.616656 105.847 0.616656 105.847Z" fill="#F5F5F5"/>
<path d="M79.7004 90.6422C79.4455 84.8396 79.1865 79.008 78.0395 73.3172C76.8883 67.6264 75.4617 62.0806 71.8808 57.5288L38.7484 59.5914C37.5109 64.7479 36.2652 70.0328 36.8408 75.3052C37.3999 80.4245 39.6611 85.3532 39.3445 90.4931C39.1225 94.1254 37.626 97.5299 36.5324 100.997C35.4388 104.463 34.7481 108.307 36.1131 111.674C36.4543 112.523 36.9518 113.347 37.7165 113.844C38.6579 114.449 39.842 114.466 40.9561 114.457C54.2066 114.366 67.4571 113.948 80.6871 113.202C80.3582 105.681 80.0293 98.1636 79.7004 90.6422Z" fill="#E0E0E0"/>
<path d="M47.234 51.2997C50.3051 49.5767 54.0299 49.2992 57.4792 49.966C60.9326 50.6329 64.1558 52.1777 67.2146 53.9256C68.929 54.9072 70.6393 55.984 71.8808 57.5289C74.142 60.3494 76.395 64.9923 76.6417 68.6081C76.839 71.5322 75.7906 78.8714 74.5819 81.5387C73.476 83.9865 68.2177 85.8875 65.6194 86.5129L41.5029 58.73C42.3211 55.6154 44.4384 52.8694 47.234 51.2997Z" fill="#E0E0E0"/>
<path d="M43.1474 55.1103L48.8661 54.0293C45.7991 61.5632 45.092 78.7432 43.3694 86.7036C41.2315 83.6346 36.2528 74.2825 36.4831 70.5425C36.7133 66.7983 36.3392 54.5305 43.1474 55.1103Z" fill="#E0E0E0"/>
<path d="M39.9734 67.3782C40.2982 61.6128 44.0435 54.518 49.7499 55.0896L62.9634 58.3657C67.2021 59.4177 70.0512 62.992 70.3965 67.3782C70.413 67.5977 70.4335 67.3285 70.4294 67.4941L67.7736 101.916L46.9173 124.887L49.1332 101.109C49.1045 98.3047 49.0839 96.0723 49.0839 96.0847C49.0839 96.0847 41.77 94.9085 40.1954 85.312C39.4143 80.5407 39.6116 73.7855 39.9734 67.3782Z" fill="#F5F5F5"/>
<path d="M43.5626 75.1604C43.542 75.8106 44.0765 76.3656 44.7507 76.3946C45.425 76.4277 45.9841 75.9266 46.0047 75.2763C46.0252 74.6261 45.4908 74.0711 44.8206 74.0421C44.1423 74.0089 43.5831 74.5101 43.5626 75.1604Z" fill="#E0E0E0"/>
<path d="M41.437 71.1305C41.5891 71.292 42.5101 70.5921 43.8298 70.5879C45.1454 70.5631 46.1156 71.2382 46.2554 71.0766C46.3253 71.0062 46.1691 70.7163 45.7456 70.4098C45.3304 70.1033 44.6232 69.8093 43.801 69.8176C42.9829 69.8258 42.2922 70.1365 41.8975 70.4471C41.4987 70.766 41.363 71.0601 41.437 71.1305Z" fill="#E0E0E0"/>
<path d="M54.9796 75.065C54.959 75.7153 55.4935 76.2703 56.1677 76.2993C56.842 76.3324 57.4011 75.8313 57.4217 75.181C57.4422 74.5307 56.9077 73.9757 56.2376 73.9426C55.5634 73.9136 55.0001 74.4106 54.9796 75.065Z" fill="#E0E0E0"/>
<path d="M53.9353 71.0226C54.0874 71.1841 55.0125 70.4842 56.3281 70.48C57.6437 70.4552 58.6139 71.1303 58.7537 70.9687C58.8236 70.8983 58.6674 70.6084 58.2439 70.3019C57.8287 69.9954 57.1215 69.7014 56.2993 69.7096C55.4811 69.7179 54.7905 70.0286 54.3958 70.3392C53.997 70.6623 53.8613 70.9522 53.9353 71.0226Z" fill="#E0E0E0"/>
<path d="M49.9063 81.4723C49.9104 81.3978 49.0923 81.2611 47.7684 81.0954C47.4313 81.0623 47.1147 80.996 47.0572 80.7682C46.975 80.5239 47.1147 80.1594 47.2751 79.7618C47.5875 78.9417 47.9123 78.0802 48.2536 77.1773C49.6103 73.4994 50.5929 70.476 50.4448 70.4221C50.2968 70.3683 49.0758 73.3048 47.7191 76.9868C47.3943 77.8939 47.0819 78.7595 46.7817 79.5837C46.6584 79.9689 46.4405 80.4079 46.6173 80.9132C46.7077 81.1658 46.9585 81.3481 47.1723 81.4061C47.3861 81.4723 47.5752 81.4723 47.7438 81.4806C49.0758 81.5469 49.9022 81.5469 49.9063 81.4723Z" fill="#E0E0E0"/>
<path d="M61.7014 92.564C61.7014 92.564 58.6549 99.1866 49.1045 98.35L49.084 96.0886C49.084 96.0886 55.3701 96.4489 61.7014 92.564Z" fill="#EBEBEB"/>
<path d="M54.3093 66.2305C54.4409 66.5909 55.7524 66.4128 57.2982 66.5909C58.8481 66.7358 60.0938 67.1831 60.2994 66.8601C60.3898 66.7068 60.1719 66.3672 59.6663 66.0193C59.1647 65.6755 58.3671 65.3483 57.438 65.2489C56.5088 65.1537 55.6619 65.3069 55.1028 65.5389C54.5354 65.7749 54.2518 66.0607 54.3093 66.2305Z" fill="#E0E0E0"/>
<path d="M41.8318 67.0716C42.0661 67.3698 42.9706 67.0551 44.06 67.0302C45.1495 66.9722 46.0745 67.2207 46.2842 66.9018C46.3747 66.7486 46.2308 66.4462 45.8238 66.1646C45.425 65.8829 44.759 65.6551 44.0107 65.6841C43.2625 65.7131 42.6129 65.9906 42.2388 66.3013C41.8564 66.6119 41.729 66.9267 41.8318 67.0716Z" fill="#E0E0E0"/>
<path d="M42.4938 58.581C43.0652 57.1314 44.6316 56.2492 46.1774 56.1581C47.7233 56.067 49.2403 56.6427 50.5847 57.413C56.2911 60.6726 59.2758 68.6331 64.9165 72.0086C66.3019 72.837 68.0944 72.0542 69.2744 73.1559C70.4584 74.2617 71.2354 76.0344 70.5982 77.5296C71.3423 76.4817 72.0988 75.4131 72.5181 74.1954C72.9375 72.9778 72.9786 71.5654 72.329 70.4513C71.8357 69.6064 70.9723 68.9685 70.7297 68.0201C70.516 67.1876 70.8366 66.3095 70.7914 65.4522C70.7462 64.5783 70.331 63.7665 69.8993 63.0086C67.6669 59.1112 64.6163 55.5948 60.7024 53.4245C58.1453 52.008 55.2304 51.188 52.3155 51.3164C49.4007 51.4406 46.4981 52.5465 44.3808 54.5677C43.1392 55.7563 41.8278 56.9906 42.4938 58.581Z" fill="#E0E0E0"/>
<path d="M69.1467 74.3484C69.2454 74.0709 74.2035 72.2237 74.3145 77.5458C74.4214 82.7189 69.229 81.7456 69.2207 81.5965C69.2084 81.4515 69.1467 74.3484 69.1467 74.3484Z" fill="#F5F5F5"/>
<path d="M70.7709 79.6128C70.7914 79.5962 70.8613 79.6749 71.0134 79.7412C71.1614 79.8075 71.4163 79.8489 71.6836 79.7453C72.2221 79.5341 72.6662 78.6602 72.6744 77.7242C72.6785 77.252 72.5716 76.8047 72.403 76.4402C72.2386 76.0633 71.9919 75.8024 71.7165 75.761C71.4451 75.703 71.2519 75.8687 71.1943 76.0178C71.1286 76.1627 71.1614 76.2663 71.1368 76.2746C71.1244 76.287 71.0258 76.1917 71.0628 75.9764C71.0833 75.8728 71.1409 75.7485 71.2601 75.6491C71.3835 75.5456 71.5602 75.4918 71.7535 75.5083C72.1481 75.529 72.514 75.8894 72.7032 76.2953C72.9128 76.7012 73.0444 77.2023 73.0403 77.7325C73.0238 78.7762 72.514 79.7619 71.774 79.9897C71.4163 80.0933 71.1121 79.9856 70.9518 79.8696C70.7832 79.7371 70.7544 79.6211 70.7709 79.6128Z" fill="#E0E0E0"/>
<path d="M69.891 73.1474C69.9814 74.5598 70.0595 76.0508 69.4223 77.314C68.7851 78.5773 67.157 79.4429 65.9319 78.7512C64.9328 78.1879 64.6245 76.904 64.4436 75.765C63.9297 72.4723 63.6789 69.1423 63.1362 65.8579L69.891 73.1474Z" fill="#E0E0E0"/>
<path d="M53.1623 83.9616C53.6639 84.6118 53.8243 85.5106 53.5817 86.2934C53.3391 87.0762 52.7019 87.7264 51.9249 87.9749C51.6165 88.0743 51.2712 88.1116 50.9669 87.9998C50.4284 87.801 50.157 87.2087 49.9391 86.6744C49.7582 86.2312 49.5774 85.7839 49.3965 85.3408C49.3348 85.1917 49.2731 85.0218 49.343 84.8727C49.417 84.7153 49.6061 84.6574 49.7706 84.6159C50.8683 84.3385 51.966 84.0651 53.0596 83.7876" fill="#EBEBEB"/>
<path d="M51.0369 87.8343C51.041 87.8674 51.6207 87.9295 52.5334 87.6313C52.9774 87.4739 53.516 87.1467 53.8366 86.5462C54.0011 86.2604 54.0669 85.8587 54.0299 85.5149C54.0052 85.1628 53.9189 84.7984 53.7585 84.4546C53.6023 84.1233 53.3844 83.8292 53.1295 83.5972L53.0432 83.5186L52.9322 83.56C50.7573 84.3552 49.0512 84.7611 49.0717 84.8563C49.0882 84.9516 50.8437 84.699 53.0637 83.9286L52.8664 83.8872C53.0802 84.0901 53.2652 84.3428 53.3967 84.6285C53.6516 85.2208 53.7585 85.9084 53.5077 86.3805C53.2611 86.8817 52.8212 87.1923 52.4224 87.3704C51.6125 87.7142 51.0204 87.7639 51.0369 87.8343Z" fill="#E0E0E0"/>
<path d="M74.5203 103.337C74.0064 103.01 67.2228 101.647 67.2228 101.647L50.893 102.214L45.0509 103.349C45.0509 103.349 44.1177 121.643 44.2821 121.971C44.4466 122.298 52.0524 128.51 52.3772 128.838C52.6978 129.165 68.263 123.752 68.263 123.752L78.4013 105.064L74.5203 103.337Z" fill="#F5F5F5"/>
<path d="M72.3415 101.605C73.1596 101.597 82.2372 104.033 85.1767 107.938C89.214 113.306 96.0139 121.37 96.0139 121.37L78.8536 135.564L75.1042 157.557C75.1042 157.557 81.9001 176.613 82.9484 184.362C82.9484 184.362 26.7109 184.635 27.8579 184.362C27.8579 184.362 31.8047 153.792 31.0605 143.23C30.3164 132.669 30.8385 116.648 30.8385 116.648L37.9551 104.24L48.6402 102.653C48.6402 102.653 44.5207 110.556 53.0968 111.902C61.8948 113.277 72.3415 101.605 72.3415 101.605Z" fill="#EBEBEB"/>
<path d="M47.2916 102.84C47.2916 102.84 37.4452 104.19 34.1768 104.969C30.9083 105.747 18.1306 119.68 18.1306 119.68L31.3112 133.87L36.9683 121.925L47.2916 102.84Z" fill="#EBEBEB"/>
<path d="M31.1508 119.556C31.122 119.556 31.0768 120.007 31.0234 120.827C30.9699 121.647 30.9124 122.836 30.8548 124.302C30.7356 127.239 30.6287 131.298 30.5835 135.779C30.5382 140.264 30.5588 144.323 30.6122 147.264C30.641 148.734 30.6739 149.923 30.7068 150.743C30.7438 151.563 30.7767 152.019 30.8055 152.019C30.8342 152.019 30.8589 151.563 30.8754 150.743C30.8877 149.84 30.9 148.672 30.9206 147.264C30.9452 144.249 30.9822 140.227 31.0192 135.787C31.0768 131.347 31.1261 127.33 31.1631 124.31C31.1755 122.902 31.1837 121.734 31.1919 120.831C31.196 120.011 31.1837 119.556 31.1508 119.556Z" fill="#E0E0E0"/>
<path d="M0.789433 89.4203C0.789433 89.4203 -0.230153 86.9394 0.982661 86.227C2.19548 85.5105 9.9616 83.0627 10.8085 83.3692C11.6554 83.6757 11.9679 84.1023 12.1981 85.03C12.4242 85.9578 12.6586 86.5708 12.6586 86.5708C12.6586 86.5708 13.4109 85.8253 14.7635 86.5252C14.7635 86.5252 16.1737 87.2583 16.3792 87.8837C16.5848 88.505 16.2765 89.3582 16.0216 89.9877C15.7667 90.6214 14.2373 92.9656 14.2373 92.9656C14.2373 92.9656 14.2537 94.9247 12.9669 97.0039C11.6801 99.083 9.1558 99.6587 8.7529 101.158L9.32436 107.818L0.296085 113.008C0.296085 113.008 0.374198 104.683 0.505758 101.03C0.637317 97.3766 0.61265 93.7112 0.374198 92.5308C0.135747 91.3504 0.427644 89.6067 0.789433 89.4203Z" fill="#F5F5F5"/>
<path d="M5.43098 92.8704C5.41864 92.8621 5.49676 92.7627 5.58309 92.5473C5.66943 92.3444 5.73521 91.9633 5.50498 91.6196L5.46387 91.5574L5.52965 91.5284C5.85032 91.3959 6.22033 91.2427 6.63146 91.0687L6.78357 91.0066L6.73013 91.164C6.63557 91.4498 6.5369 91.7645 6.43001 92.0959L6.4259 92.1124L6.41356 92.129C6.18744 92.3775 5.96544 92.684 5.96955 93.0443C5.96955 93.4005 6.208 93.7609 6.55745 93.9182C6.73013 93.9969 6.93158 94.0259 7.12481 93.9886C7.30981 93.9472 7.5236 93.852 7.71682 93.7609C8.11561 93.5745 8.49796 93.326 8.85564 93.036C9.09409 92.8372 9.32432 92.6177 9.50521 92.3858L9.53399 92.3485L9.5751 92.3444C10.0849 92.274 10.57 92.0917 10.9071 91.7645C11.2525 91.4456 11.4252 90.9859 11.4375 90.5717L11.4416 90.4971L11.5074 90.4764C11.8239 90.377 12.1241 90.2362 12.3584 90.0498C12.4776 89.9587 12.5804 89.851 12.6503 89.7351C12.7038 89.6274 12.7284 89.4824 12.7366 89.3457C12.7613 88.7907 12.6873 88.2937 12.6339 87.892C12.5763 87.4861 12.5229 87.1672 12.4859 86.9518C12.4489 86.7323 12.4324 86.6163 12.4447 86.6163C12.453 86.6122 12.49 86.7281 12.5475 86.9394C12.601 87.1547 12.675 87.4695 12.749 87.8754C12.8189 88.2813 12.9093 88.7742 12.897 89.3582C12.8888 89.5031 12.8764 89.6605 12.7983 89.822C12.7161 89.9629 12.601 90.083 12.4694 90.1907C12.2104 90.3977 11.9021 90.551 11.5608 90.6628L11.6307 90.5676C11.6225 91.0521 11.4334 91.5492 11.051 91.9136C10.6728 92.2822 10.1425 92.481 9.60799 92.5597L9.67788 92.5183C9.47643 92.7751 9.2462 92.9946 8.99542 93.2059C8.62541 93.5123 8.22662 93.765 7.81138 93.9597C7.60171 94.0549 7.40848 94.146 7.16592 94.1999C6.93158 94.2454 6.6849 94.2082 6.47523 94.1088C6.05588 93.9141 5.78043 93.4834 5.78043 93.0526C5.77632 92.8372 5.85032 92.6343 5.94488 92.4603C6.04355 92.2905 6.16278 92.1456 6.28611 92.0172L6.26556 92.0503C6.38067 91.7231 6.48756 91.4125 6.58623 91.1267L6.6849 91.222C6.26967 91.3793 5.89555 91.5243 5.57076 91.6486L5.59543 91.5574C5.84621 91.9758 5.74343 92.3775 5.63654 92.5805C5.58309 92.6881 5.52965 92.7627 5.49264 92.8124C5.45564 92.8497 5.43509 92.8745 5.43098 92.8704Z" fill="#E0E0E0"/>
<path d="M2.68466 88.5629C2.68054 88.5463 2.82444 88.5008 3.08345 88.4304C3.34245 88.3558 3.72069 88.2606 4.18937 88.1405C4.67449 88.0203 5.22951 87.8878 5.83386 87.7387C6.14632 87.6642 6.4711 87.5896 6.80822 87.5109C7.14123 87.4364 7.50713 87.3328 7.90592 87.3784C8.31705 87.4156 8.65006 87.7221 8.81862 88.0411C8.99951 88.3641 9.08996 88.6954 9.1763 89.0061C9.34486 89.6315 9.42708 90.2113 9.48053 90.6959C9.53397 91.1805 9.55453 91.574 9.56686 91.8432C9.5792 92.1165 9.57509 92.2656 9.56275 92.2656C9.52986 92.2698 9.46819 91.6692 9.33252 90.7125C9.25852 90.2362 9.16396 89.6688 8.99129 89.0599C8.90084 88.7576 8.80629 88.4345 8.64184 88.1487C8.4815 87.863 8.22249 87.631 7.88126 87.5937C7.54414 87.5523 7.19879 87.6434 6.86167 87.718C6.52455 87.7925 6.19976 87.8671 5.88731 87.9334C5.27885 88.0659 4.72383 88.1819 4.23459 88.2896C3.7618 88.389 3.37945 88.4635 3.11634 88.5091C2.83677 88.5588 2.68877 88.5753 2.68466 88.5629Z" fill="#E0E0E0"/>
<path d="M4.03329 86.7611C4.02918 86.7487 4.17307 86.6907 4.4403 86.6037C4.70342 86.5167 5.08988 86.3966 5.57089 86.2599C6.0519 86.1233 6.62748 85.97 7.27294 85.8292C7.59773 85.7629 7.93485 85.6925 8.29664 85.6428C8.65432 85.5972 9.05311 85.5724 9.44367 85.7008C9.83424 85.8333 10.1426 86.115 10.3523 86.4215C10.566 86.7279 10.714 87.0593 10.8292 87.3741C11.0553 88.0036 11.2074 88.5876 11.3061 89.0805C11.4088 89.5733 11.4623 89.9792 11.487 90.2609C11.5116 90.5425 11.5157 90.6958 11.4993 90.6999C11.4664 90.704 11.3924 90.0869 11.1581 89.1177C11.0388 88.6332 10.8744 88.0616 10.6442 87.4486C10.529 87.1463 10.3851 86.8315 10.1837 86.5499C9.98225 86.2682 9.7109 86.028 9.37789 85.912C9.04077 85.8002 8.67487 85.8126 8.32542 85.8582C7.97596 85.9037 7.63473 85.97 7.31405 86.0321C6.66859 86.1605 6.09302 86.2972 5.612 86.4132C5.16388 86.5209 4.78153 86.6161 4.46497 86.6907C4.18952 86.7487 4.0374 86.7735 4.03329 86.7611Z" fill="#E0E0E0"/>
<path d="M0.78524 87.7347C0.744128 87.6974 1.12647 87.2873 1.7596 87.0596C2.38862 86.8235 2.94364 86.8856 2.93953 86.9394C2.93953 87.0016 2.42151 87.0388 1.83361 87.2625C1.24159 87.4737 0.822241 87.7844 0.78524 87.7347Z" fill="#E0E0E0"/>
<path d="M8.29663 84.5247C8.29663 84.5081 8.40763 84.4833 8.6132 84.4543C8.81876 84.4253 9.12299 84.3839 9.50122 84.3963C9.87535 84.4087 10.3481 84.475 10.7963 84.7442C11.0183 84.8768 11.2279 85.0673 11.3801 85.3116C11.5363 85.5519 11.635 85.8294 11.709 86.111C11.9885 87.2334 12.1447 88.2564 12.2311 89.0061C12.3174 89.7557 12.3298 90.2196 12.301 90.2238C12.2681 90.2279 12.2023 89.7682 12.0831 89.0309C11.9597 88.2937 11.7788 87.2707 11.5034 86.169C11.3677 85.6223 11.1046 85.1584 10.6935 84.9182C10.2947 84.6655 9.8589 84.5827 9.49711 84.5537C8.76531 84.504 8.29663 84.5661 8.29663 84.5247Z" fill="#E0E0E0"/>
<path d="M4.21407 85.6099C4.19763 85.552 4.63342 85.3863 5.18432 85.2413C5.73523 85.0964 6.19569 85.0218 6.21213 85.0798C6.22858 85.1378 5.79279 85.3034 5.24188 85.4484C4.68687 85.5934 4.22641 85.6679 4.21407 85.6099Z" fill="#E0E0E0"/>
<path d="M11.4951 91.0355C11.4992 90.9816 12.1694 91.0686 12.819 91.5573C13.4726 92.0419 13.7481 92.6632 13.6946 92.6839C13.6412 92.717 13.3 92.1827 12.6874 91.7313C12.083 91.2715 11.4746 91.0976 11.4951 91.0355Z" fill="#E0E0E0"/>
<path d="M12.7285 89.7684C12.7614 89.7021 13.2506 90.0417 13.9249 90.0169C14.5909 89.9837 15.1171 89.7187 15.1459 89.7891C15.1706 89.8222 14.6813 90.1908 13.9331 90.2322C13.5631 90.2447 13.2342 90.1287 13.0286 90.0127C12.8148 89.9009 12.7121 89.7932 12.7285 89.7684Z" fill="#E0E0E0"/>
<path d="M4.06619 93.5951C4.06619 93.5827 4.18952 93.562 4.41153 93.562C4.63354 93.5578 4.95833 93.5827 5.353 93.6614C6.13414 93.8146 7.20717 94.2536 8.08286 95.14C8.95856 96.0263 9.39024 97.1073 9.53824 97.8984C9.61635 98.296 9.63691 98.6232 9.6328 98.8468C9.62869 99.0705 9.61224 99.1948 9.5958 99.1948C9.55469 99.1948 9.57524 98.6977 9.39024 97.9315C9.20934 97.1736 8.76944 96.1423 7.93075 95.2932C7.09206 94.4442 6.07247 93.9968 5.32011 93.8105C4.55954 93.6158 4.06208 93.6324 4.06619 93.5951Z" fill="#E0E0E0"/>
<path d="M2.76274 102.136C2.77096 102.065 3.955 102.285 5.37748 102.007C6.80408 101.742 7.82778 101.104 7.86067 101.166C7.873 101.187 7.63866 101.378 7.20698 101.605C6.77942 101.833 6.14629 102.082 5.4186 102.222C4.6868 102.359 4.00844 102.359 3.52743 102.305C3.04641 102.247 2.75863 102.16 2.76274 102.136Z" fill="#E0E0E0"/>
<path d="M5.75171 184.487C5.75171 184.429 65.4386 184.379 139.046 184.379C212.678 184.379 272.353 184.429 272.353 184.487C272.353 184.545 212.682 184.594 139.046 184.594C65.4386 184.594 5.75171 184.545 5.75171 184.487Z" fill="#263238"/>
<path d="M34.9497 8.87593L35.7884 10.5865C35.8336 10.6776 35.9199 10.7397 36.0186 10.7563L37.8933 11.0296C38.1441 11.0669 38.2428 11.3775 38.0619 11.5515L36.7052 12.8851C36.6353 12.9556 36.6024 13.0591 36.6188 13.1585L36.9395 15.0389C36.9806 15.2915 36.7216 15.482 36.4955 15.3619L34.8181 14.4714C34.7277 14.4259 34.6249 14.4259 34.5344 14.4714L32.857 15.3619C32.635 15.482 32.3719 15.2874 32.413 15.0389L32.7337 13.1585C32.7502 13.0591 32.7173 12.9556 32.6474 12.8851L31.2907 11.5515C31.1098 11.3734 31.2084 11.0628 31.4592 11.0296L33.3339 10.7563C33.4326 10.7397 33.519 10.6776 33.5642 10.5865L34.4029 8.87593C34.5139 8.64813 34.8387 8.64813 34.9497 8.87593Z" fill="#FF725E"/>
<path d="M13.6452 32.2269L13.4355 33.2914C13.4232 33.3494 13.4396 33.4074 13.4807 33.4488L14.2331 34.2274C14.3318 34.331 14.2701 34.5049 14.1303 34.5215L13.0614 34.6499C13.0038 34.6582 12.9545 34.6913 12.9298 34.741L12.4283 35.7019C12.3625 35.8303 12.1775 35.8261 12.1158 35.6936L11.6636 34.7079C11.6389 34.654 11.5937 34.6167 11.5361 34.6085L10.4754 34.4221C10.3356 34.3972 10.2822 34.2191 10.3891 34.1239L11.1826 33.3866C11.2237 33.3494 11.2442 33.2914 11.236 33.2334L11.0839 32.1607C11.0633 32.0157 11.2154 31.9122 11.3388 31.9826L12.2803 32.5127C12.3296 32.5417 12.3913 32.5417 12.4406 32.5169L13.4067 32.0364C13.526 31.9702 13.674 32.0861 13.6452 32.2269Z" fill="#FF725E"/>
<path d="M140.588 4.98671L140.378 6.05115C140.366 6.10913 140.382 6.16712 140.423 6.20853L141.176 6.98719C141.274 7.09073 141.213 7.26468 141.073 7.28125L140.004 7.40964C139.946 7.41793 139.897 7.45106 139.872 7.50076L139.371 8.46165C139.305 8.59005 139.12 8.5859 139.058 8.45337L138.606 7.46763C138.582 7.41379 138.536 7.37651 138.479 7.36823L137.418 7.18185C137.278 7.157 137.225 6.9789 137.332 6.88364L138.125 6.14641C138.166 6.10913 138.187 6.05115 138.179 5.99316L138.027 4.92045C138.006 4.77548 138.158 4.67194 138.281 4.74235L139.223 5.2725C139.272 5.30149 139.334 5.30149 139.383 5.27664L140.349 4.79619C140.469 4.72993 140.617 4.84175 140.588 4.98671Z" fill="#FF725E"/>
<path d="M253.959 41.952L253.749 43.0165C253.737 43.0745 253.754 43.1324 253.795 43.1739L254.547 43.9525C254.646 44.0561 254.584 44.23 254.444 44.2466L253.375 44.375C253.318 44.3833 253.268 44.4164 253.244 44.4661L252.742 45.427C252.676 45.5554 252.491 45.5512 252.43 45.4187L251.978 44.433C251.953 44.3791 251.908 44.3418 251.85 44.3336L250.789 44.1472C250.65 44.1223 250.596 43.9442 250.703 43.849L251.497 43.1117C251.538 43.0745 251.558 43.0165 251.55 42.9585L251.398 41.8858C251.377 41.7408 251.529 41.6373 251.653 41.7077L252.594 42.2378C252.644 42.2668 252.705 42.2668 252.755 42.242L253.721 41.7615C253.844 41.6994 253.988 41.8112 253.959 41.952Z" fill="#FF725E"/>
<path d="M250.202 16.7699L249.585 17.064C249.552 17.0805 249.531 17.1095 249.523 17.1468L249.416 17.826C249.404 17.9172 249.293 17.9503 249.227 17.884L248.758 17.387C248.734 17.3622 248.697 17.3497 248.66 17.3539L247.986 17.4616C247.895 17.474 247.829 17.3787 247.87 17.3L248.195 16.6953C248.212 16.6622 248.212 16.6249 248.195 16.5918L247.887 15.9788C247.846 15.896 247.916 15.8049 248.006 15.8214L248.676 15.9457C248.713 15.954 248.746 15.9415 248.775 15.9167L249.256 15.4321C249.322 15.3658 249.429 15.4031 249.441 15.4942L249.531 16.1735C249.535 16.2107 249.56 16.2397 249.589 16.2563L250.197 16.5669C250.284 16.6125 250.284 16.7326 250.202 16.7699Z" fill="#FF725E"/>
<path d="M47.1395 37.4955L46.5228 37.7895C46.4899 37.8061 46.4694 37.8351 46.4611 37.8724L46.3542 38.5516C46.3419 38.6427 46.2309 38.6759 46.1651 38.6096L45.6964 38.1126C45.6718 38.0877 45.6348 38.0753 45.5978 38.0795L44.9235 38.1871C44.8331 38.1996 44.7673 38.1043 44.8084 38.0256L45.1332 37.4209C45.1497 37.3878 45.1497 37.3505 45.1332 37.3174L44.8249 36.7044C44.7838 36.6216 44.8536 36.5304 44.9441 36.547L45.6142 36.6713C45.6512 36.6795 45.6841 36.6671 45.7129 36.6423L46.1939 36.1577C46.2597 36.0914 46.3666 36.1287 46.3789 36.2198L46.4694 36.8991C46.4735 36.9363 46.4981 36.9653 46.5269 36.9819L47.1354 37.2925C47.2258 37.3381 47.2217 37.4582 47.1395 37.4955Z" fill="#FF725E"/>
<path d="M225.949 24.0924L225.633 25.6952C225.616 25.7781 225.641 25.8692 225.703 25.9313L226.833 27.1034C226.985 27.2608 226.891 27.5218 226.677 27.5466L225.065 27.7371C224.979 27.7454 224.905 27.7993 224.864 27.8738L224.108 29.3193C224.005 29.5098 223.729 29.5057 223.639 29.3069L222.96 27.8241C222.923 27.7454 222.854 27.6916 222.767 27.675L221.168 27.3975C220.954 27.3602 220.876 27.0951 221.036 26.946L222.229 25.8361C222.29 25.7781 222.323 25.6911 222.311 25.6041L222.081 23.9888C222.052 23.7735 222.278 23.6161 222.467 23.7238L223.881 24.5231C223.955 24.5645 224.046 24.5687 224.124 24.5314L225.579 23.8107C225.773 23.7113 225.99 23.877 225.949 24.0924Z" fill="#FF725E"/>
<path d="M35.1262 159.777C36.4295 159.839 37.6423 160.568 38.4892 161.566C39.3362 162.564 39.8459 163.811 40.1666 165.087C40.7874 167.551 40.3475 170.438 39.6239 172.873C37.001 171.887 35.4099 169.034 34.6946 167.534C33.5599 165.165 32.9432 160.191 35.1262 159.777Z" fill="#455A64"/>
<path d="M43.3817 175.896C42.5635 174.683 42.5676 173.01 43.2419 171.709C43.9161 170.409 45.1906 169.481 46.5884 169.071C47.2339 168.88 47.9821 168.806 48.5372 169.191C49.0552 169.551 49.2731 170.243 49.1991 170.872C49.1251 171.502 48.8003 172.073 48.4179 172.579C47.1106 174.31 45.5318 175.743 43.3817 175.896Z" fill="#455A64"/>
<path d="M43.5667 184.097C43.5544 184.097 43.5174 183.915 43.4557 183.588C43.39 183.223 43.3036 182.751 43.2008 182.184C43.0076 181.003 42.6993 179.33 42.9706 177.483C43.2337 175.644 43.982 174.082 44.7549 173.15C45.1372 172.678 45.499 172.347 45.7663 172.144C45.8978 172.036 46.0088 171.97 46.0828 171.92C46.1568 171.871 46.1979 171.85 46.202 171.854C46.2308 171.887 45.5812 172.281 44.8536 173.229C44.1176 174.161 43.4064 175.702 43.1474 177.508C42.8802 179.313 43.1597 180.974 43.3242 182.159C43.4105 182.755 43.4804 183.236 43.5215 183.571C43.5626 183.911 43.5791 184.097 43.5667 184.097Z" fill="#263238"/>
<path d="M35.9322 163.525C35.9363 163.521 35.9733 163.591 36.035 163.728C36.1049 163.881 36.1912 164.08 36.2981 164.324C36.5242 164.842 36.8408 165.596 37.2273 166.532C37.9961 168.4 39.028 170.997 40.0969 173.892C41.1699 176.787 42.0785 179.429 42.7116 181.347C43.0282 182.308 43.279 183.087 43.4434 183.629C43.5216 183.886 43.5832 184.093 43.6326 184.255C43.6737 184.4 43.6901 184.474 43.686 184.474C43.6819 184.474 43.649 184.404 43.5997 184.263C43.5421 184.105 43.4681 183.903 43.3818 183.65C43.1885 183.095 42.9213 182.329 42.5965 181.388C41.9346 179.479 41.0014 176.845 39.9324 173.954C38.8594 171.063 37.8522 168.462 37.1121 166.582C36.7503 165.658 36.4502 164.9 36.2364 164.353C36.1419 164.105 36.0638 163.902 36.0021 163.745C35.9487 163.6 35.924 163.525 35.9322 163.525Z" fill="#263238"/>
<path d="M40.5038 178.634C38.9827 175.946 36.1007 174.095 33.046 173.83C32.269 173.764 31.3275 173.884 30.9699 174.584C30.6122 175.284 31.0685 176.129 31.5907 176.713C33.7696 179.152 37.4944 180.043 40.5285 178.846" fill="#455A64"/>
<path d="M34.2053 175.947C34.2053 175.934 34.378 175.942 34.6946 175.971C34.8508 175.984 35.044 176 35.2619 176.046C35.4798 176.091 35.7347 176.116 36.0061 176.199C36.2774 176.27 36.5816 176.34 36.89 176.46C37.2065 176.559 37.5313 176.7 37.8767 176.854C38.5509 177.172 39.2663 177.591 39.9487 178.125C40.623 178.668 41.1903 179.276 41.6508 179.869C41.8728 180.171 42.0825 180.461 42.2469 180.751C42.4278 181.033 42.5635 181.314 42.6868 181.567C42.8225 181.815 42.9006 182.064 42.9869 182.271C43.0774 182.478 43.1308 182.664 43.1719 182.818C43.2624 183.12 43.3035 183.29 43.2912 183.294C43.2501 183.306 43.0733 182.627 42.5676 181.625C42.436 181.376 42.2963 181.103 42.1112 180.83C41.9427 180.544 41.733 180.266 41.511 179.972C41.0505 179.397 40.4914 178.804 39.8254 178.27C39.1594 177.744 38.4564 177.33 37.7986 177.007C37.4656 176.854 37.1449 176.709 36.8324 176.605C36.5282 176.485 36.2322 176.406 35.965 176.328C34.896 176.033 34.2012 175.988 34.2053 175.947Z" fill="#263238"/>
<path d="M221.287 152.603C222.632 153.519 223.458 155.088 223.717 156.704C223.976 158.319 223.717 159.984 223.24 161.545C222.319 164.573 219.992 167.364 217.653 169.485C215.49 166.722 215.634 162.647 215.832 160.584C216.152 157.317 218.693 151.617 221.287 152.603Z" fill="#455A64"/>
<path d="M219.708 175.155C219.618 173.328 220.699 171.548 222.253 170.603C223.807 169.659 225.764 169.506 227.516 169.978C228.326 170.197 229.168 170.607 229.514 171.378C229.834 172.098 229.621 172.981 229.135 173.602C228.65 174.223 227.935 174.621 227.207 174.911C224.704 175.901 222.101 176.398 219.708 175.155Z" fill="#455A64"/>
<path d="M214.631 184.014C214.615 184.006 214.693 183.791 214.841 183.397C215.005 182.966 215.219 182.407 215.474 181.74C216.025 180.357 216.777 178.373 218.253 176.584C219.717 174.799 221.517 173.623 222.94 173.138C223.647 172.885 224.247 172.769 224.667 172.728C224.872 172.699 225.037 172.703 225.148 172.699C225.259 172.695 225.316 172.699 225.316 172.707C225.324 172.761 224.379 172.753 222.997 173.291C221.616 173.805 219.869 174.977 218.43 176.733C216.983 178.481 216.214 180.436 215.622 181.802C215.33 182.494 215.096 183.053 214.923 183.434C214.75 183.811 214.643 184.018 214.631 184.014Z" fill="#263238"/>
<path d="M219.733 157.114C219.741 157.114 219.733 157.213 219.712 157.395C219.688 157.602 219.651 157.872 219.61 158.203C219.519 158.903 219.371 159.914 219.182 161.16C218.8 163.654 218.228 167.091 217.509 170.873C216.789 174.654 216.062 178.063 215.498 180.523C215.219 181.753 214.985 182.747 214.812 183.431C214.73 183.754 214.664 184.015 214.61 184.217C214.561 184.396 214.532 184.491 214.524 184.487C214.516 184.487 214.532 184.387 214.565 184.205C214.606 183.998 214.66 183.737 214.726 183.41C214.878 182.693 215.087 181.699 215.342 180.49C215.864 178.021 216.567 174.613 217.287 170.831C218.006 167.054 218.607 163.62 219.026 161.135C219.231 159.914 219.404 158.915 219.527 158.191C219.585 157.863 219.634 157.598 219.671 157.391C219.7 157.209 219.725 157.114 219.733 157.114Z" fill="#263238"/>
<path d="M214.886 176.195C214.993 172.343 213.118 168.487 210.031 166.209C209.245 165.629 208.168 165.144 207.338 165.658C206.507 166.172 206.45 167.364 206.631 168.334C207.383 172.355 210.779 175.735 214.779 176.439" fill="#455A64"/>
<path d="M209.903 169.22C209.911 169.208 210.092 169.332 210.409 169.564C210.569 169.68 210.762 169.825 210.968 170.015C211.174 170.206 211.428 170.4 211.663 170.661C211.909 170.914 212.181 171.187 212.44 171.515C212.715 171.829 212.97 172.19 213.237 172.575C213.751 173.358 214.245 174.265 214.623 175.284C214.993 176.302 215.207 177.317 215.318 178.249C215.359 178.717 215.4 179.16 215.383 179.579C215.396 179.997 215.359 180.382 215.33 180.734C215.314 181.09 215.24 181.401 215.198 181.678C215.161 181.956 215.1 182.192 215.046 182.383C214.948 182.764 214.882 182.975 214.87 182.971C214.82 182.958 215.067 182.118 215.17 180.722C215.19 180.374 215.219 179.989 215.194 179.579C215.198 179.169 215.153 178.73 215.108 178.27C214.989 177.355 214.771 176.36 214.409 175.358C214.039 174.36 213.558 173.461 213.061 172.687C212.802 172.306 212.555 171.941 212.292 171.631C212.045 171.303 211.782 171.026 211.548 170.769C210.586 169.767 209.874 169.262 209.903 169.22Z" fill="#263238"/>
<path d="M94.2252 46.1476L88.5352 45.4766C86.2412 47.825 83.2975 49.5811 79.8893 50.4219C70.0922 52.8489 60.1965 46.8144 57.7873 36.9404C55.3781 27.0706 61.3682 17.1014 71.1694 14.6743C80.9665 12.2473 90.8622 18.2818 93.2714 28.1558C94.2786 32.2768 93.8141 36.4144 92.223 40.0136L92.2312 40.0053L94.2252 46.1476Z" fill="white"/>
<path d="M94.2253 46.1476C94.2253 46.1476 94.176 46.0067 94.0855 45.7417C93.9951 45.4683 93.8635 45.079 93.6909 44.5654C93.3455 43.53 92.8357 42.0058 92.1779 40.026L92.2766 40.0426L92.2684 40.0509C92.2478 40.0757 92.2149 40.0799 92.1903 40.0592C92.1697 40.0426 92.1656 40.0136 92.1738 39.9888C93.1276 37.7895 93.9622 34.6997 93.6539 31.0467C93.5757 30.1355 93.4318 29.1995 93.1975 28.2469C92.9179 27.3067 92.663 26.3251 92.2273 25.3725C91.4132 23.4549 90.221 21.5579 88.6176 19.8847C87.0224 18.2155 85.0203 16.7742 82.7139 15.776C80.4157 14.7779 77.8174 14.2229 75.1368 14.2809C69.784 14.343 64.1393 17.1138 60.7516 21.9804C59.0373 24.453 57.8943 27.2901 57.5572 30.1769C57.1872 33.0555 57.512 35.9423 58.3959 38.5474C59.2716 41.1609 60.7557 43.4513 62.5277 45.2902C64.3079 47.1333 66.3964 48.5167 68.5507 49.4237C70.7049 50.3349 72.925 50.7739 75.0135 50.8402C75.2766 50.8443 75.5356 50.8485 75.7946 50.8485C76.0537 50.8567 76.3085 50.8567 76.5593 50.8236C77.065 50.7781 77.5625 50.7366 78.0517 50.6911C79.0137 50.4964 79.9511 50.3597 80.8186 50.0781C84.3213 49.0178 86.8539 47.1085 88.4943 45.4393C88.5066 45.4269 88.523 45.4228 88.5395 45.4228C90.3731 45.6547 91.7874 45.8328 92.7494 45.9529C93.2263 46.015 93.5881 46.0606 93.843 46.0937C94.0938 46.1269 94.2253 46.1476 94.2253 46.1476C94.2253 46.1476 94.1102 46.1393 93.8676 46.1144C93.6169 46.0896 93.2551 46.0482 92.7864 45.9985C91.812 45.8908 90.3813 45.7334 88.5271 45.5304L88.5724 45.5139C86.9361 47.2079 84.3953 49.1503 80.8679 50.2396C79.9922 50.5295 79.0466 50.6704 78.0764 50.8692C77.583 50.9147 77.0815 50.9603 76.5717 51.01C76.3168 51.0431 76.0578 51.0431 75.7988 51.039C75.5397 51.0348 75.2766 51.0348 75.0094 51.0307C72.8962 50.9727 70.6515 50.5378 68.4684 49.6225C66.2854 48.7113 64.1681 47.3155 62.3632 45.4517C60.5625 43.5921 59.0537 41.2727 58.1657 38.6303C57.2653 35.992 56.9323 33.0679 57.3064 30.148C57.6477 27.2197 58.8029 24.3453 60.542 21.8354C60.7393 21.5165 60.9819 21.2307 61.2162 20.945L61.9233 20.0835L62.7045 19.2965C62.9594 19.0315 63.2184 18.7705 63.5103 18.5469C63.7939 18.3108 64.0735 18.0789 64.3531 17.8469C64.6285 17.6067 64.9492 17.4286 65.2411 17.2174C65.5453 17.0186 65.8331 16.7991 66.1456 16.621C66.4621 16.4512 66.7787 16.2772 67.0953 16.1074C69.636 14.7779 72.4193 14.0821 75.1368 14.0406C77.8544 13.9868 80.4856 14.5501 82.8125 15.569C85.1436 16.5837 87.1663 18.0457 88.7779 19.7438C90.3936 21.4378 91.5941 23.3637 92.4123 25.3062C92.8522 26.2671 93.1071 27.2611 93.3825 28.2137C93.6127 29.1746 93.7566 30.1272 93.8306 31.0426C94.1266 34.737 93.2633 37.8433 92.2848 40.0468L92.1903 39.9888L92.1985 39.9805C92.219 39.9556 92.2519 39.9515 92.2766 39.9722C92.2848 39.9805 92.293 39.9888 92.2971 40.0012C92.9344 42.0058 93.4236 43.5507 93.7566 44.6027C93.917 45.1121 94.0403 45.5015 94.1225 45.7707C94.1883 46.0233 94.2253 46.1476 94.2253 46.1476Z" fill="#263238"/>
<path d="M66.8608 33.2543L69.1097 30.8273L73.7389 34.6957L82.2697 25.8447L84.5145 28.1186L73.5621 39.235L66.8608 33.2543Z" fill="#FF725E"/>
<path d="M133.817 94.838C133.817 94.8959 132.74 94.9249 131.42 94.9001C130.096 94.8752 129.023 94.8048 129.023 94.7468C129.023 94.6889 130.096 94.6599 131.424 94.6847C132.744 94.7096 133.817 94.78 133.817 94.838Z" fill="#263238"/>
<path d="M57.7551 92.9666C57.7551 92.9666 59.3462 102.07 60.855 104C62.3638 105.934 63.3423 111.957 63.3423 111.957L75.6883 107.479L74.862 102.911L75.6143 91.3844C75.6143 91.3844 71.3921 84.2813 71.5524 84.5257C71.7128 84.7701 57.7551 92.9666 57.7551 92.9666Z" fill="#FFBF9D"/>
<path d="M63.3337 111.973V111.96C63.3255 111.898 62.3388 105.917 60.8506 104.008C60.0694 103.006 59.2677 100.057 58.7333 97.7623C58.1536 95.2731 57.7507 92.991 57.7466 92.9703V92.962L57.7548 92.9579C57.7877 92.9372 61.2494 90.9036 64.6617 88.8575C70.6271 85.2832 71.5398 84.6123 71.5439 84.5336V84.5294C71.5398 84.517 71.5398 84.517 71.5439 84.5128C71.5521 84.5087 71.5562 84.517 71.5603 84.5211C71.5603 84.5253 71.5644 84.5253 71.5644 84.5294C71.7453 84.8649 75.5811 91.3136 75.6222 91.3799V91.384V91.3882L74.8699 102.915L75.7003 107.491L75.6921 107.495L63.3337 111.973ZM57.7671 92.9703C57.8206 93.2685 59.3911 102.107 60.867 103.996C61.6481 104.998 62.2813 107.106 62.6801 108.705C63.0871 110.349 63.3296 111.799 63.3543 111.948L75.6798 107.479L74.8534 102.919L75.6058 91.3923C75.5606 91.3136 74.5574 89.6279 73.5707 87.9629C72.9787 86.9689 72.51 86.1737 72.1729 85.6021C71.9715 85.2625 71.8193 85.0016 71.7124 84.8235C71.622 84.6702 71.5768 84.5915 71.5562 84.5543C71.1533 85.101 58.4003 92.5976 57.7671 92.9703Z" fill="#FF9A6C"/>
<path d="M98.4149 89.1226C98.4149 89.1226 92.0384 91.094 91.0517 97.8575C90.5953 100.985 85.9414 129.832 85.9414 129.832L78.7303 109.206L59.7939 116.28C59.7939 116.28 66.6885 137.652 67.1161 138.907C70.6599 149.327 73.6077 164.01 89.7155 162.37C106.473 160.667 103.324 127.869 103.324 127.869L98.4149 89.1226Z" fill="#455A64"/>
<path d="M163.76 6.45366L49.7241 105.16L50.6967 106.301L164.732 7.59404L163.76 6.45366Z" fill="#E0E0E0"/>
<path d="M50.6957 106.303C50.6957 106.294 50.7451 106.245 50.8437 106.154C50.9424 106.062 51.0904 105.926 51.2836 105.752C51.6742 105.404 52.2539 104.89 53.0104 104.215C54.5274 102.882 56.7639 100.918 59.6418 98.3918C65.3934 93.372 73.7145 86.1074 84.005 77.1239C104.573 59.1984 132.962 34.5093 164.441 7.26485L164.396 7.89025C164.092 7.53406 163.759 7.14473 163.43 6.75541L163.426 6.75127L164.047 6.79683C104.277 58.5316 55.0454 100.914 49.7543 105.197L49.7584 105.135C50.1489 105.611 50.3833 105.897 50.519 106.067C50.6587 106.24 50.6998 106.294 50.6957 106.303C50.6957 106.311 50.6546 106.269 50.5107 106.112C50.3627 105.946 50.1119 105.665 49.6926 105.193L49.6638 105.159L49.6967 105.13C54.696 100.508 103.706 57.8564 163.471 6.12586L163.804 5.83594L164.092 6.17142L164.096 6.17556C164.429 6.56489 164.758 6.95007 165.062 7.3104L165.35 7.64589L165.017 7.93581C133.406 35.3004 104.775 59.9646 84.0995 77.7369C73.768 86.6044 65.414 93.7738 59.6377 98.7315C56.7557 101.188 54.5192 103.097 53.0021 104.389C52.2457 105.027 51.6701 105.512 51.2795 105.839C50.8931 106.162 50.6957 106.319 50.6957 106.303Z" fill="#263238"/>
<path d="M71.2068 77.7367C71.326 77.8112 72.9911 79.4721 74.5945 80.756C76.1978 82.0358 76.6953 82.1352 77.1393 84.0818C77.5833 86.0326 78.311 92.324 78.126 93.728C77.941 95.1362 73.1679 104.265 73.1679 104.265C73.1679 104.265 68.6208 105.938 68.3084 99.8578C67.9959 93.7736 73.2254 89.9342 73.2254 89.9342L72.5265 85.254C72.5265 85.254 69.994 82.8186 69.7062 80.8637C69.4225 78.9129 70.2982 77.1775 71.2068 77.7367Z" fill="#FFBF9D"/>
<path d="M61.1055 89.6937C59.1197 88.6831 58.2235 89.789 57.8781 90.4351C57.5328 91.0812 57.4999 91.8971 57.6849 92.5929C57.8658 93.2888 58.244 93.881 58.6593 94.4029C59.2348 95.1236 59.9584 95.7572 60.8136 95.8194C61.6687 95.8774 62.7047 94.8005 62.8116 93.7733" fill="#FFBF9D"/>
<path d="M62.8157 93.7692C62.8239 93.7692 62.8239 93.8189 62.8157 93.9101C62.8075 94.0012 62.7828 94.1379 62.7211 94.3077C62.606 94.639 62.3511 95.1153 61.8496 95.5171C61.5947 95.7034 61.274 95.9023 60.8711 95.9023C60.4846 95.8981 60.0858 95.7573 59.7282 95.5336C59.3664 95.3058 59.0416 94.9993 58.7456 94.6556C58.4496 94.3118 58.1659 93.9308 57.9357 93.5C57.4711 92.6427 57.3519 91.6362 57.6191 90.8162C57.8863 90.0002 58.5153 89.3997 59.1567 89.2672C59.7981 89.1263 60.312 89.3127 60.6326 89.437C60.7971 89.495 60.9163 89.5695 60.9944 89.6109C61.0766 89.6565 61.1136 89.6813 61.1136 89.6896C61.1054 89.7062 60.9286 89.6233 60.6039 89.5157C60.2832 89.4163 59.7775 89.2672 59.1937 89.4163C58.614 89.5529 58.0467 90.1162 57.8082 90.8742C57.5698 91.6404 57.6849 92.5764 58.1248 93.3965C58.3427 93.8065 58.6181 94.1793 58.9018 94.5148C59.1896 94.8502 59.4979 95.1443 59.8309 95.3597C60.164 95.5751 60.5299 95.7076 60.8711 95.72C61.2082 95.7324 61.5166 95.5626 61.7591 95.3928C62.2442 95.0283 62.5115 94.5852 62.6471 94.2745C62.7746 93.9639 62.7951 93.7692 62.8157 93.7692Z" fill="#FF9A6C"/>
<path d="M63.7037 85.7307C63.1569 85.5443 62.5896 85.3952 62.014 85.478C61.4384 85.5609 60.8464 85.9212 60.5545 86.5342C60.3037 87.056 60.2996 87.6773 60.3448 88.253C60.5545 90.9286 61.7755 93.3847 63.5886 94.855C64.1066 95.2733 64.8096 95.3106 65.3688 94.8964C65.7306 94.6272 66.0841 94.2461 66.3637 92.6391" fill="#FFBF9D"/>
<path d="M66.3636 92.6431C66.3718 92.6431 66.3677 92.7052 66.3513 92.8212C66.3389 92.9372 66.3101 93.107 66.2649 93.3223C66.2197 93.5377 66.158 93.8028 66.0388 94.101C65.9278 94.3909 65.7346 94.7388 65.3975 94.9708C65.0727 95.2151 64.5916 95.3559 64.1147 95.2275C63.8804 95.1654 63.6461 95.0412 63.457 94.8714C63.2637 94.714 63.0746 94.54 62.8896 94.3578C62.1496 93.6123 61.4918 92.6389 61.0231 91.5207C60.5462 90.4024 60.316 89.2551 60.2379 88.2073C60.2009 87.6854 60.2214 87.1635 60.3859 86.7079C60.5462 86.2482 60.871 85.9003 61.2204 85.6932C61.5699 85.482 61.9399 85.4033 62.2565 85.3992C62.5771 85.395 62.8444 85.4489 63.0582 85.5027C63.2719 85.5565 63.4323 85.6145 63.5392 85.6559C63.6461 85.6974 63.7036 85.7264 63.6995 85.7305C63.6954 85.7471 63.4611 85.6684 63.0376 85.5814C62.6265 85.5027 61.9481 85.4033 61.2944 85.8175C60.9779 86.0204 60.6901 86.3393 60.5503 86.7618C60.4064 87.1842 60.3941 87.6771 60.4311 88.1866C60.5174 89.2137 60.7476 90.3361 61.2163 91.4296C61.6768 92.523 62.314 93.4756 63.0294 94.2128C63.2103 94.3951 63.3912 94.5649 63.5762 94.7222C63.753 94.8838 63.9503 94.9915 64.16 95.0495C64.5793 95.1696 65.0069 95.0577 65.307 94.8424C65.6236 94.6311 65.8045 94.3288 65.9278 94.0513C66.0511 93.7696 66.1251 93.5129 66.1827 93.3016C66.2978 92.8792 66.3471 92.6389 66.3636 92.6431Z" fill="#FF9A6C"/>
<path d="M67.3094 83.7008C66.7132 83.1458 65.9362 82.8103 65.1592 82.9718C64.3863 83.1333 63.6463 83.8706 63.5106 84.7983C63.4284 85.3492 63.5558 85.8917 63.6915 86.4095C64.1931 88.3147 64.855 90.1453 65.669 91.8683C65.8704 92.2908 66.0883 92.7256 66.4337 92.9824C66.9846 93.4008 67.7657 93.2641 68.3413 92.8043C68.9169 92.3446 69.3074 91.6778 69.5459 90.3234" fill="#FFBF9D"/>
<path d="M69.5417 90.3233C69.5499 90.3233 69.5458 90.3896 69.5293 90.5139C69.5129 90.6381 69.48 90.8203 69.4266 91.0523C69.369 91.2842 69.2909 91.5659 69.147 91.8765C69.0031 92.1871 68.7852 92.5226 68.4563 92.8084C68.1315 93.09 67.6793 93.3344 67.1489 93.322C66.8858 93.3178 66.6145 93.2308 66.3843 93.0652C66.154 92.8954 65.9814 92.6634 65.8375 92.4149C65.3071 91.4126 64.8343 90.2778 64.3985 89.056C64.1806 88.4471 63.9915 87.8424 63.8188 87.2543C63.6585 86.6662 63.4817 86.1029 63.4118 85.5313C63.3378 84.9598 63.4529 84.3799 63.7284 83.945C63.9997 83.506 64.3821 83.1871 64.785 83.0173C65.192 82.8433 65.6031 82.8433 65.9361 82.9096C66.2733 82.9758 66.5405 83.1084 66.746 83.2326C66.9475 83.3569 67.0914 83.477 67.1818 83.564C67.2723 83.651 67.3134 83.7007 67.3093 83.7048C67.2969 83.7214 67.1078 83.5308 66.7008 83.3072C66.4953 83.1995 66.2321 83.0835 65.9115 83.0297C65.5949 82.9759 65.2084 82.9924 64.8425 83.1581C64.4766 83.3238 64.119 83.6261 63.8764 84.0403C63.6297 84.4503 63.5269 84.9722 63.6051 85.5148C63.675 86.0532 63.8558 86.6206 64.0162 87.2004C64.1889 87.7844 64.378 88.3809 64.5959 88.9855C65.0275 90.1949 65.5003 91.3381 66.006 92.3155C66.1417 92.5516 66.2979 92.7628 66.4911 92.9119C66.6885 93.0569 66.9187 93.1356 67.1531 93.1439C67.6217 93.1646 68.0493 92.9534 68.3576 92.6924C68.9949 92.1623 69.2087 91.4706 69.3485 91.0316C69.4759 90.5801 69.5252 90.3192 69.5417 90.3233Z" fill="#FF9A6C"/>
<path d="M71.7328 84.2351C72.0823 85.196 72.3824 86.1983 72.4811 87.2338C72.5756 88.2692 72.4153 89.3709 71.8521 90.1289C71.2929 90.8909 70.2775 91.1974 69.5292 90.659C69.0646 90.3235 68.7645 89.7354 68.5178 89.1514C68.0615 88.0538 67.7367 86.8941 67.4366 85.7262C67.2845 85.1339 67.1324 84.5292 67.1159 83.9162C67.0995 83.3032 67.157 82.7234 67.3749 82.185C67.5969 81.6341 68.7604 80.6939 69.8334 81.4726C69.8334 81.4684 71.0298 82.2885 71.7328 84.2351Z" fill="#FFBF9D"/>
<path d="M71.7329 84.2352C71.7124 84.2434 71.6014 83.9204 71.3136 83.3861C71.1697 83.121 70.9765 82.8021 70.7133 82.4625C70.4502 82.1311 70.1254 81.7418 69.6814 81.4643C69.2415 81.1785 68.6043 81.1868 68.0904 81.5347C67.8396 81.7004 67.5888 81.9323 67.4614 82.2098C67.338 82.5163 67.264 82.8559 67.2311 83.208C67.1612 83.9162 67.2599 84.6618 67.4614 85.4156C67.6546 86.1735 67.8643 86.9604 68.1192 87.7515C68.3823 88.5343 68.6454 89.313 69.0442 89.9673C69.2456 90.2863 69.5046 90.5679 69.8253 90.7087C70.146 90.8537 70.5078 90.862 70.8326 90.7543C71.4986 90.5513 71.9303 89.9715 72.1482 89.3916C72.3743 88.8077 72.4318 88.2071 72.4318 87.6687C72.4072 86.5877 72.1605 85.7262 72.0002 85.1422C71.9179 84.8688 71.8522 84.6452 71.7987 84.4712C71.7494 84.318 71.7247 84.2393 71.7329 84.2352C71.7412 84.231 71.774 84.3097 71.8357 84.4588C71.8974 84.6079 71.9796 84.8316 72.0783 85.1215C72.2633 85.7013 72.5346 86.5587 72.5798 87.6687C72.5922 88.2195 72.5428 88.8366 72.3126 89.4579C72.1975 89.7685 72.0331 90.0709 71.7987 90.3442C71.5603 90.6093 71.2519 90.833 70.8901 90.9448C70.5324 91.0649 70.1131 91.0608 69.7431 90.8951C69.369 90.7294 69.0853 90.4147 68.8674 90.0792C68.4439 89.3875 68.1849 88.6089 67.9177 87.8178C67.6628 87.0184 67.4531 86.2315 67.2599 85.4653C67.1654 85.0801 67.0831 84.699 67.042 84.3138C67.0009 83.9287 67.005 83.5518 67.0379 83.1831C67.0749 82.8145 67.153 82.4583 67.2887 82.1311C67.449 81.7874 67.7163 81.5554 67.9958 81.3773C68.2754 81.1992 68.5961 81.0916 68.9085 81.0874C69.221 81.0791 69.5211 81.1744 69.7595 81.3276C70.2323 81.6424 70.5448 82.0359 70.8079 82.3838C71.0669 82.7358 71.2519 83.0672 71.3876 83.3405C71.5233 83.6139 71.6096 83.8375 71.663 83.9908C71.7165 84.1523 71.7412 84.231 71.7329 84.2352Z" fill="#FF9A6C"/>
<path d="M72.5264 85.2539C72.5347 85.2539 72.5634 85.3699 72.6046 85.5894C72.6498 85.842 72.7073 86.1568 72.7731 86.542C72.9129 87.3993 73.0979 88.559 73.3158 89.9217L73.3281 89.9962L73.2541 90.0252C72.7156 90.2282 72.1647 90.5305 71.659 90.9447C71.1492 91.3547 70.6887 91.8724 70.2735 92.4523C68.7729 94.3616 68.4933 96.6065 68.3864 98.1513C68.3453 98.9341 68.3782 99.5678 68.4275 100.007C68.4728 100.442 68.5427 100.678 68.518 100.682C68.5098 100.682 68.4892 100.628 68.4563 100.516C68.4193 100.404 68.3823 100.239 68.3412 100.019C68.2672 99.5844 68.2096 98.9383 68.2343 98.1472C68.2631 97.3561 68.3576 96.4118 68.6125 95.3888C68.7441 94.8794 68.9086 94.3492 69.1758 93.8315C69.443 93.3262 69.7472 92.8209 70.0967 92.3239C70.5202 91.7316 70.9971 91.2015 71.5233 90.779C72.0495 90.3524 72.6251 90.0459 73.1842 89.843L73.1226 89.9465C72.9335 88.5756 72.7731 87.4159 72.6539 86.5544C72.6087 86.1692 72.5676 85.8503 72.5388 85.5935C72.5264 85.374 72.5182 85.2539 72.5264 85.2539Z" fill="#FF9A6C"/>
<path d="M88.5683 145.268C88.5519 145.273 88.5067 145.057 88.4285 144.668C88.3504 144.237 88.2476 143.686 88.1243 143.019C87.8694 141.586 87.5282 139.677 87.1499 137.569C86.7758 135.44 86.451 133.51 86.2373 132.106C86.1304 131.406 86.0481 130.839 85.9988 130.445C85.9495 130.052 85.9289 129.832 85.9412 129.832C85.9577 129.828 86.0029 130.043 86.081 130.433C86.1591 130.863 86.2619 131.414 86.3853 132.081C86.6402 133.514 86.9814 135.423 87.3596 137.532C87.7337 139.66 88.0585 141.591 88.2723 142.995C88.3792 143.695 88.4614 144.262 88.5108 144.655C88.5601 145.045 88.5807 145.264 88.5683 145.268Z" fill="#263238"/>
<path d="M60.7764 115.911L58.9304 109.578L76.0825 104.095L77.6489 109.545L60.7764 115.911Z" fill="#E0E0E0"/>
<path d="M60.7765 115.911C60.7765 115.907 60.8053 115.895 60.8628 115.87C60.9286 115.845 61.0108 115.812 61.1095 115.771C61.3397 115.679 61.6563 115.555 62.0592 115.398C62.8979 115.075 64.0901 114.615 65.5825 114.035C68.5837 112.888 72.7813 111.285 77.612 109.442L77.5503 109.57C77.0529 107.843 76.5225 106.013 75.9798 104.124L76.1155 104.198C75.9798 104.24 75.8359 104.29 75.6879 104.335C69.073 106.435 63.1158 108.328 58.9511 109.649L59.0004 109.558C59.5554 111.517 59.9995 113.091 60.3119 114.193C60.4599 114.731 60.5791 115.153 60.6614 115.46C60.6984 115.597 60.7271 115.708 60.7518 115.791C60.7683 115.87 60.7765 115.907 60.7765 115.911C60.7765 115.916 60.7642 115.882 60.7395 115.812C60.7148 115.729 60.6819 115.626 60.6408 115.497C60.5504 115.199 60.4229 114.785 60.2626 114.259C59.9296 113.153 59.4527 111.567 58.8606 109.603L58.8401 109.533L58.91 109.512C63.0664 108.175 69.0195 106.257 75.6263 104.132C75.7743 104.087 75.9182 104.037 76.0538 103.996L76.1566 103.962L76.1854 104.07C76.7281 105.959 77.2543 107.794 77.7477 109.521L77.7764 109.616L77.686 109.649C72.8142 111.467 68.5796 113.045 65.5537 114.176C64.0655 114.727 62.8691 115.166 62.0345 115.472C61.6357 115.617 61.3233 115.729 61.0972 115.812C60.9985 115.845 60.9204 115.874 60.8587 115.895C60.8011 115.907 60.7724 115.916 60.7765 115.911Z" fill="#263238"/>
<g opacity="0.3">
<path d="M85.9414 129.828C89.1112 135.663 90.546 142.663 90.62 149.315C90.6282 149.894 90.4309 150.673 89.8553 150.661C89.3373 150.648 89.1317 149.986 89.0701 149.468C88.3341 143.189 86.6814 136.107 85.9414 129.828Z" fill="black"/>
</g>
<path d="M208.621 35.1057C202.113 28.6362 202.265 17.0932 197.286 9.37292C191.37 0.198926 180.311 -1.22998 169.65 0.816048C169.363 0.869891 169.091 1.00657 168.869 1.20123L134.302 31.4982C132.999 32.6413 134.076 34.7743 135.761 34.3933C143.199 32.7324 152.576 33.0721 157.559 38.3652C162.628 43.7495 166.579 58.7096 170.686 64.9346C177.203 74.8086 184.615 81.6591 197.759 82.6821C198.244 82.7194 198.717 82.533 199.058 82.1851L200.563 80.6485C200.596 80.6153 200.624 80.5822 200.653 80.5449C210.689 68.509 219.433 57.2268 229.317 45.282C230.151 44.2755 229.563 42.7348 228.272 42.5526C221.049 41.5295 213.772 40.2249 208.621 35.1057Z" fill="#FF725E"/>
<path d="M180.019 64.3052C180.015 64.3052 180.006 64.268 179.99 64.1975C179.974 64.1106 179.949 64.0029 179.924 63.8703C179.867 63.568 179.789 63.1455 179.69 62.6154C179.641 62.342 179.587 62.0355 179.525 61.7042C179.472 61.3687 179.439 61.0042 179.386 60.6149C179.299 59.8321 179.16 58.9417 179.118 57.9476C179.086 57.4506 179.053 56.9329 179.02 56.3903C178.991 55.8478 179.003 55.2845 178.991 54.7005C178.954 53.5325 179.032 52.2858 179.094 50.9729C179.287 48.3512 179.673 45.4809 180.356 42.5237C181.063 39.5706 181.996 36.8329 182.991 34.4017C183.522 33.2006 184.007 32.0492 184.562 31.022C184.833 30.5043 185.072 29.9949 185.339 29.5227C185.61 29.0547 185.869 28.6033 186.12 28.1767C186.597 27.3069 187.119 26.5738 187.546 25.9153C187.764 25.5881 187.962 25.2774 188.155 25.0041C188.356 24.7349 188.541 24.4905 188.706 24.2668C189.031 23.8361 189.29 23.4965 189.475 23.248C189.557 23.1403 189.627 23.0574 189.68 22.987C189.725 22.929 189.754 22.9001 189.754 22.9042C189.758 22.9083 189.738 22.9415 189.697 23.0036C189.647 23.074 189.586 23.1651 189.508 23.277C189.331 23.5296 189.084 23.8775 188.772 24.3165C188.611 24.5443 188.43 24.7928 188.237 25.0662C188.048 25.3437 187.859 25.6585 187.645 25.9857C187.23 26.6525 186.716 27.3856 186.247 28.2595C186.005 28.6902 185.746 29.1417 185.483 29.6097C185.22 30.0819 184.985 30.5913 184.718 31.109C184.171 32.1362 183.698 33.2876 183.172 34.4846C182.194 36.9116 181.269 39.641 180.561 42.5817C179.883 45.5265 179.493 48.3843 179.287 50.9936C179.221 52.3024 179.135 53.5449 179.164 54.7088C179.172 55.2928 179.151 55.8519 179.18 56.3945C179.209 56.9329 179.238 57.4506 179.262 57.9476C179.291 58.9375 179.423 59.828 179.497 60.6108C179.542 61.0001 179.571 61.3687 179.616 61.7001C179.669 62.0314 179.719 62.3338 179.76 62.6113C179.842 63.1455 179.908 63.568 179.953 63.8745C179.974 64.007 179.986 64.1189 179.998 64.2058C180.019 64.2638 180.023 64.3052 180.019 64.3052Z" fill="#263238"/>
<g opacity="0.3">
<path d="M217.579 56.415C214.603 54.7749 211.626 53.1347 208.649 51.4946C206.331 50.2189 203.901 48.9101 201.262 48.8397C197.874 48.7486 194.61 50.8733 192.986 53.872C191.362 56.8706 191.296 60.594 192.476 63.7956C193.656 66.9972 195.995 69.6894 198.787 71.6236C199.72 72.2697 200.711 72.8454 201.5 73.6613C202.285 74.4772 202.853 75.6079 202.68 76.7345L203.51 77.1031L218.755 58.2664L217.579 56.415Z" fill="black"/>
</g>
<path d="M171.883 2.48502C171.887 2.48916 171.805 2.58028 171.64 2.74181C171.459 2.91576 171.217 3.15598 170.912 3.45419C170.275 4.06717 169.35 4.94937 168.191 6.02622C165.88 8.18408 162.653 11.1206 159.023 14.2932C155.388 17.4658 152.046 20.2697 149.6 22.2661C148.379 23.2642 147.38 24.0677 146.689 24.6144C146.352 24.8754 146.085 25.0866 145.887 25.2398C145.702 25.3807 145.604 25.4511 145.599 25.4469C145.595 25.4428 145.686 25.36 145.863 25.2067C146.056 25.0452 146.315 24.8257 146.64 24.5482C147.334 23.9683 148.309 23.1524 149.509 22.146C151.931 20.1165 155.261 17.296 158.891 14.1275C162.521 10.9549 165.761 8.03498 168.096 5.91025C169.251 4.85825 170.193 4.0009 170.863 3.38792C171.18 3.10214 171.43 2.87434 171.62 2.70867C171.784 2.55957 171.879 2.48088 171.883 2.48502Z" fill="#263238"/>
<g opacity="0.3">
<path d="M168.734 5.40505L144.272 26.5736C152.433 21.8685 162.262 15.2914 170.259 4.00928C170.136 4.14181 168.857 5.26837 168.734 5.40505Z" fill="black"/>
</g>
<path d="M157.6 118.16L148.268 73.3961L144.621 67.5645L120.398 75.4462C120.398 75.4462 118.646 79.0495 118.65 79.4803L109.343 85.8917L113.162 135.241L109.869 150.453L111.147 184.482H163.298L157.6 118.16Z" fill="#E0E0E0"/>
<path d="M116.118 80.8594C115.505 81.2694 98.0613 89.2879 98.0613 89.2879L102.571 161.412L99.2412 184.594L113.853 184.486C113.853 184.486 116.036 173.544 116.648 155.038C117.265 136.533 116.118 80.8594 116.118 80.8594Z" fill="#455A64"/>
<path d="M147.343 71.7725C147.343 71.7725 145.217 148.987 146.438 154.334C147.663 159.681 153.357 184.486 153.357 184.486H184.993L171.545 147.728L174.033 110.746L171.545 75.2764L156.038 74.8664L147.343 71.7725Z" fill="#455A64"/>
<path d="M97.7364 99.6299C97.7405 99.6299 97.7487 99.6837 97.7611 99.7873C97.7734 99.9032 97.7899 100.056 97.8104 100.255C97.8474 100.678 97.9009 101.282 97.9708 102.053C98.1064 103.614 98.2914 105.876 98.5011 108.675C98.7108 111.471 98.9451 114.805 99.1671 118.504C99.274 120.355 99.3809 122.298 99.459 124.315C99.5454 126.332 99.5577 128.419 99.6851 130.556C99.9113 134.827 100.269 138.89 100.61 142.58C100.956 146.27 101.301 149.592 101.601 152.379C101.905 155.158 102.152 157.412 102.325 158.981C102.407 159.752 102.477 160.352 102.522 160.775C102.542 160.973 102.559 161.127 102.567 161.243C102.575 161.346 102.579 161.404 102.575 161.404C102.571 161.404 102.563 161.35 102.547 161.247C102.53 161.131 102.505 160.978 102.481 160.783C102.423 160.361 102.345 159.76 102.246 158.994C102.049 157.436 101.774 155.187 101.457 152.4C101.141 149.613 100.779 146.295 100.421 142.601C100.067 138.91 99.7057 134.847 99.4796 130.569C99.3521 128.432 99.3398 126.34 99.2576 124.327C99.1836 122.314 99.0808 120.368 98.978 118.52C98.7683 114.818 98.5504 111.488 98.3613 108.688C98.1681 105.901 98.0119 103.639 97.9009 102.061C97.8474 101.287 97.8063 100.682 97.7775 100.259C97.7652 100.061 97.757 99.9074 97.7487 99.7914C97.7323 99.6879 97.7323 99.634 97.7364 99.6299Z" fill="#263238"/>
<path d="M151.676 73.396C151.68 73.396 151.692 73.425 151.721 73.4871C151.754 73.5575 151.795 73.6486 151.844 73.7646C151.955 74.0173 152.111 74.3817 152.317 74.8539C152.72 75.8106 153.3 77.2188 153.978 79.0288C155.339 82.6487 157.103 87.888 158.607 94.316L158.628 94.403L158.546 94.4279C157.67 94.7012 156.716 94.9953 155.742 95.2976L155.733 95.1071C156.391 95.2645 156.992 95.6455 157.448 96.1591C157.904 96.6768 158.245 97.3022 158.443 97.9773C158.842 99.3441 158.661 100.819 158.361 102.227C157.699 105.039 157.008 107.963 156.301 110.962C153.596 122.318 151.145 132.598 149.369 140.049C148.473 143.76 147.749 146.767 147.244 148.859C146.989 149.89 146.792 150.694 146.656 151.253C146.59 151.518 146.537 151.725 146.5 151.874C146.463 152.015 146.438 152.085 146.438 152.085C146.438 152.085 146.446 152.011 146.479 151.87C146.512 151.721 146.557 151.514 146.615 151.245C146.742 150.685 146.927 149.878 147.166 148.842C147.655 146.751 148.358 143.735 149.225 140.016C150.985 132.561 153.415 122.277 156.095 110.916C156.802 107.918 157.493 104.998 158.159 102.185C158.459 100.79 158.636 99.3483 158.254 98.0395C158.065 97.3892 157.736 96.7887 157.304 96.2999C156.868 95.8112 156.305 95.4509 155.692 95.3059L155.343 95.2231L155.688 95.1154C156.663 94.8172 157.616 94.5231 158.496 94.2539L158.43 94.3657C156.946 87.9419 155.211 82.6984 153.879 79.0743C153.213 77.2603 152.654 75.8438 152.268 74.8829C152.074 74.4066 151.926 74.0421 151.824 73.7853C151.778 73.6652 151.741 73.5741 151.713 73.5037C151.684 73.4291 151.676 73.396 151.676 73.396Z" fill="#263238"/>
<path d="M115.448 154.33C115.448 154.33 115.435 154.26 115.419 154.127C115.407 153.982 115.386 153.788 115.361 153.531C115.312 152.996 115.242 152.226 115.152 151.236C114.967 149.244 114.695 146.361 114.329 142.804C113.606 135.684 112.492 125.864 111.328 115.008C111.024 112.109 110.732 109.284 110.469 106.567C110.342 105.217 110.177 103.85 110.498 102.554C110.658 101.908 110.954 101.303 111.369 100.806C111.785 100.309 112.34 99.9239 112.96 99.7748L112.997 99.9695C111.871 100.123 110.79 100.272 109.737 100.417L109.593 100.438L109.634 100.297C111.365 94.5852 112.804 89.818 113.82 86.4674C114.329 84.8065 114.732 83.4977 115.008 82.5948C115.148 82.1558 115.254 81.8162 115.328 81.5759C115.365 81.4683 115.394 81.3813 115.415 81.315C115.435 81.257 115.448 81.228 115.448 81.228C115.448 81.228 115.444 81.2612 115.427 81.3191C115.411 81.3854 115.386 81.4724 115.357 81.5842C115.287 81.8244 115.189 82.1682 115.065 82.6114C114.798 83.5184 114.416 84.8314 113.926 86.5005C112.932 89.8553 111.513 94.6308 109.815 100.351L109.712 100.23C110.761 100.085 111.846 99.9322 112.969 99.7748L113.006 99.9695C112.43 100.106 111.916 100.467 111.521 100.939C111.127 101.411 110.847 101.991 110.695 102.608C110.387 103.859 110.543 105.201 110.675 106.555C110.95 109.268 111.242 112.092 111.538 114.992C112.701 125.847 113.795 135.671 114.477 142.795C114.823 146.357 115.074 149.24 115.234 151.236C115.308 152.226 115.365 153.001 115.402 153.535C115.419 153.792 115.431 153.99 115.439 154.131C115.448 154.264 115.448 154.33 115.448 154.33Z" fill="#263238"/>
<path d="M127.062 89.9757L128.982 94.6849H133.997L135.839 89.2343L131.712 84.2891L130.367 84.4754L127.062 89.9757Z" fill="#FF725E"/>
<path d="M131.066 83.3734C131.07 83.3775 131.042 83.4355 130.98 83.5432C130.906 83.6675 130.811 83.8249 130.7 84.0154C130.437 84.4461 130.084 85.0342 129.648 85.7549C128.756 87.2377 127.522 89.321 126.19 91.7398L126.112 91.8847L126.013 91.7522C125.569 91.1475 125.113 90.5221 124.661 89.8718C122.753 87.1548 121.216 84.5662 120.196 82.6444C119.682 81.6877 119.296 80.8966 119.028 80.3458C118.909 80.089 118.811 79.8778 118.737 79.7079C118.671 79.563 118.642 79.4843 118.646 79.4801C118.654 79.476 118.695 79.5506 118.774 79.6872C118.86 79.8488 118.967 80.0517 119.102 80.3044C119.39 80.8386 119.797 81.6173 120.328 82.5658C121.38 84.4627 122.93 87.0347 124.834 89.7434C125.286 90.3937 125.742 91.0191 126.182 91.6238L126.005 91.6362C127.346 89.2216 128.604 87.1465 129.529 85.6804C129.993 84.9473 130.371 84.3674 130.639 83.9698C130.762 83.7876 130.865 83.6385 130.947 83.5184C131.021 83.4231 131.062 83.3693 131.066 83.3734Z" fill="#263238"/>
<path d="M146.442 73.3961C146.451 73.4003 146.409 73.4955 146.327 73.6778C146.233 73.8766 146.113 74.1416 145.961 74.4688C145.624 75.1729 145.151 76.1587 144.572 77.3639C143.371 79.8159 141.731 83.1707 139.918 86.8734C139.178 88.3727 138.462 89.8141 137.809 91.1353L137.747 91.2637L137.648 91.1643C135.56 89.052 133.85 87.1509 132.735 85.722C132.176 85.0096 131.753 84.4256 131.477 84.0197C131.338 83.8168 131.235 83.6553 131.169 83.5476C131.099 83.4399 131.066 83.3819 131.074 83.3778C131.079 83.3736 131.124 83.4275 131.198 83.5269C131.284 83.6428 131.395 83.7961 131.535 83.9783C131.827 84.3718 132.263 84.9434 132.834 85.6433C133.973 87.0474 135.696 88.9236 137.796 91.0235L137.632 91.0483C138.281 89.7229 138.993 88.2816 139.729 86.7823C141.562 83.0878 143.223 79.7454 144.436 77.2977C145.04 76.1048 145.534 75.1315 145.887 74.4357C146.056 74.1127 146.187 73.8559 146.29 73.6612C146.381 73.4831 146.434 73.392 146.442 73.3961Z" fill="#263238"/>
<g opacity="0.3">
<path d="M131.042 178.211C131.346 177.627 140.399 165.492 140.399 165.492L133.874 95.8193L131.042 178.211Z" fill="black"/>
</g>
<path d="M129.076 94.6846C129.076 94.6846 123.082 164.742 124.122 168.934L131.041 178.211L138.216 164.457C138.372 163.798 133.8 94.6846 133.8 94.6846H129.076Z" fill="#FF725E"/>
<path d="M156.165 161.355C156.165 161.574 160.05 168.487 160.05 168.487L180.759 168.375L176.166 161.301L156.165 161.355Z" fill="#455A64"/>
<path d="M156.165 161.354C156.161 161.35 156.194 161.35 156.256 161.346C156.33 161.346 156.42 161.342 156.535 161.338C156.799 161.334 157.164 161.33 157.633 161.321C158.612 161.313 160.013 161.301 161.773 161.28C165.342 161.259 170.349 161.23 176.167 161.193H176.22L176.249 161.238C177.679 163.438 179.234 165.832 180.845 168.308L180.952 168.474H180.755C180.693 168.474 180.627 168.474 180.557 168.474C172.499 168.503 165.227 168.532 160.046 168.553H160.001L159.981 168.516C158.755 166.312 157.781 164.531 157.123 163.293C156.794 162.676 156.544 162.191 156.379 161.86C156.297 161.694 156.239 161.566 156.202 161.479C156.174 161.396 156.165 161.35 156.165 161.354C156.182 161.388 156.198 161.425 156.227 161.483C156.276 161.574 156.342 161.698 156.424 161.851C156.609 162.187 156.868 162.659 157.201 163.264C157.896 164.498 158.887 166.262 160.12 168.453L160.055 168.416C165.235 168.379 172.508 168.329 180.566 168.271C180.631 168.271 180.701 168.271 180.763 168.271L180.672 168.437C179.065 165.956 177.515 163.562 176.084 161.359L176.171 161.404C170.382 161.4 165.399 161.396 161.847 161.392C160.079 161.383 158.665 161.379 157.682 161.375C157.206 161.371 156.831 161.367 156.564 161.367C156.445 161.363 156.346 161.363 156.272 161.363C156.202 161.359 156.169 161.354 156.165 161.354Z" fill="#263238"/>
<path d="M134.404 87.5445C134.429 87.5652 134.121 87.9587 133.623 88.5924C133.126 89.2261 132.439 90.1 131.695 91.0774C130.951 92.059 130.297 92.9536 129.82 93.608C129.344 94.2583 129.048 94.66 129.023 94.6435C128.998 94.6269 129.253 94.1962 129.697 93.5211C130.141 92.846 130.783 91.9306 131.527 90.949C132.271 89.9674 132.978 89.1059 133.508 88.4971C134.034 87.8841 134.38 87.5279 134.404 87.5445Z" fill="#263238"/>
<g opacity="0.3">
<path d="M131.593 84.1233C131.593 84.1233 135.934 92.0092 137.8 92.6222C139.667 93.2352 142.935 80.5034 142.935 80.5034L137.722 90.8205L131.593 84.1233Z" fill="black"/>
</g>
<g opacity="0.3">
<path d="M147.343 148.623C147.343 148.623 157.115 116.466 159.199 107.412C161.284 98.3583 158.574 95.8195 158.574 95.8195L160.503 94.6432L154.718 81.228L158.521 94.3408L155.717 95.2065C155.717 95.2065 157.921 95.3721 158.496 98.6358C159.068 101.9 147.343 148.623 147.343 148.623Z" fill="black"/>
</g>
<path d="M200.139 53.4371C200.139 53.4371 199.054 52.3851 197.138 53.3998C197.138 53.3998 195.136 54.4642 194.852 55.3547C194.568 56.2452 195.012 57.4546 195.386 58.3533C195.756 59.2521 197.968 62.5779 197.968 62.5779C197.968 62.5779 197.964 65.3736 199.827 68.3184C201.685 71.2673 204.805 71.3502 205.397 73.4791C205.989 75.6079 206.203 76.2457 205.858 77.7078C205.512 79.1698 204.92 81.6756 204.92 81.6756L217.086 87.9379C217.086 87.9379 217.863 79.116 217.632 73.9098C217.402 68.7036 217.394 63.4808 217.719 61.791C218.044 60.1053 217.608 57.6203 217.086 57.3593C217.086 57.3593 218.508 53.814 216.773 52.8075C215.038 51.8052 203.938 48.409 202.737 48.8563C201.537 49.3036 201.089 49.9166 200.78 51.2378C200.472 52.559 200.139 53.4371 200.139 53.4371Z" fill="#FFBF9D"/>
<path d="M210.516 62.3336C210.516 62.3336 210.376 62.2135 210.224 61.907C210.076 61.6171 209.928 61.0497 210.281 60.4657L210.306 60.5568C209.85 60.3829 209.315 60.184 208.715 59.9562L208.814 59.861C208.958 60.2627 209.11 60.7059 209.278 61.1739L209.258 61.1408C209.435 61.323 209.603 61.5301 209.743 61.7621C209.879 62.0023 209.981 62.2839 209.977 62.5821C209.985 63.1827 209.603 63.7832 209.023 64.0566C208.736 64.1974 208.394 64.2471 208.07 64.1891C207.905 64.156 207.749 64.1063 207.605 64.0442C207.453 63.9903 207.309 63.924 207.161 63.8578C206.573 63.5886 206.002 63.2324 205.475 62.8058C205.118 62.5117 204.789 62.2011 204.501 61.8407L204.571 61.8822C203.81 61.7786 203.062 61.5053 202.528 60.9958C201.985 60.4905 201.714 59.7906 201.693 59.1155L201.763 59.2107C201.278 59.0575 200.842 58.8463 200.472 58.5563C200.291 58.4114 200.127 58.2416 200.008 58.0469C199.897 57.8274 199.876 57.6079 199.864 57.4008C199.835 56.5724 199.958 55.8725 200.049 55.2926C200.147 54.7128 200.242 54.2613 200.312 53.9548C200.382 53.6483 200.431 53.4868 200.439 53.4868C200.447 53.491 200.423 53.6566 200.369 53.9673C200.316 54.2779 200.238 54.7293 200.16 55.3092C200.086 55.8849 199.983 56.5931 200.02 57.3884C200.032 57.583 200.065 57.7901 200.151 57.9558C200.258 58.1256 200.41 58.2788 200.579 58.4155C200.924 58.6806 201.356 58.8835 201.812 59.0243L201.878 59.0451L201.882 59.1196C201.903 59.7202 202.162 60.387 202.667 60.8426C203.161 61.3147 203.864 61.5674 204.596 61.6668L204.637 61.6709L204.666 61.7082C204.929 62.0396 205.258 62.3502 205.603 62.636C206.117 63.0543 206.668 63.4022 207.243 63.6631C207.387 63.7294 207.531 63.7915 207.675 63.8495C207.819 63.9116 207.963 63.953 208.103 63.9862C208.386 64.04 208.682 63.9945 208.937 63.8744C209.447 63.6383 209.792 63.104 209.788 62.5821C209.792 62.0561 209.463 61.613 209.134 61.2609L209.122 61.2443L209.118 61.2278C208.962 60.7556 208.81 60.3124 208.674 59.9065L208.621 59.7492L208.773 59.8113C209.365 60.0515 209.895 60.2627 210.351 60.445L210.417 60.474L210.376 60.5361C210.212 60.7805 210.158 61.0621 210.158 61.294C210.162 61.5301 210.22 61.7289 210.281 61.8822C210.409 62.1845 210.528 62.3212 210.516 62.3336Z" fill="#FF9A6C"/>
<path d="M214.376 56.1581C214.372 56.1747 214.163 56.1415 213.784 56.0711C213.369 55.9883 212.831 55.8806 212.189 55.7563C211.503 55.6114 210.709 55.4457 209.829 55.2593C209.385 55.1641 208.921 55.0647 208.436 54.957C207.955 54.8534 207.457 54.725 206.964 54.7913C206.466 54.8452 206.084 55.1931 205.854 55.6114C205.619 56.0297 205.492 56.4936 205.365 56.9285C205.126 57.8024 204.999 58.6142 204.904 59.2975C204.814 59.9809 204.756 60.5359 204.715 60.9211C204.67 61.3063 204.641 61.5175 204.629 61.5175C204.612 61.5175 204.616 61.3022 204.633 60.917C204.653 60.5318 204.682 59.9727 204.756 59.281C204.83 58.5935 204.941 57.7692 205.175 56.8788C205.299 56.4356 205.422 55.9634 205.673 55.512C205.8 55.2883 205.961 55.0688 206.174 54.899C206.388 54.725 206.66 54.6174 206.931 54.5801C207.486 54.5055 208 54.6505 208.477 54.754C208.958 54.8617 209.422 54.9653 209.866 55.0647C210.742 55.2676 211.536 55.4499 212.218 55.6072C212.855 55.7605 213.386 55.8889 213.797 55.9924C214.179 56.0835 214.38 56.1457 214.376 56.1581Z" fill="#FF9A6C"/>
<path d="M212.436 53.607C212.432 53.6236 212.218 53.578 211.832 53.4869C211.408 53.3833 210.857 53.2508 210.199 53.0893C209.509 52.9236 208.686 52.7331 207.765 52.555C207.305 52.468 206.82 52.381 206.318 52.3189C205.821 52.2609 205.291 52.2402 204.801 52.41C204.312 52.5798 203.921 52.9402 203.638 53.3461C203.35 53.7561 203.153 54.2034 202.988 54.6424C202.668 55.5246 202.441 56.3447 202.281 57.0364C202.121 57.7322 202.022 58.2996 201.956 58.6931C201.891 59.0865 201.858 59.3061 201.841 59.3061C201.829 59.3061 201.833 59.0824 201.87 58.6848C201.911 58.2872 201.985 57.7115 202.129 57.0074C202.273 56.3033 202.483 55.4749 202.799 54.5762C202.959 54.1289 203.161 53.6608 203.461 53.2259C203.757 52.7952 204.185 52.3976 204.727 52.2071C205.27 52.0207 205.829 52.0455 206.339 52.1077C206.853 52.1739 207.334 52.2692 207.798 52.3603C208.723 52.5467 209.542 52.7579 210.228 52.9402C210.915 53.1265 211.466 53.2881 211.848 53.404C212.23 53.52 212.44 53.5946 212.436 53.607Z" fill="#FF9A6C"/>
<path d="M217.077 54.9569C217.036 55.0107 216.444 54.551 215.593 54.2486C214.742 53.938 213.998 53.9131 213.998 53.8469C213.99 53.793 214.771 53.7185 215.663 54.0457C216.559 54.3646 217.114 54.9196 217.077 54.9569Z" fill="#FF9A6C"/>
<path d="M206.331 50.4717C206.331 50.4883 206.166 50.4841 205.866 50.4759C205.57 50.4676 205.142 50.4427 204.616 50.4841C204.098 50.5256 203.469 50.6457 202.894 51.0143C202.606 51.1965 202.347 51.445 202.158 51.7598C201.964 52.0746 201.833 52.4432 201.734 52.8325C201.356 54.4105 201.113 55.8684 200.957 56.9246C200.887 57.4174 200.826 57.8358 200.776 58.1754C200.735 58.4695 200.706 58.6351 200.69 58.6351C200.678 58.6351 200.678 58.4694 200.694 58.1671C200.711 57.8689 200.748 57.434 200.809 56.9039C200.933 55.8394 201.15 54.3732 201.529 52.7787C201.631 52.3811 201.771 51.9876 201.981 51.648C202.191 51.3042 202.482 51.035 202.791 50.8445C203.416 50.4593 204.078 50.3557 204.608 50.3309C205.147 50.3102 205.578 50.3557 205.87 50.3889C206.17 50.4262 206.335 50.4551 206.331 50.4717Z" fill="#FF9A6C"/>
<path d="M212.164 51.9668C212.148 52.0248 211.498 51.9088 210.709 51.7058C209.92 51.5029 209.295 51.2917 209.307 51.2337C209.324 51.1757 209.973 51.2917 210.762 51.4946C211.552 51.6976 212.181 51.9088 212.164 51.9668Z" fill="#FF9A6C"/>
<path d="M201.854 59.7908C201.874 59.8529 200.998 60.0931 200.131 60.7599C199.255 61.4185 198.791 62.2054 198.737 62.1681C198.688 62.1516 199.087 61.2818 200.003 60.5901C200.912 59.886 201.854 59.7369 201.854 59.7908Z" fill="#FF9A6C"/>
<path d="M200.082 58.0011C200.094 58.0218 199.946 58.1667 199.65 58.3283C199.358 58.4898 198.898 58.6472 198.375 58.6348C197.853 58.6223 197.409 58.4691 197.105 58.3407C196.801 58.204 196.628 58.0922 196.641 58.0673C196.665 57.9886 197.409 58.3821 198.38 58.4194C199.354 58.4401 200.049 57.9265 200.082 58.0011Z" fill="#FF9A6C"/>
<path d="M212.469 63.3481C212.473 63.3936 211.766 63.3605 210.68 63.6339C209.603 63.8989 208.144 64.5492 206.951 65.7751C205.759 67.0053 205.146 68.488 204.904 69.5773C204.653 70.6749 204.702 71.3872 204.657 71.3831C204.645 71.3831 204.624 71.2091 204.62 70.8902C204.616 70.5713 204.649 70.1074 204.756 69.5442C204.961 68.4259 205.57 66.8893 206.799 65.6219C208.028 64.3587 209.541 63.7167 210.647 63.4806C211.202 63.3605 211.663 63.3191 211.979 63.3149C212.296 63.3149 212.469 63.3357 212.469 63.3481Z" fill="#FF9A6C"/>
<path d="M214.426 75.5046C214.43 75.5294 214.019 75.6454 213.336 75.72C212.654 75.7945 211.692 75.7945 210.652 75.6081C209.616 75.4176 208.715 75.0739 208.098 74.7674C207.482 74.4567 207.136 74.1999 207.153 74.1834C207.169 74.1544 207.539 74.3615 208.164 74.6307C208.785 74.8999 209.673 75.2147 210.693 75.4011C211.708 75.5833 212.65 75.6081 213.328 75.5709C214.002 75.5336 214.417 75.4715 214.426 75.5046Z" fill="#FF9A6C"/>
<path d="M199.465 99.7049L179.492 84.1982C179.492 84.1982 175.718 75.2023 171.545 75.2727V111.869L189.894 122.915C191.448 124.013 198.622 128.411 205.348 129.666C209.003 130.35 214.261 128.879 216.189 125.678C216.744 124.754 218.344 120.749 218.487 119.577C219.067 114.889 220.21 79.1245 220.21 79.1245L200.229 75.252L199.465 99.7049Z" fill="#455A64"/>
<path d="M201.845 122.269C201.841 122.273 201.788 122.207 201.689 122.074C201.582 121.921 201.442 121.731 201.274 121.494C201.183 121.366 201.085 121.225 200.978 121.072C200.875 120.915 200.776 120.732 200.661 120.546C200.443 120.165 200.168 119.742 199.934 119.237C199.81 118.989 199.679 118.728 199.547 118.454C199.416 118.181 199.305 117.883 199.177 117.585C198.91 116.988 198.7 116.317 198.466 115.621C198.047 114.209 197.701 112.623 197.529 110.929C197.376 109.231 197.413 107.607 197.553 106.141C197.652 105.412 197.726 104.712 197.874 104.074C197.944 103.755 197.993 103.441 198.071 103.146C198.153 102.852 198.227 102.571 198.301 102.302C198.433 101.759 198.622 101.291 198.766 100.873C198.84 100.666 198.906 100.471 198.976 100.293C199.05 100.123 199.12 99.9656 199.185 99.8206C199.305 99.5555 199.403 99.3402 199.481 99.1704C199.551 99.0213 199.592 98.9467 199.596 98.9508C199.605 98.955 199.576 99.0378 199.518 99.1911C199.453 99.365 199.366 99.5845 199.259 99.8579C199.202 100.003 199.136 100.164 199.07 100.334C199.004 100.512 198.947 100.707 198.877 100.914C198.745 101.332 198.569 101.8 198.445 102.343C198.375 102.612 198.306 102.89 198.227 103.184C198.153 103.478 198.108 103.788 198.047 104.107C197.907 104.741 197.837 105.437 197.746 106.162C197.615 107.615 197.586 109.227 197.738 110.908C197.911 112.586 198.248 114.164 198.651 115.563C198.877 116.255 199.078 116.922 199.337 117.518C199.461 117.817 199.564 118.115 199.691 118.388C199.818 118.661 199.946 118.922 200.065 119.171C200.287 119.676 200.55 120.103 200.76 120.488C200.867 120.679 200.961 120.861 201.06 121.022C201.159 121.18 201.253 121.32 201.34 121.453C201.496 121.697 201.619 121.9 201.718 122.058C201.808 122.19 201.854 122.265 201.845 122.269Z" fill="#263238"/>
<path d="M175.636 85.8921C175.64 85.8921 175.64 85.9459 175.636 86.0536C175.632 86.1696 175.624 86.327 175.615 86.5216C175.591 86.9441 175.558 87.5529 175.517 88.3233C175.422 89.9013 175.282 92.1627 175.114 94.9501C174.752 100.554 174.251 108.278 173.7 116.81C173.124 125.342 172.602 133.067 172.224 138.671C172.026 141.458 171.862 143.719 171.751 145.293C171.689 146.064 171.644 146.668 171.611 147.095C171.595 147.294 171.578 147.447 171.57 147.563C171.558 147.666 171.554 147.72 171.549 147.72C171.545 147.72 171.545 147.666 171.549 147.559C171.554 147.443 171.562 147.285 171.57 147.091C171.595 146.668 171.628 146.059 171.669 145.289C171.763 143.711 171.903 141.45 172.072 138.662C172.433 133.058 172.935 125.33 173.486 116.798C174.061 108.266 174.584 100.546 174.962 94.9418C175.159 92.1544 175.324 89.893 175.435 88.3192C175.496 87.5488 175.541 86.9441 175.574 86.5175C175.591 86.3187 175.607 86.1654 175.615 86.0495C175.624 85.9459 175.632 85.8921 175.636 85.8921Z" fill="#263238"/>
<g opacity="0.3">
<path d="M199.522 117.672C198.285 114.673 197.985 113.451 197.611 110.606C197.237 107.756 197.763 103.428 198.856 100.773C195.214 106.025 194.067 113.505 196.517 119.416C196.83 120.169 197.335 121.006 198.141 121.06C198.848 121.105 199.457 120.476 199.638 119.788C199.823 119.097 199.794 118.33 199.522 117.672Z" fill="black"/>
</g>
<path d="M145.439 52.5133C146.841 48.3425 148.226 44.1345 148.897 39.7815C149.567 35.4285 149.489 30.8809 148.017 26.7308C147.795 26.1013 145.875 21.8767 145.217 21.9347C144.744 21.9761 145.912 25.9066 145.665 26.3167C143.342 30.2265 142.664 34.9522 142.972 39.4957C143.285 44.0475 144.173 48.1396 145.439 52.5133Z" fill="#263238"/>
<path d="M129.635 14.9971L128.62 15.0385C118.412 15.4651 110.235 23.7113 109.836 33.9953C109.462 43.5628 109.174 54.1408 109.445 59.2559C110.008 69.8423 120.595 71.0516 120.595 71.0516C120.62 71.0516 120.64 75.5165 120.64 75.5165L131.111 82.5368L144.868 67.6347L146.08 35.71C146.566 24.6764 140.6 15.1876 129.635 14.9971Z" fill="#FFBF9D"/>
<path d="M120.595 71.0557C120.595 71.0557 127.239 71.1717 134.117 66.4087C134.117 66.4087 131.149 74.51 120.62 73.9923L120.595 71.0557Z" fill="#FF9A6C"/>
<path d="M114.683 42.8421C114.687 43.6414 115.365 44.2958 116.192 44.3083C117.018 44.3165 117.688 43.6787 117.684 42.8793C117.68 42.08 117.002 41.4214 116.175 41.4132C115.349 41.4049 114.679 42.0427 114.683 42.8421Z" fill="#263238"/>
<path d="M112.261 38.5846C112.455 38.7751 113.557 37.8805 115.176 37.8143C116.788 37.7273 118.009 38.5142 118.178 38.3113C118.26 38.2201 118.054 37.8722 117.524 37.5119C117.002 37.1557 116.118 36.8244 115.111 36.8699C114.103 36.9196 113.273 37.3255 112.8 37.7273C112.319 38.1332 112.167 38.4976 112.261 38.5846Z" fill="#263238"/>
<path d="M129.187 42.8421C129.191 43.6414 129.87 44.2958 130.696 44.3083C131.522 44.3207 132.193 43.6787 132.188 42.8793C132.184 42.08 131.506 41.4214 130.68 41.4132C129.853 41.4049 129.183 42.0427 129.187 42.8421Z" fill="#263238"/>
<path d="M128.114 38.3031C128.308 38.4937 129.414 37.599 131.029 37.5328C132.641 37.4458 133.862 38.2327 134.03 38.0298C134.113 37.9387 133.911 37.5908 133.377 37.2346C132.855 36.8784 131.971 36.547 130.964 36.5926C129.956 36.6423 129.126 37.0482 128.653 37.4499C128.176 37.8517 128.02 38.2162 128.114 38.3031Z" fill="#263238"/>
<path d="M122.831 51.0512C122.836 50.9601 121.824 50.8234 120.188 50.6826C119.773 50.6578 119.378 50.5915 119.3 50.3098C119.189 50.0116 119.345 49.5602 119.526 49.0673C119.871 48.0443 120.237 46.9757 120.615 45.8533C122.124 41.2767 123.201 37.5201 123.016 37.4621C122.831 37.4041 121.458 41.0654 119.949 45.6421C119.588 46.7686 119.242 47.8455 118.909 48.8768C118.774 49.3572 118.527 49.904 118.761 50.5169C118.885 50.8234 119.197 51.0347 119.464 51.0968C119.732 51.1672 119.966 51.163 120.167 51.1672C121.816 51.1796 122.831 51.1423 122.831 51.0512Z" fill="#263238"/>
<path d="M127.383 33.2332C127.621 33.6391 129.171 33.1379 131.074 33.0178C132.978 32.8563 134.585 33.1297 134.762 32.6906C134.836 32.4835 134.499 32.1232 133.817 31.8126C133.138 31.5019 132.102 31.2824 130.959 31.3653C129.816 31.4522 128.826 31.8209 128.197 32.2267C127.559 32.6326 127.28 33.0385 127.383 33.2332Z" fill="#263238"/>
<path d="M111.99 33.8007C112.335 34.161 113.643 33.7427 115.226 33.6806C116.804 33.5729 118.157 33.8504 118.453 33.4569C118.584 33.2664 118.362 32.9019 117.766 32.5664C117.178 32.2309 116.208 31.9741 115.119 32.0321C114.033 32.0901 113.1 32.4505 112.557 32.8439C112.011 33.2374 111.838 33.6226 111.99 33.8007Z" fill="#263238"/>
<path d="M145.538 43.5921C145.715 43.5051 152.675 41.1401 152.741 48.3882C152.807 55.6404 145.567 54.2115 145.554 54.0044C145.542 53.7974 145.538 43.5921 145.538 43.5921Z" fill="#FFBF9D"/>
<path d="M147.729 51.2379C147.762 51.213 147.856 51.3249 148.066 51.4201C148.272 51.5112 148.629 51.5775 149.004 51.4325C149.76 51.1426 150.389 49.9208 150.414 48.6161C150.426 47.9576 150.282 47.3281 150.048 46.8103C149.822 46.2802 149.48 45.9157 149.094 45.8494C148.712 45.7625 148.444 45.9985 148.358 46.2015C148.263 46.4044 148.309 46.5494 148.272 46.5618C148.251 46.5784 148.115 46.4417 148.173 46.1435C148.202 45.9985 148.284 45.8287 148.453 45.6879C148.625 45.543 148.876 45.4684 149.143 45.4974C149.698 45.5305 150.204 46.04 150.463 46.6074C150.755 47.1789 150.932 47.883 150.915 48.6244C150.882 50.0865 150.155 51.4615 149.115 51.7722C148.609 51.9088 148.185 51.7597 147.967 51.5899C147.741 51.4118 147.704 51.2503 147.729 51.2379Z" fill="#FF9A6C"/>
<path d="M114.486 21.9844C113.322 21.3383 116.813 17.5361 119.678 16.2232C124.003 14.2435 130.61 13.0216 134.602 14.1606C139.404 15.5315 143.396 17.9338 145.809 22.3365C148.222 26.7391 149.131 31.8708 148.995 36.8989C148.954 38.4313 148.798 40.0301 147.984 41.3306C146.981 42.9334 145.053 43.944 145.135 46.1557C145.168 46.9634 144.938 47.7793 144.387 48.3716C143.071 49.7839 141.459 48.4585 140.715 47.129C139.132 44.2878 138.952 40.8998 138.812 37.6444C138.713 35.3333 138.619 32.9683 139.264 30.7484C139.613 29.539 140.181 28.3958 140.465 27.1699C140.748 25.9439 140.711 24.5523 139.951 23.55C139.827 23.3885 139.622 23.1814 139.367 22.9536C137.328 21.156 134.474 20.6176 131.917 21.5288C127.864 22.9743 120.944 25.1363 119.135 23.7529C116.533 21.7607 115.912 20.4602 115.912 20.4602L114.486 21.9844Z" fill="#263238"/>
<path d="M127.909 52.0577C127.662 52.0412 127.65 53.7062 126.231 54.8824C124.813 56.0628 123.053 55.8682 123.037 56.1001C123.012 56.2036 123.427 56.4232 124.172 56.448C124.899 56.477 125.968 56.2451 126.836 55.5285C127.703 54.8079 128.077 53.8428 128.135 53.1594C128.205 52.4636 128.02 52.0495 127.909 52.0577Z" fill="#263238"/>
</g>
<defs>
<clipPath id="clip0_829_217860">
<rect width="284" height="185" fill="white"/>
</clipPath>
</defs>
</svg>
