<svg width="12" height="27" viewBox="0 0 12 27" fill="none" xmlns="http://www.w3.org/2000/svg">
<path d="M1.01334 7.434L3.10144 7.38L3.81767 25.182C3.83041 25.4669 3.9434 25.7356 4.13318 25.9322C4.32297 26.1288 4.57498 26.2383 4.83693 26.238C4.9066 26.2442 4.97662 26.2442 5.04629 26.238L10.3299 25.038C10.5582 24.9841 10.7624 24.846 10.908 24.647C11.0535 24.448 11.1315 24.2004 11.1288 23.946L11.9993 1.188C12.0044 1.03924 11.9821 0.890871 11.9335 0.751713C11.885 0.612555 11.8112 0.485455 11.7166 0.377975C11.6221 0.270496 11.5086 0.184833 11.383 0.126084C11.2574 0.0673354 11.1222 0.0367005 10.9855 0.0360025L3.86175 2.52809e-06C3.68602 -0.000408081 3.51325 0.049206 3.36055 0.143927C3.20786 0.238647 3.08055 0.375184 2.99125 0.540002L0.13733 5.76C0.0478577 5.92874 0.000512561 6.12005 4.13848e-06 6.3149C-0.000504284 6.50975 0.0458414 6.70135 0.134431 6.87064C0.223021 7.03993 0.350767 7.18101 0.504962 7.27985C0.659158 7.37868 0.834428 7.43183 1.01334 7.434Z" fill="#653624"/>
<path d="M3.39346 5.148L0.335693 5.22L3.1841 0L10.3079 0.036L9.43738 22.836L4.15928 24.036L3.39346 5.148Z" fill="url(#paint0_linear_613_80215)"/>
<path d="M8.76521 0.0299998L3.18409 0L1.24475 3.552L1.9114 3.534L1.97751 5.178L3.39345 5.148L4.07663 22.092L7.96082 21.204L8.76521 0.0299998Z" fill="url(#paint1_linear_613_80215)"/>
<path d="M4.48439 4.77606C4.3531 6.13749 4.33466 7.50903 4.42929 8.87406C4.43915 10.2553 4.56269 11.6328 4.79843 12.9901C4.85352 13.2661 5.22266 13.1881 5.23368 12.9241C5.24267 11.5214 5.18014 10.1192 5.04636 8.72406C5.00251 7.40373 4.88661 6.08741 4.69926 4.78206C4.69926 4.67406 4.50092 4.66806 4.48439 4.78206V4.77606Z" fill="white"/>
<path d="M4.78749 14.0941C4.62751 14.6849 4.64683 15.3162 4.84258 15.8941C4.87146 15.9452 4.91326 15.9861 4.96297 16.012C5.01269 16.0379 5.0682 16.0476 5.12286 16.04C5.17752 16.0324 5.22901 16.0078 5.27116 15.9692C5.3133 15.9305 5.34431 15.8794 5.36048 15.8221C5.42574 15.275 5.41086 14.7201 5.3164 14.1781C5.28885 13.8721 4.85911 13.7461 4.76545 14.1001L4.78749 14.0941Z" fill="white"/>
<defs>
<linearGradient id="paint0_linear_613_80215" x1="5.32179" y1="24.024" x2="5.32179" y2="0" gradientUnits="userSpaceOnUse">
<stop stop-color="#F85453"/>
<stop offset="1" stop-color="#FCCA2E"/>
</linearGradient>
<linearGradient id="paint1_linear_613_80215" x1="5.00773" y1="0" x2="5.00773" y2="22.092" gradientUnits="userSpaceOnUse">
<stop stop-color="#F85453"/>
<stop offset="1" stop-color="#FCCA2E"/>
</linearGradient>
</defs>
</svg>
