<svg width="16" height="23" viewBox="0 0 16 23" fill="none" xmlns="http://www.w3.org/2000/svg">
<path d="M1.44969 19.708L1.49209 19.7552C1.87872 20.2848 2.34429 20.7519 2.87256 21.1403C3.51524 21.6028 4.2393 21.9401 5.00685 22.1345C5.72834 22.3225 6.47093 22.4175 7.21653 22.4171C8.35315 22.433 9.48326 22.243 10.5522 21.8565C11.4992 21.5098 12.3685 20.9798 13.1106 20.297C13.8141 19.6437 14.3713 18.8489 14.7454 17.9648C15.116 17.0867 15.3051 16.1428 15.3014 15.1898V15.1426L15.2731 14.6197C15.2639 13.5925 14.9124 12.5977 14.2743 11.7928C13.9178 11.3656 13.5236 10.9714 13.0964 10.6149C13.4295 10.2557 13.7219 9.86064 13.9681 9.43706C14.428 8.67942 14.7025 7.82382 14.769 6.93998L14.7973 6.43586V6.38403C14.8063 5.42495 14.5747 4.47892 14.1235 3.63254C13.706 2.86218 13.1313 2.18804 12.4368 1.65372L12.3096 1.55949L12.2484 1.51709C12.211 1.48772 12.1716 1.46096 12.1306 1.437L12.074 1.40873L11.8055 1.22969L11.6029 1.09777L11.5087 1.04594L11.2919 0.928158C11.1977 0.876332 11.0988 0.833929 10.9998 0.786814L10.9009 0.7397L10.7266 0.664316C10.5287 0.584221 10.3308 0.508838 10.1329 0.442878C9.29149 0.172298 8.41575 0.023169 7.53219 0H7.11758C6.33933 0.00183998 5.56362 0.0887327 4.80426 0.25913C4.02756 0.430716 3.2874 0.73858 2.61813 1.16844C2.45357 1.27757 2.29619 1.39718 2.14699 1.52651C1.67752 1.92287 1.28469 2.40194 0.987971 2.93995C0.881252 3.12931 0.788353 3.32614 0.709996 3.52889C0.678381 3.60726 0.651632 3.6875 0.629902 3.76917V3.84455V3.91051C0.601389 3.99227 0.577785 4.07565 0.559226 4.16022C0.530957 4.2733 0.512111 4.39108 0.493266 4.50887L0.469707 4.64079L0.441439 4.83396C0.441439 4.97059 0.44144 5.11665 0.413172 5.2627V5.3428C0.413172 5.39463 0.413172 5.45116 0.413172 5.5077C0.408505 5.52145 0.408505 5.53635 0.413172 5.5501C0.410824 5.58147 0.410824 5.61297 0.413172 5.64433L0.441439 6.36519C0.450274 6.5356 0.508408 6.69978 0.608773 6.83778C0.709139 6.97578 0.847415 7.08167 1.00681 7.14258L4.93146 8.59842C5.02761 8.63575 5.12985 8.65492 5.233 8.65496C5.35305 8.65401 5.47163 8.6284 5.58137 8.57972C5.69112 8.53104 5.78969 8.46033 5.87098 8.37198C5.95227 8.28362 6.01454 8.17951 6.05392 8.06609C6.09329 7.95268 6.10895 7.83238 6.09991 7.71266L6.07164 7.29806C6.02359 6.78693 6.14798 6.27444 6.425 5.84221C6.74538 5.48885 6.97153 5.48885 7.0422 5.48885C7.1257 5.48879 7.20858 5.50313 7.28719 5.53126L7.38142 5.56895H7.4097L7.4945 5.61606H7.52748L7.61229 5.68202L7.64527 5.71029C7.68936 5.74429 7.73035 5.78213 7.76777 5.82337C8.04235 6.1587 8.17431 6.58843 8.13526 7.02008V7.08133C8.11685 7.36551 8.05488 7.64518 7.95151 7.91055C7.84429 8.19395 7.68443 8.45452 7.48037 8.67851C7.2447 8.93976 6.95542 9.14707 6.6323 9.28629C6.30797 9.44243 5.95088 9.51837 5.59107 9.50773C5.34908 9.50737 5.10768 9.4837 4.87022 9.43706C4.81389 9.43011 4.75693 9.43011 4.70061 9.43706C4.58305 9.43748 4.46681 9.46194 4.35905 9.50893C4.25129 9.55593 4.15428 9.62446 4.07398 9.71033C3.9719 9.81575 3.89876 9.94572 3.86161 10.0877C3.82447 10.2296 3.8246 10.3788 3.86197 10.5207L4.48388 12.9848C4.531 13.1716 4.63903 13.3374 4.7909 13.456C4.94277 13.5746 5.12983 13.6393 5.32252 13.6397H5.46857C5.69472 13.602 5.93972 13.5643 6.12818 13.536C6.29529 13.5138 6.46371 13.5028 6.6323 13.5031C6.92512 13.4946 7.21749 13.5311 7.49921 13.6114C7.59476 13.6394 7.68653 13.6789 7.77247 13.7292L7.83373 13.7763L7.87142 13.8046L7.91382 13.8517C8.15669 14.1268 8.28632 14.4837 8.2766 14.8505C8.27282 15.1615 8.22036 15.4699 8.12113 15.7646C8.02582 16.0743 7.88787 16.3692 7.71123 16.6409C7.55355 16.884 7.35973 17.1017 7.13643 17.2864C7.00085 17.404 6.83943 17.4879 6.66529 17.5314H6.57577C6.52629 17.5243 6.47903 17.5062 6.43745 17.4785C6.39587 17.4508 6.36103 17.4141 6.33548 17.3712C6.27895 17.2911 6.2177 17.2015 6.14231 17.0838L6.10933 17.0319C6.05279 16.9377 5.99626 16.8388 5.94914 16.7398C5.90203 16.6409 5.86905 16.5655 5.83135 16.476C5.7018 16.1588 5.59475 15.8329 5.51098 15.5007C5.40261 15.0296 5.30367 14.6008 4.88435 14.3888C4.76147 14.3273 4.62601 14.295 4.48858 14.2946C4.4071 14.2956 4.32618 14.3083 4.2483 14.3323L0.625186 15.4112C0.412483 15.473 0.231487 15.6138 0.119341 15.8048C0.00719597 15.9958 -0.0275921 16.2225 0.0221194 16.4383C0.23454 17.4376 0.615311 18.3935 1.14816 19.2652C1.23768 19.4207 1.34604 19.5667 1.44969 19.708Z" fill="#653624"/>
<path d="M3.94679 14.2898C4.03863 14.4561 4.0978 14.6384 4.12112 14.827C4.21237 15.2015 4.33208 15.5684 4.47919 15.9247C4.63776 16.3177 4.84682 16.6883 5.1011 17.0272C5.21227 17.1846 5.35993 17.3126 5.53143 17.4004C5.70292 17.4882 5.89314 17.5331 6.08579 17.5313L6.26012 17.5031C6.57837 17.4305 6.87424 17.2817 7.12232 17.0696C7.41061 16.8321 7.66156 16.5525 7.86673 16.2404C8.08982 15.8987 8.26424 15.5277 8.38499 15.1379C8.51104 14.7595 8.57624 14.3636 8.57816 13.9648C8.58501 13.3936 8.38409 12.8394 8.01279 12.4053C7.64058 11.9577 6.98569 11.7362 6.05282 11.7362C5.84462 11.7362 5.63672 11.752 5.4309 11.7834C5.21417 11.8116 4.95976 11.8446 4.74774 11.887L4.12112 9.4182C4.41567 9.47851 4.71563 9.5085 5.0163 9.50771C5.50522 9.51544 5.9892 9.40896 6.42974 9.19676C6.82524 9.0056 7.17908 8.73821 7.47097 8.40994C7.74202 8.10515 7.95304 7.75187 8.09288 7.36871C8.229 7.01733 8.31005 6.64705 8.33316 6.27094V6.18142C8.37354 5.52512 8.15539 4.8791 7.72539 4.38164C7.55675 4.18727 7.34935 4.03029 7.11649 3.92076C6.88364 3.81122 6.63046 3.75156 6.37319 3.74559C6.1293 3.75424 5.89017 3.81557 5.67222 3.92536C5.45426 4.03515 5.26265 4.19081 5.11053 4.38164C4.67145 4.98071 4.46697 5.71984 4.53573 6.4594L4.56399 6.90227L0.644061 5.44643L0.611077 4.76327C0.582277 3.97344 0.762691 3.19002 1.13405 2.49234C1.46518 1.9038 1.93399 1.40426 2.50037 1.0365C3.07628 0.663297 3.71465 0.396778 4.38496 0.249688C5.082 0.090219 5.79477 0.00961799 6.50983 0.00940347H6.92444C7.7169 0.0315534 8.50216 0.166397 9.25661 0.409878C9.99652 0.648556 10.691 1.01011 11.3108 1.47938C11.914 1.93136 12.4163 2.50424 12.7855 3.16137C13.1626 3.88827 13.3505 4.69843 13.332 5.5171L13.3038 6.02123C13.2459 6.76888 13.0118 7.49219 12.6206 8.13197C12.2535 8.7923 11.7451 9.36343 11.1318 9.80454C11.8363 10.2733 12.4708 10.8396 13.0164 11.4865C13.5303 12.1432 13.812 12.9518 13.8173 13.7857L13.8456 14.3228C13.8563 15.1584 13.696 15.9874 13.3744 16.7587C13.0522 17.5293 12.5705 18.2229 11.961 18.794C11.3007 19.3995 10.5274 19.8686 9.68535 20.1745C8.71462 20.5255 7.68797 20.6963 6.65589 20.6786C5.98534 20.6783 5.31744 20.5944 4.66765 20.4289C4.00999 20.2576 3.39004 19.9652 2.8396 19.5667C2.23931 19.1221 1.72924 18.5673 1.33665 17.9318C0.845732 17.1398 0.493595 16.2698 0.29541 15.3593L3.94679 14.2898Z" fill="url(#paint0_linear_613_80294)"/>
<path d="M5.35081 19.4159C6.38477 19.4327 7.41308 19.2603 8.38499 18.9071C9.22784 18.6029 10.0015 18.1336 10.6606 17.5266C11.2698 16.9552 11.7515 16.2617 12.0741 15.4913C12.3932 14.7192 12.5535 13.8908 12.5452 13.0554V12.523C12.5348 11.726 12.2762 10.952 11.8055 10.3087C11.5935 10.1343 11.3721 9.96943 11.1365 9.80453L11.2731 9.70088C10.8394 9.27106 10.3661 8.88301 9.85968 8.54186C10.4715 8.10433 10.9785 7.53624 11.3438 6.87871C11.7378 6.24024 11.9721 5.51622 12.027 4.76798L12.0599 4.26385C12.079 3.44455 11.8893 2.63387 11.5087 1.90812C11.4009 1.7151 11.283 1.52795 11.1553 1.34745C10.5795 0.937985 9.94381 0.620123 9.27075 0.405162C8.5163 0.161681 7.73103 0.0268372 6.93858 0.00468731H6.52396C5.80891 0.00490184 5.09615 0.0855029 4.3991 0.244972C3.72879 0.392062 3.09042 0.658581 2.51451 1.03179C1.94813 1.39955 1.47931 1.89908 1.14818 2.48763C0.794497 3.14765 0.616059 3.88737 0.629927 4.63606L3.31074 5.63489L3.28248 5.16374C3.21639 4.42811 3.4226 3.6938 3.86199 3.10012C4.01323 2.90795 4.20454 2.75106 4.42261 2.6404C4.64069 2.52973 4.88027 2.46795 5.12466 2.45936C5.38249 2.46474 5.63627 2.52462 5.86932 2.63505C6.10236 2.74548 6.30941 2.90398 6.47685 3.10012C6.66917 3.30459 6.81679 3.54688 6.9103 3.81155C7.229 3.92469 7.51526 4.11391 7.74423 4.36279C8.17423 4.86025 8.39239 5.50627 8.35202 6.16257V6.25209C8.3289 6.6282 8.24784 6.99848 8.11173 7.34986C7.97188 7.73302 7.76088 8.0863 7.48982 8.39109C7.19143 8.72917 6.8276 9.00325 6.42031 9.19675C5.97977 9.40896 5.4958 9.51543 5.00687 9.50771C4.70621 9.5085 4.40625 9.4785 4.1117 9.41819L4.38496 10.4924C4.51679 10.4856 4.64889 10.4856 4.78073 10.4924C5.72302 10.4924 6.36377 10.7138 6.74069 11.1567C6.92782 11.3784 7.0731 11.6322 7.16943 11.9058C7.49231 11.9929 7.78238 12.1731 8.00336 12.4241C8.37467 12.8582 8.57559 13.4124 8.56874 13.9836C8.56682 14.3824 8.50162 14.7784 8.37557 15.1568C8.25482 15.5465 8.0804 15.9176 7.85731 16.2592C7.65213 16.5714 7.40119 16.8509 7.1129 17.0885C6.86482 17.3006 6.56894 17.4493 6.2507 17.5219L6.07638 17.5502C5.88372 17.552 5.6935 17.5071 5.522 17.4193C5.35051 17.3315 5.20285 17.2034 5.09168 17.0461C4.90994 16.8027 4.75216 16.5424 4.62053 16.2687C4.30628 16.2218 4.02337 16.0524 3.83372 15.7975C3.57535 15.4621 3.36449 15.0927 3.20709 14.6997L3.15527 14.5584L0.29541 15.3593C0.483356 16.2678 0.824293 17.1376 1.30366 17.9318C1.39318 18.0684 1.4827 18.2004 1.57693 18.3229C2.11606 18.7118 2.72334 18.9963 3.36729 19.1615C4.01504 19.3299 4.68153 19.4154 5.35081 19.4159Z" fill="url(#paint1_linear_613_80294)"/>
<path d="M9.41681 1.22025C7.96568 0.353345 5.45446 0.174309 4.02689 1.22025C3.92324 1.30035 3.93738 1.5265 4.10228 1.50294C4.95505 1.39458 5.76542 1.12131 6.62762 1.07891C7.54651 1.07485 8.46301 1.17282 9.36027 1.37102C9.37738 1.37442 9.39513 1.37177 9.41051 1.36355C9.42589 1.35532 9.43793 1.34202 9.4446 1.3259C9.45127 1.30979 9.45214 1.29186 9.44707 1.27517C9.44201 1.25849 9.43131 1.24407 9.41681 1.23439V1.22025Z" fill="white"/>
<path d="M2.9385 1.96466C2.57929 2.12436 2.28441 2.40047 2.10147 2.7484C1.91852 3.09634 1.8582 3.49579 1.93024 3.88223C1.94104 3.91949 1.96364 3.95224 1.99466 3.97555C2.02567 3.99886 2.06342 4.01146 2.10221 4.01146C2.14101 4.01146 2.17876 3.99886 2.20977 3.97555C2.24078 3.95224 2.26338 3.91949 2.27418 3.88223C2.44843 3.24389 2.70167 2.6298 3.02801 2.05418C3.06571 1.99764 2.99032 1.93639 2.9385 1.96466Z" fill="white"/>
<defs>
<linearGradient id="paint0_linear_613_80294" x1="7.06578" y1="20.6786" x2="7.06578" y2="-1.93106e-05" gradientUnits="userSpaceOnUse">
<stop stop-color="#F85453"/>
<stop offset="1" stop-color="#FCCA2E"/>
</linearGradient>
<linearGradient id="paint1_linear_613_80294" x1="6.42973" y1="-2.41537e-05" x2="6.42973" y2="19.4159" gradientUnits="userSpaceOnUse">
<stop stop-color="#F85453"/>
<stop offset="1" stop-color="#FCCA2E"/>
</linearGradient>
</defs>
</svg>
