<svg width="15" height="22" viewBox="0 0 15 22" fill="none" xmlns="http://www.w3.org/2000/svg">
<path d="M2.74828 10.9288C2.82026 11.0682 2.92535 11.184 3.05261 11.2643C3.17987 11.3445 3.32464 11.3863 3.47183 11.3852H3.53514C3.68962 11.3776 3.839 11.323 3.96617 11.2275C4.09334 11.132 4.19315 10.9996 4.25417 10.8454C4.47095 10.2959 4.74561 9.77555 5.07269 9.29465C5.34093 8.89293 5.65381 8.52867 6.00426 8.2101C6.26573 7.96782 6.56013 7.77083 6.87704 7.62612C7.08176 7.52929 7.30073 7.47279 7.52371 7.45927C7.57911 7.44938 7.63563 7.44938 7.69103 7.45927L7.72269 7.48871L7.75434 7.5476C7.85307 7.76328 7.9173 7.9956 7.94427 8.23464C7.94876 8.31309 7.94876 8.39176 7.94427 8.4702C7.91622 9.20524 7.68978 9.91513 7.29308 10.5117C6.77526 11.362 6.16824 12.1443 5.4842 12.8427C4.73807 13.6096 3.9465 14.3227 3.11458 14.9774C2.26893 15.6449 1.50921 16.2092 0.853488 16.646C0.722871 16.7349 0.617428 16.8612 0.548799 17.011C0.480169 17.1608 0.451024 17.3283 0.46458 17.495L0.749477 20.8075C0.768184 21.0272 0.860403 21.2319 1.00871 21.3829C1.15702 21.5339 1.35115 21.6207 1.55443 21.627L13.4161 22C13.5314 21.9998 13.6453 21.9736 13.7508 21.9231C13.8562 21.8726 13.9508 21.7988 14.0286 21.7066C14.1064 21.6143 14.1657 21.5055 14.2027 21.387C14.2398 21.2686 14.2537 21.1431 14.2437 21.0185L13.8729 15.7921C13.858 15.5651 13.7642 15.3528 13.6106 15.1979C13.457 15.0431 13.255 14.9572 13.0453 14.9578H12.8915L10.852 15.4191C11.604 14.6256 12.2812 13.7527 12.8735 12.8133C13.5143 11.794 14.034 10.6909 14.42 9.5302C14.7897 8.45245 14.9855 7.31362 14.9989 6.16371C15.0164 5.21232 14.829 4.26963 14.4517 3.41064C14.1058 2.63786 13.5959 1.96512 12.9639 1.44767L12.774 1.30536L12.7016 1.24647L12.5795 1.18758L12.3715 1.05017C12.2856 0.99619 12.1951 0.942209 12.0821 0.88332L11.8967 0.780264L11.5756 0.633041H11.5258L11.3947 0.574152C11.2093 0.500541 11.0374 0.441652 10.8656 0.38767C10.0992 0.14939 9.30675 0.023946 8.50955 0.0147057C7.73436 0.020223 6.96168 0.110651 6.20323 0.284614C5.39098 0.463669 4.60254 0.752171 3.85622 1.14341C3.47235 1.3436 3.1021 1.57319 2.74828 1.83045C2.38979 2.09261 2.04831 2.3812 1.72627 2.69416C1.39391 3.02565 1.09109 3.39042 0.821833 3.78361C0.546654 4.18681 0.304546 4.61539 0.0982845 5.06445C0.0337545 5.19586 0 5.34248 0 5.49139C0 5.6403 0.0337545 5.78692 0.0982845 5.91834L2.74828 10.9288Z" fill="#653624"/>
<path d="M0.292725 4.5639C0.64496 3.77241 1.13126 3.05989 1.72626 2.46352C2.3071 1.89285 2.96233 1.41826 3.6708 1.05509C4.35557 0.696468 5.07857 0.43109 5.82335 0.264995C6.52662 0.102657 7.24335 0.0187951 7.96235 0.0147168C8.68518 0.0134566 9.4048 0.119121 10.1013 0.328792C10.753 0.518119 11.3665 0.837655 11.9102 1.27102C12.4376 1.69776 12.8639 2.25454 13.1538 2.89538C13.4708 3.63016 13.6256 4.43499 13.606 5.24603C13.5934 6.29222 13.4144 7.32818 13.0769 8.30826C12.715 9.40349 12.2256 10.4441 11.6208 11.4049C10.9995 12.4047 10.2742 13.3235 9.45919 14.1432C8.66832 14.952 7.76866 15.6254 6.7911 16.1405L12.5252 14.9971L12.896 20.2235L1.06149 19.8358L0.776598 16.5233C1.44136 16.0669 2.20561 15.5025 3.07387 14.8204C3.93498 14.1422 4.75378 13.4028 5.52489 12.6072C6.25631 11.8602 6.90716 11.0255 7.46491 10.1191C7.94934 9.37312 8.22136 8.48924 8.24724 7.57706C8.24603 7.12081 8.14858 6.67092 7.96235 6.26187C7.87424 6.0591 7.73157 5.89007 7.55316 5.77706C7.37475 5.66404 7.16897 5.61236 6.96295 5.62881C6.63005 5.64058 6.302 5.71877 5.9952 5.85946C5.59325 6.04511 5.22085 6.29851 4.89178 6.6103C4.49038 6.97316 4.13191 7.38854 3.82455 7.84697C3.46301 8.38497 3.15955 8.96621 2.92011 9.57929L0.292725 4.5639Z" fill="url(#paint0_linear_613_80255)"/>
<path d="M8.24275 12.828C9.05839 12.0044 9.78648 11.0842 10.4134 10.0848C11.0176 9.12615 11.5055 8.08703 11.865 6.99309C12.2017 6.01277 12.3807 4.97695 12.3941 3.93086C12.4137 3.11824 12.2589 2.3118 11.9419 1.57529C11.866 1.4067 11.7815 1.24286 11.6886 1.08455C11.2025 0.73729 10.6681 0.477145 10.1059 0.314086C9.40935 0.104415 8.68973 -0.00124905 7.96689 1.11398e-05C7.2479 0.0040894 6.53117 0.087952 5.8279 0.25029C5.08096 0.420693 4.3564 0.691031 3.67082 1.05511C2.96235 1.41828 2.30712 1.89286 1.72628 2.46354C1.12479 3.05817 0.632276 3.7708 0.274658 4.56392L1.92073 7.71448C2.1245 7.29657 2.3621 6.89914 2.63072 6.52689C2.94101 6.06954 3.30085 5.65434 3.70247 5.29021C4.0299 4.98733 4.39921 4.74223 4.79684 4.56392C5.1046 4.42109 5.43451 4.34283 5.76911 4.33327C5.97459 4.31645 6.17992 4.36804 6.35768 4.48115C6.53544 4.59426 6.67718 4.76352 6.76399 4.96632C6.86508 5.18218 6.93958 5.41152 6.98558 5.64846C7.19076 5.6337 7.3953 5.68616 7.57269 5.79904C7.75007 5.91191 7.89213 6.08 7.98046 6.28151C8.16669 6.69056 8.26414 7.14046 8.26536 7.5967C8.23947 8.50888 7.96745 9.39276 7.48302 10.1388C6.92527 11.0452 6.27443 11.8799 5.543 12.6268C4.76898 13.4228 3.94715 14.1622 3.08293 14.8401C2.21467 15.5222 1.45042 16.0865 0.785664 16.5429L0.962029 18.5697L11.6751 18.9083L11.4173 15.2179L6.79112 16.1405C7.76869 15.6255 8.66835 14.952 9.45921 14.1432L9.57679 14.0254L5.57918 14.8204C6.55521 14.3071 7.45339 13.6352 8.24275 12.828Z" fill="url(#paint1_linear_613_80255)"/>
<path d="M10.0517 0.981536C8.99801 0.59385 7.63683 0.844128 6.56507 1.04533C5.49332 1.24654 4.10048 1.58515 3.31815 2.4096C3.29528 2.43493 3.28071 2.4677 3.27666 2.50288C3.27262 2.53807 3.27933 2.57372 3.29576 2.60437C3.31219 2.63502 3.33743 2.65897 3.36762 2.67254C3.39781 2.68611 3.43126 2.68856 3.46285 2.67951C4.00456 2.5066 4.53361 2.29007 5.04562 2.03173C5.58282 1.8311 6.13108 1.6672 6.68717 1.54098C7.28557 1.39031 7.89578 1.30158 8.50961 1.27598C9.02062 1.27598 9.53163 1.31524 10.0336 1.24163C10.1647 1.24163 10.1376 1.01589 10.0336 0.981536H10.0517Z" fill="white"/>
<path d="M2.37751 3.28797C1.86453 3.49321 1.44367 3.90425 1.20174 4.43631C1.152 4.59826 1.32836 4.71113 1.45046 4.64242C1.864 4.32801 2.23272 3.94936 2.54483 3.51862C2.56993 3.4935 2.58537 3.45903 2.58808 3.42209C2.59078 3.38515 2.58055 3.34847 2.55943 3.31935C2.53831 3.29024 2.50785 3.27084 2.47413 3.26502C2.44041 3.2592 2.40591 3.2674 2.37751 3.28797Z" fill="white"/>
<defs>
<linearGradient id="paint0_linear_613_80255" x1="6.94938" y1="20.2235" x2="6.94938" y2="0.0147177" gradientUnits="userSpaceOnUse">
<stop stop-color="#F85453"/>
<stop offset="1" stop-color="#FCCA2E"/>
</linearGradient>
<linearGradient id="paint1_linear_613_80255" x1="6.34343" y1="0.0147334" x2="6.34343" y2="18.9083" gradientUnits="userSpaceOnUse">
<stop stop-color="#F85453"/>
<stop offset="1" stop-color="#FCCA2E"/>
</linearGradient>
</defs>
</svg>
