<svg width="28" height="28" viewBox="0 0 28 28" fill="none" xmlns="http://www.w3.org/2000/svg">
<path d="M12.8333 4.66667H9.1C7.13982 4.66667 6.15972 4.66667 5.41103 5.04814C4.75247 5.3837 4.21703 5.91913 3.88148 6.5777C3.5 7.32639 3.5 8.30648 3.5 10.2667V18.9C3.5 20.8602 3.5 21.8403 3.88148 22.589C4.21703 23.2475 4.75247 23.783 5.41103 24.1185C6.15972 24.5 7.13982 24.5 9.1 24.5H17.7333C19.6935 24.5 20.6736 24.5 21.4223 24.1185C22.0809 23.783 22.6163 23.2475 22.9519 22.589C23.3333 21.8403 23.3333 20.8602 23.3333 18.9V15.1667M15.1667 19.8333H8.16667M17.5 15.1667H8.16667M23.4749 4.52513C24.8417 5.89196 24.8417 8.10804 23.4749 9.47487C22.108 10.8417 19.892 10.8417 18.5251 9.47487C17.1583 8.10804 17.1583 5.89196 18.5251 4.52513C19.892 3.15829 22.108 3.15829 23.4749 4.52513Z" stroke="#018893" stroke-width="2" stroke-linecap="round" stroke-linejoin="round"/>
</svg>
