<svg width="23" height="20" viewBox="0 0 23 20" fill="none" xmlns="http://www.w3.org/2000/svg">
<g clip-path="url(#clip0_136_20124)">
<path d="M15.2813 8.11005L15.2204 3.17421C15.1647 1.94692 15.8423 0.891591 17.0882 0.871059L17.2032 0.875679C18.3626 0.922902 19.291 1.84016 19.3368 2.98378C19.379 4.04784 19.4118 5.22431 19.3811 5.79304C19.3171 6.97054 18.1149 7.10502 18.1149 7.10502C18.1123 7.10502 18.1076 7.82158 18.1082 8.16754L18.0415 8.9806L17.4056 8.73986L15.2813 8.11005Z" fill="#AE7461"/>
<path d="M18.1087 7.11118C18.1087 7.11118 17.3541 7.12401 16.5729 6.59429C16.5729 6.59429 16.9102 7.49512 18.1061 7.43763L18.1087 7.11118Z" fill="#6F4439"/>
<path d="M18.8055 3.95955C18.805 4.04835 18.728 4.12124 18.6338 4.12278C18.5396 4.12381 18.4636 4.05297 18.4641 3.96417C18.4646 3.87537 18.5417 3.80197 18.6353 3.80094C18.73 3.7994 18.806 3.87024 18.8055 3.95955Z" fill="#263238"/>
<path d="M19.061 3.45293C19.0392 3.47397 18.9137 3.3744 18.73 3.36721C18.5468 3.35746 18.4084 3.44523 18.3892 3.42213C18.3798 3.41187 18.4032 3.37337 18.4636 3.33333C18.5229 3.29381 18.6233 3.25685 18.7373 3.26198C18.8518 3.26712 18.946 3.3128 18.9996 3.35746C19.0542 3.40314 19.0719 3.44369 19.061 3.45293Z" fill="#263238"/>
<path d="M17.1891 3.9267C17.1886 4.0155 17.1116 4.08839 17.0174 4.08993C16.9232 4.09096 16.8472 4.02012 16.8477 3.93132C16.8482 3.84252 16.9253 3.76963 17.0189 3.76809C17.1137 3.76655 17.1896 3.8379 17.1891 3.9267Z" fill="#263238"/>
<path d="M17.2604 3.42162C17.2386 3.44266 17.1131 3.34308 16.9294 3.3359C16.7463 3.32615 16.6078 3.41392 16.5886 3.39082C16.5792 3.38055 16.6021 3.34206 16.663 3.30202C16.7223 3.2625 16.8228 3.22554 16.9367 3.23067C17.0512 3.23581 17.1454 3.28149 17.199 3.32615C17.2536 3.37183 17.2713 3.41238 17.2604 3.42162Z" fill="#263238"/>
<path d="M17.8605 4.83934C17.8599 4.82907 17.9749 4.81419 18.1607 4.79828C18.2081 4.7952 18.2523 4.78801 18.2617 4.7567C18.2742 4.72385 18.2565 4.67303 18.2362 4.61862C18.1966 4.50518 18.1555 4.3861 18.1123 4.26086C17.9406 3.75167 17.8188 3.33436 17.8396 3.32769C17.8605 3.32101 18.0166 3.72806 18.1878 4.23724C18.2289 4.36249 18.2685 4.48209 18.3059 4.59655C18.3215 4.64993 18.3496 4.7105 18.3226 4.77877C18.3085 4.81265 18.2731 4.83626 18.243 4.84345C18.2128 4.85114 18.1862 4.85063 18.1628 4.85114C17.976 4.85371 17.861 4.8496 17.8605 4.83934Z" fill="#263238"/>
<path d="M16.5157 2.76768C16.5324 2.71789 16.7161 2.73483 16.9305 2.70249C17.1454 2.67375 17.3171 2.60599 17.3473 2.64911C17.3609 2.66964 17.3322 2.71738 17.2635 2.76717C17.1954 2.81696 17.0861 2.86623 16.957 2.88471C16.8285 2.90319 16.7093 2.88677 16.6297 2.85802C16.5501 2.82876 16.5089 2.79129 16.5157 2.76768Z" fill="#263238"/>
<path d="M18.4131 2.62191C18.4636 2.59624 18.5885 2.68761 18.7566 2.75074C18.9226 2.81901 19.0777 2.83852 19.0954 2.89087C19.1027 2.91551 19.0657 2.94631 18.9892 2.96017C18.9143 2.97402 18.7998 2.96633 18.6853 2.92116C18.5703 2.87599 18.4834 2.80412 18.4391 2.74356C18.3949 2.68196 18.3902 2.63474 18.4131 2.62191Z" fill="#263238"/>
<path d="M15.2813 4.00985C15.2615 4.0001 14.471 3.73729 14.4632 4.54317C14.4554 5.34955 15.2776 5.19094 15.2797 5.16784C15.2813 5.14475 15.2813 4.00985 15.2813 4.00985Z" fill="#AE7461"/>
<path d="M15.0331 4.86038C15.0294 4.85782 15.0185 4.87013 14.9945 4.88091C14.9711 4.89118 14.9305 4.89837 14.8879 4.88194C14.802 4.85012 14.7302 4.71409 14.7276 4.56883C14.726 4.49543 14.7427 4.42562 14.7692 4.36813C14.7947 4.30962 14.8337 4.26855 14.8775 4.26137C14.9206 4.25213 14.9514 4.27779 14.9612 4.30089C14.9722 4.32348 14.9664 4.33939 14.9711 4.34093C14.9732 4.34298 14.9888 4.32758 14.9826 4.29422C14.9795 4.27831 14.9701 4.2588 14.9508 4.2434C14.9316 4.22749 14.9024 4.21928 14.8722 4.22236C14.8093 4.22595 14.752 4.28293 14.7224 4.34606C14.6891 4.40971 14.6693 4.48773 14.6708 4.57037C14.6745 4.73308 14.7572 4.88553 14.8754 4.92044C14.9326 4.93584 14.981 4.9189 15.006 4.90042C15.031 4.87989 15.0357 4.86192 15.0331 4.86038Z" fill="#6F4439"/>
<path d="M20.987 1.88225C20.9746 1.83451 20.9402 1.79499 20.8975 1.76984C20.8044 1.7144 20.6967 1.72005 20.5921 1.71748C20.3329 1.71029 20.0763 1.64203 19.8463 1.52397C19.9275 1.48444 20.0035 1.4362 20.068 1.37409C20.2018 1.24576 20.2798 1.04712 20.2215 0.872598C20.2106 0.839747 20.1919 0.805356 20.158 0.794577C20.105 0.778152 20.0581 0.828968 20.0206 0.869005C19.8973 1.00195 19.7844 1.05841 19.6028 1.03788C19.4898 1.02556 19.3811 0.999382 19.2931 0.943946C19.2895 0.940353 19.2864 0.936246 19.2832 0.932653C19.2411 0.889023 19.2 0.846933 19.1599 0.806896C19.1599 0.806896 19.1599 0.806896 19.1599 0.806383C18.8549 0.501999 18.5932 0.290522 18.322 0.179651C17.925 0.0169364 17.2578 -0.0549248 16.8404 0.0482473C16.4231 0.151419 16.0452 0.479928 15.9828 0.899803C15.7517 0.702698 15.4015 0.700131 15.1158 0.809976L15.1085 0.806896C14.7905 0.914688 14.6068 1.24268 14.51 1.5599C14.5048 1.57735 14.5001 1.5948 14.4949 1.61225C14.3862 1.77856 14.2389 1.92023 14.064 2.01776C14.0333 2.03521 13.998 2.05625 13.9938 2.09065C13.9896 2.12504 14.0188 2.15378 14.0474 2.17431C14.1229 2.22872 14.2108 2.26517 14.3024 2.2821C14.2727 2.35756 14.2379 2.43045 14.1947 2.50025C14.1582 2.55928 14.115 2.63063 14.1452 2.69274C14.1686 2.74099 14.2306 2.76152 14.2842 2.75433C14.3378 2.74715 14.3862 2.7184 14.4325 2.69017C14.3961 2.77333 14.3602 2.85597 14.3237 2.93912C14.4382 2.96017 14.5569 2.95247 14.6682 2.92013C14.7323 3.21887 14.7765 3.77066 14.8514 3.97341C15.0684 3.97957 15.1215 3.95698 15.2303 3.99394C15.3713 4.04168 15.3146 4.28857 15.4993 4.2203C15.5935 4.1854 15.7413 3.83636 15.7741 3.74294C15.9896 3.1198 16.0666 2.45098 15.9989 1.79653C16.1316 1.65999 16.2914 1.54912 16.4663 1.47213L16.4522 1.48444C16.7879 1.37357 17.1672 1.26527 17.4826 1.42336C17.7272 1.54604 17.8688 1.79961 18.0504 2.00236C18.3944 2.38682 18.7868 2.5947 19.3061 2.62242C19.3488 2.97916 19.3561 3.56123 19.3701 3.89385L19.6652 3.23221V3.23478C19.6891 3.19628 19.7084 3.15676 19.7277 3.11775L19.7344 3.10594V3.1044C19.7646 3.04178 19.7932 2.97864 19.8312 2.91654C19.8323 2.91756 19.8333 2.91859 19.8343 2.91962C20.0149 3.08028 20.2866 2.84057 20.145 2.64552C20.1169 2.60702 20.0831 2.57212 20.0446 2.54337C20.1273 2.62139 20.2512 2.65989 20.361 2.62806C20.4708 2.59624 20.5567 2.48793 20.5489 2.37552C20.5431 2.29853 20.4885 2.22923 20.4188 2.19844C20.566 2.21127 20.717 2.1815 20.8465 2.11066C20.9308 2.06447 21.0141 1.98696 20.987 1.88225Z" fill="#263238"/>
<path d="M16.3575 1.03942C16.3601 1.0425 16.307 1.07021 16.2362 1.14618C16.166 1.22215 16.0869 1.35458 16.0478 1.53577C16.0281 1.6256 16.0151 1.72672 16.014 1.83554C16.0125 1.94436 16.0197 2.06087 16.027 2.18355C16.0338 2.30623 16.0411 2.43609 16.0317 2.57057C16.027 2.63782 16.0182 2.70608 16.0026 2.77435C15.987 2.84159 15.9682 2.91397 15.9157 2.97146C15.874 3.01817 15.8053 3.03819 15.746 3.02535C15.6862 3.01406 15.6336 2.98224 15.5951 2.93912C15.5191 2.84981 15.5014 2.73688 15.4832 2.63782L15.5082 2.6409C15.466 2.7297 15.4228 2.81696 15.3599 2.88625C15.2974 2.95606 15.2121 3.00174 15.1257 3.00841C15.0825 3.01201 15.0393 3.00431 15.0023 2.98583C14.9649 2.96735 14.9378 2.93604 14.9196 2.9037C14.9019 2.87034 14.8931 2.83389 14.8957 2.79899C14.8983 2.76409 14.9123 2.73072 14.9352 2.70762L14.9477 2.71892C14.854 2.82158 14.7562 2.87598 14.6885 2.90627C14.6542 2.92115 14.6271 2.93039 14.6084 2.93604C14.5897 2.94117 14.5798 2.94323 14.5798 2.94271C14.5798 2.94169 14.5891 2.93809 14.6068 2.93142C14.6245 2.92423 14.6511 2.91397 14.6844 2.89806C14.7499 2.86572 14.8452 2.80977 14.9347 2.70762L14.9472 2.71892C14.9066 2.76049 14.9035 2.83441 14.9373 2.89395C14.9545 2.92321 14.9794 2.95093 15.0122 2.96684C15.045 2.98326 15.0846 2.98942 15.1236 2.98583C15.2032 2.97916 15.2828 2.93604 15.3411 2.86931C15.401 2.8031 15.4426 2.71789 15.4842 2.62909L15.5019 2.59162L15.5092 2.63268C15.5274 2.73175 15.5462 2.84005 15.6159 2.92064C15.6502 2.95965 15.6986 2.9884 15.7512 2.99764C15.8038 3.00841 15.8589 2.99199 15.8954 2.95195C15.9412 2.90268 15.9599 2.83338 15.9755 2.76768C15.9906 2.70095 16 2.63422 16.0046 2.56801C16.0145 2.43558 16.0078 2.30674 16.0015 2.18406C15.9953 2.06139 15.9885 1.94436 15.9911 1.83451C15.9932 1.72467 16.0078 1.62252 16.0291 1.53115C16.0707 1.34739 16.1545 1.21342 16.2284 1.13848C16.3028 1.06354 16.3575 1.03942 16.3575 1.03942Z" fill="#455A64"/>
<path d="M20.0456 2.22924C20.0462 2.22975 20.0425 2.23232 20.0357 2.23694C20.0274 2.24258 20.0175 2.24977 20.0056 2.25798C19.9926 2.26773 19.9759 2.27851 19.9546 2.28929C19.9337 2.30058 19.9098 2.31444 19.8812 2.32625C19.7693 2.37706 19.5908 2.42685 19.3681 2.41146C19.1474 2.39657 18.8836 2.3165 18.6489 2.14044C18.4116 1.96797 18.2049 1.71594 18.0369 1.42798C17.9515 1.28426 17.8823 1.13695 17.8058 1.00092C17.7298 0.8649 17.6455 0.738629 17.5425 0.638537C17.441 0.537931 17.3223 0.463504 17.2 0.428086C17.1392 0.409608 17.0772 0.404475 17.0184 0.405501C16.9591 0.408068 16.9034 0.418847 16.8514 0.435273C16.7478 0.468123 16.664 0.523559 16.6 0.580535C16.536 0.638024 16.4928 0.699106 16.4631 0.751975C16.4075 0.859767 16.4038 0.929575 16.3991 0.928035C16.3986 0.928035 16.3991 0.923929 16.4002 0.915716C16.4017 0.905963 16.4038 0.894158 16.4064 0.879785C16.4127 0.848474 16.4267 0.802791 16.4533 0.746842C16.4819 0.692433 16.5251 0.629298 16.5891 0.569242C16.6531 0.5097 16.7384 0.451698 16.8446 0.416794C16.8977 0.399342 16.9554 0.387536 17.0169 0.384456C17.0777 0.382917 17.1428 0.387536 17.2058 0.406528C17.3333 0.441945 17.4556 0.518426 17.5596 0.620572C17.6653 0.722204 17.7517 0.850528 17.8287 0.987577C17.9062 1.12463 17.9754 1.27143 18.0603 1.41412C18.2273 1.70003 18.4313 1.94898 18.6634 2.1199C18.8934 2.29442 19.1516 2.37501 19.3686 2.39195C19.5877 2.4094 19.7641 2.36372 19.876 2.3165C19.99 2.26876 20.0436 2.22564 20.0456 2.22924Z" fill="#455A64"/>
<path d="M20.1606 1.71183C20.1617 1.71337 20.1461 1.72364 20.1174 1.74109C20.0888 1.75854 20.0451 1.78061 19.9894 1.8032C19.9337 1.82681 19.865 1.84837 19.7875 1.86633C19.7094 1.88276 19.622 1.89457 19.5299 1.89713C19.4378 1.89867 19.3498 1.88995 19.2712 1.87711C19.1927 1.86223 19.1235 1.84375 19.0667 1.8227C19.01 1.80217 18.9658 1.78215 18.9366 1.76573C18.907 1.74982 18.8913 1.74006 18.8924 1.73852C18.895 1.7339 18.9606 1.7683 19.0735 1.80423C19.1297 1.8227 19.1984 1.83913 19.2759 1.85248C19.3535 1.86428 19.4393 1.87147 19.5299 1.87044C19.6204 1.86787 19.7058 1.85709 19.7828 1.84221C19.8593 1.82578 19.9275 1.80679 19.9832 1.78626C20.094 1.74417 20.158 1.70721 20.1606 1.71183Z" fill="#455A64"/>
<path d="M17.8433 5.39061C17.8339 5.36136 17.6408 5.43476 17.4399 5.3244C17.2385 5.21455 17.1803 5.00359 17.1532 5.01232C17.1402 5.01437 17.1334 5.07186 17.1646 5.15809C17.1948 5.2433 17.2703 5.3552 17.3931 5.42295C17.5159 5.49019 17.645 5.49019 17.7267 5.46607C17.81 5.44246 17.8495 5.40293 17.8433 5.39061Z" fill="#263238"/>
<path d="M18.1087 7.98121C18.1087 7.98121 20.1018 8.80248 20.6368 9.18796C21.1718 9.57345 20.7955 12.2097 20.8367 12.7579C20.8778 13.3056 20.7981 17.3781 20.7981 17.3781C20.7981 17.3781 21.0823 19.5447 20.973 19.9271C20.973 19.9271 17.748 20.0436 16.4933 19.9831C15.2386 19.9225 12.6949 20.0005 12.6949 20.0005L12.7714 17.1209L12.8744 12.6157L12.0927 8.6988L15.1808 7.57417L15.2464 7.38014C15.2464 7.38014 16.3757 8.38466 17.0751 8.34411C17.774 8.30356 18.1087 7.98121 18.1087 7.98121Z" fill="#FFBE3B"/>
<g opacity="0.3">
<path d="M12.6454 16.3469C12.7157 16.1672 12.8541 16.0235 12.9936 15.8885C13.9875 14.9245 15.1814 14.1613 16.4803 13.6608C16.983 13.4668 17.5086 13.3107 18.0483 13.2953C18.588 13.2799 19.1464 13.416 19.5632 13.7542C20.1143 14.2008 20.3459 14.9266 20.4458 15.6231C20.5463 16.3197 20.5447 17.0362 20.7575 17.7081L20.8819 18.3277C20.6748 18.4175 20.4245 18.341 20.2538 18.1942C20.0836 18.0474 19.978 17.8426 19.8838 17.6399C19.5825 16.9906 19.3556 16.3079 19.2088 15.6088C19.125 15.2094 19.0459 14.7675 18.7254 14.5098C18.3725 14.2265 17.8552 14.2742 17.4207 14.4061C15.9838 14.8419 14.8957 15.9763 13.6347 16.7842C13.3579 16.9618 12.9634 17.1143 12.7276 16.8864C12.5887 16.7508 12.5752 16.526 12.6454 16.3469Z" fill="#FFBE3B"/>
</g>
<path d="M12.0917 8.6988C12.0917 8.6988 11.5645 8.98573 11.3496 9.32193C11.1352 9.65814 10.2765 12.1979 10.2765 12.1979L13.1335 13.0341L13.5077 10.8346L12.0917 8.6988Z" fill="#FFBE3B"/>
<path d="M20.5411 9.12329C20.5411 9.12329 20.9647 9.24084 21.265 9.68637C21.4929 10.0241 22.4978 12.6404 22.4978 12.6404L20.5629 13.6505L20.5411 9.12329Z" fill="#FFBE3B"/>
<path d="M20.7976 10.8105C20.7903 10.8105 20.7841 11.9428 20.7841 13.339C20.7841 14.7357 20.7903 15.8675 20.7976 15.8675C20.8049 15.8675 20.8112 14.7357 20.8112 13.339C20.8112 11.9423 20.8049 10.8105 20.7976 10.8105Z" fill="#FFBE3B"/>
<path d="M12.2806 8.87486C12.2796 8.8764 12.2988 8.89796 12.3347 8.93543C12.3712 8.9729 12.4227 9.02833 12.4841 9.09865C12.6074 9.23878 12.7672 9.44205 12.915 9.68483C13.0623 9.92814 13.1689 10.1627 13.2356 10.3362C13.2694 10.423 13.2949 10.4938 13.311 10.5431C13.3277 10.5923 13.3381 10.6195 13.3396 10.619C13.3412 10.6185 13.335 10.5903 13.3209 10.54C13.3079 10.4897 13.285 10.4173 13.2533 10.3295C13.1908 10.1535 13.0862 9.91582 12.9379 9.67098C12.789 9.42665 12.6256 9.22338 12.4981 9.08582C12.4341 9.01704 12.3805 8.96314 12.342 8.92773C12.304 8.89282 12.2822 8.87383 12.2806 8.87486Z" fill="#FFBE3B"/>
<path d="M12.9457 13.1414C12.953 13.1424 13.0102 12.6722 13.0732 12.0912C13.1362 11.5101 13.1809 11.0389 13.1736 11.0384C13.1663 11.0374 13.1091 11.5075 13.0461 12.0886C12.9832 12.6691 12.9384 13.1408 12.9457 13.1414Z" fill="#FFBE3B"/>
<path d="M15.721 12.7128L12.8385 14.1495L12.8098 14.0802L12.9353 12.9756L10.5403 12.2749C10.5403 12.2749 10.3077 14.9107 10.1776 15.4645C9.97413 16.3305 10.6887 17.3801 11.9892 17.3781C12.6839 17.3771 16.8055 14.1654 16.8055 14.1654L15.721 12.7128Z" fill="#AE7461"/>
<path d="M20.1466 12.6091L19.3587 14.112L19.8577 15.5934L20.0716 16.1883C20.0716 16.1883 20.6415 18.3754 21.2566 18.4283C21.8722 18.4812 22.3401 18.3877 22.8189 17.4648C23.3398 16.4608 22.5951 13.7147 22.3599 12.7133L20.8476 13.455L20.1466 12.6091Z" fill="#AE7461"/>
<path d="M17.0272 12.0178C17.1438 11.9787 17.4337 12.2 17.6059 12.3452C17.7782 12.4905 18.091 12.6424 18.091 12.6424C18.091 12.6424 16.8409 11.5604 16.8441 11.3951C16.8472 11.2299 16.9242 11.1138 17.1396 11.2088C17.1396 11.2088 16.893 11.0138 17.1063 10.8013C17.3197 10.5887 18.6676 11.8042 18.6676 11.8042L18.7259 11.7462C18.7259 11.7462 17.5544 10.7407 17.6242 10.6483C17.6939 10.5554 17.8885 10.4779 18.131 10.6842C18.3741 10.8906 19.3165 11.6354 19.5023 11.8309C19.8265 12.1723 19.9551 12.1256 20.0685 12.1225L20.8476 13.454L19.418 14.2352C19.418 14.2352 18.7305 14.0006 18.0009 13.1891C18.0009 13.1891 17.2411 12.624 17.0845 12.4325C16.9268 12.241 16.9101 12.0568 17.0272 12.0178Z" fill="#AE7461"/>
<path d="M16.7462 14.2039C16.7462 14.2039 17.5201 14.1505 18.5 13.5156C18.5 13.5156 19.4414 13.1419 19.6569 12.9879C19.8723 12.8339 19.9415 12.6486 19.8323 12.5762C19.723 12.5038 19.3623 12.6527 19.1438 12.7548C18.9252 12.857 18.5604 12.9278 18.5604 12.9278C18.5604 12.9278 20.1518 12.1569 20.1955 11.9859C20.2392 11.815 20.1919 11.6744 19.9442 11.7134C19.9442 11.7134 20.2533 11.5804 20.0935 11.3033C19.9478 11.0502 18.4933 11.7627 18.2409 11.8889C18.22 11.8992 18.1945 11.8915 18.1826 11.8715C18.1701 11.8499 18.1784 11.8227 18.2008 11.8114C18.385 11.7185 19.1396 11.3341 19.4524 11.118C19.6506 10.9809 19.3722 10.7258 19.0641 10.8716C18.7561 11.0173 17.5846 11.5825 17.2963 11.6102C17.008 11.6379 16.625 11.6903 16.5948 11.6143C16.5646 11.5378 16.7322 11.2304 16.804 11.0969C16.8758 10.9635 16.9919 10.6714 16.6453 10.5857C16.6453 10.5857 16.1509 11.1955 15.9922 11.4249C15.8334 11.6538 15.5644 12.7846 15.5644 12.7846" fill="#AE7461"/>
<path d="M15.5644 12.7846C15.5644 12.7846 15.5685 12.7708 15.5758 12.743C15.5831 12.7148 15.594 12.6737 15.6076 12.6199C15.6357 12.5115 15.6773 12.3509 15.7366 12.1456C15.7658 12.0429 15.8001 11.9284 15.8412 11.8047C15.8615 11.7426 15.8839 11.6785 15.9099 11.6123C15.9359 11.5466 15.9646 11.4783 16.0072 11.4157C16.1873 11.1677 16.408 10.8947 16.652 10.5918L16.6427 10.5949C16.6916 10.6098 16.7426 10.6252 16.7832 10.6575C16.8243 10.6883 16.855 10.733 16.8659 10.7848C16.8774 10.8362 16.8706 10.8911 16.856 10.9439C16.8415 10.9968 16.8186 11.0481 16.7915 11.0979C16.7369 11.1985 16.6812 11.3022 16.6333 11.4126C16.6109 11.4685 16.5849 11.5235 16.5802 11.5892C16.5792 11.5974 16.5813 11.6061 16.5833 11.6153C16.5849 11.6246 16.5927 11.6338 16.6005 11.6389C16.6156 11.6497 16.6323 11.6538 16.6479 11.6574C16.6796 11.6641 16.7114 11.6656 16.7436 11.6662C16.8706 11.6672 16.9986 11.6528 17.1287 11.6405C17.1938 11.6328 17.2588 11.6292 17.3254 11.6184C17.3926 11.6076 17.4561 11.5856 17.5206 11.5645C17.7761 11.4752 18.0311 11.3633 18.2929 11.2463C18.5541 11.1298 18.8195 11.0014 19.0912 10.8762C19.1583 10.848 19.2338 10.8362 19.3061 10.8474C19.3779 10.8577 19.4503 10.8931 19.4883 10.9532C19.5075 10.983 19.5112 11.0199 19.4961 11.0507C19.4805 11.0815 19.4534 11.1046 19.4201 11.1257C19.3561 11.1688 19.2895 11.2088 19.2223 11.2488C18.9528 11.4069 18.6702 11.5568 18.3824 11.7052L18.2741 11.7606L18.2195 11.7883L18.1914 11.8027C18.18 11.8094 18.1706 11.8201 18.1664 11.8325C18.1571 11.8576 18.1685 11.8879 18.1924 11.9007C18.2039 11.9074 18.2179 11.9095 18.2315 11.9069C18.246 11.9038 18.2538 11.8976 18.2632 11.8935L18.3735 11.8391C18.5213 11.7673 18.6717 11.6975 18.8242 11.6297C19.1156 11.5024 19.4071 11.3797 19.7063 11.3012C19.7812 11.2827 19.8567 11.2668 19.9322 11.2637C19.9696 11.2627 20.0076 11.2642 20.0404 11.2776C20.0565 11.2843 20.0701 11.294 20.0789 11.3068C20.0878 11.3212 20.0951 11.3392 20.1034 11.3551C20.1325 11.4218 20.1336 11.4988 20.0977 11.5609C20.0638 11.6235 20.0024 11.6713 19.9384 11.7021L19.8635 11.7385L19.9457 11.7267C19.9962 11.7195 20.0487 11.7159 20.0961 11.7303C20.1435 11.7437 20.1799 11.7801 20.1898 11.8273C20.2017 11.874 20.1955 11.9249 20.1846 11.9731C20.1835 11.9798 20.182 11.9854 20.1794 11.989C20.1773 11.9936 20.1752 11.9983 20.171 12.0024C20.1643 12.0116 20.1559 12.0203 20.1466 12.0291C20.1289 12.046 20.1091 12.0619 20.0888 12.0773C19.9254 12.1969 19.7479 12.2944 19.5757 12.3909C19.2286 12.5819 18.8856 12.7548 18.5546 12.9171L18.4703 12.9581L18.5625 12.9391C18.7149 12.9078 18.8627 12.8703 19.0048 12.8216C19.0761 12.798 19.1448 12.7667 19.2104 12.7359C19.277 12.7061 19.3436 12.6779 19.4102 12.6522C19.4768 12.627 19.5439 12.6039 19.6116 12.5875C19.6782 12.5721 19.75 12.5572 19.8104 12.5772C19.839 12.5885 19.8614 12.6147 19.8682 12.644C19.876 12.6737 19.8702 12.7061 19.8598 12.7359C19.838 12.7959 19.7963 12.8483 19.7516 12.894C19.7058 12.9391 19.6548 12.9786 19.6012 13.011C19.5465 13.0428 19.4909 13.0721 19.4352 13.0993C19.3238 13.1542 19.2135 13.204 19.1063 13.2517C18.8913 13.3462 18.6873 13.4309 18.4969 13.5073L18.4958 13.5079L18.4953 13.5084C17.9921 13.8353 17.544 14.0083 17.2333 14.0992C17.0777 14.1449 16.9549 14.17 16.8722 14.1849C16.8305 14.1921 16.7988 14.1967 16.778 14.1993C16.7566 14.2018 16.7457 14.2034 16.7457 14.2034C16.7457 14.2034 16.7566 14.2034 16.778 14.2013C16.7993 14.1993 16.8311 14.1952 16.8727 14.189C16.9559 14.1756 17.0788 14.1515 17.2354 14.1074C17.5477 14.0191 17.9978 13.8482 18.5036 13.5217L18.5021 13.5222C18.6931 13.4463 18.8976 13.3621 19.113 13.2681C19.2208 13.2209 19.3311 13.1711 19.4435 13.1167C19.4997 13.0895 19.5554 13.0603 19.6116 13.0279C19.6673 12.9946 19.7193 12.9545 19.7662 12.9083C19.8125 12.8616 19.8557 12.8077 19.8796 12.743C19.8911 12.7107 19.8978 12.6748 19.889 12.6388C19.8801 12.6029 19.8541 12.5716 19.8187 12.5577C19.7469 12.5341 19.6751 12.5516 19.6064 12.5665C19.5372 12.5834 19.4695 12.6065 19.4024 12.6317C19.3347 12.6573 19.2681 12.6856 19.201 12.7153C19.1339 12.7461 19.0683 12.7764 18.9975 12.7995C18.857 12.8472 18.7092 12.8842 18.5583 12.9155L18.5661 12.9376C18.8976 12.7754 19.2405 12.6029 19.5887 12.412C19.762 12.315 19.9389 12.2179 20.1055 12.0963C20.1263 12.0809 20.1466 12.0645 20.1653 12.0465C20.1752 12.0378 20.184 12.028 20.1929 12.0167C20.2012 12.0075 20.2095 11.989 20.2111 11.9777C20.2226 11.9269 20.2298 11.8735 20.2163 11.8196C20.2095 11.7934 20.1976 11.7668 20.1773 11.7467C20.157 11.7267 20.132 11.7118 20.1049 11.7041C20.0513 11.6877 19.9957 11.6918 19.9426 11.6995L19.9499 11.7247C20.0196 11.6908 20.0836 11.6415 20.1221 11.5717C20.1622 11.5029 20.1606 11.4141 20.1289 11.3433C20.12 11.3258 20.1127 11.3084 20.1018 11.2904C20.0893 11.2719 20.0706 11.2591 20.0513 11.2514C20.0123 11.236 19.9712 11.2345 19.9322 11.2355C19.8531 11.2386 19.7766 11.255 19.7006 11.2735C19.3982 11.353 19.1063 11.4757 18.8138 11.6035C18.6613 11.6713 18.5104 11.7416 18.3626 11.8135L18.2518 11.8679C18.2424 11.8725 18.233 11.8781 18.2273 11.8787C18.2205 11.8802 18.2127 11.8787 18.2065 11.8751C18.194 11.8684 18.1878 11.852 18.1924 11.8386C18.1945 11.8319 18.1997 11.8263 18.2055 11.8227L18.232 11.8094L18.2866 11.7816L18.3954 11.7262C18.6837 11.5774 18.9663 11.4275 19.2364 11.2683C19.3035 11.2278 19.3706 11.1878 19.4352 11.1441C19.4674 11.1246 19.5023 11.0964 19.5205 11.0584C19.5393 11.0199 19.5341 10.9717 19.5117 10.9373C19.4669 10.867 19.3883 10.8305 19.3108 10.8192C19.2327 10.8069 19.1526 10.8197 19.0818 10.85C18.8081 10.9768 18.5442 11.1046 18.283 11.2216C18.0223 11.3387 17.7673 11.4511 17.5138 11.5399C17.4503 11.5609 17.3863 11.5825 17.3228 11.5933C17.2588 11.6035 17.1917 11.6076 17.1272 11.6153C16.9976 11.6282 16.8696 11.6425 16.7447 11.642C16.7134 11.6415 16.6827 11.64 16.6531 11.6338C16.6385 11.6307 16.6244 11.6266 16.614 11.6194C16.6036 11.6133 16.6026 11.602 16.6026 11.5876C16.6062 11.5306 16.6317 11.4737 16.6536 11.4193C16.7009 11.3099 16.7561 11.2068 16.8102 11.1061C16.8378 11.0553 16.8607 11.0025 16.8758 10.9475C16.8904 10.8931 16.8982 10.8351 16.8857 10.7797C16.8742 10.7237 16.8399 10.6745 16.7951 10.6416C16.7509 10.6072 16.6978 10.5913 16.6473 10.5759L16.6416 10.5744L16.638 10.579C16.3949 10.8829 16.1753 11.1565 15.9958 11.4064C15.9521 11.4711 15.9235 11.5399 15.898 11.6061C15.8725 11.6723 15.8501 11.737 15.8298 11.7996C15.7897 11.9238 15.7559 12.0383 15.7273 12.1415C15.6695 12.3478 15.6294 12.5085 15.6029 12.6173C15.5899 12.6712 15.58 12.7128 15.5732 12.741C15.567 12.7702 15.5644 12.7846 15.5644 12.7846Z" fill="#6F4439"/>
<path d="M20.6498 13.1301C20.6488 13.1306 20.656 13.1439 20.6706 13.1691C20.6857 13.1942 20.7065 13.2317 20.7362 13.2784C20.794 13.3729 20.8824 13.5058 20.9964 13.668C21.2222 13.9929 21.5605 14.4225 21.9045 14.9174C22.0742 15.1663 22.2339 15.4055 22.3521 15.637C22.4712 15.868 22.5436 16.0928 22.5717 16.2868C22.6013 16.4809 22.5888 16.641 22.5696 16.7483C22.5602 16.8022 22.5498 16.8438 22.542 16.8715C22.5342 16.8992 22.5306 16.9141 22.5311 16.9146C22.5321 16.9151 22.5373 16.9007 22.5472 16.873C22.5566 16.8453 22.5691 16.8042 22.58 16.7503C22.6024 16.6425 22.618 16.4803 22.5904 16.2843C22.5644 16.0882 22.4931 15.8598 22.3739 15.6262C22.2563 15.3916 22.0965 15.1514 21.9264 14.9025C21.5818 14.4066 21.241 13.9791 21.0115 13.6572C20.896 13.4971 20.8049 13.3657 20.7445 13.2733C20.7133 13.2276 20.6909 13.1911 20.6748 13.167C20.6597 13.1424 20.6508 13.1296 20.6498 13.1301Z" fill="#6F4439"/>
<path d="M18.3298 12.4541C18.3309 12.4556 18.3527 12.4464 18.3928 12.4284C18.4324 12.4104 18.4891 12.3832 18.5588 12.3493C18.703 12.2775 18.8924 12.183 19.1021 12.0783C19.3145 11.9736 19.5101 11.8858 19.6532 11.8253C19.7209 11.797 19.7781 11.7729 19.8229 11.7544C19.863 11.7375 19.8848 11.7272 19.8843 11.7257C19.8838 11.7242 19.8604 11.7308 19.8192 11.7447C19.7776 11.7585 19.7188 11.7801 19.646 11.8078C19.5008 11.8638 19.303 11.9495 19.0902 12.0542C18.8773 12.1594 18.6879 12.26 18.5505 12.3324C18.486 12.3673 18.4313 12.3961 18.3881 12.4192C18.3496 12.4402 18.3293 12.4525 18.3298 12.4541Z" fill="#6F4439"/>
<path d="M11.6353 14.8963C11.6363 14.8979 11.6571 14.8819 11.6925 14.8527C11.7289 14.8239 11.7815 14.7834 11.8497 14.7362C11.9845 14.6407 12.1786 14.5196 12.3982 14.3938C12.6178 14.2691 12.8208 14.1623 12.9691 14.0874C13.0398 14.0519 13.0987 14.0227 13.145 13.9996C13.1866 13.9791 13.2095 13.9667 13.2085 13.9652C13.2074 13.9637 13.1835 13.9724 13.1403 13.9898C13.0971 14.0078 13.0357 14.0345 12.9607 14.0704C12.8103 14.1407 12.6053 14.2455 12.3852 14.3707C12.165 14.497 11.972 14.6207 11.8393 14.7208C11.7727 14.7706 11.7211 14.8137 11.6868 14.845C11.6519 14.8768 11.6342 14.8953 11.6353 14.8963Z" fill="#6F4439"/>
<path d="M10.1001 1.8186C10.0668 1.63228 9.98352 1.4439 9.82531 1.33611C9.63172 1.20419 9.37412 1.22113 9.14202 1.25809C8.80947 1.31095 8.45195 1.4131 8.26252 1.68771C8.15324 1.84581 8.11577 2.04497 8.12826 2.23591C8.14075 2.42686 8.2006 2.61216 8.27241 2.78976L9.1493 3.15368C9.35747 2.82723 9.82375 2.72765 10.021 2.39452C10.1214 2.22359 10.135 2.01365 10.1001 1.8186Z" fill="#263238"/>
<path d="M1.60233 9.1079C1.57058 9.02372 1.47535 8.98522 1.39468 8.94313C1.10638 8.79273 0.915388 8.47654 0.918511 8.15471C0.921633 7.83287 1.11887 7.52028 1.40978 7.37553C1.48159 7.3396 1.56069 7.31188 1.61534 7.25336C1.75116 7.1081 1.6653 6.87558 1.696 6.68001C1.76053 6.2663 2.32101 6.10564 2.47141 5.71399C2.563 5.47531 2.48078 5.21097 2.43134 4.96048C2.38242 4.70999 2.38606 4.40869 2.58902 4.25059C2.69831 4.16539 2.84663 4.13921 2.95227 4.04989C3.17032 3.86562 3.10891 3.52685 3.15783 3.24762C3.23485 2.80772 3.66939 2.45766 4.12215 2.47151C4.12215 2.47151 3.88953 2.11683 4.32459 1.85505C4.84968 1.53886 4.94544 1.93102 5.16609 1.64614C5.40079 1.34329 5.86552 1.24217 6.20743 1.41926C6.31411 1.4747 6.40883 1.55272 6.5228 1.59224C6.66123 1.64049 6.81318 1.62561 6.95942 1.63587C7.51834 1.67539 8.53366 2.19126 8.32393 2.92937L5.44659 9.52007C5.44659 9.52007 4.78359 9.75567 4.29701 10.0688C4.19032 10.1376 4.15493 11.0543 4.03368 11.0938C3.88276 11.1426 3.71727 11.1287 3.56375 11.0872C3.23121 10.9963 2.93822 10.772 2.76596 10.4769C2.45268 10.674 2.00877 10.6385 1.73139 10.3952C1.45401 10.1514 1.36762 9.72077 1.52999 9.39124C1.57527 9.30038 1.6372 9.20183 1.60233 9.1079Z" fill="#263238"/>
<path d="M8.5472 3.87435L8.58154 3.45088L6.02946 2.81337C5.23843 2.68299 4.3298 3.41906 4.23144 4.20388C4.12216 5.07597 4.0238 6.14465 4.08885 6.80423C4.21999 8.13007 5.23063 8.35797 5.23063 8.35797L5.15673 9.66225L8.09912 9.87373L8.5472 3.87435Z" fill="#FFBF9D"/>
<path d="M4.71385 5.42706C4.70501 5.51586 4.77422 5.59594 4.86842 5.60671C4.96209 5.61749 5.04483 5.55384 5.05368 5.46556C5.06253 5.37676 4.99331 5.29617 4.89964 5.28591C4.80545 5.27461 4.7227 5.33826 4.71385 5.42706Z" fill="#263238"/>
<path d="M4.47913 4.77877C4.49891 4.80187 4.63422 4.71512 4.81792 4.72641C5.00162 4.73514 5.13069 4.83626 5.15202 4.81521C5.16243 4.80598 5.14318 4.76491 5.08697 4.71923C5.03181 4.67406 4.93553 4.62735 4.82104 4.62068C4.70655 4.61452 4.60767 4.65045 4.54991 4.68946C4.49058 4.72949 4.46925 4.76799 4.47913 4.77877Z" fill="#263238"/>
<path d="M6.37032 5.4748C6.36147 5.5636 6.43069 5.64367 6.52436 5.65445C6.61803 5.66523 6.70078 5.60158 6.70963 5.51329C6.71847 5.42449 6.64926 5.34391 6.55559 5.33364C6.46191 5.32286 6.37917 5.386 6.37032 5.4748Z" fill="#263238"/>
<path d="M6.28339 4.91941C6.30317 4.94251 6.43848 4.85577 6.62218 4.86706C6.80589 4.87578 6.93495 4.9769 6.95628 4.95586C6.96669 4.94662 6.94744 4.90556 6.89123 4.85987C6.83607 4.81419 6.73979 4.76799 6.6253 4.76132C6.51081 4.75516 6.41194 4.79109 6.35417 4.8301C6.29537 4.87065 6.27351 4.90915 6.28339 4.91941Z" fill="#263238"/>
<path d="M5.53454 6.22421C5.5361 6.21394 5.42317 6.18776 5.23947 6.15337C5.19263 6.14567 5.14892 6.13387 5.14319 6.10204C5.13434 6.06816 5.15672 6.0194 5.18274 5.96653C5.23374 5.8572 5.28682 5.74274 5.34303 5.62211C5.56628 5.13192 5.73125 4.72744 5.71096 4.71871C5.69066 4.70999 5.49343 5.1006 5.27017 5.5908C5.21605 5.71194 5.16453 5.82692 5.11561 5.93727C5.09479 5.9886 5.06045 6.04661 5.08022 6.11744C5.09063 6.15286 5.12394 6.18006 5.15308 6.18982C5.18274 6.20059 5.20876 6.20265 5.23218 6.20521C5.41745 6.22677 5.53298 6.23447 5.53454 6.22421Z" fill="#263238"/>
<path d="M5.23113 8.36157C5.23113 8.36157 6.16891 8.47192 7.08847 7.99815C7.08847 7.99815 6.58263 8.89129 5.21188 8.68905L5.23113 8.36157Z" fill="#FF9A6C"/>
<path d="M7.23263 4.62273C7.22951 4.57037 7.04632 4.54112 6.84701 4.45591C6.64561 4.37481 6.49677 4.26599 6.45618 4.30038C6.43797 4.31732 6.45358 4.37019 6.50718 4.43589C6.56026 4.50108 6.65394 4.57602 6.77415 4.62581C6.89437 4.6756 7.01406 4.68946 7.09837 4.68125C7.18371 4.67303 7.23315 4.64737 7.23263 4.62273Z" fill="#263238"/>
<path d="M5.08854 4.06273C5.0417 4.03809 4.94387 4.12843 4.80544 4.19156C4.66909 4.25932 4.53691 4.27985 4.52754 4.33118C4.52442 4.3553 4.5598 4.38507 4.62746 4.39791C4.69407 4.41125 4.79243 4.40253 4.88662 4.35736C4.98082 4.31219 5.04847 4.24135 5.07917 4.18181C5.11144 4.12124 5.10988 4.07556 5.08854 4.06273Z" fill="#263238"/>
<path d="M4.23663 3.25942C4.53691 2.87137 4.97249 2.58803 5.45231 2.46792L7.60836 2.73535L8.19747 3.0849C8.23806 2.95093 8.12877 2.79848 8.12877 2.79848C8.33121 2.64552 9.02336 2.39914 9.51254 2.9032C9.68896 3.0849 9.83624 3.56894 9.8404 3.82097C9.84196 3.91644 9.83259 4.03244 9.91326 4.0848C9.94136 4.10328 9.9757 4.10892 10.009 4.11611C10.5575 4.23468 10.9468 4.83524 10.8255 5.37573C10.8177 5.41115 10.8078 5.44811 10.8136 5.48404C10.8229 5.54101 10.8698 5.58311 10.9098 5.6252C11.1711 5.89775 11.2341 6.33611 11.0608 6.66975C11.0072 6.77292 10.9327 6.86891 10.914 6.98337C10.8807 7.18766 11.0321 7.3704 11.1497 7.54184C11.5015 8.05718 11.577 8.80557 11.1643 9.2742C11.0639 9.38816 10.9348 9.48979 10.8968 9.63608C10.8786 9.70742 10.8843 9.78288 10.8849 9.85628C10.8875 10.2305 10.6876 10.6493 10.3166 10.7279C10.1105 10.7715 9.86069 10.7145 9.71446 10.8634C9.65045 10.9286 9.62391 11.0194 9.5828 11.1005C9.42771 11.41 9.03064 11.5784 8.69602 11.4768C8.3614 11.3751 8.25055 10.0364 8.29895 9.69459C7.89355 9.54933 7.59379 9.52367 7.61305 9.09866C7.61305 9.09866 7.6755 8.36773 7.5558 8.0115C7.43559 7.65527 7.67654 6.89765 7.81393 6.52911C7.95131 6.16107 7.78738 5.30387 7.75096 4.96356C7.74471 4.90402 7.75616 4.80084 7.77958 4.67201V4.67252C7.77958 4.67201 7.77958 4.67201 7.7801 4.67149C7.79519 4.58885 7.81497 4.49543 7.83786 4.39534C7.84619 4.30192 7.84723 4.20799 7.84567 4.12073C7.84047 3.79889 7.51209 3.56791 7.20244 3.67057C7.12751 3.69521 7.04944 3.70958 6.97034 3.71163C6.71534 3.71831 6.46034 3.59922 6.30474 3.40058C6.01227 3.70804 5.54026 3.83534 5.13018 3.71728C4.96364 3.94621 4.79451 4.17873 4.57282 4.35685C4.35112 4.53496 4.0675 4.65558 3.78336 4.62478C3.77347 4.13664 3.93636 3.64747 4.23663 3.25942Z" fill="#263238"/>
<path d="M4.46093 3.63977C4.46457 3.63926 4.45832 3.59203 4.46561 3.5058C4.47342 3.42059 4.49788 3.29484 4.57594 3.15933C4.65296 3.02536 4.78878 2.88163 4.98862 2.80977C5.18429 2.7374 5.43877 2.73535 5.65891 2.85032L5.67452 2.85854L5.68597 2.84519C5.76611 2.7492 5.86603 2.66246 5.97948 2.59162C6.2324 2.43763 6.52591 2.37912 6.78039 2.41197C7.03747 2.44174 7.25032 2.55569 7.40124 2.67632C7.5532 2.79899 7.64635 2.92937 7.70203 3.02228C7.75668 3.11672 7.77749 3.1737 7.78166 3.17216C7.78322 3.17165 7.77853 3.15727 7.76865 3.13007C7.7598 3.10235 7.74158 3.06385 7.71713 3.01458C7.66508 2.91808 7.57453 2.78154 7.42153 2.65322C7.26957 2.52643 7.05204 2.40581 6.78611 2.37245C6.52227 2.33652 6.21887 2.39503 5.95658 2.55467C5.83897 2.62807 5.73541 2.71789 5.65266 2.81799L5.67972 2.81285C5.44606 2.69172 5.17961 2.69634 4.97561 2.77487C4.76693 2.85238 4.62746 3.00585 4.55148 3.14598C4.47394 3.28765 4.45364 3.41803 4.45052 3.50529C4.44896 3.54892 4.45104 3.58331 4.45416 3.60589C4.45728 3.62848 4.45937 3.64028 4.46093 3.63977Z" fill="#455A64"/>
<path d="M9.37827 3.62335C9.37046 3.62745 9.33039 3.54122 9.22787 3.4324C9.12743 3.32461 8.95257 3.19834 8.72828 3.15471C8.50398 3.11159 8.29374 3.16241 8.15895 3.22503C8.02208 3.28714 7.95235 3.35233 7.94662 3.34514C7.94454 3.34309 7.95963 3.32461 7.9919 3.29586C8.02416 3.26712 8.07464 3.22965 8.14334 3.19372C8.27864 3.12083 8.49982 3.06026 8.73817 3.10646C8.97599 3.15317 9.15709 3.29176 9.25441 3.40982C9.30437 3.46936 9.33664 3.52274 9.35537 3.56124C9.3741 3.59922 9.38139 3.62181 9.37827 3.62335Z" fill="#455A64"/>
<path d="M9.29552 7.55261C9.29552 7.55261 9.2237 7.53054 9.12482 7.44174C9.02751 7.355 8.91198 7.18664 8.88439 6.95052C8.8719 6.834 8.88127 6.70003 8.93695 6.57068C8.96506 6.50652 9.00513 6.44339 9.05197 6.38744C9.09672 6.33097 9.14512 6.27349 9.16073 6.20573C9.17582 6.13746 9.14928 6.06714 9.09776 6.01017C9.04728 5.95165 8.98171 5.90135 8.92186 5.84027C8.86046 5.78072 8.80945 5.69808 8.79436 5.60877C8.77719 5.51946 8.78552 5.42758 8.80737 5.33929C8.85317 5.16169 8.94892 5.01386 9.00877 4.86141C9.0707 4.7105 9.08891 4.55087 9.07122 4.40253C9.03843 4.10276 8.8667 3.86357 8.67727 3.7373C8.4868 3.60692 8.29581 3.56791 8.16779 3.56021C8.03821 3.55149 7.96639 3.56791 7.96535 3.56227C7.96483 3.56073 7.98252 3.55662 8.01687 3.55046C8.05122 3.54533 8.10222 3.53968 8.16831 3.54122C8.29945 3.54327 8.49721 3.57766 8.69705 3.70907C8.89636 3.83636 9.08007 4.0848 9.11702 4.39791C9.13679 4.55241 9.11858 4.7218 9.05405 4.87989C8.99212 5.03747 8.89792 5.1853 8.85577 5.35161C8.83547 5.43425 8.82819 5.51997 8.84328 5.60004C8.85785 5.68114 8.89949 5.74993 8.95725 5.8069C9.01398 5.86542 9.07955 5.91623 9.13471 5.97988C9.19091 6.04148 9.2263 6.13233 9.20601 6.216C9.18571 6.29915 9.13159 6.35921 9.08631 6.41515C9.03948 6.47059 9.00305 6.52705 8.97547 6.58762C8.92134 6.70876 8.91041 6.83554 8.91978 6.94795C8.94164 7.17483 9.0478 7.34062 9.13835 7.42891C9.22995 7.51822 9.29916 7.54697 9.29552 7.55261Z" fill="#455A64"/>
<path d="M9.64577 3.10543C9.63536 3.11262 9.58592 2.96376 9.39493 2.82671C9.30021 2.76152 9.17375 2.69377 9.02232 2.66913C8.87088 2.64398 8.69602 2.64398 8.52428 2.68504C8.48994 2.69326 8.45715 2.70455 8.42697 2.71584L8.39782 2.72713L8.38846 2.69839C8.28854 2.38271 8.07777 2.1543 7.90708 2.02905C7.73482 1.90073 7.60576 1.85864 7.60992 1.84889C7.61097 1.84581 7.64375 1.85351 7.701 1.87507C7.75824 1.89662 7.83839 1.93563 7.92998 1.99723C8.11212 2.11785 8.33746 2.35089 8.44362 2.68094L8.40511 2.66297C8.4379 2.65014 8.4738 2.63833 8.51023 2.62961C8.6929 2.58598 8.87296 2.58803 9.0322 2.61729C9.19353 2.64706 9.32311 2.72149 9.41939 2.79438C9.51566 2.86932 9.57499 2.95042 9.60674 3.00893C9.63952 3.06796 9.64889 3.10389 9.64577 3.10543Z" fill="#455A64"/>
<path d="M5.66725 6.66359C5.72762 6.57581 5.83899 6.52397 5.95244 6.53013C6.03102 6.53475 6.1122 6.56811 6.16268 6.62817C6.21316 6.68874 6.22773 6.77754 6.18766 6.83913C6.14239 6.90894 6.04143 6.92947 5.95452 6.90997C5.86709 6.88995 5.79059 6.83811 5.71721 6.78575C5.69691 6.77138 5.6761 6.75598 5.66309 6.73596C5.65008 6.71543 5.64591 6.68823 5.65997 6.66975" fill="#FF9A6C"/>
<path d="M6.10594 6.33611C6.07679 6.33611 6.08616 6.52859 5.92536 6.67385C5.76507 6.81963 5.55587 6.80834 5.55535 6.83503C5.55326 6.84735 5.60374 6.87044 5.69169 6.86839C5.77808 6.86685 5.90298 6.83349 6.00082 6.74469C6.09865 6.65589 6.13716 6.54142 6.13976 6.46186C6.14341 6.38076 6.11947 6.33405 6.10594 6.33611Z" fill="#263238"/>
<path d="M9.96428 9.80854L8.5165 9.23622C8.5165 9.23622 6.93185 9.83267 6.13094 9.7839C5.33055 9.73565 4.59522 9.23622 4.59522 9.23622L2.42407 9.87527L2.29032 12.3555L2.45477 16.5881C2.45477 16.5881 2.08737 18.0197 2.13212 18.5186C2.17688 19.0176 2.63223 19.2567 2.63223 19.2567L2.52451 19.8989H9.44022L9.29867 19.2439C9.29867 19.2439 10.2052 19.169 9.97312 17.8247C9.90339 17.4212 9.27109 16.6456 9.54275 15.0103C9.83053 13.2784 9.96428 9.80854 9.96428 9.80854Z" fill="#FF725E"/>
<g opacity="0.3">
<path d="M3.11047 14.8476C3.27336 14.556 3.45602 14.2619 3.73392 14.073C4.02535 13.8749 4.3912 13.8143 4.74455 13.8071C5.27017 13.7963 5.80723 13.8964 6.25842 14.1618C6.88187 14.5288 7.28207 15.1678 7.63491 15.7936C7.98774 16.4193 8.33382 17.0763 8.8995 17.5254L10.035 18.3482C8.88129 18.5361 7.64115 18.0613 6.91778 17.1553C6.29902 16.3802 6.03101 15.3229 5.22854 14.7346C5.07397 14.6212 4.90172 14.5288 4.71749 14.4734C4.4448 14.3917 4.13099 14.3989 3.89421 14.556C3.59445 14.7552 3.48777 15.135 3.41075 15.4835C3.18489 16.5096 3.00327 17.6019 2.32205 18.4083C2.27626 18.4627 2.19455 18.5186 2.14095 18.4719C2.11389 18.4483 2.11024 18.4083 2.10868 18.3729C2.05456 17.1384 2.50523 15.9301 3.11047 14.8476Z" fill="black"/>
</g>
<path d="M2.44903 9.87321C2.44903 9.87321 1.46442 9.91068 0.93568 12.1594C0.700455 13.1609 -0.366383 16.5953 0.154547 17.5993C0.633323 18.5222 1.10169 18.6162 1.71681 18.5628C2.33246 18.5099 3.08393 16.3382 3.08393 16.3382V15.8013L3.61475 14.5786L2.82685 12.7436" fill="#FF725E"/>
<path d="M2.82685 12.7441C2.82685 12.7441 2.8305 12.7554 2.83934 12.7764C2.84819 12.798 2.8612 12.8293 2.87837 12.8703C2.91376 12.9535 2.96476 13.0751 3.03137 13.2327C3.16616 13.5489 3.36183 14.0078 3.60643 14.5822V14.5755C3.44874 14.9374 3.26972 15.348 3.07353 15.7971L3.07249 15.7992V15.8013C3.07249 15.9686 3.07197 16.1508 3.07197 16.3382L3.07249 16.3346C2.96164 16.6451 2.83206 16.9669 2.68114 17.2944C2.60568 17.4582 2.52345 17.6229 2.43238 17.7867C2.34131 17.9499 2.23983 18.1121 2.1191 18.2625C2.05769 18.3364 1.99056 18.4078 1.91197 18.4652C1.89272 18.4806 1.8719 18.493 1.85057 18.5043C1.83027 18.5176 1.80685 18.5248 1.78447 18.534C1.7621 18.5438 1.73764 18.5443 1.71422 18.5499L1.63928 18.5551C1.53936 18.5617 1.43788 18.5643 1.33692 18.5556C1.28644 18.553 1.23648 18.5443 1.186 18.5366C1.13656 18.5248 1.08609 18.5156 1.03873 18.4971C0.843054 18.435 0.675482 18.3041 0.536012 18.1506C0.396543 17.9956 0.284135 17.8154 0.185257 17.6281C0.115002 17.5008 0.0780519 17.3601 0.0556743 17.219C0.0322559 17.0773 0.0286142 16.9341 0.0260122 16.7924C0.0265326 16.5086 0.0525527 16.2293 0.0874201 15.9568C0.159237 15.4111 0.267481 14.8902 0.379369 14.3964C0.492298 13.9026 0.613033 13.437 0.728044 13.0012C0.785289 12.7831 0.840452 12.5726 0.893533 12.3704C0.942972 12.1666 0.993973 11.9731 1.04237 11.7878C1.15114 11.4208 1.27603 11.0969 1.41759 10.8269C1.55758 10.5564 1.71994 10.3454 1.87346 10.1961C2.02751 10.0457 2.1753 9.96047 2.28094 9.91838C2.30748 9.90812 2.33142 9.90042 2.35172 9.89323C2.37254 9.8881 2.39023 9.88348 2.40428 9.87989C2.4329 9.87424 2.44799 9.87219 2.44799 9.87219C2.44799 9.87219 2.44435 9.87219 2.43655 9.8727C2.42874 9.87373 2.41781 9.87527 2.40376 9.87732C2.38919 9.88091 2.3715 9.88502 2.35068 9.88964C2.33038 9.89631 2.30592 9.9035 2.27886 9.91377C2.17218 9.95432 2.0223 10.039 1.86618 10.1889C1.71006 10.3383 1.54561 10.5492 1.40405 10.8202C1.26094 11.0902 1.13396 11.4152 1.02364 11.7827C0.974197 11.968 0.922676 12.1625 0.872717 12.3653C0.819115 12.5675 0.763431 12.7779 0.706186 12.9956C0.590655 13.4309 0.468879 13.8969 0.35491 14.3907C0.241981 14.8845 0.132695 15.406 0.0608787 15.9532C0.0254909 16.2268 -0.000529709 16.507 -0.00105012 16.7924C0.00155193 16.9351 0.00467476 17.0794 0.0286136 17.2226C0.0509912 17.3653 0.0889815 17.51 0.160798 17.6404C0.260716 17.8293 0.373645 18.011 0.515196 18.1686C0.656227 18.3241 0.828483 18.4586 1.02936 18.5222C1.07828 18.5412 1.1298 18.5505 1.18028 18.5628C1.2318 18.5705 1.2828 18.5797 1.33432 18.5823C1.43684 18.591 1.53936 18.5879 1.64032 18.5818L1.71578 18.5766C1.74128 18.571 1.76834 18.5694 1.79176 18.5597C1.8157 18.5505 1.84068 18.5422 1.86202 18.5284C1.88439 18.5161 1.90625 18.5032 1.92602 18.4873C2.00721 18.4278 2.07538 18.3549 2.13783 18.2799C2.26065 18.1275 2.36213 17.9643 2.4532 17.8C2.54479 17.6358 2.62702 17.4705 2.70248 17.3062C2.85339 16.9772 2.98246 16.6549 3.0933 16.3433L3.09382 16.3417V16.3397C3.09382 16.1523 3.0933 15.9701 3.0933 15.8028L3.09226 15.8069C3.28689 15.3567 3.46435 14.9456 3.621 14.5837L3.62256 14.5801L3.621 14.5765C3.37328 14.0037 3.17501 13.5458 3.03866 13.2302C2.97049 13.0736 2.9174 12.952 2.8815 12.8693C2.86328 12.8288 2.84975 12.798 2.84038 12.7764C2.83258 12.7543 2.82685 12.7441 2.82685 12.7441Z" fill="#263238"/>
<path d="M2.44904 11.158C2.44696 11.1585 2.45164 11.1857 2.46153 11.2355C2.47194 11.2899 2.48599 11.3602 2.50264 11.4444C2.53543 11.621 2.57654 11.8663 2.58903 12.1399C2.60152 12.4135 2.5781 12.6614 2.54948 12.8385C2.53491 12.9273 2.52138 12.9987 2.51045 13.0474C2.50004 13.0967 2.49536 13.1239 2.49692 13.1244C2.49848 13.1249 2.50681 13.0982 2.52034 13.0495C2.53439 13.0012 2.55052 12.9299 2.56769 12.8411C2.60152 12.664 2.62806 12.414 2.61557 12.1384C2.60256 11.8627 2.55833 11.6164 2.52086 11.4403C2.5016 11.352 2.48443 11.2812 2.47142 11.2324C2.45893 11.1842 2.4506 11.1575 2.44904 11.158Z" fill="#263238"/>
<path d="M9.53285 9.8804C9.71759 9.75927 9.76755 9.47747 9.68324 9.26496C9.59894 9.05246 9.40951 8.90463 9.20863 8.81788C8.87557 8.67416 8.50244 8.67365 8.147 8.726C7.433 8.83072 6.74866 9.14126 6.17361 9.60425C5.60896 9.13613 4.98499 8.74808 4.32459 8.45447C4.17263 8.38672 4.00194 8.32358 3.84634 8.3821C3.71415 8.43189 3.621 8.56278 3.57468 8.70393C3.52889 8.84509 3.52368 8.99651 3.519 9.14588C3.51223 9.36146 3.5164 9.60682 3.66732 9.75054C3.76463 9.84293 3.90098 9.86962 4.02952 9.89221C4.95481 10.0559 5.90351 10.2197 6.82464 10.0313C7.27739 9.93892 7.71245 9.76337 8.16625 9.67868C8.62005 9.59347 9.07072 9.80495 9.53285 9.8804Z" fill="#FF725E"/>
<path d="M1.27396 11.7293C1.2724 11.7339 1.35722 11.7637 1.48733 11.8253C1.61743 11.8869 1.79124 11.9849 1.96454 12.1194C2.13732 12.2544 2.27418 12.3986 2.36474 12.5095C2.45581 12.6204 2.50472 12.6948 2.50837 12.6922C2.50993 12.6912 2.499 12.6717 2.47766 12.6378C2.45685 12.6034 2.42354 12.5552 2.37931 12.4982C2.29188 12.3837 2.15553 12.2354 1.98067 12.0989C1.80582 11.9628 1.62784 11.8658 1.49461 11.8083C1.428 11.7796 1.37284 11.7585 1.33432 11.7462C1.29633 11.7339 1.275 11.7277 1.27396 11.7293Z" fill="#263238"/>
<path d="M6.1148 9.87938C6.11532 9.87886 6.10907 9.86911 6.09606 9.85114C6.08305 9.83318 6.06275 9.80751 6.03569 9.77569C5.98053 9.71307 5.89674 9.62119 5.7656 9.54214C5.73282 9.52264 5.69743 9.50416 5.6584 9.48876C5.63914 9.48055 5.61885 9.47285 5.59543 9.46977C5.57253 9.46669 5.54443 9.47182 5.52569 9.48979C5.48822 9.52572 5.48718 9.58731 5.51528 9.6294C5.54235 9.67303 5.5845 9.70126 5.62457 9.73052C5.78954 9.8455 6.00811 9.92403 6.24282 9.92352C6.47752 9.92352 6.69609 9.84345 6.86002 9.72795C6.8798 9.71307 6.90113 9.70024 6.91935 9.6797C6.9282 9.66944 6.936 9.65661 6.93756 9.64172C6.93964 9.62683 6.93496 9.61144 6.92507 9.59963C6.90478 9.57705 6.87719 9.57294 6.85378 9.57037C6.8288 9.56781 6.80538 9.57294 6.78352 9.57602C6.69453 9.59244 6.61595 9.62068 6.5457 9.64891C6.40518 9.7064 6.29798 9.76594 6.22512 9.80803C6.18869 9.82907 6.16059 9.84653 6.14238 9.85884C6.12416 9.87168 6.11428 9.87835 6.1148 9.87938C6.11532 9.8804 6.12572 9.87476 6.14498 9.86398C6.16684 9.85217 6.19546 9.83677 6.23033 9.81778C6.30475 9.77877 6.41299 9.72231 6.55298 9.66739C6.62271 9.64069 6.7013 9.61349 6.78769 9.5986C6.80954 9.59552 6.83088 9.59142 6.85222 9.59398C6.87303 9.59604 6.89593 9.60168 6.90738 9.61554C6.91883 9.62889 6.91623 9.64942 6.90113 9.66482C6.88708 9.68073 6.86575 9.69408 6.84597 9.70845C6.68464 9.81983 6.47128 9.89734 6.24282 9.89734C6.01436 9.89785 5.80099 9.82189 5.63914 9.71102C5.59907 9.68278 5.559 9.65507 5.53558 9.6176C5.51112 9.58218 5.51372 9.5329 5.5413 9.50621C5.56941 9.47901 5.61416 9.49286 5.65059 9.50775C5.68858 9.52212 5.72345 9.54009 5.75571 9.55857C5.88478 9.63402 5.97012 9.72231 6.02737 9.78288C6.05599 9.81367 6.07681 9.83831 6.09138 9.85474C6.10647 9.87116 6.11428 9.87989 6.1148 9.87938Z" fill="#263238"/>
<path d="M6.34066 11.7904C6.34274 11.7904 6.34482 11.7637 6.34691 11.7144C6.34951 11.6656 6.35055 11.5948 6.35003 11.5075C6.34951 11.3325 6.33858 11.0908 6.30735 10.8259C6.27613 10.5605 6.23034 10.3229 6.18974 10.1524C6.16997 10.0672 6.15227 9.99897 6.13822 9.95175C6.12469 9.90453 6.11636 9.87886 6.11428 9.87938C6.11272 9.87989 6.11741 9.90658 6.12781 9.95432C6.13874 10.0067 6.15331 10.0749 6.17101 10.1566C6.2064 10.3275 6.24907 10.5646 6.28029 10.829C6.31152 11.0933 6.32505 11.3335 6.33077 11.5081C6.33286 11.5912 6.33442 11.661 6.33598 11.7144C6.33754 11.7632 6.33858 11.7904 6.34066 11.7904Z" fill="#263238"/>
<path d="M5.57306 10.9691C5.57671 10.9706 5.60117 10.9162 5.6402 10.8285C5.68235 10.733 5.73439 10.6154 5.79163 10.4856C5.85044 10.3562 5.90352 10.2392 5.9462 10.1437C5.98575 10.0565 6.00969 10.0015 6.00604 10C6.00292 9.99846 5.97274 10.0498 5.9285 10.1355C5.88427 10.2212 5.82598 10.3403 5.76613 10.4748C5.70629 10.6088 5.65581 10.732 5.62198 10.8218C5.58816 10.9111 5.56942 10.9681 5.57306 10.9691Z" fill="#263238"/>
<path d="M6.50042 10C6.50094 10.001 6.51135 9.99692 6.5306 9.98922C6.55246 9.97998 6.58004 9.96869 6.61439 9.95432C6.6503 9.9384 6.69505 9.91993 6.74761 9.90042C6.80017 9.88092 6.85898 9.85628 6.92611 9.83472C6.99272 9.81162 7.0661 9.78698 7.14572 9.76491C7.22483 9.74027 7.31121 9.72025 7.40176 9.69767C7.58391 9.65661 7.78583 9.62119 8.00024 9.59912C8.21464 9.57859 8.42021 9.57448 8.60651 9.5791C8.69967 9.58372 8.78814 9.58628 8.87088 9.59501C8.95363 9.60117 9.03013 9.61092 9.10038 9.62068C9.17064 9.62837 9.23308 9.64121 9.28877 9.64993C9.34445 9.65866 9.39181 9.66841 9.43032 9.67662C9.46675 9.68381 9.49641 9.68997 9.51983 9.69459C9.54013 9.69818 9.55105 9.69972 9.55157 9.69921C9.55157 9.69818 9.54117 9.6951 9.52139 9.68946C9.49849 9.6833 9.46935 9.67611 9.43292 9.66687C9.39441 9.65661 9.34757 9.64583 9.29189 9.63556C9.23673 9.6253 9.17376 9.61092 9.1035 9.6022C9.03325 9.59142 8.95675 9.58013 8.87348 9.57345C8.79074 9.5637 8.70175 9.56011 8.60807 9.55497C8.42073 9.54881 8.21412 9.55292 7.99815 9.57345C7.78271 9.59552 7.57922 9.63248 7.39708 9.67457C7.30653 9.69818 7.21962 9.71872 7.14052 9.74489C7.06038 9.76799 6.98752 9.79366 6.92091 9.81829C6.85377 9.84088 6.79497 9.86706 6.74293 9.88759C6.69089 9.90812 6.64665 9.92865 6.61126 9.94559C6.57796 9.9615 6.5509 9.97485 6.52956 9.98511C6.50926 9.99384 6.4999 9.99897 6.50042 10Z" fill="#263238"/>
<path d="M3.69022 9.44205C3.6897 9.44359 3.71988 9.45539 3.77556 9.47439C3.83125 9.49389 3.91243 9.52007 4.01287 9.55035C4.21427 9.61195 4.49529 9.68843 4.8091 9.75721C5.12342 9.82599 5.41069 9.87373 5.61937 9.90196C5.72397 9.91633 5.80828 9.92609 5.86709 9.93173C5.92589 9.93738 5.95816 9.93994 5.95868 9.93789C5.95868 9.93584 5.92693 9.93019 5.86865 9.92147C5.8062 9.91171 5.72293 9.89888 5.62249 9.88297C5.41485 9.85012 5.12863 9.7993 4.81482 9.73103C4.50153 9.66225 4.22051 9.58885 4.01807 9.53188C3.92024 9.50416 3.83957 9.48106 3.77868 9.46412C3.72248 9.44821 3.69126 9.44 3.69022 9.44205Z" fill="#263238"/>
<path d="M2.12638 13.59C2.12638 13.59 2.90752 12.568 3.15055 12.4541C3.39358 12.3401 5.0719 11.601 5.20929 11.5383C5.34667 11.4757 5.54235 11.5738 5.50228 11.6497C5.46272 11.7257 5.34615 11.9028 5.34615 11.9028L5.62197 11.7781L5.8421 12.4541C5.8421 12.4541 5.03287 13.4673 4.79868 13.7486C4.5645 14.0299 3.61475 14.247 3.61475 14.247L3.42897 14.6145C2.49743 14.5765 2.12638 13.59 2.12638 13.59Z" fill="#FFBF9D"/>
<path d="M6.34222 13.1819C6.34222 13.1819 6.11376 12.2621 6.00812 12.0855C5.90248 11.9084 5.48043 11.4193 5.42734 11.2422C5.37478 11.0651 5.38831 10.9296 5.31286 10.909C5.2374 10.8885 5.04745 11.0651 5.04745 11.2524C5.04745 11.4398 5.31286 12.0024 5.31286 12.0024C5.31286 12.0024 4.40318 11.6692 4.12892 11.5753C3.85467 11.4814 3.07301 11.4506 3.07301 11.4506C3.07301 11.4506 2.94655 11.6379 3.11517 11.7632L2.69312 11.7216C2.69312 11.7216 2.65096 11.9505 2.78835 12.0131L2.55625 11.9505C2.55625 11.9505 2.39804 12.2005 2.72538 12.3463L2.82062 12.3878C2.82062 12.3878 2.70456 12.5649 2.85236 12.6897C3.00016 12.8144 3.62309 13.1059 3.72873 13.2209C3.83437 13.3354 4.46771 13.9288 4.7633 14.0227C5.0589 14.1166 5.5002 14.326 5.5002 14.326L6.34222 13.1819Z" fill="#FFBF9D"/>
<path d="M6.34222 13.1819C6.34222 13.1819 6.33649 13.1886 6.3266 13.2014C6.31619 13.2153 6.30162 13.2343 6.28289 13.2594C6.24438 13.3113 6.18765 13.3862 6.1148 13.4832C5.96908 13.6793 5.7578 13.9637 5.49239 14.3204L5.5028 14.3178C5.30608 14.226 5.08855 14.1274 4.845 14.0396C4.78359 14.0176 4.72114 14.0011 4.6639 13.9672C4.60509 13.937 4.54889 13.8995 4.49216 13.861C4.37975 13.7825 4.26839 13.6942 4.15702 13.5997C4.04565 13.5053 3.93376 13.4052 3.82292 13.2984C3.79533 13.2717 3.76775 13.2445 3.74121 13.2168C3.71259 13.1881 3.6798 13.1639 3.6465 13.1424C3.57988 13.0988 3.51015 13.0587 3.43937 13.0187C3.29834 12.9391 3.15159 12.8621 3.00691 12.7769C2.97101 12.7554 2.9351 12.7333 2.90023 12.7097C2.86588 12.6856 2.83362 12.6599 2.81384 12.625C2.77169 12.5557 2.78834 12.4633 2.83049 12.394L2.8383 12.3812L2.82477 12.375C2.7389 12.3355 2.64159 12.3037 2.58122 12.2267C2.55104 12.1897 2.5323 12.144 2.53074 12.0958C2.52918 12.048 2.54323 11.9983 2.56665 11.9567L2.55156 11.9623C2.62441 11.9818 2.70404 12.0034 2.78366 12.0249L2.90856 12.0588L2.79251 12.0003C2.77117 11.9895 2.75243 11.9741 2.73786 11.9541C2.72381 11.9336 2.71444 11.9095 2.7082 11.8838C2.69623 11.833 2.69675 11.7765 2.70508 11.7231L2.6905 11.7339C2.82477 11.7473 2.96788 11.7611 3.11256 11.7755L3.15471 11.7796L3.12192 11.7514L3.12036 11.7498C3.07613 11.7165 3.04334 11.6677 3.04022 11.6128C3.03606 11.5589 3.05427 11.5024 3.08289 11.4567L3.07092 11.4629C3.27753 11.4721 3.48101 11.4865 3.68084 11.5081C3.78076 11.5188 3.87964 11.5322 3.97592 11.5507C4.02431 11.5599 4.07167 11.5712 4.11747 11.5856C4.16378 11.602 4.20958 11.6184 4.25538 11.6348C4.6207 11.7662 4.9725 11.893 5.3066 12.0131L5.3347 12.0234L5.32221 11.9967C5.26289 11.8699 5.20876 11.7431 5.15985 11.6179C5.13539 11.5553 5.11353 11.4927 5.09376 11.43C5.07554 11.3679 5.05576 11.3043 5.05733 11.2427C5.05941 11.1806 5.08178 11.121 5.11405 11.0692C5.14632 11.0173 5.18847 10.9706 5.23843 10.9388C5.26289 10.9244 5.29255 10.9106 5.31493 10.9208C5.33835 10.9306 5.35032 10.9588 5.35812 10.986C5.37321 11.042 5.3805 11.1005 5.39351 11.157C5.39975 11.1852 5.40704 11.2134 5.41485 11.2406C5.41953 11.2545 5.42526 11.2678 5.43046 11.2817L5.44971 11.3197C5.4773 11.369 5.50696 11.4162 5.53818 11.4603C5.59959 11.5501 5.66308 11.6338 5.72397 11.7139C5.78486 11.794 5.84366 11.871 5.89987 11.9449C5.95503 12.0193 6.00863 12.0896 6.03726 12.1676C6.09814 12.3227 6.13978 12.4674 6.17725 12.5921C6.21367 12.7174 6.24334 12.8247 6.26728 12.9119C6.2907 12.9987 6.30891 13.0654 6.3214 13.1116C6.32764 13.1337 6.33181 13.1506 6.33545 13.1629C6.34013 13.1763 6.3417 13.1814 6.34222 13.1819C6.34274 13.1819 6.34117 13.1758 6.33857 13.1639C6.33545 13.1516 6.33181 13.1342 6.3266 13.1121C6.31515 13.0654 6.29798 12.9987 6.27612 12.9114C6.25323 12.8236 6.22512 12.7164 6.18922 12.5906C6.15279 12.4654 6.11272 12.3206 6.05235 12.1635C6.02373 12.0835 5.96908 12.0106 5.91444 11.9367C5.85876 11.8627 5.80047 11.7852 5.73958 11.7046C5.67921 11.6241 5.61625 11.5404 5.55536 11.4511C5.49499 11.3607 5.4315 11.2689 5.41485 11.1534C5.40236 11.0974 5.39559 11.0394 5.37946 10.9809C5.37113 10.9527 5.35864 10.9178 5.3243 10.9024C5.30816 10.8942 5.28787 10.8962 5.27226 10.9008C5.25612 10.906 5.24155 10.9131 5.22802 10.9214C5.1739 10.9558 5.13018 11.004 5.09584 11.0584C5.06201 11.1128 5.03755 11.176 5.03547 11.2427C5.03391 11.3104 5.0542 11.3736 5.07242 11.4372C5.09219 11.5004 5.11405 11.5635 5.13851 11.6266C5.18691 11.7529 5.24155 11.8792 5.30088 12.007L5.31649 11.9906C4.98239 11.8699 4.63059 11.7426 4.26526 11.6107C4.21947 11.5943 4.17367 11.5779 4.12736 11.5614C4.07948 11.5466 4.03108 11.5347 3.98216 11.5255C3.88432 11.5065 3.78493 11.4937 3.68501 11.4824C3.48465 11.4608 3.28065 11.4465 3.07301 11.4367L3.0652 11.4362L3.06156 11.4424C3.02981 11.4942 3.01056 11.5532 3.01472 11.6153C3.01784 11.678 3.05635 11.7349 3.10527 11.7714L3.10683 11.7729L3.1162 11.7488C2.97153 11.7344 2.82789 11.7206 2.69415 11.7072L2.68114 11.7062L2.67958 11.7185C2.67073 11.776 2.67021 11.834 2.68322 11.8899C2.68999 11.9177 2.70039 11.9449 2.71653 11.969C2.73318 11.9926 2.7566 12.0116 2.7821 12.0244L2.79146 11.9998C2.71132 11.9782 2.63222 11.9572 2.55936 11.9372L2.54947 11.9346L2.54479 11.9428C2.51773 11.9906 2.50368 12.0429 2.50472 12.0968C2.50628 12.1507 2.52762 12.2025 2.56092 12.2431C2.57654 12.2641 2.59735 12.2806 2.61661 12.2975C2.63846 12.3114 2.65824 12.3278 2.68114 12.3381C2.72589 12.3622 2.77065 12.3791 2.81436 12.3991L2.80864 12.3801C2.7847 12.4197 2.77013 12.4623 2.76492 12.5069C2.7592 12.5516 2.76857 12.5988 2.79146 12.6378C2.81436 12.6779 2.85079 12.7061 2.88566 12.7302C2.92105 12.7543 2.95748 12.7769 2.9939 12.7985C3.13962 12.8842 3.28637 12.9607 3.4274 13.0397C3.49766 13.0793 3.56739 13.1188 3.63297 13.1619C3.66627 13.1829 3.69698 13.206 3.72352 13.2327C3.75058 13.2615 3.77868 13.2882 3.80626 13.3154C3.91763 13.4221 4.03004 13.5222 4.14193 13.6167C4.25381 13.7111 4.3657 13.7994 4.47967 13.8785C4.53692 13.9175 4.59416 13.9544 4.65401 13.9852C4.71282 14.0191 4.77891 14.0365 4.83823 14.0581C5.08074 14.1443 5.2988 14.2419 5.49551 14.3327L5.50176 14.3358L5.50592 14.3301C5.76872 13.9703 5.97897 13.6834 6.12312 13.4858C6.1939 13.3877 6.24906 13.3123 6.28705 13.2599C6.30527 13.2348 6.3188 13.2153 6.32868 13.2014C6.33805 13.1886 6.34222 13.1819 6.34222 13.1819Z" fill="#FF9A6C"/>
<path d="M3.11517 11.7627C3.11517 11.7647 3.13651 11.7673 3.17606 11.7714C3.21509 11.775 3.27181 11.7806 3.34103 11.7899C3.47997 11.8073 3.67148 11.8396 3.87757 11.8951C3.98061 11.9233 4.07688 11.9551 4.16379 11.9864C4.25018 12.0198 4.3272 12.0506 4.38965 12.0814C4.51611 12.141 4.58949 12.1871 4.59209 12.183C4.59313 12.1815 4.57544 12.1687 4.54265 12.1471C4.52652 12.1358 4.5057 12.1235 4.48176 12.1096C4.45782 12.0958 4.43024 12.0799 4.3985 12.064C4.33657 12.0306 4.25955 11.9972 4.17264 11.9628C4.08573 11.9295 3.98841 11.8971 3.88433 11.8684C3.67669 11.8119 3.4831 11.7827 3.34311 11.7698C3.27285 11.7632 3.21613 11.7601 3.17658 11.7601C3.13702 11.7601 3.11569 11.7606 3.11517 11.7627Z" fill="#FF9A6C"/>
<path d="M4.14295 12.4782C4.144 12.4766 4.1289 12.4643 4.10028 12.4433C4.07218 12.4217 4.02899 12.394 3.97434 12.3612C3.86558 12.296 3.70581 12.2195 3.52107 12.1605C3.3358 12.1014 3.16303 12.0681 3.03761 12.0486C2.97464 12.0388 2.92364 12.0321 2.88877 12.0285C2.85338 12.0249 2.83361 12.0239 2.83361 12.0255C2.83309 12.0275 2.85234 12.0321 2.88721 12.0388C2.9278 12.0465 2.97672 12.0557 3.03448 12.067C3.15886 12.0912 3.32956 12.1276 3.51326 12.1856C3.69644 12.2441 3.85517 12.317 3.9655 12.3771C4.07582 12.4381 4.14035 12.4818 4.14295 12.4782Z" fill="#FF9A6C"/>
<path d="M2.8659 12.3509C2.86537 12.355 2.93511 12.3673 3.04544 12.395C3.15576 12.4227 3.30668 12.4695 3.46489 12.5403C3.62309 12.6111 3.75788 12.6927 3.85155 12.7564C3.94574 12.82 4.00039 12.8642 4.00351 12.8606C4.00455 12.859 3.99206 12.8467 3.96812 12.8257C3.9447 12.8041 3.90828 12.7749 3.86248 12.741C3.77089 12.6727 3.63558 12.588 3.47581 12.5162C3.31553 12.4448 3.16201 12.4002 3.0496 12.3771C2.9934 12.3653 2.9476 12.3576 2.91533 12.3545C2.88411 12.3504 2.86642 12.3488 2.8659 12.3509Z" fill="#FF9A6C"/>
<path d="M9.9398 9.84652C9.99496 9.86449 10.1443 9.89991 10.62 10.3177C11.0191 10.6688 11.2752 11.331 11.4339 11.9326C11.5879 12.5157 11.666 13.1152 11.679 13.7178C11.6967 14.5355 11.7295 16.0548 11.7316 16.2396C11.7352 16.6164 11.7701 18.0408 10.0361 18.2266C8.81051 18.358 6.75958 16.4773 6.66799 16.1693C6.57587 15.8613 6.47752 15.4024 6.47752 15.4024L5.36332 14.4159L6.39269 13.0197L9.29657 14.7505L8.93801 12.5121" fill="#FF725E"/>
<path d="M8.93802 12.5115C8.93802 12.5115 8.93959 12.5244 8.94323 12.55C8.94687 12.5762 8.9526 12.6137 8.9604 12.663C8.97601 12.7631 8.99891 12.9104 9.02858 13.1018C9.08894 13.4858 9.17741 14.0453 9.28878 14.7511L9.30075 14.7434C8.52378 14.2788 7.53552 13.689 6.39843 13.0094L6.38958 13.0038L6.38334 13.012C6.06016 13.4498 5.71409 13.9185 5.35293 14.4077L5.34616 14.4169L5.35449 14.4246C5.70889 14.7387 6.08358 15.0703 6.46816 15.4117L6.464 15.4045C6.51396 15.6319 6.56756 15.8628 6.63209 16.0949C6.64042 16.1241 6.6477 16.1523 6.65863 16.1821C6.67008 16.2129 6.68778 16.2381 6.70495 16.2637C6.73982 16.3145 6.77989 16.3613 6.81996 16.408C6.90114 16.5004 6.98857 16.5881 7.07808 16.6744C7.43872 17.0172 7.83996 17.3355 8.27502 17.6173C8.62057 17.838 8.98174 18.0336 9.36684 18.1542C9.55887 18.2127 9.75819 18.2533 9.95855 18.244C10.1573 18.2317 10.3515 18.1953 10.5383 18.1383C10.7241 18.0803 10.9026 17.9997 11.0582 17.8878C11.1362 17.8329 11.208 17.7697 11.2741 17.7025C11.3387 17.6332 11.3985 17.5608 11.449 17.4823C11.6546 17.1676 11.7305 16.7986 11.7425 16.4475C11.7482 16.2709 11.7399 16.0974 11.7373 15.926C11.7337 15.7545 11.73 15.5852 11.7264 15.4188C11.7191 15.0852 11.7123 14.7618 11.7056 14.4487C11.6978 14.1356 11.6946 13.8338 11.6837 13.5428C11.6707 13.2522 11.6431 12.974 11.6036 12.7102C11.5229 12.183 11.397 11.7144 11.246 11.3181C11.0951 10.9224 10.9078 10.599 10.6965 10.3839C10.5882 10.2787 10.4842 10.1961 10.3941 10.1232C10.3036 10.0513 10.224 9.99384 10.1568 9.95123C10.0897 9.90863 10.0361 9.88091 9.9981 9.86603C9.96011 9.85114 9.93981 9.84652 9.93981 9.84652C9.93981 9.84652 9.9445 9.84858 9.95438 9.85217C9.96427 9.85576 9.97884 9.86038 9.99706 9.86859C10.0345 9.88451 10.0876 9.91274 10.1542 9.95586C10.2203 9.99897 10.2994 10.057 10.3894 10.1293C10.4784 10.2027 10.583 10.2864 10.6892 10.3911C10.8979 10.6057 11.0831 10.928 11.232 11.3233C11.3813 11.719 11.5052 12.1866 11.5848 12.7128C11.6239 12.9756 11.6509 13.2533 11.6629 13.5433C11.6733 13.8333 11.6759 14.1356 11.6832 14.4487C11.6894 14.7618 11.6962 15.0852 11.7024 15.4188C11.7056 15.5857 11.7092 15.7545 11.7128 15.926C11.7149 16.0974 11.7233 16.2714 11.7175 16.4465C11.7056 16.795 11.6296 17.1594 11.4271 17.4684C11.3777 17.5454 11.3184 17.6173 11.2554 17.685C11.1904 17.7513 11.1196 17.8129 11.0426 17.8673C10.8896 17.9771 10.7137 18.0567 10.53 18.1136C10.3457 18.1696 10.1521 18.2055 9.95698 18.2178C9.76131 18.2271 9.5646 18.187 9.37465 18.129C8.99371 18.01 8.6341 17.8154 8.28959 17.5952C7.85609 17.3144 7.4559 16.9972 7.09682 16.6559C7.00731 16.5702 6.92092 16.4829 6.84026 16.3915C6.8007 16.3453 6.76063 16.2997 6.72681 16.2499C6.71015 16.2252 6.6935 16.2001 6.68361 16.1739C6.67372 16.1472 6.66592 16.1169 6.65759 16.0882C6.59306 15.8572 6.53946 15.6267 6.4895 15.3993L6.48846 15.3952L6.48534 15.3927C6.10023 15.0518 5.72502 14.7203 5.37062 14.4066L5.37218 14.4231C5.73282 13.9334 6.07786 13.4647 6.40051 13.0264L6.38542 13.0295C7.52407 13.7065 8.51337 14.2947 9.29138 14.7572L9.30595 14.7659L9.30335 14.749C9.18886 14.0432 9.09779 13.4842 9.03586 13.1008C9.00412 12.9099 8.98018 12.7625 8.96352 12.6625C8.9552 12.6132 8.94895 12.5757 8.94427 12.5495C8.94063 12.5244 8.93802 12.5115 8.93802 12.5115Z" fill="#263238"/>
<path d="M10.8942 10.907C10.8937 10.906 10.8854 10.909 10.8693 10.9152C10.8505 10.9229 10.8271 10.9321 10.7995 10.9434C10.7693 10.9558 10.7324 10.9712 10.6908 10.9922C10.6491 11.0127 10.6007 11.0348 10.5502 11.0641C10.4987 11.0923 10.443 11.1231 10.3853 11.1606C10.3259 11.196 10.2666 11.2386 10.2031 11.2832C10.0788 11.3751 9.94761 11.4834 9.82063 11.6087C9.69469 11.7349 9.5854 11.8653 9.49329 11.9885C9.44906 12.0516 9.40586 12.1107 9.37047 12.1692C9.333 12.2262 9.30178 12.2821 9.27368 12.3329C9.24401 12.3832 9.22268 12.431 9.20186 12.472C9.18104 12.5131 9.16491 12.5495 9.15294 12.5798C9.14149 12.6075 9.13265 12.6301 9.12484 12.6491C9.1186 12.665 9.11599 12.6737 9.11651 12.6737C9.11756 12.6743 9.12172 12.666 9.12952 12.6512C9.13837 12.6332 9.1493 12.6111 9.16231 12.5839C9.17584 12.5547 9.19301 12.5187 9.21487 12.4787C9.23673 12.4381 9.25963 12.3914 9.28981 12.3422C9.31895 12.2924 9.3507 12.2374 9.38869 12.1815C9.4246 12.1235 9.46831 12.0655 9.51255 12.0034C9.60518 11.8817 9.71394 11.7529 9.83884 11.6277C9.96478 11.5034 10.0944 11.3951 10.2172 11.3033C10.2796 11.2586 10.3384 11.2155 10.3967 11.1795C10.4534 11.1416 10.5086 11.1097 10.5591 11.0805C10.609 11.0502 10.6564 11.0276 10.697 11.0055C10.7376 10.9835 10.7735 10.9665 10.8032 10.9527C10.8302 10.9398 10.8526 10.9285 10.8708 10.9198C10.8869 10.9121 10.8948 10.9075 10.8942 10.907Z" fill="#263238"/>
<path d="M7.7827 13.8117C7.78062 13.8112 7.77281 13.8389 7.75772 13.8882C7.74263 13.9375 7.71817 14.0083 7.68226 14.093C7.61097 14.2629 7.48243 14.4857 7.30393 14.7049C7.12543 14.924 6.94016 15.1027 6.80642 15.232C6.74188 15.2941 6.68828 15.3454 6.64769 15.385C6.61022 15.4214 6.59045 15.4419 6.59149 15.4435C6.59253 15.445 6.61543 15.4265 6.65498 15.3927C6.69453 15.3588 6.75125 15.309 6.81995 15.2459C6.95733 15.1201 7.14572 14.943 7.32526 14.7218C7.50532 14.5011 7.63283 14.2737 7.69996 14.1002C7.73431 14.0134 7.75564 13.9416 7.76813 13.8908C7.7749 13.8656 7.77802 13.8456 7.78062 13.8323C7.7827 13.8189 7.78374 13.8117 7.7827 13.8117Z" fill="#263238"/>
<path d="M0.177456 16.2909C0.180578 16.2909 0.181099 16.2381 0.193588 16.1431C0.205558 16.0487 0.23366 15.9116 0.307558 15.7576C0.379375 15.6026 0.50063 15.4363 0.650507 15.2659C0.726487 15.1807 0.805588 15.0914 0.888333 14.999C0.928925 14.9523 0.9716 14.9056 1.01167 14.8542C1.05174 14.8034 1.08869 14.7495 1.12512 14.6951C1.26979 14.4749 1.39105 14.2562 1.51022 14.0627C1.62836 13.8692 1.74232 13.6983 1.85629 13.57C1.9687 13.4411 2.08632 13.3585 2.18051 13.3364C2.2747 13.3138 2.32831 13.3364 2.32883 13.3313C2.32883 13.3303 2.31582 13.3272 2.29084 13.322C2.26534 13.3179 2.22683 13.3159 2.17843 13.3261C2.08059 13.3457 1.9583 13.4283 1.84224 13.5571C1.72515 13.6855 1.6091 13.8559 1.48889 14.0494C1.36815 14.2424 1.24638 14.461 1.10274 14.6797C1.06631 14.7341 1.02989 14.7875 0.990335 14.8373C0.951824 14.8871 0.909151 14.9343 0.868559 14.981C0.786334 15.0739 0.70619 15.1627 0.631772 15.2495C0.482415 15.4214 0.360639 15.5908 0.290384 15.7494C0.217526 15.907 0.192026 16.0466 0.18318 16.1416C0.176414 16.1893 0.178496 16.2268 0.176935 16.2519C0.176414 16.2776 0.176935 16.2909 0.177456 16.2909Z" fill="#263238"/>
<path d="M2.11754 13.4714C2.11598 13.4719 2.12067 13.4986 2.13264 13.5458C2.14513 13.5931 2.16698 13.6603 2.20237 13.7409C2.2721 13.9005 2.40585 14.1115 2.61453 14.284C2.82322 14.4569 3.05636 14.5509 3.2281 14.5909C3.31449 14.6114 3.38526 14.6212 3.4347 14.6253C3.48414 14.6294 3.5112 14.6289 3.5112 14.6273C3.5112 14.6253 3.48414 14.6222 3.43574 14.615C3.38734 14.6078 3.31709 14.5955 3.23278 14.5729C3.06417 14.5288 2.83675 14.4338 2.63171 14.2639C2.42719 14.094 2.29292 13.8892 2.21954 13.7332C2.1826 13.6552 2.15761 13.589 2.14252 13.5433C2.12743 13.4971 2.11963 13.4709 2.11754 13.4714Z" fill="#263238"/>
<path d="M1.24431 14.75C1.24327 14.75 1.24431 14.7582 1.24743 14.7731C1.25055 14.788 1.25368 14.8106 1.262 14.8383C1.27605 14.8948 1.30259 14.9748 1.34735 15.0693C1.4353 15.2566 1.61328 15.4999 1.89118 15.6668C2.1696 15.8331 2.47091 15.8767 2.6796 15.867C2.78524 15.8628 2.86955 15.849 2.92679 15.8351C2.95541 15.8295 2.97727 15.8218 2.99236 15.8177C3.00693 15.8131 3.01474 15.8105 3.01474 15.8095C3.01422 15.8074 2.98247 15.8146 2.92523 15.8249C2.86798 15.8351 2.78368 15.8459 2.6796 15.848C2.47299 15.8526 2.17792 15.8069 1.90575 15.6437C1.63357 15.4804 1.45559 15.2438 1.36504 15.0606C1.31873 14.9687 1.28958 14.8902 1.27241 14.8352C1.25472 14.7808 1.24639 14.7495 1.24431 14.75Z" fill="#263238"/>
<path d="M2.70507 19.3014C2.70507 19.3086 4.14973 19.3148 5.93109 19.3148C7.71297 19.3148 9.1571 19.3086 9.1571 19.3014C9.1571 19.2942 7.71297 19.2881 5.93109 19.2881C4.14973 19.2881 2.70507 19.2937 2.70507 19.3014Z" fill="#263238"/>
<path d="M10.6429 10.0282C10.4878 10.2895 10.1782 10.4532 9.87216 10.4358C9.56564 10.4183 9.27733 10.2207 9.15347 9.94354C8.84435 10.136 8.41449 10.1165 8.1241 9.89734C7.83423 9.67765 7.70413 9.27317 7.81238 8.92875C7.52823 8.92208 7.34297 8.62694 7.27844 8.35386C7.13064 7.73124 7.34453 7.03829 7.81862 6.6025" fill="#263238"/>
<path d="M10.1043 15.5538C10.1058 15.5533 10.1017 15.5374 10.0928 15.5092C10.084 15.481 10.0678 15.4409 10.0444 15.3927C9.99862 15.2967 9.91744 15.1709 9.80138 15.0549C9.68481 14.9394 9.55783 14.8588 9.46104 14.8126C9.41264 14.7895 9.37205 14.7731 9.34342 14.7644C9.3148 14.7552 9.29867 14.7511 9.29815 14.7526C9.29659 14.7572 9.35852 14.7798 9.45219 14.8296C9.54534 14.8794 9.66816 14.961 9.78213 15.0739C9.8961 15.1874 9.9778 15.309 10.0272 15.4014C10.0772 15.4938 10.0996 15.5554 10.1043 15.5538Z" fill="#263238"/>
</g>
<defs>
<clipPath id="clip0_136_20124">
<rect width="23" height="20" fill="white" transform="matrix(-1 0 0 1 23 0)"/>
</clipPath>
</defs>
</svg>
