<svg width="18" height="28" viewBox="0 0 18 28" fill="none" xmlns="http://www.w3.org/2000/svg">
<path d="M6.3042 5.04689L6.58552 1.89751C6.63056 1.11202 7.12158 0.482745 7.89982 0.549689L7.97144 0.560103C8.69209 0.664983 9.2119 1.30914 9.16612 2.04033C9.1233 2.72093 9.06792 3.47294 9.01181 3.83296C8.89588 4.57902 8.13684 4.5872 8.13684 4.5872C8.13536 4.5872 8.08589 5.04317 8.06374 5.26409L7.96996 5.77807L7.58896 5.58393L6.3042 5.04689Z" fill="#FFBF9D"/>
<path d="M8.13981 4.56191C8.13981 4.56191 7.66799 4.52174 7.21463 4.13346C7.21463 4.13346 7.36673 4.72927 8.11692 4.76944L8.13981 4.56191Z" fill="#FF9A6C"/>
<path d="M8.8383 2.68746C8.83239 2.74399 8.77923 2.78564 8.7209 2.78044C8.66183 2.77523 8.619 2.72465 8.62565 2.66812C8.63156 2.61159 8.68472 2.56993 8.74305 2.57514C8.80212 2.58035 8.84495 2.63018 8.8383 2.68746Z" fill="#263238"/>
<path d="M8.96383 2.32224C8.94906 2.33414 8.8767 2.26273 8.76299 2.24637C8.64928 2.22851 8.55699 2.27537 8.54665 2.25975C8.54148 2.25232 8.55846 2.22926 8.59833 2.20769C8.63821 2.18612 8.70318 2.16901 8.77407 2.18016C8.84495 2.19058 8.90107 2.22554 8.93134 2.25752C8.96235 2.28951 8.97121 2.31629 8.96383 2.32224Z" fill="#263238"/>
<path d="M7.84297 2.55208C7.83706 2.60861 7.7839 2.65027 7.72557 2.64506C7.6665 2.63985 7.62367 2.58927 7.63032 2.53274C7.63623 2.47621 7.68939 2.43456 7.74772 2.43976C7.80605 2.44497 7.84888 2.49481 7.84297 2.55208Z" fill="#263238"/>
<path d="M7.84225 2.18612C7.82674 2.19802 7.75512 2.12661 7.64141 2.11025C7.5277 2.09239 7.4354 2.13926 7.42507 2.12363C7.4199 2.1162 7.43688 2.09314 7.47749 2.07231C7.51736 2.05074 7.58234 2.03363 7.65322 2.04479C7.72411 2.0552 7.78022 2.09091 7.8105 2.12215C7.84077 2.15413 7.84963 2.18091 7.84225 2.18612Z" fill="#263238"/>
<path d="M8.12504 3.1278C8.12577 3.12111 8.19813 3.11888 8.3148 3.12111C8.34433 3.1226 8.37313 3.12037 8.38051 3.10103C8.39011 3.08094 8.38273 3.04747 8.37387 3.01102C8.35688 2.9359 8.33843 2.85779 8.31997 2.77523C8.24613 2.43976 8.19666 2.16603 8.20995 2.16306C8.22324 2.16008 8.29412 2.42935 8.3687 2.76482C8.38642 2.84738 8.4034 2.92623 8.41891 3.00135C8.42481 3.03631 8.43884 3.07722 8.41743 3.11888C8.40636 3.13971 8.38273 3.15235 8.36353 3.15458C8.34433 3.15756 8.32735 3.15533 8.31332 3.15458C8.19592 3.14491 8.1243 3.1345 8.12504 3.1278Z" fill="#263238"/>
<path d="M7.93009 1.83205C7.91015 1.85883 7.80383 1.81197 7.67018 1.78966C7.53654 1.76437 7.42061 1.7718 7.41101 1.73982C7.40732 1.7242 7.4339 1.70114 7.48411 1.68478C7.53432 1.66767 7.60964 1.65949 7.69012 1.67362C7.7706 1.68775 7.83779 1.72122 7.87988 1.7547C7.92197 1.78817 7.93895 1.81941 7.93009 1.83205Z" fill="#263238"/>
<path d="M9.01698 1.98528C8.98966 2.00834 8.90032 1.96892 8.78882 1.9533C8.67733 1.93396 8.57986 1.94437 8.5614 1.91387C8.55328 1.899 8.57174 1.8752 8.61604 1.85586C8.66035 1.83652 8.73049 1.82536 8.80728 1.83726C8.88407 1.84916 8.94757 1.88189 8.98301 1.91313C9.01993 1.94512 9.02953 1.97338 9.01698 1.98528Z" fill="#263238"/>
<path d="M6.56928 2.43381C6.55747 2.42637 6.08122 2.20769 6.02437 2.72093C5.96751 3.23417 6.49102 3.18582 6.49323 3.17169C6.49545 3.15681 6.56928 2.43381 6.56928 2.43381Z" fill="#FFBF9D"/>
<path d="M6.35886 2.9597C6.35665 2.95747 6.34926 2.96491 6.33376 2.97011C6.31825 2.97532 6.29241 2.97681 6.26731 2.96416C6.21562 2.93813 6.18018 2.84664 6.18756 2.7544C6.19125 2.70754 6.20602 2.6644 6.2267 2.62944C6.24663 2.59374 6.27321 2.56993 6.30127 2.56845C6.32859 2.56547 6.34631 2.58407 6.35074 2.59894C6.35591 2.61382 6.35148 2.62423 6.35443 2.62498C6.35591 2.62647 6.36625 2.61754 6.36477 2.59597C6.36403 2.58555 6.35886 2.57291 6.34853 2.56175C6.33745 2.55059 6.31973 2.54316 6.30053 2.54316C6.26066 2.54167 6.22153 2.57365 6.19864 2.61233C6.17427 2.65101 6.15655 2.69936 6.15212 2.75217C6.144 2.85631 6.18608 2.95896 6.25697 2.98871C6.29167 3.0021 6.32268 2.99466 6.33967 2.98425C6.35665 2.9716 6.36108 2.96044 6.35886 2.9597Z" fill="#FF9A6C"/>
<path d="M10.267 1.44452C10.2626 1.41328 10.2434 1.38576 10.2183 1.36716C10.1637 1.32551 10.0965 1.32253 10.0315 1.31435C9.8698 1.29352 9.71474 1.23327 9.57888 1.14327C9.63205 1.12318 9.68226 1.09789 9.72656 1.06219C9.81812 0.98855 9.88014 0.867306 9.85504 0.752756C9.85061 0.731185 9.84101 0.708126 9.82033 0.6992C9.78858 0.685068 9.75609 0.714821 9.72951 0.73788C9.64386 0.814494 9.57002 0.843504 9.45779 0.818957C9.38838 0.804081 9.32193 0.780278 9.27098 0.739367C9.26877 0.737136 9.26729 0.734161 9.26508 0.731185C9.24145 0.700688 9.21856 0.671679 9.19641 0.642669C9.02658 0.42919 8.87669 0.277449 8.71499 0.189677C8.47797 0.0602504 8.06596 -0.0282654 7.79941 0.0104137C7.53212 0.0490929 7.27517 0.234307 7.20945 0.498366C7.07802 0.357782 6.85947 0.33398 6.67414 0.385304L6.66971 0.383073C6.46444 0.431422 6.32858 0.628537 6.24736 0.824164C6.24293 0.834578 6.23924 0.845735 6.2348 0.856893C6.1558 0.955822 6.05538 1.0369 5.93946 1.08748C5.91878 1.09641 5.89589 1.10756 5.89072 1.12988C5.88629 1.15145 5.90254 1.17153 5.91878 1.18641C5.96235 1.22583 6.01477 1.25484 6.07089 1.27121C6.04726 1.31732 6.02068 1.36195 5.98967 1.40361C5.96308 1.43931 5.93133 1.48171 5.94684 1.52336C5.95865 1.55535 5.99557 1.57246 6.02954 1.57171C6.0635 1.57023 6.09525 1.55535 6.12626 1.54047C6.09821 1.59105 6.07015 1.64163 6.04209 1.69221C6.11224 1.71304 6.18681 1.71527 6.25843 1.70263C6.27911 1.89677 6.27098 2.25157 6.30495 2.38546C6.44007 2.40332 6.47478 2.39216 6.53975 2.42265C6.62466 2.46208 6.57298 2.61605 6.69333 2.58407C6.75462 2.5677 6.86906 2.35497 6.89565 2.29769C7.07064 1.91462 7.16146 1.49287 7.16146 1.07186C7.25302 0.993757 7.36008 0.932763 7.47379 0.894828L7.46419 0.901522C7.68053 0.85243 7.9242 0.8078 8.111 0.929044C8.25572 1.02277 8.32735 1.19385 8.42777 1.33443C8.61753 1.60147 8.84864 1.75916 9.1713 1.81048C9.175 2.04033 9.14177 2.41224 9.12848 2.62498L9.35516 2.22256V2.22405C9.37214 2.20099 9.38691 2.17719 9.40168 2.15339L9.40684 2.14595V2.14521C9.42973 2.10727 9.45189 2.06859 9.47921 2.0314C9.47994 2.03214 9.48068 2.03289 9.48068 2.03363C9.58331 2.14744 9.76791 2.0128 9.69259 1.87892C9.67783 1.85214 9.65863 1.82833 9.63648 1.80751C9.68299 1.86255 9.75757 1.89528 9.82845 1.88189C9.89934 1.8685 9.95988 1.80528 9.9621 1.73312C9.96358 1.68403 9.93404 1.63643 9.89195 1.61188C9.98277 1.62973 10.0795 1.62006 10.1644 1.58361C10.2198 1.55684 10.2774 1.51369 10.267 1.44452Z" fill="#263238"/>
<path d="M7.43318 0.60994C7.43465 0.612171 7.39995 0.626304 7.35048 0.67019C7.30175 0.714076 7.24415 0.793666 7.20797 0.906728C7.18951 0.962515 7.17549 1.02648 7.16736 1.09566C7.15924 1.16484 7.15629 1.23922 7.1526 1.31807C7.1489 1.39691 7.14521 1.47948 7.13044 1.56502C7.12306 1.60742 7.11272 1.65056 7.09869 1.69296C7.08467 1.73461 7.06842 1.77998 7.0315 1.81271C7.00271 1.83949 6.9584 1.84842 6.92222 1.83652C6.88604 1.82536 6.85503 1.80156 6.83362 1.7718C6.79301 1.70932 6.78858 1.63643 6.78415 1.57246L6.79965 1.57618C6.7679 1.62973 6.73542 1.68254 6.69111 1.72345C6.64755 1.76436 6.59143 1.78742 6.53679 1.78668C6.50947 1.78594 6.48289 1.7785 6.46148 1.76436C6.43933 1.75023 6.42456 1.72866 6.41496 1.70635C6.4061 1.68403 6.40315 1.66023 6.40684 1.63791C6.41053 1.6156 6.42161 1.59551 6.43711 1.58213L6.4445 1.59031C6.37952 1.64981 6.31455 1.67808 6.27098 1.69296C6.24883 1.70039 6.23111 1.70411 6.2193 1.70635C6.20748 1.70858 6.20084 1.70932 6.20084 1.70858C6.20084 1.70783 6.20674 1.70635 6.21856 1.70337C6.23037 1.70039 6.24735 1.69519 6.2695 1.68701C6.31233 1.67064 6.37583 1.64089 6.43785 1.58213L6.44524 1.59031C6.41718 1.61411 6.41053 1.66097 6.42752 1.70114C6.43638 1.72122 6.44967 1.74056 6.4696 1.75246C6.4888 1.76511 6.51317 1.7718 6.53827 1.7718C6.58848 1.77255 6.6409 1.75023 6.68152 1.71155C6.72286 1.67287 6.75461 1.62155 6.78636 1.56725L6.79965 1.54419L6.80187 1.57097C6.80704 1.63494 6.81147 1.7056 6.84986 1.76139C6.86906 1.78817 6.89712 1.80974 6.92887 1.81941C6.96062 1.82982 6.9968 1.82238 7.0219 1.79932C7.05365 1.77106 7.0699 1.72792 7.08393 1.68701C7.09796 1.64535 7.10756 1.6037 7.11494 1.5613C7.12971 1.47725 7.1334 1.39468 7.13783 1.31658C7.14152 1.23773 7.14521 1.16335 7.15407 1.09343C7.16293 1.02351 7.17844 0.95954 7.19764 0.902265C7.23529 0.787715 7.29658 0.708125 7.34753 0.664983C7.39774 0.621841 7.43318 0.60994 7.43318 0.60994Z" fill="#455A64"/>
<path d="M9.65714 1.60519C9.65714 1.60519 9.65493 1.60667 9.6505 1.60965C9.64533 1.61262 9.63869 1.61634 9.63056 1.62155C9.6217 1.62676 9.61063 1.63271 9.5966 1.63866C9.58257 1.64461 9.56706 1.65205 9.54861 1.65725C9.47551 1.68254 9.36106 1.70263 9.22298 1.67883C9.08639 1.65502 8.9269 1.58733 8.79178 1.46014C8.65518 1.33518 8.54221 1.16112 8.45582 0.96698C8.41151 0.869538 8.37829 0.771352 8.33915 0.679861C8.30076 0.58837 8.25572 0.502086 8.19813 0.432166C8.14127 0.361502 8.0726 0.306458 7.99803 0.275961C7.96111 0.260341 7.92271 0.252903 7.88653 0.249927C7.84961 0.247696 7.81417 0.251415 7.78021 0.258109C7.71375 0.272242 7.65764 0.301995 7.61407 0.334724C7.57051 0.367452 7.5395 0.403156 7.51735 0.435141C7.476 0.500598 7.46862 0.544484 7.4664 0.542996C7.4664 0.542996 7.4664 0.540021 7.46788 0.534814C7.46935 0.528864 7.47157 0.521425 7.47378 0.512499C7.47969 0.49316 7.4915 0.464894 7.51144 0.430678C7.53285 0.397949 7.56386 0.360014 7.60817 0.326542C7.65173 0.293069 7.70859 0.261085 7.77725 0.245464C7.81122 0.238026 7.84814 0.233563 7.88653 0.235794C7.92493 0.23877 7.9648 0.246208 8.0032 0.261829C8.07999 0.292326 8.15161 0.348857 8.20994 0.421008C8.26901 0.492416 8.31479 0.580188 8.35392 0.672423C8.39379 0.764658 8.42702 0.862843 8.47058 0.958797C8.55623 1.15145 8.66699 1.32327 8.80137 1.44749C8.93354 1.57394 9.08934 1.64163 9.22372 1.66618C9.35884 1.69147 9.47255 1.67362 9.54491 1.65056C9.61949 1.62676 9.65567 1.60295 9.65714 1.60519Z" fill="#455A64"/>
<path d="M9.76201 1.28311C9.76275 1.2846 9.75241 1.2898 9.73321 1.29873C9.71402 1.3084 9.68596 1.31881 9.64978 1.32997C9.6136 1.34113 9.56929 1.3508 9.51982 1.35675C9.47035 1.36195 9.41498 1.36419 9.35738 1.35972C9.29979 1.35452 9.24515 1.34336 9.19716 1.32997C9.14916 1.31584 9.10708 1.29873 9.07311 1.28236C9.03915 1.26526 9.01256 1.25038 8.99558 1.23773C8.97786 1.22583 8.969 1.21839 8.96974 1.21765C8.97122 1.21468 9.01035 1.24071 9.07828 1.27121C9.11224 1.28683 9.15433 1.3017 9.20159 1.31509C9.24884 1.32774 9.30201 1.33741 9.35886 1.34261C9.41571 1.34708 9.46962 1.34559 9.51835 1.34113C9.56708 1.33592 9.61064 1.32774 9.64682 1.31807C9.71845 1.29947 9.76127 1.28013 9.76201 1.28311Z" fill="#455A64"/>
<path d="M8.07851 3.47815C8.07482 3.45881 7.94929 3.49303 7.83115 3.41046C7.71301 3.32715 7.69012 3.18955 7.6724 3.19327C7.66428 3.19401 7.65616 3.22971 7.67019 3.28699C7.68348 3.34278 7.72335 3.41939 7.79571 3.47071C7.86807 3.52129 7.94855 3.52948 8.00098 3.51981C8.05414 3.50939 8.08146 3.48633 8.07851 3.47815Z" fill="#263238"/>
<path d="M4.62073 4.58944C4.62073 4.58944 4.12529 4.37149 3.73321 4.79399C3.34114 5.21648 1.89688 8.04601 1.70712 8.58009C1.39405 9.4578 2.06819 10.2083 2.62935 10.2388C3.19051 10.2693 5.38642 9.55822 5.38642 9.55822L4.9087 8.28925L3.50727 8.40231L4.59415 6.20355L4.62073 4.58944Z" fill="#FFD36C"/>
<path d="M7.02118 7.07978C7.02118 7.07978 7.56167 9.83939 7.81936 10.0625C8.07705 10.2857 10.1098 11.2028 10.1098 11.2028L10.7189 10.2061L9.10338 9.21383L9.09526 7.1192C9.07902 6.52785 8.84348 6.15817 8.57471 5.96031L7.02118 7.07978Z" fill="#FFD36C"/>
<path d="M8.1649 5.19863L7.79867 5.67543L7.57125 5.08408L6.27984 4.24058L5.90401 4.60431C5.90401 4.60431 4.45532 4.63258 4.36229 4.70398C4.15407 4.86242 3.77381 7.22482 3.77381 7.22482L3.04061 11.6804C2.97858 11.8589 3.59438 11.9838 3.95102 12.0716L7.23677 12.5454C7.23677 12.5454 7.62736 12.6384 7.73812 12.3959C7.82746 12.2003 8.01427 10.1421 8.20329 9.01894C8.2535 8.72141 8.29854 7.65922 8.29854 7.65922L8.66404 6.0161L8.26827 5.71559L8.1649 5.19863Z" fill="#FFD36C"/>
<path d="M4.01675 7.38623C4.02192 7.38847 3.99755 7.44723 3.95399 7.54095C3.91116 7.63467 3.84914 7.76261 3.77825 7.90245C3.70811 8.04304 3.64166 8.16874 3.59292 8.25949C3.54419 8.35024 3.51096 8.40454 3.5058 8.40156C3.50137 8.39933 3.52573 8.33983 3.56856 8.24685C3.61138 8.15312 3.67341 8.02593 3.74355 7.88534C3.8137 7.7455 3.87941 7.6198 3.92888 7.52905C3.97909 7.43905 4.01158 7.384 4.01675 7.38623Z" fill="#FFD36C"/>
<path d="M7.49669 5.10193C7.49964 5.10491 7.45165 5.15921 7.36747 5.24921C7.2833 5.33921 7.16295 5.46492 7.02044 5.61071L7.00937 5.62187L6.99681 5.6122C6.90526 5.54154 6.80631 5.46269 6.70516 5.37789C6.47848 5.18747 6.28355 5.003 6.14769 4.86465C6.07976 4.79548 6.02586 4.7382 5.98968 4.69803C5.9535 4.65787 5.9343 4.63406 5.93651 4.63258C5.93873 4.63034 5.96088 4.65043 6.00075 4.68762C6.04579 4.73076 6.10191 4.78283 6.16762 4.84531C6.30791 4.97771 6.50506 5.15846 6.731 5.34814C6.83142 5.43294 6.92962 5.51253 7.0197 5.58393L6.99607 5.58542C7.14006 5.44112 7.2641 5.31913 7.35271 5.23359C7.44057 5.14805 7.49374 5.09896 7.49669 5.10193Z" fill="#FFD36C"/>
<path d="M8.49719 6.67216C8.50753 6.67365 8.48759 6.94515 8.45289 7.27838C8.41745 7.61236 8.38053 7.88163 8.37019 7.88088C8.35986 7.8794 8.37979 7.60864 8.41449 7.27466C8.4492 6.94068 8.48612 6.67067 8.49719 6.67216Z" fill="#FFD36C"/>
<path d="M9.97391 9.87063C9.97391 9.87063 10.3771 9.18705 10.462 9.21383C10.5469 9.2406 10.5904 9.41838 10.5395 9.54929C10.4886 9.68021 10.346 10.2054 10.346 10.2054L9.97391 9.87063Z" fill="#FFBF9D"/>
<path d="M10.109 21.7674L9.70885 23.5861C9.70885 23.5861 11.4322 24.4735 11.3901 24.8164L7.83929 24.295L8.34803 21.4357L10.109 21.7674Z" fill="#455A64"/>
<g opacity="0.6">
<path d="M8.64559 23.2298C8.57397 23.2358 8.51268 23.3042 8.51564 23.3771C8.51859 23.4492 8.58726 23.5132 8.65962 23.508C8.73124 23.5028 8.80729 23.4232 8.79622 23.3518C8.78514 23.2804 8.70023 23.2097 8.63156 23.232" fill="white"/>
</g>
<g opacity="0.6">
<path d="M7.83929 24.295L7.89024 24.0064L11.3015 24.6305C11.3015 24.6305 11.4078 24.6974 11.4041 24.8447L7.83929 24.295Z" fill="white"/>
</g>
<path d="M9.76939 23.5787C9.7657 23.5958 9.67783 23.5876 9.58332 23.6278C9.48733 23.665 9.42974 23.7326 9.41497 23.7222C9.39947 23.7163 9.44451 23.6166 9.56043 23.5705C9.67562 23.5236 9.77604 23.5638 9.76939 23.5787Z" fill="#263238"/>
<path d="M10.1113 23.8018C10.112 23.8197 10.0323 23.8353 9.95989 23.8978C9.88605 23.958 9.85652 24.0346 9.83954 24.0309C9.82255 24.0309 9.8292 23.9268 9.92076 23.8509C10.0108 23.7736 10.1135 23.7847 10.1113 23.8018Z" fill="#263238"/>
<path d="M10.2397 24.2868C10.2235 24.2875 10.2154 24.1961 10.2766 24.1098C10.3379 24.0227 10.4258 24.0004 10.4302 24.016C10.4376 24.0324 10.3756 24.0733 10.3261 24.1455C10.2752 24.2161 10.2567 24.2883 10.2397 24.2868Z" fill="#263238"/>
<path d="M9.81442 23.1539C9.80409 23.1681 9.72951 23.1301 9.63131 23.1182C9.5331 23.1049 9.45114 23.1234 9.44524 23.1071C9.43785 23.093 9.5235 23.0424 9.63943 23.0573C9.75535 23.0714 9.8255 23.142 9.81442 23.1539Z" fill="#263238"/>
<g opacity="0.3">
<path d="M10.0293 22.1275L9.95841 22.4518L8.22693 22.1141L8.27861 21.8195L10.0293 22.1275Z" fill="black"/>
</g>
<path d="M4.46273 25.0574L4.2331 26.9058C4.2331 26.9058 6.03103 27.6266 6.02143 27.9725L2.43738 27.788L2.67735 24.893L4.46273 25.0574Z" fill="#455A64"/>
<g opacity="0.6">
<path d="M3.14177 26.6514C3.07089 26.6641 3.01625 26.7385 3.02585 26.8099C3.03545 26.882 3.11002 26.9386 3.1809 26.9267C3.25179 26.9148 3.32046 26.8285 3.30274 26.7578C3.28501 26.6879 3.19419 26.6254 3.12774 26.6544" fill="white"/>
</g>
<g opacity="0.6">
<path d="M2.43811 27.788L2.46248 27.4964L5.91657 27.7962C5.91657 27.7962 6.02881 27.8527 6.03841 28L2.43811 27.788Z" fill="white"/>
</g>
<path d="M4.29292 26.8932C4.2907 26.911 4.20284 26.911 4.11202 26.9594C4.01972 27.0055 3.96877 27.0784 3.95327 27.0695C3.93776 27.0643 3.97246 26.9616 4.08396 26.9043C4.19471 26.8463 4.29809 26.8768 4.29292 26.8932Z" fill="#263238"/>
<path d="M4.65397 27.0829C4.65618 27.1 4.57792 27.123 4.5122 27.1922C4.44427 27.2591 4.42212 27.3387 4.40514 27.3358C4.38815 27.3372 4.3852 27.2331 4.46864 27.1491C4.55207 27.0643 4.65544 27.0658 4.65397 27.0829Z" fill="#263238"/>
<path d="M4.82748 27.5537C4.81124 27.5559 4.795 27.4659 4.84816 27.3737C4.90058 27.2807 4.98623 27.2502 4.99288 27.2658C5.00174 27.2815 4.94415 27.3283 4.90132 27.4042C4.85628 27.4793 4.84447 27.5537 4.82748 27.5537Z" fill="#263238"/>
<path d="M4.29881 26.4655C4.28995 26.4811 4.21242 26.4491 4.11274 26.4476C4.01379 26.4432 3.93405 26.4699 3.92593 26.4543C3.91707 26.4409 3.99755 26.3822 4.11421 26.3866C4.23161 26.3896 4.3084 26.4528 4.29881 26.4655Z" fill="#263238"/>
<g opacity="0.3">
<path d="M4.41696 25.4234L4.37635 25.7529L2.62125 25.5796L2.64561 25.282L4.41696 25.4234Z" fill="black"/>
</g>
<path d="M2.72498 3.27834C2.80823 2.52258 2.26756 1.84192 1.51734 1.75805C0.767122 1.67417 0.0914588 2.21885 0.00820207 2.97461C-0.0750547 3.73038 0.465623 4.41104 1.21584 4.49491C1.96606 4.57878 2.64172 4.03411 2.72498 3.27834Z" fill="#FF725E"/>
<path d="M18 19.0361L16.6355 15.8466L2.66701 2.48067L0.823303 4.5329L14.7187 17.7976L18 19.0361Z" fill="#FF725E"/>
<g opacity="0.7">
<path d="M14.7187 17.7976C14.7401 17.6615 14.8575 17.5663 14.986 17.6146C14.8479 17.3989 14.8619 17.0955 15.0207 16.8946C15.1787 16.6938 15.4696 16.6105 15.7088 16.6975C15.6579 16.4491 15.7487 16.1761 15.9377 16.0087C16.1275 15.8414 16.4081 15.7863 16.6458 15.8704L18 19.0361L14.7187 17.7976Z" fill="white"/>
</g>
<path d="M17.4514 17.753C17.4514 17.753 16.8083 17.6035 16.6555 18.5288L18 19.0361L17.4514 17.753Z" fill="#263238"/>
<path opacity="0.3" d="M15.7089 16.6975L1.85776 3.56369L2.72903 2.5439L16.6355 15.8466L16.6458 15.8704C16.6458 15.8704 16.5085 15.8138 16.3328 15.8347C16.2154 15.8488 16.0736 15.8957 15.9533 15.9953C15.7982 16.1233 15.7266 16.2884 15.7037 16.4275C15.6786 16.5777 15.7089 16.6975 15.7089 16.6975Z" fill="#E84126"/>
<path opacity="0.3" d="M14.986 17.6146L1.05515 4.28372L0.824036 4.55298L14.718 17.7976C14.718 17.7976 14.7408 17.5983 14.9358 17.602C14.952 17.6027 14.9683 17.6102 14.986 17.6146Z" fill="black"/>
<path d="M16.4421 16.8961C16.4406 16.8976 16.4369 16.8805 16.4125 16.873C16.3904 16.8649 16.3431 16.8708 16.3232 16.9177C16.304 16.9616 16.3047 17.0263 16.321 17.0925C16.3306 17.1252 16.3476 17.1594 16.3771 17.184C16.4059 17.2085 16.4487 17.2234 16.4886 17.2093C16.5285 17.1966 16.558 17.1579 16.5764 17.1148C16.5956 17.0716 16.6038 17.0218 16.6104 16.9705C16.6215 16.8686 16.6178 16.754 16.5831 16.6447C16.5646 16.5911 16.5321 16.5376 16.4775 16.5153C16.4236 16.4929 16.3586 16.5078 16.3099 16.5428C16.211 16.6187 16.1718 16.7578 16.1607 16.8879C16.1415 17.1557 16.2796 17.4153 16.4797 17.5276C16.5299 17.5536 16.5883 17.5559 16.637 17.5328C16.6857 17.5105 16.7241 17.4718 16.7551 17.4317C16.8164 17.3491 16.8592 17.2606 16.888 17.178C16.9464 17.0107 16.9508 16.8641 16.9456 16.7659C16.9419 16.7168 16.9368 16.6782 16.9323 16.6529C16.9279 16.6268 16.9264 16.6134 16.9264 16.6134C16.9264 16.6134 16.9434 16.6663 16.953 16.7659C16.9604 16.8649 16.9589 17.0129 16.9013 17.1825C16.8725 17.2673 16.8304 17.3565 16.7684 17.4421C16.7367 17.4837 16.6968 17.5246 16.6444 17.5492C16.5927 17.5752 16.5262 17.5722 16.4723 17.5447C16.2634 17.4279 16.1223 17.1631 16.1415 16.8879C16.146 16.8195 16.1615 16.7525 16.1851 16.6901C16.2095 16.6283 16.2449 16.5681 16.2988 16.5294C16.352 16.4907 16.4236 16.4744 16.4849 16.4996C16.5462 16.5249 16.5816 16.5844 16.6001 16.6402C16.6355 16.7548 16.6385 16.8693 16.6267 16.9742C16.62 17.0263 16.6112 17.0769 16.5905 17.123C16.5705 17.1676 16.5388 17.21 16.493 17.2241C16.4472 17.239 16.4 17.2219 16.3697 17.1951C16.338 17.1683 16.3202 17.1312 16.3106 17.0969C16.2951 17.027 16.2951 16.963 16.3165 16.9162C16.3387 16.8664 16.3911 16.8611 16.414 16.8708C16.4398 16.879 16.4421 16.8968 16.4421 16.8961Z" fill="white"/>
<path d="M16.0854 18.2819C16.0832 18.2811 16.1024 18.2462 16.1194 18.1777C16.1371 18.1093 16.146 18.0059 16.1268 17.8817C16.109 17.7567 16.0596 17.6139 15.9968 17.4584C15.937 17.303 15.8632 17.1289 15.8536 16.9318C15.8447 16.7354 15.8993 16.5495 15.9865 16.4052C16.0729 16.2594 16.1925 16.1575 16.301 16.092C16.4103 16.0266 16.5107 15.9976 16.5794 15.9834C16.6488 15.9693 16.6879 15.9693 16.6879 15.9693C16.6879 15.97 16.6783 15.9715 16.6599 15.9745C16.6414 15.9775 16.6148 15.9819 16.5809 15.9901C16.5129 16.0065 16.4147 16.0377 16.3077 16.1032C16.2013 16.1686 16.0854 16.2698 16.0012 16.4134C15.9171 16.5554 15.8632 16.7384 15.872 16.9303C15.8809 17.123 15.9532 17.2955 16.0123 17.4517C16.0743 17.6072 16.1231 17.7523 16.1393 17.8794C16.157 18.0059 16.146 18.1115 16.1253 18.18C16.1068 18.2484 16.0854 18.2819 16.0854 18.2819Z" fill="white"/>
<path d="M15.3242 18.0386C15.3197 18.0357 15.4091 18.0104 15.4593 17.8876C15.5073 17.7686 15.5228 17.5864 15.5302 17.39C15.5353 17.1921 15.5169 17.0129 15.4962 16.8849C15.4866 16.821 15.4755 16.7697 15.4689 16.7339C15.4615 16.6982 15.4578 16.6789 15.4593 16.6782C15.4608 16.6782 15.4667 16.6968 15.4763 16.7325C15.4859 16.7674 15.4977 16.8187 15.5095 16.8835C15.5339 17.0114 15.5545 17.1921 15.5494 17.3915C15.5472 17.4912 15.539 17.5856 15.5272 17.6712C15.5154 17.7567 15.4992 17.8341 15.4718 17.8943C15.4453 17.9553 15.4061 17.9947 15.3759 18.0156C15.3441 18.0349 15.3242 18.0386 15.3242 18.0386Z" fill="white"/>
<path d="M15.0989 16.8165C15.1012 16.8158 15.1196 16.8552 15.1425 16.9221C15.1639 16.9891 15.192 17.0865 15.1787 17.1966C15.1676 17.3074 15.1034 17.3967 15.0414 17.4332C15.0111 17.4525 14.983 17.4614 14.9631 17.4651C14.9432 17.4689 14.9321 17.4681 14.9321 17.4666C14.9313 17.4629 14.9771 17.4614 15.0332 17.4213C15.0901 17.3833 15.1484 17.3 15.1588 17.1936C15.1713 17.088 15.1469 16.9928 15.1285 16.9251C15.1093 16.8589 15.096 16.8173 15.0989 16.8165Z" fill="white"/>
<path d="M16.5203 18.4849C16.5196 18.4849 16.5174 18.4797 16.5137 18.4693C16.51 18.4589 16.5048 18.444 16.4989 18.4239C16.4938 18.4038 16.4864 18.3786 16.4893 18.3488C16.4915 18.3183 16.5048 18.2856 16.5233 18.2543C16.5595 18.1889 16.6163 18.1219 16.6724 18.0438C16.7286 17.9657 16.7825 17.8735 16.8304 17.7731C16.9272 17.5715 16.9855 17.3766 17.0276 17.2368C17.0453 17.1758 17.0616 17.1207 17.0771 17.0702C17.0889 17.0307 17.0963 17.0092 17.097 17.0099C17.0985 17.0099 17.0933 17.0322 17.0837 17.0724C17.0741 17.1126 17.0593 17.1698 17.0401 17.2412C17.001 17.3826 16.9449 17.5789 16.8467 17.782C16.798 17.8832 16.7433 17.9761 16.6857 18.0542C16.6281 18.1331 16.5705 18.1986 16.5336 18.261C16.4908 18.322 16.493 18.383 16.5048 18.4224C16.5159 18.4619 16.5218 18.4842 16.5203 18.4849Z" fill="white"/>
<path d="M2.8073 2.60564L0.863913 4.57456C0.836593 4.60208 0.791553 4.60282 0.764233 4.57456L0.162461 3.97205C0.135141 3.94453 0.134403 3.89916 0.162461 3.87164L2.10511 1.90272C2.13243 1.8752 2.17747 1.87445 2.20479 1.90272L2.8073 2.50597C2.83462 2.53349 2.83462 2.57812 2.8073 2.60564Z" fill="#E0E0E0"/>
<path d="M2.80729 2.60564C2.80655 2.60489 2.81172 2.60043 2.81763 2.58853C2.8228 2.57737 2.82871 2.55729 2.82058 2.53423C2.8132 2.51117 2.78514 2.49257 2.7593 2.4658C2.73198 2.43902 2.70097 2.40927 2.667 2.37579C2.59686 2.30662 2.51268 2.22405 2.41448 2.12735C2.36501 2.07901 2.31258 2.02694 2.25721 1.97189C2.24318 1.95776 2.22915 1.94437 2.21512 1.93024C2.19961 1.91536 2.18854 1.90123 2.17229 1.89751C2.15605 1.8923 2.13759 1.89528 2.12356 1.90495C2.11101 1.91462 2.09403 1.93396 2.08 1.94809C1.5912 2.44571 0.919279 3.12929 0.176479 3.88502C0.158758 3.90213 0.156543 3.93189 0.17131 3.95123C0.189031 3.97131 0.216351 3.9966 0.237763 4.01891C0.284281 4.06503 0.33006 4.11115 0.375839 4.15727C0.466658 4.24876 0.556739 4.33876 0.645344 4.42728C0.689646 4.47191 0.73321 4.51579 0.776774 4.55893C0.793018 4.57753 0.818861 4.58125 0.838797 4.57158C0.843966 4.56935 0.848396 4.56563 0.852088 4.56191L0.868332 4.54555L0.900082 4.51356C0.984994 4.42802 1.06769 4.34471 1.14817 4.26289C1.47158 3.93709 1.76324 3.64402 2.00838 3.39707C2.25278 3.1531 2.4514 2.95524 2.59095 2.8154C2.65888 2.7492 2.71204 2.69638 2.75044 2.65845C2.76742 2.64208 2.78145 2.6287 2.79253 2.61828C2.80139 2.6101 2.80655 2.60564 2.80729 2.60564C2.80803 2.60638 2.8036 2.61159 2.79474 2.62126C2.7844 2.63241 2.77111 2.64655 2.75487 2.6644C2.71721 2.70382 2.66553 2.75738 2.60055 2.82655C2.46321 2.96788 2.26754 3.16946 2.02684 3.41641C1.78317 3.66559 1.49373 3.96015 1.17254 4.28818C1.09206 4.37 1.00936 4.45405 0.925186 4.5396L0.893436 4.57158L0.877192 4.58794C0.870547 4.59464 0.862425 4.60059 0.854303 4.60505C0.820338 4.62365 0.77382 4.61398 0.749454 4.58571C0.70589 4.54257 0.662326 4.49868 0.618024 4.45405C0.52942 4.36554 0.439338 4.27554 0.348519 4.18404C0.30274 4.13867 0.256961 4.09255 0.210444 4.04644C0.186816 4.02189 0.165403 4.00329 0.13956 3.97354C0.114455 3.93932 0.118886 3.88726 0.149159 3.8575C0.894175 3.10549 1.56905 2.42489 2.06006 1.92875C2.07704 1.91313 2.08738 1.899 2.10806 1.88263C2.12873 1.8685 2.15605 1.86478 2.17894 1.87222C2.20404 1.87966 2.21881 1.899 2.2321 1.91239C2.24613 1.92652 2.26016 1.94065 2.27419 1.95479C2.32883 2.01057 2.38052 2.06338 2.42925 2.11248C2.52524 2.21066 2.60867 2.29546 2.67734 2.36538C2.71057 2.3996 2.74084 2.43084 2.76742 2.45836C2.79179 2.48588 2.81985 2.50522 2.82797 2.53274C2.83609 2.55952 2.82797 2.58035 2.82132 2.5915C2.8132 2.60266 2.80729 2.60564 2.80729 2.60564Z" fill="#263238"/>
<path d="M0.395768 3.66262C0.403152 3.65518 0.565593 3.79874 0.75757 3.98396C0.950284 4.16917 1.10017 4.32612 1.09353 4.33356C1.08614 4.341 0.923703 4.19744 0.730988 4.01222C0.539012 3.82701 0.388384 3.67006 0.395768 3.66262Z" fill="#263238"/>
<path d="M1.11274 2.88904C1.12012 2.88086 1.28847 3.02962 1.49669 3.21112C1.70491 3.39336 1.874 3.53989 1.86735 3.54882C1.86071 3.557 1.67981 3.42311 1.47159 3.24087C1.26263 3.05789 1.10535 2.89648 1.11274 2.88904Z" fill="#263238"/>
<path d="M2.69655 2.70903C2.68916 2.71647 2.52303 2.57291 2.32515 2.3877C2.12726 2.20248 1.97294 2.04554 1.98033 2.0381C1.98697 2.02991 2.15384 2.17422 2.35173 2.35943C2.54961 2.54465 2.70393 2.70159 2.69655 2.70903Z" fill="#263238"/>
<path d="M7.15925 6.99126C7.15925 6.99126 6.50136 7.06267 6.30422 7.09093C6.10707 7.1192 5.84126 7.1735 5.7497 7.33119C5.71205 7.39516 5.13538 8.24536 5.13538 8.24536L4.91534 8.30784L5.26755 9.28374L5.86341 8.98547C5.86341 8.98547 6.06573 8.75711 6.22743 8.54066C6.38913 8.32495 6.43786 8.2461 6.43786 8.2461C6.43786 8.2461 7.02782 8.27362 7.14744 8.17097C7.21315 8.11444 7.17328 8.01402 7.17328 8.01402L6.53016 7.95675C6.53016 7.95675 7.2294 7.95452 7.34532 7.87716C7.35566 7.87047 7.36452 7.86303 7.37264 7.85485C7.43983 7.78716 7.38741 7.67038 7.29216 7.66963L6.53976 7.66443C6.53976 7.66443 7.40365 7.58558 7.42285 7.48814C7.42654 7.47103 7.42802 7.45541 7.42876 7.44053C7.43245 7.37805 7.38224 7.32598 7.32022 7.32821L6.61507 7.35053C6.61507 7.35053 7.29733 7.24044 7.30324 7.14449C7.31505 6.96225 7.15925 6.99126 7.15925 6.99126Z" fill="#FFBF9D"/>
<path d="M2.70096 8.87687C2.87743 8.60537 3.18533 8.43355 3.50652 8.40231C3.53753 8.39933 4.94117 8.24833 4.94117 8.24833L5.37091 9.6021L3.30938 10.1429" fill="#455A64"/>
<path d="M3.30963 10.1429C3.30963 10.1421 3.32292 10.1369 3.34876 10.1295C3.37756 10.1213 3.41522 10.1101 3.46247 10.0968C3.56584 10.0685 3.70983 10.0283 3.88999 9.97923C4.25917 9.8803 4.77308 9.74343 5.36673 9.585L5.35418 9.6088C5.2737 9.35589 5.18657 9.08291 5.09649 8.79951C5.03742 8.61281 4.97982 8.43131 4.92445 8.25577L4.94438 8.26916C4.60326 8.30486 4.28354 8.33834 3.9941 8.36883C3.85012 8.38371 3.71352 8.39784 3.58652 8.41049C3.45878 8.4209 3.34433 8.4395 3.24318 8.47594C3.04086 8.54586 2.90353 8.65669 2.82083 8.73926C2.73813 8.82406 2.7049 8.88059 2.70195 8.87836C2.70121 8.87761 2.70933 8.86348 2.72632 8.83745C2.7433 8.81141 2.77136 8.77422 2.81123 8.72959C2.89245 8.64331 3.02979 8.52652 3.23505 8.45214C3.33621 8.41272 3.45657 8.39264 3.58356 8.38073C3.71056 8.3666 3.84643 8.35098 3.99041 8.33536C4.27911 8.30338 4.59882 8.26842 4.93995 8.23122L4.95546 8.22974L4.95989 8.24461C5.016 8.42016 5.0736 8.6024 5.13267 8.78835C5.22201 9.07175 5.30914 9.34548 5.38888 9.59838L5.39479 9.61698L5.37559 9.62219C4.77973 9.77542 4.26508 9.90782 3.89516 10.003C3.71426 10.0484 3.5688 10.0841 3.46543 10.1101C3.41743 10.1213 3.37977 10.1302 3.35024 10.1369C3.3244 10.1414 3.31037 10.1436 3.30963 10.1429Z" fill="#263238"/>
<path d="M10.397 9.84757C10.397 9.84757 10.8105 9.7055 10.9198 9.78062C11.029 9.85575 11.066 9.97699 11.066 9.97699C11.066 9.97699 11.3185 9.97923 11.2432 10.2448C11.2432 10.2448 11.4647 10.2894 11.3975 10.5497C11.3975 10.5497 11.5599 10.5453 11.4824 10.7602C11.4049 10.9752 11.0734 11.4044 10.9973 11.4624C10.8393 11.5822 10.7957 11.3925 10.8341 11.3166C10.8725 11.2408 11.0896 10.8235 11.0896 10.8235C11.0896 10.8235 10.7138 11.4193 10.5868 11.3196C10.5144 11.2631 10.5299 11.1753 10.6259 11.0005C10.6924 10.8793 10.8142 10.6397 10.8142 10.6397L10.5188 11.0072C10.4635 11.0756 10.352 11.0489 10.3372 10.9618C10.332 10.9313 10.335 10.8941 10.352 10.8503C10.4221 10.6688 10.5705 10.4486 10.5705 10.4486L10.3305 10.6859C10.2766 10.7394 10.1873 10.735 10.1408 10.6747C10.112 10.6368 10.0957 10.5892 10.1223 10.5349C10.188 10.4017 10.5535 10.0142 10.5535 10.0142L10.397 9.84757Z" fill="#FFBF9D"/>
<path d="M3.28649 11.8009C3.28649 11.8009 2.94389 13.534 3.2924 14.2897C3.64091 15.0455 4.55501 15.4077 5.50603 15.7015C6.77677 16.0943 8.97194 17.3112 8.97194 17.3112C8.97194 17.3112 8.68767 18.5734 8.50013 19.3284C8.31996 20.0537 7.81713 22.6935 7.81713 22.6935L10.1275 23.0141L11.7748 17.0426C11.7748 17.0426 12.2348 15.8161 11.2351 15.2076C10.3785 14.6862 7.349 12.6265 7.349 12.6265L7.1142 12.0791L3.28649 11.8009Z" fill="#DB9A2B"/>
<path d="M3.32784 13.8643L3.75831 14.8573L3.17352 19.5724C3.17352 19.5724 2.67291 21.1225 2.56215 21.9408C2.4514 22.759 2.20773 26.0541 2.20773 26.0541H4.47232C4.47232 26.0541 4.82304 22.0449 5.50308 20.8406C6.03766 19.893 6.40168 18.2424 6.42383 18.1346C6.44598 18.0267 7.2353 15.3854 7.2353 15.3854L6.12922 13.0922L3.32784 13.8643Z" fill="#DB9A2B"/>
<path d="M9.77159 16.7592C9.77602 16.7704 9.56706 16.844 9.34629 16.9995C9.12404 17.1535 8.98375 17.326 8.97415 17.3179C8.97046 17.3149 9.00073 17.268 9.06054 17.2003C9.12035 17.1326 9.21116 17.0471 9.32414 16.9675C9.43711 16.8887 9.5486 16.8329 9.63204 16.7994C9.71547 16.7667 9.77011 16.7548 9.77159 16.7592Z" fill="#DB9A2B"/>
<path d="M10.1275 23.0148C10.1275 23.0148 10.1135 23.0141 10.0869 23.0111C10.0588 23.0074 10.019 23.0029 9.968 22.9963C9.86168 22.9821 9.70736 22.962 9.50948 22.936C9.10928 22.8817 8.53187 22.8036 7.81565 22.7069L7.80163 22.7047L7.80458 22.6905C7.93527 22.001 8.09181 21.1806 8.27787 20.2686C8.32439 20.041 8.37312 19.8067 8.42629 19.5687C8.48166 19.3307 8.53778 19.0882 8.59537 18.8405C8.71056 18.3458 8.83091 17.8326 8.95348 17.306L8.96308 17.3268C8.79326 17.2338 8.61088 17.1356 8.42629 17.0382C7.91164 16.7674 7.40438 16.5138 6.90672 16.2839C6.40906 16.0556 5.92247 15.8473 5.44253 15.6985C4.96259 15.5475 4.50849 15.3824 4.12011 15.1541C3.92666 15.0395 3.75019 14.9086 3.60399 14.7576C3.45779 14.6073 3.34187 14.437 3.26729 14.2592C3.1905 14.0807 3.1654 13.8962 3.14546 13.7244C3.13734 13.6381 3.12995 13.5541 3.12922 13.473C3.12479 13.3912 3.12626 13.3123 3.127 13.2365C3.13143 12.9315 3.15654 12.6697 3.18164 12.4569C3.20748 12.2442 3.23333 12.0798 3.25326 11.9682C3.2636 11.9139 3.27172 11.8723 3.27689 11.8418C3.2828 11.8135 3.28649 11.7994 3.28649 11.7994C3.28649 11.7994 3.28501 11.8143 3.28058 11.8425C3.27615 11.8723 3.26877 11.9147 3.26065 11.969C3.24366 12.0805 3.2193 12.2449 3.19641 12.4577C3.17352 12.6704 3.15063 12.9315 3.14841 13.2357C3.14841 13.3116 3.14767 13.3904 3.15211 13.4715C3.15358 13.5526 3.16097 13.6359 3.16983 13.7214C3.1905 13.891 3.21634 14.074 3.2924 14.2481C3.36697 14.4221 3.48068 14.5887 3.6254 14.736C3.77012 14.884 3.94438 15.0127 4.13709 15.1258C4.52252 15.3512 4.97514 15.5148 5.45435 15.6643C5.9365 15.8131 6.4253 16.0206 6.9237 16.249C7.42136 16.4788 7.9301 16.7325 8.44475 17.0032C8.62934 17.1007 8.81245 17.1981 8.98228 17.2918L8.99483 17.2985L8.99188 17.3126C8.86857 17.84 8.74822 18.3533 8.63229 18.8479C8.5747 19.0949 8.51784 19.3374 8.46173 19.5754C8.40857 19.8134 8.3591 20.0462 8.31184 20.2746C8.12429 21.1858 7.96407 22.0055 7.83042 22.6943L7.81935 22.6786C8.53483 22.7805 9.11149 22.8624 9.51095 22.9196C9.70884 22.9486 9.86242 22.971 9.96874 22.9866C10.0197 22.9948 10.0596 23.0007 10.0876 23.0052C10.1142 23.0111 10.1275 23.0148 10.1275 23.0148Z" fill="#DB9A2B"/>
</svg>
