<svg width="26" height="25" viewBox="0 0 26 25" fill="none" xmlns="http://www.w3.org/2000/svg">
<g clip-path="url(#clip0_629_64273)">
<path d="M18.8013 8.02327C18.8197 7.9091 18.7441 7.8009 18.6247 7.77211L18.397 7.787L17.5832 7.51201C17.431 7.47429 17.2779 7.57952 17.2748 7.72743C17.2707 7.95477 17.1768 8.57423 16.9869 8.37966C16.9828 8.3747 16.9777 8.37172 16.9736 8.36675C16.705 8.07588 16.3946 7.93491 16.2741 7.95179C16.1567 7.96767 16.1281 8.11063 16.2159 8.18608C16.2292 8.19898 16.2445 8.21089 16.2639 8.21884C16.2721 8.22181 16.2823 8.22876 16.2915 8.23273C16.3905 8.29528 16.512 8.41043 16.6029 8.50276C16.6887 8.59111 16.7581 8.69336 16.8082 8.80356C16.8633 8.92665 16.9052 9.03387 16.9389 9.12619L16.9511 9.85387L16.6264 13.256C16.6264 13.256 14.4729 11.0561 14.5219 11.0342L14.6455 14.4582L15.9504 15.5085C16.5049 15.9542 17.2942 15.9969 17.8956 15.6137C18.3663 15.3139 18.6461 14.7997 18.6369 14.2527L18.5614 9.85387L18.6145 9.27709L18.8013 8.02327Z" fill="#FFBE9D"/>
<path d="M6.70447 12.8589L4.3478 18.1055L2.48227 21.8898L1.09665 22.3425C1.09665 22.3425 0 22.6522 0 22.8726C0 23.093 0.288968 23.0433 0.288968 23.0433C0.342065 23.3729 0.811766 23.1863 1.13954 23.0384C1.46833 22.8904 2.19738 22.8607 2.19738 22.8607C1.99623 23.0116 2.06056 23.2439 2.17696 23.3233C2.29337 23.4027 2.49554 23.3064 2.63339 23.1644C2.77022 23.0225 3.12351 22.956 3.51561 22.82C3.90873 22.684 3.97306 22.1707 3.97306 22.1707L8.69355 14.4403L6.70447 12.8589Z" fill="#FFBE9D"/>
<path d="M14.5301 14.7639L15.1234 15.5263L16.4089 12.7536C16.4089 12.7536 15.1612 11.2735 14.7047 10.653C14.2524 10.0375 13.9134 9.93031 13.9134 9.93031C13.9134 9.93031 13.0843 9.69106 12.6707 9.699L10.6224 9.81813L8.54246 10.7007C8.03191 10.9171 7.59693 11.2735 7.2906 11.7262L5.33215 14.7848L8.10543 15.9373L9.03564 21.1065C9.21433 21.8818 9.36954 22.6135 10.1057 22.9709L15.249 18.165L14.6465 17.2428L14.5301 14.7639Z" fill="#E8505B"/>
<path d="M9.6126 13.8159C9.62485 13.8238 9.3073 14.3033 8.90499 14.886C8.50166 15.4688 8.1647 15.9354 8.15244 15.9274C8.14019 15.9195 8.45673 15.441 8.86006 14.8572C9.26441 14.2745 9.60137 13.8079 9.6126 13.8159Z" fill="#263238"/>
<path d="M13.9246 18.7239C13.9266 18.7269 13.8776 18.7547 13.7878 18.8034C13.6979 18.852 13.5672 18.9195 13.4049 19.0009C13.0802 19.1647 12.6278 19.3841 12.1224 19.6154C11.6169 19.8467 11.1554 20.0463 10.8184 20.1852C10.65 20.2547 10.5131 20.3103 10.4182 20.3461C10.3232 20.3828 10.2701 20.4017 10.2681 20.3977C10.2671 20.3947 10.3171 20.3699 10.41 20.3272C10.5111 20.2815 10.6438 20.223 10.8031 20.1515C11.136 20.0036 11.5945 19.7991 12.0999 19.5678C12.6043 19.3365 13.0587 19.122 13.3875 18.9672C13.5458 18.8927 13.6765 18.8312 13.7776 18.7845C13.8715 18.7428 13.9236 18.72 13.9246 18.7239Z" fill="#263238"/>
<path d="M9.44817 12.6961C9.44204 12.7 9.37465 12.6137 9.26744 12.4757C9.1592 12.3377 9.01114 12.1451 8.81101 11.9694C8.61088 11.7937 8.39134 11.6815 8.22184 11.6319C8.05336 11.5812 7.94104 11.5822 7.94104 11.5733C7.94104 11.5703 7.96861 11.5663 8.01966 11.5673C8.07072 11.5683 8.14424 11.5753 8.23205 11.5971C8.4087 11.6378 8.64049 11.75 8.84675 11.9307C9.05199 12.1113 9.198 12.3109 9.29909 12.4538C9.39813 12.5998 9.45429 12.6921 9.44817 12.6961Z" fill="#263238"/>
<path d="M13.6796 15.2156C13.6816 15.2156 13.6827 15.2345 13.6816 15.2702C13.6806 15.306 13.6827 15.3596 13.6765 15.4271C13.6694 15.5631 13.6469 15.7606 13.5948 15.9999C13.4938 16.4774 13.2426 17.1286 12.7586 17.7143C12.2746 18.301 11.6752 18.6813 11.2177 18.8808C10.989 18.9821 10.795 19.0466 10.6602 19.0833C10.5928 19.1032 10.5397 19.1131 10.504 19.122C10.4683 19.13 10.4489 19.1329 10.4489 19.132C10.4478 19.128 10.5224 19.1071 10.6551 19.0644C10.7879 19.0218 10.9778 18.9533 11.2024 18.848C11.6517 18.6415 12.2399 18.2613 12.7177 17.6826C13.1956 17.1038 13.4488 16.4635 13.5591 15.9919C13.6153 15.7557 13.6439 15.5601 13.6571 15.4251C13.6704 15.2911 13.6755 15.2156 13.6796 15.2156Z" fill="#263238"/>
<g opacity="0.3">
<path d="M8.46379 17.9347C8.4546 17.8851 9.12342 14.5247 9.12342 14.5247L8.1156 15.9959" fill="black"/>
</g>
<path d="M14.3984 11.5385C14.4005 11.5385 14.4025 11.5584 14.4056 11.5961C14.4087 11.6398 14.4117 11.6944 14.4168 11.7619C14.425 11.9128 14.4352 12.1203 14.4485 12.3724C14.474 12.8946 14.5097 13.6044 14.5485 14.3877C14.5874 15.1749 14.618 15.8887 14.6333 16.4049C14.6415 16.663 14.6466 16.8725 14.6476 17.0164C14.6476 17.0839 14.6486 17.1395 14.6486 17.1832C14.6486 17.2209 14.6476 17.2408 14.6456 17.2418C14.6435 17.2418 14.6415 17.2219 14.6384 17.1842C14.6353 17.1405 14.6323 17.0859 14.6272 17.0184C14.619 16.8675 14.6088 16.66 14.5955 16.4079C14.57 15.8857 14.5343 15.1759 14.4955 14.3917C14.4567 13.6044 14.426 12.8916 14.4107 12.3754C14.4025 12.1173 14.3974 11.9078 14.3964 11.7639C14.3964 11.6964 14.3954 11.6408 14.3954 11.5971C14.3954 11.5584 14.3964 11.5385 14.3984 11.5385Z" fill="#263238"/>
<g opacity="0.2">
<path d="M10.2936 20.3947C10.1292 20.2617 10.167 19.9897 10.3119 19.8368C10.4569 19.6839 10.6724 19.6184 10.8766 19.5539C11.8538 19.2461 12.8361 18.8113 13.4814 18.033C13.5702 17.9258 13.654 17.8106 13.7704 17.7312C13.8868 17.6518 14.0451 17.6141 14.1717 17.6776C14.3687 17.7779 14.3769 18.0558 14.2942 18.2564C14.1931 18.5016 13.9981 18.709 13.7551 18.8282" fill="black"/>
</g>
<g opacity="0.2">
<path d="M14.4198 12.1352L14.9906 15.3546L14.5454 14.7838L14.4198 12.1352Z" fill="black"/>
</g>
<path d="M19.8499 20.5942L18.885 23.8127L22.9969 25.001C23.0899 24.6118 21.1968 23.2309 21.1968 23.2309L21.9023 21.1939L19.8499 20.5942Z" fill="#E8505B"/>
<g opacity="0.6">
<path d="M19.9786 22.6889C19.8928 22.6869 19.8111 22.7584 19.806 22.8418C19.8009 22.9252 19.8744 23.0066 19.9602 23.0096C20.046 23.0125 20.1471 22.9301 20.143 22.8468C20.1389 22.7634 20.047 22.672 19.9623 22.6889" fill="white"/>
</g>
<g opacity="0.6">
<path d="M18.885 23.8117L18.9953 23.491L22.8969 24.7498C22.8969 24.7498 23.0562 24.8799 22.9969 25L18.885 23.8117Z" fill="white"/>
</g>
<path d="M21.2703 23.229C21.2642 23.2478 21.161 23.228 21.0426 23.2627C20.9241 23.2935 20.8465 23.364 20.8312 23.3511C20.8139 23.3421 20.8792 23.2339 21.0232 23.1952C21.1651 23.1535 21.2795 23.2121 21.2703 23.229Z" fill="#263238"/>
<path d="M21.6481 23.5268C21.6471 23.5466 21.5501 23.5556 21.4561 23.6181C21.3612 23.6787 21.3162 23.7631 21.2968 23.7561C21.2774 23.7541 21.2979 23.635 21.4153 23.5595C21.5327 23.4821 21.6532 23.5079 21.6481 23.5268Z" fill="#263238"/>
<path d="M21.7399 24.0996C21.7205 24.0986 21.7226 23.9934 21.8063 23.901C21.89 23.8087 21.9972 23.7938 22.0013 23.8127C22.0075 23.8315 21.9288 23.8723 21.8614 23.9487C21.791 24.0222 21.7603 24.1026 21.7399 24.0996Z" fill="#263238"/>
<path d="M21.3775 22.7465C21.3632 22.7614 21.2795 22.7088 21.1641 22.683C21.0487 22.6552 20.9497 22.6671 20.9436 22.6472C20.9364 22.6293 21.0447 22.5827 21.1805 22.6145C21.3173 22.6452 21.3918 22.7346 21.3775 22.7465Z" fill="#263238"/>
<path d="M21.4244 22.2442C21.4224 22.2521 21.3387 22.2412 21.2192 22.1836C21.159 22.1548 21.0916 22.1131 21.0232 22.0565C20.9895 22.0287 20.9558 21.997 20.9231 21.9612C20.9078 21.9444 20.8894 21.9255 20.8751 21.8957C20.8588 21.8689 20.8618 21.8133 20.8976 21.7895C20.9282 21.7647 20.969 21.7627 20.9997 21.7706C21.0303 21.7786 21.0528 21.7915 21.0742 21.8034C21.1171 21.8272 21.1549 21.855 21.1896 21.8828C21.258 21.9404 21.308 22.0029 21.3428 22.0585C21.4122 22.1717 21.4224 22.2541 21.4142 22.2561C21.403 22.2601 21.3754 22.1856 21.2999 22.0863C21.2621 22.0367 21.211 21.9831 21.1467 21.9324C21.114 21.9076 21.0783 21.8838 21.0395 21.863C20.9997 21.8391 20.9619 21.8282 20.9456 21.8441C20.9394 21.8501 20.9384 21.853 20.9435 21.8679C20.9496 21.8818 20.9639 21.8987 20.9782 21.9156C21.0078 21.9493 21.0385 21.9801 21.0681 22.0079C21.1293 22.0635 21.1906 22.1062 21.2447 22.1399C21.3519 22.2064 21.4285 22.2342 21.4244 22.2442Z" fill="#263238"/>
<path d="M21.3897 22.265C21.3816 22.266 21.3632 22.1846 21.3948 22.0556C21.4101 21.992 21.4408 21.9176 21.4898 21.8441C21.5143 21.8074 21.5449 21.7716 21.5796 21.7379C21.6154 21.7051 21.6613 21.6604 21.742 21.6743C21.7828 21.6843 21.8073 21.725 21.8114 21.7548C21.8165 21.7855 21.8125 21.8094 21.8104 21.8342C21.8033 21.8828 21.789 21.9285 21.7696 21.9692C21.7308 22.0506 21.6736 22.1111 21.6184 22.1509C21.5061 22.2313 21.4152 22.2303 21.4163 22.2233C21.4122 22.2114 21.4939 22.1945 21.5858 22.1121C21.6307 22.0714 21.6777 22.0149 21.7083 21.9424C21.7236 21.9066 21.7348 21.8669 21.74 21.8252C21.7461 21.7806 21.741 21.7418 21.7226 21.7418C21.7022 21.7359 21.6572 21.7577 21.6307 21.7865C21.599 21.8163 21.5705 21.8481 21.547 21.8798C21.499 21.9444 21.4663 22.0109 21.4459 22.0685C21.403 22.1856 21.402 22.265 21.3897 22.265Z" fill="#263238"/>
<path d="M24.0721 15.8023C24.1763 16.5449 23.9149 17.3818 23.6392 18.0816L21.836 22.2035L19.8397 21.9056C19.8397 21.9056 19.4231 22.3563 18.8911 22.5281C18.6532 22.6055 17.87 22.7544 17.2257 22.3037C17.2257 22.3037 16.3139 23.5387 14.8793 23.912C13.4446 24.2852 11.2728 24.4917 10.2211 22.8597L15.2275 18.17C15.3306 18.1938 19.5395 15.435 21.8125 14.8066C21.8125 14.8066 23.8802 14.4363 24.0721 15.8023Z" fill="#263238"/>
<path d="M19.6906 21.8898C19.6906 21.8888 19.6998 21.8838 19.7172 21.8739C19.7386 21.863 19.7651 21.8491 19.7988 21.8322C19.8703 21.7955 19.9775 21.7418 20.1123 21.6694C20.2471 21.5969 20.4105 21.5056 20.5892 21.3835C20.7668 21.2614 20.9608 21.1065 21.1293 20.896C21.2998 20.6886 21.4295 20.4175 21.4796 20.1078C21.5316 19.8001 21.5143 19.4596 21.4367 19.1161C21.3591 18.7756 21.1957 18.4202 20.8863 18.1839C20.579 17.9476 20.1736 17.8245 19.759 17.7937C19.5507 17.7769 19.3434 17.7798 19.1413 17.7987C18.9391 17.8196 18.741 17.8553 18.549 17.9C18.1651 17.9923 17.8067 18.1233 17.4718 18.2623C16.804 18.5452 16.225 18.852 15.7165 19.0625C15.2101 19.2789 14.7792 19.4059 14.4759 19.4655C14.4003 19.4824 14.333 19.4923 14.2737 19.5012C14.2155 19.5112 14.1655 19.5171 14.1247 19.5211C14.0869 19.5251 14.0562 19.5271 14.0328 19.53C14.0123 19.532 14.0011 19.532 14.0011 19.531C14.0011 19.53 14.0113 19.5281 14.0317 19.5251C14.0552 19.5211 14.0848 19.5171 14.1226 19.5112C14.1624 19.5062 14.2125 19.4983 14.2707 19.4874C14.3289 19.4764 14.3963 19.4655 14.4708 19.4466C14.771 19.3821 15.1978 19.2501 15.7002 19.0297C16.2056 18.8153 16.7815 18.5055 17.4514 18.2186C17.7873 18.0777 18.1477 17.9446 18.5358 17.8513C18.7298 17.8057 18.9299 17.7699 19.1351 17.7481C19.3404 17.7292 19.5517 17.7262 19.7631 17.7431C20.1848 17.7749 20.5994 17.9 20.918 18.1452C21.0762 18.2683 21.2028 18.4221 21.2937 18.5889C21.3856 18.7557 21.4438 18.9324 21.4847 19.1061C21.5623 19.4556 21.5786 19.8011 21.5235 20.1158C21.4704 20.4304 21.3356 20.7094 21.1589 20.9189C20.9854 21.1313 20.7873 21.2862 20.6055 21.4073C20.4238 21.5284 20.2573 21.6168 20.1215 21.6872C19.9847 21.7577 19.8764 21.8074 19.8029 21.8411C19.7682 21.857 19.7406 21.8689 19.7192 21.8788C19.7008 21.8868 19.6906 21.8898 19.6906 21.8898Z" fill="#455A64"/>
<path d="M20.9426 16.4804C20.9548 16.4883 20.768 16.7851 20.5239 17.1435C20.2809 17.5019 20.0736 17.7868 20.0614 17.7789C20.0491 17.7709 20.236 17.4741 20.48 17.1157C20.723 16.7573 20.9303 16.4724 20.9426 16.4804Z" fill="#455A64"/>
<path d="M19.5027 21.5622C19.5038 21.5701 19.3639 21.5989 19.1403 21.6535C18.9166 21.7071 18.6083 21.7905 18.2764 21.9027C17.9446 22.0158 17.6505 22.138 17.4412 22.2313C17.2308 22.3246 17.1032 22.3871 17.0991 22.3802C17.0971 22.3772 17.1277 22.3573 17.1828 22.3256C17.239 22.2928 17.3207 22.2491 17.4238 22.1985C17.6301 22.0963 17.9231 21.9682 18.258 21.854C18.5929 21.7409 18.9034 21.6624 19.1311 21.6178C19.2444 21.5949 19.3373 21.579 19.4017 21.5711C19.467 21.5612 19.5027 21.5582 19.5027 21.5622Z" fill="#455A64"/>
<path d="M21.7992 21.9334C21.79 21.9364 21.7665 21.8451 21.6817 21.724C21.599 21.6039 21.4438 21.4559 21.2263 21.3865C21.0088 21.318 20.7934 21.3497 20.6535 21.3994C20.5116 21.449 20.437 21.5095 20.4319 21.5016C20.4299 21.4996 20.4462 21.4818 20.4799 21.4549C20.5136 21.4281 20.5677 21.3954 20.6392 21.3646C20.7811 21.3031 21.0088 21.2634 21.2417 21.3358C21.4745 21.4093 21.6348 21.5721 21.7124 21.7031C21.7522 21.7687 21.7757 21.8262 21.7869 21.8669C21.8002 21.9096 21.8033 21.9325 21.7992 21.9334Z" fill="#455A64"/>
<path d="M13.1639 20.3947C13.1669 20.3937 13.1771 20.4265 13.1894 20.487C13.2006 20.5476 13.2129 20.6369 13.2129 20.7481C13.2129 20.9685 13.1628 21.2842 12.977 21.5771C12.7932 21.8719 12.5104 22.0506 12.2929 22.1171C12.1836 22.1528 12.0907 22.1638 12.0274 22.1667C11.9641 22.1697 11.9284 22.1648 11.9284 22.1618C11.9273 22.1509 12.0713 22.1588 12.2806 22.0824C12.4879 22.0089 12.7544 21.8332 12.9321 21.5493C13.1108 21.2673 13.1659 20.9616 13.1751 20.7461C13.1843 20.5307 13.1537 20.3967 13.1639 20.3947Z" fill="#455A64"/>
<path d="M10.9114 22.6224C10.9001 22.6313 10.847 22.5867 10.798 22.5192C10.748 22.4517 10.7214 22.3881 10.7347 22.3802C10.747 22.3732 10.7929 22.4229 10.8419 22.4884C10.8889 22.5539 10.9226 22.6125 10.9114 22.6224Z" fill="#455A64"/>
<path d="M11.3321 23.0533C11.3229 23.0642 11.2647 23.0264 11.2034 22.9689C11.1422 22.9113 11.1013 22.8567 11.1115 22.8468C11.1228 22.8368 11.18 22.8746 11.2402 22.9311C11.3005 22.9877 11.3413 23.0423 11.3321 23.0533Z" fill="#455A64"/>
<path d="M11.8273 23.4017C11.8201 23.4146 11.7558 23.3878 11.6843 23.3421C11.6128 23.2965 11.5618 23.2508 11.57 23.2389C11.5791 23.227 11.6424 23.2538 11.7129 23.2985C11.7834 23.3431 11.8344 23.3898 11.8273 23.4017Z" fill="#455A64"/>
<path d="M12.3888 23.637C12.3848 23.6509 12.3163 23.639 12.2357 23.6112C12.155 23.5824 12.0948 23.5496 12.1009 23.5367C12.107 23.5238 12.1754 23.5357 12.2541 23.5625C12.3317 23.5893 12.3929 23.6231 12.3888 23.637Z" fill="#455A64"/>
<path d="M12.9924 23.7293C12.9924 23.7432 12.9229 23.7492 12.8372 23.7412C12.7514 23.7333 12.685 23.7164 12.6871 23.7015C12.6891 23.6876 12.7585 23.6817 12.8423 23.6896C12.925 23.6965 12.9924 23.7144 12.9924 23.7293Z" fill="#455A64"/>
<path d="M13.6029 23.6965C13.605 23.7104 13.5365 23.7263 13.4518 23.7323C13.4058 23.7353 13.365 23.7343 13.3374 23.7313H13.3395C13.314 23.7293 13.2986 23.7243 13.2986 23.7184C13.2976 23.7114 13.3119 23.7045 13.3354 23.6975H13.3374C13.365 23.6906 13.4048 23.6846 13.4498 23.6816C13.5325 23.6757 13.6019 23.6826 13.6029 23.6965Z" fill="#455A64"/>
<path d="M14.2054 23.5913C14.2094 23.6052 14.1441 23.63 14.0614 23.6479C13.9787 23.6648 13.9092 23.6678 13.9062 23.6539C13.9041 23.64 13.9685 23.6141 14.0501 23.5973C14.1318 23.5794 14.2013 23.5774 14.2054 23.5913Z" fill="#455A64"/>
<path d="M14.7905 23.4176C14.7957 23.4305 14.7344 23.4632 14.6537 23.4891C14.5731 23.5149 14.5046 23.5258 14.5006 23.5119C14.4965 23.498 14.5577 23.4662 14.6374 23.4404C14.716 23.4146 14.7854 23.4047 14.7905 23.4176Z" fill="#455A64"/>
<path d="M15.3531 23.1853C15.3592 23.1982 15.302 23.2359 15.2244 23.2707C15.1468 23.3044 15.0794 23.3223 15.0743 23.3084C15.0682 23.2955 15.1264 23.2568 15.203 23.223C15.2795 23.1893 15.3469 23.1724 15.3531 23.1853Z" fill="#455A64"/>
<path d="M15.8902 22.8994C15.8984 22.9113 15.8443 22.955 15.7718 22.9967C15.6983 23.0384 15.6329 23.0612 15.6258 23.0493C15.6186 23.0364 15.6717 22.9937 15.7442 22.952C15.8167 22.9103 15.8821 22.8865 15.8902 22.8994Z" fill="#455A64"/>
<path d="M16.3957 22.5638C16.4049 22.5747 16.3558 22.6234 16.2864 22.672C16.217 22.7207 16.1547 22.7495 16.1465 22.7376C16.1384 22.7256 16.1874 22.677 16.2558 22.6294C16.3242 22.5817 16.3865 22.5519 16.3957 22.5638Z" fill="#455A64"/>
<path d="M16.8674 22.1846C16.8776 22.1955 16.8337 22.2472 16.7693 22.3018C16.705 22.3554 16.6458 22.3911 16.6366 22.3792C16.6274 22.3683 16.6713 22.3156 16.7346 22.262C16.7979 22.2084 16.8571 22.1737 16.8674 22.1846Z" fill="#455A64"/>
<path d="M17.3126 21.7756C17.3228 21.7865 17.2799 21.8401 17.2186 21.8967C17.1574 21.9533 17.0992 21.99 17.0889 21.9801C17.0777 21.9692 17.1206 21.9156 17.1819 21.859C17.2452 21.8024 17.3034 21.7647 17.3126 21.7756Z" fill="#455A64"/>
<path d="M17.7966 21.4093C17.8048 21.4212 17.7558 21.4698 17.6884 21.5175C17.6199 21.5651 17.5577 21.5949 17.5485 21.584C17.5393 21.5731 17.5883 21.5244 17.6567 21.4758C17.7261 21.4272 17.7894 21.3974 17.7966 21.4093Z" fill="#455A64"/>
<path d="M18.3336 21.1214C18.3398 21.1343 18.2836 21.175 18.208 21.2107C18.1325 21.2465 18.0661 21.2663 18.059 21.2534C18.0518 21.2405 18.108 21.2008 18.1846 21.1641C18.2611 21.1283 18.3275 21.1085 18.3336 21.1214Z" fill="#455A64"/>
<path d="M18.9177 20.9447C18.9197 20.9586 18.8564 20.9864 18.7758 21.0062C18.6951 21.0261 18.6257 21.0311 18.6205 21.0172C18.6165 21.0033 18.6798 20.9764 18.7625 20.9556C18.8462 20.9357 18.9156 20.9308 18.9177 20.9447Z" fill="#455A64"/>
<path d="M19.5284 20.9149C19.5274 20.9288 19.4579 20.9338 19.3752 20.9328C19.2915 20.9308 19.2231 20.9238 19.2221 20.9099C19.221 20.896 19.2894 20.8802 19.3752 20.8811C19.462 20.8821 19.5294 20.901 19.5284 20.9149Z" fill="#455A64"/>
<path d="M20.1185 21.0658C20.1114 21.0787 20.046 21.0598 19.9684 21.033C19.8898 21.0062 19.8275 20.9794 19.8306 20.9655C19.8336 20.9516 19.9051 20.9566 19.9858 20.9844C20.0674 21.0112 20.1256 21.0529 20.1185 21.0658Z" fill="#455A64"/>
<path d="M19.9898 21.4976C19.9806 21.4857 20.0266 21.4371 20.0807 21.3775C20.1348 21.318 20.1787 21.2683 20.192 21.2753C20.2043 21.2822 20.1787 21.3477 20.1205 21.4113C20.0613 21.4758 19.998 21.5086 19.9898 21.4976Z" fill="#455A64"/>
<path d="M19.4487 21.7706C19.4446 21.7567 19.5028 21.721 19.5804 21.6902C19.657 21.6595 19.7254 21.6446 19.7326 21.6575C19.7397 21.6704 19.6805 21.7061 19.6008 21.7379C19.5212 21.7696 19.4528 21.7835 19.4487 21.7706Z" fill="#455A64"/>
<path d="M18.8647 21.9523C18.8596 21.9384 18.9208 21.9066 19.0015 21.8808C19.0822 21.855 19.1506 21.8441 19.1547 21.858C19.1588 21.8719 19.0975 21.9037 19.0178 21.9295C18.9392 21.9553 18.8698 21.9662 18.8647 21.9523Z" fill="#455A64"/>
<path d="M18.2928 22.1648C18.2877 22.1518 18.3469 22.1161 18.4255 22.0863C18.5042 22.0565 18.5726 22.0426 18.5777 22.0556C18.5828 22.0685 18.5236 22.1042 18.4449 22.134C18.3663 22.1648 18.2979 22.1777 18.2928 22.1648Z" fill="#455A64"/>
<path d="M17.7281 22.397C17.722 22.3841 17.7802 22.3474 17.8588 22.3147C17.9364 22.2819 18.0048 22.266 18.0099 22.2789C18.0161 22.2918 17.9568 22.3295 17.8792 22.3613C17.8016 22.3941 17.7332 22.41 17.7281 22.397Z" fill="#455A64"/>
<path d="M16.5865 5.37367C16.5865 5.37367 17.2543 5.1781 18.1417 4.21614C19.029 3.25418 19.3874 2.03511 19.5048 2.03213C19.6222 2.02915 20.1154 1.7621 21.2437 3.74558C22.372 5.72907 22.0259 6.23437 21.8319 6.24429C21.6379 6.25422 20.2992 5.99413 19.4864 6.14403C18.6737 6.29393 17.6515 6.78533 17.6515 6.78533L16.5865 5.37367Z" fill="#455A64"/>
<path d="M15.2295 6.59771L15.494 7.0087L15.6124 7.19335C15.7748 7.4465 16.1127 7.53088 16.3803 7.38693L17.7975 6.78832L16.8061 4.96864L15.4102 5.82735C15.1427 5.99214 15.062 6.33563 15.2295 6.59771Z" fill="#263238"/>
<path d="M16.1219 7.22213L16.6529 8.07191L16.8796 7.99249L18.4858 9.08053L18.8472 8.24465C18.8472 8.24465 17.9231 7.93492 17.7342 7.6361C17.5453 7.33828 17.7312 7.2539 17.7312 7.2539L17.2748 6.81908L16.1219 7.22213Z" fill="#263238"/>
<path d="M21.1671 3.78926C21.7695 4.86439 22.0595 5.84025 21.8175 5.9693C21.5745 6.09836 20.8894 5.32998 20.2879 4.25485C19.6865 3.17972 19.3955 2.20387 19.6385 2.07481C19.8805 1.94675 20.5657 2.71413 21.1671 3.78926Z" fill="#263238"/>
<path d="M15.1529 7.22511L15.5379 7.0762L15.2591 6.64238L14.9773 6.84291L15.1529 7.22511Z" fill="#455A64"/>
<path d="M17.431 6.96799L16.4211 7.70262L16.27 7.4594L17.431 6.96799Z" fill="#455A64"/>
<path d="M15.2592 6.64238L15.5379 7.0762L15.4583 7.10698L15.2255 6.66621L15.2592 6.64238Z" fill="#455A64"/>
<path d="M15.5389 6.72676C15.546 6.73867 15.737 6.65032 15.9657 6.52921C16.1944 6.40809 16.3752 6.29988 16.368 6.28797C16.3609 6.27606 16.1699 6.36441 15.9412 6.48553C15.7125 6.60664 15.5318 6.71485 15.5389 6.72676Z" fill="#455A64"/>
<path d="M15.397 6.46667C15.4041 6.47858 15.5767 6.39221 15.7819 6.27507C15.9882 6.15694 16.1485 6.0527 16.1413 6.04079C16.1342 6.02887 15.9616 6.11524 15.7564 6.23238C15.5511 6.35052 15.3898 6.45575 15.397 6.46667Z" fill="#455A64"/>
<path d="M15.7135 6.99778C15.7166 7.00373 15.7625 6.98983 15.835 6.96204C15.8718 6.94814 15.9147 6.93027 15.9627 6.91041C16.0097 6.88957 16.0587 6.86177 16.1107 6.83397C16.319 6.7208 16.4763 6.61359 16.4702 6.60267C16.463 6.58976 16.2925 6.67911 16.0862 6.79029C16.0342 6.81809 15.9872 6.84787 15.9412 6.86971C15.8953 6.89155 15.8544 6.9124 15.8208 6.92928C15.7523 6.96601 15.7105 6.99182 15.7135 6.99778Z" fill="#455A64"/>
<path d="M20.095 3.61852C20.095 3.61852 20.6576 3.22043 21.0405 3.97193C21.4224 4.72343 20.8118 4.89617 20.8118 4.89617C20.5269 4.53084 20.2869 4.10694 20.095 3.61852Z" fill="#455A64"/>
<path d="M19.3966 2.73994C19.3935 2.74094 19.4058 2.79256 19.4313 2.88588C19.4568 2.97919 19.4946 3.1152 19.5446 3.28098C19.5763 3.36239 19.61 3.45074 19.6467 3.54604C19.6651 3.59369 19.6845 3.64333 19.7039 3.69396C19.7141 3.71977 19.7243 3.74558 19.7346 3.77139C19.7458 3.7972 19.7591 3.82202 19.7713 3.84883C19.8224 3.95207 19.8755 4.06127 19.9306 4.17345C19.9449 4.20125 19.9582 4.23004 19.9725 4.25883C19.9857 4.28761 20.0041 4.31442 20.0205 4.34222C20.0542 4.39781 20.0879 4.45439 20.1216 4.51197C20.1563 4.56955 20.19 4.62614 20.2226 4.68173C20.24 4.70953 20.2543 4.73832 20.2737 4.76413C20.2921 4.78994 20.3105 4.81575 20.3288 4.84156C20.4024 4.94381 20.4728 5.04209 20.5402 5.1364C20.5576 5.15923 20.5729 5.18306 20.5913 5.20589C20.6096 5.22773 20.628 5.24858 20.6454 5.26943C20.6811 5.31112 20.7158 5.35182 20.7495 5.39153C20.8169 5.46996 20.8792 5.54243 20.9364 5.60994C21.0589 5.73502 21.162 5.83231 21.2325 5.90081C21.303 5.96831 21.3438 6.00504 21.3469 6.00206C21.3489 6.00008 21.3142 5.95838 21.2468 5.88691C21.1784 5.81345 21.0814 5.71119 20.9619 5.58512C20.9068 5.51761 20.8465 5.44415 20.7812 5.36473C20.7485 5.32502 20.7148 5.28432 20.6801 5.24262C20.6627 5.22178 20.6454 5.19994 20.627 5.17909C20.6096 5.15725 20.5943 5.13342 20.578 5.1096C20.5116 5.01529 20.4422 4.91701 20.3697 4.81476C20.3513 4.78894 20.3329 4.76313 20.3145 4.73732C20.2962 4.71151 20.2808 4.68272 20.2645 4.65592C20.2318 4.60033 20.1981 4.54473 20.1644 4.48715C20.1307 4.43057 20.097 4.37398 20.0634 4.31938C20.047 4.29159 20.0286 4.26478 20.0154 4.23599C20.0011 4.2072 19.9878 4.17941 19.9735 4.15161C19.9184 4.04042 19.8642 3.93222 19.8132 3.82996C19.8009 3.80415 19.7866 3.77934 19.7754 3.75352C19.7652 3.72771 19.755 3.7019 19.7448 3.67708C19.7243 3.62745 19.7049 3.57781 19.6855 3.53115C19.6467 3.43684 19.611 3.34948 19.5783 3.26907C19.5242 3.10626 19.4813 2.97423 19.4497 2.87992C19.419 2.78958 19.3996 2.73895 19.3966 2.73994Z" fill="#263238"/>
<path d="M17.8782 7.25589C17.9681 7.2817 18.0212 7.37105 17.9977 7.4594C17.9538 7.62817 17.8823 7.89323 17.8241 8.05504C17.8057 8.10766 17.7853 8.16027 17.7475 8.20197C17.7097 8.24366 17.6515 8.27146 17.5964 8.25756C17.5382 8.24366 17.4984 8.18708 17.4882 8.1295C17.4779 8.07192 17.4902 8.01335 17.5035 7.95676C17.5392 7.79991 17.6056 7.56265 17.6628 7.37006C17.6893 7.2817 17.7863 7.23008 17.8782 7.25589Z" fill="#FFBE9D"/>
<path d="M18.155 7.53088C18.2448 7.55669 18.2979 7.64603 18.2744 7.73439C18.2305 7.90315 18.159 8.16821 18.1008 8.33003C18.0825 8.38264 18.062 8.43526 18.0243 8.47695C17.9865 8.51865 17.9283 8.54644 17.8731 8.53254C17.8149 8.51865 17.7751 8.46206 17.7649 8.40448C17.7547 8.3469 17.7669 8.28833 17.7802 8.23175C17.8159 8.07489 17.8823 7.83763 17.9395 7.64504C17.966 7.5557 18.0631 7.50407 18.155 7.53088Z" fill="#FFBE9D"/>
<path d="M18.4225 7.69468C18.5001 7.71652 18.546 7.79495 18.5256 7.87139C18.4878 8.01732 18.4255 8.24664 18.3755 8.38761C18.3592 8.43327 18.3418 8.47894 18.3091 8.51468C18.2764 8.55042 18.2254 8.57424 18.1774 8.56332C18.1274 8.55141 18.0927 8.50276 18.0835 8.45313C18.0743 8.40349 18.0855 8.35286 18.0967 8.30323C18.1284 8.16722 18.1846 7.96272 18.2346 7.79495C18.2581 7.71652 18.3418 7.67185 18.4225 7.69468Z" fill="#FFBE9D"/>
<path d="M18.7247 7.72843C18.8023 7.75027 18.8483 7.8287 18.8289 7.90514C18.7911 8.05206 18.7278 8.28238 18.6777 8.42334C18.6614 8.46901 18.644 8.51467 18.6114 8.55141C18.5787 8.58714 18.5276 8.61196 18.4796 8.60005C18.4286 8.58814 18.3949 8.5385 18.3857 8.48886C18.3765 8.43923 18.3878 8.3876 18.399 8.33797C18.4306 8.20097 18.4878 7.99548 18.5379 7.8277C18.5603 7.75027 18.644 7.7056 18.7247 7.72843Z" fill="#FFBE9D"/>
<path d="M17.7822 8.20594C17.7679 8.20197 17.8016 8.05901 17.8578 7.88826C17.9129 7.71751 17.9701 7.58151 17.9834 7.58647C17.9977 7.59044 17.964 7.7334 17.9078 7.90415C17.8527 8.0749 17.7965 8.20991 17.7822 8.20594Z" fill="#EB996E"/>
<path d="M18.3571 8.43129C18.3428 8.42633 18.3877 8.28635 18.4398 8.1156C18.4929 7.94386 18.5337 7.80487 18.548 7.80686C18.5623 7.80984 18.5439 7.95577 18.4908 8.1295C18.4377 8.30422 18.3703 8.43625 18.3571 8.43129Z" fill="#EB996E"/>
<path d="M18.0723 8.39555C18.058 8.39058 18.1029 8.25061 18.155 8.07986C18.2081 7.90811 18.2489 7.76913 18.2632 7.77112C18.2775 7.77409 18.2591 7.92003 18.206 8.09375C18.1529 8.26748 18.0855 8.40051 18.0723 8.39555Z" fill="#EB996E"/>
<path d="M23.2604 -4.96098e-06C23.2716 0.00892964 22.853 0.561882 22.3251 1.23496C21.7972 1.90803 21.3591 2.44708 21.3479 2.43815C21.3366 2.42921 21.7553 1.87725 22.2832 1.20319C22.8111 0.530115 23.2481 -0.00893956 23.2604 -4.96098e-06Z" fill="#263238"/>
<path d="M25.9999 1.57547C26.006 1.58837 25.1259 1.99837 24.0333 2.49077C22.9407 2.98416 22.0503 3.37232 22.0442 3.35941C22.0381 3.34651 22.9183 2.93651 24.0108 2.44312C25.1034 1.95172 25.9938 1.56256 25.9999 1.57547Z" fill="#263238"/>
<path d="M25.5915 4.85446C25.5905 4.86836 24.9625 4.8217 24.1896 4.74923C23.4166 4.67677 22.7917 4.60628 22.7927 4.59238C22.7937 4.57848 23.4217 4.62514 24.1947 4.69761C24.9676 4.76909 25.5936 4.83957 25.5915 4.85446Z" fill="#263238"/>
<path d="M9.49305 6.69301L10.1864 10.525C10.3058 11.1871 10.9522 11.6388 11.6475 11.5455C12.3705 11.4482 12.8678 10.8009 12.7503 10.112L12.638 9.45281C12.638 9.45281 13.608 9.19668 13.507 8.2506C13.4579 7.79395 13.2782 6.86276 13.1046 6.02093C12.9106 5.07882 11.9702 4.4534 10.9808 4.60827C9.95867 4.77802 9.28679 5.72112 9.49305 6.69301Z" fill="#FFBE9D"/>
<path d="M12.6389 9.4538C12.6389 9.4538 12.0211 9.57094 11.3094 9.24532C11.3094 9.24532 11.6954 9.89259 12.6706 9.699L12.6389 9.4538Z" fill="#EB996E"/>
<path d="M12.8932 6.65826C12.9044 6.72974 12.8503 6.79725 12.7737 6.80916C12.6972 6.82207 12.6247 6.77441 12.6134 6.70294C12.6022 6.63146 12.6553 6.56395 12.7329 6.55204C12.8095 6.54013 12.882 6.58778 12.8932 6.65826Z" fill="#263238"/>
<path d="M12.9248 6.42993C12.9095 6.44979 12.7931 6.38526 12.642 6.40214C12.4898 6.41703 12.3877 6.50439 12.3694 6.4885C12.3602 6.48156 12.3745 6.4478 12.4184 6.40909C12.4623 6.37037 12.5399 6.32867 12.6338 6.31875C12.7288 6.30882 12.8115 6.33364 12.8615 6.36243C12.9126 6.39022 12.933 6.421 12.9248 6.42993Z" fill="#263238"/>
<path d="M11.4657 6.82603C11.4769 6.89751 11.4228 6.96502 11.3462 6.97693C11.2686 6.98983 11.1972 6.94218 11.1859 6.87071C11.1747 6.79923 11.2288 6.73172 11.3054 6.71981C11.383 6.7079 11.4545 6.75456 11.4657 6.82603Z" fill="#263238"/>
<path d="M11.4596 6.62054C11.4443 6.64039 11.3279 6.57587 11.1768 6.59274C11.0246 6.60763 10.9225 6.69499 10.9041 6.67911C10.895 6.67216 10.9092 6.63841 10.9532 6.59969C10.9971 6.56098 11.0747 6.51928 11.1686 6.50935C11.2636 6.49943 11.3463 6.52424 11.3963 6.55303C11.4474 6.58182 11.4668 6.6116 11.4596 6.62054Z" fill="#263238"/>
<path d="M12.1386 7.72545C12.1365 7.7175 12.2295 7.69169 12.3796 7.65596C12.4173 7.64801 12.4541 7.6361 12.4572 7.61029C12.4633 7.58249 12.4418 7.54378 12.4184 7.50307C12.3714 7.4177 12.3214 7.32736 12.2703 7.23305C12.063 6.84787 11.9078 6.5302 11.9242 6.52225C11.9405 6.51431 12.1212 6.82007 12.3295 7.20426C12.3796 7.29956 12.4276 7.3899 12.4735 7.47627C12.4929 7.51697 12.5246 7.56165 12.5113 7.61922C12.5041 7.64801 12.4786 7.67184 12.4541 7.68077C12.4306 7.6907 12.4081 7.69368 12.3898 7.69666C12.2356 7.72247 12.1406 7.73339 12.1386 7.72545Z" fill="#263238"/>
<path d="M11.7046 7.87436C11.7291 7.87039 11.7485 8.02823 11.9027 8.12452C12.0569 8.22181 12.2305 8.18409 12.2346 8.20593C12.2376 8.21586 12.1988 8.24067 12.1253 8.2506C12.0528 8.26053 11.9446 8.2506 11.8496 8.19104C11.7557 8.13147 11.7077 8.04411 11.6944 7.98058C11.6791 7.91605 11.6934 7.87535 11.7046 7.87436Z" fill="#263238"/>
<path d="M11.43 6.1341C11.4198 6.1748 11.2656 6.17282 11.091 6.21352C10.9143 6.25025 10.7775 6.31577 10.7489 6.28301C10.7367 6.26713 10.7571 6.22742 10.8102 6.18274C10.8633 6.13807 10.9501 6.09141 11.0563 6.06858C11.1614 6.04575 11.2615 6.05071 11.3299 6.06957C11.3973 6.08744 11.4341 6.11524 11.43 6.1341Z" fill="#263238"/>
<path d="M12.8412 6.10233C12.8187 6.13807 12.7095 6.11524 12.5839 6.12814C12.4573 6.13609 12.3541 6.1758 12.3255 6.14403C12.3133 6.12814 12.3255 6.0934 12.3684 6.05766C12.4103 6.02192 12.4838 5.98718 12.5706 5.98023C12.6574 5.97328 12.736 5.99512 12.783 6.02391C12.832 6.0527 12.8514 6.08546 12.8412 6.10233Z" fill="#263238"/>
<path d="M13.1088 4.40079C12.9781 4.30449 12.7687 4.30945 12.6605 4.42858C12.7493 4.30648 12.6973 4.12282 12.5737 4.03149C12.4502 3.94016 12.2776 3.93023 12.1265 3.96895C11.9754 4.00766 11.8416 4.08808 11.7099 4.16849C11.7252 4.11091 11.6905 4.04936 11.6404 4.01461C11.5904 3.97987 11.5271 3.96696 11.4648 3.96101C11.2106 3.93619 10.9543 4.00766 10.7286 4.12183C10.5029 4.23599 10.2456 4.41766 10.0475 4.57154H10.0486C9.84128 4.7274 9.63502 4.93984 9.4257 5.2188C9.42263 5.22078 9.42059 5.22277 9.41753 5.22575C9.27355 5.35083 9.15204 5.72807 9.17349 5.91272C9.25415 6.59373 9.48594 6.98785 9.61664 7.63412C9.62481 7.67681 9.63502 7.72247 9.66667 7.75424C9.74734 7.83564 9.89233 7.76714 9.96891 7.68078C10.1548 7.4723 10.2191 7.18739 10.2283 6.91339C10.2375 6.6394 10.1976 6.3664 10.2038 6.0924C10.2038 6.08645 10.2038 6.0795 10.2038 6.07255C10.2058 6.00604 10.2119 5.93456 10.2242 5.86308C10.2364 5.81841 10.3559 5.42727 10.7429 5.36374C11.1534 5.29623 11.9631 5.6834 12.3644 5.62185C12.7657 5.5603 12.7861 5.28531 12.7861 5.28531L13.022 5.7519C13.022 5.7519 13.1118 5.4779 13.0598 5.16916C13.1578 5.07485 13.2333 4.9587 13.2589 4.82865C13.2915 4.6718 13.2395 4.49708 13.1088 4.40079Z" fill="#263238"/>
<path d="M9.87799 7.10003C9.86063 7.09506 9.1765 6.98288 9.27554 7.62618C9.37459 8.27046 10.0291 8.04213 10.0281 8.02327C10.026 8.0054 9.87799 7.10003 9.87799 7.10003Z" fill="#FFBE9D"/>
<path d="M9.78502 7.80884C9.78196 7.80686 9.77481 7.81877 9.75643 7.82969C9.73805 7.84061 9.7064 7.85153 9.66964 7.84359C9.5951 7.8287 9.51852 7.72942 9.49708 7.61327C9.48584 7.5547 9.49095 7.49712 9.50524 7.44848C9.51852 7.39884 9.54507 7.36112 9.57978 7.3502C9.6145 7.33729 9.64309 7.35417 9.6533 7.37105C9.66556 7.38792 9.66249 7.40083 9.66658 7.40182C9.66862 7.40281 9.67985 7.38892 9.66964 7.3631C9.66453 7.35119 9.65432 7.3363 9.63696 7.32637C9.61858 7.31645 9.59408 7.31347 9.56957 7.31942C9.51852 7.33034 9.4787 7.38296 9.46236 7.43657C9.44398 7.49117 9.43683 7.55669 9.44908 7.62221C9.47359 7.75126 9.5614 7.86344 9.66249 7.87635C9.7115 7.88131 9.74928 7.86245 9.76664 7.84458C9.78604 7.82472 9.78809 7.80983 9.78502 7.80884Z" fill="#EB996E"/>
<path d="M8.36784 11.7649C8.36784 11.7649 8.38622 11.755 8.42605 11.7559C8.46485 11.7569 8.52407 11.7758 8.57717 11.8284C8.63129 11.879 8.67111 11.9694 8.66498 12.0726C8.66294 12.1759 8.6221 12.2871 8.58738 12.4072C8.55266 12.5253 8.52918 12.6683 8.61086 12.7894C8.68336 12.9125 8.83142 13.0068 8.89268 13.1785C8.95089 13.3443 8.90289 13.5568 8.74463 13.6769C8.66804 13.7374 8.57104 13.7762 8.46893 13.7811C8.3658 13.7851 8.26778 13.7573 8.17384 13.7345C8.0799 13.7116 7.98391 13.6928 7.89916 13.7176C7.81339 13.7404 7.75009 13.8079 7.69597 13.8784C7.64083 13.9499 7.59284 14.0283 7.52136 14.0899C7.45193 14.1534 7.35492 14.1891 7.26303 14.1822C7.07923 14.1703 6.93015 14.0531 6.85561 13.9191C6.78005 13.7831 6.76065 13.6402 6.75146 13.5141C6.74329 13.387 6.7484 13.2728 6.74533 13.1736C6.74329 13.0743 6.73614 12.9889 6.72287 12.9204C6.69734 12.7824 6.65548 12.7139 6.66058 12.7119C6.6616 12.711 6.67386 12.7278 6.69019 12.7616C6.70653 12.7953 6.72695 12.847 6.74329 12.9164C6.75963 12.9859 6.76984 13.0723 6.77494 13.1726C6.78005 13.2728 6.77903 13.387 6.78822 13.5111C6.79843 13.6342 6.82089 13.7722 6.89339 13.8983C6.96283 14.0204 7.10271 14.1256 7.26507 14.1345C7.34573 14.1395 7.42538 14.1097 7.48664 14.0531C7.54995 13.9975 7.59692 13.9211 7.65308 13.8476C7.70822 13.7752 7.7797 13.6957 7.88385 13.6679C7.98596 13.6392 8.09113 13.661 8.18609 13.6838C8.28207 13.7077 8.37499 13.7335 8.46587 13.7295C8.55573 13.7255 8.64354 13.6908 8.71195 13.6372C8.85286 13.531 8.89677 13.3413 8.84674 13.1924C8.7967 13.0405 8.65375 12.9442 8.5741 12.8112C8.53326 12.7447 8.51284 12.6673 8.5159 12.5958C8.51794 12.5243 8.53428 12.4578 8.55266 12.3972C8.59146 12.2761 8.63231 12.1699 8.63639 12.0716C8.64456 11.9743 8.61086 11.8919 8.56287 11.8423C8.5159 11.7907 8.46281 11.7698 8.42605 11.7659C8.38827 11.7619 8.36784 11.7679 8.36784 11.7649Z" fill="#FAFAFA"/>
<path d="M8.64869 18.713C8.65175 18.712 8.65482 18.7368 8.67932 18.7746C8.70281 18.8113 8.75386 18.8599 8.83759 18.8818C8.91928 18.9046 9.03466 18.8997 9.1286 18.8222C9.22458 18.7488 9.293 18.6227 9.32363 18.4758C9.3563 18.3278 9.35018 18.1591 9.37979 17.9774C9.3951 17.8871 9.42267 17.7928 9.47373 17.7064C9.52376 17.62 9.60443 17.5406 9.70858 17.5019C9.81171 17.4612 9.92709 17.4602 10.0363 17.4731C10.1466 17.485 10.2559 17.5088 10.3672 17.5227C10.4785 17.5376 10.5908 17.5386 10.7001 17.5068C10.8093 17.4771 10.9124 17.4215 10.9982 17.346C11.084 17.2696 11.1493 17.1733 11.182 17.0691C11.2137 16.9648 11.2106 16.8536 11.1759 16.7524C11.1095 16.5518 10.9318 16.389 10.7317 16.3682C10.5316 16.3463 10.3437 16.4426 10.1507 16.4466C10.0537 16.4506 9.95977 16.4258 9.88114 16.388C9.8015 16.3503 9.73309 16.3017 9.66978 16.256C9.54418 16.1627 9.42982 16.0803 9.3124 16.0436C9.19599 16.0038 9.08571 16.0217 9.01118 16.0624C8.93459 16.1021 8.89477 16.1597 8.88048 16.2004C8.86516 16.2421 8.8672 16.2669 8.86414 16.2669C8.86414 16.2669 8.85801 16.2421 8.87027 16.1974C8.88252 16.1528 8.92234 16.0902 9.00096 16.0446C9.03977 16.0227 9.08776 16.0038 9.14392 15.9969C9.20008 15.99 9.26032 15.9969 9.32261 16.0158C9.44718 16.0515 9.56767 16.1359 9.69326 16.2262C9.81886 16.3136 9.96896 16.4138 10.1507 16.4039C10.2406 16.4009 10.3325 16.3761 10.4295 16.3543C10.5255 16.3324 10.6296 16.3086 10.7399 16.3215C10.9625 16.3444 11.1544 16.5201 11.228 16.7375C11.2657 16.8467 11.2698 16.9698 11.2351 17.0849C11.1994 17.1991 11.1289 17.3033 11.037 17.3847C10.9441 17.4661 10.8338 17.5257 10.7164 17.5575C10.599 17.5912 10.4754 17.5902 10.3621 17.5734C10.2477 17.5585 10.1385 17.5346 10.0323 17.5227C9.92607 17.5108 9.81988 17.5108 9.72798 17.5475C9.63506 17.5813 9.56358 17.6508 9.51559 17.7302C9.4676 17.8106 9.44003 17.899 9.42472 17.9853C9.39408 18.1601 9.39817 18.3318 9.36243 18.4847C9.32771 18.6376 9.25317 18.7696 9.14902 18.847C9.04589 18.9284 8.91826 18.9314 8.83351 18.9036C8.74569 18.8778 8.69362 18.8232 8.67115 18.7825C8.64767 18.7378 8.64869 18.713 8.64869 18.713Z" fill="#FAFAFA"/>
<path d="M12.1172 12.6981C12.1172 12.6981 12.1336 12.6603 12.1877 12.6057C12.2418 12.5521 12.3398 12.4806 12.4899 12.4568C12.6359 12.431 12.8402 12.4816 12.978 12.6454C13.0474 12.7249 13.0914 12.836 13.1005 12.9522C13.1159 13.0664 13.1108 13.1944 13.1781 13.2977C13.2108 13.3483 13.266 13.385 13.3272 13.4049C13.3895 13.4257 13.4589 13.4317 13.5294 13.4357C13.6009 13.4396 13.6744 13.4386 13.75 13.4466C13.8245 13.4545 13.9072 13.4704 13.9736 13.523C14.0073 13.5478 14.0318 13.5826 14.0512 13.6203C14.0685 13.659 14.0747 13.7017 14.0716 13.7444C14.0634 13.8288 14.0205 13.9052 13.9654 13.9687C13.9103 14.0323 13.8408 14.0859 13.7622 14.1246C13.6856 14.1623 13.605 14.1931 13.5263 14.2288C13.4477 14.2636 13.3711 14.3033 13.3088 14.3589C13.2455 14.4145 13.2027 14.4879 13.1812 14.5703C13.1393 14.7381 13.1781 14.9178 13.169 15.1074C13.1608 15.2017 13.1404 15.298 13.0914 15.3854C13.0444 15.4717 12.9566 15.5492 12.8483 15.5631C12.7401 15.58 12.6339 15.5333 12.5553 15.4688C12.4756 15.4042 12.4123 15.3238 12.3603 15.2375C12.3092 15.1531 12.2612 15.0677 12.203 14.9932C12.1448 14.9188 12.0733 14.8553 11.9855 14.8285C11.8987 14.7997 11.8038 14.8126 11.718 14.8453C11.6312 14.8781 11.5505 14.9267 11.4699 14.9744C11.3892 15.022 11.3075 15.0717 11.2156 15.1034C11.1247 15.1362 11.0298 15.1501 10.9348 15.1481C10.7459 15.1451 10.5662 15.0786 10.4232 14.9734C10.2803 14.8692 10.1761 14.7173 10.1435 14.5535C10.1098 14.3926 10.1414 14.211 10.265 14.1008C10.3252 14.0452 10.4008 14.0134 10.4753 13.9956C10.5499 13.9767 10.6234 13.9678 10.6949 13.9588C10.8358 13.9419 10.9726 13.9151 11.0706 13.8347C11.1686 13.7553 11.2268 13.6451 11.2708 13.5399C11.3136 13.4337 11.3432 13.3284 11.38 13.2321C11.4168 13.1358 11.4607 13.0485 11.5179 12.979C11.5761 12.9095 11.6383 12.8569 11.6965 12.8122C11.814 12.7239 11.9212 12.6732 12.0019 12.6683C12.0866 12.6593 12.1183 12.701 12.1172 12.6981C12.1162 12.704 12.0825 12.6663 12.0049 12.6772C11.9294 12.6842 11.8242 12.7368 11.7119 12.8261C11.6557 12.8718 11.5944 12.9254 11.5403 12.9919C11.4862 13.0594 11.4454 13.1448 11.4106 13.2401C11.3749 13.3354 11.3473 13.4406 11.3044 13.5498C11.2605 13.657 11.2023 13.7732 11.0972 13.8605C10.991 13.9489 10.8439 13.9777 10.703 13.9956C10.5631 14.0154 10.4069 14.0303 10.2987 14.1296C10.1904 14.2269 10.1598 14.3926 10.1925 14.5425C10.2241 14.6944 10.3211 14.8354 10.4569 14.9337C10.5917 15.032 10.7622 15.0945 10.9399 15.0965C11.0277 15.0975 11.1176 15.0846 11.2013 15.0538C11.2861 15.024 11.3647 14.9764 11.4464 14.9287C11.527 14.8811 11.6098 14.8304 11.7027 14.7947C11.7946 14.759 11.9048 14.7441 12.0049 14.7768C12.106 14.8076 12.1867 14.8811 12.2479 14.9585C12.3102 15.0369 12.3592 15.1243 12.4093 15.2077C12.4593 15.2901 12.5195 15.3665 12.592 15.4251C12.6645 15.4837 12.7544 15.5224 12.8432 15.5085C12.9321 15.4966 13.0056 15.435 13.0485 15.3576C13.0924 15.2801 13.1128 15.1898 13.1199 15.1005C13.1302 14.9228 13.0903 14.7371 13.1353 14.5555C13.1577 14.4651 13.2078 14.3807 13.2782 14.3202C13.3476 14.2586 13.4293 14.2179 13.509 14.1822C13.5886 14.1464 13.6693 14.1167 13.7438 14.0799C13.8173 14.0442 13.8817 13.9946 13.9327 13.936C13.9838 13.8774 14.0226 13.8089 14.0297 13.7374C14.0328 13.7017 14.0267 13.667 14.0134 13.6352C13.9971 13.6044 13.9766 13.5746 13.9491 13.5538C13.8939 13.5101 13.8204 13.4932 13.7489 13.4853C13.6764 13.4773 13.6029 13.4773 13.5304 13.4734C13.4579 13.4694 13.3854 13.4625 13.317 13.4386C13.2496 13.4158 13.1863 13.3731 13.1496 13.3145C13.075 13.1954 13.0842 13.0644 13.0699 12.9532C13.0617 12.839 13.0219 12.7378 12.9576 12.6603C12.8289 12.5025 12.637 12.4509 12.495 12.4727C12.3511 12.4926 12.253 12.5591 12.1979 12.6097C12.1397 12.6643 12.1203 12.7 12.1172 12.6981Z" fill="#FAFAFA"/>
<path d="M10.3987 11.0223C10.4028 11.0253 10.3344 11.0938 10.1874 11.1236C10.1149 11.1385 10.025 11.1434 9.92699 11.1256C9.83203 11.1057 9.72073 11.065 9.64823 10.9697C9.5788 10.8754 9.55633 10.7682 9.54816 10.6739C9.53999 10.5786 9.55021 10.4932 9.56654 10.4227C9.59922 10.2807 9.67274 10.2142 9.67478 10.2192C9.68193 10.2242 9.62474 10.2937 9.6033 10.4297C9.59207 10.4972 9.58594 10.5796 9.59717 10.6689C9.60739 10.7573 9.63189 10.8575 9.69112 10.9379C9.75136 11.0183 9.84938 11.0571 9.9372 11.0779C10.0271 11.0968 10.1118 11.0958 10.1802 11.0868C10.3201 11.068 10.3936 11.0134 10.3987 11.0223Z" fill="#FAFAFA"/>
<path d="M14.7945 10.7682C14.7966 10.7692 14.7935 10.7781 14.7874 10.796C14.7813 10.8138 14.769 10.8387 14.7476 10.8675C14.7067 10.925 14.623 10.9985 14.4933 11.0322C14.43 11.0481 14.3544 11.0531 14.2779 11.0372C14.1992 11.0213 14.1267 10.9737 14.0604 10.924C13.993 10.8754 13.9256 10.8178 13.8449 10.796C13.7653 10.7721 13.6775 10.8059 13.6274 10.8794C13.5743 10.9518 13.5447 11.0402 13.5018 11.1206C13.461 11.204 13.3956 11.2745 13.3211 11.3201C13.172 11.4154 12.9954 11.4174 12.8739 11.3678C12.7503 11.3191 12.6768 11.2367 12.639 11.1772C12.6012 11.1166 12.5951 11.0769 12.5971 11.0759C12.6012 11.0739 12.6145 11.1107 12.6564 11.1653C12.6972 11.2189 12.7707 11.2913 12.8871 11.333C13.0005 11.3747 13.1598 11.3688 13.2935 11.2804C13.3609 11.2367 13.4161 11.1752 13.4538 11.0978C13.4947 11.0203 13.5233 10.931 13.5825 10.8486C13.6121 10.8079 13.653 10.7702 13.704 10.7523C13.754 10.7334 13.8092 10.7324 13.8572 10.7463C13.9542 10.7751 14.0216 10.8367 14.0879 10.8853C14.1533 10.936 14.2166 10.9786 14.286 10.9945C14.3544 11.0114 14.4229 11.0084 14.4821 10.9955C14.6026 10.9687 14.6843 10.9052 14.7282 10.8536C14.7762 10.8029 14.7904 10.7662 14.7945 10.7682Z" fill="#FAFAFA"/>
<path d="M15.5226 14.6666C15.5206 14.6696 15.4798 14.6448 15.4093 14.5952C15.3399 14.5445 15.2398 14.4681 15.1305 14.3599C15.0764 14.3053 15.0192 14.2417 14.9682 14.1653C14.9182 14.0879 14.8794 13.9946 14.8661 13.8923C14.8528 13.7901 14.862 13.6759 14.9182 13.5736C14.9457 13.523 14.9856 13.4764 15.0335 13.4396C15.0815 13.4029 15.1336 13.3751 15.1847 13.3463C15.2347 13.3175 15.2837 13.2887 15.3205 13.251C15.3582 13.2143 15.3838 13.1686 15.3991 13.12C15.4287 13.0217 15.4205 12.9174 15.4093 12.8202C15.3971 12.7219 15.3828 12.6256 15.3879 12.5342C15.395 12.4449 15.4175 12.3526 15.4828 12.297C15.6064 12.1927 15.7381 12.164 15.8269 12.163C15.9198 12.162 15.9566 12.2096 15.9535 12.2086C15.9505 12.2126 15.9137 12.1759 15.828 12.1828C15.7463 12.1888 15.6186 12.2245 15.5094 12.3228C15.4563 12.3704 15.4369 12.4518 15.4328 12.5362C15.4287 12.6216 15.444 12.7149 15.4583 12.8142C15.4716 12.9135 15.4818 13.0237 15.4491 13.1348C15.4328 13.1904 15.4022 13.2441 15.3593 13.2877C15.3164 13.3314 15.2633 13.3622 15.2122 13.392C15.1081 13.4486 15.0131 13.5051 14.9651 13.5985C14.9151 13.6888 14.9049 13.793 14.9161 13.8873C14.9365 14.0819 15.057 14.2259 15.1581 14.3361C15.3685 14.5515 15.5288 14.6587 15.5226 14.6666Z" fill="#FAFAFA"/>
<path d="M13.3875 16.6362C13.3875 16.6342 13.4038 16.6332 13.4355 16.6332C13.4671 16.6332 13.5131 16.6342 13.5723 16.6412C13.6897 16.6541 13.8643 16.6809 14.0563 16.7782C14.2452 16.8725 14.4505 17.0631 14.5138 17.3411C14.5444 17.4771 14.5321 17.6369 14.4505 17.7709C14.3708 17.9039 14.235 18.0151 14.0665 18.0499C13.9828 18.0667 13.894 18.0568 13.8184 18.037C13.7428 18.0181 13.6714 18.0072 13.606 18.033C13.5407 18.0568 13.4855 18.1035 13.4416 18.1561C13.3967 18.2087 13.362 18.2683 13.3273 18.3278C13.2609 18.446 13.1812 18.5651 13.0607 18.6237C12.9443 18.6822 12.8167 18.6902 12.7105 18.6644C12.6023 18.6386 12.5196 18.576 12.4665 18.5095C12.4124 18.443 12.3858 18.3735 12.3725 18.3169C12.3593 18.2593 12.3613 18.2127 12.3654 18.1829C12.3695 18.1521 12.3746 18.1372 12.3756 18.1372C12.3817 18.1372 12.3633 18.2018 12.393 18.312C12.4083 18.3656 12.4369 18.4301 12.49 18.4916C12.542 18.5522 12.6196 18.6078 12.7197 18.6286C12.8177 18.6505 12.9362 18.6405 13.0403 18.5859C13.1465 18.5323 13.219 18.4241 13.2844 18.305C13.3507 18.1889 13.4304 18.0479 13.5876 17.9853C13.6663 17.9536 13.7561 17.9675 13.8307 17.9863C13.9072 18.0062 13.9797 18.0131 14.0553 17.9992C14.2054 17.9685 14.332 17.8672 14.4045 17.7451C14.4801 17.623 14.4923 17.4781 14.4647 17.35C14.4076 17.0889 14.2166 16.9043 14.0369 16.809C13.8541 16.7107 13.6836 16.6789 13.5682 16.66C13.4528 16.6422 13.3865 16.6402 13.3875 16.6362Z" fill="#FAFAFA"/>
<path d="M11.475 19.9152C11.4638 19.9172 11.4658 19.8229 11.379 19.7107C11.3372 19.6551 11.2718 19.5995 11.1881 19.5608C11.1044 19.5221 10.9992 19.5042 10.8971 19.53C10.796 19.5578 10.7133 19.6243 10.6612 19.6988C10.6081 19.7733 10.5816 19.8537 10.5734 19.9212C10.556 20.0602 10.6061 20.1416 10.5959 20.1445C10.5928 20.1455 10.5785 20.1277 10.5622 20.0899C10.5458 20.0522 10.5315 19.9917 10.5356 19.9172C10.5397 19.8428 10.5642 19.7544 10.6204 19.671C10.6755 19.5876 10.7664 19.5112 10.8828 19.4794C11.0002 19.4496 11.1187 19.4725 11.2085 19.5171C11.2994 19.5618 11.3678 19.6263 11.4086 19.6889C11.4505 19.7514 11.4699 19.81 11.474 19.8507C11.4811 19.8924 11.4781 19.9152 11.475 19.9152Z" fill="#FAFAFA"/>
<path d="M11.8027 21.3596C11.7976 21.3606 11.7935 21.313 11.7568 21.2375C11.721 21.1641 11.6475 21.0588 11.5117 20.9933C11.38 20.9268 11.1788 20.9238 11.0134 21.0301C10.9297 21.0807 10.8725 21.1661 10.8072 21.2564C10.7735 21.3011 10.7388 21.3477 10.6908 21.3855C10.6438 21.4242 10.5795 21.451 10.5131 21.45C10.3763 21.444 10.2793 21.3537 10.2068 21.2713C10.1343 21.1869 10.073 21.1005 9.9903 21.0519C9.90861 21.0013 9.81161 20.9923 9.72584 21.0052C9.63904 21.0181 9.56246 21.0529 9.50222 21.0956C9.37969 21.1829 9.3123 21.2882 9.26635 21.3587C9.22244 21.4311 9.19998 21.4728 9.19691 21.4708C9.19385 21.4698 9.20917 21.4252 9.24899 21.3487C9.28983 21.2743 9.35314 21.1621 9.48078 21.0658C9.54408 21.0181 9.62577 20.9784 9.71971 20.9626C9.81263 20.9467 9.92291 20.9536 10.0168 21.0102C10.1118 21.0658 10.1761 21.1571 10.2476 21.2375C10.316 21.316 10.4079 21.3944 10.5151 21.3974C10.6244 21.4003 10.704 21.312 10.7663 21.2256C10.8296 21.1393 10.894 21.045 10.9879 20.9894C11.1707 20.8752 11.3892 20.8831 11.5301 20.9606C11.6741 21.036 11.7456 21.1502 11.7772 21.2296C11.7935 21.2693 11.7997 21.3031 11.8038 21.3249C11.8048 21.3477 11.8048 21.3587 11.8027 21.3596Z" fill="#FAFAFA"/>
<path d="M12.5859 17.758C12.5798 17.767 12.4858 17.6786 12.2918 17.6319C12.1959 17.6091 12.0774 17.5972 11.9477 17.6141C11.8191 17.63 11.6792 17.6746 11.5597 17.761C11.4392 17.8464 11.3586 17.9665 11.3147 18.0836C11.2718 18.2018 11.2646 18.3189 11.2779 18.4132C11.3055 18.6048 11.3974 18.6991 11.3861 18.7051C11.3841 18.7071 11.3606 18.6852 11.3289 18.6386C11.2963 18.5929 11.2605 18.5175 11.2411 18.4182C11.2228 18.3189 11.2258 18.1948 11.2687 18.0677C11.3126 17.9417 11.3984 17.8106 11.5281 17.7193C11.6567 17.626 11.8058 17.5813 11.9416 17.5664C12.0784 17.5515 12.202 17.5674 12.301 17.5962C12.4001 17.625 12.4736 17.6647 12.5195 17.6985C12.5665 17.7322 12.5879 17.756 12.5859 17.758Z" fill="#FAFAFA"/>
</g>
<defs>
<clipPath id="clip0_629_64273">
<rect width="26" height="25" fill="white"/>
</clipPath>
</defs>
</svg>
